<svg viewBox="0 0 280 280" fill="none" xmlns="http://www.w3.org/2000/svg"><path d="M256.005 119.312C249.818 121.896 242.869 121.977 236.624 119.536C228.298 115.968 223.675 106.228 224.746 97.4694C225.824 88.6662 232.026 80.878 239.866 76.909C240.047 76.7432 240.242 76.5933 240.449 76.461C233.169 56.8405 225.723 37.2872 218.113 17.801C216.724 14.2674 214.495 8.92782 211.011 7.41582C208.746 6.43582 205.962 7.41582 202.044 8.39582C185.56 12.5342 167.297 19.4558 152.373 24.9424C139.675 29.61 103.256 43.4224 97.72 45.5924C97.717 45.6863 97.7071 45.7799 97.6906 45.8724C97.4512 48.8418 99.1312 52.3628 99.1522 54.4124C99.176 56.7252 97.8992 59.1878 95.8244 59.71C95.582 61.5363 95.6292 63.3893 95.9644 65.2008C96.7022 68.3018 99.1844 68.4978 101.844 69.363C106.291 70.8106 110.694 72.4038 115.213 73.6456C119.114 74.6663 122.802 76.3729 126.105 78.6856C128.128 76.4432 130.362 74.3997 132.775 72.583C141.175 66.08 175.526 46.1636 186.175 44.8756C187.769 44.6159 189.4 44.6873 190.965 45.0852C192.531 45.4831 193.998 46.199 195.275 47.1884C198.576 50.0346 199.259 55.111 197.841 59.2284C194.078 70.1638 176.561 77.8134 166.09 82.1156C156.01 86.261 145.799 90.1138 135.579 93.947C137.599 102.028 137.694 102.339 137.831 111.405C137.957 119.7 136.172 124.309 130.803 129.279C125.714 133.991 118.882 135.145 111.511 134.366C103.618 133.533 68.7792 136.531 69.8096 136.247C65.7496 136.172 65.5718 137.859 53.382 135.531C44.7132 133.875 36.7752 123.519 37.73 115.984C38.1082 110.249 39.5028 104.626 41.8488 99.379L41.5352 99.036C45.4552 89.5468 52.5294 78.176 64.7668 73.2676C69.0476 71.5931 73.5334 70.4994 78.1046 70.0154C79.3296 69.8754 82.5188 70.1946 82.8352 68.7554C83.6752 64.9194 81.5346 66.9816 78.6268 64.7864C76.9706 63.5348 76.314 60.669 76.2846 58.7286C76.2821 58.6883 76.2873 58.6479 76.3 58.6096C74.7243 58.0962 73.3949 57.0168 72.569 55.58C52.2676 63.7434 23.94 75.8982 22.4854 76.2818C-0.57823 82.3466 40.4684 165.068 54.7582 199.762C57.2684 205.857 60.137 210.402 66.5756 210.132C69.0657 210.04 71.5202 209.509 73.8262 208.565C130.994 188.659 188.204 168.855 245.456 149.152C252.185 146.824 260.095 143.112 260.716 136.021C261.023 132.591 259.729 129.9 256.005 119.312ZM22.575 77.7448C22.5246 77.4158 22.7346 77.4186 22.8886 77.3416L23.2022 77.5208C22.9884 77.5815 22.7788 77.6564 22.575 77.7448ZM229.495 134.366C221.834 137.074 175.28 154.045 159.6 159.687C159.062 159.88 158.749 159.328 158.883 158.896C157.928 156.449 156.873 154.052 155.989 151.585C155.957 151.461 155.975 151.328 156.04 151.217C156.104 151.106 156.209 151.024 156.332 150.989C180.216 143.191 203.771 134.424 227.16 125.22C227.286 125.185 227.419 125.193 227.54 125.242C227.662 125.29 227.763 125.377 227.83 125.489C228.613 127.144 229.314 128.849 230.009 130.529C230.737 132.29 231.609 133.619 229.491 134.366H229.495Z" fill="#E04747"/><path d="M37.7047 115.97C38.083 110.235 39.4771 104.612 41.8221 99.3636L41.5085 99.0206C36.3019 101.228 23.3799 106.928 22.0975 107.52C21.4255 107.832 20.3671 108.192 19.9793 108.863C19.7224 109.574 19.7066 110.35 19.9345 111.07C20.0941 112.039 20.3055 113.011 20.5309 113.966C22.5399 122.497 23.2735 122.668 24.5293 126.566C26.2989 132.048 26.5356 135.486 29.617 142.859C29.6808 143.066 29.7897 143.257 29.9359 143.418C30.0822 143.578 30.2621 143.704 30.4628 143.787C30.6636 143.87 30.8801 143.907 31.0969 143.896C31.3138 143.885 31.5255 143.826 31.717 143.724C38.3109 140.815 44.9063 137.904 51.5465 135.069C43.6281 132.457 36.8087 122.997 37.7047 115.97Z" fill="#111111"/><path d="M234.37 60.9882C231.183 50.3289 227.448 39.8411 223.18 29.5666C223.115 29.3572 223.005 29.1647 222.857 29.0029C222.71 28.8412 222.528 28.7143 222.325 28.6314C222.122 28.5484 221.904 28.5116 221.685 28.5235C221.466 28.5354 221.253 28.5957 221.06 28.7C219.302 29.4035 217.509 30.0157 215.688 30.534C213.748 31.2018 179.193 43.694 170.092 47.1562C150.546 54.5874 109.351 70.9982 108.172 71.4756C110.485 72.2526 112.813 72.9932 115.185 73.64C123.592 75.9318 130.536 80.549 133.85 88.501C148.838 69.615 149.178 68.733 152.933 64.9712C153.187 64.7164 153.692 64.9992 153.485 65.3296C150.162 70.2257 146.586 74.9454 142.772 79.4696C140.906 81.8496 135.372 88.9588 134.432 90.1096C135.23 92.5022 136.797 98.9296 137.117 100.702C154.932 93.8238 205.094 74.1566 212.346 71.19C219.134 68.4124 225.953 65.7146 232.548 62.5212C232.775 62.6248 233.027 62.6619 233.274 62.6282C233.521 62.5944 233.753 62.4913 233.944 62.3308C234.135 62.1702 234.276 61.9589 234.351 61.7212C234.427 61.4836 234.433 61.2294 234.37 60.9882ZM160.187 78.7136C158.925 80.6231 157.459 82.3892 155.814 83.9804C155.647 84.1323 155.431 84.2201 155.205 84.2285C154.979 84.2368 154.757 84.1652 154.579 84.0262C154.401 83.8871 154.277 83.6896 154.23 83.4685C154.183 83.2473 154.216 83.0166 154.322 82.817C156.248 79.177 158.119 78.0066 169.022 63.1078C171.549 59.654 174.219 56.1078 177.002 52.7828C177.147 52.6255 177.345 52.5274 177.557 52.5078C177.77 52.4881 177.983 52.5481 178.154 52.6763C178.325 52.8045 178.442 52.9916 178.483 53.2014C178.524 53.4113 178.486 53.6288 178.375 53.8118C174.233 60.4912 164.772 72.4136 160.187 78.7136ZM189.669 53.1104C178.34 67.7376 177.38 69.44 176.464 68.642C176.343 68.5476 176.261 68.4118 176.233 68.2604C176.205 68.1091 176.234 67.9529 176.315 67.8216C177.635 65.7556 179.101 63.7864 180.702 61.929C180.726 61.8982 184.932 56.5838 188.542 52.2452C189.105 51.5788 190.187 52.4412 189.669 53.1104Z" fill="#111111"/><path d="M135.001 102.138C134.008 94.0436 131.695 85.7906 125.362 80.6386C119.622 75.9724 103.933 71.4182 96.7287 69.8656C96.1169 69.734 95.6255 70.672 96.2667 70.9548C120.54 78.6912 131.88 79.1 133.911 108.584C134.304 113.074 133.523 117.589 131.643 121.685C130.033 124.879 127.032 126.682 123.855 128.115C115.468 131.895 105.178 126.414 98.1469 122.013C97.9254 121.865 97.6668 121.783 97.4007 121.775C105.372 115.99 108.539 113.994 112.948 110.628C113.887 109.911 113.53 109.019 112.426 109.554C104.02 113.63 92.2347 126.024 79.1685 130.34C73.9541 132.121 68.4557 132.925 62.9495 132.712C57.6519 132.448 51.6347 131.151 47.4179 127.744C43.5637 124.631 42.0545 119 42.1511 114.164C42.4767 108.609 43.9125 103.176 46.3735 98.1848C48.3959 93.1979 51.179 88.5545 54.6237 84.42C61.7091 76.6752 71.9627 73.5644 82.2863 72.1C82.9135 72.0118 82.7791 70.9702 82.1365 70.9968C72.2607 71.4543 62.8221 75.2044 55.3251 81.6494C51.6909 85.1717 48.7591 89.3525 46.6857 93.9694C41.9005 103.706 37.3603 115.249 42.8665 124.629C45.5979 129.284 50.5819 131.757 55.6233 133.09C65.9666 135.644 76.8916 134.225 86.2399 129.115C89.8147 127.066 93.2673 124.81 96.5803 122.36C96.5443 122.573 96.5786 122.791 96.6782 122.983C96.7778 123.174 96.9371 123.327 97.1319 123.42C108.532 130.687 120.372 135.11 130.494 126.105C133.329 123.585 134.925 119.329 135.492 115.661C135.94 111.152 135.775 106.603 135.001 102.138Z" fill="#111111"/><path d="M111.188 107.257C100.94 101.423 88.9084 103.88 78.0934 108.57C74.144 110.144 70.369 112.124 66.829 114.478C66.1584 114.957 66.815 115.913 67.6942 115.507C72.2246 113.417 80.6974 108.499 88.5388 106.54C95.8849 104.739 103.615 105.346 110.59 108.272C111.265 108.564 111.873 107.646 111.188 107.257Z" fill="#111111"/><path d="M115.543 97.2748C115.51 97.1666 115.443 97.072 115.351 97.0048C115.26 96.9376 115.15 96.9014 115.037 96.9014C114.923 96.9014 114.813 96.9376 114.722 97.0048C114.631 97.072 114.563 97.1666 114.53 97.2748C114.342 98.5296 114.243 99.796 114.232 101.065C114.056 102.3 114.026 103.552 114.142 104.794C114.166 104.879 114.215 104.954 114.282 105.011C114.349 105.068 114.431 105.105 114.518 105.116C114.605 105.127 114.693 105.112 114.772 105.074C114.851 105.036 114.917 104.975 114.962 104.899C116.033 102.502 116.238 99.8069 115.543 97.2748Z" fill="#111111"/><path d="M64.5008 105.825C64.2751 108.155 64.6395 110.505 65.5606 112.658C65.6044 112.75 65.6768 112.825 65.7669 112.873C65.857 112.92 65.9601 112.938 66.0607 112.922C66.1614 112.906 66.2543 112.858 66.3256 112.786C66.3969 112.713 66.4428 112.619 66.4566 112.518C66.4617 110.255 66.2009 108 65.6796 105.798C65.5858 105.154 64.5106 105.123 64.5008 105.825Z" fill="#111111"/><path d="M98.714 74.1328C98.2716 73.899 96.4264 75.3704 95.1328 75.775C93.0512 76.4673 90.8526 76.738 88.6652 76.5714C86.4778 76.4049 84.3456 75.8043 82.3928 74.8048C81.6046 74.4464 80.9452 75.0512 81.676 75.5216C84.8269 77.417 88.5396 78.1556 92.176 77.6104C94.5462 77.3528 100.444 75.0526 98.714 74.1328Z" fill="#111111"/><path d="M114.888 138.38C114.781 136.671 114.505 134.977 114.066 133.322C113.77 132.129 66.0814 135.202 65.8742 136.247C59.4888 168.406 58.0412 184.528 56.056 218.876C55.5604 227.455 54.824 240.479 55.2356 249.075C55.24 249.391 55.3672 249.692 55.5903 249.915C55.8133 250.137 56.1146 250.264 56.4298 250.268C60.1454 250.291 63.8498 250.366 67.5598 250.389C67.8185 250.386 68.0696 250.3 68.2763 250.144C68.483 249.989 68.6347 249.771 68.7092 249.523C74.2826 226.432 77.4088 206.16 84.2856 183.41C85.6702 178.829 87.5532 171.877 88.9854 167.31C90.7606 188.11 95.1356 208.625 96.9234 229.424C97.4834 235.975 98.0434 242.529 98.6034 249.088C98.6142 249.419 98.7505 249.733 98.9845 249.967C99.2184 250.201 99.5327 250.337 99.8634 250.348C104.838 250.954 109.883 250.543 114.694 249.138C114.95 249.059 115.176 248.901 115.339 248.687C115.502 248.474 115.595 248.214 115.604 247.946C117.405 230.895 117.013 213.553 117.067 196.41C117.124 177.223 116.747 157.413 114.888 138.38Z" fill="#111111"/><path d="M242.025 174.07C242.094 173.027 240.187 173.107 239.399 172.847C236.799 171.989 236.929 168.818 235.802 166.655C235.743 166.514 235.663 166.383 235.564 166.267C235.527 166.229 235.483 166.2 235.434 166.179C235.385 166.159 235.333 166.149 235.28 166.149C235.228 166.149 235.176 166.159 235.127 166.179C235.078 166.2 235.034 166.229 234.997 166.267C234.333 167.09 234.798 168.682 233.191 170.887C232.134 172.263 230.674 173.275 229.013 173.781C228.867 173.87 228.754 174.005 228.691 174.164C228.628 174.323 228.619 174.499 228.664 174.664C228.71 174.829 228.808 174.975 228.944 175.079C229.079 175.184 229.245 175.242 229.417 175.244C229.596 175.224 229.76 175.183 229.939 175.154C230.713 175.274 231.454 175.551 232.116 175.97C232.779 176.388 233.348 176.938 233.789 177.586C235.036 179.826 234.097 181.832 235.087 182.615C235.176 182.698 235.293 182.744 235.415 182.744C235.537 182.744 235.654 182.698 235.743 182.615C235.939 182.402 236.084 182.148 236.167 181.871C236.249 181.594 236.268 181.302 236.221 181.017C236.667 178.88 237.837 176.962 239.533 175.587C240.547 174.916 242.211 175.07 242.025 174.07ZM235.743 178.143C235.558 177.495 235.271 176.88 234.892 176.323C234.16 175.355 233.151 174.632 231.998 174.25C233.593 173.23 234.808 171.715 235.459 169.938C235.641 170.863 235.99 171.748 236.489 172.549C237.055 173.365 237.865 173.981 238.802 174.308C237.457 175.289 236.4 176.614 235.743 178.143Z" fill="#111111"/><path d="M135.314 208.939C134.257 207.01 133.919 204.769 134.359 202.614C134.714 201.447 136.003 200.556 135.283 199.898C134.779 199.079 133.449 200.234 132.623 200.598C130.045 201.744 128.057 199.3 125.85 198.3C125.43 198.005 124.845 198.02 124.851 198.493C124.86 199.508 126.209 200.341 126.447 203.029C126.563 204.757 126.124 206.477 125.194 207.938C124.846 208.697 125.787 209.605 126.431 208.893C126.54 208.776 126.64 208.652 126.731 208.52C127.39 208.125 128.121 207.864 128.882 207.754C129.643 207.644 130.418 207.687 131.162 207.879C133.645 208.767 134.25 211.06 135.488 210.892C135.589 210.89 135.688 210.856 135.768 210.794C135.849 210.732 135.908 210.646 135.936 210.549C135.98 210.25 135.946 209.944 135.837 209.662C135.728 209.38 135.548 209.131 135.314 208.939ZM131.345 206.238C130.134 205.907 128.843 206.035 127.719 206.597C128.3 204.76 128.259 202.782 127.6 200.971C129.272 202.201 130.854 202.931 132.867 202.21C132.896 202.195 132.926 202.195 132.957 202.181C132.753 203.02 132.672 203.885 132.717 204.747C132.929 208.162 133.998 207.001 131.345 206.238Z" fill="#111111"/><path d="M78.0346 46.1272C77.0952 44.8238 75.537 44.5956 74.886 40.8072C74.6701 38.5335 74.6903 36.2435 74.9462 33.9738C74.9441 33.8956 74.9168 33.8202 74.8683 33.7588C74.8198 33.6974 74.7527 33.6533 74.6771 33.6332C74.6015 33.613 74.5214 33.6178 74.4488 33.6469C74.3762 33.676 74.3149 33.7279 74.2742 33.7946C71.2474 40.3578 74.669 47.5146 77.8106 46.7446C77.8704 46.7245 77.9249 46.6911 77.97 46.647C78.0151 46.6029 78.0497 46.5492 78.0713 46.4899C78.0928 46.4306 78.1007 46.3672 78.0943 46.3044C78.088 46.2416 78.0675 46.1811 78.0346 46.1272Z" fill="#111111"/><path d="M82.3312 42.4718C81.2206 41.4043 80.5259 39.9766 80.3712 38.444C80.2816 36.5932 80.4776 34.552 82.0876 33.3858C82.4152 33.1478 82.2346 32.5766 81.8076 32.6998C78.0276 33.775 77.714 42.3262 81.7026 43.2782C82.124 43.3776 82.6462 42.889 82.3312 42.4718Z" fill="#111111"/><path d="M87.703 43.323C86.3884 41.8922 86.6544 40.012 86.0608 38.2942C86.0245 38.1849 85.9508 38.0919 85.8528 38.0315C85.7548 37.9711 85.6386 37.9472 85.5247 37.9639C85.4107 37.9806 85.3063 38.0369 85.2298 38.1229C85.1532 38.2089 85.1094 38.3191 85.106 38.4342C85.0019 39.4609 85.1012 40.4981 85.3984 41.4864C85.6955 42.4747 86.1847 43.3947 86.8378 44.1938C86.9532 44.3085 87.1096 44.3727 87.2723 44.3722C87.4351 44.3717 87.591 44.3065 87.7058 44.191C87.8205 44.0755 87.8847 43.9192 87.8841 43.7564C87.8836 43.5936 87.8184 43.4377 87.703 43.323Z" fill="#111111"/><path d="M92.015 44.8154C91.7579 44.4396 91.538 44.0397 91.3584 43.6212C91.2044 43.2012 91.1736 42.7574 91.0448 42.3374C91.0202 42.2556 90.9699 42.1838 90.9013 42.1328C90.8327 42.0818 90.7495 42.0542 90.664 42.0542C90.5785 42.0542 90.4953 42.0818 90.4267 42.1328C90.3581 42.1838 90.3078 42.2556 90.2832 42.3374C90.1353 42.8874 90.1435 43.4677 90.3069 44.0132C90.4704 44.5587 90.7826 45.0479 91.2086 45.4258C91.6412 45.7996 92.3314 45.3348 92.015 44.8154Z" fill="#111111"/><path d="M93.2833 37.8168C91.5669 36.5792 88.8215 37.0118 88.7921 34.0718C88.7878 34.0143 88.7658 33.9595 88.7291 33.915C88.6924 33.8704 88.6429 33.8383 88.5873 33.823C88.5317 33.8077 88.4727 33.8099 88.4184 33.8294C88.3641 33.8488 88.3171 33.8846 88.2839 33.9318C86.7733 36.5582 89.7903 37.8294 91.7461 38.528C93.8041 39.2616 94.6161 41.2874 95.0585 43.2726C95.5009 45.2578 94.9941 47.1646 95.3385 49.077C95.3554 49.1314 95.3874 49.1799 95.4308 49.2167C95.4743 49.2536 95.5273 49.2773 95.5837 49.2851C95.6402 49.2929 95.6976 49.2844 95.7494 49.2607C95.8012 49.237 95.8452 49.199 95.8761 49.1512C97.7003 46.375 95.7137 39.571 93.2833 37.8168Z" fill="#111111"/><path d="M82.0399 50.82C81.9712 50.5525 81.8001 50.3229 81.5634 50.1806C81.3268 50.0383 81.0436 49.9948 80.7752 50.0595C80.5067 50.1242 80.2745 50.292 80.1287 50.5265C79.9829 50.761 79.9352 51.0434 79.9959 51.3128C80.0995 52.682 81.585 52.8332 81.9658 51.8798C82.0972 51.5422 82.1231 51.1726 82.0399 50.82Z" fill="#111111"/><path d="M87.5238 50.1858C87.3433 50.1591 87.1589 50.1841 86.9921 50.2579C86.8252 50.3318 86.6827 50.4514 86.5812 50.603C86.4796 50.7546 86.4231 50.9318 86.4182 51.1142C86.4133 51.2966 86.4603 51.4766 86.5536 51.6334C86.5575 51.8807 86.6595 52.1163 86.8371 52.2884C87.0147 52.4605 87.2534 52.555 87.5007 52.5511C87.748 52.5472 87.9836 52.4453 88.1557 52.2676C88.3278 52.09 88.4223 51.8513 88.4184 51.604C88.4786 51.2981 88.4194 50.9807 88.2531 50.717C88.0867 50.4533 87.8258 50.2633 87.5238 50.1858Z" fill="#111111"/><path d="M84.5837 56.9296C84.6986 55.8837 84.6986 54.8284 84.5837 53.7824C84.7069 52.7439 84.6767 51.693 84.4941 50.6632C84.4741 50.5963 84.4352 50.5366 84.3821 50.4911C84.329 50.4457 84.2639 50.4165 84.1947 50.4071C84.1254 50.3976 84.0549 50.4083 83.9916 50.4379C83.9283 50.4674 83.8748 50.5145 83.8375 50.5736C83.3819 51.5781 83.197 52.6844 83.3013 53.7824C83.1907 54.8844 83.3344 55.997 83.7213 57.0346C83.7679 57.1144 83.8369 57.1787 83.9196 57.2198C84.0024 57.2608 84.0953 57.2767 84.187 57.2656C84.2787 57.2544 84.3651 57.2166 84.4356 57.1569C84.5061 57.0973 84.5576 57.0182 84.5837 56.9296Z" fill="#111111"/><path d="M86.5689 58.8854C86.5483 58.8503 86.52 58.8203 86.4861 58.7976C86.4523 58.7749 86.4138 58.7601 86.3734 58.7543C86.3331 58.7486 86.292 58.7519 86.2531 58.7642C86.2142 58.7765 86.1787 58.7973 86.1489 58.8252C85.7135 59.3726 85.421 61.3354 84.5824 60.5262C84.3016 60.2553 84.0783 59.9305 83.9257 59.5714C83.9084 59.5138 83.8729 59.4633 83.8247 59.4274C83.7764 59.3916 83.7178 59.3722 83.6577 59.3722C83.5975 59.3722 83.5389 59.3916 83.4906 59.4274C83.4423 59.4633 83.4069 59.5138 83.3895 59.5714C83.331 59.8341 83.34 60.1073 83.4157 60.3656C83.4913 60.6239 83.6312 60.8588 83.8222 61.0484C85.4644 62.986 87.3081 60.0292 86.5689 58.8854Z" fill="#111111"/><path d="M98.028 52.4832C97.2944 49.784 93.4416 48.6626 92.3286 51.7076C92.148 52.2004 92.8886 52.6456 93.2232 52.2298C94.8262 50.2138 97.3434 51.5298 96.8632 54.7372C96.712 55.7508 96.236 58.0972 94.1934 56.9296C94.104 56.8793 94.003 56.8531 93.9004 56.8536C93.7978 56.8542 93.6971 56.8814 93.6083 56.9327C93.5194 56.984 93.4454 57.0575 93.3936 57.1461C93.3418 57.2347 93.314 57.3352 93.3128 57.4378C93.2134 58.4808 93.1728 59.5112 93.1728 60.5556C93.0389 62.6043 93.139 64.6616 93.471 66.6876C93.5921 69.1534 94.3036 71.5541 95.5458 73.6876C95.5842 73.7497 95.6437 73.7959 95.7133 73.8178C95.783 73.8396 95.8582 73.8357 95.9252 73.8066C95.9922 73.7775 96.0465 73.7253 96.0781 73.6595C96.1097 73.5937 96.1166 73.5187 96.0974 73.4482C94.9774 68.1156 94.7086 69.2244 94.4258 63.0042C94.472 60.0362 94.2774 60.305 94.4258 58.275C97.2216 58.9736 98.6678 54.8422 98.028 52.4832Z" fill="#111111"/><path d="M89.3731 63.4354C87.0603 63.8974 84.987 64.8074 82.6154 63.9282C75.8198 61.4082 80.0604 48.9174 79.6012 44.8C79.5979 44.7122 79.5639 44.6283 79.5051 44.563C79.4464 44.4977 79.3665 44.455 79.2796 44.4425C79.1926 44.43 79.104 44.4485 79.0292 44.4946C78.9544 44.5407 78.8982 44.6117 78.8703 44.695C78.2547 46.4587 77.9073 48.3049 77.8399 50.1718C76.0199 48.783 73.1037 50.5918 73.1247 53.0208C73.1396 53.7127 73.3032 54.3932 73.6044 55.0162C73.9057 55.6392 74.3375 56.1901 74.8705 56.6314C75.2452 56.9354 75.6898 57.1411 76.1641 57.2299C76.6384 57.3186 77.1273 57.2876 77.5865 57.1396C77.6382 58.6109 77.9358 60.0632 78.4671 61.4362C78.9979 62.5884 79.8355 63.5724 80.8882 64.2804C81.9408 64.9883 83.168 65.393 84.4353 65.45C84.5109 68.2906 85.1732 67.83 84.4045 72.611C84.2408 73.0436 84.0629 73.4622 83.9131 73.8948C83.8935 73.9667 83.8957 74.0428 83.9196 74.1134C83.9435 74.184 83.9879 74.2458 84.0472 74.2909C84.1065 74.3361 84.1779 74.3625 84.2523 74.3667C84.3267 74.371 84.4007 74.3529 84.4647 74.3148C84.9023 73.9613 85.2572 73.5163 85.5046 73.0111C85.752 72.5059 85.8859 71.9526 85.8969 71.3902C86.2277 69.4077 86.095 67.3755 85.5091 65.4528C86.9894 65.4095 88.4274 64.949 89.6573 64.1242C89.7487 64.0865 89.8213 64.0141 89.8593 63.9229C89.8972 63.8316 89.8973 63.7291 89.8596 63.6377C89.822 63.5464 89.7495 63.4737 89.6583 63.4358C89.5671 63.3979 89.4645 63.3977 89.3731 63.4354ZM77.5711 56.0154C77.0539 56.0903 76.5264 56.0423 76.0311 55.8754C75.6629 55.6624 75.3402 55.3789 75.0815 55.0412C74.8228 54.7034 74.6331 54.318 74.5233 53.907C74.3231 53.4739 74.2763 52.9856 74.3907 52.5223C74.505 52.0591 74.7737 51.6486 75.1525 51.3585C75.5313 51.0684 75.9976 50.9159 76.4747 50.9262C76.9517 50.9364 77.411 51.1088 77.7769 51.415C77.6691 53.06 77.5599 54.8296 77.5711 56.0196V56.0154Z" fill="#111111"/><path d="M66.6792 254.402C66.1098 254.141 65.4776 254.049 64.8573 254.136C64.237 254.223 63.6546 254.486 63.1792 254.894C62.4484 255.431 62.0452 256.154 61.061 256.057C60.0446 255.959 59.822 255.163 59.15 254.477C58.3877 253.743 57.3757 253.326 56.3179 253.309C55.2602 253.293 54.2355 253.678 53.4506 254.387C51.1134 256.376 48.3683 257.827 45.409 258.639C43.7808 259.109 42.0378 259.179 40.425 259.728C35.3696 261.447 36.3538 268.362 42.7238 269.755C46.5309 270.404 50.4147 270.469 54.2416 269.949C61.054 269.263 68.0372 268.234 68.9682 261.758C69.3182 259.28 69.3532 255.665 66.6792 254.402ZM66.8738 262.459C66.6476 263.234 66.2536 263.949 65.7198 264.554C65.186 265.159 64.5256 265.639 63.7854 265.959C60.7352 267.182 57.5027 267.888 54.2206 268.048C50.768 268.486 47.274 268.486 43.8214 268.048C43.0016 267.991 42.2038 267.758 41.4827 267.364C40.7617 266.969 40.1343 266.424 39.6438 265.765C39.3772 265.427 39.1961 265.03 39.116 264.608C39.0358 264.185 39.0591 263.75 39.1836 263.338C39.3082 262.926 39.5304 262.551 39.8314 262.243C40.1324 261.936 40.5032 261.706 40.9122 261.573C42.2327 261.216 43.5729 260.935 44.926 260.733C47.7114 260.073 50.3319 258.849 52.626 257.137C53.5945 256.232 54.7447 255.543 56 255.118C58.1742 254.951 59.1766 259.826 62.6696 257.789C63.9044 257.068 65.4206 254.771 66.7422 256.998C67.3987 258.752 67.4451 260.676 66.8738 262.459Z" fill="#111111"/><path d="M133.165 263.19C131.044 260.565 127.588 260.11 124.944 258.222C122.247 256.292 120.512 253.004 117.006 252.388C116.218 252.252 115.41 252.286 114.636 252.486C113.861 252.687 113.138 253.05 112.515 253.551C111.362 254.471 111.115 255.807 110.202 256.848C108.76 258.495 106.95 255.814 105.302 255.58C104.771 255.485 104.225 255.544 103.726 255.749C103.227 255.955 102.798 256.299 102.488 256.74C100.796 259.071 99.9095 265.479 103.87 268.038C106.14 269.506 107.18 268.474 114.345 270.725C117.573 271.942 120.954 272.708 124.391 273C132.836 273.244 136.867 267.77 133.165 263.19ZM125.003 271.097C120.13 271.121 115.466 268.814 110.769 267.771C107.88 267.128 103.848 267.784 102.847 263.399C102.485 261.756 102.593 260.044 103.16 258.46C103.361 258.545 103.586 258.551 103.791 258.476C103.996 258.402 104.165 258.252 104.264 258.058C104.791 256.992 107.727 259.441 108.546 259.609C108.955 259.694 109.377 259.691 109.784 259.598C110.191 259.505 110.573 259.325 110.904 259.071C111.645 258.388 112.239 257.56 112.65 256.64C113.015 255.793 113.678 255.111 114.512 254.72C115.347 254.329 116.296 254.258 117.18 254.52C120.161 255.438 121.866 258.681 124.446 260.28C126.998 261.859 130.683 262.345 132.189 265.247C134.354 269.408 127.928 271.083 125.003 271.097Z" fill="#111111"/><path d="M211.12 195.16C209.417 191.214 206.393 187.984 202.567 186.026C198.741 184.068 194.353 183.504 190.156 184.432C189.157 184.685 189.605 186.091 190.576 185.94C194.029 185.264 197.607 185.676 200.816 187.118C204.025 188.56 206.708 190.962 208.495 193.993C210.283 197.024 211.086 200.534 210.795 204.041C210.503 207.547 209.132 210.877 206.87 213.571C204.625 216.215 201.678 218.169 198.37 219.21C195.062 220.25 191.528 220.334 188.174 219.451C181.474 217.56 178.263 210.44 177.894 203.949C177.635 200.691 178.231 197.422 179.623 194.464C181.015 191.507 183.155 188.965 185.832 187.089C185.939 187.026 186.016 186.923 186.046 186.802C186.077 186.682 186.059 186.555 185.996 186.448C185.932 186.341 185.829 186.264 185.709 186.233C185.589 186.202 185.461 186.221 185.354 186.284C172.726 191.82 173.454 214.63 185.074 220.258C192.083 223.653 201.02 221.729 206.619 216.527C209.419 213.823 211.344 210.342 212.147 206.534C212.949 202.725 212.591 198.763 211.12 195.16Z" fill="#111111"/><path d="M186.117 200.42C186.801 201.764 188.654 202.125 190.026 202.15C190.986 202.143 191.942 202.028 192.877 201.807C193.525 203.753 194.557 208.706 195.026 210.685C192.578 211.46 190.673 210.825 188.37 209.371C187.73 208.967 186.841 209.791 187.296 210.447C189.09 213.017 192.399 213.445 195.488 212.565C195.786 213.699 196.115 214.833 196.487 215.925C196.742 216.671 197.977 216.611 197.935 215.73C197.862 214.418 197.703 213.112 197.457 211.821C201.237 210.001 204.113 206.301 202.574 202.441C201.144 198.845 197.254 199.129 194.055 199.741C193.355 197.547 192.592 195.294 191.698 193.161C192.864 192.793 194.098 192.691 195.308 192.863C195.786 192.923 195.8 192.224 195.413 192.086C194.042 191.591 192.549 191.539 191.146 191.937C190.714 191.012 190.268 190.117 189.773 189.266C189.716 189.176 189.629 189.109 189.527 189.076C189.426 189.044 189.316 189.049 189.217 189.09C189.119 189.131 189.038 189.206 188.99 189.301C188.941 189.396 188.928 189.505 188.952 189.609C189.196 190.567 189.475 191.519 189.773 192.473C186.357 194.253 185.136 198.489 186.117 200.42ZM196.197 201.151C198.986 200.847 201.778 202.24 201.016 205.478C200.701 206.444 200.182 207.331 199.495 208.08C198.807 208.829 197.967 209.421 197.032 209.818C196.465 207.452 195.649 204.821 194.586 201.418C195.129 201.32 195.667 201.209 196.204 201.151H196.197ZM188.16 196.168C188.628 195.218 189.345 194.414 190.235 193.84C190.921 195.929 191.667 198.002 192.335 200.077C191.178 200.439 189.944 200.475 188.769 200.18C186.936 199.468 187.46 197.569 188.16 196.168Z" fill="#111111"/><path d="M249.515 80.668C248.545 80.5182 248.097 81.928 249.095 82.1758C252.466 82.8752 255.544 84.5817 257.924 87.0696C260.303 89.5574 261.871 92.7092 262.419 96.1077C262.967 99.5061 262.471 102.991 260.995 106.101C259.519 109.211 257.133 111.799 254.153 113.523C250.921 115.379 247.197 116.201 243.484 115.879C239.77 115.557 236.244 114.105 233.38 111.72C228.277 107.258 228.322 99.5904 230.485 93.6376C231.547 90.5561 233.393 87.8043 235.842 85.6536C238.291 83.5028 241.258 82.0272 244.451 81.3722C244.557 81.3406 244.648 81.2722 244.708 81.1794C244.768 81.0867 244.793 80.9755 244.779 80.8659C244.764 80.7563 244.711 80.6555 244.629 80.5815C244.547 80.5075 244.441 80.4652 244.331 80.4622C230.402 80.7534 222.478 101.406 230.306 111.184C235.486 117.646 245.286 119.375 252.732 116.287C256.197 114.775 259.149 112.291 261.231 109.135C263.312 105.979 264.433 102.287 264.459 98.5068C264.46 90.083 257.947 81.9812 249.515 80.668Z" fill="#111111"/><path d="M239.4 93.59C239.4 95.1566 240.996 96.278 242.294 96.8576C243.199 97.2011 244.133 97.4657 245.084 97.6486C244.3 103.145 244.367 102.117 243.562 106.705C240.892 106.481 239.533 105.139 237.997 102.925C237.898 102.768 237.746 102.65 237.569 102.594C237.391 102.538 237.2 102.546 237.028 102.618C236.856 102.69 236.715 102.82 236.631 102.986C236.546 103.151 236.523 103.342 236.565 103.523C237.159 106.614 240.026 108.268 243.235 108.625C243.055 109.803 242.908 111.005 242.831 112.176C242.774 113.057 244.006 113.1 244.279 112.37C244.721 111.168 245.08 109.936 245.353 108.685C249.754 108.431 254.058 105.925 253.739 101.522C253.478 97.9426 250.008 96.8828 246.98 96.2262C247.204 93.9288 247.4 91.5558 247.4 89.243C248.603 89.3572 249.766 89.74 250.802 90.363C250.885 90.4081 250.982 90.4218 251.075 90.4017C251.168 90.3816 251.251 90.329 251.308 90.2534C251.366 90.1778 251.394 90.0841 251.389 89.9892C251.384 89.8943 251.345 89.8045 251.279 89.7358C250.203 88.7324 248.843 88.0864 247.386 87.8864C247.355 86.8868 247.299 85.9012 247.176 84.9464C247.118 84.4984 246.38 84.2898 246.296 84.8274C246.138 85.8256 246.028 86.8266 245.923 87.8416C242.179 88.1202 239.4 91.3948 239.4 93.59ZM246.785 98.0364C250.097 98.8568 253.4 100.136 251.426 103.776C250.324 105.806 247.964 106.522 245.741 106.701C246.17 104.132 246.604 100.019 246.784 98.0364H246.785ZM245.784 89.32C245.591 91.4984 245.456 93.7062 245.262 95.8846C244.135 95.7048 243.058 95.2934 242.099 94.6764C241.277 94.08 241.038 93.66 241.413 92.6464C241.828 91.7871 242.441 91.0379 243.2 90.4599C243.96 89.8819 244.845 89.4913 245.784 89.32Z" fill="#111111"/></svg>