<svg viewBox="0 0 280 280" fill="none" xmlns="http://www.w3.org/2000/svg"><path d="M259.992 183.031L221.7 180L220.692 207.276L216.662 214.347L201.546 226.469L170.308 246.673L165.269 247.684L156.2 245.663L143.1 242.633L139.069 241.622V246.673L155.192 252.735L130 267.888L140.077 272.939L151.162 277.99L156.2 279L161.238 276.98L163.254 273.949L170.308 267.888L179.377 261.827L197.515 255.765L220.692 246.673L237.823 237.582L248.908 230.51L255.962 222.429L259.992 214.347L261 203.235L259.992 183.031Z" fill="white"/><path d="M170.084 110.787C170.387 109.283 171.969 108.295 172.657 109.622C172.866 110.006 172.983 110.445 172.998 110.895C173.013 111.345 172.926 111.792 172.743 112.194C172.555 112.546 172.257 112.808 171.907 112.928C171.557 113.048 171.18 113.017 170.849 112.842C170.517 112.667 170.256 112.36 170.115 111.98C169.973 111.6 169.962 111.175 170.084 110.787Z" fill="#111111"/><path d="M173.423 59.7661C154.815 67.8246 153.892 55.0512 155.578 48H198L186.315 51.4047L185.559 64.8027L186.57 69.8392L188.592 72.8611L179.491 86.9635L170.389 92L168.366 89.9854L166.344 74.8758L167.531 66.7257H169.239L173.423 59.7661Z" fill="white"/><path d="M177.635 36.9368C176.659 37.1676 175.914 36.6919 173.656 36.6919C173.022 36.6919 170.876 37.1507 171.006 35.9445C171.13 34.8186 173.471 34.9987 174.214 35.0283C175.518 34.9234 176.816 35.3034 177.861 36.0965C177.921 36.16 177.963 36.2378 177.985 36.3227C178.006 36.4075 178.005 36.4964 177.982 36.5808C177.96 36.6652 177.916 36.7423 177.855 36.8046C177.794 36.867 177.719 36.9125 177.635 36.9368Z" fill="#111111"/><path d="M157.096 46.3454C158.238 44.1642 159.464 42.0158 160.782 39.9209C161.911 37.7788 163.382 35.8194 165.144 34.1143C165.48 33.8404 166.154 34.0831 165.968 34.5833C164.936 36.7501 163.695 38.8201 162.263 40.7666C161.192 42.5131 160.177 44.2997 159.2 46.0864C162.798 46.4377 163.596 46.0358 164.824 46.533C164.916 46.5881 164.992 46.6648 165.045 46.756C165.098 46.8472 165.126 46.9498 165.126 47.0541C165.126 47.1585 165.098 47.2611 165.045 47.3523C164.992 47.4435 164.916 47.5202 164.824 47.5752C163.714 47.9825 162.511 48.0997 161.338 47.9147C160.09 47.8583 158.847 47.7395 157.612 47.5589C157.028 47.4904 156.876 46.7653 157.096 46.3454Z" fill="#111111"/><path d="M164.906 55.0644C162.577 57.52 157.608 54.6322 158.025 52.2519C158.052 52.1658 158.114 52.0927 158.198 52.0476C158.282 52.0025 158.381 51.9888 158.476 52.0093C159.843 52.2226 160.497 53.8094 161.802 54.232C163.578 54.8079 164.079 53.1945 165.226 52.3579C166.01 51.7917 166.605 53.2726 164.906 55.0644Z" fill="#111111"/><path d="M12.8917 195.036C14.5941 187.231 18.9333 180.25 25.1791 175.269C30.7421 170.954 41.8889 166.289 50.7456 166.001C51.8479 165.965 51.8479 167.678 50.7456 167.71C47.1424 167.917 43.5866 168.632 40.1839 169.835C29.1535 173.427 20.6962 179.05 16.2782 190.162C13.21 197.88 13.2631 206.477 14.5849 214.579C15.6817 222.729 19.2383 230.35 24.7797 236.425C31.1312 242.99 39.139 245.243 48.1726 246.62C66.8158 249.46 82.5633 240.502 89.2243 225.814C95.9221 211.039 90.7878 188.904 80.5945 178.529C73.9929 172.164 65.457 168.182 56.3381 167.215C56.2427 167.215 56.1513 167.177 56.0838 167.11C56.0164 167.042 55.9785 166.951 55.9785 166.855C55.9785 166.76 56.0164 166.668 56.0838 166.601C56.1513 166.534 56.2427 166.496 56.3381 166.496C60.0841 166.454 63.8023 167.143 67.2844 168.525C79.1238 172.909 86.9961 180.829 91.2535 194.03C101.951 227.189 79.5983 249 55.2962 249C50.3458 248.904 45.4254 248.207 40.6436 246.922C34.341 245.654 28.53 242.617 23.8916 238.165C19.2532 233.713 15.9794 228.032 14.4538 221.786C12.1298 214.115 11.141 202.772 12.8917 195.036Z" fill="#111111"/><path d="M70.5417 189.115C69.3365 189.791 68.2764 190.707 67.4242 191.809C59.7886 200.484 53.902 210.608 50.1001 221.603C46.5225 217.118 40.8737 210.817 36.0401 207.76C35.3073 207.3 34.6871 208.3 35.172 208.91C38.8037 213.491 42.5481 216.405 49.6108 225.56C50.3053 226.459 51.6741 225.845 51.9582 224.924C55.0476 214.934 59.9433 205.623 66.3925 197.471C70.0614 192.839 71.1483 192.251 71.8812 190.5C71.9821 190.308 72.0202 190.088 71.9898 189.873C71.9595 189.658 71.8623 189.458 71.7125 189.303C71.5626 189.148 71.3681 189.046 71.1574 189.012C70.9467 188.979 70.7309 189.014 70.5417 189.115Z" fill="#E04747"/><path d="M128.872 204.753C129.003 173.922 129.08 170.402 128.785 164.943C131.931 164.253 182.008 139.208 189.787 135C189.811 155.646 190.198 137.219 189.866 188.392C189.771 203.057 189.717 216.631 189.931 230.346C184.933 233.121 180.159 236.279 175.652 239.791C173.382 241.539 171.095 243.672 168.229 244.361C162.98 245.624 159.313 241.794 139.317 239.31C138.35 239.198 136.793 238.748 136.306 239.936C136.051 240.972 136.177 242.064 136.661 243.015C138.421 247.049 144.391 249.32 148.588 250.824C150.986 251.691 153.439 252.398 155.93 252.942C155.452 253.367 154.94 253.753 154.401 254.096C141.735 260.29 129.666 267.876 127 269C128.517 249.027 128.786 226.348 128.872 204.753Z" fill="#111111"/><path d="M24.5582 132.143C24.5592 132.115 24.5668 132.088 24.5806 132.063C24.5944 132.038 24.6139 132.017 24.6375 132.002C24.661 131.986 24.688 131.976 24.7161 131.973C24.7442 131.97 24.7726 131.974 24.799 131.984L25.0399 131.47C25.0031 131.446 24.9736 131.413 24.9541 131.373C24.9347 131.334 24.9261 131.29 24.9293 131.246C24.9324 131.202 24.9472 131.16 24.9721 131.124C24.997 131.087 25.0311 131.058 25.0709 131.04C45.4836 122.762 68.1464 115.648 89.5696 109.214C89.5728 109.181 89.583 109.148 89.5997 109.119C89.6164 109.09 89.6392 109.064 89.6665 109.045C89.6937 109.025 89.7249 109.011 89.7579 109.005C89.7909 108.998 89.8249 108.998 89.8577 109.006C109.731 113.344 127.704 118.558 147.019 122.959C161.055 126.177 148.645 123.084 167.029 127.696C174.286 129.53 181.62 131.032 189 132.291C184.011 134.478 177.536 138.138 157.61 147.877C156.154 146.86 66.5832 118.532 65.5239 118.198C65.1452 118.094 64.741 118.142 64.3968 118.33C64.0527 118.519 63.7957 118.834 63.6803 119.209C63.565 119.584 63.6005 119.989 63.7791 120.339C63.9578 120.688 64.2657 120.954 64.6374 121.08C65.3761 121.319 140.495 145.339 154.328 149.449C136.256 158.335 129.018 161.423 127.99 162.495C127.716 162.485 127.447 162.572 127.232 162.742C127.017 162.911 126.869 163.152 126.816 163.421C111.571 157.302 30.4503 132.982 29.6761 132.762C29.3148 132.667 28.9307 132.716 28.6053 132.9C28.2799 133.083 28.0389 133.386 27.9333 133.744C27.8278 134.102 27.866 134.486 28.04 134.817C28.2139 135.147 28.5099 135.396 28.865 135.512C38.6961 138.877 97.2037 155.85 121.535 164.436C123.21 165.065 124.924 165.587 126.666 165.997C125.837 184.567 126.961 234.156 124.479 268C116.703 265.145 91.1342 255.47 73.0501 248.373C79.2939 245.634 84.7326 241.345 88.849 235.915C92.9654 230.484 95.6227 224.092 96.5684 217.347C98.2556 204.646 94.4556 186.955 85.0441 176.16C76.1926 166.003 57.875 160.871 45.2826 163.342C37.6465 164.916 30.409 168.019 24.0071 172.464C23.9465 158.732 24.2849 146.069 24.5582 132.143Z" fill="#111111"/><path d="M130.425 268.418C132.367 268.559 133.727 269.26 138.439 269.961C145.261 270.974 145.512 270.479 150.441 265.429C151.501 264.03 152.833 262.873 154.352 262.03C154.815 261.861 155.135 262.439 154.943 262.818C154.5 263.707 153.934 264.164 151.177 266.972C146.152 272.084 145.61 272.599 138.629 271.554C135.731 271.183 132.896 270.404 130.205 269.239C130.125 269.188 130.064 269.113 130.03 269.024C129.996 268.935 129.991 268.837 130.015 268.744C130.04 268.652 130.094 268.57 130.167 268.511C130.241 268.453 130.332 268.42 130.425 268.418Z" fill="#111111"/><path d="M139.412 273.603C141.694 274.548 144.092 275.196 146.543 275.532C147.818 275.818 149.155 275.595 150.263 274.91C152.658 273.234 159.342 267.443 161.178 267.017C161.774 266.877 162.293 267.638 161.809 268.068C161.107 268.604 160.373 269.095 159.609 269.539C157.288 271.119 154.925 273.113 152.43 275.025C150.02 276.871 149.528 277.255 146.348 276.859C143.759 276.587 141.281 275.683 139.136 274.228C138.863 274.031 139.024 273.457 139.412 273.603Z" fill="#111111"/><path d="M138.52 240.697C141.005 240.773 143.476 241.1 145.896 241.671C162.566 244.838 163.07 246.847 167.139 246.465C170.011 246.194 169.333 246.095 193.916 230.277C207.772 221.347 215.455 217.533 218.678 210.925C219.933 207.854 220.532 204.556 220.438 201.24C220.764 191.737 220.476 183.555 220.903 181.344C219.255 181.216 217.607 181.073 215.959 180.929C215.77 180.926 215.587 180.862 215.437 180.747C215.287 180.632 215.178 180.471 215.127 180.289C213.554 171.953 213.473 163.404 214.888 155.04C215.308 151.127 215.987 147.246 216.919 143.422C216.949 143.275 217.034 143.145 217.156 143.058C217.278 142.972 217.429 142.935 217.578 142.955C217.726 142.975 217.861 143.051 217.956 143.168C218.05 143.284 218.097 143.432 218.086 143.581C217.411 155.814 213.956 161.809 216.728 179.247C232.573 180.585 250.581 182.019 266.508 182.603C267.278 170.466 267.628 165.436 265.947 155.78C262.298 134.056 257.686 121.092 243.671 103.73C230.757 87.676 213.257 75.9303 193.499 70.0549C194.106 70.497 194.679 70.9966 195.242 71.4933C199.218 75.079 199.168 75.9235 197.914 79.2749C193.966 89.6643 187.804 99.0718 179.854 106.845C179.716 106.98 179.531 107.056 179.338 107.056C179.145 107.056 178.959 106.98 178.822 106.845C175.191 102.705 173.735 96.9531 169.705 93.1493C169.705 94.623 167.661 100.141 165.705 108.539C163.386 118.773 163.565 122.073 162.666 124.264C162.519 124.616 161.881 124.759 161.802 124.264C161.136 119.548 166.36 97.4955 168.665 93.4529C163.717 95.4977 159.131 98.3252 155.084 101.827C154.97 101.935 154.828 102.008 154.674 102.037C154.52 102.066 154.361 102.05 154.216 101.991C154.07 101.932 153.945 101.833 153.856 101.704C153.766 101.576 153.715 101.425 153.709 101.268C152.645 91.786 155.128 82.2859 157.674 73.2854C158.283 71.1764 158.906 68.7786 161.002 67.6437C163.303 66.4531 165.866 65.8596 168.457 65.9179C168.554 65.9227 168.647 65.9615 168.719 66.0274C168.791 66.0933 168.838 66.1823 168.851 66.279C168.864 66.3756 168.843 66.4739 168.792 66.5568C168.74 66.6397 168.661 66.702 168.569 66.7329C166.395 67.1833 164.272 67.8529 162.234 68.7314C159.9 69.9193 159.579 72.4409 159.179 73.8602C156.646 82.8062 154.64 90.7676 155.196 99.7018C158.674 96.9296 164.885 92.8442 168.4 92.1073C167.4 90.5021 166.726 88.7157 166.418 86.8502C164.943 81.0582 164.341 73.1882 166.961 67.8176C167.138 67.4654 167.601 67.7381 167.551 68.0564C165.257 82.7207 168.923 88.5127 169.517 91.4205C169.902 91.3321 170.162 91.5841 170.461 91.8847C172.822 89.5267 181.877 86.022 187.93 72.0681C187.858 72.1087 187.777 72.1287 187.695 72.1258C187.613 72.123 187.533 72.0974 187.465 72.0519C184.571 70.1816 184.554 65.6276 184.746 62.5916C185.097 58.1702 185.673 53.7696 186.472 49.407C186.515 49.2613 186.599 49.1311 186.714 49.0322C186.83 48.9332 186.971 48.8698 187.122 48.8495C187.272 48.8293 187.426 48.853 187.563 48.918C187.7 48.9829 187.816 49.0862 187.896 49.2154C189.371 52.2544 194.239 51.6501 196.806 47.3938C197.306 46.6434 197.644 45.7971 197.798 44.9089C197.952 44.0208 197.919 43.1102 197.702 42.2355C196.975 40.6023 195.867 39.1666 194.471 38.0484C193.135 37.2996 191.563 37.091 190.078 37.4655C188.593 37.84 187.308 38.7692 186.488 40.0616C185.577 41.5472 185.456 43.385 184.394 44.7925C182.614 47.183 179.729 46.7085 180.106 45.4631C181.517 40.7352 180.317 37.708 179.45 34.1812C178.81 31.5284 178.683 29.4341 179.562 28.1386C165.277 30.0988 164.662 31.3574 159.63 31.0317C159.63 31.1791 159.651 30.9226 159.279 32.1975C160.121 32.3095 162.103 33.2483 162.286 34.3227C162.334 34.5791 162.174 34.9461 161.843 34.9122C160.958 34.8105 160.248 33.8717 158.819 33.7449C158.099 36.1428 157.444 38.5392 156.883 40.9842C155.408 47.4188 153.269 55.989 157.699 59.7457C160.732 62.3027 167.042 61.7427 170.56 60.3204C171.923 59.6328 173.208 58.8029 174.396 57.8445C174.691 57.6529 175.163 57.9712 175.018 58.3234C174.264 59.8436 172.955 61.0164 171.36 61.5997C171.844 63.1501 170.475 66.9967 169.408 69.0144C169.153 69.5096 168.737 70.5324 167.984 70.3246C167.362 70.1492 167.489 69.4771 167.713 69.0144C168.616 67.4062 169.335 65.7016 169.857 63.9327C170.008 63.2731 170.195 62.6222 170.417 61.9829C167.034 63.1619 162.008 63.6453 158.499 62.0625C151.362 58.8673 153.574 49.264 154.789 43.3246C155.617 39.1121 156.723 34.9588 158.099 30.8917C149.711 29.7436 143.879 23.0938 143.789 19.29C143.748 18.5193 143.912 17.7516 144.263 17.0641C144.614 16.3766 145.14 15.7937 145.788 15.3741C147.548 14.3837 149.435 15.2945 151.162 15.8693C153.273 16.5796 156.543 17.4831 158.81 18.0918C159.541 13.5898 161.316 9.32102 163.992 5.62639C165.436 3.82857 167.377 2.49572 169.575 1.79452C176.386 -0.650508 183.569 -1.0617 189.164 3.53213C190.953 5.07302 192.622 6.74819 194.155 8.54303C195.717 10.2015 196.973 12.1224 197.867 14.2171C199.439 18.7495 199.796 23.6146 198.899 28.3273C198.956 28.4298 198.991 28.543 199.002 28.6597C199.012 28.7765 198.998 28.8941 198.96 29.0051C198.923 29.1161 198.862 29.218 198.783 29.3043C198.704 29.3906 198.607 29.4594 198.5 29.5063C198.376 32.5022 197.681 35.4469 196.452 38.1825C197.708 39.1309 198.641 40.4426 199.124 41.9393C199.406 43.0704 199.435 44.25 199.209 45.3937C198.982 46.5374 198.505 47.6169 197.812 48.5551C194.792 53.006 190.201 53.5351 187.686 51.432C187.05 55.4289 185.658 64.1066 186.631 67.7911C186.656 67.6894 186.717 67.5997 186.801 67.5382C186.886 67.4767 186.99 67.4472 187.095 67.4551C188.632 67.5754 190.127 68.0221 191.478 68.7653C191.537 68.6854 191.619 68.6247 191.713 68.5906C191.807 68.5566 191.909 68.5507 192.006 68.5737C208.772 72.2936 228.299 83.2881 242.236 99.379C257.18 116.662 263.14 130.345 267.082 151.747C269.066 162.468 269.59 165.819 268.281 183.581C268.276 183.825 268.177 184.058 268.004 184.231C267.832 184.403 267.599 184.503 267.355 184.508C265.45 184.429 263.563 184.333 261.659 184.236C262.013 188.474 262.07 197.566 262.028 201.774C261.963 207.464 262.187 213.489 259.915 218.842C256.617 226.575 247.505 233.816 240.417 238.323C218.566 252.2 188.077 259.035 178.143 264.531C175.93 265.667 173.816 266.988 171.825 268.478C168.635 270.664 165.709 273.212 163.106 276.069C162.499 277.061 161.69 277.914 160.731 278.572C159.771 279.23 158.684 279.678 157.54 279.888C155.164 280.11 152.768 280.002 150.422 279.568C150.053 279.537 150.149 278.945 150.501 278.945C152.484 278.945 154.516 278.849 156.484 278.722C159.663 278.495 160.467 277.232 162.237 274.951C164.69 272.162 167.503 269.711 170.603 267.663C176.986 262.985 178.171 262.456 181.943 260.919C196.811 254.859 227.233 247.161 246.232 232.09C252.133 227.405 257.794 221.89 259.446 214.575C260.849 208.248 260.164 191.273 260.374 184.164C247.323 183.483 235.686 182.618 222.335 181.464C222.475 182.682 222.367 196.644 222.207 200.959C221.966 208.281 221.088 212.875 215.248 218.076C212.159 220.809 182.645 239.841 182.498 239.936C172.071 246.716 171.301 247.435 168.98 248.07C166.563 248.646 164.028 248.485 161.703 247.607C149.901 243.574 142.985 243.734 138.247 241.662C137.767 241.447 138.056 240.713 138.52 240.697ZM150.534 17.2694C148.933 16.7256 146.726 15.7027 145.703 17.685C145.401 18.4957 145.33 19.3738 145.496 20.2224C145.663 21.071 146.061 21.8572 146.647 22.494C148.713 25.267 151.558 27.3641 154.819 28.5189C161.145 30.8121 165.441 28.8136 172.449 27.6876C176.957 26.9507 182.275 26.2551 184.445 26.0105C163.942 20.9421 157.748 19.7129 150.534 17.2694ZM197.831 28.1047C197.768 24.1903 198.087 20.242 197.016 16.4234C195.847 12.2526 192.792 9.10455 189.769 6.14811C188.346 4.56318 186.578 3.32554 184.6 2.53042C182.623 1.7353 180.49 1.40388 178.364 1.56166C176.176 1.66638 174.01 2.04769 171.917 2.69648C169.718 3.16349 167.681 4.20559 166.017 5.71629C163.169 8.64178 161.148 14.3012 160.337 18.5015C160.487 18.5413 197.684 28.115 197.831 28.1047ZM186.826 68.3924C187.371 69.9768 188.169 71.34 188.169 71.5242C188.38 71.0378 188.638 70.5724 188.937 70.1344C188.984 70.0608 189.053 70.0041 189.135 69.9727C189.216 69.9414 189.306 69.937 189.39 69.9603C189.474 69.9836 189.548 70.0333 189.602 70.1021C189.656 70.1708 189.686 70.255 189.688 70.3423C189.518 71.6274 189.135 72.8752 188.554 74.0341C185.64 80.9375 180.741 86.8217 174.477 90.9415C173.5 91.6832 172.402 92.2506 171.231 92.6187C174.734 96.2472 176.222 101.345 179.373 105.259C186.127 98.5279 191.538 90.5757 195.321 81.8261C197.764 76.1711 197.862 76.1505 195.225 73.5168C190.439 68.6739 187.21 68.6518 186.829 68.3924H186.826Z" fill="#111111"/><path d="M109.003 110.677C109.888 104.115 115.49 96.1725 120.176 91.3376C128.711 82.8834 138.761 76.0891 149.808 71.3049C152.252 70.0614 154.908 69.28 157.64 69.0003C158.082 68.9856 158.121 69.5863 157.736 69.7328C153.19 71.3305 148.791 73.3148 144.589 75.6637C136.383 79.6963 128.886 85.0176 122.384 91.4226C113.23 100.521 112.168 106.565 109.628 110.852C109.476 111.104 108.955 111.027 109.003 110.677Z" fill="#111111"/><path d="M239.232 245.354C239.714 246.782 239.688 248.39 239.795 252.904C239.968 260.055 239.954 263.823 239.977 268.806C240.059 271.107 239.918 273.412 239.555 275.683C239.529 275.775 239.476 275.855 239.403 275.912C239.33 275.969 239.242 276 239.151 276C239.06 276 238.972 275.969 238.899 275.912C238.826 275.855 238.772 275.775 238.746 275.683C237.894 272.706 238.309 269.11 238.091 253.881C238.013 248.498 237.852 247.011 238.32 245.354C238.35 245.251 238.411 245.162 238.493 245.098C238.575 245.034 238.674 245 238.776 245C238.878 245 238.977 245.034 239.059 245.098C239.141 245.162 239.202 245.251 239.232 245.354Z" fill="#111111"/></svg>