<svg viewBox="0 0 280 280" fill="none" xmlns="http://www.w3.org/2000/svg"><path d="M201.787 75.0104C200.751 75.3011 167.327 98.7456 164.562 100.805C161.797 102.865 156.355 110.14 157.063 110.804C158.158 111.833 167.526 108.503 168.779 107.79C170.033 107.076 204.964 82.8567 206.675 81.6953C208.386 80.5339 202.831 74.7212 201.787 75.0104Z" fill="#E04747"/><path d="M140.036 151.003C125.293 151.847 111.789 140.128 90.7252 133.553C81.8847 135.089 65.1364 134.24 62.7303 128.796C31.2404 133.449 4.67762 153.338 0.55205 166.712C-3.40113 179.507 14.8737 204.796 23.6449 213.057C27.5171 191.094 32.9009 167.707 41.4541 147.072C41.8873 146.026 42.8553 146.666 42.5268 147.677C33.1559 176.462 26.5175 206.062 22.699 236.085C39.3486 245.903 92.3916 248.196 109.578 243.996C109.718 236.749 110.743 212.425 111.689 193.604C104.306 193.016 96.9401 192.158 89.6334 190.958C88.4665 190.767 88.9807 189.537 90.1241 189.69C103.865 191.53 131.674 194.753 147.735 190.365C157.607 187.667 177.872 177.285 194 128.348C189.335 124.858 181.404 121.845 173.59 121C171.457 127.133 147.29 150.587 140.036 151.003Z" fill="#E04747"/><path d="M131.709 47.3444C139.674 53.0064 146.817 59.7747 152.93 67.4516C153.899 68.6196 154.976 67.7009 155.707 66.7466C165.422 54.0008 170.617 46.5207 183.604 35.5797C184.627 34.7218 183.469 33.4662 182.377 34.2439C173.477 40.5575 159.792 53.8628 153.949 63.2604C147.707 56.3942 140.577 50.419 132.753 45.4982C131.255 44.5691 130.255 46.3619 131.709 47.3444Z" fill="#E04747"/><path d="M140.857 45.9306C143.414 46.2389 161.971 45.4233 164.866 45.3693C166.309 45.3416 166.416 42.9425 164.949 43.0011C162.028 43.1167 143.312 43.5669 140.688 44.0511C139.614 44.2484 139.895 45.8119 140.857 45.9306Z" fill="#111111"/><path d="M134.669 102.116C133.39 101.536 132.339 103.285 133.504 104.01C140.026 108.091 146.254 112.625 152.145 117.58C153.923 119.071 156.11 116.23 154.353 114.726C148.413 109.617 141.786 105.372 134.669 102.116Z" fill="#E04747"/><path d="M172.995 71.587C173.058 66.1742 172.524 60.3724 172.494 54.9262C172.494 53.5472 170.553 53.778 170.565 55.1555C170.613 60.924 170.662 66.6881 170.712 72.4478C166.331 72.4478 146.565 72.9776 142.055 73.8151C141.579 68.8639 141.352 63.8735 140.615 58.9484C140.577 58.7534 140.468 58.5789 140.309 58.4584C140.149 58.338 139.95 58.28 139.75 58.2957C139.55 58.3113 139.363 58.3995 139.224 58.5433C139.086 58.687 139.006 58.8763 139 59.0747C139.233 63.9112 139.44 68.8523 139.815 73.6889C140.014 76.2624 140.023 76.0912 142.591 75.9068C151.482 75.2667 160.534 74.7456 169.446 74.6657C172.019 74.6411 172.957 74.8153 172.995 71.587Z" fill="#111111"/><path d="M162.08 92.0002C157.077 92.0649 151.622 92.1432 146.647 92.7141C141.455 93.3166 141.821 93.7564 142.189 98.4738C142.273 99.7142 142.431 100.948 142.661 102.17C142.688 102.399 142.798 102.61 142.969 102.763C143.14 102.916 143.361 103 143.589 103C143.818 103 144.039 102.916 144.21 102.763C144.381 102.61 144.491 102.399 144.518 102.17C144.518 101.311 144.104 95.481 144.219 95.3379C144.334 95.1948 160.044 94.0832 161.721 93.9672C163.168 93.8663 163.522 91.9806 162.08 92.0002Z" fill="#111111"/><path d="M144.826 114.726C144.777 114.506 144.65 114.312 144.469 114.179C144.289 114.046 144.066 113.984 143.843 114.004C143.619 114.023 143.411 114.124 143.256 114.286C143.101 114.448 143.01 114.662 143 114.886C143.064 117.886 143.281 120.88 143.65 123.857C143.629 124.138 143.72 124.417 143.904 124.631C144.087 124.845 144.347 124.978 144.628 125C144.772 125.011 155.819 124.726 163.898 123.959C165.965 123.764 164.709 121.908 163.499 122.002C157.792 122.436 151.401 122.666 145.671 122.837C145.443 120.051 145.248 117.395 144.826 114.726Z" fill="#111111"/><path d="M94.2261 88.0068C91.665 87.8172 90.1424 91.6456 91.5178 91.9895C92.2313 92.1679 92.4621 90.0046 94.1107 90.0175C94.3307 90.036 94.5478 89.9479 94.7142 89.7725C94.8806 89.597 94.9827 89.3487 94.998 89.0821C95.0133 88.8154 94.9406 88.5523 94.7958 88.3507C94.651 88.1491 94.4461 88.0254 94.2261 88.0068Z" fill="#111111"/><path d="M99.2315 84.3937C98.799 83.5339 98.03 84.2336 98.2328 85.0504C99.5079 90.0773 100.954 92.8776 102.037 98.4633C102.62 101.467 99.8398 99.6359 99.7541 101.984C99.6995 103.724 99.5208 105.458 99.2195 107.173C98.014 106.964 96.9112 106.37 96.0806 105.483C95.5459 104.79 94.6192 105.413 95.0593 106.339C95.4541 107.06 96.0188 107.676 96.7058 108.136C97.3929 108.595 98.1819 108.885 99.0062 108.98C98.0435 116.54 93.996 116.973 87.5214 115.651C86.3319 115.409 85.1409 114.991 83.8358 114.817C83.205 114.734 81.5829 115.992 85.8212 117.164C85.8212 119.195 86.2718 129.557 86.856 131.458C87.1038 132.255 88.3789 132.16 88.3068 131.258C87.9314 126.563 87.7827 122.175 87.7061 117.587C100.622 120.193 100.415 112.389 101.448 102.392C104.111 102.015 104.231 99.8405 103.826 97.7562C102.917 93.1165 101.372 88.6209 99.2315 84.3937Z" fill="#111111"/><path d="M63 63.7736C59.6344 51.5913 46.5978 38.9814 29.0512 48.1387C11.5046 57.2959 13.8328 81.9373 23.2711 92.3669C29.2005 98.9164 34.8547 106.646 33.9855 112.649C33.1163 118.653 42.3512 113.437 37.5413 93.7682C33.6972 78.0512 46.2509 64.9787 56.0727 71.1328C57.8736 68.2461 60.228 65.745 63 63.7736Z" fill="#111111"/><path d="M81.0165 92.6225C83.6418 94.1806 99.9597 81.0161 98.9556 77.9907C90.8934 53.7211 60.9109 60.0153 56.1044 77.375C50.7116 96.8543 66.767 112.133 67.7887 111.999C69.2736 111.804 73.9453 108.808 75.6794 102.971C76.4431 103.418 77.312 103.654 78.197 103.654C79.0819 103.654 79.9508 103.418 80.7146 102.971C81.7113 102.404 80.9916 101.272 79.9376 101.652C77.3695 102.568 74.6005 100.491 74.879 96.0598C74.8853 95.3458 75.0803 94.6461 75.4441 94.0316C75.8079 93.4171 76.3276 92.9098 76.9506 92.5608C77.5737 92.2119 78.2779 92.0338 78.9919 92.0446C79.7059 92.0555 80.4043 92.2548 81.0165 92.6225Z" fill="#111111"/><path d="M66.3496 114.731C65.5045 119.183 65.0523 123.722 65 128.277C65.0163 128.466 65.0906 128.642 65.2099 128.774C65.3292 128.906 65.4856 128.986 65.6513 128.998C65.817 129.011 65.9813 128.956 66.1149 128.843C66.2485 128.731 66.3427 128.568 66.3809 128.383C67.1696 124.048 67.2919 119.372 67.9882 114.866C68.1535 113.79 66.5267 113.685 66.3496 114.731Z" fill="#111111"/><path d="M96.8707 93.5976C96.3035 91.3934 94.4353 91.2975 95.1679 94.401C95.8346 97.2113 97.469 95.9159 96.8707 93.5976Z" fill="#111111"/><path d="M169.071 93.2429C169.779 92.555 175.009 92.1624 175.406 92.0405C176.307 91.7539 176.099 90.4742 175.346 90.1919C173.83 89.6187 169.542 90.4412 168.108 91.195C166.674 91.9488 166.433 94.4753 165.158 97.1279C164.503 98.4893 163.626 99.7418 163.054 101.132C162.777 101.81 163.624 102.278 164.23 101.813C167.12 99.6143 169.035 93.2773 169.071 93.2429Z" fill="#111111"/><path d="M165.848 106.001C165.657 105.991 165.469 106.051 165.317 106.17C165.165 106.289 165.059 106.459 165.019 106.65C164.978 106.842 165.005 107.041 165.094 107.214C165.184 107.387 165.33 107.522 165.508 107.595C175.394 111.302 174.787 118.047 176.163 119.65C176.46 119.996 178.405 120.737 177.924 117.887C176.954 112.139 171.584 106.464 165.848 106.001Z" fill="#111111"/><path d="M186.07 99.3147C190.24 108.995 190.446 111.384 190.175 121.854C190.144 123.029 191.992 123.5 192.319 122.299C194.214 115.348 191.995 104.208 187.623 98.3419C186.978 97.4759 185.686 98.4235 186.07 99.3147Z" fill="#111111"/><path d="M179.319 102.038C179.103 104.85 177.562 104.828 176.051 105.351C174.164 106.004 175.234 106.605 176.051 106.832C176.68 107.036 177.343 107.055 177.979 106.886C178.616 106.718 179.205 106.367 179.694 105.867C180.182 105.367 180.553 104.734 180.773 104.025C180.993 103.317 181.054 102.556 180.952 101.813C180.724 100.573 179.411 100.834 179.319 102.038Z" fill="#111111"/><path d="M251.611 65.1466C253.849 65.0331 253.195 61.8882 250.981 62.0031C234.981 62.8352 218.706 61.949 203.196 62.8379C201.429 62.9379 201.74 65.3924 203.343 65.564C212.591 66.5528 242.58 65.6153 251.611 65.1466Z" fill="#111111"/><path d="M278.149 44.3582C259.105 43.665 218.949 43.8723 201.252 45.9227C199.808 46.0847 199.412 49.0113 201.148 49C221.405 48.8607 254.802 47.3658 278.476 48.1902C280.735 48.2711 280.363 44.4392 278.149 44.3582Z" fill="#111111"/><path d="M276.253 93.0071C253.039 94.9102 225.217 92.5401 204.062 95.0698C202.386 95.2704 202.807 98.0914 204.53 97.9977C223.417 96.8807 251.399 97.683 276.346 96.5147C278.596 96.402 278.537 92.8197 276.253 93.0071Z" fill="#111111"/><path d="M249.634 109.466C238.716 108.831 214.552 108.901 205.402 109.339C203.692 109.421 203.445 112.227 205.225 112.333C218.853 113.147 233.73 113.105 249.431 112.792C251.284 112.756 251.672 109.584 249.634 109.466Z" fill="#111111"/></svg>