<svg viewBox="0 0 280 280" fill="none" xmlns="http://www.w3.org/2000/svg"><g clip-path="url(#clip0_5383_31742)"><path d="M195.875 41.3214C195.868 40.6707 196.061 40.0335 196.427 39.4959C196.794 38.9583 197.316 38.5461 197.925 38.3151C199.001 37.9672 200.13 37.8175 201.26 37.8729C201.228 38.3299 201.255 38.7891 201.341 39.2391C201.379 39.3695 201.458 39.4841 201.567 39.5657C201.675 39.6472 201.808 39.6913 201.944 39.6913C202.079 39.6913 202.212 39.6472 202.32 39.5657C202.429 39.4841 202.508 39.3695 202.546 39.2391C203.51 32.7695 210.301 31.5641 215.846 31.9266C215.818 32.2957 215.874 32.6664 216.008 33.0112C216.042 33.1239 216.11 33.2228 216.204 33.2932C216.298 33.3635 216.413 33.4015 216.53 33.4015C216.648 33.4015 216.762 33.3635 216.856 33.2932C216.95 33.2228 217.019 33.1239 217.052 33.0112C217.179 32.0291 217.568 31.0993 218.178 30.3188C218.829 29.6957 219.688 29.3374 220.589 29.3137C220.42 30.0513 220.353 30.8083 220.388 31.5641C220.389 31.6724 220.429 31.7767 220.501 31.858C220.572 31.9392 220.671 31.992 220.778 32.0067C220.885 32.0214 220.995 31.9969 221.085 31.9378C221.176 31.8788 221.243 31.789 221.273 31.6849C225.907 16.4896 240.855 16.914 247.473 27.6263C245.821 28.2477 244.315 29.2057 243.052 30.4396C242.972 30.5257 242.926 30.6375 242.921 30.7548C242.917 30.8721 242.954 30.9872 243.027 31.0793C243.1 31.1714 243.203 31.2345 243.318 31.2572C243.433 31.2799 243.553 31.2607 243.655 31.203C248.758 28.6314 253.902 27.0634 259.487 29.1929C261.947 30.1608 264.149 31.6881 265.917 33.6538C267.206 35.2068 268.262 36.9394 269.051 38.797C248.758 38.9576 228.304 38.517 208.052 40.1233C207.935 40.1233 207.822 40.1699 207.739 40.2528C207.656 40.3357 207.61 40.4481 207.61 40.5654C207.61 40.6826 207.656 40.7951 207.739 40.878C207.822 40.9609 207.935 41.0075 208.052 41.0075C228.585 40.9677 249.08 40.2441 269.614 40.2839C270.459 40.2839 270.699 39.9626 270.659 39.5603C269.912 31.9148 259.164 23.9391 248.275 27.3051C246.106 21.1155 239.115 17.4593 232.764 18.3833C230.098 18.823 227.595 19.9624 225.513 21.6851C223.43 23.4078 221.842 25.6522 220.91 28.1893C219.907 27.9964 218.869 28.1703 217.984 28.6791C217.099 29.1879 216.426 29.9979 216.088 30.9613C211.427 29.9563 202.868 31.3636 201.498 36.5879C200.611 36.3729 199.689 36.344 198.79 36.503C197.89 36.662 197.034 37.0055 196.274 37.5119C195.637 37.9014 195.149 38.4927 194.886 39.1918C194.624 39.8909 194.603 40.6577 194.827 41.37C194.861 41.4864 194.933 41.588 195.031 41.6585C195.13 41.729 195.249 41.7643 195.37 41.7587C195.491 41.7531 195.607 41.7069 195.698 41.6276C195.79 41.5482 195.852 41.4404 195.875 41.3214Z" fill="#E04747"/><path d="M6.12393 176.743C12.5949 176.803 19.063 176.864 25.534 176.824C25.6136 177.99 25.6946 179.195 25.814 180.361C25.8066 180.75 25.9236 181.131 26.1478 181.449C26.372 181.767 26.6918 182.005 27.0607 182.129C28.869 182.692 36.1019 183.053 39.397 181.768C40.7808 181.214 40.3579 178.768 40.4817 176.665C53.3279 176.37 76.4001 176.538 85.3675 175.618C85.4959 175.611 85.6167 175.556 85.7052 175.462C85.7936 175.369 85.8429 175.245 85.8429 175.117C85.8429 174.988 85.7936 174.864 85.7052 174.771C85.6167 174.678 85.4959 174.622 85.3675 174.615C78.6976 174.173 72.0276 174.373 65.3562 174.494C58.8056 174.615 42.2501 174.857 40.523 174.896C40.6428 166.658 40.7361 158.42 40.803 150.182C54.1045 151.227 50.2066 117.593 50.0062 117.231C49.122 114.097 43.9375 114.338 44.0583 117.954C45.0634 143.392 40.8442 141.905 40.8442 141.905C40.8442 141.905 40.9238 122.496 40.9238 112.771C40.9238 107.145 40.4419 99.0275 33.4079 97.8618C31.6633 97.645 29.8922 97.8804 28.2647 98.5456C24.6881 100.314 22.8401 104.654 23.2822 108.873C23.0007 113.294 23.9645 149.058 24.1251 152.674C23.3507 152.663 22.6004 152.403 21.9852 151.933C21.37 151.462 20.9226 150.806 20.7091 150.062C20.0666 148.013 21.3118 133.827 20.267 127.76C20.2062 127.149 19.9305 126.579 19.489 126.152C19.0475 125.725 18.4689 125.469 17.856 125.429C15.2446 125.228 14.5608 126.955 14.4415 129.809C14.4002 130.532 13.6781 147.651 14.5211 152.191C15.5261 157.415 19.9059 159.707 24.4464 159.465C24.7279 164.689 25.0904 169.914 25.4912 175.178C19.0615 175.297 12.6332 175.499 6.20351 175.82C6.1405 175.81 6.07609 175.813 6.01429 175.829C5.9525 175.845 5.89464 175.874 5.84434 175.913C5.79405 175.952 5.75238 176.001 5.72196 176.057C5.69154 176.113 5.673 176.175 5.66752 176.239C5.66204 176.302 5.66972 176.366 5.69009 176.427C5.71046 176.487 5.74307 176.543 5.7859 176.59C5.82873 176.638 5.88086 176.676 5.93902 176.702C5.99718 176.728 6.06013 176.742 6.12393 176.743Z" fill="#E04747"/><path d="M115.303 200.373C114.178 200.249 113.937 202.06 115.021 202.341C116.348 202.663 117.714 202.904 119.04 203.226C120.222 203.624 121.451 203.867 122.696 203.948C122.806 203.943 122.911 203.907 123.001 203.844C123.09 203.781 123.16 203.694 123.203 203.593C123.245 203.492 123.257 203.381 123.239 203.274C123.221 203.166 123.172 203.065 123.099 202.984C121.211 201.297 117.795 200.647 115.303 200.373Z" fill="#E04747"/><path d="M119.443 211.744C117.149 210.587 113.938 210.459 111.406 210.137C110.24 209.977 110 211.985 111.124 212.186C113.616 212.628 116.751 213.432 119.283 212.951C119.406 212.914 119.516 212.842 119.599 212.744C119.683 212.646 119.736 212.527 119.753 212.399C119.77 212.272 119.75 212.142 119.695 212.026C119.64 211.909 119.553 211.811 119.443 211.744Z" fill="#E04747"/><path d="M274.876 248.554C271.781 249.102 268.809 250.322 265.793 251.165C262.861 252.009 259.968 253.014 257.073 253.938C232.85 261.54 206.505 266.947 184.099 255.184C156.996 240.88 158.971 221.047 139.004 212.909C139.285 211.406 139.197 209.856 138.75 208.393C138.302 206.931 137.507 205.598 136.432 204.509C133.74 201.577 129.721 200.33 125.984 199.286C125.796 199.23 125.594 199.24 125.412 199.312C125.23 199.385 125.078 199.517 124.98 199.687C120.559 203.585 116.661 211.02 118.912 216.966C118.938 217.087 118.992 217.201 119.068 217.298C119.145 217.396 119.242 217.475 119.354 217.529C124.578 220.463 133.943 221.227 137.759 215.642C148.203 222.217 151.42 230.047 157.088 238.425C162.939 246.965 170.663 254.057 179.671 259.161C205.46 273.667 238.303 266.957 266.188 256.629C269.708 255.443 273.112 253.937 276.357 252.129C276.743 251.879 277.029 251.501 277.166 251.062C277.303 250.623 277.281 250.149 277.105 249.724C276.929 249.299 276.609 248.95 276.202 248.736C275.795 248.522 275.326 248.457 274.876 248.554ZM120.124 216.526C119.736 213.694 120.062 210.809 121.072 208.135C122.083 205.461 123.747 203.082 125.912 201.216C128.681 201.795 131.314 202.9 133.668 204.471C136.118 206.279 138.89 209.614 136.6 213.673C133.345 219.541 124.706 217.772 120.124 216.526Z" fill="#111111"/><path d="M88.9429 190.888C84.0798 190.196 75.0401 192.375 72.106 198.926C68.6104 198.323 61.096 199.81 56.7162 201.939C46.5639 206.788 40.2211 215.979 34.4928 219.982C24.9138 226.485 12.1781 224.764 1.74288 219.621C1.47143 219.468 1.15096 219.428 0.850311 219.509C0.549666 219.59 0.292832 219.786 0.134981 220.055C-0.0228699 220.323 -0.0691441 220.643 0.0060994 220.945C0.0813429 221.247 0.272101 221.508 0.537395 221.671C9.13641 228.18 21.4329 230.631 31.681 226.895C43.8803 222.402 50.0742 209.358 62.944 205.516C65.8649 204.597 68.9282 204.216 71.9851 204.392C72.2456 205.943 72.91 207.399 73.9117 208.612C74.9134 209.826 76.217 210.754 77.6913 211.303C80.1833 212.348 84.684 213.633 87.5768 212.63C92.1188 210.742 94.2085 204.191 93.927 200.053C93.7664 196.916 92.8423 191.444 88.9429 190.888ZM73.9113 202.905C73.8468 201.24 74.2214 199.587 74.9974 198.113C75.7734 196.638 76.9235 195.394 78.3323 194.505C80.5536 193.309 83.0078 192.61 85.5255 192.456C82.9951 195.714 81.4315 205.675 85.0023 210.619C83.3893 210.62 81.7826 210.417 80.2201 210.017C76.8483 209.012 74.1043 206.682 73.9142 202.905H73.9113ZM86.9314 210.701C84.597 207.637 84.3981 202.934 85.244 199.126C85.605 197.358 86.2476 193.461 88.3387 193.22C91.1122 192.938 92.3973 197.8 92.5579 199.81C92.7215 203.024 90.9118 209.735 86.9343 210.701H86.9314Z" fill="#111111"/><path d="M155.852 96.2545C157.823 95.5707 161.239 94.405 160.997 97.6206C160.916 98.9469 163.006 98.9469 163.087 97.6206C163.448 92.557 158.263 93.1199 154.928 94.3652C143.572 98.6138 120.466 118.768 94.6924 123.298C84.77 125.015 78.8148 123.121 72.5103 117.913C67.5368 113.627 63.6411 108.231 61.1378 102.161C58.4453 95.9715 53.9049 81.7872 56.9186 73.0673C59.7658 64.7365 72.0976 56.503 79.9849 50.2825C88.1418 43.8926 96.8219 38.1864 105.1 31.9586C105.582 31.596 105.461 31.235 105.421 31.1554C104.971 22.0553 108.467 17.117 113.659 15.1614C115.935 14.3683 118.378 14.1847 120.747 14.6289C123.116 15.0731 125.327 16.1295 127.161 17.6932C128.115 18.7085 129.121 19.6741 130.175 20.5861C130.698 20.9471 131.259 20.3444 131.14 19.8227C130.955 18.844 130.494 17.9382 129.813 17.2113C136.106 16.3205 142.521 16.9822 148.498 19.1389C161.467 23.6513 178.506 41.2561 183.5 65.2656C186.115 77.6888 184.184 82.3221 184.625 88.2552C184.623 88.4341 184.687 88.6073 184.804 88.7427C184.921 88.8781 185.083 88.9664 185.26 88.9911C185.437 89.0158 185.617 88.9752 185.766 88.877C185.916 88.7788 186.024 88.6295 186.072 88.4571C187.016 84.9917 187.342 81.3869 187.036 77.8082C186.777 67.085 184.128 56.5548 179.281 46.9859C173.643 35.7106 162.161 22.0539 150.388 17.7315C143.998 15.3603 135.599 13.8336 129.05 16.4862C127.326 15.0494 125.35 13.9455 123.223 13.2308C119.735 12.0794 115.944 12.2509 112.574 13.7127C106.666 16.3654 101.725 24.6034 104.537 30.9918C91.5578 39.641 76.6057 49.9657 64.7542 60.087C60.1327 64.066 55.912 68.969 54.3057 75.0362C52.5785 81.4659 55.3108 90.7885 56.1139 93.9231C59.3693 106.259 66.6022 119.198 78.94 124.302C86.2525 127.357 94.6511 125.789 102.005 123.74C124.995 117.256 147.286 99.3256 155.852 96.2545Z" fill="#111111"/><path d="M167.987 98.424C168.104 97.861 167.384 97.3393 166.942 97.8212C165.91 98.9074 164.749 101.077 161.396 101.077C161.273 101.079 161.154 101.125 161.063 101.208C160.971 101.291 160.912 101.404 160.898 101.526C160.883 101.649 160.914 101.773 160.983 101.874C161.053 101.976 161.157 102.049 161.277 102.08C163.809 102.522 167.412 101.233 167.987 98.424Z" fill="#111111"/><path d="M84.1192 74.554C84.1828 74.6627 84.2772 74.7502 84.3906 74.8053C84.5039 74.8604 84.631 74.8806 84.7558 74.8634C84.8806 74.8462 84.9975 74.7924 85.0917 74.7087C85.1859 74.625 85.2532 74.5153 85.2849 74.3933C86.0483 71.3384 83.5165 67.9636 81.1055 66.3971C78.5737 64.7495 74.3147 64.0657 71.7829 66.0743C71.7349 66.1269 71.7024 66.1917 71.6889 66.2616C71.6755 66.3315 71.6816 66.4037 71.7066 66.4703C71.7316 66.537 71.7745 66.5954 71.8307 66.6392C71.8868 66.6829 71.9539 66.7103 72.0246 66.7183C75.0781 66.5577 77.6497 66.0743 80.3024 68.0844C82.6323 69.7718 82.9919 72.1032 84.1192 74.554Z" fill="#111111"/><path d="M118.487 126.553C119.455 126.008 120.282 125.245 120.903 124.324C121.524 123.403 121.922 122.349 122.064 121.248C123.244 121.942 124.587 122.311 125.956 122.318C127.326 122.326 128.672 121.97 129.86 121.289C131.048 120.607 132.034 119.624 132.718 118.438C133.403 117.252 133.761 115.906 133.758 114.537C134.963 115.212 136.324 115.561 137.706 115.551C139.088 115.54 140.443 115.17 141.638 114.477C142.833 113.784 143.828 112.791 144.523 111.597C145.218 110.403 145.59 109.048 145.603 107.666C146.747 108.219 148.017 108.456 149.283 108.354C150.549 108.251 151.765 107.813 152.805 107.084C153.845 106.355 154.672 105.362 155.2 104.207C155.729 103.052 155.939 101.776 155.81 100.513C155.689 99.6685 154.323 99.7097 154.162 100.513C154.088 101.509 153.793 102.476 153.3 103.344C152.806 104.213 152.127 104.961 151.309 105.535C150.351 106.077 149.251 106.316 148.155 106.223C147.058 106.13 146.014 105.709 145.161 105.014C144.995 104.859 144.784 104.761 144.558 104.734C144.333 104.707 144.105 104.754 143.907 104.866C143.71 104.978 143.553 105.15 143.461 105.358C143.368 105.565 143.344 105.797 143.393 106.019C143.665 107.301 143.514 108.637 142.96 109.826C142.407 111.014 141.483 111.99 140.326 112.607C139.169 113.224 137.843 113.448 136.548 113.245C135.253 113.043 134.059 112.424 133.146 111.483C132.98 111.327 132.769 111.228 132.543 111.201C132.317 111.174 132.088 111.22 131.89 111.332C131.693 111.445 131.536 111.618 131.444 111.826C131.351 112.034 131.328 112.266 131.378 112.488C131.774 113.77 131.717 115.149 131.217 116.394C130.717 117.639 129.804 118.674 128.631 119.325C127.458 119.976 126.096 120.204 124.775 119.97C123.454 119.736 122.254 119.055 121.376 118.041C120.531 117.157 119.245 118.281 119.768 119.286C121.134 121.979 118.602 124.872 116.11 125.635C112.735 126.68 109.279 125.074 106.105 124.148C105.623 124.029 105.3 124.711 105.743 124.953C109.4 127.031 114.585 128.886 118.487 126.553Z" fill="#111111"/><path d="M125.999 124.102C125.865 124.102 125.738 124.154 125.643 124.249C125.549 124.343 125.496 124.471 125.496 124.604C125.496 124.737 125.549 124.865 125.643 124.959C125.738 125.054 125.865 125.107 125.999 125.107C144.557 125.65 164.132 115.865 176.591 101.233C178.413 99.3694 179.859 97.1729 180.851 94.7632C181.052 94.1605 180.288 93.8377 179.846 94.2002C176.994 96.5478 176.014 99.6426 169.358 105.733C157.371 116.542 142.102 123.011 125.999 124.102Z" fill="#111111"/><path d="M76.0023 69.2096C73.5162 70.1468 73.833 73.9121 73.9524 76.0416C74.0335 77.8101 74.4756 80.8636 76.9263 80.501C79.4611 80.1754 80.3158 76.805 79.9002 74.2732C79.5392 72.5446 78.7405 68.178 76.0023 69.2096Z" fill="#111111"/><path d="M62.1409 81.7886C61.5542 81.4578 60.8668 81.3529 60.2081 81.4935C59.5494 81.634 58.9648 82.0105 58.5642 82.552C58.3164 83.0485 58.1775 83.5922 58.1566 84.1468C58.1358 84.7013 58.2336 85.2539 58.4434 85.7676C59.3674 88.2582 62.2603 89.5447 64.3912 87.5759C65.7971 86.2097 64.9984 83.6676 62.1409 81.7886Z" fill="#111111"/><path d="M116.832 52.3337C120.621 54.92 124.961 56.0179 129.049 53.9002C132.586 52.092 132.463 46.5863 132.183 45.0197C131.496 41.3951 129.562 38.1252 126.717 35.7767C119.546 29.179 111.055 31.9348 109.599 37.5053C109.237 38.9907 109.155 40.5304 109.357 42.0458C110.852 38.2672 116.547 38.2363 118.801 43.3323C119.685 45.341 120.448 48.3945 119.324 50.4842C119.123 50.9947 118.783 51.4386 118.343 51.7656C117.902 52.0925 117.379 52.2893 116.832 52.3337Z" fill="#111111"/><path d="M276.967 117.028C276.454 115.899 275.64 115.983 275.158 116.344C274.676 116.705 272.868 119.881 272.547 120.283C271.542 121.489 273.912 123.055 272.908 124.221C272.224 124.985 270.055 124.663 269.894 125.948C269.734 127.114 270.858 127.958 271.019 129.043C271.179 130.088 270.095 130.49 269.211 130.651C268.447 130.772 267 130.611 266.558 131.335C266.156 131.977 266.477 132.78 266.598 133.464C266.959 135.152 267.843 138.367 265.111 138.487C263.784 138.526 262.297 137.562 261.012 138.084C259.147 138.811 261.129 143.693 259.324 144.916C258.802 145.277 253.296 144.514 252.573 144.916C251.849 145.319 250.685 151.106 250.082 151.427C248.996 152.03 244.295 148.733 243.089 148.572C241.884 148.452 237.544 155.847 236.66 155.484C235.977 155.203 233.565 151.306 232.843 150.301C232.401 149.698 231.758 148.975 230.914 149.175C230.109 149.377 223.679 153.557 223.278 153.515C221.831 153.315 221.189 147.73 220.867 146.524C220.465 145.117 220.425 143.229 218.536 143.027C217.17 142.908 212.548 144.795 211.545 144.595C210.3 144.353 213.232 135.031 210.137 134.549C209.174 134.388 203.87 133.986 203.549 132.901C203.307 131.977 207.566 125.346 205.557 124.181C204.151 123.337 198.967 120.484 199.048 119.037C199.167 116.626 201.701 111.201 201.659 110.759C201.538 109.553 192.939 107.424 192.416 106.621C191.893 105.818 193.824 99.547 193.3 97.2171C193.1 96.2931 183.817 95.9719 182.572 96.3329C182.13 96.1723 181.688 96.8546 182.089 97.1773C198.122 110.883 196.033 134.709 210.058 149.698C222.732 163.283 246.125 163.976 262.499 148.172C270.146 140.586 275.064 130.679 276.483 120.002C277.074 122.882 277.503 125.793 277.768 128.722C278.521 139.884 276.303 151.045 271.339 161.071C263.395 177.062 246.754 188.91 232.159 193.345C228.824 194.348 225.328 194.671 221.99 195.555C221.388 195.717 221.308 196.761 221.99 196.882C232.376 198.544 273.543 183.383 279.375 142.231C280.462 134.026 280.405 124.594 276.967 117.028Z" fill="#111111"/><path d="M181.732 190.084C175.95 189.62 170.761 189.079 165.537 186.307C149.474 177.759 143.84 158.33 148.016 140.255C149.831 133.358 152.505 126.716 155.974 120.484C156.019 120.399 156.029 120.301 156.004 120.209C155.979 120.116 155.92 120.037 155.839 119.986C155.758 119.935 155.661 119.917 155.567 119.935C155.473 119.952 155.389 120.005 155.332 120.082C151.861 124.798 149.186 130.052 147.415 135.634C146.363 137.095 144.986 138.292 143.392 139.129C136.146 142.961 128.712 138.214 124.988 143.671C124.267 144.688 123.867 145.896 123.838 147.142C123.809 148.388 124.153 149.614 124.826 150.663C125.31 151.386 126.715 150.944 126.315 150.02C125.932 149.253 125.753 148.4 125.795 147.543C125.837 146.687 126.099 145.855 126.555 145.129C127.011 144.403 127.646 143.806 128.399 143.396C129.152 142.986 129.998 142.776 130.855 142.787C135.191 142.516 141.444 143.931 146.447 138.929C141.865 157.055 146.205 177.547 163.365 187.512C168.67 190.607 175.744 192.977 181.933 191.692C182.897 191.49 182.616 190.155 181.732 190.084Z" fill="#111111"/><path d="M154.04 148.694C155.366 148.165 156.893 148.212 158.259 147.81C160.668 147.016 162.801 145.552 164.408 143.59C168.387 138.889 169.392 132.178 169.392 126.19C169.392 125.708 168.587 125.548 168.507 126.07C167.06 133.102 166.378 142.264 158.701 145.522C156.332 146.527 152.835 145.964 151.228 148.336C149.581 150.786 151.348 153.679 153.398 155.206C154 155.648 154.724 154.805 154.403 154.202C153.518 152.552 151.262 149.805 154.04 148.694Z" fill="#111111"/><path d="M160.593 156.771C160.696 156.712 160.778 156.623 160.829 156.517C160.881 156.411 160.899 156.291 160.882 156.174C160.864 156.057 160.812 155.948 160.732 155.861C160.652 155.774 160.548 155.713 160.433 155.686C158.504 155.315 157.277 154.639 157.137 152.673C157.098 152.231 157.258 151.789 156.977 151.426C156.573 151.022 155.715 151.364 155.611 152.954C155.544 153.581 155.639 154.214 155.888 154.794C156.136 155.373 156.53 155.878 157.03 156.262C157.531 156.645 158.121 156.893 158.745 156.982C159.369 157.072 160.005 156.999 160.593 156.771Z" fill="#111111"/><path d="M165.778 157.294C166.22 157.101 166.5 156.37 165.937 156.13C164.913 155.85 163.938 155.416 163.045 154.843C162.183 154.043 161.641 152.958 161.518 151.79C161.438 151.187 160.554 150.945 160.393 151.629C160.218 152.38 160.233 153.162 160.437 153.906C160.64 154.65 161.026 155.331 161.559 155.888C162.048 156.508 162.709 156.972 163.458 157.222C164.208 157.472 165.015 157.497 165.778 157.294Z" fill="#111111"/><path d="M181.127 131.576C181.079 131.43 180.983 131.306 180.853 131.223C180.724 131.141 180.57 131.107 180.417 131.126C180.265 131.145 180.124 131.216 180.019 131.328C179.914 131.439 179.851 131.584 179.84 131.737C180.273 136.109 179.179 140.496 176.746 144.154C174.093 147.852 170.235 149.619 166.016 150.905C165.912 150.935 165.822 151.002 165.763 151.093C165.704 151.183 165.679 151.292 165.694 151.4C165.709 151.507 165.761 151.605 165.843 151.677C165.924 151.749 166.028 151.789 166.137 151.79C175.903 151.829 183.777 140.728 181.127 131.576Z" fill="#111111"/><path d="M131.981 151.348C131.302 150.86 130.494 150.584 130.052 149.861C129.848 149.443 129.738 148.985 129.731 148.519C129.724 148.054 129.82 147.592 130.013 147.168C130.214 146.566 129.41 146.244 129.007 146.605C128.454 147.123 128.084 147.808 127.953 148.554C127.823 149.301 127.94 150.07 128.285 150.745C128.568 151.407 129.069 151.952 129.706 152.288C130.342 152.625 131.075 152.732 131.781 152.593C131.904 152.551 132.012 152.477 132.096 152.377C132.179 152.278 132.234 152.159 132.255 152.031C132.275 151.903 132.261 151.772 132.213 151.651C132.165 151.531 132.085 151.426 131.981 151.348Z" fill="#111111"/><path d="M134.471 150.302C133.979 149.526 133.779 148.6 133.908 147.69C133.937 147.577 133.924 147.457 133.872 147.353C133.82 147.249 133.731 147.167 133.623 147.123C133.516 147.079 133.395 147.075 133.285 147.113C133.175 147.151 133.082 147.227 133.024 147.329C131.255 150.21 133.778 153.353 136.118 152.914C136.721 152.793 136.681 152.03 136.279 151.708C135.614 151.326 135.005 150.853 134.471 150.302Z" fill="#111111"/><path d="M142.711 147.49C140.793 147.551 138.878 147.293 137.044 146.726C136.361 146.445 135.758 147.369 136.442 147.731C137.408 148.337 138.493 148.727 139.624 148.872C140.755 149.018 141.904 148.916 142.992 148.574C143.595 148.293 143.232 147.537 142.711 147.49Z" fill="#111111"/><path d="M225.451 180.72C225.772 180.199 224.969 179.515 224.567 180.038C214.176 192.695 212.291 214.612 219.261 228.782C219.785 229.787 221.512 229.103 221.111 228.019C215.182 211.414 215.735 197.563 225.451 180.72Z" fill="#111111"/><path d="M219.463 230.27C217.801 230.732 216.165 231.282 214.562 231.917C214.32 230.028 213.678 227.859 211.669 227.175C211.129 226.982 210.538 226.981 209.997 227.171C209.456 227.361 208.996 227.731 208.695 228.22C208.236 227.477 207.564 226.889 206.766 226.532C206.421 226.391 206.051 226.321 205.678 226.326C205.305 226.331 204.938 226.411 204.596 226.561C204.255 226.711 203.947 226.928 203.692 227.199C203.436 227.471 203.238 227.791 203.108 228.14C202.521 227.241 201.662 226.552 200.658 226.171C200.135 226.047 199.585 226.107 199.102 226.341C198.619 226.575 198.231 226.969 198.005 227.456C197.788 227.992 197.693 228.57 197.728 229.147C197.762 229.724 197.926 230.286 198.205 230.791C194.668 225.969 191.252 221.429 189.123 215.76C186.944 210.083 185.879 204.039 185.988 197.959C186.313 184.038 194.421 174.969 190.771 160.465C189.183 154.169 185.655 148.531 180.685 144.352C180.363 144.07 179.881 144.512 180.203 144.834C184.451 149.371 187.406 154.963 188.762 161.028C191.963 175.011 184.046 184.229 183.859 198.607C183.75 214.314 191.413 227.815 198.448 232.362C201.686 234.065 205.326 234.857 208.978 234.653C211.996 234.53 217.929 233.583 220.149 231.558C220.908 230.993 220.188 230.158 219.463 230.27ZM211.749 229.425C212.331 230.297 212.665 231.312 212.712 232.359C211.942 232.519 211.165 232.64 210.382 232.721C210.33 231.691 210.041 230.687 209.538 229.788C209.458 229.667 209.417 229.506 209.338 229.386C209.619 228.301 211.228 228.821 211.749 229.425ZM199.091 228.14C200.254 226.363 202.295 229.203 203.029 231.194C203.189 231.636 203.269 232.038 203.431 232.439C202.063 232.249 200.708 231.981 199.371 231.636C199.05 230.672 198.507 229.035 199.097 228.14H199.091ZM204.916 232.641C205 231.555 204.702 230.475 204.074 229.586C204.113 228.582 204.877 227.538 206.042 228.059C207.516 228.702 208.446 232.657 208.493 232.802C207.299 232.869 206.1 232.815 204.916 232.641Z" fill="#111111"/><path d="M174.618 194.821C169.445 200.62 168.378 212.849 171.16 218.167C168.424 218.714 165.626 218.89 162.843 218.69C162.89 217.983 162.774 217.274 162.502 216.618C162.23 215.963 161.811 215.38 161.276 214.913C160.905 214.597 160.455 214.386 159.975 214.301C159.495 214.216 159 214.26 158.543 214.43C158.249 213.82 157.855 213.263 157.378 212.782C157.23 212.594 157.044 212.439 156.832 212.328C156.62 212.217 156.387 212.151 156.148 212.136C155.909 212.121 155.67 212.156 155.446 212.24C155.221 212.324 155.017 212.454 154.847 212.622C152.788 208.633 151.714 204.211 151.712 199.722C151.646 193.775 153.025 187.901 155.731 182.604C155.794 182.477 155.806 182.33 155.765 182.194C155.725 182.058 155.634 181.943 155.511 181.872C155.389 181.8 155.243 181.778 155.105 181.809C154.966 181.841 154.845 181.924 154.766 182.041C149.574 189.393 148.334 199.725 150.949 208.684C151.985 211.735 153.46 214.618 155.328 217.243C158.215 221.442 168.288 222.003 172.086 219.414C172.25 219.311 172.374 219.156 172.44 218.974C172.505 218.792 172.508 218.593 172.447 218.409C170.686 208.065 171.454 205.169 175.461 195.419C175.503 195.309 175.508 195.187 175.473 195.074C175.439 194.96 175.368 194.861 175.271 194.793C175.175 194.724 175.058 194.69 174.94 194.695C174.821 194.7 174.708 194.744 174.618 194.821ZM160.511 216.68C160.747 217.226 160.936 217.791 161.074 218.369C160.522 218.217 159.984 218.015 159.468 217.766C159.605 217.049 159.476 216.306 159.106 215.677C159.398 215.736 159.674 215.857 159.916 216.031C160.159 216.205 160.361 216.428 160.511 216.686V216.68ZM157.137 215.958C157.212 216.2 157.297 216.44 157.378 216.68C157.057 216.48 156.734 216.319 156.413 216.119C156.128 215.308 155.793 214.516 155.41 213.748C155.89 213.191 157.05 215.684 157.137 215.964V215.958Z" fill="#111111"/><path d="M87.2971 204.23C86.9936 204.692 86.8787 205.253 86.9758 205.798C87.0148 206.125 87.1786 206.425 87.4331 206.634C87.6876 206.844 88.0132 206.947 88.3419 206.922C89.5076 206.601 89.3868 205.034 89.1864 204.511C89.1342 204.315 89.0257 204.138 88.8742 204.003C88.7228 203.868 88.5351 203.78 88.3342 203.75C88.1334 203.72 87.9281 203.749 87.7438 203.835C87.5595 203.92 87.4042 204.057 87.2971 204.23Z" fill="#E04747"/><path d="M88.4619 196.273C88.2362 196.384 88.0456 196.556 87.911 196.768C87.7763 196.981 87.7028 197.227 87.6985 197.478C87.6587 199.086 89.1044 199.167 89.6276 198.684C90.4131 197.978 90.1434 195.713 88.4619 196.273Z" fill="#E04747"/></g><defs><clipPath id="clip0_5383_31742"><rect width="280" height="280" fill="white"/></clipPath></defs></svg>