<svg viewBox="0 0 280 280" fill="none" xmlns="http://www.w3.org/2000/svg"><path d="M124.294 103.129C120.171 107.31 115.669 111.12 110.844 114.511C108.45 116.108 107.05 116.449 106.086 117.437C106.049 117.475 106.023 117.522 106.01 117.573C105.997 117.623 105.997 117.677 106.01 117.727C106.023 117.778 106.05 117.824 106.086 117.863C106.123 117.901 106.169 117.929 106.22 117.945C108.064 118.288 110.106 116.947 111.58 116.032C115.9 112.97 119.975 109.591 123.771 105.926C124.438 105.284 124.868 104.445 124.995 103.539C125.055 103.164 124.595 102.798 124.294 103.129Z" fill="#111111"/><path d="M166.081 34.4482C164.514 36.2626 162.73 37.8729 160.771 39.2421C159.75 39.8498 158.612 40.2247 157.434 40.3407C156.256 40.4567 155.067 40.3111 153.95 39.914C148.622 37.8238 149.253 30.1081 149.485 25.4828C149.671 22.1087 150.098 18.7526 150.763 15.441C150.787 15.3519 150.775 15.2567 150.73 15.1764C150.685 15.096 150.61 15.0371 150.522 15.0125C150.435 14.988 150.341 14.9998 150.261 15.0455C150.182 15.0911 150.124 15.1668 150.1 15.2559C149.087 18.4052 148.473 21.6721 148.273 24.9782C147.865 28.3108 147.915 31.6847 148.42 35.0036C148.715 37.072 149.773 38.9501 151.381 40.2582C152.989 41.5663 155.027 42.2069 157.084 42.0504C156.967 43.1105 157.034 44.2048 156.867 45.2633C156.486 47.6402 155.689 47.8014 156.204 48.6972C156.292 48.8015 156.403 48.883 156.528 48.9352C156.653 48.9873 156.788 49.0085 156.923 48.9969C157.057 48.9854 157.187 48.9415 157.302 48.8689C157.417 48.7962 157.512 48.6969 157.582 48.5792C158.66 46.543 158.927 44.1654 158.328 41.9355C160.599 41.4955 162.689 40.3832 164.336 38.739C165.551 37.7631 166.467 36.4558 166.974 34.9707C167.145 34.4317 166.43 34.1122 166.081 34.4482Z" fill="#111111"/><path d="M168.668 25.6969C168.604 26.0928 169.117 26.3718 169.325 25.9774C169.471 25.7519 169.672 25.569 169.907 25.4464C170.143 25.3237 170.405 25.2653 170.668 25.2769C170.932 25.2885 171.188 25.3697 171.413 25.5125C171.637 25.6554 171.822 25.8552 171.949 26.0928C172.534 27.2046 172.715 28.4937 172.461 29.7302C172.319 30.7659 171.388 32.3128 170.252 32.3596C169.952 32.3586 169.658 32.2759 169.4 32.1199C169.141 31.9638 168.928 31.7401 168.781 31.4714C168.497 31.0098 168.444 30.5336 167.948 30.2692C167.816 30.1949 167.661 30.1758 167.515 30.2157C167.369 30.2557 167.243 30.3517 167.164 30.4839C166.64 31.375 167.47 32.6386 168.252 33.2594C167.542 36.1664 167.136 40.5838 168.157 43.4469C168.22 43.6432 168.353 43.8071 168.53 43.9047C168.707 44.0023 168.914 44.026 169.108 43.9709C169.301 43.9158 169.467 43.7862 169.57 43.6089C169.673 43.4317 169.706 43.2204 169.661 43.0189C168.968 40.029 168.892 36.9229 169.437 33.9007C171.726 34.5215 173.736 32.047 173.949 29.8353C174.578 23.1405 169.17 22.8732 168.668 25.6969Z" fill="#111111"/><path d="M151.796 12.0757C148.947 10.026 147.826 4.46153 148.909 2.02499C149.152 1.61496 149.35 1.17771 149.5 0.721437C149.524 0.624188 149.523 0.522173 149.498 0.425406C149.472 0.32864 149.423 0.240449 149.355 0.169491C149.287 0.0985325 149.203 0.0472465 149.111 0.0206672C149.018 -0.00591203 148.921 -0.0068707 148.828 0.0178854C147.726 0.383367 147.282 1.83463 147.106 2.91128C146.919 4.25463 146.98 5.62304 147.286 6.94223C147.845 9.63766 148.954 12.0148 151.419 12.9651C151.959 13.1767 152.205 12.3696 151.796 12.0757Z" fill="#111111"/><path d="M156.69 6.2658C156.185 3.67226 156.953 2.17372 156.141 1.13094C156.103 1.08951 156.058 1.05657 156.008 1.03408C155.959 1.01159 155.905 1 155.851 1C155.798 1 155.744 1.01159 155.694 1.03408C155.645 1.05657 155.6 1.08951 155.562 1.13094C154.904 1.82236 154.998 3.06974 155.013 3.97564C155.056 6.91771 155.907 9.95855 158.455 10.9872C158.547 11.0105 158.644 11.0018 158.73 10.9623C158.817 10.9228 158.89 10.8545 158.938 10.7675C158.986 10.6805 159.007 10.5794 158.998 10.4787C158.988 10.3781 158.949 10.2834 158.886 10.2083C157.758 9.19899 156.983 7.80873 156.69 6.2658Z" fill="#111111"/><path d="M163.596 5.23751C163.656 4.55527 164.001 3.85863 163.612 3.22244C163.559 3.13973 163.479 3.075 163.386 3.03713C163.292 2.99926 163.188 2.99009 163.089 3.01086C161.468 3.62114 162.039 6.59481 162.396 7.84415C162.982 9.69511 163.966 11.4074 165.285 12.8703C165.585 13.2273 166.185 12.7753 165.945 12.3838C164.41 10.2924 163.589 7.7955 163.596 5.23751Z" fill="#111111"/><path d="M169.809 8.0686C169.697 7.99978 169.566 7.98192 169.443 8.01874C169.319 8.05556 169.214 8.14422 169.147 8.26632C168.71 9.21686 169.372 10.6244 169.539 11.6159C169.765 12.9318 169.883 14.2683 169.891 15.6085C169.894 15.7047 169.927 15.7967 169.985 15.8679C170.043 15.9391 170.121 15.9848 170.207 15.9968C170.292 16.0089 170.378 15.9864 170.45 15.9334C170.521 15.8805 170.574 15.8006 170.598 15.7081C170.958 14.3616 171.078 12.9485 170.95 11.55C170.854 10.5423 170.755 8.55632 169.809 8.0686Z" fill="#111111"/><path d="M172.713 14.0131C172.66 13.9969 172.606 13.9957 172.553 14.0096C172.5 14.0235 172.451 14.0521 172.408 14.0933C172.365 14.1345 172.33 14.1873 172.305 14.2479C172.28 14.3084 172.267 14.3751 172.265 14.4432C172.282 15.0376 172.406 15.6193 172.627 16.1441C173.004 18.2663 172.79 20.4878 172.024 22.4348C171.874 22.9504 172.473 23.2082 172.69 22.7948C174.792 18.8272 174.035 14.5012 172.713 14.0131Z" fill="#111111"/><path d="M155.852 16.3025C155.381 15.7917 154.252 16.0372 153.675 16.2467C153.307 16.3682 152.972 16.5506 152.688 16.7833C152.405 17.0159 152.179 17.2942 152.025 17.6016C151.893 17.8669 152.318 18.0901 152.569 17.9636C153.261 17.5768 154.034 17.3066 154.846 17.1678C155.292 17.0983 156.397 16.8963 155.852 16.3025Z" fill="#111111"/><path d="M162.998 19.4782C162.824 17.5641 161.099 16.5529 160.189 17.1909C160.124 17.2338 160.071 17.2967 160.038 17.3717C160.005 17.4468 159.993 17.5307 160.004 17.613C160.014 17.6953 160.047 17.7724 160.098 17.8347C160.149 17.897 160.215 17.9418 160.289 17.9634C160.684 18.0419 161.049 18.2404 161.343 18.5356C161.611 18.9247 161.854 19.3326 162.071 19.7568C162.307 20.1437 163.048 20.0819 162.998 19.4782Z" fill="#111111"/><path d="M161.517 23.3563C160.56 22.5137 158.519 23.193 159.103 25.1034C159.147 25.2611 159.231 25.4094 159.349 25.5388C159.466 25.6681 159.616 25.7756 159.787 25.8543C159.958 25.9329 160.147 25.981 160.342 25.9954C160.537 26.0098 160.734 25.9902 160.919 25.9378C161.188 25.819 161.421 25.652 161.602 25.449C161.783 25.2461 161.906 25.0124 161.964 24.7649C162.021 24.5175 162.011 24.2626 161.933 24.0189C161.856 23.7752 161.714 23.5488 161.517 23.3563Z" fill="#111111"/><path d="M154.909 22.8554C154.824 22.5854 154.633 22.3514 154.369 22.196C154.105 22.0406 153.787 21.9742 153.472 22.009C153.155 22.0608 152.859 22.1871 152.616 22.3747C152.372 22.5623 152.191 22.8042 152.09 23.0752C151.989 23.3461 151.973 23.636 152.042 23.9145C152.112 24.193 152.265 24.4498 152.486 24.6578C152.697 24.8336 152.963 24.9482 153.25 24.9861C153.536 25.0241 153.829 24.9836 154.088 24.8702C154.455 24.659 154.733 24.348 154.881 23.9844C155.029 23.6208 155.039 23.2244 154.909 22.8554Z" fill="#111111"/><path d="M158.778 29.6382C157.908 29.1626 156.729 29.6382 155.705 30.0827C156.021 27.8325 156.58 25.6173 157.372 23.4704C157.523 23.0258 156.878 22.8359 156.614 23.1693C154.869 25.5566 153.957 28.3841 154.002 31.2687C154.003 31.3978 154.042 31.5242 154.112 31.6354C154.183 31.7465 154.284 31.8387 154.404 31.9026C154.525 31.9666 154.662 32.0001 154.801 32C154.94 31.9999 155.077 31.966 155.197 31.9018C155.829 31.5853 156.478 31.3166 157.126 31.0141C157.672 30.7609 158.304 30.6497 158.793 30.3655C158.858 30.3253 158.911 30.2705 158.947 30.2063C158.983 30.1421 159.001 30.0704 159 29.998C158.998 29.9255 158.977 29.8546 158.938 29.7917C158.9 29.7289 158.845 29.676 158.778 29.6382Z" fill="#111111"/><path d="M156.192 34.1589C155.959 34.3097 155.754 34.5073 155.588 34.7414C155.42 34.9795 155.307 35.3382 155.042 35.4687C154.348 35.8073 154.023 34.6438 153.759 34.1919C153.72 34.1255 153.665 34.0725 153.6 34.0391C153.535 34.0057 153.462 33.9933 153.391 34.0034C153.32 34.0135 153.253 34.0456 153.197 34.096C153.142 34.1464 153.101 34.2131 153.079 34.2881C153.001 34.5763 152.981 34.8795 153.018 35.1772C153.056 35.475 153.151 35.7604 153.298 36.0145C153.445 36.2685 153.639 36.4853 153.869 36.6502C154.098 36.8151 154.357 36.9244 154.628 36.9707C155.897 37.1974 156.487 36.0669 156.944 34.9838C157.165 34.5047 156.694 33.8032 156.192 34.1589Z" fill="#111111"/><path d="M68.9558 265.039C68.834 251.723 67.8524 238.427 66.0169 225.231C65.9324 224.769 65.1664 224.885 65.1845 225.347C65.5524 233.486 67.1569 241.148 67.4464 261.467C67.5967 263.718 67.6022 265.977 67.463 268.228C67.4857 268.697 67.3614 269.162 67.1067 269.56C66.8519 269.959 66.4787 270.273 66.0365 270.46C65.576 270.568 65.0962 270.572 64.6339 270.472C64.1716 270.371 63.7389 270.17 63.369 269.882C62.5992 269.23 61.9712 268.435 61.5219 267.544C61.0726 266.652 60.8111 265.682 60.7527 264.691C60.6231 263.81 55.475 212.162 54.9774 206.931C54.7226 204.238 54.5009 201.544 54.525 198.848C54.525 197.51 54.1858 194.733 56.033 194.468C59.091 194.005 60.7904 197.311 61.2654 199.692C61.301 199.805 61.3767 199.902 61.4792 199.966C61.5816 200.03 61.7039 200.056 61.8245 200.04C61.945 200.025 62.0558 199.967 62.137 199.879C62.2183 199.791 62.2648 199.678 62.2682 199.56C62.0299 196.749 60.5522 193.725 57.4429 193.113C56.4804 192.883 55.4649 193.007 54.5899 193.459C52.8392 194.517 53.0262 197.127 53.0096 198.848C52.9794 203.456 52.708 199.126 59.0578 262.821C59.099 265.061 59.6866 267.259 60.7723 269.235C63.366 273.123 68.4386 272.957 68.9272 268.441C69.0135 267.309 69.0231 266.172 68.9558 265.039Z" fill="#111111"/><path d="M83.6375 241.452C83.6271 241.354 83.5798 241.264 83.5051 241.2C83.4303 241.135 83.3336 241.1 83.2339 241.102C83.1343 241.104 83.0391 241.143 82.9672 241.211C82.8952 241.278 82.8518 241.37 82.8454 241.468C82.696 247.328 82.6631 266.363 81.7515 269.332C81.6358 269.695 81.4216 270.021 81.1318 270.274C80.842 270.527 80.4877 270.697 80.1068 270.767C79.7258 270.837 79.3328 270.803 78.9698 270.67C78.6068 270.537 78.2877 270.309 78.0465 270.01C76.0544 268.107 75.6732 262.891 75.6224 260.165C75.473 254.006 75.9049 250.742 75.3355 237.913C74.7571 224.911 73.1669 213.637 73.2985 202.599C73.1489 200.838 73.2968 199.064 73.7364 197.35C74.4014 195.62 77.9913 196.042 78.3335 196.258C80.1135 197.375 80.4378 199.638 80.5753 201.572C80.8054 205.09 80.4109 198.695 81.5856 221.472C81.531 222.745 81.7019 224.017 82.0907 225.231C82.2088 225.48 82.5585 225.378 82.6302 225.165C82.9064 223.734 82.9347 222.267 82.7139 220.827C82.6915 220.348 82.7872 222.266 82.0414 207.731C82.0269 205.171 81.8351 202.616 81.4675 200.082C81.3835 199.207 81.0761 198.367 80.574 197.641C80.0718 196.914 79.3911 196.324 78.595 195.925C78.6264 195.865 78.642 195.799 78.6403 195.732C78.6386 195.666 78.6197 195.6 78.5854 195.543C78.551 195.485 78.5024 195.437 78.4439 195.402C78.3855 195.368 78.3192 195.349 78.2513 195.347C76.6701 195.381 75.0695 194.436 73.6183 195.529C73.1559 195.961 72.7899 196.483 72.5437 197.062C72.2975 197.64 72.1763 198.263 72.188 198.89C71.3795 208.148 73.4046 223.979 73.9889 235.922C74.7362 251.205 74.1668 253.195 74.376 260.441C74.4567 263.431 74.9275 268.313 76.9167 270.581C77.363 271.115 77.9462 271.522 78.6062 271.761C79.2661 272 79.9789 272.061 80.6709 271.938C81.3388 271.744 81.9296 271.352 82.3632 270.816C82.7968 270.28 83.0523 269.626 83.095 268.942C83.4851 266.639 83.8273 258.232 83.9036 255.631C84.0925 250.904 84.0037 246.169 83.6375 241.452Z" fill="#111111"/><path d="M100.156 197.883C99.7935 197.007 99.1697 196.261 98.3678 195.746C97.566 195.231 96.6244 194.972 95.6694 195.002C94.7412 195.073 93.8566 195.422 93.1332 196.003C92.4097 196.584 91.8815 197.369 91.6187 198.254C91.2563 199.503 91.3309 200.404 91.401 206.279C91.4338 209.111 91.5178 211.942 91.653 214.772C91.653 214.838 91.6796 214.902 91.7268 214.949C91.7741 214.995 91.8382 215.022 91.9051 215.022C91.9719 215.022 92.036 214.995 92.0833 214.949C92.1306 214.902 92.1571 214.838 92.1571 214.772C92.3749 210.19 92.4256 205.631 92.4435 201.052C92.4599 199.13 92.6776 197.138 94.7283 196.356C95.5559 196.063 96.4659 196.099 97.2676 196.456C98.0693 196.812 98.7007 197.463 99.0296 198.27C100.141 200.435 99.7559 200.749 99.6679 225.146C99.6202 233.729 99.5695 256.246 98.2227 265.693C97.4144 271.352 92.9655 272.087 91.7365 268.922C91.2186 267.031 91.0593 265.06 91.2667 263.111C91.3741 255.091 91.7589 246.646 92.2078 240.115C92.2406 239.565 91.4174 239.583 91.3503 240.115C90.5092 247.641 90.0661 255.206 90.0229 262.778C89.9931 266.241 89.6381 271.011 93.2324 271.92C94.0773 272.078 94.9498 272.001 95.7535 271.699C96.5572 271.396 97.2606 270.878 97.7857 270.204C99.5218 268.145 99.6142 265.326 100.156 257.333C100.794 247.276 100.845 237.186 100.877 227.11C100.965 200.761 101.329 200.359 100.156 197.883Z" fill="#111111"/><path d="M117.726 194.9C115.763 192.461 109.899 194.638 110.531 205.682C110.536 205.754 110.568 205.821 110.62 205.87C110.673 205.918 110.742 205.946 110.813 205.946C110.885 205.946 110.954 205.918 111.006 205.87C111.059 205.821 111.091 205.754 111.096 205.682C111.183 203.637 111.489 201.607 112.009 199.626C113.173 195.675 115.605 194.335 116.713 195.399C117.62 196.25 117.688 198.679 117.825 202.272C118.015 208.604 116.101 252.766 114.469 265.46C114.462 266.021 114.313 266.572 114.038 267.06C113.762 267.549 113.367 267.96 112.891 268.256C112.099 268.669 111.193 268.809 110.314 268.655C109.218 268.359 109.317 267.224 109.333 266.325C109.449 262.415 109.966 245.308 110.197 240.663C110.414 236.52 110.812 232.377 110.995 228.234C111.012 227.684 110.11 227.551 110.014 228.101C109.392 232.083 109.026 236.102 108.918 240.132C108.669 244.724 108.137 262.415 108.004 266.659C107.92 269.051 109.209 270.132 111.162 269.987C112.104 270 113.027 269.715 113.799 269.175C114.571 268.634 115.154 267.864 115.466 266.974C115.932 265.46 116.84 252.724 116.941 251.148C117.745 239.525 118.151 229.622 118.604 218.099C118.729 214.572 119.822 197.495 117.726 194.9Z" fill="#111111"/><path d="M128.132 176.441C128.034 177.704 127.937 178.967 127.839 180.229C125.954 181.606 123.924 182.771 121.786 183.701C115.428 186.28 103.422 187.948 96.8484 188.552C81.8706 189.894 56.3727 186.709 50.7979 184.963C48.1064 184.079 45.6011 182.699 43.4093 180.894C43.096 180.645 42.5309 180.976 42.8149 181.358C46.9287 187.146 56.4298 188.079 74.7631 189.748C94.5866 191.518 113.681 188.387 121.588 185.395C123.763 184.622 125.827 183.561 127.723 182.239C127.706 182.474 123.072 243.207 122.462 250.267C122.327 251.827 120.875 269.1 120.251 270.551C119.6 272.096 106.83 277.834 86.3577 278.292C75.7849 278.535 64.0717 278.336 54.5091 273.891C53.8042 273.61 53.1427 273.23 52.5444 272.761C52.0554 272.235 51.7892 271.538 51.8022 270.818C47.8407 233.315 44.7576 216.288 41.7243 181.742C41.4769 178.918 41.247 176.11 40.8459 173.303C40.78 172.821 40.0393 172.955 40.0217 173.419C39.5927 187.82 45.6155 228.954 50.1816 270.801C50.1768 271.452 50.3166 272.096 50.5906 272.685C50.8647 273.275 51.2662 273.795 51.7656 274.208C54.2436 275.689 56.9052 276.834 59.6813 277.612C65.3213 279.101 71.1256 279.866 76.9561 279.889C82.9518 280.124 88.9563 279.985 94.935 279.473C107.041 278.347 116.539 274.979 120.483 272.679C121.052 272.266 121.514 271.722 121.829 271.091C122.145 270.461 122.305 269.763 122.297 269.057C124.261 255.574 129.01 188.427 130 176.426C130.012 175.279 128.214 175.295 128.132 176.441Z" fill="#111111"/><path d="M209.689 154.539C209.689 154.396 209.633 154.259 209.533 154.158C209.434 154.057 209.298 154 209.157 154C209.016 154 208.881 154.057 208.781 154.158C208.682 154.259 208.625 154.396 208.625 154.539C208.252 158.369 208.521 159.383 208.102 171.983C206.953 171.186 203.673 170.86 199.391 166.058C196.848 162.87 194.652 159.412 192.841 155.746C192.596 155.314 191.861 155.598 192.023 156.095C193.374 160.218 195.523 164.027 198.344 167.298C200.975 170.236 205.848 173.586 208.019 173.206C206.669 215.665 197.629 249.897 196.854 257.254C196.755 258.151 198.114 258.266 198.36 257.453C198.967 255.368 201.981 239.679 202.355 237.752C209.332 201.402 210.739 163.592 209.689 154.539Z" fill="#111111"/><path d="M134.058 154.522C134.058 154.384 134.003 154.251 133.905 154.153C133.808 154.055 133.676 154 133.538 154C133.4 154 133.268 154.055 133.17 154.153C133.073 154.251 133.018 154.384 133.018 154.522C132.784 164.036 134.86 187.82 135.755 197.229C137.107 211.41 138.789 225.564 140.802 239.69C141.94 247.658 142.882 255.75 144.792 263.562C144.955 264.225 146.066 264.108 145.997 263.396C145.315 256.338 143.948 249.331 142.913 242.307C135.798 194.249 135.331 164.711 134.058 154.522Z" fill="#111111"/><path d="M149.869 155.336C149.787 154.985 149.193 154.851 149.044 155.219C148.339 156.903 148.581 160.339 144.892 167.237C141.59 173.47 138.331 176.716 138.018 178.216C137.989 178.336 137.995 178.461 138.035 178.578C138.075 178.694 138.148 178.796 138.245 178.87C138.341 178.945 138.457 178.99 138.578 178.998C138.698 179.007 138.819 178.98 138.925 178.92C140.411 178.08 145.293 169.993 146.422 167.841C148.061 164.7 150.606 158.336 149.869 155.336Z" fill="#111111"/><path d="M170.424 167.198C170.718 172.729 170.994 177.705 171.72 178.763C171.779 178.844 171.863 178.91 171.964 178.951C172.064 178.992 172.176 179.008 172.287 178.996C172.397 178.984 172.501 178.945 172.587 178.883C172.672 178.822 172.735 178.74 172.769 178.649C173.231 177.625 172.974 177.926 172.234 167.033C171.596 157.622 172.04 157.41 171.434 155.385C171.395 155.274 171.315 155.176 171.207 155.107C171.099 155.037 170.968 155 170.833 155C170.698 155 170.567 155.037 170.459 155.107C170.351 155.176 170.271 155.274 170.232 155.385C169.887 156.91 169.907 157.495 170.424 167.198Z" fill="#111111"/><path d="M171.087 184.349C171.102 184.315 171.135 184.281 171.15 184.249C171.61 183.218 170.881 182.674 170.042 182.292C169.155 181.893 168.949 181.047 168.807 180.101C168.725 179.554 166.675 163.527 166.573 159.034C166.542 157.541 166.605 156.032 166.479 154.539C166.474 154.407 166.425 154.281 166.34 154.184C166.255 154.086 166.14 154.023 166.015 154.005C165.89 153.987 165.763 154.017 165.656 154.087C165.55 154.158 165.471 154.266 165.433 154.392C164.338 158.547 165.467 165.877 167.191 179.92C167.245 180.858 167.5 181.77 167.935 182.591C168.33 183.246 168.956 183.711 169.677 183.885C173.351 222.43 172.861 220.667 171.083 251.91C170.821 254.743 170.758 257.593 170.893 260.436C170.941 261.034 171.828 261.265 171.97 260.584C172.378 258.151 172.622 255.691 172.698 253.222C173.815 233.492 173.748 235.59 173.949 230.712C174.241 215.201 173.283 199.692 171.087 184.349Z" fill="#111111"/><path d="M229.021 85.0333C229.053 85.0333 229.053 85 229.021 85C228.989 85 228.998 85.0333 229.021 85.0333Z" fill="#111111"/><path d="M130.741 169.329C129.21 165.498 121.701 163.79 117.622 163.186C117.717 163.61 117.694 164.052 117.556 164.463C117.362 164.894 117.021 165.242 116.594 165.443C106.792 170.075 96.8689 171.78 86.6427 174.508C81.2359 175.936 76.228 177.181 70.3899 176.584C69.2947 171.818 68.1333 166.638 67.0234 161.542C60.96 162.279 51.5493 163.74 45.8613 165.793C44.3348 166.347 41.931 167.282 41.931 168.946C41.931 174.777 46.7092 176.664 52.777 178.444C60.3691 180.819 68.2449 182.164 76.1942 182.445C91.0868 182.578 106.477 182.628 120.806 177.994C123.904 176.991 128.265 175.445 129.844 173.596C130.368 173.034 130.729 172.34 130.887 171.588C131.045 170.836 130.994 170.055 130.741 169.329Z" fill="#111111"/><path d="M95.3498 126.775C94.5258 126.737 93.7037 126.884 92.9445 127.207C85.4061 129.289 78.1843 129.012 73.3251 132.176C72.9762 132.409 73.1926 133.04 73.6195 132.891C86.5735 128.688 83.9827 130.898 93.1064 128.408C93.9839 128.272 94.8057 127.892 95.4778 127.312C95.6147 127.141 95.5971 126.825 95.3498 126.775Z" fill="#111111"/><path d="M97.7878 134.016C96.3614 133.269 94.1724 134.117 92.7284 134.498C81.3289 137.474 79.1723 137.901 75.5644 139.214C75.4718 139.246 75.3947 139.312 75.3487 139.398C75.3027 139.485 75.2911 139.585 75.3163 139.68C75.3415 139.775 75.4016 139.857 75.4845 139.909C75.5674 139.961 75.6669 139.98 75.7631 139.961C80.2425 139.233 92.2499 135.878 95.25 135.245C96.1276 135.181 96.9868 134.962 97.7878 134.597C97.8371 134.566 97.8777 134.524 97.9059 134.473C97.9341 134.422 97.9489 134.365 97.9489 134.307C97.9489 134.249 97.9341 134.191 97.9059 134.141C97.8777 134.09 97.8371 134.047 97.7878 134.016Z" fill="#111111"/><path d="M97.9862 140.374C97.2826 140.302 97.761 140.245 88.5828 142.732C85.3683 143.495 82.1961 144.426 79.0793 145.522C78.9716 145.553 78.8805 145.625 78.8261 145.723C78.7717 145.821 78.7585 145.937 78.7893 146.045C78.8202 146.153 78.8926 146.244 78.9906 146.299C79.0886 146.353 79.2041 146.366 79.3119 146.335C81.86 145.945 82.8595 145.647 95.946 142.15C96.7565 142.018 97.5371 141.743 98.2512 141.337C98.3466 141.277 98.4203 141.189 98.4612 141.084C98.5022 140.98 98.5082 140.865 98.4784 140.756C98.4485 140.648 98.3845 140.552 98.2958 140.483C98.207 140.414 98.0984 140.376 97.9862 140.374Z" fill="#111111"/><path d="M100.723 149.34C99.9689 149.248 99.204 149.368 98.5148 149.688C95.7503 150.488 86.1394 153.467 81.8322 155.101C81.7317 155.132 81.6472 155.201 81.5966 155.293C81.5461 155.386 81.5334 155.494 81.5614 155.596C81.5893 155.697 81.6556 155.784 81.7463 155.837C81.837 155.891 81.9449 155.907 82.0471 155.882C86.3705 154.875 94.8215 152.325 98.8975 151.05C99.6481 150.928 100.352 150.607 100.936 150.12C100.991 150.061 101.03 149.988 101.049 149.91C101.068 149.831 101.067 149.749 101.046 149.671C101.025 149.593 100.984 149.521 100.927 149.464C100.871 149.406 100.8 149.363 100.723 149.34Z" fill="#111111"/><path d="M115.865 162.821C109.89 144.136 107.73 124.917 101.353 105.607C101.302 105.446 101.191 105.31 101.043 105.227C100.895 105.145 100.721 105.123 100.557 105.165C97.9071 105.681 95.2825 106.278 92.646 106.876C92.6299 107.308 92.6137 107.76 92.6137 108.188C95.1676 107.606 97.7216 107.059 100.268 106.527C106.212 125.038 108.694 143.924 114.282 162.594C101.155 167.982 87.4212 171.75 73.3844 173.817C69.6175 154.002 63.6586 135.502 60.6969 115.392C63.1184 114.961 65.5399 114.446 67.9452 113.898C67.8613 113.5 67.7789 113.085 67.7288 112.671C65.2573 113.217 62.8034 113.749 60.3318 114.33C60.1988 114.269 60.0522 114.245 59.9068 114.26C59.7615 114.275 59.6227 114.328 59.5047 114.414C59.3867 114.501 59.2937 114.617 59.2352 114.751C59.1767 114.885 59.1549 115.032 59.1719 115.177C62.0026 135.235 68.0954 153.968 72.0581 174.847C72.1175 175.037 72.2463 175.197 72.4185 175.295C72.5908 175.394 72.7938 175.423 72.987 175.378C87.5524 173.319 101.79 169.379 115.343 163.656C115.435 163.641 115.523 163.606 115.6 163.555C115.677 163.503 115.743 163.435 115.792 163.356C115.841 163.277 115.873 163.189 115.886 163.096C115.898 163.004 115.891 162.91 115.865 162.821Z" fill="#111111"/><path d="M107.024 105.642C106.73 103.047 103.3 99.7079 100.937 99.5826C100.12 99.5502 99.3036 99.6851 98.5395 99.979C97.7754 100.273 97.0792 100.72 96.4933 101.292C96.3108 101.509 96.4094 101.957 96.7583 101.923C98.0184 101.824 99.0797 100.993 100.391 100.993C102.264 100.993 105.128 104.002 105.383 105.709C105.566 106.97 104.835 108.05 104.885 109.278C104.902 109.66 105.383 110.059 105.747 109.776C106.271 109.237 106.66 108.581 106.882 107.863C107.104 107.144 107.153 106.383 107.024 105.642Z" fill="#111111"/><path d="M93.8399 91.7282C87.4645 93.0044 88.3272 105.398 89.5121 111.851C89.6628 113.482 90.1602 115.061 90.9709 116.483C91.031 116.577 91.1197 116.649 91.2239 116.69C91.3281 116.73 91.4424 116.735 91.55 116.706C91.6576 116.676 91.753 116.613 91.822 116.525C91.891 116.437 91.9302 116.329 91.9337 116.218C91.9572 114.325 91.1594 113.434 90.5897 108.364C90.1186 104.142 89.5593 96.9627 92.7124 94.0522C93.1218 93.601 93.6826 93.3162 94.288 93.2518C94.8935 93.1874 95.5015 93.348 95.9965 93.7029C96.6854 94.4313 97.2343 95.2806 97.6157 96.2082C97.6631 96.2945 97.7378 96.3625 97.8282 96.4015C97.9185 96.4405 98.0193 96.4481 98.1145 96.4232C98.2096 96.3984 98.2938 96.3424 98.3536 96.2642C98.4134 96.186 98.4454 96.09 98.4445 95.9915C98.3017 93.6204 96.4602 91.1962 93.8399 91.7282Z" fill="#111111"/><path d="M90.1079 92.5743C88.998 90.5495 86.1113 90.6482 84.3861 91.8109C80.4116 94.5018 79.8979 103.983 80.207 108.646C80.3006 110.248 80.5117 111.84 80.8385 113.41C81.0182 114.906 81.5205 116.346 82.3105 117.628C82.4769 117.845 82.7757 117.646 82.7919 117.429C82.7466 116.105 82.552 114.791 82.2119 113.511C81.9793 112.1 81.7968 110.672 81.6967 109.261C81.4023 105.345 81.8306 97.458 84.0681 94.2292C84.3394 93.7955 84.6953 93.4211 85.1145 93.1282C85.5336 92.8354 86.0074 92.6301 86.5076 92.5247C87.0078 92.4194 87.5241 92.416 88.0256 92.5149C88.527 92.6138 89.0035 92.813 89.4264 93.1004C89.5036 93.1638 89.6 93.1992 89.6998 93.2007C89.7997 93.2022 89.8971 93.1698 89.9762 93.1088C90.0553 93.0477 90.1114 92.9616 90.1353 92.8646C90.1592 92.7675 90.1496 92.6652 90.1079 92.5743Z" fill="#111111"/><path d="M80.656 93.7863C79.3783 91.7939 76.8581 93.0892 76.0279 94.7648C75.5069 95.9854 75.1501 97.2699 74.9666 98.5845C73.2089 107.705 75.5966 116.908 77.338 119.155C77.3972 119.212 77.4714 119.25 77.5518 119.265C77.6321 119.28 77.7151 119.272 77.7907 119.24C77.8663 119.209 77.9312 119.157 77.9775 119.089C78.0239 119.022 78.0498 118.942 78.0519 118.861C77.8694 117.064 77.0981 115.829 76.3606 112.136C75.4585 107.489 75.4976 102.707 76.4754 98.0746C76.6167 97.0132 76.9425 95.9848 77.4381 95.0359C77.9357 94.2387 79.1133 93.5741 79.9582 94.3212C80.3233 94.6321 80.9371 94.2343 80.656 93.7863Z" fill="#111111"/><path d="M73.7884 98.1836C73.4845 98.0054 73.1441 97.8988 72.793 97.8718C72.4418 97.8448 72.0892 97.8982 71.7617 98.0278C71.4342 98.1574 71.1405 98.36 70.9027 98.6201C70.665 98.8801 70.4894 99.191 70.3894 99.529C69.7514 101.414 69.4645 103.401 69.543 105.39C69.5036 107.393 69.6649 109.396 70.0244 111.367C70.3556 113.193 70.7604 115.617 72.0852 117.011C72.1382 117.06 72.2041 117.093 72.275 117.105C72.346 117.118 72.4191 117.11 72.4856 117.082C72.552 117.054 72.609 117.007 72.6497 116.948C72.6905 116.888 72.7132 116.818 72.7153 116.746C72.6902 114.493 71.2211 112.833 70.9415 107.167C70.8737 105.741 70.6088 97.936 73.4277 99.0324C73.9709 99.2461 74.1873 98.4665 73.7884 98.1836Z" fill="#111111"/><path d="M239.087 97.0577C236.896 91.782 234.984 86.8614 232.619 84.7055C232.495 84.5897 232.334 84.5219 232.165 84.5142C231.996 84.5064 231.829 84.5593 231.695 84.6632C231.562 84.7672 231.469 84.9155 231.435 85.0815C231.4 85.2474 231.426 85.4203 231.507 85.569C232.867 87.9534 233.241 87.2667 236.88 95.9289C238.418 99.3496 239.275 103.038 239.402 106.787C239.459 108.626 239.246 110.463 238.77 112.239C238.492 113.131 238.027 113.954 237.407 114.652C236.787 115.35 236.025 115.908 235.173 116.289C231.529 118.094 227.621 119.305 223.596 119.876C219.017 120.432 214.391 120.499 209.798 120.075C209.694 120.079 209.594 120.119 209.517 120.189C209.44 120.259 209.39 120.354 209.376 120.458C209.362 120.561 209.385 120.666 209.441 120.754C209.497 120.842 209.582 120.907 209.681 120.938C217.348 123.149 228.045 121.332 235.255 117.984C239.406 116.027 240.584 113.725 240.927 108.835C241.228 104.82 240.598 100.789 239.087 97.0577Z" fill="#111111"/><path d="M167.01 83.1423C166.677 83.1648 166.352 83.2579 166.058 83.4154C165.764 83.5729 165.506 83.7913 165.302 84.056C165.239 84.1276 165.205 84.2209 165.208 84.3167C165.211 84.4125 165.25 84.5036 165.318 84.5714C165.385 84.6391 165.476 84.6784 165.572 84.6813C165.668 84.6841 165.761 84.6502 165.832 84.5865C166.229 84.3109 166.665 84.0981 167.126 83.9558C167.525 83.7907 167.525 83.1423 167.01 83.1423Z" fill="#111111"/><path d="M167.16 84.6548C166.759 84.6341 166.361 84.7325 166.015 84.9378C165.913 84.9695 165.827 85.0396 165.776 85.1333C165.725 85.227 165.712 85.337 165.74 85.4402C165.768 85.5434 165.835 85.6316 165.926 85.6863C166.018 85.741 166.127 85.758 166.231 85.7335C166.631 85.7503 167.025 85.6404 167.359 85.4197C167.415 85.3632 167.456 85.2929 167.477 85.2159C167.498 85.1388 167.498 85.0576 167.478 84.9803C167.458 84.903 167.418 84.8323 167.362 84.7752C167.307 84.7181 167.237 84.6766 167.16 84.6548Z" fill="#111111"/><path d="M166.679 81.018C166.613 80.6363 166.016 80.7026 165.796 80.486C165.631 80.1353 165.558 79.7484 165.584 79.3617C165.61 78.975 165.734 78.6012 165.943 78.2755C166.208 77.9808 165.861 77.4458 165.502 77.6949C165.137 78.0252 164.866 78.4469 164.717 78.9167C164.568 79.3865 164.547 79.8874 164.655 80.3681C164.803 81.1315 165.705 82.0437 166.497 81.463C166.57 81.417 166.626 81.3494 166.659 81.2697C166.692 81.1899 166.699 81.102 166.679 81.018Z" fill="#111111"/><path d="M234.426 83.0113C228.345 70.858 217.096 60.7589 206.349 52.6538C195.601 44.5486 184.771 39.7209 171.422 41.4642C170.003 41.6219 169.78 41.9844 168.95 43.0853C168.087 44.2044 166.996 45.1267 165.749 45.7909C164.502 46.4551 163.129 46.8459 161.719 46.9374C160.322 47.0147 158.925 46.7892 157.622 46.2762C156.32 45.7632 155.144 44.9749 154.174 43.965C153.454 44.0712 135.719 45.2103 121.519 57.9943C111.573 66.9675 100.081 84.0104 99.1636 85.8702C107.919 92.9924 116.534 102.39 126.196 108.218L126.76 108.118C127.577 107.08 128.599 106.22 129.761 105.594C127.123 138.339 126.376 145.156 126.909 153.327C154.754 155.569 182.749 154.739 210.676 153.908C211.61 153.864 211.888 153.651 211.888 152.646C211.627 141.807 210.736 130.991 209.218 120.255C203.144 119.313 197.155 117.892 191.306 116.004C179.038 112.219 177.564 111.006 174.124 111.272C169.969 111.566 169.183 113.162 156.064 112.734C153.975 112.667 151.387 112.336 150.426 110.161C150.159 109.561 150.131 108.882 150.347 108.262C150.562 107.641 151.006 107.127 151.587 106.823C149.647 106.275 147.623 105.395 146.977 103.32C146.786 102.714 146.799 102.063 147.015 101.466C147.231 100.868 147.637 100.359 148.171 100.016C147.38 99.7923 146.698 99.2879 146.253 98.5973C145.807 97.9067 145.628 97.0772 145.749 96.2639C145.961 95.44 146.468 94.7227 147.174 94.2481C147.879 93.7736 148.734 93.5748 149.577 93.6894C149.37 93.3469 149.251 92.9586 149.231 92.559C149.211 92.1595 149.29 91.7611 149.46 91.3994C149.834 90.7862 150.358 90.2784 150.982 89.9239C151.606 89.5694 152.309 89.3798 153.027 89.3731C155.988 88.9806 158.989 88.986 161.949 89.3893C161.715 85.6815 161.254 84.2491 161.335 82.7578C161.582 81.0267 162.485 79.4572 163.857 78.3751C164.603 77.7105 166.874 75.7682 167.438 77.5779C167.703 78.4237 167.232 79.0913 167.406 81.4462C167.775 85.8319 170.388 89.3878 172.558 93.2179C174.67 96.9639 176.007 97.7612 180.055 97.966C188.032 98.3816 196.473 96.6397 204.534 97.0818C202.751 86.3845 202.498 88.0541 201.565 83.7496C201.301 82.9981 201.19 82.202 201.235 81.407C201.281 80.6121 201.483 79.8341 201.831 79.1178C201.876 79.0464 201.94 78.9892 202.016 78.9529C202.092 78.9167 202.176 78.903 202.26 78.9133C202.343 78.9237 202.422 78.9578 202.487 79.0115C202.552 79.0652 202.6 79.1364 202.626 79.2166C202.779 80.9006 203.034 82.5739 203.39 84.227C204.619 88.4657 205.505 92.7965 206.04 97.1776C208.889 97.493 213.631 95.5035 216.205 94.2214C220.422 92.0108 224.508 89.5611 228.445 86.8841C230.303 85.6398 232.224 84.4923 234.2 83.446C234.245 83.4362 234.288 83.4164 234.326 83.3881C234.363 83.3597 234.393 83.3235 234.415 83.282C234.437 83.2405 234.449 83.1947 234.451 83.1479C234.453 83.1011 234.444 83.0544 234.426 83.0113ZM133.575 93.2724C132.703 95.925 131.949 98.6336 131.203 101.326C131.006 102.612 130.615 103.86 130.043 105.028C129.926 105.211 129.577 105.211 129.527 104.961C129.474 103.625 129.671 102.29 130.109 101.027C130.73 98.2268 131.42 95.7968 132.282 93.069C132.506 91.7301 133.052 90.4658 133.873 89.3849C133.92 89.3402 133.978 89.3084 134.042 89.2923C134.105 89.2763 134.171 89.2767 134.234 89.2933C134.297 89.31 134.355 89.3424 134.402 89.3875C134.449 89.4327 134.484 89.4891 134.503 89.5514C134.472 90.8451 134.156 92.116 133.575 93.2724ZM173.111 46.6353C171.008 49.5187 167.869 51.4733 164.356 52.0879C161.754 52.5123 159.087 52.261 156.61 51.3579C154.133 50.4548 151.929 48.9302 150.209 46.9301C149.977 46.6353 150.274 46.1004 150.651 46.3494C152.626 47.8062 154.784 48.9954 157.069 49.8862C159.266 50.6792 161.624 50.9191 163.935 50.5848C167.103 50.0866 169.946 48.3557 171.846 45.7688C172.301 44.8503 172.843 43.9778 173.465 43.1634C173.542 43.0916 173.639 43.0435 173.742 43.0248C173.846 43.006 173.953 43.0173 174.051 43.0575C174.148 43.0976 174.233 43.1648 174.293 43.2512C174.354 43.3376 174.389 43.4395 174.394 43.5451C174.33 44.6904 173.878 45.7798 173.113 46.6339L173.111 46.6353Z" fill="#E04747"/><path d="M154.788 94.5153C154.166 94.0629 153.169 94.2663 152.433 94.1174C151.593 93.8796 150.767 93.5912 149.962 93.2539C149.876 93.2327 149.785 93.2399 149.703 93.2744C149.622 93.309 149.553 93.369 149.509 93.4456C149.464 93.5222 149.445 93.6112 149.455 93.6994C149.465 93.7875 149.503 93.8701 149.564 93.9347C150.354 94.5653 151.289 94.9878 152.284 95.1637C153.081 95.3465 154.208 95.628 154.855 95.0164C154.889 94.9818 154.915 94.9398 154.931 94.8935C154.947 94.8472 154.951 94.7979 154.945 94.7495C154.939 94.701 154.921 94.6547 154.894 94.6141C154.867 94.5735 154.831 94.5397 154.788 94.5153Z" fill="#111111"/><path d="M153.213 100.394C152.303 99.8195 151.369 100.64 148.386 99.7797C148.308 99.7599 148.226 99.7685 148.154 99.8041C148.081 99.8397 148.024 99.8999 147.992 99.9739C147.96 100.048 147.956 100.131 147.979 100.208C148.003 100.285 148.053 100.351 148.121 100.394C148.929 100.885 149.833 101.196 150.771 101.306C151.566 101.407 152.693 101.539 153.259 100.842C153.288 100.811 153.311 100.774 153.325 100.734C153.339 100.693 153.344 100.65 153.34 100.608C153.335 100.565 153.322 100.524 153.3 100.487C153.278 100.45 153.248 100.418 153.213 100.394Z" fill="#111111"/><path d="M156.131 106.156C155.458 106.178 154.794 106.325 154.174 106.588C153.376 106.746 152.56 106.779 151.752 106.688C151.668 106.693 151.588 106.724 151.523 106.777C151.458 106.831 151.412 106.904 151.392 106.985C151.371 107.067 151.378 107.153 151.41 107.231C151.442 107.308 151.498 107.374 151.57 107.417C152.847 108.016 155.732 108.315 156.396 106.622C156.42 106.525 156.405 106.423 156.356 106.336C156.307 106.25 156.226 106.185 156.131 106.156Z" fill="#111111"/></svg>