<svg viewBox="0 0 280 280" fill="none" xmlns="http://www.w3.org/2000/svg"><path d="M88.903 163.513C115.881 226.142 200.063 216.93 225.001 162.615C230.297 150.909 232.647 138.092 231.847 125.275C231.048 112.459 227.123 100.03 220.413 89.0674C185.185 32.292 89.2663 42.6385 81.0105 119.453C80.7979 121.421 83.8698 121.375 84.0559 119.453C87.1839 87.1264 109.133 63.7758 138.058 57.6115C166.118 51.6341 196.521 61.8422 214.021 84.6218C228.862 103.94 234.054 130.268 226.632 153.517C212.454 197.909 160.32 216.83 122.66 198.008C107.692 190.526 97.4422 177.562 90.2336 162.663C89.8171 161.797 88.516 162.615 88.903 163.513Z" fill="#E04747"/><path d="M130.872 119.002C131.762 118.069 132.907 117.423 134.162 117.149C135.417 116.874 136.725 116.982 137.919 117.459C139.113 117.936 140.139 118.76 140.866 119.827C141.592 120.894 141.987 122.154 142 123.448C141.838 124.959 141.132 126.358 140.015 127.381C138.899 128.404 137.449 128.979 135.94 128.998C134.288 129.037 132.677 128.474 131.403 127.414C130.128 126.354 129.275 124.867 129 123.226C129.051 121.625 129.723 120.109 130.872 119.002Z" fill="#E04747"/><path d="M204.926 156.258C205.301 156.495 205.583 156.847 205.726 157.256C205.869 157.665 205.865 158.109 205.715 158.516C203.595 165.936 192.88 163.676 186.74 163.676C164.861 163.676 142.427 164.013 120.545 163.139C117.53 163.02 114.739 163.032 113.179 160.022C111.84 157.439 112.479 153.57 112.389 150.881C112.04 139.378 111.755 127.868 111.6 116.363C111.545 111.954 109.348 103.439 113.721 100.233C117.722 97.3061 126.782 98.8367 131.47 98.7278C176.517 97.6812 173.471 98.4997 185.164 97.8661C190.636 97.5696 198.523 95.5499 203.471 98.9432C207.128 101.452 205.76 107.866 205.702 111.523C205.484 126.36 205.823 141.309 204.926 156.258ZM202.032 103.89C199.87 100.04 190.313 101.561 186.069 101.629C172.127 101.86 158.05 102.002 144.097 102.39C137.057 102.157 130.009 102.373 122.999 103.036C118.311 103.783 115.838 105.509 115.967 110.349C116.064 114.004 116.443 132.822 116.638 138.732C116.767 142.711 114.949 156.824 119.532 158.947C121.636 159.928 127.234 158.947 129.578 158.947C136.355 158.947 149.835 159.272 175.905 159.272C179.364 159.272 200.351 161.421 201.467 157.335C201.592 156.87 201.869 156.456 202.256 156.152C201.604 137.86 202.451 104.64 202.032 103.89Z" fill="#111111"/><path d="M159 147.821C159.057 134.291 160.225 120.227 161.631 106.807C161.644 106.589 161.746 106.384 161.916 106.234C162.087 106.084 162.313 106 162.547 106C162.782 106 163.008 106.084 163.178 106.234C163.349 106.384 163.451 106.589 163.463 106.807C164.574 120.605 163.959 134.477 161.631 148.143C161.399 149.526 158.995 149.102 159 147.821Z" fill="#111111"/><path d="M192.92 117.571C187.137 118.049 181.364 117.998 175.586 117.998C175.165 117.998 174.762 117.841 174.465 117.561C174.167 117.28 174 116.9 174 116.504C174 116.107 174.167 115.727 174.465 115.447C174.762 115.166 175.165 115.009 175.586 115.009C181.364 115.009 187.254 114.901 192.92 115.434C193.211 115.448 193.486 115.566 193.687 115.765C193.888 115.964 194 116.228 194 116.502C194 116.777 193.888 117.041 193.687 117.24C193.486 117.439 193.211 117.557 192.92 117.571Z" fill="#111111"/><path d="M183.082 128.057C186.465 127.973 189.849 128.146 193.2 128.574C194.564 128.783 194.004 130.412 192.86 130.531C189.329 130.898 185.812 130.788 182.286 130.839C179.146 131.083 175.986 131.049 172.853 130.737C171.602 130.529 171.835 128.907 172.853 128.676C176.222 128.096 179.657 127.888 183.082 128.057Z" fill="#111111"/><path d="M178.018 142.558C182.956 141.935 187.959 141.833 192.924 142.255C193.214 142.268 193.487 142.38 193.688 142.569C193.888 142.757 194 143.008 194 143.268C194 143.528 193.888 143.779 193.688 143.967C193.487 144.156 193.214 144.268 192.924 144.28C188.066 144.23 183.217 144.643 178.468 144.996C176.778 145.11 176.44 142.783 178.018 142.558Z" fill="#111111"/><path d="M117.252 112.159C117.25 111.917 117.298 111.677 117.393 111.453C117.489 111.229 117.629 111.025 117.807 110.854C117.984 110.683 118.195 110.547 118.428 110.455C118.66 110.363 118.909 110.317 119.16 110.318C129.469 111.196 139.802 109.594 150.116 110.102C150.5 110.139 150.867 110.278 151.175 110.503C151.482 110.729 151.719 111.032 151.859 111.38C151.998 111.728 152.035 112.106 151.966 112.472C151.896 112.839 151.722 113.18 151.464 113.457C152.257 122.111 151.63 130.985 151.575 139.642C151.559 142.237 152.957 148.566 150.454 150.461C147.689 152.564 138.559 151.455 135.424 151.542C130.058 152.114 124.645 152.15 119.271 151.651C118.953 151.559 118.664 151.392 118.429 151.165C118.195 150.939 118.022 150.66 117.926 150.354C116.139 137.91 117.542 124.61 117.252 112.159ZM122.189 147.857C125.89 146.99 130.825 147.748 134.639 147.64C138.62 147.174 142.634 147.029 146.64 147.207C147.091 147.274 147.552 147.238 147.985 147.1C148.169 145.737 148.244 144.362 148.21 142.987C148.659 133.249 147.874 123.404 148.659 113.664C139.461 113.447 130.376 114.429 121.169 113.988C121.991 132.237 120.952 149.066 122.197 147.865L122.189 147.857Z" fill="#111111"/><path d="M123.039 140.67C124.479 138.049 126.729 135.918 129.481 134.571C132.234 133.223 135.354 132.725 138.413 133.145C142.145 133.784 146.421 137.438 148.972 140.808C149.052 142.604 148.96 144.403 148.696 146.183C148.269 146.319 147.814 146.355 147.369 146.288C143.42 146.113 139.463 146.255 135.539 146.713C132.412 146.8 125.332 146.071 123.154 147C123.144 146.588 122.909 140.908 123.039 140.67Z" fill="#E04747"/><path d="M80.9514 215.726C80.6557 221.78 80.4088 227.832 80.3068 233.924C80.1235 244.899 77.9638 260.541 88.3781 264.614C91.5534 265.855 95.119 265.641 98.4672 265.679C132.711 266.1 135.619 266.241 141.272 265.252C142.475 265.042 142.045 263.382 141.014 263.291C136.692 262.916 100.013 262.632 96.0636 262.568C90.1387 262.469 85.4955 260.779 83.9995 254.555C82.5331 248.46 83.3313 241.255 83.1835 234.947C83.0357 228.51 82.7149 222.119 82.3675 215.681C82.3614 215.494 82.281 215.318 82.1439 215.19C82.0068 215.063 81.8243 214.994 81.6365 215C81.4487 215.006 81.271 215.086 81.1425 215.222C81.014 215.358 80.9453 215.54 80.9514 215.726Z" fill="#E04747"/><path d="M223.735 231.62C223.669 235.175 223.436 238.725 223.257 242.236C223.082 245.83 223.515 250.482 221.612 253.699C219.48 257.291 214.794 256.782 211.146 256.913C207.681 256.849 204.216 256.99 200.768 257.335C199.722 257.497 199.766 259.166 200.768 259.365C205.18 260.006 209.651 260.162 214.099 259.831C217.574 259.738 221.099 259.288 223.436 256.531C225.828 253.705 225.997 249.85 225.997 246.381C226.033 241.446 225.729 236.515 225.085 231.62C224.977 230.813 223.757 230.774 223.735 231.62Z" fill="#E04747"/><path d="M83.1957 89.3652C85.17 69.0552 82.8314 48.4695 83.545 28.1082C83.7144 23.2519 84.5944 18.6507 90.2055 17.5477C96.4747 16.3112 103.054 16.7205 109.362 15.6732C110.365 15.506 110.103 14.0187 109.145 14.0114C103.018 13.9312 96.8932 14.2743 90.8156 15.0381C86.9854 15.5559 83.7294 17.1722 82.2813 20.8317C80.5963 25.0955 81.055 30.3729 81.0625 34.889C81.085 48.2657 82.0204 84.5587 81.89 89.33C81.7626 90.2174 83.1118 90.2174 83.1957 89.3652Z" fill="#E04747"/><path d="M275.845 49.3493C273.712 45.8758 269.798 43.2983 265.607 44.0838C260.677 45.0078 256.52 49.8577 253.484 53.5861C249.714 58.2101 246.864 63.5125 245.089 69.2072V24.0962C245.083 17.7063 242.539 11.58 238.016 7.06234C233.493 2.54465 227.361 0.00468127 220.966 0H91.0426C84.6495 0.00780193 78.5205 2.54915 74.0003 7.0665C69.4801 11.5839 66.9379 17.7083 66.9312 24.0962V64.5857C60.6105 61.9667 54.1296 59.7517 47.5277 57.9541C29.5209 52.4764 18.4534 48.9867 10.1321 53.1617C6.28118 55.0937 2.46272 58.9827 2.03648 63.4775C1.35508 70.5821 10.3843 77.0531 15.4018 80.64C29.2495 90.5432 51.3358 99.4899 66.8885 104.266V111.456C54.6809 114.846 41.4645 120.816 34.4204 131.793C28.8764 140.427 29.1934 152.425 39.9881 156.404C35.2331 158.025 31.2509 162.138 28.3365 165.947C24.8662 170.485 21.9946 176.005 21.6996 181.783C21.3117 189.404 25.6567 197.008 34.2066 200.616C29.4103 205.452 22.9783 209.086 19.5153 214.91C14.452 223.424 20.7129 232.375 27.5681 237.552C34.9425 243.118 46.3729 251.163 56.2251 247.695C65.3487 244.486 66.5374 234.223 60.6792 227.359C57.0382 223.428 52.5985 220.319 47.6575 218.242C42.9895 216.101 37.674 214.384 32.6225 216.06C32.3034 216.159 32.0354 216.379 31.8753 216.673C31.7152 216.966 31.6755 217.31 31.7645 217.632C31.8535 217.954 32.0643 218.229 32.3524 218.399C32.6404 218.568 32.9832 218.62 33.3084 218.541C38.6799 217.197 44.2225 219.324 48.8566 221.924C53.3048 224.417 58.2043 227.524 60.5937 232.239C61.2262 233.455 61.5743 234.799 61.6118 236.168C61.6494 237.538 61.3753 238.899 60.8103 240.147C60.2453 241.396 59.404 242.5 58.35 243.376C57.2959 244.253 56.0565 244.879 54.7251 245.208C49.1206 246.848 42.8125 243.848 37.9764 241.229C29.8719 236.836 15.2632 227.314 21.6568 216.191C23.6243 212.765 27.2274 210.159 30.0518 207.459C32.1829 205.554 34.1996 203.525 36.0915 201.382C42.6045 203.663 59.8518 206.155 66.9327 206.945V255.91C66.9409 262.296 69.4837 268.419 74.0034 272.935C78.5231 277.451 84.6508 279.992 91.0426 280H220.96C227.354 279.994 233.485 277.453 238.006 272.936C242.528 268.418 245.071 262.293 245.078 255.904V81.7895C245.764 73.1847 248.655 64.9012 253.473 57.736C256.22 53.8027 260.325 48.5299 264.996 46.8219C272.274 44.1693 276.047 52.8139 276.047 58.5495C276.047 65.2297 274.912 69.3531 270.95 94.6297C267.115 119.105 264.388 144.493 272.363 167.99C272.402 168.126 272.494 168.242 272.618 168.311C272.743 168.38 272.89 168.397 273.027 168.358C273.164 168.319 273.279 168.227 273.348 168.103C273.418 167.978 273.434 167.832 273.395 167.695C266.132 140.205 269.885 112.489 274.381 84.9196C278.057 62.3943 279.575 55.4385 275.845 49.3493ZM25.0815 83.8025C18.4858 80.0358 11.6394 75.6648 6.96258 69.5933C5.62682 68.1647 4.77311 66.3535 4.52165 64.4147C4.44791 61.6752 6.4095 59.1095 8.37551 57.3956C13.2692 53.1219 20.0271 53.4166 26.0239 54.656C41.9069 57.9379 64.4741 66.0844 66.9312 66.0844V101.389C52.3804 97.0717 38.3468 91.1742 25.0815 83.8025ZM34.2921 147.276C32.7612 142.863 34.3128 137.844 36.6047 133.965C43.0146 123.103 55.5805 118.3 66.8885 114.071V123.744C61.0634 122.487 55.0416 122.443 49.1987 123.614C48.4274 123.788 48.5985 125.072 49.3698 124.985C56.7331 124.272 64.1648 124.984 71.2585 127.082C77.2126 128.703 83.3776 130.424 88.6061 133.759C93.4437 136.843 98.1249 141.933 98.3299 147.968C98.5099 153.273 93.7018 155.667 89.1636 156.663C75.7097 159.599 60.6025 158.243 47.3138 155.292C42.224 154.147 36.2345 152.877 34.2921 147.276ZM25.1243 186.181C22.4695 174.366 33.3629 162.558 43.2446 157.886C43.3975 157.825 43.5307 157.723 43.6296 157.591C50.5823 159.374 57.7033 160.421 64.8752 160.716C65.5183 160.754 66.2026 160.801 66.8885 160.801V172.913C54.7708 166.859 47.4584 166.155 37.118 168.847C36.1328 169.104 36.5605 170.595 37.5472 170.389C43.0647 169.233 48.3861 168.62 53.9095 170.216C59.8846 171.871 65.544 174.504 70.6582 178.006C75.2304 181.229 79.8556 185.417 82.4809 190.419C84.1033 193.505 85.5944 197.692 84.708 201.205C83.4027 206.378 76.6979 204.758 72.7998 204.457C66.1628 203.945 59.5627 203.015 53.0098 201.932C42.519 200.197 27.9575 198.8 25.1243 186.182V186.181ZM242.641 255.902C242.628 261.631 240.344 267.121 236.291 271.171C232.237 275.221 226.742 277.503 221.009 277.515H91.0426C85.3073 277.51 79.8085 275.231 75.7529 271.179C71.6974 267.127 69.4164 261.633 69.4105 255.902V207.2C75.1198 207.77 82.2891 209.478 85.9439 205.359C88.6828 202.273 88.0943 197.401 87.0161 193.76C84.559 185.487 76.8468 178.574 69.4105 174.287V160.926C76.0122 161.166 82.6201 160.678 89.1149 159.472C93.482 158.604 98.3757 156.651 100.252 152.28C102.491 147.063 99.5571 140.775 96.097 136.83C91.1207 131.158 84.1106 128.464 77.0843 126.346C74.5549 125.583 71.9856 124.892 69.4149 124.292V24.0962C69.4208 18.3664 71.7012 12.8729 75.7558 8.82098C79.8104 4.7691 85.3081 2.48979 91.0426 2.48316H220.96C226.693 2.496 232.188 4.77716 236.242 8.82757C240.296 12.878 242.579 18.3679 242.592 24.0962C242.598 262.192 242.494 255.904 242.641 255.904V255.902Z" fill="#111111"/><path d="M160.985 241.587C152.244 238.841 143.424 246.181 146.699 254.261C149.568 261.342 160.161 261.475 165.245 256.822C170.617 251.906 167.565 243.652 160.985 241.587Z" fill="#111111"/><path d="M138.404 13.8313C142.366 15.6368 147.183 15.7387 151.444 15.927C156.479 16.1228 161.521 15.9246 166.53 15.334C168.492 15.1144 168.489 11.8109 166.53 12.0085C161.913 12.4917 157.276 12.72 152.637 12.6924C148.076 12.647 143.262 11.6446 138.787 12.2815C138.147 12.4179 137.595 13.4626 138.404 13.8313Z" fill="#111111"/><path d="M190.506 16.9999C190.834 17.0026 191.159 16.94 191.463 16.8157C191.767 16.6914 192.043 16.508 192.275 16.276C192.507 16.044 192.691 15.7681 192.815 15.4645C192.94 15.1608 193.002 14.8354 193 14.5072C193.001 14.0122 192.856 13.5279 192.582 13.1157C192.308 12.7035 191.917 12.382 191.46 12.1918C191.003 12.0017 190.5 11.9515 190.015 12.0476C189.529 12.1437 189.083 12.3818 188.733 12.7317C188.383 13.0816 188.144 13.5276 188.048 14.0131C187.951 14.4987 188.001 15.0019 188.191 15.459C188.381 15.9161 188.703 16.3066 189.115 16.5809C189.527 16.8552 190.011 17.0011 190.506 16.9999Z" fill="#111111"/><path d="M203.494 17C206.835 17 206.835 11.9798 203.494 12.0001C202.821 12.031 202.188 12.3079 201.723 12.7733C201.259 13.2387 201 13.8571 201 14.5C201 15.143 201.259 15.7613 201.723 16.2268C202.188 16.6922 202.821 16.9691 203.494 17Z" fill="#111111"/></svg>