<svg viewBox="0 0 280 280" fill="none" xmlns="http://www.w3.org/2000/svg"><path d="M61.3966 53.2248C60.1996 52.4492 60.2654 54.3532 60.481 54.986C60.901 56.246 62.2338 60.082 63.3706 60.7638C63.556 60.8809 63.776 60.9308 63.9938 60.9053C64.2116 60.8799 64.4141 60.7805 64.5676 60.6238C64.9946 59.9826 61.8418 53.4474 61.3966 53.2248Z" fill="#E04747"/><path d="M68.8683 74.0799C67.8883 72.0373 67.1505 69.9037 66.1915 67.8793C65.9213 67.3109 65.1387 67.7393 65.2745 68.2993C65.7141 70.1277 66.2293 71.9029 66.7543 73.7257C67.0203 74.6455 67.6909 79.1857 69.4325 78.1637C70.7961 77.3671 69.0475 74.6203 68.8683 74.0799Z" fill="#E04747"/><path d="M71.1199 83.7349C70.8287 83.1035 69.9915 83.5949 70.0629 84.1549C70.2421 85.1447 72.0229 92.8349 72.3883 93.4565C72.5051 93.6297 72.6731 93.7621 72.8688 93.8351C73.0645 93.9082 73.2781 93.9183 73.4799 93.864C73.6816 93.8097 73.8613 93.6938 73.9939 93.5324C74.1265 93.3709 74.2054 93.1721 74.2195 92.9637C74.2223 91.3089 72.0663 85.7845 71.1199 83.7349Z" fill="#E04747"/><path d="M79.6505 108.254C79.3817 106.898 76.1169 99.4468 76.0567 99.3054C75.9879 99.1961 75.8824 99.1149 75.7592 99.0763C75.636 99.0377 75.503 99.0443 75.3842 99.0949C75.2654 99.1454 75.1685 99.2367 75.1108 99.3522C75.0532 99.4678 75.0386 99.6001 75.0697 99.7254C75.3343 100.693 77.5379 107.95 78.0993 108.886C78.5221 109.945 79.8465 109.244 79.6505 108.254Z" fill="#E04747"/><path d="M91.6276 118.472C90.9878 118.669 83.7358 121.148 83.8058 121.501C82.9405 119.036 81.9048 116.635 80.7062 114.314C80.4262 113.754 79.435 114.174 79.6492 114.734C83.4768 124.846 79.1928 124.182 92.0504 120.3C92.1663 120.268 92.2748 120.214 92.3695 120.14C92.4642 120.065 92.5433 119.973 92.6022 119.869C92.661 119.764 92.6985 119.648 92.7124 119.529C92.7263 119.409 92.7164 119.288 92.6832 119.173C92.6719 119.052 92.6336 118.935 92.5713 118.831C92.5089 118.726 92.4241 118.637 92.3229 118.57C92.2217 118.503 92.1067 118.459 91.9864 118.442C91.8661 118.425 91.7435 118.435 91.6276 118.472Z" fill="#E04747"/><path d="M105.791 114.173C104.312 114.095 102.688 115.363 101.352 115.865C99.8693 116.425 98.3811 116.961 96.9125 117.556C96.4155 117.756 96.4211 118.618 97.0525 118.536C99.9757 118.179 104.251 117.153 106.071 115.788C106.707 115.442 106.99 114.241 105.791 114.173Z" fill="#E04747"/><path d="M120.658 108.747C119.76 108.508 120.7 108.279 110.371 112.835C109.736 113.115 110.231 114.043 110.791 113.891C114.146 112.942 117.44 111.789 120.655 110.438C121.242 110.148 121.522 108.978 120.658 108.747Z" fill="#E04747"/><path d="M135.173 104.449C132.143 105.647 128.909 106.444 125.872 107.478C125.452 107.618 125.52 108.318 126.012 108.254C130.798 107.924 136.804 105.989 137.352 105.436C137.445 105.349 137.515 105.24 137.556 105.12C137.597 104.999 137.607 104.871 137.586 104.745C137.565 104.62 137.514 104.501 137.436 104.4C137.358 104.3 137.257 104.22 137.141 104.167C136.416 103.802 135.941 104.193 135.173 104.449Z" fill="#E04747"/><path d="M139.185 94.5841C139.078 94.4163 138.915 94.2916 138.725 94.2315C138.535 94.1715 138.33 94.1799 138.146 94.2553C137.962 94.3307 137.81 94.4684 137.716 94.6443C137.623 94.8203 137.594 95.0234 137.635 95.2183C138.043 96.6449 141.002 103.034 141.722 103.603C142.002 103.821 142.638 104.163 142.638 103.533C141.796 100.44 140.639 97.441 139.185 94.5841Z" fill="#E04747"/><path d="M134.258 83.4515C134.949 85.2967 135.192 87.2749 135.949 88.0323C135.99 88.0736 136.041 88.1035 136.097 88.1191C136.153 88.1347 136.212 88.1355 136.269 88.1214C136.325 88.1073 136.377 88.0787 136.419 88.0386C136.461 87.9984 136.492 87.948 136.509 87.8923C136.897 86.8115 136.099 84.4875 135.029 80.4233C134.818 79.7891 134.609 78.5165 133.621 78.8021C132.247 79.1997 133.75 81.6917 134.258 83.4515Z" fill="#E04747"/><path d="M129.885 65.6254C129.816 65.4133 129.667 65.2364 129.47 65.1319C129.273 65.0275 129.043 65.0036 128.828 65.0654C125.587 65.8984 136.629 84.6738 129.885 65.6254Z" fill="#E04747"/><path d="M127.07 59.7799C126.263 56.4617 125.275 53.1901 124.111 49.9799C124.003 49.8071 123.839 49.6772 123.646 49.6127C123.453 49.5483 123.243 49.5534 123.054 49.6271C122.87 49.7075 122.721 49.8494 122.631 50.0283C122.541 50.2072 122.516 50.412 122.561 50.6071C123.463 53.872 124.642 57.054 126.085 60.1187C126.147 60.2242 126.244 60.3049 126.359 60.3472C126.474 60.3896 126.6 60.391 126.716 60.3511C126.831 60.3113 126.93 60.2327 126.995 60.1287C127.059 60.0246 127.086 59.9014 127.07 59.7799Z" fill="#E04747"/><path d="M118.119 34.764C118.008 34.6507 117.862 34.5779 117.704 34.557C117.546 34.5361 117.386 34.5683 117.249 34.6486C117.111 34.7289 117.005 34.8527 116.946 35.0003C116.887 35.148 116.878 35.3111 116.922 35.464C116.953 35.604 120.793 44.41 121.079 44.5528C122.724 45.3802 119.727 36.5644 118.119 34.764Z" fill="#E04747"/><path d="M64.5709 51.7447C66.2117 51.7097 74.6075 48.8565 75.4909 47.7995C75.9109 47.3011 75.5665 46.3337 74.7909 46.6011C72.6797 47.3235 65.7693 50.0073 64.2909 51.2519C64.0781 51.3919 64.2895 51.7503 64.5709 51.7447Z" fill="#E04747"/><path d="M80.361 46.4595C82.1446 46.6219 90.2436 43.8555 90.6482 43.2185C90.74 43.0686 90.7692 42.8887 90.7297 42.7175C90.6902 42.5463 90.585 42.3974 90.4368 42.3029C89.4568 41.8157 88.8492 42.3911 87.6886 42.5829C83.6076 43.8723 81.1506 44.6115 80.0796 45.6839C80.0151 45.7438 79.9697 45.8214 79.9491 45.9069C79.9284 45.9925 79.9334 46.0822 79.9634 46.1649C79.9934 46.2477 80.0471 46.3197 80.1178 46.3721C80.1885 46.4245 80.2731 46.4549 80.361 46.4595Z" fill="#E04747"/><path d="M94.6576 41.8097C98.533 40.8582 102.308 39.5366 105.93 37.8631C106.102 37.764 106.232 37.6053 106.295 37.4169C106.358 37.2286 106.349 37.0238 106.271 36.8414C106.193 36.6589 106.05 36.5115 105.871 36.4271C105.691 36.3427 105.487 36.3271 105.296 36.3833C102.776 37.1925 95.4444 40.5525 94.3048 41.0341C93.812 41.1755 94.1634 41.9497 94.6576 41.8097Z" fill="#E04747"/><path d="M111.495 35.7495C113.629 35.3313 115.726 34.7423 117.767 33.9883C117.873 33.9563 117.972 33.9035 118.058 33.8329C118.144 33.7623 118.216 33.6753 118.268 33.5769C118.32 33.4786 118.352 33.3708 118.362 33.26C118.372 33.1492 118.36 33.0374 118.327 32.9313C118.298 32.8227 118.247 32.7213 118.177 32.6333C118.107 32.5454 118.02 32.4728 117.92 32.4202C117.821 32.3677 117.712 32.3362 117.6 32.3277C117.488 32.3193 117.376 32.3341 117.27 32.3713C113.21 33.9967 111.786 34.0919 111.14 34.9795C111.086 35.1286 111.092 35.2933 111.158 35.4376C111.225 35.5819 111.346 35.6941 111.495 35.7495Z" fill="#E04747"/><path d="M101.138 69.0079C102.327 71.1261 100.529 73.5341 99.3773 75.2085C97.8583 77.4149 96.5773 80.1323 97.4747 82.8175C98.2699 85.2073 101.631 89.3009 104.239 86.6927C104.766 86.1572 105.061 85.4362 105.061 84.6851C105.061 83.934 104.766 83.2129 104.239 82.6775C103.469 81.9663 102.607 81.1935 102.971 80.0693C103.656 77.9497 105.443 76.2683 106.282 74.2215C107.289 72.0522 107.415 69.5772 106.635 67.3167C104.916 62.8605 99.6615 60.8501 95.1549 61.5389C93.4367 61.8323 91.8174 62.5452 90.4408 63.6144C89.0642 64.6836 87.9726 66.076 87.2631 67.6681C86.6072 69.5791 86.7007 71.6678 87.5246 73.5126C88.3486 75.3574 89.8416 76.821 91.7025 77.6081C91.9018 77.6467 92.108 77.6291 92.298 77.5574C92.4879 77.4857 92.6543 77.3626 92.7784 77.2019C92.9025 77.0412 92.9796 76.8492 93.001 76.6472C93.0223 76.4453 92.9872 76.2414 92.8995 76.0583C92.2079 74.4315 91.2363 72.5401 91.5611 70.7033C92.2751 66.6405 99.1015 65.3805 101.138 69.0079Z" fill="#E04747"/><path d="M112.842 94.373C113.269 93.622 113.469 92.7636 113.42 91.9012C113.37 91.0388 113.072 90.2092 112.562 89.5122C109.762 85.7616 104.2 88.941 105.516 93.246C105.749 93.9807 106.182 94.6357 106.768 95.137C107.353 95.6384 108.067 95.9661 108.829 96.0833C109.591 96.2005 110.37 96.1025 111.079 95.8003C111.788 95.4981 112.399 95.0037 112.842 94.373Z" fill="#E04747"/><path d="M152.012 197.388C172.914 191.959 181.239 191.333 185.052 190.059C185.284 189.982 185.482 189.826 185.611 189.618C185.741 189.41 185.793 189.164 185.76 188.921C185.727 188.679 185.61 188.456 185.429 188.29C185.249 188.125 185.016 188.028 184.772 188.016C182.161 188.049 165.102 191.336 151.936 196.754C151.445 196.958 151.589 197.528 152.012 197.388Z" fill="#E04747"/><path d="M165.049 187.452C184.9 180.918 191.475 180.687 199.644 178.645C199.824 178.589 199.979 178.472 200.08 178.314C200.181 178.155 200.223 177.966 200.198 177.78C200.172 177.593 200.081 177.422 199.941 177.297C199.801 177.171 199.621 177.1 199.433 177.095C189.213 177.946 173.505 182.73 164.838 186.466C164.201 186.741 164.413 187.662 165.049 187.452Z" fill="#E04747"/><path d="M176.743 177.024C176.883 177.001 210.847 168.872 210.987 168.78C211.119 168.694 211.224 168.573 211.289 168.43C211.354 168.287 211.377 168.128 211.355 167.972C211.333 167.817 211.266 167.671 211.164 167.551C211.061 167.432 210.926 167.345 210.776 167.3C209.329 167.146 207.867 167.289 206.478 167.72C198.804 169.091 182.142 173.18 176.32 176.176C175.969 176.46 176.322 177.1 176.743 177.024Z" fill="#E04747"/><path d="M61.3285 173.924C84.0911 180.152 95.4339 193.611 98.3207 195.132C98.4483 195.209 98.5977 195.24 98.7452 195.222C98.8927 195.203 99.0298 195.136 99.1349 195.031C99.24 194.926 99.3071 194.789 99.3254 194.641C99.3438 194.494 99.3124 194.344 99.2363 194.217C96.8661 189.737 80.2495 176.848 61.6099 172.797C60.8357 172.514 60.5529 173.712 61.3285 173.924Z" fill="#E04747"/><path d="M77.3237 166.601C95.8807 172.398 105.58 183.755 107.621 184.568C107.748 184.601 107.881 184.6 108.007 184.565C108.134 184.531 108.249 184.464 108.341 184.371C108.434 184.279 108.501 184.164 108.535 184.037C108.57 183.911 108.571 183.778 108.538 183.651C107.691 181.526 96.1271 170.544 77.6051 165.474C77.4602 165.449 77.3113 165.479 77.1881 165.56C77.065 165.64 76.9768 165.764 76.9412 165.906C76.9056 166.049 76.9252 166.2 76.9961 166.329C77.0671 166.457 77.1841 166.554 77.3237 166.601Z" fill="#E04747"/><path d="M95.9254 160.324C107.45 164.615 117.432 175.444 119.671 175.968C119.807 176.005 119.95 176.005 120.086 175.969C120.222 175.933 120.346 175.861 120.445 175.762C120.545 175.662 120.616 175.538 120.652 175.402C120.688 175.266 120.688 175.123 120.651 174.987C120.287 174.076 109.525 163.383 96.3426 159.064C96.2572 159.025 96.1645 159.004 96.0705 159.003C95.9766 159.002 95.8834 159.021 95.7972 159.058C95.711 159.095 95.6337 159.151 95.5703 159.22C95.5069 159.289 95.4589 159.371 95.4294 159.461C95.3998 159.55 95.3894 159.644 95.3989 159.738C95.4084 159.831 95.4375 159.922 95.4843 160.003C95.5311 160.085 95.5946 160.155 95.6706 160.211C95.7466 160.266 95.8334 160.304 95.9254 160.324Z" fill="#E04747"/><path d="M107.904 154.477C120.208 160.088 124.765 168.477 129.604 173.22C130.102 173.707 131.072 173.22 130.802 172.52C129.047 167.921 121.058 158.8 108.325 153.425C107.762 153.068 107.272 154.188 107.904 154.477Z" fill="#E04747"/><path d="M125.661 196.613C126.056 192.136 126.08 187.635 125.731 183.154C125.658 182.662 123.97 186.818 123.97 187.735C124.04 188.715 124.81 194.64 124.885 196.613C124.885 196.715 124.926 196.814 124.999 196.887C125.072 196.96 125.17 197 125.273 197C125.376 197 125.475 196.96 125.547 196.887C125.62 196.814 125.661 196.715 125.661 196.613Z" fill="#E04747"/><path d="M138.908 187.946C139.297 184.859 139.32 181.737 138.978 178.645C138.974 178.521 138.944 178.4 138.891 178.288C138.838 178.177 138.762 178.078 138.668 177.997C138.574 177.917 138.465 177.857 138.347 177.821C138.229 177.785 138.104 177.774 137.982 177.788C137.859 177.803 137.741 177.843 137.634 177.906C137.528 177.969 137.436 178.053 137.364 178.154C137.292 178.254 137.242 178.369 137.216 178.489C137.191 178.61 137.191 178.735 137.216 178.856C137.657 181.842 137.869 184.857 137.851 187.875C137.841 188.015 137.888 188.153 137.98 188.259C138.073 188.365 138.203 188.43 138.343 188.439C138.484 188.449 138.622 188.402 138.728 188.31C138.833 188.217 138.898 188.087 138.908 187.946Z" fill="#E04747"/><path d="M149.054 171.035C149.054 179.34 148.484 180.062 149.334 180.835C149.475 180.973 149.665 181.051 149.863 181.051C150.06 181.051 150.25 180.973 150.391 180.835C151.469 179.927 150.064 171.035 150.04 170.895C149.9 170.401 148.984 170.541 149.054 171.035Z" fill="#E04747"/><path d="M159.976 175.122C159.772 172.116 159.372 169.127 158.777 166.173C158.702 165.68 156.863 164.695 156.946 165.193C157.4 168.585 158.035 171.949 158.849 175.273C158.889 175.403 158.974 175.514 159.089 175.588C159.204 175.661 159.341 175.691 159.476 175.673C159.611 175.655 159.735 175.589 159.826 175.489C159.918 175.388 159.971 175.258 159.976 175.122Z" fill="#E04747"/><path d="M210.701 75.6319C211.579 75.7592 212.476 75.6629 213.308 75.3519C216.283 74.6502 219.346 74.3893 222.398 74.5777C224.372 74.7751 225.034 76.5377 225.569 78.1701C226.549 81.1507 226.237 82.2763 226.837 83.9479C226.987 84.3679 227.677 84.5793 227.893 84.0879C228.78 82.1013 228.083 79.3041 227.4 77.3245C225.916 73.0237 224.1 72.3965 220.142 72.6023C217.78 72.6898 215.437 73.0688 213.168 73.7307C212.124 73.8936 211.161 74.3873 210.419 75.1391C210.391 75.2418 210.405 75.3513 210.458 75.4437C210.511 75.5361 210.598 75.6038 210.701 75.6319Z" fill="#111111"/><path d="M222.119 79.8575C222.399 80.4175 222.331 81.0559 222.613 81.6201C222.753 81.9715 223.248 81.9001 223.453 81.7601C224.433 80.9201 223.794 79.3801 223.173 78.5191C221.346 76.0089 218.115 75.9795 215 76.0537C213.519 76.0887 211.971 75.9137 210.491 76.0537C210.402 76.0555 210.315 76.0842 210.243 76.1361C210.17 76.1881 210.115 76.2608 210.085 76.3446C210.055 76.4284 210.05 76.5195 210.073 76.6058C210.095 76.6921 210.143 76.7695 210.211 76.8279C212.83 78.9671 219.834 75.8591 222.119 79.8575Z" fill="#111111"/><path d="M225.926 88.7362C224.058 87.464 221.772 86.9592 219.542 87.3265C217.312 87.6937 215.309 88.9048 213.948 90.7088C213.896 90.8027 213.879 90.9117 213.9 91.0168C213.921 91.1218 213.979 91.2161 214.062 91.283C214.146 91.3499 214.251 91.3851 214.358 91.3825C214.465 91.3799 214.567 91.3397 214.648 91.2688C221.679 85.2782 226.797 92.2208 227.612 92.5372C228.958 93.0608 228.909 90.72 225.926 88.7362Z" fill="#111111"/><path d="M225.361 83.9451C223.268 83.2019 221.015 83.0323 218.834 83.4537C216.654 83.8752 214.625 84.8724 212.96 86.3419C212.54 86.6989 213.1 87.4619 213.594 87.1161C215.758 85.6673 218.319 84.9284 220.922 85.0021C225.114 85.0609 226.892 86.9005 228.18 87.1875C228.298 87.2151 228.422 87.2078 228.537 87.1666C228.651 87.1253 228.752 87.0519 228.826 86.9551C228.9 86.8583 228.944 86.7422 228.954 86.6207C228.963 86.4993 228.937 86.3777 228.88 86.2705C228.003 85.1204 226.763 84.3008 225.361 83.9451Z" fill="#111111"/><path d="M183.79 99.305C187.209 99.0502 188.203 96.4154 187.314 95.4298C185.977 93.9486 182.181 95.4396 181.113 96.6282C179.874 98.0002 181.68 99.4632 183.79 99.305Z" fill="#111111"/><path d="M256.435 134.261C257.985 132.71 259.323 131.371 259.323 130.386C259.323 128.384 248.461 113.338 234.732 108.19C232.81 103.518 233.29 98.2849 233.675 93.1819C233.747 92.7619 232.975 92.6891 232.901 93.1105C230.241 108.401 233.208 110.58 240.722 119.251C261.755 143.527 268.545 149.927 270.456 159.486C271.078 162.391 271.026 165.4 270.306 168.282C269.585 171.164 268.215 173.843 266.3 176.114C265.88 176.608 266.44 177.389 267 177.031C271.62 174.06 273.123 168.223 272.989 162.938C272.667 149.987 260.151 139.407 256.435 134.261Z" fill="#111111"/><path d="M178.009 89.3708C177.485 86.3597 176.659 83.409 175.544 80.5634C175.404 80.2092 174.844 80.2106 174.844 80.6334C175.05 83.4992 175.45 86.3477 176.042 89.1594C176.066 89.8631 176.286 90.5461 176.676 91.132C178.015 92.4704 180.687 89.8566 181.75 89.018C182.38 88.521 181.679 87.6096 181.05 87.7496C179.967 88.1483 178.944 88.6938 178.009 89.3708Z" fill="#111111"/><path d="M186.891 76.7584C185.764 74.5744 182.757 72.4184 180.409 74.2916C180.119 74.5366 179.882 74.8379 179.713 75.1772C179.543 75.5165 179.444 75.8868 179.422 76.2656C179.364 76.7598 180.197 76.8998 180.262 76.4056C180.542 75.1372 181.737 75.0056 182.799 75.3486C183.887 75.7964 184.819 76.5569 185.475 77.534C186.163 78.4006 187.414 77.632 186.891 76.7584Z" fill="#111111"/><path d="M173.996 79.8573C174.489 79.4373 173.716 78.3817 173.296 78.0961C172.823 77.6905 172.275 77.3827 171.682 77.1904C171.09 76.9982 170.465 76.9253 169.844 76.9761C169.462 77.1509 169.126 77.4123 168.863 77.7395C168.6 78.0666 168.417 78.4506 168.328 78.861C168.239 79.2713 168.247 79.6968 168.351 80.1035C168.455 80.5102 168.653 80.8871 168.928 81.2041C169.008 81.2787 169.105 81.3319 169.211 81.3585C169.317 81.3852 169.428 81.3845 169.534 81.3565C169.64 81.3285 169.737 81.2741 169.815 81.1985C169.894 81.1229 169.953 81.0285 169.985 80.9241C170.135 80.3641 169.352 78.0331 170.759 78.6701C171.535 79.0201 172.522 80.0085 173.438 80.0085C173.635 80.0204 173.831 79.9673 173.996 79.8573Z" fill="#111111"/><path d="M184.494 79.9293C182.883 78.0183 181.517 80.5005 182.239 82.1133C182.659 83.0345 184 83.8045 184.776 82.8133C185.073 82.3752 185.207 81.8471 185.155 81.3205C185.104 80.7939 184.87 80.3018 184.494 79.9293Z" fill="#111111"/><path d="M172.866 83.8743C171.215 81.9983 169.89 84.4455 170.612 86.0583C171.024 86.9795 172.373 87.7495 173.149 86.7583C173.442 86.319 173.574 85.7916 173.523 85.2658C173.471 84.74 173.239 84.2484 172.866 83.8743Z" fill="#111111"/><path d="M191.964 75.9824C192.013 76.0705 192.088 76.1414 192.179 76.1858C192.269 76.2301 192.371 76.2457 192.471 76.2304C192.57 76.2152 192.663 76.1699 192.736 76.1005C192.809 76.0312 192.859 75.9411 192.88 75.8424C193.361 73.0214 192.04 69.8518 190.766 67.3864C189.646 65.201 187.948 62.2372 185.199 62.0314C179.718 61.6198 177.926 70.6806 171.6 71.5514C171.525 71.5748 171.46 71.6213 171.414 71.6843C171.368 71.7473 171.343 71.8233 171.343 71.9014C171.343 71.9795 171.368 72.0556 171.414 72.1186C171.46 72.1815 171.525 72.2281 171.6 72.2514C172.767 72.3792 173.948 72.2215 175.04 71.7917C176.133 71.362 177.105 70.6732 177.872 69.7846C179.776 67.9548 181.12 65.2192 183.578 64.0068C186.405 62.6138 188.159 66.1208 189.216 68.2348C190.136 70.4202 191.2 74.4102 191.964 75.9824Z" fill="#111111"/><path d="M185.69 66.3292C184.701 66.8734 183.798 67.5624 183.013 68.3732C181.848 69.2969 180.465 69.9037 178.996 70.1344C178.893 70.1344 178.795 70.1752 178.722 70.2479C178.649 70.3207 178.608 70.4193 178.608 70.5222C178.608 70.625 178.649 70.7236 178.722 70.7964C178.795 70.8691 178.893 70.91 178.996 70.91C181.665 70.9674 183.417 70.5992 186.184 67.9504C186.464 67.6704 186.817 67.3162 186.744 66.8934C186.721 66.7813 186.674 66.6755 186.606 66.5837C186.538 66.4919 186.451 66.4163 186.35 66.3624C186.249 66.3084 186.138 66.2775 186.023 66.2717C185.909 66.266 185.795 66.2856 185.69 66.3292Z" fill="#111111"/><path d="M161.31 73.7985C162.807 68.6689 166.501 68.6899 168.849 67.6679C170.924 66.6319 168.702 64.7125 164.551 66.8937C162.031 68.2209 159.931 70.8529 160.464 73.7985C160.491 73.8897 160.547 73.9696 160.623 74.0265C160.7 74.0834 160.792 74.1141 160.887 74.1141C160.982 74.1141 161.075 74.0834 161.151 74.0265C161.227 73.9696 161.283 73.8897 161.31 73.7985Z" fill="#111111"/><path d="M172.798 69.0077C177.012 66.2973 178.596 60.5405 182.098 58.6477C183.377 58.0162 184.806 57.7543 186.225 57.8913C187.645 58.0284 188.998 58.5589 190.132 59.4233C192.397 61.1229 196.163 67.1905 197.178 74.854C197.262 75.4868 197.178 76.6124 197.671 77.1794C198.091 77.6708 198.592 77.3194 198.791 76.8266C199.36 74.835 199.286 72.7146 198.579 70.7675C197.711 67.2409 195.292 61.2951 192.239 58.5077C187.705 54.3693 181.156 54.4869 177.301 60.7617C175.745 63.2943 174.764 66.5394 172.51 68.5834C172.453 68.6217 172.415 68.6807 172.402 68.7475C172.389 68.8144 172.404 68.8835 172.442 68.9398C172.48 68.996 172.539 69.0348 172.606 69.0475C172.673 69.0602 172.742 69.0459 172.798 69.0077Z" fill="#111111"/><path d="M163.848 64.7093C165.238 64.3234 166.603 63.8526 167.935 63.2995C169.512 62.9843 171.119 62.8434 172.727 62.8795C173.707 62.7997 174.349 61.4627 173.22 61.0469C171.463 60.4015 165.328 60.9069 163.42 64.0779C163.372 64.1456 163.346 64.2263 163.345 64.3093C163.344 64.3922 163.368 64.4735 163.415 64.5421C163.462 64.6108 163.528 64.6635 163.605 64.6934C163.683 64.7233 163.767 64.7288 163.848 64.7093Z" fill="#111111"/><path d="M191.61 53.9285C195.529 56.1987 198.504 59.799 199.995 64.0757C200.889 66.4722 201.55 68.9496 201.967 71.4733C202.973 77.0929 202.567 78.1709 203.589 79.1537C203.671 79.2344 203.771 79.2956 203.88 79.3329C203.989 79.3701 204.106 79.3825 204.22 79.3691C204.335 79.3557 204.445 79.3168 204.543 79.2553C204.641 79.1938 204.724 79.1113 204.786 79.0137C205.873 77.4597 203.901 67.7059 201.686 62.9487C199.825 58.6017 196.407 55.1067 192.103 53.1487C191.54 52.8715 191.049 53.6429 191.61 53.9285Z" fill="#111111"/><path d="M251.504 177.1C250.714 177.38 232.673 192.261 228.11 195.702C227.899 195.842 228.11 196.269 228.321 196.122C232.401 193.282 250.881 179.97 252.141 177.869C252.49 177.52 252.071 176.893 251.504 177.1Z" fill="#111111"/><path d="M245.938 173.994C246.573 173.434 245.668 172.67 245.098 173.154C231.645 184.377 223.591 190.831 212.122 199.719C211.702 199.999 212.122 200.713 212.542 200.419C220.203 195.076 238.74 180.366 245.938 173.994Z" fill="#111111"/><path d="M49.1386 197.599C57.0028 201.174 64.6075 205.294 71.897 209.929C71.9625 209.965 72.0388 209.976 72.1116 209.959C72.1844 209.943 72.2486 209.9 72.2921 209.839C72.3355 209.779 72.3552 209.704 72.3474 209.63C72.3397 209.556 72.3049 209.487 72.2498 209.436C64.9852 202.172 44.009 192.114 33.9892 190.976C33.6378 190.905 33.4292 191.536 33.7778 191.676C37.9848 193.481 41.8712 194.398 49.1386 197.599Z" fill="#111111"/><path d="M96.0648 225.713C96.1539 225.734 96.2478 225.723 96.3292 225.681C96.4107 225.639 96.4743 225.569 96.5083 225.484C96.5424 225.399 96.5446 225.304 96.5145 225.218C96.4845 225.131 96.4242 225.058 96.3448 225.013C88.2864 220.081 59.9728 207.901 32.1576 201.052C31.8776 200.982 31.7376 201.403 32.0176 201.545C71.5802 213.806 86.8108 222.559 96.0648 225.713Z" fill="#111111"/><path d="M52.5895 213.241C52.1695 213.164 51.9553 213.801 52.3781 213.941C67.3385 217.496 70.4311 219.66 76.9691 221.34C77.3219 221.41 77.6033 220.92 77.2491 220.706C71.6463 217.749 58.7243 214.356 52.5895 213.241Z" fill="#111111"/><path d="M120.727 230.292C141.887 227.968 167.556 225.98 170.049 225.148C170.683 224.937 170.469 224.168 169.909 224.021C163.394 223.134 127.103 228.597 120.657 229.588C120.304 229.729 120.374 230.292 120.727 230.292Z" fill="#111111"/><path d="M183.226 211.692C183.363 211.65 183.481 211.561 183.56 211.441C183.638 211.321 183.672 211.177 183.656 211.034C183.639 210.892 183.573 210.76 183.469 210.661C183.364 210.562 183.229 210.503 183.086 210.494C176.024 209.78 150.746 213.975 123.616 224.375C123.336 224.515 123.402 225 123.756 224.867C150.919 214.768 178.499 213.109 183.226 211.692Z" fill="#111111"/><path d="M269.399 188.02C266.39 187.579 263.351 187.367 260.31 187.386C260.31 177.082 256.746 169.176 250.65 163.641C244.413 157.971 241.55 158.121 234.585 160.258C232.688 160.841 230.78 161.457 228.947 162.161C231.344 159.836 233.809 157.51 236.205 155.185C237.869 155.185 237.623 153.274 236.485 153.284C227.562 153.659 218.704 154.981 210.061 157.229C196.343 160.512 183.285 166.112 171.449 173.787C171.383 173.837 171.338 173.91 171.323 173.991C171.308 174.073 171.324 174.157 171.368 174.228C171.412 174.298 171.481 174.349 171.561 174.371C171.641 174.393 171.727 174.385 171.801 174.347C190.687 163.463 211.786 156.984 233.525 155.392C213.526 174.907 200.872 185.555 187.514 196.965C169.481 196.965 140.075 203.721 117.475 219.865C116.463 220.675 116.862 221.405 117.969 220.845C142.342 206.694 151.165 203.031 187.161 198.791C187.417 198.757 187.651 198.631 187.82 198.436C187.988 198.241 188.08 197.991 188.077 197.734C208.401 182.412 225.535 165.227 227.536 163.561C231.709 162.844 235.614 160.923 241.417 160.741C227.857 169.903 207.781 185.289 194.419 198.651C194.139 198.791 193.999 199.281 194.349 199.425C202.273 202.467 208.762 208.378 212.528 215.984C204.283 216.9 196.18 218.731 187.937 219.929C187.9 219.934 187.865 219.946 187.833 219.964C187.8 219.982 187.772 220.007 187.749 220.036C187.727 220.065 187.71 220.099 187.7 220.134C187.69 220.17 187.687 220.207 187.692 220.244C187.697 220.281 187.708 220.317 187.727 220.349C187.745 220.381 187.77 220.409 187.799 220.432C187.828 220.455 187.861 220.472 187.897 220.481C187.933 220.491 187.97 220.494 188.007 220.489C196.469 220.313 204.778 218.445 213.232 217.671C214.119 220.172 214.802 222.74 215.276 225.35C210.228 225.997 123.37 232.799 118.603 235.356C117.185 236.116 116.347 239.944 114.445 239.372C112.823 238.885 111.776 236.617 110.712 235.497C108.892 233.582 105.002 233.179 102.467 232.468C82.0887 226.746 22.9877 210.488 19.8167 209.849C23.7255 200.469 26.3365 193.178 34.5432 184.554C35.5764 183.466 48.294 189.082 48.5642 189.203C75.9958 201.6 100.423 222.354 105.648 226.065C106.348 226.562 107.2 225.428 106.563 224.867C92.3212 212.306 56.1256 187.988 35.5919 183.147C35.7318 183.102 46.7919 179.548 47.3715 178.79C47.5115 178.857 95.775 203.44 113.61 221.275C114.385 222.05 115.442 221.063 115.089 220.218C121.994 214.723 165.338 179.716 169.345 176.538C170.185 175.871 168.434 164.013 167.372 159.416C167.336 159.271 167.261 159.139 167.155 159.034C167.049 158.929 166.917 158.854 166.773 158.818C166.628 158.782 166.476 158.786 166.334 158.829C166.191 158.873 166.063 158.954 165.963 159.064C163.769 161.323 162.108 164.043 161.1 167.026C159.566 166.15 158.243 164.947 157.225 163.502C157.142 163.372 157.027 163.265 156.892 163.191C156.757 163.117 156.605 163.078 156.45 163.078C156.296 163.078 156.144 163.117 156.009 163.191C155.873 163.265 155.759 163.372 155.675 163.502C152.107 171.15 152.611 171.379 150.885 170.126C150.391 169.802 149.831 169.593 149.246 169.515C148.66 169.437 148.065 169.491 147.504 169.674C146.942 169.856 146.429 170.163 146.002 170.57C145.574 170.978 145.244 171.476 145.035 172.028C144.434 173.731 144.385 175.581 144.895 177.313C141.24 177.8 137.509 173.299 134.184 180.484C130.964 187.424 130.578 179.247 126.575 179.004C125.185 179.004 125.762 181.501 120.656 190.983C118.961 189.658 116.984 188.742 114.878 188.305C113.433 188.04 113.821 190.039 113.821 192.674C113.821 202.271 113.211 213.869 113.401 218.392C99.261 203.405 47.881 175.492 39.061 174.776C61.8698 164.213 102.814 147.227 105.506 145.253C120.936 149.711 135.566 155.56 143.484 169.703C143.562 169.832 143.684 169.928 143.827 169.974C143.971 170.02 144.126 170.012 144.264 169.951C144.402 169.891 144.514 169.783 144.577 169.646C144.641 169.51 144.653 169.355 144.611 169.21C142.888 163.362 135.569 157.362 130.568 154.073C130.877 152.42 131.161 149.214 131.224 148.776C135.619 149.784 149.216 153.187 151.517 157.02C151.423 150.341 151.682 143.661 152.292 137.009C152.09 137.076 149.772 133.993 145.81 129.47C145.598 129.19 145.88 128.63 146.23 128.91C148.497 130.714 150.574 132.744 152.43 134.969C152.57 133.278 152.803 131.519 152.99 129.825C153.07 129.125 154.184 129.125 154.119 129.825C153.468 136.736 153.172 156.399 153.624 162.725C153.554 161.174 155.668 160.467 156.867 160.681C158.424 161.229 159.744 162.3 160.601 163.711C160.041 163.011 163.419 158.639 164.053 158.144C169.747 152.974 169.666 163.408 171.099 172.59C182.658 164.622 195.506 158.71 209.077 155.115C216.802 152.929 228.086 150.88 235.149 151.24C234.374 151.17 225.419 126.157 223.311 120.801C220.931 114.747 218.904 110.217 222.471 104.806C223.871 102.683 225.528 100.655 226.065 98.1125C226.41 96.7679 226.25 95.3431 225.614 94.1092C224.977 92.8753 223.91 91.9184 222.614 91.4205C221.944 91.1873 221.233 91.0965 220.526 91.154C219.819 91.2114 219.131 91.4158 218.508 91.7541C217.885 92.0924 217.339 92.5571 216.905 93.1185C216.471 93.6798 216.16 94.3256 215.99 95.0143C215.923 95.2943 216.344 95.5085 216.483 95.2257C216.741 94.625 217.135 94.0923 217.634 93.6693C218.133 93.2463 218.723 92.9445 219.357 92.7876C219.992 92.6307 220.655 92.6229 221.293 92.7649C221.931 92.9069 222.528 93.1947 223.036 93.6059C226.741 96.8539 221.516 102.543 220.428 104.597C216.993 103.369 207.251 106.049 207.111 106.077C206.579 106.183 207.403 105.954 205.28 108.684C205.14 108.684 203.142 109.104 203.025 109.104C202.769 106.664 199.396 93.1355 199.15 92.8275C204.871 90.5385 206.116 84.2091 203.166 81.3475C200.664 78.9157 195.207 79.7319 193.653 80.6475C193.478 80.7639 193.35 80.9381 193.29 81.1397C193.23 81.3412 193.243 81.5572 193.327 81.7502C193.41 81.9431 193.558 82.1007 193.746 82.1955C193.934 82.2902 194.148 82.3161 194.353 82.2687C195.893 81.8361 201.174 80.3703 202.526 83.9585C204.206 88.4049 197.943 91.6333 197.171 92.2031C196.498 92.7001 197.108 93.7137 198.151 93.1831C198.151 94.0567 201.184 108.682 201.532 109.811C201.581 109.986 201.696 110.136 201.852 110.228C202.009 110.32 202.196 110.348 202.372 110.305H203.852C195.183 118.974 185.92 118.48 180.248 113.123C182.362 113.263 184.475 113.44 186.519 113.475C186.658 113.473 186.795 113.435 186.916 113.365C187.036 113.295 187.137 113.194 187.207 113.074C187.278 112.954 187.316 112.817 187.318 112.677C187.32 112.538 187.286 112.4 187.219 112.278C186.939 111.642 186.092 109.037 185.88 108.472C188.334 107.994 190.607 106.845 192.448 105.153C194.289 103.462 195.625 101.294 196.309 98.8895C196.516 98.0495 195.232 97.3999 194.829 98.2553C192.309 103.623 185.953 107.478 180.033 105.866C172.496 103.812 169.482 95.1627 168.618 88.2509C168.292 85.6441 167.976 80.6307 166.786 74.0871C167.304 73.7662 167.845 73.4854 168.406 73.2471C169.106 72.8957 169.106 72.1957 168.336 71.9787C166.702 71.5223 163.78 72.7235 162.418 75.7139C160.72 79.4393 162.041 83.7625 163.473 84.5213C163.556 84.5656 163.646 84.5917 163.739 84.5977C163.833 84.6037 163.926 84.5894 164.013 84.5559C164.1 84.5224 164.179 84.4704 164.244 84.4035C164.309 84.3366 164.359 84.2564 164.39 84.1685C164.837 82.4885 162.353 78.1653 165.799 74.8683C165.529 83.3803 165.669 93.9559 169.957 100.939C173.258 106.316 178.481 109.634 184.823 108.759C184.963 109.394 185.318 111.508 185.458 111.93C183.274 111.79 178.764 111.51 178.623 111.579C178.324 111.182 178.065 110.758 177.849 110.311C177.749 110.113 160.511 107.058 147.057 113.692C136.417 118.942 130.586 128.438 126.477 139.551C125.523 141.852 124.845 144.259 124.46 146.72C124.451 146.894 124.502 147.066 124.603 147.207C124.705 147.348 124.852 147.45 125.02 147.496C126.499 147.776 128.049 148.056 129.529 148.412C129.421 148.84 129.151 151.674 129.091 153.128C120.1 147.63 105.011 143.785 104.871 143.831C104.731 143.877 54.6501 165.497 36.8057 174.552C35.5457 176.025 40.0438 175.651 46.1534 178.24C45.7488 178.454 33.5002 182.86 33.3532 183.148C27.1384 189.746 22.5115 197.675 19.8251 206.331C15.499 208.011 11.3264 210.061 7.35385 212.46C7.22843 212.535 7.12824 212.645 7.06623 212.777C7.00422 212.909 6.98324 213.057 7.006 213.201C7.02877 213.345 7.09422 213.479 7.19392 213.586C7.29361 213.692 7.42296 213.766 7.56525 213.799C11.4489 215.035 73.466 231.467 107.196 238.601C107.268 241.349 107.373 244.097 107.408 246.916C107.409 247.121 107.491 247.317 107.636 247.462C107.782 247.608 107.978 247.69 108.183 247.691C114.7 247.483 121.197 246.848 127.631 245.789C127.741 245.766 127.845 245.717 127.931 245.644C128.018 245.572 128.085 245.479 128.127 245.374C128.169 245.269 128.183 245.155 128.17 245.043C128.157 244.931 128.116 244.824 128.051 244.732C126.641 242.548 125.161 240.715 123.823 238.954C164.098 231.334 215.583 233.14 219.931 230.005C221.251 229.054 269.525 189.532 269.747 189.349C269.837 189.247 269.901 189.125 269.932 188.993C269.963 188.861 269.962 188.723 269.927 188.592C269.893 188.461 269.826 188.34 269.734 188.24C269.642 188.141 269.527 188.065 269.399 188.02ZM115.584 190.27C120.005 191.686 120.904 194.175 121.713 192.737C123.832 188.966 125.646 185.031 127.138 180.97C128.269 181.599 129.033 183.952 130.662 184.704C132.634 185.761 134.311 184.345 135.171 182.661C136.003 181.033 136.651 178.282 138.835 178.152C141.372 177.999 143.627 179.913 146.234 178.852C146.442 178.772 146.618 178.624 146.733 178.433C146.848 178.241 146.896 178.017 146.868 177.795C146.448 176.034 145.814 173.711 147.148 172.158C147.379 171.876 147.669 171.647 147.997 171.488C148.326 171.33 148.686 171.246 149.051 171.241C149.825 171.316 150.389 172.081 151.165 172.37C152.714 172.93 153.853 171.81 154.476 170.537C155.265 168.924 156.027 167.296 156.731 165.675C157.992 167.112 159.525 168.286 161.24 169.129C161.353 169.199 161.479 169.242 161.611 169.254C161.743 169.266 161.875 169.247 161.998 169.199C162.122 169.152 162.232 169.075 162.32 168.977C162.409 168.879 162.474 168.762 162.509 168.635C163.239 166.069 164.513 163.69 166.243 161.66C167.223 166.309 167.581 170.96 168.145 175.681C128.228 207.938 127.668 209.281 115.085 219.931C115.095 219.778 115.739 191.831 115.584 190.27ZM258.126 189.355C258.126 189.355 220.143 222.025 216.976 224.867C216.606 222.021 215.823 219.244 214.652 216.624C217.008 214.266 238.023 197.008 239.877 194.644C240.157 194.288 239.806 193.868 239.457 194.084C235.117 196.255 215.146 214.695 213.949 215.292C210.018 207.032 203.511 202.132 195.277 198.946C212.042 182.826 242.123 162.279 244.178 160.685C256.177 168.679 260.008 181.821 258.126 189.355Z" fill="#111111"/></svg>