<svg viewBox="0 0 280 280" fill="none" xmlns="http://www.w3.org/2000/svg"><path d="M142.456 148.509C141.308 149.078 140.281 149.864 139.433 150.823C138.746 151.543 137.546 152.688 138.13 153.756C138.183 153.848 138.259 153.923 138.35 153.976C138.441 154.028 138.545 154.056 138.65 154.056C139.719 154.041 140.206 152.706 140.812 151.998C141.602 151.165 142.47 150.41 143.405 149.744C144.164 149.134 143.199 148.187 142.456 148.509Z" fill="#111111"/><path d="M145.261 150.903C144.281 150.329 143.044 151.432 142.375 152.086C141.473 152.913 140.798 153.958 140.415 155.12C140.361 155.334 140.385 155.56 140.483 155.757C140.581 155.954 140.747 156.11 140.95 156.196C141.153 156.281 141.38 156.292 141.59 156.225C141.8 156.157 141.979 156.017 142.095 155.83C142.606 154.964 143.209 154.155 143.891 153.416C144.477 152.856 145.523 152.296 145.546 151.399C145.546 151.298 145.52 151.2 145.47 151.113C145.42 151.026 145.348 150.953 145.261 150.903Z" fill="#111111"/><path d="M144.64 154.581C143.946 155.521 143.351 156.531 142.863 157.592C142.367 158.733 143.916 159.727 144.578 158.593C145.356 157.263 145.956 155.56 147.267 154.673C148.509 153.836 146.675 151.697 144.64 154.581Z" fill="#111111"/><path d="M145.834 158.106C145.776 162.296 142.404 164.627 139.877 167.455C137.826 169.75 136.322 173.09 137.116 176.208C137.165 176.368 137.264 176.509 137.399 176.608C137.534 176.708 137.697 176.762 137.864 176.762C138.032 176.762 138.195 176.708 138.33 176.608C138.464 176.509 138.564 176.368 138.613 176.208C138.849 174.204 139.448 172.259 140.379 170.468C141.57 168.879 142.905 167.403 144.367 166.06C146.432 163.85 148.221 160.821 146.436 157.949C146.4 157.89 146.345 157.843 146.28 157.817C146.216 157.791 146.144 157.786 146.077 157.804C146.009 157.822 145.949 157.86 145.905 157.915C145.862 157.969 145.836 158.036 145.834 158.106Z" fill="#111111"/><path d="M151.498 124.912C153.391 124.226 155.152 122.812 154.843 120.581C154.624 119.021 152.271 116.841 150.856 118.504C150.77 118.594 150.709 118.705 150.678 118.825C150.647 118.946 150.648 119.072 150.68 119.192C150.712 119.312 150.774 119.422 150.86 119.511C150.947 119.6 151.054 119.666 151.174 119.701C152.193 120.012 153.236 119.934 153.11 121.394C153.018 121.955 152.786 122.483 152.433 122.928C152.08 123.374 151.62 123.722 151.095 123.939C150.563 124.214 150.92 125.119 151.498 124.912Z" fill="#111111"/><path d="M138.04 111.808C137.703 112.749 137.654 113.77 137.9 114.738C137.992 115.04 138.189 115.298 138.454 115.468C138.719 115.638 139.036 115.708 139.349 115.666C139.661 115.624 139.948 115.472 140.158 115.238C140.369 115.003 140.49 114.702 140.499 114.387C140.482 113.39 140.167 112.422 139.596 111.605C139.507 111.467 139.38 111.357 139.231 111.288C139.082 111.219 138.917 111.193 138.754 111.215C138.591 111.236 138.437 111.303 138.311 111.408C138.185 111.513 138.091 111.652 138.04 111.808Z" fill="#111111"/><path d="M155.77 111.332C155.569 111.57 155.42 111.846 155.331 112.144C155.241 112.442 155.213 112.755 155.249 113.064C155.21 113.734 155.313 114.406 155.551 115.034C155.682 115.246 155.871 115.417 156.096 115.524C156.322 115.631 156.573 115.671 156.82 115.639C157.068 115.606 157.3 115.503 157.49 115.341C157.68 115.179 157.819 114.966 157.891 114.727C157.975 114.056 157.918 113.376 157.724 112.728C157.689 112.423 157.59 112.129 157.435 111.864C157.28 111.599 157.072 111.368 156.824 111.188C156.655 111.1 156.463 111.066 156.274 111.092C156.085 111.118 155.909 111.202 155.77 111.332Z" fill="#111111"/><path d="M155.05 105.452C157.357 107.674 157.406 109.263 158.704 109.784C158.899 109.836 159.106 109.809 159.282 109.709C159.457 109.61 159.586 109.446 159.642 109.252C160.01 107.572 157.436 105.426 155.862 104.399C155.721 104.325 155.559 104.303 155.404 104.337C155.249 104.371 155.11 104.459 155.013 104.584C154.916 104.71 154.867 104.866 154.874 105.025C154.88 105.184 154.943 105.335 155.05 105.452Z" fill="#111111"/><path d="M136.041 111.098C136.578 110.092 137.253 109.165 138.047 108.346C138.747 107.559 139.692 107.001 139.944 105.918C139.967 105.825 139.969 105.728 139.95 105.634C139.93 105.54 139.89 105.451 139.832 105.375C139.774 105.298 139.699 105.236 139.614 105.192C139.528 105.148 139.434 105.123 139.338 105.12C138.029 104.972 137.105 106.126 136.398 107.071C135.662 108.142 135.171 109.362 134.96 110.645C134.82 111.265 135.739 111.735 136.041 111.098Z" fill="#111111"/><path d="M143.738 135.734C146.134 136.69 149.338 137.735 151.893 136.836C152.026 136.795 152.142 136.713 152.225 136.601C152.307 136.489 152.352 136.354 152.352 136.215C152.352 136.076 152.307 135.941 152.225 135.829C152.142 135.717 152.026 135.635 151.893 135.594C150.31 135.099 148.284 135.39 144.045 134.623C143.899 134.587 143.745 134.609 143.616 134.685C143.486 134.761 143.392 134.885 143.352 135.029C143.312 135.174 143.33 135.329 143.402 135.46C143.474 135.592 143.595 135.69 143.738 135.734Z" fill="#111111"/><path d="M126.326 157.548C125.178 155.812 123.962 153.556 121.911 152.719C121.516 152.576 121.096 152.518 120.678 152.548C120.259 152.577 119.852 152.695 119.481 152.891C119.111 153.088 118.786 153.361 118.527 153.691C118.268 154.021 118.082 154.402 117.98 154.809C116.678 158.803 120.288 162.688 123.759 164.07C124.523 164.377 125.107 163.241 124.546 162.718C122.679 160.98 119.963 159.993 119.664 157.079C119.59 156.355 119.711 155.016 120.572 154.699C121.23 154.455 121.844 155.127 122.294 155.478C123.414 156.346 124.623 157.135 125.713 158.025C126.027 158.28 126.59 157.947 126.326 157.548Z" fill="#111111"/><path d="M147.732 165.263C151.329 164.205 156.59 161.025 155.652 156.468C155.506 155.541 155.023 154.7 154.294 154.108C153.565 153.515 152.643 153.214 151.705 153.261C150.744 153.413 149.847 153.843 149.127 154.498C148.331 155.067 147.576 155.691 146.868 156.366C146.76 156.481 146.688 156.625 146.659 156.78C146.631 156.936 146.648 157.096 146.708 157.242C146.769 157.388 146.87 157.513 147 157.603C147.13 157.693 147.283 157.743 147.441 157.748C147.903 157.796 148.37 157.727 148.799 157.549C149.228 157.371 149.606 157.088 149.898 156.727C150.511 156.206 151.406 155.201 152.359 155.476C153.394 155.774 153.619 157.063 153.446 157.951C152.936 160.577 149.677 163.363 147.466 164.636C147.396 164.679 147.343 164.746 147.318 164.824C147.293 164.903 147.297 164.988 147.329 165.064C147.361 165.14 147.42 165.202 147.494 165.238C147.568 165.275 147.652 165.284 147.732 165.263Z" fill="#111111"/><path d="M218.914 199.98C217.185 195.549 213.912 191.976 210.61 188.651C195.08 173.008 177.43 155.736 155.116 153.166C154.638 153.107 154.536 153.903 155.005 154.006C175.125 158.467 190.597 172.159 204.806 186.294C211.394 192.849 219.808 200.166 217.277 210.514C215.33 218.478 207.371 228.109 201.557 233.943C190.841 244.692 183.292 247.796 176.357 252.003C179.975 235.84 180.965 219.2 179.288 202.723C181.756 205.476 184.577 207.891 187.678 209.903C185.703 211.197 181.146 217.798 181.187 222.005C181.19 222.184 181.252 222.356 181.362 222.497C181.471 222.639 181.624 222.74 181.796 222.787C181.969 222.835 182.152 222.825 182.318 222.76C182.485 222.694 182.625 222.577 182.72 222.425C183.38 221.365 183.75 220.121 184.342 219.012C188.402 211.42 188.747 212.593 189.592 210.97C192.686 212.548 196.615 214.089 200.057 213.28C200.16 213.252 200.253 213.193 200.323 213.113C200.394 213.033 200.439 212.933 200.454 212.828C200.469 212.722 200.453 212.614 200.407 212.517C200.361 212.42 200.288 212.339 200.197 212.283C196.995 210.696 193.33 210.269 190.057 208.747C186.102 206.582 182.42 203.95 179.092 200.907C178.431 195.234 177.363 189.617 175.897 184.097C175.757 183.551 174.979 183.791 175.066 184.327C183.784 237.798 168.56 265.409 168.426 272.188C168.43 272.333 168.48 272.473 168.57 272.587C168.66 272.701 168.785 272.783 168.925 272.821C169.065 272.859 169.214 272.85 169.349 272.797C169.484 272.743 169.598 272.648 169.674 272.524C170.435 271.426 173.291 264.792 175.82 254.334C180.608 252.314 185.166 249.786 189.414 246.795C197.536 241.248 204.732 234.457 210.739 226.67C216.86 218.749 222.559 209.315 218.914 199.98Z" fill="#111111"/><path d="M196.218 135.166C198.358 135.045 200.656 136.692 199.455 138.986C198.409 140.986 196.484 140.666 194.776 139.789C192.826 138.79 189.84 137.745 188.562 140.325C188.517 140.44 188.5 140.563 188.51 140.686C188.52 140.809 188.557 140.928 188.62 141.034C188.682 141.14 188.768 141.231 188.87 141.299C188.973 141.368 189.089 141.412 189.211 141.429C190.221 141.648 191.138 141.033 192.13 141.289C192.952 141.621 193.748 142.014 194.51 142.465C200.147 144.873 204.046 138.737 201.351 135.127C201.057 134.696 200.677 134.331 200.235 134.054C199.792 133.778 199.298 133.596 198.781 133.521C198.265 133.445 197.739 133.478 197.236 133.616C196.734 133.754 196.265 133.996 195.86 134.324C195.783 134.391 195.729 134.48 195.706 134.579C195.683 134.678 195.692 134.782 195.732 134.876C195.772 134.969 195.841 135.048 195.928 135.1C196.016 135.152 196.117 135.175 196.218 135.166Z" fill="#E04747"/><path d="M185.88 143.08C186.131 142.968 186.328 142.762 186.428 142.505C186.529 142.249 186.524 141.964 186.416 141.711C186.308 141.458 186.104 141.258 185.849 141.154C185.595 141.05 185.309 141.05 185.055 141.155C184.804 141.267 184.607 141.473 184.506 141.729C184.406 141.986 184.41 142.271 184.519 142.524C184.627 142.777 184.83 142.977 185.085 143.081C185.34 143.185 185.625 143.185 185.88 143.08Z" fill="#E04747"/><path d="M93.058 61.8001C93.0034 61.3439 93.0438 60.8814 93.1767 60.4416C93.3096 60.0018 93.5321 59.5942 93.8302 59.2447C94.1284 58.8951 94.4957 58.6111 94.909 58.4104C95.3223 58.2098 95.7727 58.0969 96.2318 58.0789C98.686 58.2427 98.9926 60.5373 98.7672 62.5169C98.5054 64.8269 98.014 70.1777 101.675 70.1483C101.868 70.1456 102.056 70.0927 102.222 69.995C102.388 69.8972 102.526 69.758 102.622 69.5909C102.718 69.4238 102.769 69.2347 102.769 69.042C102.77 68.8494 102.72 68.6599 102.626 68.4921C101.972 67.3511 101.262 66.7897 101.226 65.3561C101.196 64.0695 101.573 62.8137 101.613 61.5313C101.715 60.4112 101.48 59.2862 100.938 58.3006C100.396 57.3151 99.5717 56.5139 98.5712 55.9999C97.7037 55.5566 96.7227 55.3847 95.7561 55.5068C94.7895 55.6288 93.882 56.0391 93.1519 56.6842C92.4217 57.3293 91.9028 58.1793 91.6625 59.1235C91.4223 60.0677 91.472 61.0623 91.805 61.9779C92.0304 62.5995 93.1322 62.5659 93.058 61.8001Z" fill="#E04747"/><path d="M104.758 72.5353C105.064 72.5248 105.354 72.3957 105.567 72.1754C105.78 71.9551 105.899 71.6608 105.899 71.3544C105.899 71.0481 105.78 70.7537 105.567 70.5334C105.354 70.3131 105.064 70.1841 104.758 70.1735C104.452 70.1841 104.162 70.3131 103.949 70.5334C103.736 70.7537 103.617 71.0481 103.617 71.3544C103.617 71.6608 103.736 71.9551 103.949 72.1754C104.162 72.3957 104.452 72.5248 104.758 72.5353Z" fill="#E04747"/><path d="M70.6133 145.417C70.2894 145.089 70.0878 144.66 70.0423 144.201C69.9967 143.743 70.11 143.282 70.3631 142.897C70.6162 142.512 70.9938 142.226 71.4328 142.086C71.8718 141.946 72.3456 141.961 72.7749 142.128C76.2385 143.149 74.2869 148.253 77.6749 150.405C80.8683 152.44 82.6407 148.876 80.6359 148.387C79.3129 148.065 78.6661 147.955 78.2559 146.469C77.9241 145.239 77.7393 140.48 72.2765 139.401C71.3302 139.286 70.3742 139.516 69.5841 140.05C68.7941 140.583 68.223 141.384 67.9757 142.304C67.7287 143.113 67.7876 143.984 68.1413 144.752C68.4949 145.52 69.1187 146.131 69.8937 146.469C70.0327 146.536 70.1906 146.55 70.3392 146.51C70.4877 146.47 70.617 146.378 70.7039 146.251C70.7907 146.124 70.8293 145.97 70.8127 145.817C70.7961 145.664 70.7254 145.522 70.6133 145.417Z" fill="#E04747"/><path d="M83.9525 149.408C83.7789 149.54 83.4359 149.787 83.3687 149.958C83.2837 150.136 83.2442 150.333 83.2535 150.53C83.2629 150.727 83.3209 150.919 83.4223 151.088C83.5238 151.258 83.6655 151.399 83.835 151.501C84.0044 151.602 84.1963 151.66 84.3935 151.669C84.5934 151.708 84.7999 151.697 84.9948 151.638C85.1896 151.579 85.3669 151.472 85.511 151.328C85.6551 151.184 85.7616 151.007 85.8211 150.812C85.8807 150.617 85.8914 150.411 85.8524 150.211C85.8134 150.011 85.7259 149.824 85.5975 149.665C85.4691 149.507 85.3038 149.383 85.1162 149.304C84.9285 149.224 84.7242 149.192 84.5213 149.211C84.3184 149.229 84.1231 149.297 83.9525 149.408Z" fill="#E04747"/><path d="M48.1322 119.819C48.1154 118.784 48.3981 117.547 49.6805 117.481C51.0805 117.407 51.3465 118.892 51.7455 119.897C53.3163 123.851 56.5224 122.109 55.3071 120.905C54.6457 120.363 54.1186 119.675 53.7671 118.895C53.5485 118.218 53.26 117.565 52.9061 116.948C52.5507 116.419 52.0661 115.991 51.4984 115.702C50.9306 115.414 50.2986 115.275 49.6623 115.3C49.0836 115.314 48.5185 115.478 48.0216 115.775C47.5247 116.072 47.113 116.492 46.8264 116.995C46.5398 117.498 46.388 118.067 46.3857 118.645C46.3834 119.224 46.5307 119.794 46.8133 120.299C46.9063 120.428 47.0387 120.523 47.1905 120.569C47.3422 120.616 47.5051 120.612 47.6542 120.558C47.8034 120.503 47.9308 120.402 48.0171 120.268C48.1033 120.135 48.1437 119.977 48.1322 119.819Z" fill="#E04747"/><path d="M58.4334 123.999C58.7193 124.042 59.0108 123.972 59.2455 123.803C59.4801 123.634 59.6393 123.38 59.6891 123.095C59.7388 122.81 59.6751 122.517 59.5116 122.278C59.3481 122.04 59.0978 121.875 58.8142 121.818C58.5282 121.775 58.2367 121.846 58.002 122.015C57.7674 122.184 57.6082 122.438 57.5584 122.723C57.5087 123.008 57.5724 123.301 57.7359 123.539C57.8994 123.778 58.1497 123.943 58.4334 123.999Z" fill="#E04747"/><path d="M179.319 49.784C181.786 51.0342 182.168 53.8118 179.449 55.02C177.867 55.72 176.323 56.4396 176.005 58.2946C175.75 59.7912 177.502 59.8906 177.757 59.647C178.415 59.0254 178.317 58.2344 179.127 57.687C179.733 57.267 180.484 57.0738 181.115 56.707C185.157 54.3368 183.828 48.6122 179.652 48.559C179.51 48.5633 179.373 48.6132 179.261 48.7013C179.15 48.7893 179.069 48.9109 179.032 49.0481C178.995 49.1854 179.002 49.3309 179.054 49.4634C179.106 49.5959 179.199 49.7083 179.319 49.784Z" fill="#E04747"/><path d="M176.829 63.42C177.071 63.42 177.304 63.3236 177.475 63.1522C177.646 62.9807 177.743 62.7482 177.743 62.5058C177.743 62.2633 177.646 62.0308 177.475 61.8593C177.304 61.6879 177.071 61.5916 176.829 61.5916C176.586 61.5916 176.354 61.6879 176.182 61.8593C176.011 62.0308 175.914 62.2633 175.914 62.5058C175.914 62.7482 176.011 62.9807 176.182 63.1522C176.354 63.3236 176.586 63.42 176.829 63.42Z" fill="#E04747"/><path d="M226.065 110.755C226.345 110.748 226.622 110.808 226.873 110.932C227.124 111.055 227.341 111.239 227.505 111.465C227.669 111.691 227.775 111.955 227.815 112.232C227.854 112.508 227.825 112.791 227.731 113.054C227.521 113.541 227.19 113.965 226.769 114.288C226.349 114.611 225.853 114.821 225.329 114.898C223.6 115.086 222.173 114.085 220.606 115.36C220.426 115.494 220.294 115.682 220.229 115.897C220.163 116.112 220.169 116.342 220.244 116.554C220.319 116.765 220.46 116.947 220.646 117.073C220.832 117.198 221.054 117.261 221.278 117.251C222.147 117.164 223.022 117.176 223.888 117.288C224.585 117.443 225.305 117.462 226.009 117.344C226.804 117.167 227.551 116.821 228.2 116.329C228.849 115.838 229.385 115.212 229.771 114.495C231.09 111.826 228.851 108.231 225.777 109.354C225.615 109.414 225.479 109.53 225.396 109.682C225.312 109.833 225.285 110.009 225.32 110.178C225.355 110.348 225.449 110.499 225.586 110.605C225.722 110.711 225.892 110.764 226.065 110.755Z" fill="#E04747"/><path d="M218.68 118.766C218.925 118.672 219.123 118.485 219.232 118.247C219.342 118.009 219.354 117.737 219.267 117.49C219.179 117.243 218.999 117.039 218.764 116.923C218.529 116.806 218.258 116.786 218.008 116.866C217.764 116.961 217.565 117.147 217.456 117.386C217.346 117.624 217.334 117.895 217.421 118.143C217.509 118.39 217.689 118.593 217.924 118.71C218.159 118.826 218.43 118.846 218.68 118.766Z" fill="#E04747"/><path d="M86.5327 109.369C90.3379 103.265 79.4669 98.5978 77.6707 104.721C77.435 105.54 77.3948 106.402 77.5533 107.239C77.7119 108.076 78.0647 108.863 78.5835 109.539C79.048 110.163 79.6551 110.667 80.3541 111.009C81.0532 111.351 81.8238 111.521 82.6018 111.504C83.3798 111.488 84.1425 111.285 84.8263 110.914C85.5101 110.542 86.0952 110.013 86.5327 109.369Z" fill="#E04747"/><path d="M65.6293 98.9716C61.4825 96.229 57.1327 92.1536 58.3717 86.6516C59.4315 81.9504 65.8295 74.9056 61.2725 69.9524C59.8683 68.5322 57.9799 67.6942 55.9847 67.606C47.9543 67.046 45.4679 75.7722 47.9291 81.8622C48.0243 82.1058 48.6291 83.3154 48.3757 83.5618C48.3281 83.6108 38.9383 83.0592 38.5757 82.8744C37.8757 82.516 36.3357 76.342 37.6965 71.2166C38.4049 68.537 39.6733 62.3518 47.4027 59.0772C53.4997 56.4942 60.8987 56.6496 66.1347 60.6998C68.7335 62.769 70.6919 65.5331 71.7823 68.671C72.8727 71.8089 73.0504 75.1917 72.2947 78.4266C71.4785 81.6676 68.7205 86.6544 71.0725 90.391C72.7245 93.0146 78.4435 96.7946 78.5037 96.971C77.2999 99.2359 75.6726 101.249 73.7101 102.9C73.0339 103.361 67.6201 100.29 65.6293 98.9716Z" fill="#E04747"/><path d="M58.5676 92.8409C58.6882 94.5459 59.0873 96.2196 59.7492 97.7955C62.5737 100.144 65.5444 102.31 68.6434 104.282C70.2702 105.202 70.868 105.209 72.513 103.683C68.0778 102.06 61.915 98.3681 58.5676 92.8409Z" fill="#E04747"/><path d="M57.7991 70.7574C59.6248 71.9644 60.9697 73.773 61.6001 75.8688C63.3977 75.516 61.9739 69.0438 56.8695 68.3452C53.8651 67.935 51.3927 68.8842 52.2131 69.5268C52.6401 69.86 54.7247 69.0788 57.7991 70.7574Z" fill="#E04747"/><path d="M50.1789 87.542C50.1313 87.5826 41.6949 87.073 41.5395 87.024C40.453 86.1854 39.574 85.1081 38.9705 83.8754C39.0965 83.7172 48.1321 84.3458 48.4905 84.497C49.1392 85.4619 49.704 86.4807 50.1789 87.542Z" fill="#E04747"/><path d="M75.9865 109.399C76.2791 110.135 76.7375 110.794 77.326 111.324C77.9146 111.854 78.6175 112.241 79.3801 112.455C82.0037 112.902 83.4933 111.959 82.9501 112.004C81.6536 112.109 80.358 111.79 79.2583 111.096C76.2623 109.34 76.9637 104.625 76.9637 104.625C76.5324 105.187 76.1608 105.793 75.8549 106.432C75.6397 107.416 75.685 108.438 75.9865 109.399Z" fill="#E04747"/><path d="M140.098 64.624C146.411 63.385 142.822 53.424 137.718 55.9958C137.04 56.3419 136.452 56.8425 136.002 57.4572C135.552 58.0719 135.253 58.7836 135.128 59.535C135.003 60.2203 135.043 60.9257 135.247 61.592C135.45 62.2584 135.81 62.8663 136.297 63.3647C136.784 63.8631 137.383 64.2376 138.044 64.4567C138.706 64.6758 139.41 64.7332 140.098 64.624Z" fill="#E04747"/><path d="M134.12 44.618C133.382 40.2346 133.385 34.9034 137.738 32.3498C139.303 31.5434 140.961 30.9322 142.675 30.5298C145.935 29.5736 150.114 28.077 150.42 24.0408C150.491 22.2555 149.885 20.5093 148.723 19.152C144.186 13.5618 136.963 17.2676 134.487 22.596C134.386 22.8074 133.962 23.9414 133.647 23.9274C133.584 23.9274 128.211 17.4566 128.111 17.1094C127.924 16.4332 131.012 11.6494 135.191 9.40938C137.218 8.06431 139.556 7.25952 141.981 7.07134C144.407 6.88317 146.841 7.31786 149.051 8.33418C154.461 10.7394 158.88 15.6688 159.435 21.5628C159.672 24.5249 159.063 27.4934 157.68 30.1232C156.296 32.753 154.194 34.9359 151.619 36.4182C148.907 37.919 144.059 39.1062 143.053 42.9282C142.353 45.6078 143.371 51.6572 143.297 51.8014C141.077 52.3998 138.763 52.5666 136.48 52.2928C135.775 52.1346 134.478 46.7236 134.12 44.618Z" fill="#E04747"/><path d="M133.813 36.2599C132.773 37.3809 131.922 38.6637 131.293 40.0582C131.485 43.3381 131.884 46.6025 132.49 49.8316C132.882 51.4584 133.241 51.8531 135.247 51.9945C133.101 47.0374 132.599 41.5233 133.813 36.2599Z" fill="#E04747"/><path d="M147.77 22.26C148.097 24.188 147.737 26.1696 146.754 27.86C148.089 28.8218 151.439 23.9232 148.778 20.174C147.211 17.9606 145.083 16.926 145.16 17.8528C145.201 18.34 146.99 19.2318 147.77 22.26Z" fill="#E04747"/><path d="M132.16 27.5379C132.105 27.5309 127.282 21.7069 127.224 21.5781C127.109 20.3554 127.276 19.1226 127.712 17.9745C127.893 17.9605 133 24.2465 133.122 24.5713C132.884 25.585 132.562 26.5773 132.16 27.5379Z" fill="#E04747"/><path d="M133.636 57.7541C133.334 58.3956 133.184 59.0978 133.198 59.8064C133.211 60.515 133.387 61.2111 133.713 61.8407C135.025 63.8259 136.551 64.2277 136.189 63.9001C135.329 63.1169 134.747 62.0752 134.53 60.9321C133.846 57.9025 137.357 55.4819 137.357 55.4819C136.726 55.5438 136.103 55.6699 135.498 55.8585C134.721 56.3157 134.079 56.9695 133.636 57.7541Z" fill="#E04747"/><path d="M190.642 106.949C196.96 110.67 201.432 99.4658 195.143 97.7956C194.302 97.5773 193.421 97.5596 192.572 97.7439C191.722 97.9282 190.928 98.3094 190.253 98.8568C189.629 99.3462 189.131 99.9781 188.801 100.7C188.471 101.421 188.319 102.211 188.357 103.003C188.395 103.796 188.622 104.567 189.02 105.254C189.417 105.94 189.974 106.521 190.642 106.949Z" fill="#E04747"/><path d="M200.686 85.3692C203.367 81.0698 207.406 76.5296 213.049 77.6454C217.86 78.5946 225.215 84.9394 230.145 80.1654C231.559 78.6963 232.364 76.7467 232.4 74.7082C232.76 66.5126 223.803 64.2082 217.657 66.8682C217.413 66.976 216.194 67.6186 215.939 67.3708C215.887 67.3232 216.198 57.7416 216.379 57.372C216.726 56.6552 222.978 54.9178 228.237 56.1638C230.985 56.8134 237.323 57.9446 240.863 65.7342C243.663 71.8788 243.694 79.422 239.707 84.868C237.669 87.5731 234.904 89.6438 231.735 90.8389C228.566 92.034 225.123 92.3045 221.806 91.6188C218.481 90.874 213.328 88.1944 209.583 90.6878C206.955 92.4392 203.252 98.371 203.08 98.4368C200.734 97.2676 198.634 95.6594 196.893 93.6992C196.406 93.0286 199.395 87.4384 200.686 85.3692Z" fill="#E04747"/><path d="M206.745 78.0121C205.011 78.1796 203.316 78.6298 201.728 79.3449C199.411 82.2879 197.282 85.374 195.353 88.5849C194.459 90.2649 194.467 90.8767 196.067 92.5133C197.596 87.9437 201.203 81.5667 206.745 78.0121Z" fill="#E04747"/><path d="M229.228 76.6402C228.048 78.535 226.239 79.9544 224.118 80.6498C224.531 82.4824 231.077 80.8234 231.655 75.628C231.995 72.548 230.955 70.063 230.328 70.9128C230.007 71.3496 230.86 73.4636 229.228 76.6402Z" fill="#E04747"/><path d="M211.927 69.3209C211.886 69.2719 212.179 60.6592 212.226 60.501C213.052 59.3718 214.127 58.4474 215.366 57.799C215.533 57.925 215.13 67.1482 214.986 67.5178C214.018 68.2026 212.994 68.8057 211.927 69.3209Z" fill="#E04747"/><path d="M190.331 96.1995C189.589 96.5172 188.929 97.0023 188.405 97.617C187.881 98.2316 187.505 98.9593 187.309 99.7429C186.924 102.425 187.922 103.922 187.869 103.369C187.729 102.049 188.021 100.72 188.7 99.5805C190.411 96.4809 195.233 97.0717 195.233 97.0717C194.649 96.6473 194.023 96.2847 193.364 95.9895C192.352 95.7962 191.307 95.8685 190.331 96.1995Z" fill="#E04747"/><path d="M150.427 193.48C149.251 186.847 147.865 180.307 146.185 173.785C146.014 173.12 145.025 173.404 145.16 174.065C149.949 197.064 151.943 220.558 151.099 244.035C150.851 250.615 149.85 257.253 150.031 263.83C150.038 264.031 150.116 264.224 150.251 264.373C150.386 264.522 150.569 264.619 150.769 264.646C150.968 264.673 151.171 264.629 151.341 264.521C151.511 264.412 151.637 264.248 151.697 264.055C154.031 254.992 155.49 222.071 150.427 193.48Z" fill="#111111"/><path d="M159.946 200.095C160.248 199.56 160.358 198.938 160.257 198.332C160.154 197.947 159.95 197.596 159.665 197.317C159.38 197.038 159.026 196.841 158.638 196.746C157.399 196.521 156.568 197.744 156.579 198.878C156.547 199.284 156.649 199.688 156.869 200.03C157.09 200.372 157.416 200.632 157.799 200.77C158.181 200.908 158.598 200.917 158.986 200.795C159.374 200.673 159.711 200.427 159.946 200.095Z" fill="#111111"/><path d="M160.787 222.011C160.177 221.929 159.557 222.079 159.051 222.431C158.843 222.702 158.693 223.013 158.61 223.344C158.527 223.676 158.513 224.021 158.568 224.358C158.623 224.695 158.747 225.018 158.932 225.305C159.117 225.593 159.358 225.839 159.642 226.03C163.015 227.406 163.219 222.443 160.787 222.011Z" fill="#111111"/><path d="M161.513 243.592C161.433 243.321 161.292 243.072 161.102 242.864C160.911 242.656 160.676 242.494 160.413 242.39C160.15 242.287 159.868 242.245 159.586 242.267C159.305 242.289 159.033 242.376 158.79 242.519C158.4 242.848 158.15 243.311 158.09 243.817C158.045 245.314 159.198 247.338 160.89 246.175C161.273 245.88 161.543 245.463 161.657 244.993C161.77 244.523 161.719 244.029 161.513 243.592Z" fill="#111111"/><path d="M156.94 73.3068C153.72 73.9536 151.265 76.2216 144.498 77.3906C134.498 79.1266 124.866 74.0488 118.059 80.0506C116.9 81.0436 116.028 82.3299 115.535 83.7751C115.043 85.2203 114.947 86.7712 115.259 88.2658C111.264 88.858 106.173 97.6948 110.851 105.57C111.792 107.3 113.184 108.743 114.879 109.746C109.578 112.286 108.299 121.646 114.17 126.308C115.639 127.496 117.386 128.291 119.247 128.618C119.265 129.738 121.781 144.613 121.967 145.681C122.244 148.027 122.683 150.351 123.283 152.636C123.351 152.844 123.49 153.021 123.675 153.137C123.86 153.253 124.08 153.3 124.296 153.27C124.512 153.241 124.712 153.137 124.859 152.975C125.006 152.814 125.093 152.607 125.103 152.389C124.926 150.281 124.603 148.188 124.135 146.125C124.008 145.4 121.138 129.325 120.915 128.636C121.415 128.582 121.903 128.448 122.36 128.24C122.547 128.128 122.697 127.963 122.791 127.767C122.886 127.57 122.921 127.351 122.893 127.135C122.864 126.919 122.774 126.715 122.632 126.55C122.489 126.385 122.302 126.265 122.093 126.204C119.92 125.532 117.911 125.668 116.007 124.146C111.519 120.55 112.787 113.102 117.127 111.808C117.94 112.836 119.045 113.796 119.674 114.709C120.585 116.267 121.408 117.876 122.139 119.526C123.003 121.153 125.527 121.415 127.168 121.346C127.302 121.344 127.434 121.312 127.554 121.251C127.674 121.19 127.778 121.103 127.859 120.996C127.94 120.889 127.996 120.764 128.021 120.632C128.047 120.501 128.042 120.365 128.008 120.235C126.506 115.751 125.493 111.119 124.985 106.418C126.879 105.967 128.645 105.087 130.145 103.846C131.645 102.605 132.84 101.036 133.639 99.26C143.398 104.713 154.15 103.65 161.164 98.882C160.668 108.181 161.044 117.538 160.892 126.841C160.766 134.869 161.304 138.755 159.033 141.508C155.637 145.627 150.334 144.718 145.76 143.7C148.371 141.32 148.932 140.664 149.082 139.856C149.125 139.541 149.094 139.221 148.993 138.921C148.892 138.62 148.722 138.347 148.498 138.122C148.274 137.898 148.001 137.728 147.7 137.626C147.399 137.525 147.079 137.494 146.765 137.536C145.41 137.572 144.105 138.442 139.39 140.903C138.27 139.838 136.481 139.791 133.296 136.703C133.048 136.466 132.624 136.773 132.811 137.073C133.565 138.323 134.513 139.446 135.62 140.399C136.233 140.944 136.899 141.425 137.609 141.837C129.567 146.163 130.172 148.91 128.323 158.476C127.641 161.307 127.201 164.191 127.007 167.097C127.007 167.285 127.295 167.388 127.383 167.196C130.029 161.456 130.764 151.899 132.712 148.406C134.169 145.8 137.098 144.603 142.821 141.466C143.537 141.072 146.668 139.129 147.161 139.446C147.959 139.969 146.986 140.672 146.659 141.008C143.418 144.326 139.579 147.06 136.448 150.486C136.341 150.603 136.284 150.757 136.287 150.916C136.291 151.075 136.356 151.226 136.468 151.338C136.58 151.451 136.732 151.515 136.89 151.519C137.049 151.523 137.203 151.465 137.321 151.358C139.542 149.449 141.668 147.406 143.84 145.44C146.032 146.263 148.334 146.751 150.671 146.887C150.634 147.538 150.673 148.192 150.789 148.834C150.776 149.415 150.9 149.99 151.151 150.513C151.402 151.037 151.774 151.494 152.235 151.847C152.447 151.965 152.697 151.996 152.932 151.934C153.167 151.872 153.368 151.721 153.495 151.514C153.871 150.494 153.86 149.372 153.464 148.361C153.372 147.858 153.346 147.346 153.264 146.854C155.278 146.688 157.217 146.014 158.9 144.894C163.179 141.954 163.38 137.026 163.279 132.294C162.754 109.194 162.815 103.516 162.416 97.9524C174.628 88.221 167.3 71.2292 156.94 73.3068ZM159.638 77.3766C158.547 80.0142 155.777 81.193 153.174 81.9686C150.307 82.7514 147.317 82.9771 144.365 82.6336C144.112 82.6201 143.873 82.5099 143.699 82.3258C143.524 82.1417 143.427 81.8976 143.427 81.6438C143.427 81.39 143.524 81.1459 143.699 80.9618C143.873 80.7776 144.112 80.6675 144.365 80.654C146.962 80.5688 149.516 79.9673 151.878 78.8844C154.003 77.945 155.91 76.2972 158.234 75.9682C158.974 75.8646 160.02 76.4666 159.639 77.3766H159.638Z" fill="#111111"/><path d="M136.836 180.016C131.936 177.652 125.538 173.407 124.154 168.116C124.088 167.899 123.961 167.705 123.788 167.557C123.615 167.41 123.403 167.316 123.178 167.286C122.953 167.257 122.724 167.293 122.519 167.391C122.313 167.488 122.141 167.643 122.021 167.836C109.533 188.163 102.85 201.243 98.7814 208.649C95.1638 205.72 94.5814 203.701 93.1464 202.105C92.5626 201.459 91.654 202.157 91.794 202.892C92.3778 205.944 95.434 208.516 98.094 209.902C96.8072 212.191 95.7718 214.612 95.0056 217.123C94.769 217.973 95.8554 218.291 96.3286 217.683C99.0992 214.075 104.041 202.376 117.281 180.113C119.228 186.22 126.014 190.064 131.914 191.365C133.594 191.734 134.308 189.155 132.626 188.786C129.563 188.136 126.7 186.761 124.278 184.776C121.859 182.753 120.523 180.145 118.751 177.653C120 175.576 121.319 173.413 122.709 171.163C124.555 175.479 130.764 180.34 135.81 181.255C134.923 195.452 131.342 209.35 125.258 222.208C119.863 233.408 110.138 245.522 96.2432 244.07C74.5026 241.78 64.004 202.86 83.1252 180.384C93.2472 168.484 107.246 163.822 116.601 158.025C116.716 157.955 116.802 157.846 116.843 157.718C116.885 157.59 116.879 157.451 116.826 157.327C116.774 157.203 116.678 157.103 116.557 157.043C116.436 156.984 116.298 156.97 116.168 157.004C106.052 160.168 91.4006 168.104 83.1812 176.756C78.6432 181.666 75.2114 187.493 73.1172 193.843C71.023 200.193 70.3153 206.918 71.0418 213.564C72.9528 233.778 84.2018 245.624 96.8018 246.683C96.6323 249.851 96.963 253.027 97.7818 256.092C98.269 257.947 101.177 266.986 101.968 268.734C102.506 270.282 103.402 271.681 104.584 272.817C105.242 273.316 106.465 272.731 106.214 271.837C104.965 267.322 101.628 266.567 98.6988 246.763C107.732 246.74 117.252 241.216 124.406 229.32C133.009 215.015 137.426 197.659 138.007 181.063C138.017 180.912 137.994 180.76 137.937 180.62C137.88 180.479 137.791 180.354 137.678 180.253C137.565 180.151 137.431 180.078 137.285 180.037C137.139 179.996 136.985 179.989 136.836 180.016Z" fill="#111111"/></svg>