<svg viewBox="0 0 280 280" fill="none" xmlns="http://www.w3.org/2000/svg"><g clip-path="url(#clip0_5383_31743)"><path d="M122.484 170.706C119.039 166.105 118.74 160.264 119.023 154.28C119.158 151.106 119.532 147.946 120.141 144.828C117.713 143.724 115.6 142.03 113.994 139.899C109.522 133.867 110.379 124.662 114.941 118.745C119.822 112.414 128.979 111.361 136.259 117.217C138.707 119.48 140.801 122.1 142.471 124.987C144.374 127.76 144.025 128.532 147.864 129.566C150.196 129.983 152.288 131.257 153.731 133.139C154.81 134.759 155.4 136.656 155.429 138.604C155.593 142.237 154.034 145.317 153.881 148.182C158.684 152.691 155.651 161.475 149.604 163.099C148.851 166.724 148.791 170.458 149.427 174.105C149.441 174.183 149.478 174.257 149.532 174.316C149.587 174.374 149.657 174.416 149.734 174.437C149.812 174.457 149.893 174.455 149.97 174.43C150.046 174.406 150.113 174.36 150.164 174.298C150.641 173.688 151.318 172.948 151.832 172.399C154.953 168.894 158.747 166.054 162.986 164.048C173.429 159.397 185.427 162.203 190.99 172.549C193.998 178.144 194.553 184.407 194.793 189.83C194.908 192.434 194.986 195.06 194.986 197.658C200.641 187.917 202.766 183.727 205.732 184.207C209.476 176.239 209.557 169.015 222 160.94C221.832 153.648 220.309 146.452 217.509 139.719C215.52 140.586 213.455 141.271 211.342 141.763C198.436 145.184 185.238 148.31 171.926 147.424C169.971 147.294 169.651 146.594 169.67 145.142C169.776 136.973 169.556 123.021 167.753 115.075C166.4 109.099 162.261 99.8622 159.479 94.4121C145.871 91.8776 127.541 92.6471 110.516 97.598C110.08 100.354 109.85 103.138 109.829 105.928C109.249 118.348 104.792 130.272 97.0853 140.02C96.1857 141.129 95.786 141.209 94.6785 140.967C83.9105 138.476 73.3261 135.247 63 131.303C67.2548 145.077 66.1207 160.763 72.3059 173.941C74.234 177.772 76.4316 181.462 78.882 184.981C75.8239 186.731 72.6502 188.27 69.3829 189.588C70.3786 190.43 71.319 191.336 72.1983 192.3C76.5939 196.887 80.6365 201.801 84.2915 207C85.3239 199.423 88.5139 187.208 92.4589 179.902C96.4792 172.455 102.487 168.366 111.22 168.366C114.964 168.293 118.656 169.259 121.885 171.159C122.266 171.391 122.73 171.035 122.484 170.706Z" fill="#E04747"/><path d="M46.1715 194.788C40.3447 197.805 34.2901 201.218 28.7709 204.828C27.5139 205.54 26.3185 206.358 25.1973 207.273C21.9645 202.63 19.5271 197.466 17.9877 192C17.3313 192.143 16.6678 192.251 16 192.322C16.0638 192.515 16.1059 192.73 16.1915 192.944C17.744 198.389 20.1881 203.531 23.4214 208.154C23.512 208.28 23.6293 208.384 23.7646 208.458C23.8999 208.532 24.0498 208.574 24.2034 208.582C24.2098 208.647 24.2295 208.71 24.2614 208.766C24.2933 208.823 24.3366 208.872 24.3885 208.911C24.4404 208.949 24.4997 208.976 24.5626 208.99C24.6254 209.003 24.6904 209.003 24.7533 208.99C26.3866 208.465 27.9227 207.669 29.299 206.634C34.1871 203.69 42.0278 199.1 47 196.617C46.6997 196.012 46.4254 195.411 46.1715 194.788Z" fill="#111111"/><path d="M7.37229 146.403C9.27685 152.962 10.6394 159.665 11.4464 166.444C12.1134 166.423 12.7774 166.401 13.4503 166.401C12.1282 156.859 10.5089 146.935 6.27353 138.282C5.23143 135.727 3.40785 133.56 1.0592 132.086C1.03702 132.086 1.03702 132.065 1.01632 132.065C9.24596 128.653 20.1035 122.534 42.5416 115.078C46.7755 113.67 46.7785 113.409 48.1449 114.843C53.4739 120.559 57.469 127.367 59.8468 134.785C65.0567 150.791 62.2026 166.526 72.5824 183.396C70.2816 184.101 68.0223 184.933 65.8154 185.889C65.8582 185.953 65.8804 186.018 65.9233 186.081C66.3773 186.024 66.8384 186.078 67.2664 186.238C67.6945 186.399 68.0766 186.66 68.3796 187C71.7809 185.617 72.754 185.504 73.5732 184.692C74.3275 185.034 75.404 184.223 74.845 183.346C60.1056 160.198 71.1613 138.315 50.6663 114.757C49.3989 113.301 48.1005 111.713 45.9474 112.044C43.2855 112.453 12.7715 123.326 0.262117 131.168C0.177423 131.229 0.10922 131.309 0.06358 131.403C0.0179396 131.496 -0.00372216 131.599 0.000522719 131.703C0.0047676 131.806 0.034788 131.907 0.0879108 131.997C0.141034 132.086 0.215611 132.161 0.305003 132.215C0.235668 132.269 0.179262 132.338 0.139796 132.416C0.10033 132.495 0.0787726 132.581 0.076655 132.669C0.0745375 132.756 0.0919119 132.843 0.127544 132.923C0.163176 133.004 0.216191 133.075 0.28282 133.133C4.13811 136.53 5.87129 141.659 7.37229 146.403Z" fill="#111111"/><path d="M98.0641 214.11C98.151 214.11 98.151 214.003 98.0641 214.003C97.9786 213.98 97.9786 214.11 98.0641 214.11Z" fill="#111111"/><path d="M94.7649 87.2156C94.147 86.7176 93.4045 86.3982 92.6179 86.2921C91.3477 86.0064 87.3778 85.2066 85.1881 84.8325C81.9048 84.1136 78.5625 83.697 75.2031 83.5879C75.0731 83.5917 74.9486 83.6414 74.8518 83.7283C74.755 83.8152 74.6922 83.9336 74.6745 84.0624C74.6569 84.1912 74.6855 84.3221 74.7553 84.4319C74.8251 84.5416 74.9316 84.623 75.0558 84.6616C78.24 85.6533 81.4898 86.4206 84.7814 86.9579C85.0496 87.0109 91.8045 88.3336 92.0609 88.3748C92.8444 88.603 93.6746 88.6178 94.4658 88.4175C94.5791 88.3737 94.6802 88.3033 94.7605 88.2122C94.8409 88.1211 94.8982 88.0121 94.9275 87.8942C94.9568 87.7764 94.9574 87.6532 94.9291 87.5351C94.9008 87.417 94.8445 87.3074 94.7649 87.2156Z" fill="#111111"/><path d="M93.5828 97.3904C92.3568 96.4801 90.8346 96.9279 78.9384 94.7068C77.3455 94.2678 75.6939 94.08 74.0431 94.15C73.5495 94.2355 73.5701 94.9218 73.9135 95.1575C75.7731 96.4168 86.2119 98.0267 88.409 98.3773C89.9121 98.5923 91.9456 99.2153 93.4118 98.635C93.5361 98.5939 93.6464 98.5188 93.7301 98.4182C93.8138 98.3176 93.8676 98.1956 93.8854 98.066C93.9032 97.9363 93.8843 97.8043 93.8308 97.6849C93.7773 97.5655 93.6914 97.4635 93.5828 97.3904Z" fill="#111111"/><path d="M92.124 109.045C91.5155 108.579 90.7986 108.275 90.0404 108.161C88.6449 107.796 78.4507 106.08 76.706 105.822C74.9181 105.415 73.0871 105.228 71.2537 105.264C70.738 105.319 70.3946 106.037 70.9325 106.273C72.5677 106.9 74.2672 107.345 76.0001 107.599C77.6137 107.93 87.9273 109.84 89.2918 110.002C90.1479 110.204 91.0407 110.189 91.8897 109.96C91.9777 109.929 92.0567 109.876 92.1196 109.807C92.1826 109.739 92.2277 109.655 92.2508 109.565C92.274 109.474 92.2745 109.38 92.2524 109.289C92.2303 109.198 92.1862 109.115 92.124 109.045Z" fill="#111111"/><path d="M49.8427 136.605C48.8297 136.431 47.7877 136.598 46.8793 137.078C31.1842 142.616 27.8584 143.319 25.4063 145.406C24.9761 145.792 25.4491 146.651 26.0076 146.415C30.8394 144.446 39.6205 141.936 47.5881 139.011C48.5106 138.688 49.6924 138.41 50.2066 137.529C50.2537 137.446 50.2816 137.354 50.2883 137.259C50.295 137.164 50.2804 137.069 50.2455 136.98C50.2106 136.892 50.1563 136.812 50.0866 136.747C50.0169 136.682 49.9335 136.634 49.8427 136.605Z" fill="#111111"/><path d="M50.1634 147.894C48.3819 147.701 46.5134 148.667 44.8379 149.183C33.764 152.658 31.4063 152.005 30.3659 154.419C30.1729 154.914 30.7947 155.235 31.1602 155.042C32.5126 154.466 33.935 154.069 35.3908 153.864C37.61 153.41 41.6403 152.391 45.8532 151.054C47.5804 150.736 49.2029 149.999 50.5775 148.906C50.6577 148.823 50.7119 148.718 50.7336 148.604C50.7553 148.49 50.7435 148.373 50.6997 148.265C50.6558 148.158 50.5818 148.066 50.4866 148C50.3915 147.934 50.2792 147.898 50.1634 147.894Z" fill="#111111"/><path d="M258.61 92.4973C258.144 91.9507 257.48 91.6107 256.764 91.5517C252.783 90.594 248.916 89.2113 245.231 87.4276C243.986 86.8708 242.505 85.7971 241.088 86.0754C240.722 86.1402 240.629 86.6837 240.895 86.9592C242.032 87.9268 243.314 88.7092 244.695 89.2775C248.315 91.1113 252.133 92.5228 256.075 93.4841C256.434 93.6415 256.82 93.7245 257.212 93.728C257.603 93.7316 257.991 93.6556 258.352 93.5048C258.52 93.4051 258.641 93.2431 258.689 93.0543C258.738 92.8654 258.709 92.6651 258.61 92.4973Z" fill="#111111"/><path d="M252.829 99.9866C252.035 98.9777 250.324 98.9143 249.136 98.742C241.225 97.4635 238.379 95.1231 236.918 95.3543C236.843 95.3646 236.772 95.3934 236.711 95.438C236.65 95.4826 236.602 95.5418 236.57 95.6099C236.538 95.6781 236.523 95.7533 236.528 95.8285C236.532 95.9037 236.555 95.9767 236.595 96.0407C236.97 96.5857 237.502 97.0046 238.12 97.2426C241.313 98.9009 244.748 100.044 248.298 100.63C249.669 101.037 251.1 101.205 252.529 101.125C252.643 101.093 252.747 101.031 252.831 100.947C252.914 100.862 252.974 100.757 253.004 100.642C253.035 100.527 253.034 100.406 253.004 100.291C252.973 100.176 252.913 100.071 252.829 99.9866Z" fill="#111111"/><path d="M248.556 105.439C246.766 104.261 245.048 105.292 236.274 102.37C234.971 101.798 233.61 101.366 232.216 101.081C231.765 101.029 231.249 101.619 231.7 102.027C234.069 104.111 240.677 105.849 244.025 106.445C245.445 106.89 246.959 106.941 248.406 106.593C248.522 106.555 248.625 106.485 248.703 106.392C248.78 106.298 248.83 106.184 248.846 106.064C248.862 105.943 248.843 105.82 248.791 105.71C248.74 105.599 248.659 105.505 248.556 105.439Z" fill="#111111"/><path d="M222.702 132.16C222.616 130.866 218.35 108.754 217.977 106.899C215.223 93.1548 213.409 84.911 206.447 74.5742C205.669 73.4179 204.754 72.3987 203.934 71.2896C203.888 71.2261 203.826 71.1752 203.755 71.1415C203.683 71.1078 203.605 71.0924 203.526 71.0966C203.465 71.072 203.399 71.0575 203.333 71.0539C200.012 70.927 196.687 71.1502 193.413 71.7197C184.343 72.8303 174.551 74.8305 166.299 78.9089C163.431 80.2317 160.746 81.9199 158.311 83.9315C158.178 83.8854 158.035 83.8805 157.9 83.9175C157.764 83.9544 157.644 84.0315 157.553 84.1385C157.462 84.2455 157.406 84.3774 157.392 84.5169C157.378 84.6564 157.407 84.7969 157.474 84.9198C159.278 88.5255 161.115 92.1371 162.712 95.8444C168.37 108.976 171.22 123.144 171.079 137.441C170.902 139.728 170.938 142.028 171.187 144.309C171.302 144.994 172.239 144.867 172.453 144.329C173.058 144.509 173.675 144.645 174.299 144.737C180.3 145.206 186.337 144.823 192.23 143.6C200.782 141.754 209.133 139.073 217.161 135.595C218.994 134.927 220.769 134.108 222.466 133.147C222.616 133.037 222.722 132.878 222.765 132.697C222.808 132.516 222.786 132.326 222.702 132.16ZM174.924 143.128C174.187 143.101 173.464 143.192 172.755 143.235C173.054 141.614 173.191 139.968 173.163 138.32C173.486 123.951 170.749 109.677 165.132 96.4453C163.499 92.4322 161.494 88.5805 159.143 84.9405C161.501 83.6532 163.803 82.2981 166.23 81.1418C182.411 73.4297 198.615 73.8583 203.421 72.6417C203.84 73.5314 204.306 74.3982 204.817 75.2385C208.735 80.868 211.528 87.2019 213.04 93.8913C216.545 107.065 219.684 127.789 221.134 131.945C215.948 133.4 196.185 143.913 174.924 143.128Z" fill="#111111"/><path d="M215.057 17.4378C215.043 17.3673 215.016 17.3002 214.976 17.2405C214.936 17.1807 214.884 17.1294 214.825 17.0896C214.765 17.0498 214.698 17.0221 214.627 17.0083C214.556 16.9946 214.484 16.9949 214.413 17.0092C214.348 16.8747 214.248 16.76 214.123 16.6769C213.999 16.5938 213.854 16.5453 213.705 16.5364C212.433 16.4687 211.129 16.8929 207.477 17.89C203.118 19.0801 200.867 19.7532 195.174 21.4515C193.461 21.8186 191.801 22.4037 190.236 23.1925C188.785 22.7344 189.255 24.8569 188.798 28.3005C188.729 28.8145 188.626 29.3315 188.54 29.8456C188.493 29.7455 188.424 29.657 188.339 29.5865C188.254 29.516 188.154 29.4651 188.047 29.4376C183.311 28.0855 179.808 28.4669 174.002 23.0201C168.018 17.4069 165.031 12.5758 163.889 11.5801C163.857 11.4704 163.802 11.3688 163.727 11.282C163.653 11.1952 163.561 11.1252 163.457 11.0766C163.354 11.028 163.241 11.0019 163.127 11.0001C163.012 10.9983 162.899 11.0208 162.794 11.0661C162.008 11.3271 161.269 11.7109 160.603 12.2031C139.131 27.0971 128.972 29.6291 128.242 31.0887C127.833 31.046 127.384 31.4319 127.533 31.862C128.443 34.255 129.595 36.5493 130.969 38.7095C141.035 55.698 156.453 62.2936 175.118 59.8074C181.696 59.1073 188.024 56.8963 193.606 53.3472C203.027 46.9519 216.499 28.1193 215.057 17.4378ZM204.558 39.0527C202.441 42.0798 200.055 44.9099 197.429 47.5086C185.397 59.202 164.53 61.0593 150.703 54.6345C140.478 49.8874 136.37 43.7454 130.624 34.3085C130.154 33.5352 129.68 32.8356 129.166 32.1197C135.982 30.1902 157.413 17.2257 163.114 12.9529C166.026 17.2412 169.372 21.2184 173.099 24.8215C177.097 28.6134 182.329 30.8383 187.835 31.0887C187.995 31.0985 188.154 31.0533 188.285 30.9606C185.017 43.0929 172.993 53.5313 163.824 54.5491C161.871 54.5836 159.92 54.7267 157.983 54.9777C157.688 55.0455 157.576 55.5581 157.877 55.6862C159.579 56.2752 161.385 56.5088 163.182 56.3726C168.71 56.2739 172.971 53.7317 177.397 50.2556C182.693 46.1057 186.803 40.6357 189.314 34.3954C190.721 31.2686 191.256 27.8194 190.861 24.4135C192.924 24.387 194.113 23.7433 207.868 19.9285C209.84 19.5068 211.783 18.9617 213.687 18.2965C212.35 25.8459 209.219 32.9642 204.558 39.0527Z" fill="#111111"/><path d="M118.535 71.5255C117.611 70.4528 116.429 69.634 115.1 69.1467C110.437 66.8976 86.6494 59.4256 75.7391 58.1147C74.7739 57.9983 73.8234 58.0293 72.8833 58.0072C72.8388 58.0029 72.7941 58.0106 72.7536 58.0293C72.7236 57.9555 72.6769 57.8897 72.6173 57.837C72.5576 57.7842 72.4866 57.7459 72.4097 57.7251C72.3329 57.7043 72.2522 57.7015 72.1741 57.717C72.096 57.7324 72.0225 57.7657 71.9593 57.8142C70.0475 59.0432 68.3864 60.6236 67.0641 62.4715C63.2225 67.528 61.3172 74.489 60.4713 80.7797C58.9403 92.2389 59.9983 105.318 53.8579 115.59C54.3516 116.149 54.8025 116.749 55.2755 117.35C65.5345 100.942 57.7231 80.9491 67.9011 64.6367C69.2739 62.5855 70.8263 60.6602 72.5399 58.8836C72.5932 58.9364 72.66 58.9736 72.733 58.9911C73.4432 59.1767 74.1505 59.4609 74.88 59.6347C75.0273 59.6701 101.664 65.4174 113.274 70.5814C115.91 71.7597 116.332 72.2472 117.054 72.5344C113.835 75.115 111.25 78.3967 109.494 82.1289C102.689 95.5088 107.694 107.78 101.057 122.738C99.1585 127.038 96.5769 131.003 93.4117 134.479C82.3323 131.435 71.2446 128.444 60.1486 125.507C60.5141 126.301 60.8574 127.117 61.158 127.932C62.9838 128.425 90.5382 135.847 93.4765 136.69C93.656 136.74 93.8455 136.742 94.0264 136.697C94.2072 136.652 94.3732 136.561 94.508 136.432C112.621 117.48 103.97 100.652 110.221 85.3914C112.536 79.7413 115.673 76.6409 118.337 73.5006C118.453 73.3598 118.519 73.1852 118.527 73.0033C118.535 72.8214 118.483 72.6418 118.38 72.4917C118.525 72.3815 118.622 72.2195 118.651 72.0396C118.68 71.8596 118.638 71.6755 118.535 71.5255Z" fill="#111111"/><path d="M279.713 74.2754C279.684 74.1748 279.635 74.081 279.569 73.9998C279.502 73.9185 279.42 73.8515 279.327 73.8026C279.334 73.5806 279.268 73.3624 279.14 73.1806C279.013 72.9988 278.83 72.8631 278.619 72.7937C277.304 72.3813 277.375 72.4829 268.914 70.6698C247.819 66.1465 240.449 63.9474 239.28 64.5307C239.193 64.5191 239.104 64.525 239.019 64.5478C238.933 64.5707 238.854 64.6102 238.784 64.664C238.714 64.7177 238.655 64.7848 238.612 64.8613C238.568 64.9378 238.54 65.0221 238.528 65.1096C237.892 71.5903 236.947 76.4156 226.202 85.3723C222.9 88.1237 219.503 90.8441 216.41 93.8282C216.557 94.6442 216.733 95.4381 216.883 96.2541C220.675 92.4643 223.635 90.2019 227.92 86.6169C234.109 81.4426 241.268 73.7334 239.924 65.7547C241.305 66.2963 242.726 66.7267 244.175 67.042C251.248 68.7948 263.466 71.5535 268.398 72.6228C271.6 73.3166 274.839 74.2327 278.103 74.6393C277.953 75.5258 277.882 76.4238 277.889 77.3229C277.4 89.0163 272.251 102.16 263.458 109.84C260.108 112.421 257.249 115.584 255.019 119.177C252.675 122.785 251.395 126.981 251.327 131.283C248.276 128.232 226.299 121.285 222.209 119.949C222.402 120.744 222.617 121.559 222.832 122.375C248.382 130.355 248.472 132.449 250.746 132.848C250.907 132.882 251.074 132.868 251.227 132.807C251.38 132.745 251.512 132.641 251.605 132.505C251.658 132.547 251.72 132.575 251.787 132.587C251.853 132.598 251.922 132.593 251.986 132.572C252.05 132.551 252.108 132.514 252.154 132.465C252.2 132.415 252.233 132.355 252.25 132.29C253.124 128.28 254.511 124.4 256.376 120.744C258.991 116.178 261.398 114.281 264.858 111.235C274.115 103.087 279.323 89.5244 279.933 77.9017C280.071 76.6894 279.996 75.4624 279.713 74.2754Z" fill="#111111"/><path d="M126.696 149.288C126.499 149.23 126.288 149.249 126.104 149.34C125.921 149.432 125.779 149.59 125.707 149.782C125.572 149.874 125.456 149.99 125.364 150.125C125.2 150.33 125.098 150.576 125.067 150.836C125.037 151.097 125.08 151.36 125.192 151.597C125.304 151.834 125.48 152.035 125.7 152.177C125.92 152.319 126.176 152.396 126.438 152.401C127.766 152.345 128.259 149.904 126.696 149.288Z" fill="#111111"/><path d="M134.404 150.362C134.201 150.515 134.038 150.713 133.926 150.94C133.814 151.168 133.757 151.418 133.76 151.671C133.778 152.024 133.93 152.357 134.186 152.6C134.442 152.844 134.781 152.98 135.135 152.981C135.929 152.948 136.305 152.165 136.358 151.456C136.404 151.127 136.336 150.791 136.164 150.506C135.992 150.221 135.727 150.004 135.413 149.891C135.216 149.829 135.004 149.843 134.817 149.93C134.63 150.017 134.482 150.171 134.404 150.362Z" fill="#111111"/><path d="M130.261 155.126C130.609 153.273 131.396 151.477 131.571 149.61C131.613 149.159 131.013 149.116 130.777 149.394C129.612 150.959 128.805 154.769 128.521 156.693C128.388 157.594 128.178 158.755 129.423 158.902C130.012 158.945 130.605 158.871 131.165 158.683C131.725 158.495 132.243 158.197 132.687 157.808C132.763 157.729 132.815 157.629 132.835 157.521C132.855 157.413 132.842 157.301 132.798 157.2C132.755 157.099 132.683 157.013 132.59 156.953C132.498 156.894 132.39 156.862 132.28 156.864C131.469 156.988 130.665 157.159 129.874 157.378C129.872 157.226 130.23 155.28 130.261 155.126Z" fill="#111111"/><path d="M127.314 164.656C127.568 164.243 127.912 163.893 128.32 163.633C128.729 163.373 129.191 163.209 129.672 163.153C129.974 163.105 130.284 163.149 130.56 163.281C130.836 163.412 131.065 163.625 131.218 163.89C131.443 164.346 131.412 164.812 131.776 165.199C131.836 165.258 131.908 165.302 131.986 165.329C132.065 165.355 132.149 165.364 132.232 165.354C132.315 165.343 132.394 165.314 132.464 165.269C132.534 165.224 132.592 165.163 132.636 165.092C132.785 164.708 132.827 164.291 132.755 163.886C132.683 163.481 132.5 163.103 132.227 162.795C131.941 162.459 131.581 162.193 131.175 162.018C130.769 161.843 130.329 161.764 129.887 161.786C128.535 161.786 126.516 162.795 126.666 164.383C126.716 164.656 127.102 164.913 127.314 164.656Z" fill="#111111"/><path d="M148.662 178.416C148.095 178.659 147.566 178.984 147.094 179.382C143.774 181.295 140.113 182.541 136.315 183.052C133.849 183.184 131.384 182.773 129.094 181.85C128.684 181.655 128.296 181.417 127.935 181.142C129.204 178.425 129.822 175.449 129.738 172.452C130.646 172.613 131.574 172.627 132.487 172.494C135.111 172.062 137.548 170.86 139.487 169.039C139.72 168.727 139.928 168.397 140.109 168.052C140.454 167.537 139.77 166.814 139.252 167.194C137.411 168.787 135.24 169.952 132.895 170.606C131.76 170.873 130.579 170.866 129.448 170.586C128.316 170.306 127.268 169.761 126.389 168.996C122.138 165.304 122.164 158.994 122.263 153.843C122.331 150.408 122.646 146.953 122.907 143.52C122.904 143.402 122.86 143.289 122.781 143.202C122.703 143.114 122.595 143.057 122.479 143.042C122.362 143.026 122.244 143.052 122.145 143.116C122.046 143.18 121.974 143.277 121.94 143.39C120.689 149.178 119.951 157.543 121.203 163.18C121.561 165.109 122.38 166.923 123.592 168.466C124.803 170.01 126.371 171.238 128.16 172.044C127.924 173.503 127.846 175.007 127.516 176.443C127.222 177.678 126.863 178.896 126.442 180.093C126.354 180.064 126.26 180.057 126.168 180.071C126.076 180.086 125.989 180.122 125.914 180.176C125.838 180.23 125.777 180.302 125.735 180.384C125.692 180.467 125.67 180.559 125.67 180.651C125.957 183.718 131.921 184.961 135.482 185.008C139.797 184.633 143.976 183.314 147.723 181.145C148.434 180.676 149.226 180.179 149.419 179.299C149.462 179.188 149.473 179.067 149.453 178.95C149.432 178.833 149.381 178.723 149.303 178.633C149.226 178.542 149.125 178.474 149.012 178.436C148.9 178.398 148.778 178.391 148.662 178.416Z" fill="#111111"/><path d="M229.875 165.73C233.346 164.663 240.034 160.057 252.703 159.806C253.812 159.924 254.935 159.83 256.009 159.528C256.108 159.469 256.19 159.386 256.246 159.286C256.303 159.186 256.333 159.074 256.333 158.959C256.333 158.844 256.303 158.731 256.246 158.631C256.19 158.532 256.108 158.448 256.009 158.389C254.96 157.972 253.822 157.831 252.703 157.981C246.799 158.062 240.966 159.279 235.524 161.567C233.309 162.351 231.262 163.545 229.489 165.087C229.43 165.148 229.393 165.228 229.383 165.312C229.374 165.397 229.392 165.483 229.436 165.556C229.48 165.629 229.547 165.686 229.626 165.718C229.706 165.749 229.793 165.754 229.875 165.73Z" fill="#111111"/><path d="M260.345 163.133C259.382 162.82 258.356 162.754 257.361 162.94C252.063 163.394 246.812 164.291 241.664 165.622C239.573 166.042 237.556 166.765 235.674 167.768C235.591 167.822 235.527 167.901 235.491 167.994C235.456 168.086 235.451 168.188 235.477 168.284C235.503 168.379 235.559 168.464 235.637 168.526C235.715 168.588 235.81 168.623 235.91 168.627C238.487 168.49 240.896 167.394 248.064 166.095C257.364 164.408 258.959 165.089 260.346 164.248C260.707 164.028 260.795 163.326 260.345 163.133Z" fill="#111111"/><path d="M257.431 170.817C256.225 170.161 254.833 169.934 253.481 170.171C249.76 170.254 243.416 170.702 239.953 172.147C239.85 172.178 239.76 172.245 239.701 172.336C239.642 172.426 239.616 172.535 239.629 172.642C239.642 172.75 239.692 172.849 239.771 172.924C239.85 172.998 239.953 173.042 240.061 173.048C244.081 173.144 245.46 172.331 253.159 172.147C254.469 172.116 256.208 172.404 257.325 171.588C257.391 171.552 257.448 171.5 257.49 171.438C257.533 171.375 257.561 171.304 257.571 171.229C257.581 171.154 257.574 171.078 257.55 171.006C257.525 170.935 257.485 170.87 257.431 170.817Z" fill="#111111"/><path d="M253.645 177.665C248.951 176.027 241.469 177.481 236.209 178.481C230.821 179.504 226.138 180.471 222.551 184.791C221.733 185.77 221.034 186.844 220.469 187.988C220.06 188.73 219.749 189.523 219.545 190.345C215.693 188.644 211.742 187.175 207.714 185.945C210.095 183.757 211.492 176.805 214.134 172.552C218.153 166.08 225.057 162.213 231.892 158.794C232.639 158.545 233.291 158.073 233.761 157.442C233.816 157.342 233.844 157.23 233.844 157.117C233.843 157.003 233.813 156.891 233.757 156.792C233.701 156.694 233.621 156.611 233.524 156.551C233.427 156.492 233.316 156.459 233.202 156.455C232.546 156.456 231.903 156.65 231.356 157.013C229.482 157.966 228.813 158.192 225.58 160.018C212.136 167.615 211.1 174.663 208.443 181.459C207.736 182.847 207.14 184.29 206.662 185.773C206.298 185.734 205.931 185.727 205.566 185.752C205.461 185.561 205.286 185.419 205.078 185.354C204.869 185.29 204.644 185.31 204.45 185.409C202.642 186.504 196.101 198.15 195.066 200.004C194.011 201.892 193.002 203.802 192.038 205.735C192.457 200.121 192.507 194.485 192.185 188.865C191.922 183.284 191.337 177.547 188.649 172.552C183.527 163.058 172.619 160.938 163.46 165.041C158.84 167.273 154.776 170.506 151.563 174.505C151.118 175.078 150.737 175.696 150.426 176.351C150.385 176.426 150.371 176.512 150.389 176.596C150.406 176.679 150.453 176.754 150.52 176.806C150.588 176.858 150.672 176.884 150.757 176.879C150.842 176.875 150.923 176.84 150.984 176.781C151.41 176.391 151.929 176.045 152.337 175.622C153.575 174.235 154.894 172.923 156.288 171.694C158.147 170.037 160.177 168.584 162.344 167.357C170.786 162.718 181.509 163.97 186.545 172.488C189.246 177.062 189.953 182.468 190.259 187.706C190.875 198.272 190.146 202.415 190.473 207.258C190.488 207.41 190.55 207.554 190.65 207.669C190.75 207.784 190.883 207.866 191.032 207.902C189.117 211.906 187.635 216.103 186.611 220.422C186.181 221.972 185.992 223.579 186.052 225.187C186.057 225.288 186.097 225.384 186.165 225.458C186.233 225.533 186.326 225.581 186.426 225.594C186.527 225.607 186.628 225.584 186.713 225.529C186.798 225.474 186.861 225.391 186.891 225.294C187.89 222.908 188.326 218.159 192.343 209.387C196.105 201.553 200.463 194.019 205.377 186.851C207.167 187.856 207.397 187.379 213.666 189.944C219.626 192.383 220.623 192.855 221.203 192.971C219.749 206.598 217.578 220.139 214.697 233.538C212.68 242.707 210.658 252.7 203.315 258.929C202.277 259.941 201.036 260.722 199.674 261.222C198.313 261.721 196.861 261.927 195.414 261.826C189.209 261.003 184.305 254.151 182.315 247.961C182.27 247.786 182.171 247.63 182.032 247.514C181.894 247.399 181.722 247.33 181.542 247.317C181.671 246.18 181.792 245.041 181.885 243.904C182.738 233.547 182.585 212.791 180.512 207.759C180.477 207.645 180.403 207.546 180.302 207.481C180.201 207.417 180.081 207.389 179.962 207.405C179.844 207.421 179.734 207.478 179.654 207.566C179.573 207.655 179.527 207.769 179.523 207.889C179.219 210.483 180.692 217.299 180.597 230.919C180.484 241.84 179.261 252.72 176.947 263.394C176.701 264.485 176.652 265.562 176.517 266.677C176.417 267.493 177.61 267.534 177.843 266.87C178.219 265.954 178.534 265.015 178.788 264.058C179.772 259.583 180.588 254.989 181.17 250.45C183.233 255.645 186.892 260.689 192.075 262.921C193.44 263.539 194.919 263.862 196.417 263.869C197.916 263.876 199.398 263.568 200.769 262.964C209.412 259.121 213.294 248.087 215.456 238.924C217.149 231.734 218.596 224.459 219.794 217.183C220.738 211.456 222.711 198.506 222.758 192.498C222.756 192.338 222.7 192.182 222.598 192.058C222.497 191.933 222.356 191.847 222.199 191.812C221.946 191.504 221.611 191.273 221.233 191.146C221.764 189.501 222.57 187.957 223.617 186.58C226.929 182.406 230.926 181.594 236.027 180.612C247.246 178.454 245.868 179.205 253.572 178.724C253.689 178.699 253.795 178.636 253.873 178.546C253.952 178.455 253.999 178.342 254.007 178.222C254.016 178.102 253.985 177.983 253.92 177.883C253.854 177.782 253.758 177.706 253.645 177.665Z" fill="#111111"/><path d="M103.913 170.729C99.5476 172.442 95.9894 175.738 93.9485 179.958C88.6716 189.667 85.1674 207.694 85.5314 212.197C81.1487 205.41 76.153 199.039 70.607 193.164C69.482 191.839 68.1982 190.656 66.7846 189.644C66.76 189.472 66.6707 189.317 66.5351 189.209C66.3994 189.102 66.2277 189.05 66.0551 189.065C65.5209 189.127 64.9995 189.272 64.5093 189.494C63.2505 186.604 61.6655 183.868 59.7851 181.338C50.0904 166.935 46.8854 167.921 30.8175 163.996C29.8644 163.694 28.8702 163.542 27.8703 163.545C27.709 163.547 27.5526 163.601 27.4252 163.7C27.2978 163.799 27.2064 163.937 27.1651 164.093C27.1237 164.249 27.1347 164.414 27.1964 164.563C27.2581 164.712 27.3669 164.837 27.5064 164.918C29.0491 165.645 30.6923 166.138 32.381 166.378C40.0892 168.304 43.1852 168.673 46.4241 170.241C54.1103 173.999 58.2128 183 63.5383 189.989C59.4904 192.369 55.8268 195.348 52.6721 198.826C51.5124 195.994 50.2245 193.202 48.9793 190.391C47.8624 187.901 46.8102 185.235 43.8041 184.704C42.4701 184.522 41.1162 184.543 39.7886 184.767C35.8218 185.303 17.2282 188.177 14.365 189.684C14.2632 189.749 14.1847 189.845 14.1409 189.958C14.0971 190.07 14.0901 190.194 14.1211 190.311C14.152 190.428 14.2193 190.532 14.3132 190.608C14.407 190.684 14.5227 190.729 14.6435 190.735C16.1801 190.708 17.7081 190.499 19.1954 190.112C22.6008 189.48 38.29 186.596 41.7411 186.442C42.9232 186.289 44.1193 186.588 45.0906 187.278C45.9466 188.199 46.5993 189.289 47.0062 190.478C47.2272 190.964 51.1764 199.839 51.5743 200.243C51.5109 200.35 51.4461 200.436 51.3813 200.537C51.3606 200.56 51.3606 200.58 51.3385 200.602C51.2469 200.597 51.1552 200.612 51.0703 200.647C50.9853 200.682 50.9092 200.735 50.8474 200.803C50.7857 200.871 50.7399 200.952 50.7135 201.04C50.687 201.127 50.6806 201.22 50.6946 201.311C51.1882 202.984 51.7025 204.616 52.09 206.319C53.8893 214.506 55.9213 228.761 62.6998 242.163C68.2552 253.229 79.0123 266.797 91.0441 263.626C97.4865 261.909 101.823 256.478 105.043 250.899C106.075 255.188 107.311 259.682 108.522 263.797C108.875 265.582 109.567 267.282 110.562 268.805C110.948 269.256 111.593 268.848 111.636 268.354C111.588 266.746 111.246 265.16 110.626 263.675C103.618 240.428 102.606 225.705 100.684 219.488C100.657 219.397 100.599 219.319 100.519 219.268C100.44 219.217 100.345 219.196 100.251 219.209C100.157 219.222 100.072 219.268 100.009 219.339C99.9465 219.41 99.9116 219.501 99.9106 219.595C99.5746 226.106 102.911 241.955 104.399 248.317C101.371 253.555 97.8711 259.156 91.9444 261.389C80.5699 265.728 70.1355 252.587 64.5875 241.836C57.5261 228.115 55.4675 212.801 53.7228 205.734C53.3918 204.143 52.7939 202.619 51.9545 201.227C51.9751 201.205 51.9972 201.205 52.0178 201.184C54.4492 199.66 59.343 194.135 64.6228 191.417C65.1017 191.171 65.5674 190.967 66.0183 190.709C66.8517 191.824 67.7631 192.879 68.7459 193.865C85.5668 212.266 90.8392 226.144 94.5143 232.199C94.8783 232.8 95.9098 232.413 95.674 231.704C94.0723 226.418 88.8956 217.286 86.1827 213.203C86.3021 213.186 86.4155 213.14 86.5128 213.069C86.6102 212.997 86.6886 212.903 86.7412 212.795C87.6371 210.413 88.2752 196.749 94.3419 183.219C98.3427 174.273 104.647 169.816 114.635 171.671C119.587 172.576 121.795 174.969 124.684 178.625C125.006 179.012 125.672 178.582 125.521 178.132C122.919 170.932 112.691 167.683 103.913 170.729Z" fill="#111111"/><path d="M34.9212 171.502C32.8401 170.647 30.6217 170.175 28.3727 170.107C22.1348 169.414 15.8504 169.234 9.58308 169.57C9.04814 169.634 8.53451 169.818 8.08003 170.107C7.58639 170.3 7.77648 170.973 8.20824 171.138C8.73723 171.367 9.30756 171.483 9.88369 171.482C16.0016 171.228 22.1298 171.408 28.2224 172.019C30.3962 172.411 32.6109 172.526 34.8137 172.362C34.9025 172.337 34.9818 172.286 35.0419 172.216C35.1019 172.146 35.1401 172.059 35.1515 171.968C35.163 171.876 35.1473 171.783 35.1063 171.7C35.0654 171.618 35.001 171.549 34.9212 171.502Z" fill="#111111"/><path d="M25.8147 176.228C20.9092 175.222 12.193 176.273 7.24764 176.98C6.32476 177.004 5.42325 177.263 4.62762 177.731C4.5125 177.802 4.42046 177.905 4.36261 178.027C4.30477 178.149 4.28361 178.285 4.30169 178.419C4.31978 178.554 4.37633 178.679 4.46451 178.782C4.55269 178.885 4.66872 178.959 4.79856 178.997C6.26329 179.399 6.89251 178.679 15.2993 177.988C18.799 177.694 22.3636 177.751 25.8221 177.172C25.9239 177.142 26.0131 177.079 26.0762 176.993C26.1393 176.908 26.1729 176.804 26.1721 176.698C26.1713 176.591 26.136 176.488 26.0716 176.404C26.0071 176.319 25.917 176.257 25.8147 176.228Z" fill="#111111"/><path d="M26.78 181.418C25.2704 181.006 23.6802 180.992 22.1633 181.375C18.0768 181.783 14.0232 182.472 10.0313 183.437C9.26307 183.554 8.54205 183.881 7.94768 184.381C7.90308 184.43 7.87152 184.49 7.85589 184.554C7.84026 184.619 7.84106 184.686 7.85821 184.75C7.87537 184.814 7.90833 184.873 7.95409 184.921C7.99984 184.969 8.05691 185.005 8.12008 185.025C8.79402 185.212 9.50529 185.22 10.1831 185.047C10.827 184.96 17.4655 183.81 22.1647 183.309C24.885 183.014 25.9047 183.12 26.7815 182.536C26.8778 182.477 26.9575 182.395 27.0127 182.297C27.0679 182.199 27.0969 182.089 27.0968 181.976C27.0966 181.864 27.0674 181.753 27.0119 181.655C26.9564 181.557 26.8765 181.476 26.78 181.418Z" fill="#111111"/><path d="M153.102 150.51C152.719 149.616 152.055 148.87 151.211 148.386C151.304 147.815 152.763 138.438 152.736 137.825C152.82 136.292 152.363 134.778 151.445 133.546C150.527 132.315 149.206 131.444 147.711 131.085C144.43 130.093 143.155 130.212 140.454 125.807C138.919 122.904 136.883 120.295 134.44 118.1C131.745 115.826 128.304 114.626 124.778 114.73C114.064 115.319 109.497 129.886 115.265 137.761C118.821 142.621 125.138 144.072 131.113 143.664C133.362 143.556 135.593 143.21 137.769 142.633C138.162 146.923 140.02 150.947 143.03 154.03C143.153 154.146 143.303 154.229 143.467 154.271C143.63 154.312 143.802 154.312 143.965 154.269C144.129 154.226 144.278 154.142 144.4 154.026C144.522 153.909 144.613 153.763 144.663 153.602C145.363 150.625 146.824 149.204 149.988 149.308C153.206 151.062 151.768 157.369 147.862 158.259C145.753 158.739 145.162 157.609 144.039 157.551C143.923 157.549 143.809 157.575 143.704 157.625C143.6 157.675 143.508 157.749 143.437 157.84C143.366 157.932 143.316 158.038 143.293 158.152C143.27 158.265 143.273 158.383 143.303 158.495C143.597 159.555 145.055 160.049 146.136 160.169C145.284 162.834 144.837 165.612 144.81 168.41C144.759 171.593 145.201 174.764 146.12 177.812C146.187 178.017 146.33 178.189 146.521 178.291C146.711 178.393 146.934 178.417 147.142 178.359C147.35 178.301 147.527 178.164 147.637 177.978C147.747 177.792 147.78 177.571 147.731 177.361C146.176 171.776 146.014 165.895 147.258 160.233C152.238 159.972 154.732 153.949 153.102 150.51ZM119.373 137.267C117.546 137.87 115.565 133.93 115.163 131.773C114.721 129.417 114.783 125.161 116.453 123.509C116.503 123.46 116.566 123.426 116.634 123.409C116.703 123.393 116.774 123.394 116.842 123.414C116.909 123.434 116.97 123.471 117.019 123.522C117.067 123.572 117.102 123.635 117.119 123.703C117.413 125.73 116.341 127.59 117.054 131.15C117.891 135.332 119.796 134.947 119.93 136.538C119.926 136.703 119.87 136.862 119.77 136.993C119.67 137.124 119.531 137.22 119.373 137.267Z" fill="#111111"/></g><defs><clipPath id="clip0_5383_31743"><rect width="280" height="280" fill="white"/></clipPath></defs></svg>