<svg viewBox="0 0 280 276" fill="none" xmlns="http://www.w3.org/2000/svg"><path d="M140.98 65.1C142.514 64.7774 144.075 64.6058 145.642 64.5876C145.932 64.554 145.898 64.092 145.642 64.0276C144.017 63.8218 142.366 63.9791 140.809 64.4882C140.736 64.517 140.675 64.5721 140.64 64.6429C140.604 64.7137 140.597 64.7951 140.618 64.8713C140.639 64.9475 140.688 65.0131 140.755 65.0554C140.822 65.0976 140.902 65.1135 140.98 65.1Z" fill="#111111"/><path d="M176.827 82.7176C176.489 82.2154 176.054 81.7868 175.546 81.4576C173.372 79.548 174.286 77.3318 166.513 75.2584C164.003 74.592 161.473 73.6708 158.914 73.2102C158.828 73.1853 158.736 73.1956 158.657 73.2388C158.579 73.282 158.521 73.3545 158.496 73.4405C158.471 73.5265 158.482 73.6188 158.525 73.6971C158.568 73.7755 158.64 73.8335 158.726 73.8584C160.656 74.5248 162.688 74.9784 164.651 75.5384C166.974 76.188 169.569 76.5982 171.584 78.015C172.635 78.9331 173.55 79.9966 174.3 81.1734C174.722 81.651 175.185 82.0909 175.683 82.488C176.042 82.796 176.45 83.342 175.921 83.7186C175.537 83.9155 175.106 84.004 174.675 83.9748C173.407 84.2164 172.181 84.6408 171.035 85.2348C169.327 85.8662 167.45 85.218 165.759 84.8148C158.493 83.0844 157.592 82.474 154.797 81.8958C154.736 81.8798 154.671 81.8888 154.616 81.9207C154.562 81.9526 154.522 82.0048 154.506 82.0659C154.49 82.127 154.499 82.1919 154.531 82.2464C154.563 82.3009 154.615 82.3404 154.676 82.3564C156.793 83.251 163.862 85.0304 165.929 85.5148C167.543 86.1138 169.286 86.2789 170.983 85.9936C171.65 85.7512 172.301 85.466 172.931 85.1396C173.736 84.8362 174.582 84.6577 175.441 84.6104C176.365 84.4592 177.325 83.72 176.827 82.7176Z" fill="#E04747"/><path d="M78.9824 118.663C79.0051 118.663 79.0268 118.654 79.0428 118.638C79.0588 118.622 79.0678 118.6 79.0678 118.577C79.0678 118.555 79.0588 118.533 79.0428 118.517C79.0268 118.501 79.0051 118.492 78.9824 118.492C78.9598 118.492 78.938 118.501 78.922 118.517C78.906 118.533 78.897 118.555 78.897 118.577C78.897 118.6 78.906 118.622 78.922 118.638C78.938 118.654 78.9598 118.663 78.9824 118.663Z" fill="#E04747"/><path d="M181.471 188.416C177.524 180.051 169.351 174.185 162.226 173.1C161.569 169.916 161.277 166.668 161.356 163.418C161.391 162.376 161.561 161.335 161.578 160.293C162.126 160.387 162.687 160.357 163.222 160.206C163.757 160.056 164.251 159.788 164.669 159.422C166.011 158.011 165.998 155.288 163.32 155.016C160.352 154.728 147.601 154.839 141.702 155.119C141.043 155.037 140.373 155.089 139.734 155.271C139.094 155.453 138.498 155.762 137.98 156.178C136.228 158.101 137.721 161.389 141.34 160.618C141.92 163.905 142.229 167.235 142.262 170.573C142.174 171.572 142.146 172.575 142.177 173.578C142.119 173.549 142.054 173.537 141.989 173.544C118.147 176.064 113.228 209.913 128.829 226.034C145.548 243.334 179.914 235.295 184.206 208.6C185.345 201.75 184.391 194.716 181.471 188.416ZM164.72 231.636C154.406 235.904 141.873 235.136 132.8 228.357C113.824 214.161 117.488 177.359 142.003 174.294C142.057 174.294 142.792 174.096 142.857 173.936C143.618 171.763 142.857 159.747 141.576 160.003C140.667 160.217 139.711 160.102 138.879 159.678C138.533 159.444 138.27 159.107 138.126 158.715C137.982 158.323 137.965 157.895 138.076 157.493C138.606 155.735 140.757 155.922 142.226 155.87C145.842 155.719 162.476 155.399 163.877 155.904C164.23 156.041 164.516 156.311 164.673 156.655C164.83 157 164.846 157.393 164.717 157.749C164.359 159.429 162.821 159.662 161.357 159.541C161.314 159.523 161.267 159.514 161.219 159.516C161.172 159.517 161.126 159.529 161.084 159.55C161.042 159.571 161.004 159.601 160.975 159.638C160.946 159.675 160.924 159.718 160.913 159.764C160.41 162.05 160.271 164.401 160.503 166.73C160.523 169.01 160.839 171.277 161.442 173.475C161.42 173.528 161.411 173.585 161.415 173.642C161.42 173.699 161.438 173.754 161.468 173.803C161.498 173.852 161.54 173.892 161.589 173.921C161.638 173.951 161.693 173.968 161.75 173.971C168.375 174.944 174.437 179.431 178.262 184.797C187.625 197.698 186.311 222.694 164.72 231.636Z" fill="#E04747"/><path d="M157.48 196.84C157.496 196.413 157.413 195.989 157.237 195.6C157.062 195.21 156.798 194.867 156.468 194.597C156.138 194.326 155.749 194.136 155.333 194.041C154.917 193.946 154.484 193.948 154.069 194.048C153.654 194.148 153.267 194.342 152.94 194.616C152.613 194.89 152.353 195.237 152.182 195.628C152.011 196.019 151.932 196.444 151.953 196.871C151.973 197.297 152.092 197.713 152.3 198.086C153.671 201.006 157.413 199.374 157.48 196.84Z" fill="#111111"/><path d="M172.06 205.971C166.474 188.471 166.48 188.331 165.554 186.371C165.235 185.485 164.728 184.678 164.067 184.006C163.407 183.334 162.61 182.813 161.729 182.477C159.305 181.811 156.572 183.075 154.284 183.792C150.564 184.94 151.654 184.468 139.275 188.658C133.602 190.565 129.979 191.366 128.995 194.345C128.083 197.102 129.2 200.021 133.434 212.275C136.094 219.96 136.226 220.931 137.362 223.733C138.971 227.699 143.651 225.495 148.324 224.057C156.919 221.425 149.584 223.758 162.992 219.225C170.81 216.619 173.085 215.916 173.853 214.017C174.495 212.369 173.544 210.911 172.06 205.971ZM131.2 202.86C129.332 197.371 128.078 193.652 133.386 191.607C134.595 191.142 159.583 181.836 162.483 183.753C164.688 185.192 165.921 189.707 166.718 192.221C168.049 196.371 169.375 200.521 170.696 204.67C168.706 203.434 166.629 202.344 164.48 201.408C162.558 200.448 160.999 200.745 159.972 204.191C158.946 207.638 157.531 207.885 155.652 207.18C149.3 204.814 142.555 199.23 139.84 201.187C139.401 201.557 139.046 202.017 138.799 202.535C137.33 205.08 135.384 208.17 133.847 210.795C133.01 208.156 132.101 205.512 131.2 202.86Z" fill="#111111"/><path d="M212.72 124.895C212.72 124.366 212.617 114.001 212.566 109.322C212.535 105.262 212.807 99.7654 209.783 97.8124C207.665 96.4474 204.677 96.8562 202.286 96.8744C199.384 96.8744 196.463 96.7708 193.578 96.9934C191.239 96.908 188.866 97.027 186.526 97.0956C180.548 97.2356 176.844 96.9556 175.017 99.4868C173.317 101.888 173.54 105.259 173.975 117.928C174.255 125.663 174.093 126.976 174.35 130.018C174.728 134.331 179.913 133.518 184.733 133.553C194.902 133.553 196.419 133.339 200.186 133.262C208.519 133.085 210.826 133.073 212.086 131.487C213.116 130.222 212.72 128.489 212.72 124.895ZM211.866 129.471C211.666 131.851 209.373 132.033 207.444 132.152C202.525 132.443 197.54 132.17 192.639 132.682C188.626 132.493 184.596 132.733 180.583 132.63C178.704 132.579 175.75 132.835 175.263 130.445C175.148 129.885 175.048 124.743 174.58 108.263C174.404 102.367 174.37 98.5418 180.009 98.154C184.517 97.8474 189.077 98.0854 193.568 97.594C201.986 98.2086 207.941 96.5664 210.132 99.274C211.812 101.266 211.665 106.004 211.686 108.615C211.736 113.225 211.826 122.475 211.826 122.475C211.833 124.793 212.059 127.184 211.866 129.471Z" fill="#E04747"/><path d="M201.45 110.278C201.592 109.874 201.639 109.443 201.586 109.019C201.533 108.594 201.382 108.187 201.146 107.831C200.909 107.474 200.593 107.177 200.223 106.963C199.852 106.75 199.437 106.625 199.009 106.599C198.582 106.572 198.155 106.646 197.761 106.813C197.367 106.98 197.017 107.236 196.739 107.561C196.461 107.886 196.262 108.271 196.157 108.687C196.053 109.102 196.047 109.535 196.139 109.953C196.525 113.039 200.627 112.769 201.45 110.278Z" fill="#E04747"/><path d="M208.69 118.72C206.367 116.399 204.453 114.775 202.167 117.201C201.194 118.259 200.442 120.103 198.752 120.07C196.993 120.018 195.405 118.311 194.193 117.218C188.44 112 185.944 108.317 183.26 109.253C181.777 110.015 180.448 111.046 179.34 112.293C177.82 113.659 176.386 115.077 175 116.579C174.777 116.819 175.119 117.177 175.358 116.938C176.519 115.844 177.698 114.736 178.875 113.659C181.924 110.872 183.338 109.302 185.006 110.019C187.302 111.017 194.173 119.129 197.186 120.47C197.697 120.731 198.269 120.851 198.842 120.818C199.415 120.785 199.97 120.6 200.448 120.282C201.473 119.547 201.988 118.335 202.906 117.482C204.546 115.963 206.185 117.466 207.466 118.661C208.586 119.69 210.826 122.205 211.086 122.538C211.189 122.657 211.393 122.555 211.308 122.417C210.747 120.991 209.848 119.723 208.69 118.72Z" fill="#E04747"/><path d="M266.116 87.36C265.954 84.084 266.048 80.5938 264.05 79.1C262.79 78.1424 261.01 78.246 259.507 78.1606C245.706 77.3486 230.446 77.4606 216.597 77.8694C207.712 78.1592 207.018 78.022 205.633 78.673C203.183 79.8322 203.328 83.1432 203.209 87.353C203.141 89.3456 203.175 91.3404 203.311 93.3296C203.311 93.3953 203.337 93.4583 203.383 93.5048C203.43 93.5513 203.493 93.5774 203.559 93.5774C203.624 93.5774 203.687 93.5513 203.734 93.5048C203.78 93.4583 203.806 93.3953 203.806 93.3296C204.021 81.256 203.825 79.3296 207.819 79.0202C212.32 78.6408 239.756 77.847 260.19 79.0538C262.017 79.156 263.794 79.275 264.562 81.1888C265.011 82.6247 265.225 84.124 265.194 85.6282C265.614 92.827 265.663 100.313 265.416 106.597C265.227 111.644 262.366 111.121 255.221 111.191C249.95 111.227 216.769 111.317 215.601 111.447C215.055 111.481 215.055 112.335 215.601 112.3C217.12 112.19 258.136 112.087 260.477 111.958C266.732 111.665 266.206 108.364 266.3 104.154C266.427 99.7388 266.398 93.0552 266.116 87.36Z" fill="#111111"/><path d="M257.715 86.9526C258.09 86.9022 258.09 86.3212 257.715 86.3716C257.715 86.3716 215.096 86.3716 214.666 86.3212C214.308 86.2862 214.222 86.9022 214.581 86.9526C216.805 87.2956 254.565 87.3026 257.715 86.9526Z" fill="#111111"/><path d="M257.629 93.1854C257.527 93.198 227.081 93.1 227.286 93.1336C226.876 93.0832 226.688 93.681 227.115 93.7664C228.824 94.1136 253.526 93.989 253.667 93.9876C255.043 94.0107 256.418 93.9312 257.782 93.7496C258.16 93.681 258.006 93.1392 257.629 93.1854Z" fill="#111111"/><path d="M257.629 101.006C257.404 101.006 256.967 100.937 255.238 100.937C254.825 100.937 236.016 100.962 235.806 100.92C235.722 100.898 235.633 100.909 235.557 100.953C235.482 100.996 235.427 101.067 235.404 101.151C235.382 101.235 235.393 101.325 235.437 101.4C235.48 101.475 235.551 101.531 235.635 101.553C243.007 101.927 250.394 101.921 257.765 101.535C258.16 101.485 258.005 100.92 257.629 101.006Z" fill="#111111"/><path d="M208.946 144.088C208.135 144.189 207.354 144.454 206.649 144.867C205.945 145.281 205.332 145.834 204.85 146.493C204.367 147.152 204.024 147.902 203.841 148.698C203.659 149.495 203.641 150.32 203.79 151.123C203.881 152.272 204.349 153.358 205.121 154.214C208.025 157.373 213.676 155.716 214.991 151.823C215.263 150.902 215.31 149.93 215.131 148.987C214.951 148.044 214.549 147.157 213.958 146.401C213.366 145.644 212.603 145.04 211.732 144.638C210.86 144.235 209.905 144.047 208.946 144.088Z" fill="#111111"/><path d="M244.976 143.08C240.015 140.167 235.98 141.614 211.968 141.441C209.854 141.343 207.736 141.417 205.633 141.662C203.828 141.934 202.126 142.676 200.697 143.811C199.268 144.947 198.162 146.437 197.488 148.134C196.879 149.779 196.847 151.582 197.396 153.248C197.945 154.914 199.043 156.344 200.511 157.304C205.204 160.271 216.373 159.628 226.722 159.848C235.162 160.035 246.711 160.276 248.818 152.027C249.236 150.321 249.088 148.525 248.395 146.911C247.702 145.296 246.502 143.952 244.976 143.08ZM242.158 157.508C236.838 159.432 231.098 158.956 216.937 158.789C212.037 158.728 203.414 158.789 200.067 155.8C195.912 152.067 198.068 144.32 205.275 142.738C208.268 142.078 227.434 142.467 231.673 142.318C234.744 142.058 237.834 142.167 240.878 142.642C250.327 144.605 250.195 154.605 242.158 157.51V157.508Z" fill="#111111"/><path d="M273 163.691C272.992 158.158 272.983 57.7024 272.812 55.1754C272.696 52.833 271.92 50.5712 270.572 48.6514C268.642 46.0488 266.486 45.5994 263.315 45.493C255.615 45.3054 178.875 44.933 176.998 44.947C175.368 44.8553 173.733 44.9696 172.131 45.2872C169.471 46.0054 168.186 48.3784 167.759 50.9404C167.09 55.1264 167.502 67.6956 167.793 72.233C167.828 72.6768 168.511 72.695 168.493 72.233C168.353 66.213 168.255 61.4222 168.424 55.3462C168.483 52.738 168.477 49.0952 170.472 47.2682C171.823 46.2687 173.499 45.8121 175.169 45.9886C175.309 45.9886 262.307 46.2686 265.311 46.6704C266.733 46.9175 268.052 47.5769 269.102 48.5667C270.153 49.5566 270.889 50.8333 271.221 52.2382C272.108 55.0718 271.852 58.1966 271.886 61.1338C271.914 65.3632 271.897 162.096 272.083 170.488C272.038 176.316 272.005 184.449 269.648 187.939C268.742 189.136 267.582 190.117 266.25 190.811C264.918 191.505 263.449 191.895 261.948 191.951C255.352 192.496 224.218 192.511 213.111 192.345C203.907 192.205 194.72 191.815 185.531 191.645C185.087 191.593 185.087 192.296 185.548 192.328C203.652 193.563 250.965 193.476 261.604 192.822C264.409 192.737 267.097 191.674 269.202 189.818C270.875 188.017 271.918 185.722 272.174 183.277C273.101 177.996 273.007 169.572 273 163.691Z" fill="#111111"/><path d="M92.1312 135.482C91.3744 135.065 90.5558 134.771 89.7064 134.611C87.1018 133.783 84.4325 133.175 81.7264 132.791C81.3512 132.756 81.3162 133.304 81.641 133.423C83.741 134.11 85.7472 134.352 89.4614 135.489C90.2545 135.818 91.087 136.042 91.938 136.156C92.0162 136.154 92.0919 136.127 92.1539 136.079C92.2159 136.032 92.261 135.965 92.2826 135.89C92.3041 135.815 92.3011 135.735 92.2739 135.661C92.2466 135.588 92.1966 135.525 92.1312 135.482Z" fill="#111111"/><path d="M90.0312 139.205C88.7146 138.725 87.344 138.41 85.9502 138.265C84.6482 137.955 83.3065 137.846 81.9714 137.941C81.613 138.009 81.6634 138.522 81.9714 138.624C82.5422 138.763 83.1258 138.843 83.713 138.863C87.8234 139.31 88.193 139.678 89.894 139.768C90.167 139.784 90.3196 139.325 90.0312 139.205Z" fill="#111111"/><path d="M58.219 96.089C59.1248 96.2024 60.599 95.7292 60.6774 94.6708C60.6785 94.629 60.6696 94.5875 60.6514 94.5499C60.6332 94.5123 60.6062 94.4795 60.5728 94.4545C60.5393 94.4294 60.5004 94.4127 60.4591 94.4057C60.4179 94.3988 60.3756 94.4018 60.3358 94.4146C59.6526 94.6708 59.2774 95.2686 58.457 95.2546C58.041 95.2326 57.6425 95.0802 57.3179 94.8192C56.9932 94.5581 56.759 94.2016 56.6482 93.8C56.6233 93.7116 56.5644 93.6368 56.4843 93.5919C56.4042 93.547 56.3096 93.5357 56.2212 93.5606C56.1328 93.5855 56.058 93.6444 56.0131 93.7245C55.9682 93.8046 55.9569 93.8992 55.9818 93.9876C56.0892 94.5273 56.3626 95.02 56.7637 95.3968C57.1648 95.7735 57.6736 96.0155 58.219 96.089Z" fill="#111111"/><path d="M52.003 84.3066C51.9615 84.1399 51.8756 83.9876 51.7543 83.8659C51.6331 83.7442 51.4811 83.6577 51.3145 83.6156C51.148 83.5735 50.9731 83.5774 50.8086 83.6268C50.6441 83.6763 50.4961 83.7694 50.3804 83.8964C50.2318 84.0022 50.1091 84.1402 50.0212 84.3C49.9333 84.4599 49.8825 84.6374 49.8727 84.8196C49.8629 85.0017 49.8943 85.1837 49.9645 85.3521C50.0347 85.5204 50.1419 85.6708 50.2782 85.792C50.3723 85.8884 50.4852 85.9643 50.61 86.0151C50.7348 86.0659 50.8687 86.0904 51.0033 86.0871C51.138 86.0838 51.2705 86.0528 51.3927 85.996C51.5148 85.9392 51.6239 85.8579 51.7132 85.757C51.8825 85.5608 51.9982 85.3241 52.049 85.0699C52.0998 84.8158 52.0839 84.5528 52.003 84.3066Z" fill="#111111"/><path d="M61.5146 81.4198C61.366 81.5257 61.2433 81.6636 61.1554 81.8235C61.0675 81.9833 61.0167 82.1609 61.0069 82.343C60.9971 82.5251 61.0285 82.7071 61.0987 82.8755C61.1689 83.0438 61.2761 83.1942 61.4124 83.3154C61.5416 83.4475 61.7047 83.5414 61.8838 83.5868C62.0628 83.6321 62.251 83.6271 62.4274 83.5724C62.6039 83.5177 62.7618 83.4154 62.8839 83.2766C63.0059 83.1379 63.0872 82.9682 63.119 82.7862C63.6244 81.7138 62.3 80.486 61.5146 81.4198Z" fill="#111111"/><path d="M42.14 105.549C41.4918 111.231 43.3692 116.801 45.129 122.129C45.1508 122.198 45.1895 122.26 45.2417 122.31C45.2939 122.36 45.3578 122.396 45.4276 122.415C45.4973 122.433 45.5707 122.434 45.6408 122.417C45.711 122.4 45.7757 122.365 45.829 122.317C51.989 116.218 54.3998 114.499 56.329 112.447C57.4688 114.645 58.2944 116.992 58.7818 119.42C59.3278 121.52 61.6504 129.92 62.1978 132.038C62.846 134.497 63.4102 136.973 64.2292 139.381C64.2454 139.406 64.2689 139.424 64.2963 139.435C64.3237 139.445 64.3536 139.446 64.3819 139.439C64.4102 139.431 64.4354 139.415 64.4539 139.392C64.4725 139.37 64.4835 139.342 64.4854 139.313C64.0416 136.769 63.3248 134.273 62.692 131.765C59.4804 119.015 59.052 115.28 56.938 112.025C56.9105 111.983 56.8748 111.947 56.8331 111.919C56.7913 111.891 56.7444 111.872 56.695 111.862C56.6457 111.853 56.5949 111.853 56.5457 111.863C56.4966 111.874 56.45 111.894 56.4088 111.923C56.3893 111.887 56.3621 111.856 56.3293 111.832C56.2964 111.807 56.2587 111.791 56.2187 111.783C56.1787 111.774 56.1373 111.775 56.0976 111.785C56.0579 111.794 56.0208 111.812 55.9888 111.838C53.851 113.369 47.4138 119.595 45.7086 121.264C44.0356 116.175 42.4984 111 42.8064 105.571C42.8498 105.104 42.182 105.12 42.14 105.549Z" fill="#111111"/><path d="M69.6416 115.709C68.8016 111.877 67.0922 106.935 64.5708 103.909C64.2908 103.568 63.7854 103.995 63.9898 104.37C65.919 107.793 67.4618 109.83 68.6518 115.161C65.0827 113.761 61.5025 112.378 57.911 111.013C57.4672 110.842 57.2796 111.559 57.7066 111.73C61.4959 113.267 65.2979 114.781 69.1124 116.271C69.454 116.374 69.706 116 69.6416 115.709Z" fill="#111111"/><path d="M88.5276 102.714C82.8873 99.7266 76.4918 98.4673 70.14 99.0934C69.5086 95.3876 68.7918 90.5534 68.194 87.0212C68.1865 86.9704 68.169 86.9217 68.1426 86.8777C68.1161 86.8338 68.0813 86.7954 68.04 86.765C69.6698 85.4686 70.7296 83.5876 70.994 81.522C71.6732 76.7993 70.6696 71.9881 68.159 67.9308C68.1243 67.8703 68.0747 67.8196 68.0149 67.7836C67.9551 67.7476 67.8871 67.7274 67.8174 67.725C67.186 67.8104 66.5714 67.8958 65.94 68.005C65.94 67.9882 65.94 67.9882 65.9232 67.9714C65.0055 65.63 63.5649 63.5294 61.7114 61.8298C59.8579 60.1303 57.6405 58.8768 55.2285 58.1651C52.8166 57.4534 50.2739 57.3024 47.7946 57.7235C45.3153 58.1446 42.9651 59.1267 40.9234 60.5948C26.6434 70.5208 30.0538 92.3482 28.3234 105.727C21.0252 108.447 15.9698 111.22 12.0666 117.97C9.08459 123.56 7.43537 129.764 7.2478 136.097C5.9136 157.114 9.436 190.198 29.7024 195.64C29.5134 195.829 29.1424 226.709 29.3776 228.63C29.4112 228.938 29.9376 229.092 29.9922 228.715C30.3604 226.156 30.3002 193.679 30.3002 195.794C37.4738 197.428 45.0408 194.86 51.0202 190.414C55.804 186.599 59.9934 182.093 63.4508 177.044C68.8114 169.747 73.899 161.942 77.658 155.529C77.7204 155.42 77.7375 155.291 77.7055 155.17C77.6735 155.048 77.5951 154.945 77.4872 154.881C76.377 154.181 75.2836 153.497 74.1748 152.796C77.0602 149.654 82.2682 147.606 82.593 142.856C84.6116 143.07 86.6177 143.389 88.6032 143.812C88.6916 143.837 88.7862 143.826 88.8663 143.781C88.9464 143.736 89.0053 143.661 89.0302 143.573C89.0551 143.484 89.0438 143.39 88.9989 143.31C88.954 143.23 88.8792 143.171 88.7908 143.146C86.6303 142.517 84.41 142.116 82.166 141.95C82.0545 141.954 81.9487 142 81.8705 142.08C81.7923 142.159 81.7477 142.266 81.746 142.377C81.746 147.176 76.1964 149.208 73.43 152.317C70.9716 150.763 64.26 146.545 63.3724 145.982C71.4826 135.39 64.0836 128.815 79.2526 129.471C82.6592 129.666 86.033 130.244 89.3102 131.194C89.7036 131.279 90.027 130.665 89.6 130.494C84.5392 128.812 79.1714 128.258 73.8738 128.873C72.841 128.932 71.8357 129.228 70.9356 129.738C70.0354 130.248 69.2646 130.958 68.6826 131.813C66.5826 135.184 67.6228 139.269 62.7746 145.61C62.0823 145.064 61.3182 144.615 60.5038 144.277C60.1433 144.195 59.7685 144.198 59.4096 144.287C59.0507 144.376 58.7177 144.548 58.4374 144.789C51.5061 149.071 45.0641 154.099 39.2266 159.782C38.002 156.422 37.0094 152.981 36.2558 149.485C36.1704 149.143 35.5726 149.195 35.6244 149.57C36.1224 153.304 37.1109 156.956 38.5644 160.432C35.1772 163.76 32.0327 167.326 29.155 171.104C28.8484 171.496 29.5316 172.025 29.8382 171.633C37.9263 161.321 47.7709 152.517 58.919 145.627C59.1389 145.425 59.4147 145.294 59.7101 145.251C60.0056 145.208 60.3071 145.256 60.5752 145.387C60.725 145.471 74.2378 153.987 76.5912 155.48C71.5694 163.911 61.859 178.976 54.649 186.045C43.211 197.208 31.15 197.264 23.5032 191.628C14.6146 185.102 10.5896 171.895 9.0748 160.926C8.25769 154.585 7.90955 148.193 8.0332 141.802C8.1004 135.362 8.5456 128.807 10.8668 122.728C12.8709 117.201 16.7587 112.558 21.847 109.613C26.831 106.813 36.0234 103.55 43.3454 103.722C43.3912 103.723 43.4366 103.714 43.4778 103.694C43.519 103.674 43.5546 103.644 43.5816 103.607C43.6085 103.57 43.6259 103.527 43.6324 103.481C43.6388 103.436 43.634 103.39 43.6184 103.347C45.2522 100.687 43.9334 95.5626 43.3118 92.5036C43.2896 92.4287 43.2487 92.3608 43.1929 92.3062C43.1371 92.2516 43.0682 92.2122 42.9929 92.1917C42.9176 92.1712 42.8382 92.1703 42.7625 92.1891C42.6867 92.208 42.617 92.2458 42.56 92.2992C42.2723 92.6364 41.9061 92.8977 41.4936 93.06C41.0812 93.2224 40.6351 93.2808 40.1947 93.2302C39.7544 93.1796 39.3332 93.0215 38.9683 92.7698C38.6035 92.518 38.3061 92.1805 38.1024 91.7868C36.869 89.649 37.989 87.3418 39.3148 87.3292C39.438 87.3292 39.5682 87.3474 39.6228 87.3474H39.6564C40.0545 88.2377 40.5534 89.0795 41.1432 89.8562C43.7038 93.17 47.8632 92.708 51.4052 91.3962C54.586 90.2202 56.693 88.0754 59.1234 87.6232C59.9718 89.5748 59.5966 90.377 57.3818 89.894C57.3 89.8769 57.2147 89.8917 57.1435 89.9354C57.0722 89.9791 57.0204 90.0484 56.9985 90.1291C56.9767 90.2098 56.9865 90.2958 57.026 90.3695C57.0655 90.4431 57.1317 90.4989 57.211 90.5254C58.7818 91.0546 60.6088 90.5254 60.1314 88.5276C60.046 88.2028 59.9424 87.8794 59.8234 87.5476C62.776 87.5476 64.6772 88.4366 67.1482 87.2578C67.2219 88.3449 67.1417 89.4369 66.9102 90.5016C66.1948 93.7412 64.3482 97.3322 61.3774 98.8176C59.3307 99.7672 57.0149 99.9655 54.8366 99.3776C52.6239 98.6884 50.5574 97.5968 48.741 96.1576C48.3658 95.9014 47.9556 96.4656 48.2636 96.7722C51.4556 99.932 56.8036 101.553 61.0876 99.897C61.138 100.136 61.173 100.393 61.2402 100.632C59.9718 103.47 58.2664 106.091 56.1862 108.401C55.7424 108.879 55.5198 109.29 54.8198 109.169C52.9707 108.772 51.1881 108.112 49.5264 107.209C47.8745 106.306 46.2728 105.314 44.7286 104.237C44.506 104.097 44.2848 104.425 44.4486 104.595C47.6924 107.841 54.5048 110.137 55.377 109.974C56.1106 109.834 56.7252 108.882 57.1872 108.353C58.5514 106.802 59.7424 105.107 60.739 103.298C61.7694 101.444 61.369 101.984 61.6098 101.864C65.6058 100.328 69.8682 99.6047 74.1473 99.7367C78.4263 99.8686 82.636 100.853 86.5298 102.633C89.0359 103.837 91.3864 105.341 93.5298 107.113C93.905 107.369 94.2634 106.823 93.9904 106.533C92.3938 104.966 90.5477 103.675 88.5276 102.714ZM38.2396 78.0738C47.5678 73.8486 55.5786 70.2058 67.6102 68.5622C67.935 69.1222 68.2425 69.7027 68.5328 70.3038C58.1099 72.3336 48.0225 75.8128 38.5644 80.64C38.4118 79.7908 38.3034 78.9342 38.2396 78.0738ZM63.6482 87.0898C62.2579 86.8835 60.8536 86.7861 59.4482 86.7986C58.8513 85.3748 58.0951 84.0231 57.1942 82.7694C57.0066 82.53 56.6818 82.838 56.8008 83.076C57.2614 84.056 58.7482 86.681 58.7482 86.884C56.5838 87.3656 55.4246 88.5458 53.5234 89.544C50.4434 91.1498 45.6162 92.9418 42.6286 90.2608C40.516 88.3624 39.1832 84.1302 38.6666 81.347C48.2276 76.6165 58.357 73.1346 68.8058 70.987C71.7108 77.882 71.0738 87.6232 63.6482 87.0898Z" fill="#111111"/><path d="M77.8218 200.78C76.5581 189.891 74.6593 179.087 72.135 168.42C72.1058 168.361 72.0569 168.315 71.997 168.289C71.937 168.262 71.8698 168.258 71.8069 168.276C71.7439 168.294 71.6894 168.334 71.6526 168.388C71.6159 168.442 71.5993 168.507 71.6058 168.573C76.8684 191.8 78.449 215.235 79.38 221.06C79.4304 221.418 80.0282 221.333 80.0114 220.975C79.8252 217.42 78.1564 203.454 77.8218 200.78Z" fill="#111111"/><path d="M108.319 113.044C108.741 112.652 109.023 112.133 109.122 111.566C109.221 110.998 109.13 110.414 108.865 109.903C108.08 108.69 106.406 108.793 105.143 108.793C97.1824 108.793 88.8006 109.019 79.4262 109.544C77.805 109.647 75.7722 109.493 74.3862 110.551C71.9628 112.407 73.7758 116.151 78.673 115.076C78.7234 119.225 78.8606 123.358 79.0146 127.508C79.2694 127.508 79.5256 127.525 79.765 127.541C79.6628 124.758 79.3044 116.136 79.205 114.598C79.2017 114.54 79.1801 114.484 79.1432 114.438C79.1063 114.392 79.0559 114.359 78.9992 114.344C78.9426 114.328 78.8825 114.331 78.8274 114.352C78.7724 114.372 78.7252 114.41 78.6926 114.458C77.3094 114.629 75.5328 114.75 74.5094 113.639C74.2315 113.351 74.0747 112.967 74.0713 112.567C74.0679 112.167 74.2182 111.78 74.4912 111.488C75.5258 110.253 77.9198 110.393 81.2882 110.207C88.9882 109.806 96.3956 109.558 105.314 109.558C106.68 109.558 109.07 109.712 108.284 111.727C107.618 113.452 105.535 113.435 103.999 113.383C103.924 113.384 103.851 113.407 103.79 113.45C103.728 113.492 103.681 113.552 103.653 113.621C103.626 113.691 103.62 113.767 103.636 113.84C103.652 113.913 103.689 113.98 103.743 114.031C103.743 114.031 104.562 138.058 104.784 143.949C105.022 150.541 106.03 158.036 102.206 163.808C98.931 168.741 94.4412 169.595 88.7334 168.111C83.0466 166.66 81.2028 161.025 80.8262 155.749C80.6736 153.528 80.57 151.291 80.4846 149.054C80.2634 149.26 80.0408 149.464 79.8028 149.652C80.01 155.998 79.8028 163.243 84.805 167.121C87.7254 169.397 94.8122 170.621 98.945 168.127C106.425 163.638 105.981 153.922 105.707 146.339C105.577 142.773 104.675 115.419 104.461 114.139C105.145 114.234 105.841 114.186 106.505 113.997C107.17 113.809 107.787 113.484 108.319 113.044Z" fill="#E04747"/><path d="M103.622 146.632C103.658 146.582 103.681 146.524 103.689 146.463C103.696 146.402 103.689 146.34 103.667 146.283C103.645 146.225 103.61 146.174 103.563 146.134C103.517 146.094 103.461 146.066 103.401 146.052C100.915 146.052 83.4162 146.332 82.0736 146.359C81.9863 146.361 81.9021 146.392 81.8335 146.446C81.7648 146.5 81.7153 146.574 81.6922 146.658C81.6692 146.743 81.6738 146.832 81.7054 146.914C81.737 146.995 81.7939 147.064 81.8678 147.111C81.7278 152.876 82.2444 162.669 87.1794 165.859C88.6385 166.76 90.2897 167.304 91.9987 167.447C93.7077 167.589 95.4261 167.327 97.0144 166.68C99.7348 165.26 101.785 162.823 102.718 159.9C104.22 155.666 103.708 151.038 103.622 146.632Z" fill="#E04747"/><path d="M143.92 85.0738C144.388 87.4076 143.64 88.3708 142.401 90.4022C141.623 91.4777 141.162 92.7491 141.068 94.073C136.919 93.3562 132.77 92.5876 128.654 91.7168C129.558 89.1485 129.666 86.3671 128.962 83.7368C128.435 82.3395 127.985 80.9145 127.613 79.4682C127.538 78.6642 127.649 77.8538 127.936 77.0992C128.223 76.3445 128.679 75.6655 129.269 75.1142C135.656 67.3442 134.954 67.9742 135.502 67.6172C137.295 66.507 137.535 70.742 137.5 71.6646C137.333 75.7428 134.473 77.3164 136.133 79.8434C137.261 81.2182 137.829 82.9682 137.722 84.7434C137.722 85.1018 138.32 85.2208 138.37 84.8288C138.557 83.3771 138.269 81.9041 137.551 80.6288C137.06 80.011 136.657 79.3272 136.356 78.5974C135.971 76.8922 138.285 75.5804 138.285 71.2208C138.439 69.7591 138.016 68.2951 137.108 67.1398C136.066 66.2172 135.058 66.7632 134.289 67.6858C133.077 69.1544 129.184 73.7982 128.484 74.6858C128.279 70.4032 128.617 67.0908 132.404 64.9866C135.196 63.6303 138.234 62.8518 141.334 62.6976C142.394 62.6304 143.486 62.7326 144.544 62.6304C144.869 62.5954 145.006 62.083 144.63 62.0158C142.328 61.825 140.011 61.9626 137.749 62.4246C130.312 63.8876 126.946 66.9886 127.964 74.9588C127.968 74.9974 127.981 75.0345 128.002 75.0672C128.023 75.0998 128.051 75.127 128.085 75.1464C127.862 75.4544 127.639 75.761 127.435 76.0858C124.669 80.5014 130.48 83.5058 127.947 91.539C124.235 90.7746 124.228 90.615 124.037 90.958C119.059 101.09 114.802 111.561 111.297 122.293C110.662 121.546 109.927 120.891 109.112 120.345C108.156 119.61 107.123 118.98 106.032 118.468C105.973 118.441 105.909 118.429 105.844 118.433C105.952 119.619 105.328 118.275 108.679 121.045C109.4 121.803 110.183 122.5 111.019 123.129C110.694 124.222 110.404 125.315 110.131 126.407C110.124 126.473 110.14 126.538 110.177 126.593C110.214 126.647 110.268 126.687 110.331 126.706C110.394 126.724 110.462 126.72 110.522 126.693C110.582 126.667 110.631 126.62 110.66 126.561C114.408 114.577 119.041 102.888 124.52 91.5908C130.326 92.8886 136.165 94.066 142.02 95.074C142.412 108.786 142.498 123.026 137.204 135.936C131.884 148.939 125.224 152.384 117.345 153.303C113.876 153.705 110.377 153.779 106.894 153.524C106.877 153.797 106.861 154.084 106.844 154.364C107.988 154.398 109.148 154.449 110.293 154.466C123.463 154.829 130.711 151.448 136.709 139.047C143.357 125.247 143.322 109.857 142.856 94.7184C142.857 94.6258 142.828 94.5353 142.772 94.4612C142.717 94.387 142.639 94.3332 142.549 94.3082C142.241 94.2564 141.917 94.206 141.61 94.1542C141.814 92.2082 142.958 90.825 143.881 89.1338C144.315 88.5055 144.592 87.7823 144.69 87.0248C144.787 86.2673 144.702 85.4975 144.441 84.7798C144.348 84.4774 143.85 84.7168 143.92 85.0738Z" fill="#111111"/><path d="M102.035 167.278C101.796 167.513 101.545 167.735 101.283 167.943C101.31 168.097 106.798 199.41 107.397 201.769C107.482 202.077 107.995 202.026 107.957 201.685C107.715 199.228 102.434 169.526 102.035 167.278Z" fill="#111111"/><path d="M155.585 66.598C154.96 67.0881 154.495 67.7542 154.252 68.5104C151.859 67.4338 144.172 64.8704 141.582 64.0542C139.549 63.235 137.4 62.7376 135.213 62.58C129.094 62.6416 125.866 68.705 128.4 72.9624C132.096 68.446 123.421 79.0608 133.42 66.934C134.702 65.3856 136.44 64.939 137.945 66.269C140.195 68.271 139.733 73.3992 138.44 76.1376C137.928 77.1638 137.445 77.8778 137.553 78.3776C137.617 78.6394 137.599 78.5386 138.082 78.7542C141.671 80.2259 145.363 81.4299 149.129 82.3564C148.754 83.9104 148.583 85.7892 150.308 85.7892C150.776 85.7979 151.238 85.6866 151.65 85.4661C152.063 85.2455 152.412 84.923 152.664 84.5292C155.058 79.717 157.062 74.7208 158.658 69.5884C158.967 67.0236 156.929 65.7342 155.585 66.598Z" fill="#E04747"/></svg>