<svg viewBox="0 0 280 280" fill="none" xmlns="http://www.w3.org/2000/svg"><g clip-path="url(#clip0_5383_31741)"><path d="M103.966 161.103C107.44 159.122 111.135 146.553 109.235 142.461C107.828 139.428 103.482 139.444 102.913 142.461C102.869 142.679 102.91 142.905 103.027 143.094C103.144 143.283 103.329 143.42 103.543 143.477C103.758 143.535 103.987 143.509 104.183 143.404C104.379 143.299 104.527 143.124 104.599 142.914C104.925 141.723 106.891 141.682 107.443 143.967C108.207 147.13 105.479 156.925 102.806 159.648C102.649 159.812 102.556 160.028 102.545 160.255C102.535 160.482 102.607 160.706 102.749 160.884C102.891 161.061 103.092 161.182 103.316 161.222C103.54 161.262 103.771 161.22 103.966 161.103Z" fill="#111111"/><path d="M56.2063 117.412C58.0165 126.065 59.0742 134.859 59.3676 143.694C58.4825 156.931 59.6096 165.593 67.6819 174.673C67.8191 179.626 67.2821 183.66 67.2083 188.152C67.1921 189.132 68.7086 189.205 68.8738 188.247C69.513 184.491 69.8161 180.685 69.7796 176.876C73.8054 180.902 75.7335 181.418 81.562 181.09C85.2604 180.884 89.8866 180.101 92.3944 177.16C92.5006 180.322 92.8252 185.327 93.9021 188.056C94.2178 188.857 95.4511 188.447 95.4614 187.677C95.4717 186.907 94.324 175.221 94.5969 174.346C101.973 164.167 103.101 154.882 101.669 142.448C102.016 140.065 104.208 119.04 104.082 110.052C103.957 101.064 94.9657 96.2044 97.0944 105.057C91.3943 93.9709 83.8383 95.1083 86.1248 104.024C79.3389 91.7803 68.4947 97.6383 71.687 103.824C64.9011 97.8374 59.167 101.095 62.6986 108.556C54.5098 104.83 53.6763 106.556 56.2063 117.412ZM65.6874 125.4C72.2107 125.79 92.3812 124.263 94.7105 123.06C96.0532 129.153 97.7601 135.16 99.8221 141.049C99.6524 156.151 100.707 161.997 91.3913 174.536C88.1459 178.895 85.7088 178.18 80.9897 178.751C75.8869 179.369 74.6728 178.456 71.2622 174.979C60.359 163.875 61.8519 156.636 61.2618 142.698C61.3459 142.571 65.6564 132.317 65.6564 125.394L65.6874 125.4Z" fill="#111111"/><path d="M51.9914 147.445C52.375 151.396 54.098 157.446 56.7548 160.417C56.8948 160.551 57.0789 160.631 57.273 160.64C57.4671 160.649 57.6579 160.587 57.8098 160.466C57.9617 160.345 58.0645 160.173 58.0989 159.982C58.1334 159.79 58.0971 159.593 57.997 159.427C56.6693 157.308 52.8662 148.456 54.2883 144.515C54.3971 144.23 54.5713 143.974 54.7969 143.768C55.0226 143.563 55.2933 143.413 55.5875 143.331C55.8817 143.248 56.191 143.237 56.4906 143.296C56.7902 143.355 57.0717 143.484 57.3125 143.672C58.1135 144.262 59.2612 143.114 58.5354 142.365C56.7091 140.484 51.2818 140.141 51.9914 147.445Z" fill="#111111"/><path d="M90.751 142.493C89.0323 141.938 88.0233 146.104 89.4867 146.582C91.2157 147.147 92.6569 143.108 90.751 142.493Z" fill="#111111"/><path d="M74.785 164.022C80.3583 168.831 91.0801 170.764 89.537 158.753C89.3807 157.53 88.4837 157.593 88.1784 157.898C85.3652 161.06 81.7155 162.157 75.5949 161.713C73.478 161.56 73.3496 162.781 74.785 164.022ZM87.811 160.924C87.9055 167.765 81.5827 166.468 77.0716 163.622C80.9292 163.758 84.691 163.42 87.8155 160.923L87.811 160.924Z" fill="#111111"/><path d="M88.7595 135.581C90.678 135.822 92.4973 136.571 94.0289 137.751C95.4613 139.027 96.1355 137.214 95.3035 135.939C94.5197 134.875 93.4858 134.019 92.293 133.448C91.1003 132.878 89.7854 132.61 88.4645 132.667C87.2828 132.737 86.9671 135.222 88.7595 135.581Z" fill="#111111"/><path d="M86.8091 151.535C86.5996 150.851 85.3973 151.062 85.4283 151.652C85.6053 154.897 81.0322 156.409 76.9975 154.328C76.3322 153.985 75.6492 155.077 76.2083 155.593C80.0128 159.112 88.3846 156.676 86.8091 151.535Z" fill="#111111"/><path d="M72.0661 133.946C70.0952 134.204 66.8409 136.259 66.1121 138.161C66.0101 138.412 66.0005 138.692 66.0849 138.95C66.1694 139.208 66.3424 139.428 66.5734 139.57C66.8044 139.713 67.0784 139.769 67.3469 139.729C67.6154 139.689 67.861 139.555 68.0402 139.351C69.1646 138.056 70.724 137.216 72.4245 136.991C72.6421 136.99 72.857 136.944 73.0553 136.854C73.2536 136.765 73.4307 136.634 73.5751 136.472C73.7194 136.309 73.8277 136.118 73.8929 135.91C73.958 135.702 73.9786 135.483 73.9531 135.267C73.9277 135.051 73.8569 134.843 73.7453 134.656C73.6337 134.47 73.4839 134.309 73.3057 134.184C73.1275 134.059 72.925 133.973 72.7113 133.932C72.4977 133.891 72.2778 133.896 72.0661 133.946Z" fill="#111111"/><path d="M72.6665 147.066C74.1225 146.638 73.025 142.378 71.3285 143.21C69.632 144.042 71.2562 147.482 72.6665 147.066Z" fill="#111111"/><path d="M137.109 203.069C130.083 197.168 108.075 188.989 99.835 187.726C99.4372 187.706 99.0447 187.824 98.7239 188.06C98.4032 188.296 98.1739 188.636 98.0751 189.022C96.1779 201.384 77.3868 208.446 64.7104 191.372C63.1924 189.329 63.0125 189.02 61.7497 189.497C53.8205 192.48 26.9113 201.269 21.8514 206.199C16.9832 210.943 12.5857 224.294 11.4925 230.922C11.3332 231.882 12.832 232.452 13.1787 231.46C15.4859 224.856 18.5469 213.065 23.3472 208.139C27.7994 203.566 55.2677 194.533 62.4401 191.826C72.4833 209.467 96.8123 206.768 100.378 190.161C108.46 191.994 127.594 198.007 135.617 204.977C142.212 210.704 146.298 221.647 150.139 229.426C150.687 230.532 152.09 229.848 151.762 228.668C149.35 219.952 142.634 207.702 137.109 203.069Z" fill="#111111"/><path d="M158.649 133.619C158.494 114.198 157.511 92.0673 157.142 82.772C156.279 61.0866 152.189 48.1727 128.081 48.2597C96.2859 48.3733 55.9038 48.1122 29.8428 48.7436C2.86436 49.3986 -0.226188 62.8126 -0.296998 85.9968C-0.444518 133.009 -0.0285117 180.062 0.0186947 227.084C0.0186947 228.622 2.42917 228.759 2.4218 227.2C2.21134 178.84 2.08152 130.473 2.03235 82.0979C2.02497 62.1384 8.03937 51.3355 30.011 50.9992C62.5318 50.502 95.2326 50.8044 127.786 50.6304C150.569 50.5079 153.934 62.2225 154.584 82.8045C155.051 97.5565 155.765 119.094 156.83 133.662C156.911 134.674 158.657 134.674 158.649 133.619Z" fill="#111111"/><path d="M158.997 147.615C158.982 146.562 157.036 146.382 157.058 147.521C157.707 181.244 157.935 217.485 158.722 227.084C158.735 227.241 158.779 227.393 158.851 227.532C158.923 227.672 159.022 227.796 159.142 227.897C159.262 227.998 159.401 228.075 159.55 228.123C159.7 228.171 159.857 228.188 160.014 228.175C160.17 228.162 160.323 228.118 160.462 228.046C160.601 227.974 160.725 227.875 160.827 227.755C160.928 227.635 161.005 227.497 161.052 227.347C161.1 227.198 161.118 227.04 161.105 226.884C161.072 202.646 159.318 171.17 158.997 147.615Z" fill="#111111"/><path d="M39.5351 84.0905C38.5659 83.3101 28.1539 83.6391 25.6446 83.8692C24.7182 83.9548 23.0114 83.8692 23.0114 85.1335C23.0114 87.0512 22.824 98.2244 23.1058 99.5904C23.3005 100.54 24.6606 100.384 24.907 99.5904C25.4971 97.7096 25.4558 88.1252 25.3923 86.0909C27.2998 86.0909 38.5688 86.408 39.6295 85.7014C40.2063 85.3134 39.9776 84.4903 39.5351 84.0905Z" fill="#E04747"/><path d="M139.153 175.057C138.719 174.008 137.044 174.235 137.044 175.278C137.044 180.431 137.444 185.584 137.645 190.738C133.039 190.949 129.307 190.71 124.209 191.191C123.154 191.29 123.366 192.902 124.356 192.982C125.084 193.041 132.945 193.349 137.002 193.119C139.448 192.981 139.768 192.824 139.71 190.169C139.631 186.407 139.85 176.74 139.153 175.057Z" fill="#E04747"/><path d="M136.466 85.3317C136.466 89.716 136.435 94.0988 136.466 98.4831C136.466 99.5379 138.215 99.5379 138.32 98.4831C138.468 96.9873 138.968 88.999 138.826 85.4054C138.766 83.8358 138.752 82.9979 136.867 82.992C134.495 82.992 125.001 82.7501 123.378 83.2767C123.186 83.3429 123.02 83.4689 122.905 83.6364C122.79 83.8038 122.732 84.0037 122.739 84.2067C122.746 84.4097 122.818 84.605 122.944 84.764C123.071 84.923 123.245 85.0371 123.441 85.0897C124.884 85.5102 134.032 85.3848 136.466 85.3317Z" fill="#E04747"/><path d="M38.9344 191.191C37.8856 190.549 27.689 190.843 25.6975 190.853C25.6975 189.146 26.3465 178.367 26.0028 177.407C25.9366 177.22 25.8193 177.056 25.6643 176.933C25.5093 176.81 25.3228 176.734 25.1262 176.712C24.9295 176.69 24.7307 176.723 24.5523 176.809C24.374 176.895 24.2233 177.029 24.1175 177.196C23.4212 178.472 23.3224 186.575 23.464 190.222C23.5658 192.867 23.79 193.016 25.8774 193.088C29.5758 193.217 33.2534 193.172 37.0049 193.236C40.7563 193.299 39.2811 191.399 38.9344 191.191Z" fill="#E04747"/><path d="M171.97 139.452C169.272 139.294 141.156 140.21 138.247 140.737C136.519 135.805 129.395 137.165 129.057 142.138C128.708 147.313 137.857 149.104 138.542 142.949C149.08 142.57 161.642 142.064 172.064 141.833C172.398 142.936 173.122 143.879 174.101 144.486C175.081 145.093 176.248 145.323 177.384 145.132C178.52 144.94 179.548 144.342 180.275 143.447C181.001 142.553 181.377 141.424 181.331 140.273C181.285 139.121 180.822 138.026 180.027 137.192C179.231 136.358 178.16 135.842 177.012 135.742C175.864 135.641 174.719 135.962 173.791 136.645C172.862 137.328 172.215 138.326 171.97 139.452ZM136.023 143.097C135.458 145.144 130.828 144.867 131.366 142.044C131.42 141.723 131.538 141.416 131.715 141.142C131.891 140.869 132.121 140.634 132.391 140.452C132.662 140.271 132.966 140.146 133.286 140.087C133.606 140.027 133.935 140.033 134.252 140.105C134.57 140.177 134.869 140.313 135.132 140.504C135.396 140.696 135.617 140.939 135.783 141.219C135.948 141.499 136.055 141.81 136.097 142.133C136.138 142.456 136.113 142.784 136.023 143.097ZM174.203 140.632C174.203 138.356 178.121 136.796 178.788 140.253C179.414 143.494 174.203 144.537 174.203 140.632Z" fill="#E04747"/><path d="M75.2494 69.0861C78.2794 76.0653 89.0425 72.0247 85.7867 63.8182C83.0075 56.8036 71.8181 61.182 75.2494 69.0861Z" fill="#E04747"/><path d="M194.48 150.959C195.263 151.567 196.281 150.433 195.65 149.685C193.931 147.652 190.861 146.52 188.694 148.631C185.449 151.787 188.349 168.818 193.753 174.471C194.551 175.306 196.3 174.334 195.533 173.418C192.319 169.573 189.234 162.217 189.843 152.551C190.062 149.07 192.139 149.14 194.48 150.959Z" fill="#E04747"/><path d="M267.384 147.173C267.963 143.536 271.241 109.909 271.03 96.1677C270.819 82.4262 256.002 75.0059 259.511 88.538C250.027 71.5496 237.581 73.2785 241.301 86.9153C230.121 68.1876 212.24 77.145 217.506 86.6084C206.324 77.4518 196.893 82.3938 202.754 93.828C189.265 88.1264 187.948 90.7714 192.121 107.359C196.294 123.946 197.315 146.509 197.612 151.103C196.346 172.18 197.663 184.478 211.964 200.571C212.564 211.278 212.66 216.695 211.616 223.323C211.645 223.539 211.741 223.741 211.891 223.901C212.04 224.061 212.235 224.17 212.449 224.214C212.663 224.258 212.886 224.234 213.086 224.146C213.286 224.058 213.454 223.91 213.566 223.723C214.957 219.276 215.01 207.526 214.324 203.07C220.649 209.266 227.676 212.874 238.111 211.88C245.128 211.211 250.133 205.989 254.075 200.603C254.075 204.766 254.62 220.371 256.12 224.009C256.446 224.799 257.918 224.652 257.785 223.798C256.288 214.194 256.351 202.816 256.173 197.6C261.82 188.694 270.651 176.995 267.384 147.173ZM249.468 202.573C245.174 207.625 241.738 209.592 234.831 209.729C224.59 209.931 216.643 202.782 211.098 195.701C198.456 179.555 199.813 170.167 199.643 151.445C201.403 148.284 207.642 129.041 207.642 119.581C218.381 120.191 251.619 117.852 255.454 116.018C257.098 124.764 263.685 143.64 265.108 147.401C267.12 169.619 264.312 185.114 249.468 202.573Z" fill="#E04747"/><path d="M278.608 147.954C276.522 144.294 271.599 146.573 269.523 149.343C269.355 149.532 269.269 149.779 269.284 150.031C269.299 150.283 269.413 150.519 269.601 150.687C269.79 150.855 270.038 150.941 270.29 150.926C270.542 150.912 270.778 150.797 270.945 150.609C274.107 147.448 277.208 147.647 277.511 151.568C278.233 160.915 274.334 169.881 268.606 177.008C267.971 177.795 268.911 179.03 269.796 178.409C276.023 174.042 283.038 155.725 278.608 147.954Z" fill="#E04747"/><path d="M230.152 159.628C229.103 161.274 220.268 182.069 219.308 184.919C219.247 185.109 219.258 185.316 219.34 185.499C219.422 185.681 219.569 185.827 219.752 185.908C219.935 185.989 220.141 186 220.332 185.938C220.522 185.876 220.683 185.746 220.783 185.572C223.586 180.051 230.162 166.269 231.69 160.281C231.709 160.095 231.668 159.908 231.573 159.747C231.478 159.586 231.334 159.46 231.162 159.387C230.99 159.314 230.799 159.298 230.617 159.341C230.435 159.385 230.272 159.485 230.152 159.628Z" fill="#E04747"/><path d="M257.098 154.105C255.501 157.185 261.595 158.825 261.576 154.949C261.564 152.314 258.102 152.168 257.098 154.105Z" fill="#E04747"/><path d="M256.919 159.44C254.832 166.444 250.712 175.718 248.953 182.265C248.716 183.15 250.164 183.593 250.566 182.698C253.763 175.287 256.464 167.672 258.65 159.903C258.939 158.908 257.217 158.439 256.919 159.44Z" fill="#E04747"/><path d="M236.232 154.959C235.688 151.093 228.545 152.507 231.174 156.541C232.541 158.638 236.576 157.405 236.232 154.959Z" fill="#E04747"/><path d="M249.743 133.619C251.712 139.705 254.26 145.588 257.351 151.188C257.872 152.118 259.212 151.289 258.763 150.354C256.004 144.769 253.603 139.014 251.576 133.124C251.185 131.941 249.359 132.458 249.743 133.619Z" fill="#E04747"/><path d="M245.907 188.694C248.304 191.417 252.436 187.422 249.49 184.994C248.986 184.606 248.356 184.417 247.721 184.463C247.086 184.509 246.49 184.787 246.047 185.245C245.604 185.702 245.345 186.306 245.319 186.942C245.293 187.578 245.503 188.202 245.907 188.694Z" fill="#E04747"/><path d="M222.712 189.472C229.588 188.745 236.15 189.205 242.735 188.355C243.936 188.208 243.788 186.368 242.608 186.522C236.647 187.295 227.248 186.988 222.364 187.913C221.34 188.108 221.678 189.583 222.712 189.472Z" fill="#E04747"/><path d="M244.747 192.391C244.318 193.644 243.035 196.19 244.305 196.607C245.733 197.077 246.795 192.086 246.759 191.875C246.587 190.84 245.389 190.522 244.747 192.391Z" fill="#E04747"/><path d="M253.832 153.969C250.396 153.867 243.294 154.204 239.51 154.486C238.025 154.596 237.845 156.045 239.447 156.223C244.496 156.418 249.553 156.168 254.559 155.475C255.693 155.244 255.19 154.009 253.832 153.969Z" fill="#E04747"/><path d="M220.488 188.796C219.619 185.729 214.938 186.783 215.408 189.714C215.939 193.021 221.548 192.536 220.488 188.796Z" fill="#E04747"/><path d="M222.964 195.797C222.277 194.889 220.92 192.424 219.93 193.109C218.94 193.793 220.822 195.881 221.657 196.966C222.321 197.828 223.627 196.67 222.964 195.797Z" fill="#E04747"/><path d="M216.525 184.097C213.88 176.267 211.067 168.77 208.623 160.829C208.3 159.777 206.523 160.33 206.82 161.366C209.047 169.333 211.825 177.137 215.134 184.719C215.222 184.896 215.374 185.031 215.56 185.097C215.745 185.164 215.949 185.156 216.128 185.076C216.308 184.995 216.45 184.848 216.524 184.666C216.598 184.484 216.598 184.28 216.525 184.097Z" fill="#E04747"/><path d="M238.646 198.958C235.231 199.17 232.059 199.284 228.656 199.431C228.443 199.423 228.236 199.499 228.08 199.644C227.924 199.788 227.831 199.988 227.823 200.201C227.815 200.413 227.891 200.62 228.035 200.776C228.179 200.933 228.38 201.025 228.592 201.033C231.992 201.405 235.427 201.316 238.804 200.769C239.804 200.61 239.699 198.891 238.646 198.958Z" fill="#E04747"/><path d="M222.67 200.39C223.386 202.562 227.147 202.345 226.886 199.843C226.811 199.286 226.519 198.781 226.073 198.438C225.626 198.096 225.063 197.944 224.505 198.017C223.947 198.089 223.441 198.38 223.097 198.824C222.753 199.269 222.599 199.832 222.67 200.39Z" fill="#E04747"/><path d="M205.808 153.053C205.239 153.216 204.748 153.58 204.428 154.079C204.109 154.577 203.981 155.175 204.07 155.76C204.16 156.345 204.459 156.878 204.913 157.259C205.366 157.639 205.943 157.841 206.535 157.827C210.247 157.7 208.96 152.11 205.808 153.053Z" fill="#E04747"/><path d="M210.477 156.435C216.059 156.621 221.662 155.972 227.339 156.204C227.466 156.212 227.593 156.195 227.714 156.154C227.835 156.113 227.946 156.048 228.042 155.964C228.138 155.88 228.216 155.778 228.273 155.663C228.329 155.549 228.362 155.424 228.37 155.297C228.379 155.17 228.362 155.042 228.321 154.921C228.28 154.801 228.215 154.689 228.131 154.593C228.047 154.498 227.944 154.419 227.83 154.363C227.716 154.307 227.591 154.273 227.464 154.265C221.753 153.861 216.017 154.03 210.34 154.77C210.141 154.815 209.966 154.93 209.845 155.093C209.725 155.257 209.668 155.459 209.685 155.662C209.701 155.865 209.791 156.055 209.936 156.197C210.082 156.339 210.274 156.424 210.477 156.435Z" fill="#E04747"/><path d="M222.911 128.014C230.06 128.888 237.268 129.166 244.462 128.846C245.727 128.772 245.517 126.928 244.305 126.908C237.339 126.798 229.803 126.318 222.997 126.402C222.069 126.412 222.069 127.858 222.911 128.014Z" fill="#E04747"/><path d="M208.929 151.106C211.219 145.685 214.673 137.744 216.379 132.906C216.467 132.679 216.464 132.427 216.369 132.202C216.275 131.977 216.096 131.798 215.872 131.702C215.648 131.607 215.395 131.602 215.168 131.689C214.94 131.776 214.755 131.948 214.652 132.169C211.782 138.158 209.318 144.334 207.276 150.653C207.044 151.639 208.571 151.947 208.929 151.106Z" fill="#E04747"/><path d="M241.174 201.328C241.547 201.687 242.037 201.899 242.554 201.925C243.071 201.951 243.58 201.79 243.987 201.47C244.394 201.15 244.672 200.694 244.769 200.186C244.866 199.678 244.776 199.151 244.516 198.704C242.815 196.083 239.069 199.229 241.174 201.328Z" fill="#E04747"/><path d="M250.807 126.802C250.555 126.255 250.102 125.825 249.543 125.601C248.983 125.377 248.359 125.375 247.799 125.596C247.238 125.818 246.784 126.245 246.528 126.79C246.272 127.336 246.234 127.959 246.423 128.531C247.385 131.568 252.142 129.659 250.807 126.802Z" fill="#E04747"/><path d="M220.52 126.242C218.788 123.152 214.386 126.8 216.525 128.877C216.913 129.306 217.442 129.582 218.015 129.654C218.589 129.727 219.17 129.592 219.653 129.274C220.136 128.955 220.488 128.474 220.647 127.918C220.806 127.362 220.761 126.768 220.52 126.242Z" fill="#E04747"/><path d="M245.727 182.382C243.042 174.535 239.849 166.872 236.169 159.439C236.058 159.27 235.888 159.146 235.692 159.092C235.497 159.039 235.288 159.058 235.105 159.148C234.923 159.237 234.78 159.39 234.702 159.577C234.624 159.765 234.618 159.975 234.684 160.167C237.265 165.994 241.48 178.32 244.168 182.908C244.638 183.709 246.049 183.329 245.727 182.382Z" fill="#E04747"/></g><defs><clipPath id="clip0_5383_31741"><rect width="280" height="280" fill="white"/></clipPath></defs></svg>