<svg viewBox="0 0 280 280" fill="none" xmlns="http://www.w3.org/2000/svg"><path d="M90.7927 107.468C90.7904 104.923 90.5367 102.385 90.0353 99.8899C90.0769 98.9569 89.9917 98.0225 89.7819 97.1123C89.5299 96.8589 89.0246 96.1015 88.7712 96.8589C88.0138 99.1325 88.5191 101.912 88.2672 104.184C88.2672 107.974 88.2672 111.509 88.0138 115.298C88.0138 116.558 87.5084 118.328 85.9935 118.328C84.0347 118.135 82.0927 117.798 80.1835 117.319C78.3389 117.112 76.4827 117.027 74.627 117.065C69.0704 117.571 62.4806 120.086 59.9774 125.653C59.4666 126.814 59.2241 128.076 59.268 129.344C59.3119 130.612 59.6409 131.854 60.2308 132.978C61.4861 135.258 63.5632 136.974 66.0394 137.777H65.7874C62.251 139.037 58.7803 136.98 56.9477 133.988C54.7511 130.404 54.6742 125.906 55.1796 122.118C55.1796 122.017 55.1396 121.921 55.0684 121.849C54.9973 121.778 54.9008 121.738 54.8002 121.738C54.6995 121.738 54.603 121.778 54.5319 121.849C54.4607 121.921 54.4208 122.017 54.4208 122.118C53.6634 125.653 53.0824 129.212 54.1688 132.726C54.604 134.206 55.3461 135.579 56.3469 136.754C57.3477 137.929 58.5847 138.88 59.9774 139.545C67.5724 143.045 74.1174 134.999 77.658 129.443C79.4262 126.664 81.4463 123.886 82.2051 120.602C83.4564 120.811 84.7255 120.896 85.9935 120.855C87.0935 120.869 88.1559 120.455 88.9568 119.701C89.7578 118.947 90.2348 117.912 90.2873 116.813C90.7912 113.725 90.9606 110.592 90.7927 107.468ZM69.3237 135.757C67.3021 134.24 64.7766 133.988 63.2618 131.715C61.2416 128.18 64.0108 124.884 66.7982 122.875C70.0566 120.426 74.1007 119.257 78.1634 119.592C78.9431 119.639 79.7105 119.809 80.437 120.096C79.9316 120.096 77.4059 129.189 69.3237 135.757Z" fill="#111111"/><path d="M68.32 123.886C67.06 124.138 67.2924 126.668 67.5626 127.674C67.6855 128.144 67.9022 128.583 68.1995 128.967C68.4968 129.35 68.8686 129.669 69.2924 129.905C69.7163 130.141 70.1836 130.289 70.6661 130.34C71.1485 130.39 71.6363 130.343 72.1 130.2C72.3156 130.16 72.5151 130.059 72.6749 129.908C72.8346 129.758 72.9479 129.565 73.0011 129.352C73.0543 129.139 73.0453 128.916 72.9752 128.708C72.905 128.5 72.7767 128.317 72.6054 128.18C71.848 127.674 70.8372 127.926 70.0854 127.169C69.8054 126.708 69.6327 126.19 69.58 125.653C69.3238 124.895 69.0704 123.633 68.32 123.886Z" fill="#111111"/><path d="M79.5487 109.078C80.0349 109.303 80.6019 109.301 81.1248 109.073C81.6477 108.845 82.0837 108.41 82.337 107.863C82.5903 107.315 82.64 106.701 82.4753 106.155C82.3105 105.609 81.9448 105.176 81.4586 104.951C80.9723 104.726 80.4054 104.727 79.8825 104.955C79.3596 105.183 78.9235 105.618 78.6703 106.166C78.417 106.713 78.3673 107.327 78.532 107.873C78.6967 108.419 79.0625 108.852 79.5487 109.078Z" fill="#111111"/><path d="M81.9518 100.395C82.6083 100.447 83.2297 100.713 83.72 101.153C84.2996 101.573 84.98 101.912 85.4882 101.153C85.7416 100.649 85.3132 99.8438 84.9828 99.386C83.2832 97.027 78.2838 99.995 78.6688 101.153C79.2036 102.76 80.2606 100.395 81.9518 100.395Z" fill="#111111"/><path d="M130.2 155.709C126.664 152.68 121.183 156.51 119.339 159.751C118.611 161.031 120.098 162.025 121.107 160.762L120.855 161.014C123.633 158.994 125.906 155.963 129.695 156.72C130.2 156.72 130.7 156.215 130.2 155.709Z" fill="#111111"/><path d="M133.731 158.994C130.381 157.314 125.716 159.775 123.88 162.53C123.627 163.034 123.375 164.297 124.386 164.045C125.654 163.437 126.842 162.674 127.921 161.771C128.932 161.267 129.942 161.014 130.952 160.511C131.994 160.41 133.015 160.154 133.983 159.754C134.74 159.499 134.488 159.246 133.731 158.994Z" fill="#111111"/><path d="M137.267 165.813C140.55 167.581 143.833 169.35 147.37 171.118C149.138 171.875 150.653 172.885 152.421 173.638C154.05 174.66 155.737 175.587 157.473 176.415C157.715 176.56 158 176.613 158.277 176.567C158.554 176.521 158.806 176.378 158.988 176.163C159.24 175.91 159.24 175.91 159.24 175.658C159.494 175.153 159.24 174.647 158.736 174.143C157.138 173.068 155.447 172.138 153.684 171.364C151.917 170.353 150.149 169.596 148.632 168.844C145.188 167.197 141.645 165.763 138.025 164.55C137.86 164.483 137.676 164.477 137.507 164.533C137.338 164.589 137.195 164.704 137.104 164.857C137.012 165.009 136.978 165.19 137.008 165.365C137.038 165.541 137.13 165.7 137.267 165.813Z" fill="#111111"/><path d="M131.711 169.855C134.74 171.622 138.3 173.086 141.561 174.653C143.087 175.388 144.592 176.169 146.359 176.926C147.98 177.817 149.67 178.577 151.411 179.2C151.603 179.248 151.805 179.229 151.985 179.146C152.164 179.064 152.31 178.923 152.399 178.746C152.487 178.569 152.512 178.367 152.47 178.174C152.429 177.981 152.322 177.808 152.169 177.684C150.539 176.054 148.613 175.536 142.57 172.633C139.276 170.972 135.799 169.701 132.21 168.844C131.46 168.591 130.952 169.602 131.711 169.855Z" fill="#111111"/><path d="M126.911 174.906C128.428 175.895 130.035 176.739 131.711 177.426C133.009 178.122 134.36 178.715 135.751 179.2C137.011 179.705 138.53 180.46 139.793 180.968C141.308 181.472 143.076 182.483 144.592 182.228C144.702 182.213 144.807 182.171 144.897 182.106C144.988 182.041 145.061 181.955 145.11 181.856C145.16 181.756 145.185 181.646 145.182 181.535C145.18 181.424 145.15 181.315 145.096 181.217C143.905 180.074 142.418 179.286 140.802 178.944C140.648 178.882 132.875 175.472 132.72 175.409C131.118 174.607 129.421 174.013 127.669 173.641C127.503 173.571 127.318 173.563 127.148 173.619C126.977 173.675 126.833 173.79 126.74 173.944C126.648 174.098 126.615 174.281 126.646 174.457C126.678 174.634 126.772 174.793 126.911 174.906Z" fill="#111111"/><path d="M112.514 131.715C115.844 132.844 119.371 133.272 122.874 132.975C124.886 132.975 121.26 136.133 121.106 136.259C120.975 136.366 117.366 138.254 117.317 138.279C115.555 139.161 115.426 140.553 116.306 140.553C117.157 140.606 118.01 140.521 118.833 140.3C119.79 140.06 124.37 138.067 125.399 136.006C125.714 135.296 125.811 134.508 125.676 133.743C125.541 132.979 125.181 132.271 124.642 131.712C123.115 130.465 121.12 131.081 119.337 131.207C117.071 131.369 115.044 130.955 112.771 131.207C112.409 131.201 112.008 131.46 112.514 131.715Z" fill="#111111"/><path d="M137.519 162.025C131.205 161.519 127.228 167.39 123.379 171.37C121.419 173.489 119 175.131 116.306 176.169C115.375 176.647 114.35 176.918 113.304 176.961C112.257 177.005 111.214 176.82 110.246 176.421C109.753 176.175 107.824 174.971 107.957 176.543C103.015 179.119 85.939 190.372 84.987 191.324C84.8274 191.489 84.7258 191.701 84.6973 191.929C84.6688 192.157 84.715 192.388 84.829 192.587C84.943 192.786 85.1185 192.943 85.3293 193.034C85.5401 193.125 85.7746 193.145 85.9977 193.091C93.8509 188.62 101.377 183.598 108.521 178.063C109.038 178.648 109.732 179.047 110.498 179.2C111.732 179.579 113.052 179.579 114.286 179.2C117.382 178.64 120.265 177.242 122.622 175.158C127.673 171.37 130.704 164.297 137.523 163.288C138.53 163.288 138.277 162.025 137.519 162.025Z" fill="#111111"/><path d="M28.406 164.55C32.585 173.405 34.083 182.847 38.0044 192.081C39.5926 196.214 41.7153 200.12 44.3184 203.701C46.8608 206.972 49.8918 210.477 53.9168 212.036C57.7206 213.51 63.5138 213.552 65.5368 209.516C65.7888 209.01 65.0314 208.001 64.526 208.506C57.5498 213.738 50.7892 208.41 45.8346 201.181C38.43 190.378 36.7808 176.851 29.6702 164.052C28.9114 163.54 28.1652 164.039 28.406 164.55Z" fill="#111111"/><path d="M63.2618 213.802C67.3064 216.98 75.1352 215.062 79.1742 206.983C79.6796 205.972 80.1836 204.709 80.689 203.447C81.3013 202.283 81.5643 200.968 81.4464 199.658C81.4464 199.153 80.9424 198.901 80.437 199.153C79.177 200.669 78.6688 203.195 77.658 204.963C76.8282 206.882 75.7222 208.669 74.375 210.267C73.101 211.756 71.3876 212.802 69.4814 213.255C67.5753 213.707 65.5746 213.544 63.7672 212.787C63.2618 212.54 62.7564 213.297 63.2618 213.802Z" fill="#111111"/><path d="M59.4734 205.468C63.6108 204.46 67.2716 202.051 69.8334 198.649C71.1802 197.05 72.2863 195.263 73.1164 193.344C73.8332 191.559 75.1366 189.302 74.6312 187.282C74.6312 186.777 73.8738 186.777 73.6218 187.03C73.1806 187.737 72.8404 188.502 72.611 189.302C72.359 190.313 71.8536 191.324 71.6002 192.081C70.8373 193.902 69.8165 195.603 68.5692 197.133C66.372 200.506 63.0672 203.007 59.2242 204.205C58.4626 204.709 58.7146 205.72 59.4734 205.468Z" fill="#111111"/><path d="M62.7564 159.246C64.8418 166.607 64.7543 174.413 62.5044 181.726C61.7078 184.246 60.4828 186.525 59.7254 188.797C59.4734 189.302 60.4828 189.808 60.7362 189.556C64.0206 186.271 65.107 179.571 66.0394 174.906C66.5083 169.519 65.8195 164.093 64.0192 158.994C63.7672 158.488 62.7564 158.74 62.7564 159.246Z" fill="#111111"/><path d="M115.039 122.623C114.131 122.37 113.17 122.37 112.262 122.623C109.325 123.137 106.701 124.765 104.937 127.169C103.77 128.854 102.916 130.737 102.417 132.726C100.782 139.262 101.828 137.103 96.355 142.576C89.2962 148.627 83.356 151.414 80.4594 153.457C78.9542 150.912 76.6365 148.948 73.8794 147.881C72.662 147.465 71.3748 147.294 70.091 147.375C68.8073 147.294 67.5201 147.465 66.3026 147.881C65.7972 147.881 65.7972 148.638 66.3026 148.89C67.4678 149.11 68.6544 149.195 69.839 149.143C71.3899 149.187 72.9081 149.599 74.2678 150.347C75.6276 151.094 76.7897 152.154 77.658 153.44C79.898 156.681 80.1878 159.18 80.9424 162.54C81.0226 163.697 81.3679 164.821 81.9518 165.823C82.2052 166.328 82.9626 166.075 83.2118 165.57C83.5917 164.335 83.5917 163.015 83.2118 161.781C82.928 159.382 82.2506 157.047 81.207 154.868C82.8985 154.376 84.5099 153.642 85.9908 152.688C97.7172 145.359 92.8942 147.89 97.6108 144.354C106.711 137.281 103.925 132.734 106.45 129.199C108.524 126.392 111.6 124.493 115.038 123.896C115.798 123.633 115.798 122.623 115.039 122.623Z" fill="#111111"/><path d="M126.658 150.912C126.538 150.757 126.385 150.632 126.211 150.544C126.036 150.457 125.844 150.41 125.649 150.406C123.505 149.775 121.225 149.775 119.081 150.406C116.452 151.023 113.966 152.137 111.756 153.689C108.063 156.152 102.696 162.875 101.877 165.178C97.741 166.953 82.8884 172.75 78.9754 174.513C78.2916 173.466 77.3926 172.576 76.3381 171.904C75.2837 171.231 74.0981 170.791 72.8602 170.612C71.4746 165.366 69.5266 160.285 67.0502 155.457C62.6141 146.998 56.6147 139.456 49.3696 133.231C46.4672 130.681 43.118 128.691 39.4912 127.361C47.1296 118.261 47.026 117.267 50.3804 113.025C51.163 112.034 52.654 110.751 52.654 109.236C52.654 108.731 52.1486 108.226 51.6432 108.478C49.623 108.983 48.6122 112.014 47.6014 113.53C46.0866 115.802 44.5704 118.328 42.8022 120.602C41.3266 122.57 40.0904 125.257 38.3922 127.029C37.3557 126.746 36.2981 126.548 35.2296 126.435C35.1593 126.303 35.0427 126.202 34.9023 126.15C34.7618 126.098 34.6072 126.1 34.468 126.155C30.1742 129.186 25.7768 132.129 22.344 136.259C18.4698 140.94 15.2415 146.119 12.7456 151.659C6.95103 164.408 6.41623 175.199 7.44243 189.039C7.69443 192.828 8.45183 196.616 8.95723 200.659C9.47131 204.492 10.2307 208.288 11.2308 212.024C11.2872 212.202 11.4059 212.354 11.5651 212.452C11.7243 212.549 11.9133 212.586 12.0975 212.555C12.2817 212.525 12.4486 212.429 12.5677 212.285C12.6867 212.141 12.7499 211.959 12.7456 211.772C12.5746 208.545 12.1533 205.336 11.4856 202.174C10.0954 193.134 9.01883 181.454 9.71743 172.371C10.8293 160.553 15.2006 149.276 22.344 139.797C26.719 133.547 30.5802 131.477 34.7186 127.421C39.3347 128.525 43.5941 130.785 47.096 133.988C50.6278 137.014 53.9214 140.307 56.9478 143.839C69.629 159.277 70.9562 174.796 73.1122 182.988C73.1631 183.137 73.2664 183.262 73.4027 183.341C73.539 183.419 73.6992 183.445 73.8533 183.414C74.0074 183.383 74.145 183.297 74.2405 183.172C74.3359 183.047 74.3828 182.892 74.3722 182.735C74.5938 179.233 74.1666 175.721 73.1122 172.375C76.6486 174.142 78.6688 177.932 79.4262 181.972C79.8929 184.385 79.9784 186.857 79.6796 189.297C79.4258 190.56 79.1728 191.822 78.9208 193.085C78.6688 194.345 78.1634 195.359 77.9114 196.622C77.8975 196.773 77.933 196.926 78.0126 197.056C78.0922 197.186 78.2116 197.287 78.3531 197.344C78.4947 197.4 78.6508 197.41 78.7982 197.371C78.9456 197.332 79.0765 197.246 79.1714 197.127C80.1005 196.151 80.7164 194.919 80.9396 193.591C81.423 192.198 81.7612 190.759 81.949 189.297C82.7815 184.708 82.0416 179.973 79.849 175.857C87.5385 173.356 95.0924 170.457 102.48 167.17C103.501 167.198 104.657 165.35 105.189 164.55C109.661 158.739 115.205 152.678 122.618 152.678H125.649C125.901 152.678 126.406 152.426 126.406 152.174C126.911 151.416 126.911 151.164 126.658 150.912Z" fill="#111111"/><path d="M58.968 111.509C58.0518 110.022 57.3704 108.403 56.9478 106.709C56.2604 102.404 61.999 102.416 63.2618 102.921C63.9772 103.287 64.7437 103.543 65.5354 103.68C65.7104 103.732 65.8963 103.736 66.0734 103.692C66.2505 103.647 66.4122 103.555 66.5414 103.426C66.6706 103.297 66.7624 103.135 66.8071 102.958C66.8518 102.781 66.8478 102.595 66.7954 102.42C66.6671 101.96 66.4074 101.548 66.0483 101.235C65.6892 100.921 65.2462 100.719 64.7738 100.653C63.4696 100.237 62.0998 100.066 60.7334 100.148C59.776 100.095 58.8211 100.286 57.9576 100.703C57.0941 101.12 56.3503 101.748 55.7954 102.53C55.2406 103.312 54.8929 104.222 54.7847 105.174C54.6765 106.127 54.8114 107.091 55.1768 107.978C55.7362 109.748 56.8976 111.268 58.4598 112.272C58.7146 112.519 59.22 112.014 58.968 111.509Z" fill="#111111"/><path d="M91.0448 94.08C99.4 85.96 95.0446 71.6899 84.98 72.8645C82.2094 73.1879 79.4234 74.1244 76.1404 74.1244C73.817 74.0479 71.5183 73.6231 69.321 72.8645C67.564 72.3213 66.0366 70.8442 64.2684 70.5922C63.8318 70.5272 63.3863 70.6163 63.0084 70.8442C62.7564 71.3496 63.021 71.5904 63.5138 72.1042C66.1125 74.7971 69.625 76.4198 73.36 76.6528C82.5888 77.3458 85.869 74.0194 89.5258 76.4008C95.0446 79.996 94.0716 89.0303 90.2832 93.3241C90.2335 93.3741 90.1942 93.4334 90.1675 93.4986C90.1408 93.5637 90.1272 93.6336 90.1274 93.704C90.1277 93.7745 90.1418 93.8442 90.169 93.9092C90.1962 93.9742 90.236 94.0332 90.286 94.0829C90.336 94.1325 90.3953 94.1718 90.4605 94.1985C90.5257 94.2252 90.5955 94.2389 90.666 94.2386C90.7364 94.2383 90.8061 94.2242 90.8711 94.197C90.9361 94.1698 90.9951 94.1301 91.0448 94.08Z" fill="#111111"/><path d="M86.7509 88.0194C87.7239 85.2278 86.2651 82.6714 83.4679 81.452C80.4565 80.1416 76.8963 81.172 73.8695 81.7054C68.0441 82.7204 64.7065 81.9658 60.4827 79.4318C59.2227 78.421 58.4625 76.9118 56.9477 76.4008C56.2589 75.712 54.2597 79.0398 60.7361 82.9682C64.9949 85.5512 70.0951 85.3006 74.6269 84.2282C77.6677 83.51 85.9935 81.9546 85.2361 87.7646C85.4881 88.7768 86.4877 88.774 86.7509 88.0194Z" fill="#111111"/><path d="M72.6068 92.0611C72.327 91.1332 71.7625 90.3168 70.9932 89.7274C70.2239 89.138 69.2887 88.8054 68.32 88.7767C65.9358 88.5087 63.5219 88.7673 61.2486 89.5341C54.3774 91.0909 50.8074 87.0757 48.1138 85.9991C47.3564 85.7457 45.5938 85.4937 46.3456 87.0085C48.3658 91.0503 54.6812 92.8185 58.7216 92.5651C62.762 92.3117 68.068 88.7767 71.351 92.5651C72.1 93.3239 72.8588 92.8199 72.6068 92.0611Z" fill="#111111"/><path d="M60.4801 96.859C59.9697 96.2406 59.3008 95.7726 58.545 95.5051C57.7892 95.2375 56.9748 95.1804 56.1891 95.34C54.4209 95.592 52.9061 96.6 50.8859 96.8548C43.4785 96.8548 44.1967 95.0908 41.5395 93.3198C41.364 93.2008 41.1586 93.1334 40.9468 93.1252C40.7349 93.1171 40.525 93.1684 40.3408 93.2736C40.1567 93.3787 40.0057 93.5333 39.905 93.7199C39.8044 93.9065 39.758 94.1176 39.7713 94.3292C40.1913 98.539 49.1975 100.968 54.4209 98.1176C55.2204 97.6666 56.1058 97.3887 57.0196 97.3019C57.9334 97.215 58.8553 97.3213 59.7255 97.6136C59.831 97.6682 59.9512 97.6877 60.0686 97.6695C60.186 97.6512 60.2945 97.5961 60.3785 97.5121C60.4626 97.4281 60.5177 97.3195 60.5359 97.2021C60.5542 97.0847 60.5346 96.9646 60.4801 96.859Z" fill="#111111"/><path d="M186.771 192.333C186.771 189.556 186.771 186.777 186.519 183.999C186.519 178.189 186.267 172.633 185.762 166.824C185.674 164.021 185.336 161.231 184.751 158.488C184.499 157.731 183.74 157.983 183.74 158.488C183.617 159.893 183.591 161.304 183.665 162.712C168.424 173.645 145.908 184.46 142.824 187.03C142.53 187.496 143.076 187.788 143.833 187.788C148.033 186.586 161.825 178.867 164.545 177.428C171.179 173.928 177.425 169.674 183.74 165.547C183.956 197.047 183.943 181.552 183.994 195.975C181.741 196.945 179.815 198.877 176.417 200.917C173.554 202.922 159.207 212.593 153.177 216.324C149.885 217.961 146.755 219.906 143.83 222.134C143.325 222.639 143.83 223.394 144.336 223.143C154.991 219.866 178.216 202.265 181.465 200.411C182.336 199.832 183.285 199.251 184.185 198.573C184.255 198.942 184.359 199.304 184.496 199.654C184.574 199.824 184.698 199.967 184.855 200.068C185.012 200.169 185.194 200.223 185.38 200.223C185.567 200.223 185.749 200.169 185.906 200.068C186.063 199.967 186.187 199.824 186.264 199.654C187.277 197.385 186.771 194.607 186.771 192.333Z" fill="#111111"/><path d="M89.0246 26.39C98.0098 22.0164 110.268 24.493 120.092 26.8954C150.588 34.3532 185.13 41.9608 223.143 53.9154C238.416 58.7216 246.03 60.2224 252.442 68.0554C258.121 74.998 263.186 87.1248 265.576 96.3452C268.198 106.688 269.806 117.262 270.375 127.917C271.012 138.785 271.264 149.885 270.88 160.752C270.14 181.709 266.68 204.06 252.442 220.36C250.855 222.224 249.077 223.917 247.138 225.411C246.937 225.612 246.824 225.885 246.824 226.169C246.823 226.453 246.936 226.726 247.137 226.927C247.338 227.128 247.61 227.241 247.895 227.241C248.179 227.241 248.452 227.128 248.653 226.927C265.07 212.787 271.065 190.807 272.395 169.845C273.655 150.038 273.118 122.545 268.859 102.911C265.976 89.621 258.895 69.3434 247.895 61.4894C243.331 58.2302 238.015 56.7882 232.74 55.174C209.367 48.027 185.991 41.6234 162.525 35.7266C154.265 33.649 116.28 24.3096 110.494 23.3492C102.883 22.0892 94.8388 22.0206 88.2672 26.1282C88.2991 26.1958 88.3441 26.2562 88.3997 26.3061C88.4552 26.356 88.5202 26.3943 88.5908 26.4186C88.6613 26.443 88.7361 26.4531 88.8106 26.4482C88.8851 26.4432 88.9579 26.4235 89.0246 26.39Z" fill="#111111"/><path d="M243.096 79.94C243.26 76.146 243.096 71.8578 240.576 68.8268C237.798 65.5424 233.251 64.533 229.211 63.5222C216.58 60.2364 104.432 30.4318 98.3696 29.169C95.592 28.4116 92.561 27.909 89.782 27.4008C87.667 27.0653 85.5026 27.2386 83.468 27.9062C82.4383 28.4344 81.568 29.2273 80.9465 30.2034C80.3249 31.1795 79.9746 32.3036 79.9316 33.46C79.0398 44.1672 80.5028 58.24 81.4478 69.58C81.4394 69.6513 81.4461 69.7235 81.4677 69.792C81.4892 69.8604 81.525 69.9236 81.5726 69.9772C81.6203 70.0308 81.6788 70.0738 81.7443 70.1031C81.8098 70.1325 81.8807 70.1477 81.9525 70.1477C82.0242 70.1477 82.0952 70.1325 82.1606 70.1031C82.2261 70.0738 82.2846 70.0308 82.3323 69.9772C82.38 69.9236 82.4157 69.8604 82.4373 69.792C82.4588 69.7235 82.4656 69.6513 82.4572 69.58C82.236 58.9764 80.4734 45.1402 81.4478 33.46C81.5161 32.2519 82.0102 31.107 82.8423 30.2285C83.6745 29.3499 84.7909 28.7945 85.9936 28.6608C88.3903 28.6065 90.7795 28.948 93.065 29.6716C109.238 33.04 133.449 40.1072 146.86 43.82C236.726 68.1576 233.008 66.7534 235.515 68.32C241.073 71.561 240.377 77.9142 239.809 84.7378C239.809 85.8298 239.205 104.24 239.557 113.026C239.809 125.654 242.334 225.928 242.334 226.685C240.601 226.064 238.829 225.558 237.03 225.17C235.01 224.665 233.241 223.91 231.221 223.402C208.463 216.402 193.271 209.402 178.179 205.47C178.046 205.403 177.891 205.392 177.749 205.439C177.607 205.487 177.49 205.588 177.423 205.722C177.356 205.856 177.345 206.011 177.392 206.153C177.44 206.295 177.542 206.412 177.675 206.479C184.486 209.419 191.568 212.103 198.622 214.707C200.911 229.194 205.947 242.129 189.802 247.397C181.145 250.222 171.618 256.236 162.019 254.974C158.602 254.458 155.226 253.698 151.917 252.701C137.195 249.257 122.756 244.697 108.725 239.061C106.498 238.445 104.371 237.51 102.411 236.284C97.8642 233.505 100.125 232.211 101.401 231.736C109.411 228.76 118.031 227.527 126.406 225.676C127.549 225.397 128.653 224.974 129.689 224.416C129.864 224.305 129.999 224.141 130.074 223.947C130.148 223.754 130.157 223.541 130.1 223.342C130.043 223.143 129.923 222.967 129.758 222.842C129.592 222.717 129.391 222.649 129.184 222.648C120.834 223.915 112.568 225.686 104.432 227.951C101.912 228.71 97.8642 229.211 96.096 231.235C91.7728 235.952 106.81 240.489 113.777 243.358C127.761 248.677 142.111 252.982 156.715 256.238C160.247 257.21 163.924 257.553 167.576 257.249C172.627 256.743 177.135 254.88 181.973 252.955C185.983 251.36 190.056 249.672 194.096 247.904C197.498 246.521 200.403 244.145 202.432 241.084C206.707 232.981 203.764 223.675 200.752 215.491C208.79 218.448 227.139 225.329 235.522 227.192C237.979 228.1 240.516 228.776 243.099 229.212C243.277 229.206 243.451 229.158 243.606 229.072C243.762 228.985 243.894 228.863 243.993 228.714C244.092 228.566 244.154 228.397 244.174 228.22C244.195 228.043 244.172 227.864 244.11 227.697C245.031 222.866 245.538 217.965 245.624 213.048C244.115 149.708 241.657 113.487 243.096 79.94Z" fill="#111111"/><path d="M150.653 230.72C157.473 232.994 184.499 240.57 186.267 240.822C187.946 241.521 189.752 241.866 191.57 241.833C191.778 241.832 191.979 241.764 192.144 241.639C192.31 241.514 192.43 241.338 192.487 241.139C192.544 240.939 192.534 240.727 192.46 240.533C192.386 240.34 192.251 240.175 192.076 240.065C190.561 239.054 183.74 237.545 181.973 237.287C178.437 236.529 157.977 231.225 150.906 229.709C150.401 229.46 149.895 230.472 150.653 230.72Z" fill="#111111"/><path d="M161.514 163.288C162.128 163.796 162.807 164.22 163.534 164.548C166.113 165.407 169.834 168.175 170.859 167.831C170.969 167.816 171.074 167.774 171.165 167.709C171.255 167.645 171.328 167.559 171.378 167.459C171.428 167.36 171.453 167.25 171.45 167.139C171.448 167.027 171.418 166.918 171.364 166.821C170.92 165.042 165.204 163.488 164.293 163.031C163.477 162.761 162.63 162.592 161.773 162.527C161.378 162.511 161.008 162.782 161.514 163.288Z" fill="#111111"/><path d="M178.184 162.277C177.919 160.954 175.486 160.058 169.596 158.235C167.84 157.692 166.313 156.975 164.545 156.468C163.09 156.048 161.634 155.295 160.18 155.039C160.18 154.899 159.55 142.605 158.988 137.271C158.736 135.251 158.988 133.231 157.977 131.463C156.142 128.159 152.191 127.834 147.37 125.906C146.16 125.447 144.841 125.358 143.581 125.653C143.032 125.901 142.557 126.287 142.203 126.774C141.848 127.262 141.627 127.833 141.561 128.432C141.039 128.432 129.065 124.372 119.333 121.359C119.167 121.321 118.995 121.317 118.827 121.348C118.659 121.378 118.5 121.443 118.358 121.538C118.216 121.632 118.095 121.755 118.002 121.898C117.909 122.041 117.847 122.202 117.818 122.37C117.566 124.805 117.566 127.26 117.818 129.695C118.07 130.452 119.078 130.2 119.333 129.695C119.873 127.799 120.212 125.851 120.344 123.885C124.638 125.145 128.932 126.405 132.973 127.926C133.983 128.178 143.333 132.22 143.333 129.947C143.333 129.443 143.081 129.189 143.081 128.687C143.081 127.172 144.85 126.918 145.86 127.172C148.106 127.753 150.302 128.513 152.426 129.445C153.292 129.681 154.098 130.095 154.794 130.66C155.49 131.226 156.06 131.93 156.468 132.728C157.316 135.853 157.657 139.094 157.479 142.327C157.479 152.359 157.983 157.819 157.983 164.805C157.983 165.816 157.731 167.584 158.488 168.342C158.629 168.464 158.808 168.531 158.994 168.531C159.18 168.531 159.359 168.464 159.499 168.342C160.759 167.584 160.257 165.822 160.257 164.805C160.257 159.967 160.265 158.199 160.227 156.454C161.261 157.105 162.374 157.62 163.54 157.986C165.308 158.743 166.824 159.246 168.592 160.006C174.461 161.966 176.863 163.575 177.937 163.037C178.184 162.782 178.437 162.53 178.184 162.277Z" fill="#111111"/><path d="M141.561 186.271C141.608 186.209 141.64 186.135 141.652 186.058C141.665 185.98 141.659 185.901 141.634 185.826C141.609 185.751 141.566 185.684 141.509 185.63C141.452 185.575 141.383 185.536 141.308 185.514C135.499 183.24 129.688 180.968 124.132 178.189C123.627 177.937 123.375 177.937 123.123 178.443C117.313 183.999 109.231 181.22 108.725 181.472C108.22 181.472 88.2672 194.352 85.4854 196.375C84.98 196.881 84.4746 198.143 85.4854 198.395C100.387 204.709 138.022 221.635 142.316 223.653C142.527 223.777 142.769 223.841 143.014 223.837C143.259 223.834 143.499 223.764 143.707 223.634C143.915 223.504 144.084 223.32 144.194 223.101C144.305 222.882 144.354 222.637 144.336 222.393C144.213 216.325 142.318 189.05 141.561 186.271ZM114.541 193.596C115.801 194.102 117.32 194.856 118.836 194.102C120.096 193.596 121.356 192.587 122.877 192.842C123.096 192.876 123.3 192.975 123.464 193.124C123.628 193.274 123.744 193.469 123.798 193.684C123.852 193.9 123.841 194.126 123.767 194.336C123.693 194.545 123.559 194.728 123.382 194.862C121.908 196.018 120.174 196.799 118.331 197.135C116.057 197.387 113.784 196.125 111.511 195.367C107.47 193.599 102.924 193.094 99.3874 190.568C99.134 190.316 99.3874 189.308 100.145 189.559C110.103 191.855 111.737 192.898 114.534 193.596H114.541Z" fill="#E04747"/><path d="M237.287 171.118C231.731 54.6798 253.2 78.169 183.236 57.2054C187.025 111.005 183.236 112.519 180.709 56.4466C164.798 52.1528 141.308 45.8388 124.386 41.545C127.417 104.943 120.596 75.6434 123.126 41.293C77.406 28.1582 83.468 28.6636 86.24 70.5922H87.2508C100.384 72.107 101.885 91.2758 92.05 96.859C90.279 97.8656 97.8586 126.158 85.4826 123.633V146.873C90.0298 145.613 99.1214 136.77 99.1214 136.77C99.6268 132.728 100.916 128.961 102.152 127.424C105.764 122.944 108.984 120.161 113.014 119.342C121.128 117.692 130.2 122.118 139.287 124.643C139.793 124.643 141.309 122.864 143.076 123.127C151.166 124.338 156.705 124.398 160.756 129.947C163.527 133.742 163.276 137.271 163.534 148.133C232.82 169.005 231.458 168.753 237.287 171.118ZM103.674 60.9938C104.068 61.1761 104.5 61.2625 104.934 61.2458C106.702 61.7512 108.975 62.2566 110.491 60.7404C110.996 60.2364 110.996 59.731 111.502 59.4804C112.259 58.9764 113.016 59.4804 113.016 60.4912C112.947 61.3417 112.591 62.1435 112.006 62.7648C111.312 63.3408 110.498 63.7531 109.624 63.9713C108.749 64.1894 107.837 64.2077 106.954 64.0248C102.993 63.5322 99.1937 62.1505 95.8412 59.983C95.088 59.472 93.821 58.4682 94.073 57.2054C94.1819 56.8476 94.3771 56.5222 94.6415 56.2577C94.906 55.9933 95.2314 55.798 95.5892 55.6892C95.6577 56.3886 95.9345 57.0513 96.3838 57.5917C96.833 58.132 97.4341 58.5252 98.1092 58.7202C99.8382 59.7559 101.715 60.5225 103.674 60.9938ZM105.189 104.943C106.659 105.41 108.224 105.497 109.736 105.195C110.24 104.943 111.504 104.184 112.008 104.437C112.767 104.689 112.514 105.697 112.008 106.457C111.837 106.719 111.615 106.944 111.354 107.118C111.094 107.291 110.801 107.411 110.494 107.468C108.038 108.52 104.184 107.597 101.906 106.457C101.653 106.205 100.895 105.952 100.646 105.7C98.1176 103.932 103.421 104.689 105.189 104.943ZM123.123 90.3C125.643 89.7946 125.37 98.8848 124.89 103.433C124.624 105.953 126.406 116.82 123.88 116.313C122.112 108.983 122.618 99.1326 123.123 90.3ZM141.308 115.305C141.963 115.837 142.747 116.186 143.581 116.315C148.501 117.956 152.727 119.599 157.721 119.599C158.405 119.657 159.093 119.571 159.741 119.346C160.5 119.094 161.001 118.588 161.763 118.335C163.278 117.831 163.278 119.094 162.52 120.103C161.54 122.055 158.749 122.125 156.71 122.125C151.546 121.363 146.527 119.828 141.82 117.571C140.305 116.813 137.526 115.298 139.3 113.277C139.764 112.757 140.385 112.403 141.068 112.267C142.328 111.762 143.088 112.519 143.088 112.771C142.318 113.782 141.056 114.8 141.308 115.298V115.305ZM180.963 109.495C185.003 108.738 183.994 133.49 184.751 140.057C184.499 172.127 180.709 121.864 180.963 109.488V109.495ZM215.823 142.583C212.403 142.917 208.952 142.486 205.719 141.323C203.199 140.312 199.385 139.065 197.637 136.777C197.32 136.237 197.221 135.595 197.362 134.984C197.503 134.374 197.872 133.84 198.394 133.493C199.153 132.987 201.123 132.709 199.91 135.009C199.382 136.007 200.92 136.777 202.184 137.281C205.52 139.316 209.396 140.285 213.297 140.06C215.817 140.06 218.096 140.06 219.611 136.777C219.863 136.018 222.131 135.766 221.379 138.544C221.375 139.3 221.368 141.771 215.818 142.576L215.823 142.583ZM201.93 85.2474C202.436 86.5074 203.951 87.0156 204.961 87.521C209.003 89.0372 215.321 91.0574 218.348 87.521C219.863 85.7528 221.393 87.2732 221.126 88.0264C220.85 88.8648 220.352 89.6127 219.685 90.1908C219.018 90.7688 218.207 91.1554 217.337 91.3094C214.716 92.1942 211.877 92.1942 209.255 91.3094C206.018 90.608 202.934 89.3243 200.155 87.521C198.303 86.1518 200.173 81.7488 200.913 83.2272C201.228 83.5719 201.408 84.0198 201.418 84.4872C201.926 84.7364 201.926 84.9884 201.926 85.2404L201.93 85.2474ZM142.57 69.083C143.076 69.8404 154.694 73.8822 157.97 72.8714C158.981 72.6194 159.743 71.8788 160.749 71.6114C162.526 71.1354 161.255 73.885 160.749 74.3904C158.729 76.6626 155.445 75.6504 152.667 75.1478C146.14 73.5168 143.405 72.8616 141.301 71.3594C139.532 70.0994 140.041 68.3284 141.301 66.8122C141.554 66.5602 143.069 66.8122 142.561 67.571C142.824 67.8132 142.57 68.824 142.57 69.076V69.083ZM125.649 85.4938C161.629 95.6872 193.087 103.932 229.205 116.813C231.477 117.319 233.246 120.35 227.945 119.087C189.802 106.96 121.327 87.5938 103.674 81.452C99.3734 79.9568 99.1396 78.8704 102.917 79.6838C106.211 80.3936 113.562 82.0708 125.649 85.4938Z" fill="#E04747"/><path d="M187.277 157.983L188.034 204.205C188.034 204.205 225.163 217.339 231.983 217.339C234.256 217.339 236.277 216.833 237.034 215.319C238.294 212.799 237.793 192.087 237.539 173.643C237.537 173.39 188.287 158.236 187.277 157.983ZM198.643 182.736C199.149 182.231 199.903 182.988 199.653 183.494C198.393 185.262 198.891 186.543 200.913 187.03C204.19 187.817 207.477 188.31 210.764 188.797C212.53 189.06 214.047 189.05 215.816 189.302C216.906 189.429 218.008 189.429 219.099 189.302C219.604 189.05 223.14 186.019 223.14 187.788C222.635 193.344 215.571 191.766 211.774 191.324C209.228 191.036 206.699 190.616 204.197 190.064C202.164 189.606 199.65 189.305 197.883 188.042C196.118 186.271 196.875 184.251 198.643 182.736Z" fill="#E04747"/></svg>