<svg viewBox="0 0 280 280" fill="none" xmlns="http://www.w3.org/2000/svg"><path d="M91.2196 65.479C90.8874 65.8071 92.6962 67.3528 92.9517 67.5307C93.5568 67.9565 94.269 68.2094 95.0102 68.2617C95.7513 68.314 96.4927 68.1635 97.1529 67.8269C97.8131 67.4903 98.3666 66.9805 98.7527 66.3536C99.1387 65.7267 99.3423 65.0068 99.3412 64.2731C99.3046 63.3256 98.9496 62.4172 98.3322 61.6911C97.7149 60.965 96.8702 60.4625 95.9316 60.263C96.2746 58.8794 96.0962 57.4197 95.4296 56.1564C94.763 54.8931 93.6538 53.9123 92.3089 53.3972C90.964 52.882 89.4752 52.8675 88.1203 53.3565C86.7654 53.8455 85.6369 54.8045 84.9453 56.0547C83.1318 54.5429 80.8417 53.7022 78.4685 53.6772C76.0954 53.6522 73.7875 54.4444 71.9418 55.9176C70.096 57.3908 68.8277 59.453 68.3547 61.7496C67.8818 64.0462 68.2339 66.4338 69.3504 68.5018C67.7635 67.8712 66.0099 67.776 64.3625 68.231C62.715 68.686 61.266 69.6657 60.2406 71.0179C59.2152 72.3701 58.6709 74.0189 58.6923 75.7081C58.7138 77.3972 59.2997 79.0321 60.3591 80.3584C59.0435 80.2036 57.7095 80.3345 56.4505 80.7421C55.1915 81.1496 54.0379 81.8239 53.0704 82.7178C51.7868 83.7928 50.7672 85.1416 50.0886 86.6626C49.4099 88.1835 49.09 89.8367 49.1529 91.4976C49.3138 95.4829 52.9848 100.226 56.9909 99.9916C61.4951 99.1221 65.9382 97.9677 70.2925 96.5357C71.588 96.205 72.7643 95.5237 73.6888 94.5686C76.7396 90.8502 77.537 83.0109 77.5281 78.6742C77.5281 76.7275 77.1545 74.8013 77.1176 72.8794C78.0602 72.8713 78.9887 72.6518 79.8328 72.2375C80.677 71.8232 81.4148 71.225 81.9906 70.4879C82.9857 69.1581 83.4655 67.5203 83.3432 65.8713C84.4753 66.7735 85.9043 67.2323 87.3572 67.1599C88.8101 67.0875 90.1852 66.4891 91.2196 65.479V65.479Z" fill="#E04747"/><path d="M99.689 89.4497C97.9674 86.9494 95.8147 84.7664 93.3288 83C93.5185 83.1356 91.0888 85.2103 90.8424 85.368C90.0837 85.8734 88.7203 86.1165 88.1692 86.8283C87.7681 87.7092 87.5888 88.6728 87.6466 89.6368C87.4843 91.0839 87.3668 92.5382 87.2941 94C91.1861 93.8179 95.0561 93.3186 98.8647 92.5073C100.273 92.3364 100.93 91.2076 99.689 89.4497Z" fill="#E04747"/><path d="M213.04 55.8782C215.371 57.1089 217.354 58.8908 218.809 61.063C220.264 63.2352 221.146 65.7293 221.375 68.3203C221.384 68.5034 221.464 68.6762 221.599 68.8028C221.734 68.9294 221.913 69 222.099 69C222.286 69 222.465 68.9294 222.6 68.8028C222.735 68.6762 222.815 68.5034 222.824 68.3203C222.797 65.4495 221.899 62.6518 220.245 60.2856C218.591 57.9194 216.256 56.0924 213.538 55.0387C212.972 54.8193 212.46 55.5923 213.04 55.8782Z" fill="#E04747"/><path d="M226.718 66.5035C226.864 65.2592 226.878 64.0069 226.761 62.7605C226.671 61.753 224.759 61.7401 224.834 62.7605C224.921 64.067 225.148 65.3647 225.511 66.6389C225.686 67.2257 226.653 67.0371 226.718 66.5035Z" fill="#E04747"/><path d="M173.286 114.659C171.961 113.186 166.65 110.147 163.894 106.229C155.438 94.2062 152.821 79.8981 152.784 65.257C152.829 65.2364 157.113 62.2339 160.141 62.0969C162.225 62.0418 164.289 62.5091 166.14 63.4552C166.074 65.2905 166.272 67.1257 166.728 68.9062C169.116 82.0667 175.815 96.8139 189.038 99.6617C189.103 99.6796 189.172 99.6845 189.24 99.6763C189.307 99.6681 189.372 99.6468 189.431 99.6137C189.491 99.5806 189.543 99.5363 189.585 99.4834C189.626 99.4304 189.657 99.3699 189.675 99.3051C189.694 99.2404 189.699 99.1728 189.69 99.1062C189.682 99.0395 189.66 98.9752 189.627 98.9168C189.593 98.8584 189.548 98.807 189.495 98.7657C189.441 98.7244 189.38 98.694 189.314 98.6761C182.576 95.901 177.121 90.756 174.007 84.2383C168.748 73.7959 169.031 66.7715 167.631 62.9838C167.011 61.3072 162.085 59.8811 159.789 60.0078C157.366 60.1419 152.005 62.6891 151.743 63.5731C148.788 73.6029 151.767 85.1487 155.44 94.8191C157.252 99.5325 159.663 104 162.615 108.114C165.923 112.765 170.738 115.907 172.707 116C172.865 116.002 173.02 115.957 173.153 115.872C173.285 115.787 173.389 115.665 173.451 115.521C173.513 115.377 173.531 115.219 173.501 115.065C173.472 114.912 173.397 114.771 173.286 114.659V114.659Z" fill="#E04747"/><path d="M188.494 99.2646C186.228 102.758 189.059 107.954 192.895 108.798C196.635 109.622 201.555 107.905 202.718 104.009C202.923 103.323 201.922 102.663 201.442 103.271C200.613 104.48 199.48 105.45 198.156 106.083C196.833 106.717 195.366 106.993 193.902 106.882C190.114 106.442 189.337 102.722 189.578 99.5479C189.624 98.9496 188.782 98.8202 188.494 99.2646Z" fill="#E04747"/><path d="M248.647 154.304C248.102 144.913 247.2 137.744 242.909 128.615C238.142 118.467 230.652 108.419 220.876 102.61C215.85 99.6226 209.878 97.9862 204.134 99.688C203.562 99.8573 203.64 100.818 204.283 100.768C218.614 99.6553 229.829 110.917 236.942 122.17C243.876 133.151 245.733 141.326 246.388 152.895C246.406 156.42 246.697 159.939 247.258 163.419C247.461 164.362 248.773 164.062 248.849 163.201C248.998 160.234 248.93 157.261 248.647 154.304V154.304Z" fill="#E04747"/><path d="M245.921 162.906C244.154 163.358 242.345 163.625 240.524 163.704C239.623 163.676 238.505 163.293 237.522 163.293C237.175 156.77 232.758 146.284 228.849 139.947C224.573 133.012 218.829 126.012 211.619 122.065C211.109 121.785 210.534 122.476 210.983 122.889L211.063 122.971C210.979 123.024 210.909 123.098 210.861 123.186C210.813 123.274 210.787 123.373 210.787 123.474C210.502 139.64 215.954 155.755 223.949 169.443C224.758 170.827 225.69 173.196 227.173 173.916C227.294 173.976 227.427 174.004 227.56 174C227.694 173.995 227.825 173.957 227.941 173.89C228.057 173.822 228.155 173.727 228.226 173.612C228.297 173.497 228.34 173.367 228.349 173.232C228.292 171.659 226.869 170.183 226.088 168.862C218.635 156.246 212.27 138.625 212.019 123.88C221.007 132.501 227.601 139.22 232.403 152C233.848 155.845 234.472 159.825 235.637 163.725C235.639 163.923 235.694 164.117 235.798 164.285C235.902 164.453 236.05 164.589 236.225 164.677C239.493 165.995 244.31 166.628 246.689 164.212C247.272 163.624 246.639 162.787 245.921 162.906Z" fill="#E04747"/><path d="M225.858 173.546C220.585 176.235 217.498 180.933 205.834 181.66C197.84 182.155 189.495 181.529 182.1 178.295C182.1 178.244 178.716 172.775 176.622 161.532C171.522 134.23 174.156 125.629 177.682 108.668C177.793 108.139 176.982 107.703 176.742 108.258C174.523 113.848 173.079 119.714 172.449 125.693C170.872 137.738 171.559 149.971 174.476 161.764C175.918 167.671 177.934 173.422 180.494 178.939C187.591 184.243 198.102 184.345 206.603 183.76C210.5 183.513 214.319 182.557 217.871 180.939C220.814 179.58 225.274 177.509 226.754 174.425C226.825 174.301 226.853 174.157 226.833 174.015C226.813 173.873 226.747 173.742 226.645 173.642C226.543 173.542 226.41 173.478 226.268 173.46C226.126 173.443 225.982 173.473 225.858 173.546V173.546Z" fill="#E04747"/><path d="M139 0.538121C138.806 -0.335873 137.641 -0.0561945 137.574 0.740597C137.211 5.05813 138.105 9.70486 138.703 13.9787C139.334 18.5432 140.198 23.0701 141.292 27.5402C141.493 28.3486 142.632 28.0005 142.499 27.1964C139.162 6.94741 140.317 6.46963 139 0.538121Z" fill="#E04747"/><path d="M154.667 25.8145C162.626 17.0273 167.853 12.5183 170.457 9.25708C170.919 8.68052 170.323 7.62351 169.591 8.13649C164.327 11.8324 157.571 19.9633 153.666 25.0384C153.224 25.6179 154.184 26.3482 154.667 25.8145Z" fill="#E04747"/><path d="M165.167 25.9662C170.198 23.9437 175.804 22.2274 180.326 19.3072C180.981 18.8838 180.606 17.7857 179.749 18.0369C174.494 19.6135 169.587 22.672 164.808 25.1843C164.372 25.42 164.667 26.1666 165.167 25.9662Z" fill="#E04747"/><path d="M124.361 21.6658C122.026 18.3136 119.45 15.1485 116.654 12.1975C116.523 12.0764 116.355 12.0067 116.18 12.0005C116.004 11.9942 115.832 12.0518 115.694 12.1632C115.555 12.2746 115.459 12.4328 115.421 12.6101C115.384 12.7874 115.408 12.9727 115.489 13.1336C117.607 16.4009 119.964 19.4963 122.538 22.3928C125.078 25.5775 127.694 28.6599 130.307 31.7979C130.792 32.3789 131.811 31.5842 131.35 30.9626C129.039 27.8517 126.749 24.7256 124.361 21.6658Z" fill="#E04747"/><path d="M120.111 36.5876C115.773 33.7665 110.943 31.8695 105.9 31.0057C105.236 30.9138 105.194 31.9571 105.751 32.1672C110.421 33.7292 114.972 35.655 119.366 37.9282C119.534 38.0095 119.726 38.0223 119.903 37.9639C120.08 37.9054 120.23 37.7801 120.323 37.6124C120.416 37.4448 120.446 37.2468 120.407 37.0572C120.368 36.8677 120.262 36.7002 120.111 36.5876V36.5876Z" fill="#E04747"/><path d="M39.7153 272.736C37.575 272.287 36.1022 273.047 34.0968 271.453C31.1512 269.113 27.9148 261.27 25.9554 258.436C25.6291 257.965 24.8 258.234 24.9839 258.852C25.7152 261.317 29.8919 272.318 35.0105 274.529C36.2773 274.846 37.5883 274.945 38.8876 274.82C39.6782 275.481 31.3796 277.987 29.84 277.914C27.8141 277.684 25.8034 277.334 23.8181 276.866C19.6799 273.484 15.9971 267.291 13.4667 262.575C14.1505 257.281 15.1443 256.219 14.2083 256.011C14.1099 255.99 14.0075 255.999 13.9144 256.038C13.8213 256.076 13.7418 256.142 13.6863 256.226C13.001 257.253 11.5905 261.484 12.114 262.277C12.9334 265.629 14.4128 268.78 16.4643 271.543C18.0959 273.748 21.1261 279.093 29.0999 279.955C32.9815 280.375 40.7165 277.757 41.4966 276.899C42.9739 275.273 41.5886 273.125 39.7153 272.736Z" fill="#E04747"/><path d="M53.4126 65.5387C54.1312 62.5276 55.3414 59.657 56.9942 57.0433C58.7758 54.5371 60.7938 52.2092 63.0202 50.092C63.127 49.9808 63.1905 49.8347 63.199 49.6804C63.2075 49.526 63.1606 49.3738 63.0667 49.2513C62.9729 49.1289 62.8383 49.0444 62.6876 49.0132C62.5369 48.9821 62.3801 49.0064 62.2457 49.0816C56.7479 52.2177 53.4409 59.2215 52.1739 65.1804C51.9993 66.0034 53.2186 66.3497 53.4126 65.5387Z" fill="#E04747"/><path d="M52.1649 52.1667C49.7881 54.6862 48.3666 57.9551 48.1459 61.4092C48.0555 62.2067 49.2957 62.1871 49.4012 61.4092C49.9966 58.3299 51.2542 55.4162 53.0871 52.8693C53.1554 52.7464 53.1772 52.6031 53.1484 52.4655C53.1196 52.3279 53.0421 52.2053 52.9302 52.12C52.8183 52.0347 52.6793 51.9925 52.5388 52.0011C52.3983 52.0097 52.2656 52.0684 52.1649 52.1667V52.1667Z" fill="#E04747"/><path d="M195.603 86.8964C197.338 86.5705 198.383 84.334 197.258 84.0236C196.711 83.8719 196.621 84.4823 195.129 84.9858C194.524 85.1061 193.905 85.1241 193.295 85.0392C193.138 85.0415 192.988 85.1127 192.877 85.2373C192.767 85.362 192.705 85.53 192.706 85.7048C192.711 86.3635 193.953 87.3171 195.603 86.8964Z" fill="#111111"/><path d="M191.845 92.049C191.498 92.746 190.165 96.9684 189.736 98.3414C189.561 98.8919 190.426 99.2718 190.689 98.7558C191.339 97.4829 193.282 93.5507 193.523 92.8328C197.847 94.2343 202.283 91.3775 202.739 88.0974C202.818 87.5245 202.097 86.8545 201.614 87.4453C200.089 89.3089 198.637 91.1531 195.958 91.1187C194.735 91.0891 193.55 90.6941 192.558 89.9854C191.565 89.2767 190.81 88.2872 190.393 87.1461C188.634 82.7817 189.668 77.5946 191.413 73.4051C191.563 73.0267 190.995 72.8577 190.79 73.1434C186.854 78.6102 186.1 88.6164 191.845 92.049Z" fill="#111111"/><path d="M193.597 77.7205C193.916 77.3843 193.503 76.7978 193.048 77.07C191.646 77.9068 189.694 79.2952 189.694 81.0198C189.694 82.3398 191.727 83.7471 192.912 82.5421C193.004 82.449 193.055 82.3282 193.055 82.203C193.055 82.0777 193.004 81.9569 192.912 81.8639C192.23 81.1668 191.111 81.3065 191.816 80.1175C192.313 79.2624 192.91 78.4587 193.597 77.7205V77.7205Z" fill="#111111"/><path d="M197.351 76.0416C197.205 75.9924 197.04 75.9866 196.889 76.0253C196.737 76.0641 196.609 76.1446 196.53 76.2516C196.215 76.5402 195.957 76.8631 195.764 77.2099C195.694 77.3598 195.704 77.5251 195.791 77.6696C195.878 77.814 196.035 77.9258 196.228 77.9805C197.943 78.2152 197.982 76.2568 197.351 76.0416Z" fill="#111111"/><path d="M198.376 76.6136C198.41 76.7138 198.476 76.8029 198.564 76.8705C198.652 76.9381 198.759 76.9813 198.873 76.9952C198.987 77.009 199.103 76.9929 199.208 76.9487C199.312 76.9046 199.401 76.8341 199.463 76.7457C199.667 76.359 199.758 75.9309 199.728 75.5027C199.698 75.0745 199.547 74.6606 199.291 74.301C199.117 73.9192 198.824 73.5925 198.449 73.3613C198.074 73.13 197.632 73.0044 197.18 73C197.068 73.0025 196.961 73.0413 196.878 73.1094C196.795 73.1775 196.741 73.2705 196.726 73.3716C196.711 73.4727 196.736 73.5754 196.796 73.6613C196.857 73.7471 196.949 73.8105 197.056 73.84C197.58 73.98 197.939 74.7408 198.079 75.174C198.219 75.6072 198.175 76.1513 198.376 76.6136Z" fill="#111111"/><path d="M201.918 71.5436C201.302 74.9883 203.844 80.8144 207.955 80.5475C206.09 83.1858 204.775 86.1907 204.094 89.3739C203.055 92.6743 202.797 96.1806 203.339 99.6036C203.472 100.266 204.336 100.017 204.4 99.4545C204.656 96.1121 205.225 92.8028 206.1 89.5723C206.731 87.4369 210.884 81.3333 212.451 76.3676C212.941 74.5442 212.89 72.6126 212.305 70.8188C211.93 69.627 211.148 68.614 210.103 67.9656C209.058 67.3173 207.82 67.0771 206.616 67.2892C206.062 64.9554 202.587 63.0213 199.25 64.3962C198.124 62.3726 195.343 61.9223 193.131 62.0103C190.332 62.1251 188.768 64.596 188.693 67.319C188.515 73.5627 197.273 72.9557 201.918 71.5436Z" fill="#111111"/><path d="M152.978 59.7427C149.591 59.3728 149.587 54.4408 149.532 51.8701C149.476 49.0956 150.252 46.4179 150.235 43.6709C150.231 43.5227 150.18 43.3797 150.09 43.2632C150 43.1466 149.875 43.0628 149.734 43.024C149.593 42.9852 149.444 42.9936 149.308 43.0479C149.173 43.1022 149.058 43.1996 148.981 43.3255C147.098 46.8659 145.852 62.4638 153.132 60.8887C153.823 60.7398 153.586 59.8092 152.978 59.7427Z" fill="#111111"/><path d="M152.823 50.5964C153.476 47.2565 154.857 44.0751 155.541 40.7749C155.581 40.6301 155.56 40.4778 155.482 40.3451C155.405 40.2124 155.275 40.1078 155.117 40.0498C154.959 39.9918 154.783 39.9842 154.619 40.0283C154.455 40.0724 154.314 40.1653 154.222 40.2906C152.288 43.408 151.372 46.9237 151.572 50.459C151.565 51.0678 152.7 51.2292 152.823 50.5964Z" fill="#111111"/><path d="M158.53 39.1493C155.822 42.3297 154.415 46.3231 154.568 50.4007C154.57 50.5461 154.627 50.686 154.728 50.795C154.83 50.9041 154.97 50.9748 155.123 50.9945C155.276 51.0141 155.431 50.9812 155.56 50.9019C155.689 50.8226 155.783 50.7021 155.826 50.5624C156.441 48.7451 156.886 46.8817 157.541 45.0732C158.197 43.2647 159.051 41.5601 159.562 39.7204C159.59 39.5981 159.577 39.4704 159.524 39.3557C159.471 39.241 159.38 39.145 159.266 39.0816C159.151 39.0182 159.019 38.9907 158.887 39.0028C158.754 39.0149 158.63 39.0662 158.53 39.1493V39.1493Z" fill="#111111"/><path d="M165.489 40.9045C165.888 40.3697 165.125 39.8038 164.585 40.0663C160.685 41.9613 158.429 46.6065 157.581 50.3965C157.552 50.5211 157.575 50.6513 157.647 50.7602C157.718 50.8692 157.832 50.9487 157.964 50.9823C158.097 51.016 158.238 51.0012 158.36 50.941C158.481 50.8809 158.573 50.7799 158.616 50.659C161.051 44.8497 163.615 43.4189 165.489 40.9045Z" fill="#111111"/><path d="M165.856 49.0165C162.138 50.2021 159.429 54.691 158.589 58.2175C158.55 58.3821 158.581 58.5549 158.674 58.6977C158.766 58.8406 158.914 58.9418 159.084 58.9792C160.042 59.1904 159.907 57.8118 163.13 53.8508C164.364 52.6047 165.501 51.2717 166.533 49.8627C166.588 49.7629 166.612 49.6497 166.602 49.537C166.592 49.4242 166.548 49.3166 166.477 49.2272C166.405 49.1378 166.309 49.0703 166.199 49.0329C166.088 48.9956 165.969 48.9899 165.856 49.0165Z" fill="#111111"/><path d="M234.892 175.56C234.662 176.355 234.706 177.204 235.015 177.972C235.325 178.74 235.883 179.384 236.602 179.803C239.571 181.501 244.075 181.08 247.279 180.437C250.354 179.819 252.941 178.807 252.941 175.288C252.655 171.491 250.991 167.926 248.257 165.253C248.095 165.101 247.883 165.012 247.66 165.001C247.436 164.99 247.217 165.059 247.04 165.194C246.863 165.329 246.741 165.523 246.695 165.74C246.649 165.957 246.682 166.183 246.789 166.377C247.966 168.649 249.743 170.464 250.482 172.988C250.785 174.02 251.227 175.89 250.55 176.916C249.874 177.943 247.855 178.218 246.728 178.447C244.182 178.986 241.551 178.996 239.001 178.474C235.183 177.666 237.306 174.424 237.205 171.84C237.202 171.715 237.154 171.596 237.071 171.503C236.987 171.41 236.873 171.35 236.749 171.332C236.624 171.315 236.498 171.342 236.392 171.408C236.285 171.475 236.206 171.577 236.169 171.695C235.959 172.193 235.731 172.747 235.51 173.325C233.177 173.642 234.198 171.011 234.571 170.013C235.001 168.848 235.558 167.733 236.23 166.687C236.545 166.201 235.87 165.777 235.473 166.108C233.569 167.686 231.537 170.363 231.902 173C232.093 174.393 233.603 175.817 234.892 175.56Z" fill="#111111"/><path d="M267.555 252.69C267.482 252.58 253.08 234.093 247.684 224.4C235.603 202.663 230.154 184.064 226.571 176.216C226.364 175.761 225.717 176.101 225.804 176.539C227.415 184.744 233.7 200.273 237.106 207.934C243.264 221.785 254.588 242.924 265.493 252.259C263.845 254.226 261.653 255.66 259.195 256.38C254.897 252.178 237.276 240.671 216.099 207.044C212.133 200.747 208.739 194.236 204.949 187.909C204.703 187.5 203.957 187.769 204.132 188.246C208.143 199.218 215.131 209.866 221.92 219.585C221.704 220.188 220.694 224.653 220.694 224.653C214.673 224.538 208.671 223.936 202.747 222.854C196.808 221.707 191.015 219.896 185.478 217.455C178.941 214.729 178.494 212.954 178.799 201.119C179.084 194.33 180.015 187.583 181.581 180.972C181.601 180.897 181.607 180.818 181.598 180.741C181.588 180.664 181.563 180.589 181.525 180.521C181.487 180.454 181.436 180.394 181.374 180.346C181.313 180.298 181.243 180.263 181.168 180.242C181.094 180.221 181.016 180.216 180.938 180.225C180.861 180.235 180.787 180.259 180.72 180.298C180.652 180.336 180.593 180.388 180.545 180.449C180.497 180.51 180.462 180.581 180.441 180.656C178.033 187.739 176.76 195.161 176.672 202.644C176.551 211.169 176.541 215.646 182.517 218.479C193.399 223.634 209.453 227.616 221.107 226.072C222.246 232.083 222.664 238.21 222.353 244.322C222.361 244.519 222.425 244.709 222.538 244.871C222.651 245.033 222.807 245.159 222.989 245.234C223.17 245.309 223.37 245.331 223.563 245.296C223.757 245.262 223.936 245.172 224.081 245.038C227.742 240.985 229.834 235.749 229.979 230.279C241.357 244.43 254.304 255.654 258.133 257.955C258.133 257.978 257.236 268.067 251.235 269.992C250.69 270.1 250.173 270.318 249.715 270.633C249.257 270.948 248.868 271.353 248.57 271.824C247.213 274.501 262.748 273.965 262.798 273.94C264.371 273.149 269.532 255.637 267.555 252.69Z" fill="#111111"/><path d="M199.39 186.365C198.473 192.914 196.918 199.36 194.746 205.612C194.678 205.88 194.717 206.163 194.855 206.403C194.993 206.643 195.22 206.821 195.487 206.899C201.869 208.833 207.811 212.008 214.143 213.971C214.762 214.164 215.019 213.336 214.554 212.999C210.497 210.049 201.481 206.542 197.071 205.188C198.894 199.106 200.008 192.837 200.391 186.503C200.426 185.937 199.467 185.791 199.39 186.365Z" fill="#111111"/><path d="M138.874 42.1784C138.761 42.0815 138.617 42.0205 138.463 42.0043C138.309 41.9881 138.153 42.0177 138.019 42.0886C137.885 42.1596 137.779 42.268 137.718 42.3979C137.657 42.5278 137.644 42.6722 137.68 42.8096C138.405 45.4372 140.458 47.6891 140.181 52.6713C140.001 56.0364 138.758 59.2826 136.603 62.0207C136.133 62.6079 137.196 63.3639 137.717 62.8031C140.416 60.0876 142.077 56.6489 142.451 53.0016C142.756 49.4814 141.913 44.6622 138.874 42.1784Z" fill="#111111"/><path d="M137.167 51.4678C137.193 51.6167 137.273 51.7518 137.392 51.8492C137.511 51.9466 137.661 52 137.817 52C137.972 52 138.123 51.9466 138.242 51.8492C138.361 51.7518 138.44 51.6167 138.467 51.4678C138.659 47.4344 137.898 42.055 134.562 39.169C134.461 39.0768 134.331 39.0189 134.193 39.0039C134.055 38.9889 133.915 39.0175 133.795 39.0856C133.675 39.1537 133.581 39.2576 133.526 39.3818C133.472 39.5061 133.46 39.6441 133.493 39.7753C134.392 42.6901 136.594 45.0713 137.167 51.4678Z" fill="#111111"/><path d="M133.083 50.3554C133.175 51.1862 134.488 51.2431 134.478 50.3554C134.435 46.3545 133.321 40.2909 129.443 38.0816C129.33 38.0202 129.2 37.9925 129.071 38.0017C128.942 38.011 128.818 38.0569 128.715 38.1338C128.612 38.2106 128.534 38.3151 128.492 38.4343C128.449 38.5535 128.443 38.6822 128.475 38.8046C129.523 41.5243 132.341 43.7141 133.083 50.3554Z" fill="#111111"/><path d="M128.757 45.163C130.961 51.2214 129.547 53.0029 130.768 53C130.918 53 131.061 52.9441 131.167 52.8445C131.273 52.7449 131.332 52.6099 131.332 52.469C131.65 49.8478 131.402 47.1931 130.603 44.6642C130.016 42.213 128.714 39.9642 126.844 38.1699C126.311 37.7589 125.172 38.1289 125.502 38.9012C126.432 41.0821 127.937 42.9148 128.757 45.163Z" fill="#111111"/><path d="M127.549 58.6901C127.647 59.1724 128.464 59.0594 128.455 58.5742C128.352 54.8132 127.153 50.1463 123.491 48.0855C123.355 48.0138 123.199 47.9861 123.045 48.0066C122.891 48.0271 122.748 48.0946 122.639 48.199C122.529 48.3033 122.459 48.4387 122.438 48.5846C122.417 48.7305 122.447 48.8788 122.523 49.0071C123.773 51.0937 126.503 53.5123 127.549 58.6901Z" fill="#111111"/><path d="M136.088 63.7129C135.388 65.423 134.958 67.2305 134.812 69.0713C133.511 75.0388 131.272 80.7645 128.179 86.0372C124.14 93.2504 111.36 104.469 111.36 104.469C111.36 104.469 108.699 99.4067 108.3 89.6394C116.856 84.8998 123.561 77.4289 127.333 68.431C128.492 66.0735 129.242 63.5375 129.551 60.9307C129.592 60.0562 128.179 59.5984 127.811 60.4611C126.546 63.4288 124.411 75.6663 111.797 84.9184C104.694 90.0196 96.2484 92.9427 87.4992 93.3284C87.61 92.3775 87.4992 91.4147 87.5864 90.4696C87.6736 89.5245 87.882 88.472 88.0372 87.471C95.7803 85.8958 96.7426 72.3085 91.1297 66.6041C90.5769 66.0403 89.7801 66.7513 90.095 67.402C91.9546 71.3207 93.421 75.0024 92.6272 79.4393C92.4142 81.6713 91.3368 83.7332 89.6234 85.1878C88.5776 85.834 87.3415 86.1053 86.1197 85.9568C84.8979 85.8082 83.7637 85.2487 82.9048 84.3708C82.5337 84.0248 81.8582 84.4812 82.1657 84.9346C82.6658 85.7476 83.3663 86.4198 84.2007 86.8874C85.035 87.3551 85.9756 87.6026 86.933 87.6064C86.203 89.4466 86.0595 91.466 86.5221 93.3903C84.8726 93.4418 83.2215 93.3887 81.5788 93.2313C80.7599 93.1459 71.886 93.8437 67.8829 96.3595C65.8311 96.1107 59.8915 98.4837 58.2344 99.3036C53.1909 101.792 48.5784 105.066 44.571 109.002C43.7461 109.816 42.3832 110.849 42.4585 112.152C42.7221 113.301 43.4123 114.307 44.3906 114.97C40.1806 118.675 37.0097 124.456 37.9455 130.028C39.066 136.698 45.0203 142.484 50.855 145.518C51.0009 145.598 51.1706 145.623 51.3334 145.589C51.4962 145.555 51.6415 145.464 51.743 145.333C51.8445 145.202 51.8956 145.039 51.887 144.873C51.8784 144.708 51.8107 144.551 51.6961 144.431C47.4181 139.933 41.7712 136.933 40.2101 130.435C38.7718 124.454 42.5354 120.461 45.6205 116.009C47.1659 117.619 48.8778 119.063 50.7278 120.315C50.8572 120.385 51.0059 120.411 51.1516 120.39C51.2972 120.369 51.4321 120.301 51.5359 120.197C51.6397 120.093 51.707 119.958 51.7276 119.813C51.7482 119.668 51.7211 119.52 51.6503 119.392C50.8417 117.967 44.7129 112.209 44.8577 111.609C45.0943 110.624 50.6998 106.124 52.0657 105.132C56.1403 102.18 60.6212 99.8288 65.3699 98.151C61.668 101.064 58.7268 104.824 56.796 109.111C54.4072 114.472 53.9253 120.396 53.742 126.197C52.6984 159.172 49.4033 156.661 46.8342 164.809C46.7883 164.918 43.9634 176.68 43.5525 178.39C37.5212 198.695 33.6482 211.838 23.9288 233.203C18.888 244.282 16.3335 248.448 14.0585 253.677C13.7023 254.494 15.1953 256.658 19.4526 257.873C20.684 258.225 24.5348 257.873 25.6391 256.492C26.7433 255.111 32.034 248.139 35.0525 244.025C38.7482 238.996 59.3637 207.571 64.5879 196.157C67.2487 190.347 70.8497 177.932 71.5607 177.508C71.8313 177.348 72.1772 177.656 72.2718 177.95C72.3664 178.244 70.8615 184.65 70.1875 187.542C69.775 189.309 69.1911 193.261 69.7765 194.03C71.0998 195.584 72.5281 197.047 74.0516 198.408C70.874 199.56 67.8067 200.994 64.8865 202.693C61.386 205.226 58.5744 210.201 56.391 213.85C55.6179 215.141 51.9651 222.241 51.3546 223.654C51.2632 223.813 51.2102 223.991 51.1998 224.173C51.1895 224.356 51.222 224.539 51.2949 224.707C51.3678 224.875 51.479 225.024 51.6197 225.141C51.7605 225.259 51.9268 225.343 52.1056 225.385C57.7406 225.08 63.5294 223.202 68.891 221.558C74.7757 219.773 80.5204 217.558 86.0786 214.933C90.8888 212.644 96.2312 209.921 99.4803 205.566C103.705 199.9 90.769 164.669 85.9884 163.825C85.5775 163.753 79.796 170.398 56.7325 166.898C54.0716 166.493 51.9533 164.769 49.393 164.018C53.0886 158.817 53.8839 152.016 54.623 145.901C56.8404 127.58 53.5883 114.039 62.8155 103.486C67.4845 98.1991 74.0094 94.8936 81.0496 94.2485C81.2048 94.2485 88.3639 98.1451 107.086 90.3092C106.911 93.3995 107.135 96.4993 107.75 99.5333C108.094 101.214 109.949 107.385 110.913 108.431C104.438 113.807 100.305 115.055 96.3701 117.25C96.2133 117.419 96.1006 117.625 96.0419 117.848C95.1446 123.28 87.208 156.02 86.5265 159.403C86.481 159.642 86.5276 159.89 86.657 160.096C86.7864 160.303 86.9892 160.453 87.2249 160.518C87.4606 160.582 87.712 160.556 87.9291 160.444C88.1462 160.332 88.313 160.143 88.3965 159.914C89.6811 156.497 97.2364 121.548 97.0102 118.325C102.984 117.294 108.504 113.131 112.476 108.81C112.771 108.485 112.164 106.486 111.81 105.645C111.958 105.759 125.39 94.6386 129.795 87.3915C131.968 83.8126 133.746 80.0102 135.099 76.0505C135.777 74.0691 137.949 65.8195 137.403 63.9426C137.366 63.8083 137.291 63.6873 137.188 63.5936C137.084 63.4999 136.956 63.4374 136.818 63.4134C136.681 63.3893 136.539 63.4047 136.409 63.4577C136.28 63.5107 136.168 63.5992 136.088 63.7129V63.7129Z" fill="#111111"/><path d="M89.6376 78.1768C90.5466 78.7801 93.0056 79.7473 93.3106 78.0352C93.4447 77.2833 91.6236 73.9965 91.0366 73.1851C90.7654 72.8126 89.9843 73.0435 90.1815 73.5122C90.599 74.5035 91.5881 77.3583 91.5681 77.3866C91.5481 77.4149 90.6761 77.0397 90.2139 76.908C89.348 76.6573 88.9813 77.7421 89.6376 78.1768Z" fill="#111111"/><path d="M86.0976 74.6058C86.3544 73.9237 86.3544 73.1905 86.0976 72.5085C86.0438 72.3611 85.9361 72.2323 85.7901 72.1408C85.6441 72.0493 85.4676 72 85.2863 72C85.105 72 84.9284 72.0493 84.7824 72.1408C84.6365 72.2323 84.5287 72.3611 84.475 72.5085C84.2181 73.1905 84.2181 73.9237 84.475 74.6058C84.5582 74.7258 84.6768 74.8254 84.8191 74.8945C84.9614 74.9636 85.1224 75 85.2863 75C85.4501 75 85.6111 74.9636 85.7534 74.8945C85.8957 74.8254 86.0143 74.7258 86.0976 74.6058V74.6058Z" fill="#111111"/><path d="M83.2022 72.7577C84.1719 70.8255 85.4485 70.8418 86.1345 70.0699C86.2007 69.9934 86.2482 69.899 86.2722 69.7958C86.2963 69.6927 86.2962 69.5843 86.2718 69.4812C86.2475 69.3781 86.1998 69.2838 86.1334 69.2076C86.0669 69.1313 85.9841 69.0757 85.8928 69.0461C84.1951 68.6545 82.8273 70.8434 82.3034 72.3384C82.1095 72.8909 82.946 73.2712 83.2022 72.7577Z" fill="#111111"/><path d="M83.3404 78.6191C84.3655 82.1585 88.155 83.8031 89.9709 82.6194C90.0869 82.5501 90.1795 82.4512 90.2378 82.3344C90.296 82.2176 90.3176 82.0877 90.2999 81.9598C90.2822 81.832 90.226 81.7115 90.1378 81.6125C90.0497 81.5134 89.9332 81.4399 89.8021 81.4006C88.6574 81.3379 87.5406 81.0445 86.5283 80.5403C85.6387 79.8336 84.8224 79.0497 84.0905 78.1992C84.031 78.106 83.9344 78.0388 83.822 78.0124C83.7097 77.9859 83.5906 78.0023 83.4912 78.058C83.3917 78.1137 83.3199 78.2041 83.2917 78.3093C83.2634 78.4145 83.2809 78.526 83.3404 78.6191V78.6191Z" fill="#111111"/></svg>