<svg viewBox="0 0 280 280" fill="none" xmlns="http://www.w3.org/2000/svg"><path d="M217.98 120.747C219.178 119.263 220.545 117.923 222.053 116.754L222.288 116.519C227.619 117.759 233.216 117.094 238.108 114.639C250.79 108.094 256.143 90.888 248.445 73.9158C240.211 55.9958 225.506 50.155 214.458 54.1016C214.613 53.7096 214.691 53.3176 214.848 52.927C215.005 52.3782 214.535 51.5956 213.909 51.667C201.769 52.8416 195.191 64.9796 189.944 74.5346C186.341 81.1146 182.974 87.927 180.004 94.8178C178.083 99.0864 179.189 100.082 181.335 104.373C182.931 107.594 184.737 110.707 186.739 113.693C188.733 116.255 191.796 114.618 207.022 112.675C207.649 113.614 209.373 113.065 208.982 111.812C204.126 96.8548 206.71 80.7996 210.861 65.9988C211.88 62.3952 213.053 58.793 214.151 55.2692C221.654 54.4362 226.652 54.523 233.495 58.9498C242.276 64.8508 250.015 78.1746 249.393 90.9804C248.31 111.334 228.705 120.133 216.108 110.481C215.312 109.872 214.386 110.795 214.465 111.579C206.476 117.06 199.819 124.739 198.174 134.525C196.517 144.766 200.145 154.855 201.855 161.7C201.954 162.249 202.196 162.762 202.555 163.188C205.775 166.31 215.247 164.535 213.518 158.488C213.219 157.388 212.891 156.286 212.57 155.179C215.204 155.935 217.604 157.343 219.549 159.272C221.977 162.169 238.972 181.826 240.46 183.55C241.556 184.81 242.731 186.605 244.609 186.605C248.056 186.526 248.291 181.826 248.368 179.325C248.663 170.506 248.006 161.682 246.408 153.005C246.067 151.319 245.158 149.801 243.833 148.704C242.509 147.606 240.848 146.996 239.128 146.973C229.849 146.286 218.211 150.979 212.192 153.826C208.991 142.279 210.483 129.8 217.98 120.747ZM200.361 75.88C199.752 77.7098 198.09 79.688 196.916 79.9526C194.877 80.4104 193.224 77.8526 195.114 75.488C195.594 75.0092 195.615 74.753 196.374 73.9998C196.801 73.5889 197.307 73.2693 197.862 73.0604C199.431 72.6236 200.792 73.9312 200.361 75.88ZM226.989 151.845C229.224 151.08 231.535 150.555 233.881 150.28C234.98 150.14 239.705 149.786 240.85 150.828C240.942 150.911 241.013 151.015 241.056 151.131C241.099 151.247 241.113 151.372 241.098 151.495C241.082 151.618 241.038 151.735 240.967 151.837C240.897 151.939 240.803 152.023 240.694 152.081C239.509 152.628 239.294 151.915 234.037 152.002C231.758 152.054 229.495 152.397 227.303 153.021C227.225 153.042 227.144 153.047 227.064 153.036C226.985 153.026 226.908 152.999 226.838 152.959C226.769 152.919 226.708 152.865 226.659 152.801C226.611 152.737 226.575 152.664 226.554 152.587C226.534 152.509 226.529 152.428 226.539 152.348C226.55 152.269 226.576 152.192 226.617 152.123C226.657 152.053 226.711 151.992 226.775 151.943C226.838 151.895 226.911 151.859 226.989 151.838V151.845Z" fill="#111111"/><path d="M130.974 85.6632C123.336 85.043 81.7908 97.6738 60.1762 121.223C59.3936 121.145 58.5312 122.242 59.3152 122.868C69.202 130.75 76.8348 135.414 92.1298 152.079C94.8654 155.061 97.713 157.934 100.274 161.085C100.59 161.475 101.214 160.93 100.901 160.616C96.7489 154.588 92.085 148.928 86.961 143.7C80.381 136.87 69.4484 126.717 61.2738 121.85C75.9626 107.715 99.9936 96.0218 119.148 90.6752C128.09 88.179 128.614 88.6704 131.288 87.6988C131.5 87.6023 131.675 87.439 131.786 87.2338C131.897 87.0286 131.938 86.7927 131.902 86.5622C131.867 86.3316 131.757 86.119 131.589 85.9567C131.422 85.7944 131.206 85.6913 130.974 85.6632Z" fill="#111111"/><path d="M161.517 208.305C160.264 214.185 159.417 220.133 158.62 226.085C157.718 231.755 157.324 237.495 157.444 243.236C158.157 259.468 166.94 269.475 176.319 272.292C178.631 273.168 181.175 273.223 183.523 272.448C184.233 272.143 183.994 271.039 183.289 270.882C179.908 269.935 177.145 270.728 171.854 267.201C168.352 264.771 165.501 261.516 163.554 257.725C156.502 244.565 161.314 228.256 162.536 208.464C162.54 207.913 161.595 207.76 161.517 208.305Z" fill="#111111"/><path d="M202.398 270.644C213.283 269.783 222.942 261.577 229.181 253.179C236.73 243.02 240.381 230.714 242.26 218.329C243.018 213.345 244.677 200.592 244.22 195.229C244.146 194.366 242.794 194.05 242.575 194.993C240.272 204.914 242.662 241.7 218.215 261.405C213.442 265.062 208.06 267.846 202.317 269.629C202.193 269.653 202.083 269.722 202.007 269.822C201.931 269.922 201.894 270.047 201.904 270.173C201.914 270.298 201.97 270.415 202.061 270.502C202.152 270.589 202.272 270.64 202.398 270.644Z" fill="#111111"/><path d="M235.368 74.9336C240.18 76.0326 246.058 69.2244 251.345 69.2944C253.305 69.321 256.105 71.008 255.025 73.2886C254.429 74.2842 253.52 75.0549 252.441 75.481C251.495 75.936 250.013 76.1082 250.092 77.518C250.098 77.8068 250.215 78.0821 250.42 78.2864C250.624 78.4907 250.899 78.6081 251.188 78.6142C251.737 78.6926 256.522 77.3626 257.453 73.4454C257.662 72.1633 257.384 70.8494 256.674 69.7615C255.964 68.6736 254.873 67.8904 253.616 67.5654C250.566 66.5336 247.437 68.1254 244.923 69.6024C243.44 70.4718 241.94 71.3132 240.458 72.1868C238.979 73.2921 237.211 73.9447 235.368 74.0656C234.977 73.9942 234.899 74.7768 235.368 74.9336Z" fill="#E04747"/><path d="M252.28 87.6204C249.62 85.9978 247.678 86.3296 244.762 83.7004C243.979 83.0004 243.352 82.2122 242.648 81.508C242.572 81.4381 242.476 81.3946 242.374 81.3839C242.272 81.3733 242.169 81.3961 242.08 81.4489C241.992 81.5017 241.923 81.5817 241.884 81.6769C241.845 81.7721 241.838 81.8774 241.864 81.977C242.294 83.6246 243.293 85.0671 244.684 86.0496C247.465 88.2434 250.999 88.4674 252.594 90.6696C252.829 90.9327 253 91.2462 253.095 91.5859C253.19 91.9257 253.207 92.2827 253.142 92.6296C252.986 92.9432 252.594 93.2568 252.358 93.1C252.323 93.8347 252.244 94.5668 252.123 95.2924C255.956 96.0932 257.18 90.601 252.28 87.6204Z" fill="#E04747"/><path d="M226.597 65.6922C226.349 65.2654 225.985 64.9177 225.547 64.6896C225.109 64.4614 224.616 64.362 224.124 64.4031C223.632 64.4441 223.162 64.6239 222.768 64.9214C222.374 65.219 222.073 65.6222 221.899 66.0842C218.609 66.5532 216.67 71.554 218.53 74.3064C218.585 74.4006 218.671 74.4726 218.774 74.5097C218.877 74.5469 218.989 74.5469 219.092 74.5098C219.194 74.4726 219.28 74.4007 219.335 74.3065C219.39 74.2123 219.411 74.1018 219.393 73.9942C219.225 73.0208 219.309 72.0206 219.638 71.0892C219.967 70.1578 220.529 69.3263 221.271 68.6742C221.507 68.5174 221.971 68.1254 222.212 68.1254C222.417 68.5416 222.745 68.8853 223.151 69.1105C223.556 69.3356 224.021 69.4315 224.483 69.3854C224.988 69.3913 225.481 69.2346 225.89 68.9383C226.299 68.6421 226.602 68.222 226.754 67.7404C227.146 67.5066 227.843 68.3004 228.085 68.6028C229.148 70.1978 229.67 72.0925 229.573 74.0068C229.582 74.2344 229.671 74.4516 229.825 74.6195C229.979 74.7873 230.187 74.895 230.413 74.9231C230.639 74.9512 230.868 74.898 231.058 74.773C231.249 74.6479 231.388 74.4592 231.452 74.2406C232.182 70.5852 230.122 65.8 226.597 65.6922Z" fill="#E04747"/><path d="M196.759 48.0718C196.72 41.8838 196.641 15.2572 196.602 8.1298C196.606 7.9485 196.567 7.76882 196.487 7.60601C196.407 7.44319 196.289 7.30202 196.143 7.19446C195.997 7.0869 195.827 7.01613 195.648 6.98813C195.469 6.96012 195.286 6.97572 195.114 7.0336C172.95 10.1668 52.8514 25.6788 23.2904 30.2932C23.0435 30.3768 22.8282 30.5343 22.674 30.7445C22.5197 30.9546 22.4338 31.2072 22.428 31.4678C22.5092 76.4918 24.7324 123.501 27.9888 161.55C28.9478 172.75 31.3194 183.708 32.844 194.834C33.005 196.008 74.8342 186.197 78.4238 185.359C78.5718 185.314 78.706 185.233 78.8134 185.122C78.9209 185.011 78.9979 184.874 79.0373 184.724C79.0767 184.575 79.077 184.418 79.0382 184.268C78.9994 184.119 78.9228 183.982 78.8158 183.87C73.8543 178.877 70.9715 172.188 70.749 165.152C70.5852 161.315 72.1392 148.212 78.029 142.442C78.589 141.898 56.1778 123.019 56.329 122.471C56.4074 122.002 73.094 107.052 81.312 102.501C93.2723 96.154 105.811 90.9617 118.756 86.9946C121.498 86.1308 130.332 83.8824 131.216 84.4872C133.218 85.869 139.444 92.0094 139.831 91.1442C141.819 86.6936 145.543 74.4534 149.15 72.5844C150.23 72.045 151.419 71.7577 152.626 71.7441C153.833 71.7306 155.028 71.9911 156.12 72.506C156.513 72.66 158.08 66.7226 164.108 68.747C168.57 70.2436 166.457 76.6556 165.596 79.247C165.596 79.247 168.808 80.3446 169.669 80.7352C168.729 83.6332 167.88 86.457 166.928 89.3508C166.855 89.5918 166.87 89.8508 166.971 90.0816C167.071 90.3125 167.25 90.5 167.476 90.6108C169.92 92.0407 172.226 93.6922 174.367 95.5444C174.492 95.6672 174.643 95.7599 174.809 95.8156C174.975 95.8713 175.152 95.8885 175.325 95.8658C175.499 95.8431 175.665 95.7812 175.811 95.6848C175.958 95.5884 176.08 95.4599 176.169 95.3092C181.165 84.5988 187.142 74.3743 194.025 64.7668C197.847 59.3012 196.826 58.632 196.759 48.0718ZM163.859 55.433C164.084 54.2066 165.399 53.6312 166.757 50.5778C167.493 48.5905 168.07 46.5474 168.48 44.4682C166.085 42.6499 163.974 40.4856 162.215 38.0464C161.316 36.8845 160.602 35.5899 160.1 34.209C160.059 34.0688 160.067 33.919 160.121 33.7837C160.176 33.6484 160.275 33.5355 160.402 33.4632C160.529 33.3909 160.676 33.3634 160.82 33.3852C160.965 33.407 161.098 33.4767 161.197 33.5832C161.594 33.9808 168.552 41.8054 168.872 41.8054C169.1 38.2017 169.571 34.6175 170.282 31.0772C170.514 30.1364 172.082 30.3772 171.926 31.311C171.275 38.1542 171.867 45.871 168.872 52.143C168.162 53.6298 166.912 56.2156 165.113 56.6076C164.947 56.6601 164.771 56.6674 164.601 56.629C164.431 56.5905 164.275 56.5076 164.148 56.3887C164.021 56.2698 163.928 56.1193 163.878 55.9526C163.829 55.7859 163.824 55.6089 163.866 55.44L163.859 55.433ZM151.407 44.7818C150.707 45.0954 147.805 42.8218 147.57 42.6678C146.737 44.7898 145.769 46.8562 144.672 48.8544C144.527 48.9997 144.343 49.0996 144.143 49.142C143.942 49.1844 143.734 49.1675 143.543 49.0932C143.352 49.0189 143.186 48.8906 143.067 48.7238C142.948 48.5571 142.88 48.3592 142.871 48.1544C143.011 46.8216 145.456 42.3598 146.003 41.4204C144.279 39.7566 142.731 37.9194 141.383 35.938C141.336 35.774 141.34 35.5995 141.395 35.4378C141.449 35.2761 141.552 35.1348 141.689 35.0328C141.825 34.9308 141.99 34.8729 142.161 34.8668C142.331 34.8607 142.499 34.9066 142.643 34.9986C143.504 35.6244 146.402 38.6792 147.185 39.3834C148.282 37.583 149.36 35.8484 150.475 34.1362C150.937 33.4264 152.114 34.055 151.649 34.8362C150.541 36.708 149.535 38.6736 148.595 40.6308C148.908 40.866 152.12 43.1368 152.12 43.9208C152.12 44.24 151.806 44.5466 151.414 44.7818H151.407ZM49.3696 105.085C49.8484 103.926 51.0216 103.713 52.1892 100.621C53.6718 96.691 55.2692 85.3608 55.713 80.6498C55.7209 80.4785 55.7944 80.3169 55.9184 80.1984C56.0424 80.08 56.2073 80.0139 56.3787 80.0139C56.5502 80.0139 56.715 80.08 56.839 80.1984C56.963 80.3169 57.0366 80.4785 57.0444 80.6498C57.0444 86.779 56.3808 105.903 50.2306 106.417C49.3696 106.572 49.14 105.636 49.3696 105.085ZM61.6644 87.3852C61.7862 85.743 61.8408 84.0994 62.0564 82.53C62.1418 81.9042 63.168 81.9 63.3094 82.53C63.5783 87.3828 63.5521 92.2474 63.231 97.097C63.0784 98.1932 63.3094 100.737 61.6644 100.699C59.941 100.66 61.5496 88.956 61.6644 87.3852ZM56.966 77.91C54.068 77.91 50.8578 78.771 49.1344 81.3554C48.8208 81.7474 48.195 81.5122 48.3518 81.0418C49.1344 77.7532 52.5042 76.44 55.5562 76.1082C58.3114 75.8072 62.587 76.5198 64.7962 76.3434C65.7899 76.0722 66.8261 75.9924 67.8496 76.1082C67.9798 76.1502 68.0977 76.2234 68.1932 76.3214C68.2886 76.4193 68.3587 76.5391 68.3974 76.6703C68.436 76.8015 68.442 76.9402 68.4149 77.0743C68.3877 77.2083 68.3282 77.3337 68.2416 77.4396C66.6988 79.177 60.2616 77.91 56.966 77.91ZM41.846 57.7822C41.6963 57.7719 41.5548 57.7099 41.4458 57.6067C41.3368 57.5036 41.2671 57.3657 41.2485 57.2168C41.23 57.0679 41.2638 56.9171 41.3442 56.7904C41.4246 56.6637 41.5466 56.5689 41.6892 56.5222C43.7248 55.8884 45.8273 55.4942 47.9542 55.3476C50.0682 55.0284 86.8742 48.8712 91.028 48.377C92.281 48.2286 92.428 50.2488 91.3402 50.4924C91.2016 50.5316 45.5 58.1966 41.8516 57.7822H41.846ZM77.56 80.024C82.2654 78.2404 97.6094 75.7946 100.271 75.481C101.602 75.3256 107.32 74.228 108.494 74.6984C108.663 74.7588 108.812 74.8645 108.926 75.0038C109.039 75.1432 109.111 75.3109 109.135 75.4887C109.16 75.6665 109.135 75.8475 109.063 76.012C108.992 76.1766 108.876 76.3183 108.73 76.4218C107.633 77.2044 105.833 77.0518 104.5 77.2044C103.092 77.3654 82.572 80.8066 77.6384 81.3554C76.9356 81.3554 76.937 80.2606 77.56 80.024ZM97.3 48.86C96.6728 48.9384 96.5132 47.8254 97.1432 47.6854C107.815 45.3054 118.695 44.0818 129.483 41.8894C130.973 41.587 131.601 43.8648 130.11 44.1616C119.289 46.4504 108.329 48.02 97.3 48.86ZM121.262 71.96C123.133 71.155 140.911 67.6802 144.914 67.0264C146.478 66.7716 147.104 69.1264 145.541 69.3756C136.248 70.8764 123.953 73.4482 121.419 73.4482C120.558 73.4454 120.554 72.2624 121.262 71.96Z" fill="#E04747"/><path d="M222.76 111.115C223.296 115.856 226.295 123.479 219.94 127.326C218.466 128.046 217.052 128.884 215.712 129.832C211.127 133.683 215.538 140.367 212.344 143.459C211.11 144.654 209.367 145.183 208.271 146.593C204.424 151.539 208.335 160.78 210.073 158.652C210.216 158.404 210.297 158.126 210.311 157.84C210.325 157.554 210.27 157.269 210.151 157.009C209.14 153.74 207.549 149.544 210.934 147.062C212.334 146.034 213.917 145.342 214.854 143.773C216.57 140.885 215.344 136.976 215.638 134.375C215.766 133.556 216.09 132.781 216.58 132.113C217.07 131.445 217.714 130.905 218.456 130.537C219.89 129.864 221.254 129.051 222.529 128.11C227.174 124.19 226.647 116.472 223.703 111.03C223.676 110.918 223.61 110.82 223.517 110.753C223.423 110.686 223.309 110.654 223.195 110.665C223.08 110.675 222.973 110.726 222.893 110.809C222.813 110.892 222.766 111 222.76 111.115Z" fill="#E04747"/><path d="M219.94 110.802C218.347 112.678 220.311 115.303 218.373 119.729C216.983 122.265 214.852 124.316 212.265 125.609C211.954 125.772 211.483 125.923 211.404 126.309C211.247 127.641 214.385 126.399 214.928 126.153C218.568 124.505 220.634 120.357 220.958 116.521C221.11 114.719 220.501 112.998 220.802 111.273C220.884 110.803 220.336 110.335 219.94 110.802Z" fill="#E04747"/><path d="M198.482 129.989C196.522 130.616 198.717 132.339 199.657 132.649C201.759 133.295 203.965 133.533 206.157 133.349C207.957 133.245 212.73 133.504 212.892 130.843C212.968 129.583 211.012 130.529 210.543 130.686C207.933 131.33 205.234 131.541 202.555 131.312C201.855 131.233 199.186 131.155 198.951 130.372C199.108 130.145 198.8 129.91 198.482 129.989Z" fill="#E04747"/><path d="M196.055 141.736C200.042 142.875 204.318 142.397 207.955 140.405C208.894 139.936 210.598 139.07 210.773 137.899C210.798 137.8 210.801 137.697 210.782 137.597C210.763 137.497 210.723 137.403 210.663 137.321C210.603 137.238 210.526 137.17 210.437 137.121C210.347 137.073 210.249 137.044 210.147 137.038C209.573 137.08 209.026 137.298 208.58 137.663C204.999 140.014 200.677 140.961 196.441 140.323C195.58 140.248 195.195 141.492 196.055 141.736Z" fill="#E04747"/><path d="M234.429 222.715C232.717 223.849 231.07 225.078 229.495 226.395C227.766 227.641 225.971 228.823 224.175 229.919C220.254 232.309 216.077 234.253 211.723 235.715C215.686 219.679 217.606 203.207 217.44 186.69C217.34 179.955 216.6 172.661 213.055 166.719C212.821 166.327 212.114 166.562 212.271 167.033C216.891 178.78 216.062 191.783 214.777 204.075C213.7 215.007 211.816 225.844 209.139 236.498C197.723 240.097 185.61 240.903 173.818 238.847C173.505 238.77 173.348 239.319 173.662 239.396C185.185 242.156 197.232 241.832 208.59 238.456C204.268 254.663 202.481 256.36 200.602 262.655C200.547 262.893 200.578 263.143 200.69 263.36C200.801 263.577 200.986 263.747 201.211 263.841C201.436 263.935 201.687 263.946 201.92 263.873C202.153 263.799 202.352 263.646 202.482 263.439C204.331 259.923 207.942 248.765 209.062 244.959C209.777 242.535 210.393 240.103 211.022 237.679C217.675 235.477 223.956 232.281 229.652 228.2C231.675 226.94 233.497 225.382 235.056 223.58C235.682 223.107 234.977 222.48 234.429 222.715Z" fill="#111111"/><path d="M198.482 157.556C198.241 156.383 184.304 158.01 178.59 159.123C172.253 160.326 166.04 162.106 160.028 164.443C154.697 166.543 148.602 168.99 144.757 173.37C143.834 174.318 143.12 175.449 142.662 176.69C142.204 177.931 142.011 179.255 142.097 180.575C142.754 186.322 149.187 188.735 153.219 191.696C160.933 197.361 166.13 205.661 172.171 212.215C174.199 214.416 176.557 216.992 179.767 217.305C182.977 217.619 185.087 214.868 186.816 212.607C198.279 197.667 202.257 175.948 198.482 157.556ZM194.723 162.725C190.155 164.716 188.528 162.816 172.323 168.045C158.651 172.462 151.361 177.069 150.623 176.585C150.475 176.485 150.369 176.334 150.325 176.16C150.282 175.987 150.304 175.803 150.388 175.645C150.545 175.332 150.857 175.176 151.171 174.945C164.097 167.633 178.242 162.723 192.92 160.454C193.781 160.376 194.957 159.905 195.504 160.924C195.58 161.093 195.619 161.275 195.62 161.46C195.621 161.644 195.584 161.827 195.51 161.997C195.437 162.166 195.329 162.318 195.193 162.444C195.058 162.569 194.898 162.665 194.723 162.725Z" fill="#111111"/><path d="M191.825 153.405C183.985 139.136 181.296 136.185 172.645 118.868C173.981 116.771 174.886 114.428 175.305 111.976C176.95 101.945 173.159 94.9298 164.654 90.2048C164.507 90.1234 164.345 90.0751 164.177 90.0632C164.01 90.0512 163.842 90.076 163.686 90.1357C163.529 90.1955 163.387 90.2888 163.27 90.409C163.153 90.5293 163.064 90.6737 163.009 90.832C161.756 93.807 160.517 96.789 159.25 99.7598C157.978 103.297 155.789 106.432 152.907 108.844C150.089 110.875 146.742 112.044 143.273 112.211C143.182 112.166 143.081 112.142 142.979 112.142C142.878 112.142 142.777 112.166 142.686 112.212C142.595 112.257 142.515 112.324 142.454 112.405C142.393 112.487 142.352 112.581 142.334 112.682C140.846 117.851 140.47 123.322 139.749 128.579C139.676 128.869 139.716 129.177 139.861 129.439C140.007 129.701 140.247 129.897 140.532 129.989C148.234 131.873 156.362 130.812 163.323 127.014C168.298 138.83 175.43 149.251 178.751 155.994C178.88 156.198 179.072 156.354 179.298 156.439C179.524 156.524 179.772 156.533 180.004 156.464C183.763 155.837 187.443 155.289 191.204 154.662C191.904 154.815 192.129 153.959 191.825 153.405ZM172.085 99.8382C174.681 106.351 172.085 113.462 167.152 118.241C161.902 123.33 154.777 125.369 147.729 125.761C147.029 125.839 146.87 124.677 147.573 124.586C154.074 123.906 160.205 121.224 165.116 116.91C169.497 112.756 172.32 106.103 171.224 100.072C171.209 100.015 171.205 99.9559 171.212 99.8976C171.22 99.8392 171.239 99.7829 171.268 99.7319C171.298 99.6808 171.337 99.6361 171.383 99.6002C171.43 99.5642 171.483 99.5379 171.54 99.5225C171.597 99.5072 171.656 99.5031 171.714 99.5107C171.773 99.5182 171.829 99.5372 171.88 99.5665C171.931 99.5959 171.976 99.6349 172.012 99.6815C172.048 99.7282 172.074 99.7814 172.089 99.8382H172.085Z" fill="#111111"/><path d="M154.469 195.86C153.391 194.431 152.063 193.21 150.549 192.256C148.97 191.178 144.284 190.378 144.049 190.925C135.071 208.669 125.262 230.978 124.156 233.373C121.281 231.374 117.986 230.061 114.524 229.536C114.524 229.201 110.386 182.764 110.373 182.624C128.307 172.756 121.807 151.455 118.362 149.496C118.205 149.262 113.66 148.565 111.626 148.086C109.666 147.626 110.608 151.22 110.685 151.612C110.804 154.086 110.568 156.565 109.985 158.973C109.24 162.176 107.415 165.024 104.817 167.04C100.222 170.365 92.0598 170.951 89.2318 165.003C87.5924 161.554 88.6046 157.406 90.1712 154.118C90.2995 153.911 90.3538 153.666 90.3253 153.425C90.2968 153.183 90.1872 152.958 90.0144 152.786C86.8042 149.967 83.6276 147.109 80.4608 144.327C80.3393 144.213 80.1938 144.128 80.035 144.077C79.8763 144.027 79.7082 144.012 79.5431 144.035C79.378 144.057 79.22 144.116 79.0806 144.208C78.9412 144.299 78.824 144.42 78.7374 144.563C71.4182 156.183 72.289 174.831 84.1414 183.093C87.1633 185.244 90.7703 186.419 94.479 186.462C96.061 211.277 99.2516 234.312 99.4126 234.312C97.2062 236.076 95.3812 238.27 94.0485 240.761C92.7157 243.251 91.9029 245.987 91.6594 248.801C90.8334 255.422 92.4056 261.758 97.2202 266.343C99.7763 266.725 102.383 266.589 104.886 265.943C107.388 265.297 109.735 264.155 111.787 262.584C115.165 260.204 119.129 257.062 121.262 253.578C121.981 252.323 122.534 250.98 122.907 249.584C123.197 248.636 124.852 248.798 124.709 249.819C124.099 252.885 122.536 255.68 120.245 257.807C117.942 260.074 115.454 262.144 112.805 263.994C108.978 266.82 104.326 268.306 99.5694 268.223C100.418 268.784 101.307 269.281 102.229 269.711C109.752 273.057 119.477 273.881 125.803 267.831C132.086 261.821 135.356 252.403 131.676 244.18C131.676 244.101 153.448 202.047 154.231 200.323C154.704 199.685 154.979 198.921 155.021 198.127C155.064 197.334 154.872 196.545 154.469 195.86ZM126.588 251.926C126.753 251.813 126.939 251.736 127.135 251.698C127.331 251.66 127.532 251.663 127.727 251.706C127.922 251.749 128.106 251.832 128.267 251.949C128.429 252.066 128.565 252.215 128.667 252.386C128.769 252.558 128.834 252.748 128.86 252.946C128.885 253.144 128.87 253.345 128.814 253.537C128.759 253.728 128.665 253.907 128.538 254.061C128.411 254.215 128.254 254.341 128.076 254.432C127.681 254.592 127.239 254.592 126.844 254.431C126.449 254.27 126.133 253.962 125.962 253.571C125.873 253.266 125.885 252.94 125.998 252.643C126.111 252.346 126.318 252.094 126.588 251.926ZM80.22 150.116C80.2956 149.646 81.0096 149.803 81.0026 150.195C80.9242 154.815 80.7674 159.75 82.0218 164.213C82.9213 167.675 84.8466 170.785 87.5449 173.133C90.2432 175.482 93.5885 176.96 97.1418 177.373C100.655 177.609 104.164 176.862 107.276 175.216C110.388 173.57 112.981 171.09 114.762 168.053C115.004 167.665 115.781 167.896 115.546 168.367C114.048 172.431 111.049 175.767 107.166 177.687C104.487 179.036 101.53 179.74 98.5308 179.741C95.5315 179.743 92.5736 179.042 89.8939 177.695C87.2143 176.347 84.8873 174.391 83.0995 171.983C81.3117 169.575 80.1126 166.781 79.5984 163.827C79.1241 159.251 79.3336 154.63 80.22 150.116ZM111.782 234.462C107.159 236.414 103.325 239.861 100.895 244.251C98.322 249.192 98.4634 255.241 100.113 260.463C100.335 261.171 99.3286 261.481 99.015 260.932C92.806 251.483 98.4676 235.845 111.468 233.678C111.943 233.601 112.333 234.22 111.787 234.462H111.782ZM120.945 250.047C120.925 250.243 120.866 250.432 120.772 250.605C120.679 250.778 120.552 250.931 120.399 251.055C120.246 251.178 120.07 251.271 119.882 251.326C119.693 251.382 119.495 251.4 119.3 251.378C118.986 251.344 118.688 251.223 118.44 251.03C118.191 250.836 118 250.577 117.89 250.282C117.425 248.597 121.209 247.472 120.95 250.047H120.945Z" fill="#111111"/><path d="M85.4 127.639C89.061 125.839 88.8384 124.909 99.183 118.947C108.661 113.487 110.137 113.457 113.672 111.429C114.464 110.974 113.907 109.549 113.046 109.941C106.66 112.335 88.1412 123.101 84.6174 126.778C84.5345 126.889 84.4927 127.024 84.499 127.162C84.5054 127.3 84.5597 127.431 84.6524 127.533C84.7451 127.635 84.8705 127.701 85.007 127.721C85.1435 127.74 85.2824 127.711 85.4 127.639Z" fill="#E04747"/><path d="M124.082 105.241C124.004 104.223 123.942 103.125 123.847 102.109C123.84 101.968 123.779 101.836 123.677 101.739C123.575 101.642 123.439 101.588 123.299 101.588C123.158 101.588 123.023 101.642 122.921 101.739C122.819 101.836 122.758 101.968 122.751 102.109C122.66 103.047 122.672 103.988 122.594 104.929C120.872 104.615 119.147 104.479 117.347 104.301C116.647 104.231 116.564 105.319 117.19 105.476C118.835 105.79 122.437 106.651 122.51 106.651C122.51 107.199 122.353 109.941 123.059 110.333C123.16 110.408 123.283 110.448 123.409 110.448C123.535 110.448 123.657 110.408 123.759 110.333C124.459 109.862 124.229 107.435 124.229 107.043C125.227 107.43 126.292 107.617 127.362 107.591C127.486 107.553 127.598 107.483 127.687 107.388C127.776 107.294 127.839 107.178 127.87 107.053C127.902 106.927 127.9 106.795 127.866 106.67C127.831 106.545 127.766 106.431 127.674 106.338C127.137 105.711 124.474 105.319 124.082 105.241Z" fill="#E04747"/><path d="M134.89 96.6266C134.846 96.4826 134.752 96.3589 134.625 96.2772C134.499 96.1955 134.347 96.1609 134.198 96.1796C134.048 96.1984 133.91 96.2691 133.808 96.3795C133.705 96.4899 133.645 96.6329 133.637 96.7834C133.715 98.1148 133.794 99.4434 133.951 100.703C133.637 100.625 128.468 99.6072 127.215 99.2936C127.05 99.2459 126.873 99.2647 126.722 99.346C126.571 99.4273 126.457 99.5645 126.406 99.7283C126.355 99.8921 126.37 100.07 126.448 100.222C126.526 100.375 126.661 100.492 126.823 100.547C128.083 101.017 133.637 102.507 134.103 102.584C134.103 102.739 134.73 107.282 134.73 109.318C134.734 109.519 134.803 109.713 134.927 109.872C135.05 110.03 135.222 110.145 135.416 110.198C135.61 110.251 135.816 110.239 136.003 110.165C136.19 110.092 136.348 109.959 136.454 109.788C137.161 108.92 135.38 98.8946 134.89 96.6266Z" fill="#E04747"/><path d="M96.9066 133.671C98.8452 136.742 101.132 139.58 103.72 142.128C104.194 142.514 104.738 143.067 105.444 142.911C105.625 142.84 105.785 142.724 105.908 142.573C106.031 142.422 106.112 142.242 106.144 142.05C106.222 141.424 105.595 140.953 105.204 140.561C104.812 140.248 99.2516 134.453 97.9986 132.887C97.8817 132.782 97.7329 132.721 97.5766 132.713C97.4203 132.705 97.2658 132.75 97.1387 132.841C97.0116 132.933 96.9193 133.065 96.8771 133.215C96.8349 133.366 96.8453 133.527 96.9066 133.671Z" fill="#E04747"/><path d="M100.352 132.02C102.188 134.296 104.151 136.466 106.232 138.52C106.616 138.844 107.72 140.399 108.973 140.242C109.149 140.199 109.306 140.099 109.419 139.957C109.532 139.816 109.595 139.641 109.599 139.46C109.677 138.834 109.13 138.442 108.66 138.128C106.379 136.308 101.569 131.649 101.298 131.393C100.822 130.851 99.96 131.482 100.352 132.02Z" fill="#E04747"/><path d="M93.1476 134.296C95.699 132.022 98.5434 130.099 101.605 128.579C102.392 128.115 101.847 126.795 100.979 127.092C97.6287 128.502 94.6905 130.738 92.4392 133.592C92.3458 133.686 92.2936 133.813 92.294 133.946C92.2944 134.078 92.3474 134.205 92.4413 134.299C92.5353 134.392 92.6624 134.444 92.7949 134.444C92.9273 134.443 93.0542 134.39 93.1476 134.296Z" fill="#E04747"/><path d="M111.003 131.242C126.311 120.602 126.021 121.29 128.233 119.494C129.011 118.863 127.998 117.772 127.215 118.163C124.275 119.862 113.123 127.912 110.221 130.302C109.829 130.773 110.45 131.627 111.003 131.242Z" fill="#E04747"/><path d="M114.841 181.678C120.281 188.927 124.028 197.303 125.805 206.191C125.858 206.39 125.961 206.571 126.106 206.718C126.25 206.865 126.43 206.971 126.628 207.026C126.827 207.082 127.036 207.084 127.235 207.034C127.435 206.983 127.618 206.881 127.765 206.738C134.632 200.792 135.909 200.493 137.085 198.516C137.152 198.392 137.182 198.253 137.173 198.113C137.164 197.973 137.116 197.838 137.035 197.724C136.953 197.61 136.842 197.521 136.712 197.467C136.583 197.413 136.441 197.396 136.303 197.418C134.397 198.233 132.648 199.372 131.134 200.787C129.401 202.105 127.765 203.606 126.043 205.016C126.707 205.161 127.361 205.344 128.003 205.563C126.087 196.423 121.853 187.928 115.709 180.894C115.304 180.431 114.372 181.129 114.841 181.678Z" fill="#111111"/><path d="M130.817 142.442C130.497 142.715 130.234 143.049 130.046 143.426C129.858 143.803 129.747 144.214 129.721 144.634C129.631 144.966 129.578 145.308 129.564 145.652C129.607 145.924 129.737 146.175 129.935 146.367C130.133 146.559 130.387 146.682 130.661 146.718C130.934 146.753 131.212 146.699 131.452 146.563C131.692 146.428 131.881 146.218 131.992 145.965C132.142 145.703 132.223 145.407 132.227 145.104C132.396 144.493 132.449 143.855 132.384 143.224C132.227 142.52 131.443 141.971 130.817 142.442Z" fill="#E04747"/><path d="M164.963 80.5714C164.179 80.3376 163.318 80.1024 162.534 79.8714C162.151 79.8714 162.575 79.8462 164.179 75.7204C164.65 74.389 165.493 72.6054 164.415 71.4126C163.811 70.8516 163.042 70.5024 162.222 70.4178C161.403 70.3331 160.578 70.5177 159.873 70.9436C159.232 71.3324 158.674 71.8437 158.23 72.4483C157.787 73.0529 157.467 73.739 157.289 74.4674C156.505 74.2322 155.722 74.0754 154.938 73.8416C150.71 72.5396 149.691 74.6396 147.658 78.54C145.436 82.8411 143.727 87.3887 142.568 92.0892C142.526 92.2242 142.54 92.3701 142.606 92.4948C142.672 92.6195 142.785 92.7128 142.92 92.7542C143.055 92.7956 143.201 92.7817 143.326 92.7155C143.451 92.6494 143.544 92.5364 143.585 92.4014C145.531 87.5773 147.808 82.8935 150.399 78.3832C150.728 77.5516 151.236 76.8029 151.887 76.1908C152.848 75.4222 154.127 76.2776 156.821 76.8166C156.636 77.2349 156.555 77.6917 156.586 78.148C155.277 77.7029 153.893 77.517 152.513 77.6006C152.356 77.6006 152.278 77.679 152.201 77.8358C151.991 77.9274 151.823 78.0949 151.731 78.3048C148.763 84.4312 146 90.6514 143.357 96.9248C140.344 93.6747 136.98 90.7683 133.326 88.2588C133.282 88.2109 133.227 88.1729 133.167 88.1472C133.107 88.1214 133.042 88.1084 132.977 88.1091C132.911 88.1098 132.846 88.1241 132.787 88.1511C132.727 88.1781 132.674 88.2173 132.63 88.266C132.586 88.3148 132.553 88.3721 132.533 88.4344C132.513 88.4966 132.505 88.5624 132.512 88.6276C132.518 88.6928 132.538 88.7559 132.571 88.8129C132.603 88.8699 132.647 88.9196 132.699 88.9588C134.422 90.6038 136.224 92.169 137.946 93.814C140.777 96.3872 142.093 98.084 142.67 98.5656C140.125 104.656 132.934 122.87 131.838 125.846C131.757 125.891 131.692 125.959 131.65 126.041C131.607 126.123 131.59 126.216 131.6 126.308C131.211 129.332 131.288 131.908 131.288 140.875C131.299 141.078 131.367 141.274 131.483 141.441C131.6 141.608 131.76 141.74 131.947 141.821C132.134 141.902 132.339 141.93 132.541 141.901C132.742 141.872 132.932 141.788 133.088 141.658C135.374 139.658 136.308 138.55 139.041 136.098C139.943 135.472 140.649 134.603 141.077 133.592C141.11 133.473 141.111 133.347 141.079 133.227C141.048 133.107 140.985 132.998 140.898 132.91C140.81 132.822 140.701 132.759 140.581 132.728C140.461 132.696 140.335 132.697 140.216 132.73C139.199 133.028 138.297 133.629 137.631 134.453C136.118 135.814 134.858 137.222 133.48 138.447C133.48 136.814 133.381 130.592 133.167 128.031C133.312 128.116 133.444 128.222 133.559 128.345C134.19 128.749 134.844 129.115 135.519 129.441C135.995 129.665 136.685 129.977 137.164 129.598C137.306 129.493 137.408 129.342 137.451 129.17C137.494 128.998 137.476 128.817 137.399 128.657C137.252 128.394 137.035 128.177 136.772 128.031C135.513 127.491 134.307 126.835 133.169 126.071C138.193 114.404 153.923 79.625 153.923 79.4738C154.488 79.6859 155.063 79.8691 155.646 80.0226C164.655 82.8086 164.886 82.7372 164.966 82.7638C164.896 82.8324 164.486 83.8838 164.339 84.252C163.66 85.9502 163.713 85.3342 163.713 86.6796C163.721 86.8211 163.768 86.9577 163.849 87.0741C163.93 87.1905 164.041 87.2822 164.171 87.3389C164.301 87.3956 164.444 87.4152 164.585 87.3955C164.725 87.3757 164.857 87.3174 164.966 87.227C165.357 86.9232 165.655 86.5164 165.827 86.0524C165.897 85.827 166.824 83.5324 166.923 83.2328C166.921 81.9252 167.689 81.1174 164.963 80.5714Z" fill="#111111"/><path d="M208.74 170.321C209.042 170.306 209.326 170.176 209.534 169.958C209.743 169.739 209.859 169.449 209.859 169.147C209.859 168.845 209.743 168.554 209.534 168.336C209.326 168.117 209.042 167.987 208.74 167.972C208.581 167.964 208.422 167.989 208.273 168.044C208.123 168.1 207.987 168.185 207.872 168.295C207.756 168.405 207.664 168.537 207.602 168.683C207.539 168.83 207.507 168.987 207.507 169.147C207.507 169.306 207.539 169.463 207.602 169.61C207.664 169.756 207.756 169.888 207.872 169.998C207.987 170.108 208.123 170.193 208.273 170.249C208.422 170.304 208.581 170.329 208.74 170.321Z" fill="#111111"/><path d="M206.549 235.323C206.851 235.308 207.135 235.178 207.343 234.96C207.551 234.741 207.668 234.451 207.668 234.149C207.668 233.847 207.551 233.556 207.343 233.338C207.135 233.119 206.851 232.989 206.549 232.974C206.39 232.966 206.231 232.991 206.082 233.046C205.932 233.102 205.796 233.187 205.681 233.297C205.565 233.407 205.473 233.539 205.411 233.685C205.348 233.832 205.316 233.989 205.316 234.149C205.316 234.308 205.348 234.465 205.411 234.612C205.473 234.758 205.565 234.89 205.681 235C205.796 235.11 205.932 235.195 206.082 235.251C206.231 235.306 206.39 235.331 206.549 235.323Z" fill="#111111"/><path d="M204.277 244.02C204.578 244.005 204.863 243.875 205.071 243.656C205.279 243.438 205.395 243.147 205.395 242.845C205.395 242.543 205.279 242.253 205.071 242.034C204.863 241.816 204.578 241.686 204.277 241.671C203.975 241.686 203.691 241.816 203.483 242.034C203.274 242.253 203.158 242.543 203.158 242.845C203.158 243.147 203.274 243.438 203.483 243.656C203.691 243.875 203.975 244.005 204.277 244.02Z" fill="#111111"/><path d="M215.477 232.504C215.778 232.489 216.063 232.359 216.271 232.14C216.479 231.921 216.595 231.631 216.595 231.329C216.595 231.027 216.479 230.737 216.271 230.518C216.063 230.299 215.778 230.169 215.477 230.154C215.175 230.169 214.891 230.299 214.683 230.518C214.474 230.737 214.358 231.027 214.358 231.329C214.358 231.631 214.474 231.921 214.683 232.14C214.891 232.359 215.175 232.489 215.477 232.504Z" fill="#111111"/><path d="M213.518 241.276C213.818 241.258 214.099 241.126 214.305 240.908C214.511 240.69 214.625 240.401 214.625 240.101C214.625 239.801 214.511 239.512 214.305 239.293C214.099 239.075 213.818 238.943 213.518 238.925C213.219 238.943 212.937 239.075 212.731 239.293C212.526 239.512 212.411 239.801 212.411 240.101C212.411 240.401 212.526 240.69 212.731 240.908C212.937 241.126 213.219 241.258 213.518 241.276Z" fill="#111111"/><path d="M216.416 167.268C216.716 167.25 216.997 167.118 217.203 166.9C217.409 166.681 217.523 166.393 217.523 166.092C217.523 165.792 217.409 165.504 217.203 165.285C216.997 165.067 216.716 164.935 216.416 164.917C216.117 164.935 215.835 165.067 215.629 165.285C215.424 165.504 215.309 165.792 215.309 166.092C215.309 166.393 215.424 166.681 215.629 166.9C215.835 167.118 216.117 167.25 216.416 167.268Z" fill="#111111"/></svg>