<svg viewBox="0 0 280 280" fill="none" xmlns="http://www.w3.org/2000/svg"><path d="M88.417 170.026C88.2504 171.02 88.6886 175.346 88.5976 175.346C89.2767 174.166 89.8506 172.928 90.3126 171.647C90.4022 171.739 88.62 168.854 88.417 170.026Z" fill="#E04747"/><path d="M90.7634 226.25C86.5088 224.692 82.7316 219.654 82.7316 212.81C82.6608 211.661 82.8778 210.513 83.363 209.469C83.5649 208.979 83.8956 208.553 84.3201 208.235C84.7446 207.917 85.2471 207.721 85.7744 207.665C86.3016 207.61 86.8341 207.698 87.3153 207.92C87.7965 208.143 88.2086 208.491 88.508 208.929C90.048 210.644 90.223 212.901 90.4022 215.067C90.5828 216.962 91.035 219.668 93.1098 220.387C95.4562 221.199 97.1698 218.847 98.0742 217.048C100.822 210.801 100.379 202.262 101.324 194.846C101.774 190.964 102.316 187.085 102.497 183.204C102.497 183.744 101.503 184.647 101.143 185.098C100.475 185.825 99.7169 186.463 98.8862 186.995C98.525 187.265 96.5398 188.439 96.0862 188.077C96.2668 188.257 96.4474 188.439 96.6266 188.619C97.0788 189.07 97.8866 190.334 96.6266 190.063C96.0529 189.841 95.531 189.503 95.0936 189.07C86.9512 182.286 87.2228 171.758 87.0604 171.109C77.9604 183.518 74.095 194.279 70.5404 201.886C70.1806 202.608 69.5478 204.953 68.7358 205.316C66.7058 206.185 75.0764 185.168 85.7024 170.569C86.4248 169.667 87.0562 168.223 88.41 168.402C89.313 168.494 89.67 169.396 90.3952 170.479C90.7564 167.861 90.7564 162.718 92.743 159.559C94.3628 156.965 96.9122 155.52 98.8792 154.144C99.5477 153.782 100.182 153.36 100.775 152.884C100.775 151.701 100.864 151.315 100.864 150.718C100.864 146.287 100.503 146.16 100.503 144.311C95.991 146.026 92.1032 149.545 88.9518 153.065C77.0336 166.557 66.1584 198.255 63.231 216.238C62.5102 219.714 62.4182 223.291 62.9594 226.799C64.309 233.737 70.6594 237.37 77.49 236.365C81.165 235.904 88.4506 232.48 93.6446 226.799C92.6656 226.732 91.6982 226.548 90.7634 226.25Z" fill="#E04747"/><path d="M146.268 197.371C146.264 197.496 146.228 197.618 146.164 197.726C146.1 197.834 146.009 197.924 145.901 197.987C145.793 198.05 145.67 198.085 145.545 198.087C145.419 198.09 145.295 198.061 145.184 198.002C144.011 197.46 143.56 196.197 143.018 195.114C138.678 185.703 137.348 175.972 137.242 165.693C137.242 166.235 130.203 169.574 125.149 162.263C124.993 173.174 125.877 182.868 123.434 195.566C123.074 197.551 121.178 198.183 120.366 196.287C119.87 194.807 119.686 193.24 119.825 191.685C119.461 176.731 118.195 161.813 116.033 147.011C113.239 144.546 109.651 143.169 105.925 143.13C105.571 146.095 105.481 149.085 105.655 152.065C106.944 152.349 108.169 152.872 109.266 153.605C110.62 155.049 109.536 157.486 110.799 158.568C111.789 159.259 112.545 160.236 112.966 161.368C113.147 162.089 112.785 162.628 112.875 163.353C112.966 164.613 113.778 165.873 113.778 167.234C113.57 168.985 113.176 170.71 112.605 172.378C112.41 173.411 112.076 174.413 111.612 175.357C111.07 176.35 109.355 177.523 108.543 176.169C108.352 175.525 108.261 174.856 108.272 174.184C108.182 173.551 107.64 172.288 107.012 173.461C106.436 174.383 106.651 179.775 106.651 183.478C106.651 192.655 105.066 201.474 104.395 206.944C103.835 212.01 102.585 221.683 98.2576 225.084C99.1998 232.935 100.87 242.497 102.589 253.242C102.589 253.422 102.861 253.603 103.041 253.693C123.862 256.876 145.074 256.479 165.761 252.519C166.212 252.43 167.021 244.037 167.115 243.314C172.015 209.054 171.091 194.341 172.35 178.966C172.35 178.786 172.62 178.786 172.711 178.966C173.607 189.906 172.117 210.503 171.086 221.386C173.864 225.637 177.169 229.519 180.923 232.939C184.262 235.917 188.324 238.172 192.926 237.902C206.555 236.909 210.344 218.77 212.962 208.209C216.609 193.387 218.396 178.169 218.282 162.905C218.277 162.793 218.241 162.683 218.178 162.59C218.114 162.496 218.027 162.422 217.924 162.375C217.821 162.328 217.707 162.311 217.595 162.325C217.483 162.339 217.377 162.383 217.288 162.453C213.59 165.341 208.083 164.079 204.023 162.544C197.394 160.164 197.656 155.25 200.413 155.053C200.683 155.053 200.864 154.602 200.592 154.511C198.878 153.518 197.434 155.595 197.344 157.129C197.204 162.18 194.141 177.408 192.471 188.535C189.71 207.575 190.743 207.871 189.763 211.459C189.74 211.537 189.693 211.606 189.628 211.655C189.563 211.704 189.484 211.73 189.402 211.73C189.321 211.73 189.242 211.704 189.177 211.655C189.112 211.606 189.065 211.537 189.042 211.459C188.87 208.719 188.96 205.969 189.311 203.246C188.084 205.071 187.027 207.005 186.152 209.023C185.872 209.583 185.521 208.891 185.625 208.331C185.783 207.763 185.99 207.209 186.243 206.676C187.179 204.758 188.265 202.917 189.493 201.17C189.582 200.178 191.75 183.842 193.012 176.714C193.283 175.36 191.929 172.381 191.472 171.027C189.605 164.891 187.368 158.812 183.072 153.971C179.736 150.093 175.189 147.453 170.167 146.479C164.391 145.487 159.698 147.563 155.187 150.991C150.458 166.061 147.466 181.622 146.268 197.371Z" fill="#E04747"/><path d="M129.119 131.669C130.022 132.481 131.015 131.398 131.015 130.409C131.015 129.686 130.654 128.694 130.022 128.694C129.011 128.691 128.108 130.656 129.119 131.669Z" fill="#111111"/><path d="M139.95 129.954C139.851 130.246 139.833 130.559 139.897 130.86C139.96 131.162 140.103 131.441 140.311 131.669C141.214 132.481 142.206 131.398 142.206 130.409C142.206 129.686 141.845 128.694 141.214 128.694C140.672 128.691 140.13 129.413 139.95 129.954Z" fill="#111111"/><path d="M134.987 138.347C135.979 137.087 135.799 135.008 135.979 133.564C136.161 131.88 136.1 130.178 135.8 128.51C135.782 128.457 135.745 128.411 135.696 128.383C135.647 128.355 135.59 128.345 135.535 128.356C135.479 128.367 135.43 128.398 135.395 128.443C135.361 128.488 135.344 128.543 135.348 128.6C135.043 131.51 135.216 130.868 134.627 136.181C134.463 136.861 134.432 137.566 134.536 138.257C134.445 138.438 134.806 138.527 134.987 138.347Z" fill="#111111"/><path d="M131.195 144.395C131.828 144.304 132.455 143.942 133.001 143.853C134.3 143.672 135.621 143.764 136.882 144.123C137.061 144.214 137.242 144.033 137.333 143.853C137.333 143.581 137.152 143.492 136.972 143.311C135.934 142.713 134.733 142.46 133.542 142.589C132.549 142.68 130.564 142.95 130.203 144.033C130.188 144.069 130.181 144.107 130.183 144.145C130.184 144.183 130.194 144.221 130.211 144.255C130.228 144.289 130.252 144.32 130.282 144.344C130.312 144.368 130.346 144.385 130.383 144.395C130.652 144.439 130.927 144.439 131.195 144.395Z" fill="#111111"/><path d="M95.186 186.449C96.3134 186.318 97.4012 185.954 98.3801 185.379C99.3589 184.804 100.207 184.032 100.871 183.112C103.702 179.042 102.092 173.13 105.113 169.754C104.317 176.768 103.746 190.656 101.413 210.095C100.871 214.607 100.153 220.926 94.9158 222.459C93.6817 222.734 92.3911 222.591 91.2472 222.052C90.1034 221.513 89.1712 220.609 88.5976 219.482C86.9736 216.775 87.1542 213.525 87.0576 210.456C87.0576 209.644 85.7976 209.644 85.7038 210.456C85.368 213.427 85.771 216.434 86.877 219.211C89.3536 224.612 94.9494 225.488 98.791 221.647C100.634 219.676 101.831 217.188 102.22 214.518C103.274 208.827 105.797 181.21 106.011 169.032C107.971 167.604 110.341 167.762 110.613 170.205C110.663 170.908 110.571 171.614 110.342 172.281C109.978 172.997 109.706 173.755 109.53 174.538C109.439 174.989 109.981 175.349 110.251 174.989C111.084 173.846 111.613 172.511 111.791 171.108C112.102 167.688 109.551 166.208 106.648 167.227C101.594 169.212 102.406 175.529 101.143 179.773C100.767 181.148 100.007 182.388 98.9523 183.347C97.8973 184.306 96.5909 184.944 95.186 185.188C94.283 185.368 94.4636 186.539 95.186 186.449Z" fill="#111111"/><path d="M201.138 159.555C201.138 159.918 201.771 160.006 201.771 159.646C201.86 158.924 202.132 158.201 202.223 157.57C202.658 155.599 203.063 151.043 205.561 148.546C207.395 146.713 212.198 147.426 214.941 147.102C217.735 146.932 220.48 146.291 223.061 145.207C223.602 144.935 223.241 144.032 222.61 144.213C212.801 147.013 212.499 145.298 207.63 146.199C206.756 146.345 205.924 146.679 205.191 147.178C204.459 147.676 203.843 148.328 203.386 149.087C201.73 152.318 200.954 155.929 201.138 159.555Z" fill="#111111"/><path d="M216.391 149.177C216.031 149.268 215.939 149.808 216.391 149.808C218.106 149.899 219.821 149.808 221.535 149.808C223.077 149.823 224.617 149.702 226.138 149.447C228.395 148.996 231.372 147.101 231.011 144.393C230.98 144.273 230.91 144.167 230.812 144.092C230.714 144.016 230.593 143.975 230.469 143.975C230.346 143.975 230.225 144.016 230.127 144.092C230.029 144.167 229.959 144.273 229.928 144.393C229.789 145.487 229.241 146.487 228.395 147.193C225.96 149.185 222.662 148.439 216.391 149.177Z" fill="#111111"/><path d="M232.456 146.831C232.479 147.704 232.232 148.563 231.747 149.291C231.262 150.018 230.564 150.576 229.748 150.891C227.763 151.794 225.415 151.341 223.339 151.341C222.979 151.341 222.888 151.974 223.251 152.064C225.636 152.881 228.24 152.785 230.559 151.794C232.275 150.891 234.08 148.814 233.449 146.738C233.415 146.626 233.344 146.528 233.246 146.462C233.149 146.396 233.031 146.366 232.914 146.377C232.797 146.388 232.688 146.439 232.604 146.522C232.52 146.605 232.468 146.714 232.456 146.831Z" fill="#111111"/><path d="M225.415 154.322C225.339 154.324 225.266 154.353 225.209 154.404C225.152 154.455 225.115 154.524 225.104 154.6C225.093 154.676 225.109 154.753 225.15 154.817C225.191 154.882 225.253 154.93 225.326 154.953C227.668 155.651 230.174 155.556 232.456 154.682C233.828 154.065 234.899 152.929 235.434 151.523C235.803 150.416 235.141 148.611 234.261 151.253C233.23 155.376 225.18 154.322 225.415 154.322Z" fill="#111111"/><path d="M212.871 157.119C218.457 159.324 227.661 160.786 233.171 158.112C234.616 157.48 236.421 156.307 236.512 154.592C236.512 154.412 236.24 154.231 236.151 154.321C235.145 155.258 234.057 156.104 232.901 156.848C226.808 159.691 219.645 157.742 213.046 156.488C212.691 156.488 212.601 157.028 212.871 157.119Z" fill="#111111"/><path d="M8.00519 114.341C11.2252 111.121 15.386 106.179 24.7016 96.5608C30.8518 90.2048 35.7616 84.98 41.7592 81.0376C56.4116 71.694 82.5482 69.8726 99.7892 67.5976C96.7092 68.6238 78.6016 79.926 71.9922 83.5716C66.577 86.4598 61.0722 88.9868 56.56 93.2316C50.3832 99.029 46.809 106.824 40.1338 118.049C38.1486 121.479 35.9828 124.909 34.3588 128.429C34.1782 128.88 34.7186 129.241 35.0798 128.789C37.0664 125.989 38.78 122.923 40.495 119.945C42.21 116.967 44.0146 113.988 45.7296 111.01C54.789 95.557 56.4032 93.254 70.9996 85.47C80.6372 80.3978 99.2796 68.838 102.677 67.3302C102.677 69.958 102.469 73.3236 102.406 82.131C102.364 88.1776 102.767 150.809 102.948 153.251C102.948 153.612 103.039 153.972 103.039 154.244C99.9966 155.173 97.2352 156.849 95.0054 159.117C90.4918 163.894 92.4854 169.495 91.2156 173.557C91.035 174.098 91.7574 174.189 91.938 173.737C93.7132 169 92.358 164.272 94.9158 161.192C98.0733 157.692 102.347 155.396 107.009 154.696C107.551 154.696 108.182 157.223 108.182 157.854C108.182 157.998 108.239 158.136 108.341 158.237C108.442 158.339 108.58 158.396 108.724 158.396C108.868 158.396 109.005 158.339 109.107 158.237C109.209 158.136 109.266 157.998 109.266 157.854C109.297 156.67 109.05 155.495 108.543 154.424C108.002 153.251 106.828 153.432 105.836 153.612C105.194 153.719 104.561 153.87 103.94 154.063C104.136 151.963 104.196 149.854 104.121 147.746C104.121 138.992 103.398 74.2826 103.309 69.3196C106.516 74.125 110.044 78.7087 113.868 83.0396C120.806 91.1344 126.409 96.9122 126.683 97.209C129.718 100.624 129.623 104.115 130.022 107.317C129.156 107.654 128.312 108.046 127.495 108.49C120.095 112.55 116.666 121.486 116.305 129.518C116.214 130.479 116.214 131.446 116.305 132.406C116.062 132.716 115.851 133.048 115.674 133.399C115.209 134.527 115.116 135.774 115.408 136.959C115.7 138.144 116.362 139.204 117.298 139.987C117.387 140.98 117.478 142.064 117.478 143.056C118.955 163.485 121.359 175.498 121.359 195.401C121.359 196.032 122.441 196.213 122.532 195.581C126.286 177.521 123.164 150.221 123.164 148.742C124.099 150.675 125.532 152.326 127.315 153.524C127.779 156.06 127.779 158.659 127.315 161.195C127.151 161.564 127.12 161.979 127.225 162.369C127.241 162.412 127.266 162.451 127.298 162.483C127.33 162.516 127.369 162.541 127.411 162.558C127.453 162.575 127.499 162.583 127.544 162.581C127.59 162.579 127.635 162.568 127.676 162.548C127.844 162.436 127.986 162.289 128.095 162.119C128.203 161.948 128.276 161.757 128.307 161.557C128.923 159.104 128.984 156.545 128.488 154.066C128.927 154.228 129.38 154.349 129.842 154.427C129.997 154.463 130.161 154.436 130.296 154.351C130.432 154.267 130.528 154.132 130.564 153.976C130.6 153.821 130.573 153.657 130.488 153.522C130.404 153.386 130.269 153.29 130.113 153.254C124.607 151.714 122.622 145.492 121.993 140.529C122.263 140.077 122.083 139.175 121.362 139.537C118.475 140.883 114.587 136.728 117.12 132.677C120.754 132.541 124.255 131.274 127.134 129.052C132.734 124.359 139.769 113.709 140.13 113.168C140.708 116.014 141.649 118.774 142.93 121.38C144.356 123.918 146.487 125.987 149.066 127.337C149.262 128.711 149.322 130.102 149.247 131.488C148.886 138.167 147.171 146.468 141.936 151.343C140.36 152.802 138.377 153.747 136.251 154.05C136.161 154.05 136.161 154.231 136.251 154.231C137.639 154.263 139.019 154.017 140.311 153.509C140.311 154.241 134.365 170.498 144.19 194.389C144.283 194.568 145.996 197.726 145.996 195.832C145.544 184.461 148.343 173.18 150.599 162.078C153.307 148.358 157.639 133.921 154.3 119.843C152.946 114.156 149.696 108.29 143.38 107.208C142.738 107.213 142.099 107.121 141.484 106.936C138.155 105.673 134.496 105.577 131.106 106.666C131.377 103.612 130.683 100.55 129.121 97.9118C128.066 96.3775 126.856 94.956 125.51 93.6698C123.159 91.3178 115.184 82.4698 109.536 75.3494C107.46 72.7314 105.476 70.0294 103.489 67.2294C103.528 67.081 103.558 66.9305 103.579 66.7786C114.614 66.7786 133.784 68.8198 146.989 68.4936C153.178 68.3536 158.924 68.4096 164.227 71.2012C168.717 73.7996 171.241 77.9996 174.065 82.3914C189.631 106.2 188.839 105.011 188.864 105.043C188.956 105.17 189.091 105.259 189.244 105.291C189.398 105.324 189.557 105.298 189.693 105.22C189.828 105.141 189.929 105.014 189.976 104.865C190.023 104.716 190.013 104.554 189.948 104.412C186.973 99.421 178.188 85.939 176.14 83.0228C169.126 72.7076 166.33 67.1398 150.508 67.1398C141.928 67.1398 145.188 67.578 128.398 66.7786C120.616 66.4244 113.344 65.772 105.566 65.9666C105.113 65.9666 104.663 66.0562 104.121 66.0562C111.793 60.4562 119.013 54.4138 126.503 48.4582C129.734 45.8724 132.716 43.2096 135.708 42.4116C138.928 41.6528 141.708 42.875 146.087 44.1252C156.668 47.6532 160.215 48.8194 163.587 49.7252C163.716 49.7536 163.851 49.7313 163.964 49.663C164.077 49.5947 164.16 49.4855 164.195 49.358C164.23 49.2306 164.214 49.0946 164.152 48.9782C164.089 48.8618 163.984 48.7739 163.859 48.7326C147.469 43.2726 141.235 40.8814 137.777 40.8814C133.466 40.8814 130.382 43.8508 127.218 46.2966C123.246 49.455 107.814 62.09 103.933 65.3366C103.933 61.866 104.213 59.3796 104.114 57.9362C103.61 56.6958 103.002 59.4328 102.941 59.7422C101.983 63.5754 101.787 65.0804 101.767 65.156C101.226 64.7052 100.594 64.2544 100.052 63.8022C91.021 57.022 78.3216 43.82 70.9996 43.3146C68.1996 43.0444 65.3996 44.3982 62.8796 45.3908C57.2796 47.467 39.956 54.2346 36.8886 55.4988C33.7288 56.7588 30.6614 58.1154 27.6822 59.6498C27.6398 59.6768 27.609 59.7185 27.5956 59.7669C27.5822 59.8153 27.5872 59.8669 27.6097 59.9118C27.6321 59.9567 27.6704 59.9917 27.7172 60.0101C27.7639 60.0284 27.8158 60.0287 27.8628 60.011C33.4628 58.296 38.9634 55.86 44.3828 53.6942C49.8022 51.5284 63.6062 46.3834 64.9628 45.8416C69.2888 44.3016 71.316 43.6968 76.244 46.6536C85.6968 52.325 94.7618 61.9864 101.604 65.7874C101.604 66.227 102.971 65.5704 84.0056 68.1338C46.5864 72.7454 39.8692 79.1308 26.32 93.1322C20.9314 98.6062 12.5034 107.47 7.27999 113.348C6.56179 114.071 7.37379 114.883 8.00519 114.341Z" fill="#111111"/><path d="M230.741 32.9364C227.864 36.7582 225.778 41.1149 224.603 45.752C222.529 41.9608 219.64 38.08 215.223 37.4486C211.239 36.8788 206.123 39.529 204.032 46.0222C203.297 48.6621 203.053 51.4143 203.311 54.1423C201.876 53.3444 200.214 53.0529 198.593 53.3147C196.972 53.5766 195.487 54.3765 194.376 55.5856C191.194 59.2774 192.051 66.4426 200.332 68.6714C200.487 68.7075 200.651 68.6802 200.786 68.5957C200.922 68.5111 201.018 68.3762 201.054 68.2206C201.09 68.0651 201.063 67.9016 200.978 67.7661C200.894 67.6306 200.759 67.5343 200.603 67.4983C197.534 66.5967 194.195 64.4309 193.925 60.9113C193.778 59.7465 193.996 58.5648 194.549 57.5294C195.103 56.4939 195.964 55.6558 197.014 55.1307C198.064 54.6056 199.251 54.4195 200.411 54.598C201.572 54.7766 202.648 55.311 203.491 56.1274C203.853 56.4886 204.665 56.2171 204.574 55.6767C204.032 50.6227 204.212 44.8462 208.184 41.146C209.773 39.5738 211.905 38.6717 214.14 38.626C218.865 38.626 221.918 43.5162 224.067 47.6504C224.131 47.7621 224.227 47.8519 224.343 47.9078C224.459 47.9637 224.589 47.9831 224.716 47.9635C224.843 47.944 224.961 47.8863 225.055 47.7982C225.148 47.71 225.213 47.5955 225.24 47.4699C227.497 39.7096 231.197 30.5032 239.681 27.8866C245.96 25.9434 254.612 29.2866 258.994 38.2648C261.044 42.685 262.18 47.4735 262.333 52.3433C262.33 52.4598 262.36 52.5749 262.422 52.6741C262.483 52.7732 262.573 52.8519 262.679 52.9003C262.785 52.9486 262.903 52.9645 263.018 52.9458C263.133 52.9272 263.241 52.8748 263.326 52.7954C265.793 50.1634 271.499 52.36 271.719 57.8494C271.758 60.4583 271.137 63.0347 269.914 65.3395C268.695 67.1021 266.664 66.9649 262.063 66.9649C253.32 67.0895 211.523 67.6802 202.859 68.2248C202.803 68.231 202.752 68.2575 202.715 68.299C202.678 68.3406 202.657 68.3945 202.657 68.4503C202.657 68.506 202.678 68.5599 202.715 68.6015C202.752 68.6431 202.803 68.6695 202.859 68.6757C209.628 68.8563 216.397 68.7667 223.075 68.6757C269.401 68.0583 266.907 68.1633 268.015 67.9547C268.646 67.8199 269.243 67.5585 269.771 67.1862C270.298 66.814 270.745 66.3386 271.083 65.7889C273.759 60.8203 274.093 53.8006 269.007 51.2582C268.141 50.8125 267.181 50.5799 266.207 50.5799C265.233 50.5799 264.273 50.8125 263.407 51.2582C263.14 47.0827 262.226 42.9738 260.7 39.0782C255.08 26.0526 240.561 20.9118 230.741 32.9364Z" fill="#111111"/><path d="M241.57 55.1376C241.931 54.957 242.203 54.8674 242.383 54.4152C242.383 54.2346 242.383 54.145 242.203 54.054C241.557 53.732 235.586 56.4956 232.455 57.484C232.004 57.6646 232.184 58.387 232.635 58.296C233.268 58.1154 233.895 57.9348 234.622 57.7542C234.622 59.0142 237.142 59.675 237.87 57.8452C238.031 57.4083 238.031 56.9284 237.87 56.4914C239.129 56.114 240.365 55.6619 241.57 55.1376Z" fill="#111111"/><path d="M225.415 63.8918C228.484 63.6202 231.553 62.8082 234.62 62.3518C234.583 62.9196 234.387 63.4655 234.055 63.9275C233.723 64.3895 233.268 64.749 232.741 64.9651C232.215 65.1813 231.638 65.2454 231.077 65.1502C230.516 65.055 229.993 64.8043 229.568 64.4266C229.117 64.0668 228.574 64.7878 228.935 65.149C229.57 65.671 230.341 65.9996 231.157 66.0957C231.973 66.1917 232.8 66.0512 233.538 65.6908C234.249 65.2973 234.826 64.7008 235.196 63.9776C235.566 63.2544 235.711 62.4373 235.614 61.6308C235.611 61.5442 235.589 61.4594 235.549 61.3826C235.509 61.3058 235.452 61.2389 235.383 61.187C235.314 61.135 235.234 61.0992 235.149 61.0823C235.064 61.0653 234.976 61.0676 234.892 61.089C231.734 61.9024 228.395 62.1726 225.232 63.1652C224.965 63.35 225.056 63.98 225.415 63.8918Z" fill="#111111"/><path d="M230.695 80.1878C229.806 81.6088 225.31 88.0278 224.605 89.3424C224.512 89.6126 224.785 89.7932 224.965 89.6126C225.898 88.8118 231.305 81.6746 232.816 80.0464C233.359 79.5046 234.356 78.4224 233.629 77.609C233.178 77.0686 232.184 77.3388 231.553 77.3388C231.372 77.3388 230.013 77.4284 230.108 76.9776C230.289 75.8954 233.267 71.6576 233.359 71.2012C233.384 71.1409 233.388 71.0743 233.372 71.0113C233.355 70.9483 233.319 70.8923 233.268 70.8518C233.217 70.8112 233.154 70.7883 233.089 70.7864C233.024 70.7846 232.96 70.8039 232.907 70.8414C232.438 71.1522 231.647 72.457 230.922 73.1878C228.36 76.601 227.924 76.979 227.763 77.7896C227.763 78.4896 228.043 78.9628 228.754 78.9628C229.048 78.9628 230.355 78.7248 230.786 79.0706C230.941 79.1952 231.048 79.6222 230.695 80.1878Z" fill="#E04747"/><path d="M242.563 87.8976C240.958 88.9225 236.517 91.5979 236.246 93.5831C236.281 93.6176 236.324 93.6436 236.371 93.6594C236.418 93.6751 236.468 93.6801 236.517 93.6741C238.909 92.2899 241.147 90.6563 243.194 88.8007C243.557 88.2588 243.113 87.5476 242.563 87.8976Z" fill="#111111"/><path d="M107.46 24.2718C105.855 25.2966 101.413 27.972 101.143 29.9572C101.178 29.9917 101.221 30.0178 101.268 30.0335C101.315 30.0493 101.364 30.0543 101.413 30.0482C103.805 28.6641 106.044 27.0305 108.091 25.1748C108.543 24.64 108.009 23.9218 107.46 24.2718Z" fill="#111111"/><path d="M80.3852 95.5696C78.7612 96.5622 74.3386 99.2698 74.0684 101.255C74.1039 101.289 74.1466 101.315 74.1933 101.33C74.2401 101.346 74.2897 101.351 74.3386 101.345C76.7304 99.9605 78.9689 98.3269 81.0166 96.4712C81.3778 95.9294 80.836 95.2084 80.3852 95.5696Z" fill="#111111"/><path d="M177.313 111.633C175.689 112.626 171.266 115.333 170.996 117.32C171.032 117.354 171.074 117.38 171.121 117.395C171.168 117.411 171.217 117.416 171.266 117.41C173.658 116.026 175.897 114.392 177.944 112.536C178.307 112 177.764 111.272 177.313 111.633Z" fill="#111111"/><path d="M243.195 125.532C241.497 126.762 239.87 128.086 238.322 129.5C238.231 129.681 237.149 131.124 238.141 130.673C239.707 129.87 241.162 128.869 242.473 127.695C242.743 127.424 243.916 126.703 244.013 126.342C244.007 125.803 243.748 125.094 243.195 125.532Z" fill="#111111"/><path d="M87.1542 95.8398C85.4563 97.071 83.8292 98.397 82.2808 99.8116C82.1898 99.9908 81.1076 101.436 82.1002 100.985C83.6661 100.18 85.1219 99.1766 86.4318 98C86.702 97.7298 87.8752 97.0074 87.9718 96.6462C88.06 96.201 87.7072 95.403 87.1542 95.8398Z" fill="#111111"/><path d="M48.6178 156.307C46.9206 157.539 45.2936 158.864 43.7444 160.278C43.6534 160.458 42.5712 161.903 43.5638 161.451C45.1297 160.648 46.5856 159.647 47.8954 158.472C48.167 158.203 49.3402 157.48 49.4354 157.118C49.5208 156.577 49.1708 155.87 48.6178 156.307Z" fill="#111111"/><path d="M110.529 33.929C108.827 35.1545 107.199 36.4803 105.655 37.8994C105.564 38.08 104.482 39.5248 105.475 39.0726C107.04 38.2703 108.496 37.2695 109.806 36.0948C110.078 35.8246 111.251 35.1022 111.346 34.741C111.43 34.2902 111.07 33.5678 110.529 33.929Z" fill="#111111"/><path d="M212.78 111.363C212.239 111.875 211.727 112.417 211.247 112.987C210.797 113.348 210.524 114.16 211.156 114.432C212.058 114.702 215.037 111.453 214.406 110.821C213.955 110.46 213.322 110.821 212.78 111.363Z" fill="#111111"/><path d="M203.937 76.2552C203.393 76.7676 202.879 77.3103 202.397 77.8806C201.944 78.2418 201.676 79.0538 202.307 79.324C203.209 79.5956 206.188 76.3462 205.555 75.7148C205.201 75.3536 204.568 75.7148 203.937 76.2552Z" fill="#111111"/><path d="M169.1 25.9C168.557 26.4117 168.042 26.9539 167.56 27.524C167.11 27.8852 166.839 28.6972 167.471 28.9674C168.374 29.239 171.352 25.9896 170.719 25.3582C170.363 24.9942 169.733 25.3554 169.1 25.9Z" fill="#111111"/><path d="M167.657 114.251C167.113 114.763 166.599 115.305 166.117 115.875C165.665 116.236 165.395 117.048 166.026 117.319C166.929 117.59 169.907 114.341 169.275 113.709C168.92 113.348 168.288 113.709 167.657 114.251Z" fill="#111111"/><path d="M74.2476 143.22C73.7065 143.732 73.1946 144.274 72.7146 144.844C72.2624 145.205 71.9922 146.017 72.6236 146.287C73.5266 146.559 76.5044 143.31 75.873 142.677C75.4208 142.318 74.7894 142.68 74.2476 143.22Z" fill="#111111"/><path d="M82.8226 115.153C82.2787 115.665 81.7646 116.208 81.2826 116.778C80.8304 117.138 80.5602 117.951 81.1916 118.222C82.0946 118.492 85.0724 115.244 84.441 114.611C84.0854 114.251 83.454 114.611 82.8226 115.153Z" fill="#111111"/><path d="M54.3928 112.356C53.852 112.868 53.3402 113.41 52.8598 113.98C52.4076 114.341 52.1374 115.153 52.7688 115.424C53.6718 115.695 56.6496 112.445 56.0182 111.814C55.657 111.453 55.02 111.814 54.3928 112.356Z" fill="#111111"/><path d="M107.009 164.16C107.807 163.829 108.692 163.765 109.529 163.979C110.611 164.248 110.611 165.602 110.972 166.415C111.153 166.866 111.875 167.227 112.056 166.687C112.326 166.054 111.875 165.061 111.604 164.43C110.778 162.569 109.067 162.456 107.092 162.89C106.296 163.05 104.712 163.386 105.017 164.15C105.388 164.706 106.532 164.16 107.009 164.16Z" fill="#111111"/><path d="M105.475 160.188C106.495 160.188 107.535 159.694 108.543 160.097C109.013 160.281 109.442 160.557 109.803 160.909C110.075 161.181 110.075 161.631 110.345 161.903C110.615 162.175 111.338 162.263 111.248 161.631C111.146 161.031 110.882 160.47 110.484 160.009C110.086 159.548 109.57 159.204 108.991 159.015C108.334 158.817 107.639 158.779 106.964 158.905C106.289 159.03 105.653 159.315 105.111 159.736C104.843 160.007 105.204 160.188 105.475 160.188Z" fill="#111111"/><path d="M218.646 58.66C218.88 58.7774 219.138 58.8368 219.399 58.8333C219.661 58.8298 219.917 58.7635 220.148 58.6399C220.378 58.5164 220.575 58.3392 220.722 58.1234C220.87 57.9076 220.963 57.6595 220.994 57.4C222.038 57.8079 223.129 58.0812 224.242 58.2134C224.294 58.1949 224.341 58.1649 224.379 58.1256C224.418 58.0863 224.447 58.0387 224.464 57.9865C224.482 57.9343 224.487 57.8788 224.48 57.8242C224.473 57.7697 224.453 57.7175 224.423 57.6716C224.185 57.3827 223.873 57.1644 223.52 57.0402C223.16 56.8596 216.842 54.152 216.119 53.7908C216.048 53.7549 215.966 53.7465 215.888 53.767C215.811 53.7876 215.744 53.8357 215.7 53.9024C215.655 53.9691 215.637 54.0496 215.648 54.1289C215.659 54.2081 215.699 54.2806 215.76 54.3326C216.391 54.7834 217.925 55.8726 218.106 55.9566C217.906 56.1461 217.757 56.3831 217.674 56.6456C217.591 56.9082 217.575 57.1875 217.629 57.4576C217.683 57.7277 217.805 57.9797 217.983 58.19C218.161 58.4002 218.389 58.562 218.646 58.66Z" fill="#111111"/><path d="M140.221 125.08C140.422 124.92 140.663 124.818 140.917 124.786C141.172 124.754 141.431 124.794 141.665 124.9C142.296 125.171 142.568 125.803 143.018 126.344L142.929 126.253C143.109 126.525 143.921 127.513 143.921 126.615C143.89 126.031 143.695 125.469 143.36 124.99C143.025 124.512 142.563 124.136 142.026 123.907C141.807 123.804 141.57 123.745 141.328 123.735C141.086 123.725 140.844 123.763 140.617 123.847C140.39 123.931 140.183 124.059 140.006 124.225C139.829 124.39 139.687 124.589 139.588 124.81C139.408 125.08 139.86 125.261 140.221 125.08Z" fill="#111111"/></svg>