<svg viewBox="0 0 280 280" fill="none" xmlns="http://www.w3.org/2000/svg"><path d="M138.054 95.7488C135.836 98.175 133.934 100.027 130.309 99.5722C122.98 98.6412 120.712 88.8356 119.416 82.943C118.467 79.1122 117.804 75.2159 117.435 71.2866C117.435 70.6034 116.108 70.6426 116.047 71.3552C115.671 75.733 118.707 88.1132 120.068 91.896C121.429 95.6788 124.11 99.4336 127.793 100.919C127.686 104.731 127.14 108.842 127.081 110.001C127.09 110.174 127.16 110.338 127.278 110.464C127.397 110.59 127.556 110.67 127.728 110.691C127.9 110.711 128.074 110.669 128.218 110.574C128.362 110.478 128.468 110.335 128.517 110.169C129.1 107.275 129.359 104.325 129.29 101.374C132.993 102.166 138.202 100.285 139.352 96.4222C139.57 95.6998 138.569 95.284 138.104 95.788L138.054 95.7488ZM139.233 78.0304C135.66 74.2 134.607 67.879 134.12 64.631C124.852 67.6914 118.72 69.0872 114.304 69.0872C107.619 69.0872 108.115 59.2536 116.81 60.5598C115.563 52.8752 127.705 50.0318 129.388 55.5296C131.131 51.2806 138.827 51.4976 139.709 57.6296C144.007 52.8066 150.028 62.0578 145.76 65.6418C149.087 66.2466 150.048 73.2018 146.195 75.2486C147.158 77.0472 147.44 79.1324 146.991 81.1223C146.542 83.1123 145.391 84.8739 143.749 86.0846C145.075 93.5717 145.738 101.161 145.73 108.765C145.73 109.754 144.017 109.754 143.977 108.765C143.181 85.8914 141.435 85.7962 142.61 84.6286C148.256 79.9736 143.888 70.3766 140.451 77.8736C140.397 77.9834 140.316 78.0777 140.216 78.1477C140.115 78.2178 139.999 78.2612 139.877 78.2741C139.756 78.287 139.633 78.2688 139.52 78.2213C139.407 78.1738 139.309 78.0985 139.233 78.0024V78.0304ZM136.212 81.8636C139.084 95.5108 126.962 92.7584 126.081 89.1632C126.076 88.922 126.143 88.6849 126.274 88.4819C126.404 88.279 126.592 88.1194 126.813 88.0236C128.589 87.8148 130.267 87.0983 131.646 85.96C132.972 84.7828 133.975 83.2858 134.558 81.6116C134.886 80.92 136.066 81.1692 136.212 81.8636ZM135.1 83.9734C136.091 90.629 131.138 92.1046 127.919 89.2724C129.44 88.9916 130.876 88.3686 132.12 87.4506C133.365 86.5325 134.383 85.3434 135.1 83.9734ZM130.455 81.9924C130.578 81.946 130.712 81.9361 130.841 81.9638C130.969 81.9916 131.087 82.0559 131.18 82.149C131.273 82.242 131.338 82.36 131.365 82.4886C131.393 82.6173 131.383 82.7512 131.337 82.8744C130.654 84.7658 124.869 86.1924 124.404 83.7746C124.256 83.0228 125.048 83.0326 125.682 83.4582C127.326 84.5782 130.326 82.0316 130.474 81.9924H130.455ZM120.267 75.18C119.762 76.2594 118.762 75.8632 118.831 74.9224C118.99 74.2344 119.289 73.5862 119.708 73.0174C120.127 72.4486 120.657 71.9711 121.267 71.6142C122.465 71.1396 123.927 72.0804 122.129 73.2942C121.417 73.8258 120.79 74.4615 120.267 75.18ZM131.845 72.0398C130.892 71.2884 129.729 70.8524 128.517 70.7924C128.282 70.8169 128.046 70.7507 127.857 70.6073C127.669 70.4639 127.542 70.2542 127.503 70.0207C127.464 69.7872 127.515 69.5475 127.646 69.3504C127.777 69.1534 127.979 69.0137 128.209 68.9598C129.825 68.4558 132.567 69.7424 132.969 70.9408C132.973 71.0794 133.56 72.5578 131.845 72.0384V72.0398ZM130.399 75.46C132.003 74.9938 131.939 77.896 131.012 78.0248C130.085 78.1536 129.448 75.74 130.399 75.46ZM122.36 77C123.805 76.762 123.666 79.8 122.864 80.0702C121.548 80.4902 121.359 77.1876 122.36 77.0196V77Z" fill="#111111"/><path d="M178.443 70.959C176.868 64.68 169.343 66.3642 169.312 71.1578C169.323 71.321 169.392 71.4748 169.507 71.5912C169.622 71.7076 169.775 71.7789 169.938 71.7921C170.101 71.8054 170.264 71.7596 170.396 71.6633C170.528 71.5669 170.621 71.4263 170.659 71.267C170.727 70.7214 170.942 70.2046 171.281 69.7714C171.619 69.3382 172.069 69.0048 172.582 68.8067C173.095 68.6085 173.652 68.553 174.193 68.6461C174.735 68.7391 175.242 68.9772 175.659 69.335C177.402 70.861 176.926 75.376 177.156 77.763C177.264 78.883 179.676 79.3478 178.72 72.443C181.937 71.3094 185.411 71.1204 188.733 71.8984C189.02 75.0582 189.129 78.2278 189.585 81.3666C190.169 85.4266 192.408 84.4172 192.08 83.566C191.001 80.7128 190.831 75.7414 190.368 71.1368C191.301 67.1959 191.078 63.0692 189.724 59.2522C189.416 58.3604 188.108 58.8462 188.356 59.7366C189.263 63.0386 189.402 66.5043 188.763 69.8684L186.367 69.6514C186.455 66.402 185.543 57.5778 182.405 55.4386C182.267 55.3575 182.105 55.3245 181.947 55.3447C181.788 55.365 181.64 55.4374 181.527 55.5505C181.413 55.6637 181.341 55.8113 181.32 55.9702C181.3 56.129 181.332 56.2902 181.413 56.4284C183.831 59.8458 184.712 65.5214 184.612 69.6514L182.232 69.888C181.796 64.3526 179.434 59.145 175.556 55.1712C174.923 54.5664 173.982 55.5912 174.507 56.2506C179.33 62.2524 178.795 63.5992 180.449 70.2646C179.773 70.4514 179.111 70.6853 178.468 70.9646L178.443 70.959ZM181.196 87.92C181.843 88.9154 180.205 89.901 179.582 88.9112C178.591 87.4846 177.789 85.9404 176.729 84.623C175.392 82.9192 172.372 84.1176 170.341 79.3632C167.866 73.57 170.391 73.2228 170.717 74.4114C171.471 77.0364 171.935 80.6022 174.888 81.7012C178.958 83.1418 178.823 84.266 181.196 87.92Z" fill="#111111"/><path d="M116.355 187.449C114.267 186.72 112.352 185.567 110.73 184.062C110.025 183.389 109.506 182.544 109.225 181.61C108.944 180.676 108.909 179.685 109.126 178.734C109.175 178.527 109.146 178.31 109.044 178.123C108.942 177.936 108.775 177.794 108.575 177.723C108.375 177.652 108.156 177.657 107.959 177.737C107.763 177.818 107.603 177.969 107.51 178.16C107.135 179.35 107.081 180.618 107.354 181.836C107.627 183.053 108.218 184.177 109.066 185.093C110.94 186.963 113.212 188.388 115.711 189.262C115.937 189.292 116.167 189.244 116.361 189.125C116.556 189.006 116.703 188.823 116.779 188.608C116.854 188.393 116.854 188.159 116.776 187.944C116.699 187.73 116.551 187.548 116.355 187.431V187.449ZM114.829 202.3C114.978 202.363 115.105 202.469 115.195 202.603C115.284 202.738 115.332 202.896 115.332 203.058C115.332 203.22 115.284 203.378 115.195 203.513C115.105 203.648 114.978 203.753 114.829 203.816C110.303 205.356 96.2402 198.369 104.371 181.819C104.462 181.656 104.609 181.531 104.785 181.469C104.961 181.407 105.154 181.412 105.327 181.483C105.5 181.554 105.641 181.686 105.723 181.853C105.805 182.021 105.822 182.214 105.771 182.393C103.286 188.91 102.028 196.694 109.169 200.717C111.929 202.286 113.225 201.802 114.829 202.3ZM117.197 197.764C115.462 197.917 113.719 197.592 112.157 196.823C108.377 194.982 108.423 192.436 107.205 193.089C104.997 194.239 112.157 200.789 117.397 199.497C117.623 199.439 117.818 199.294 117.937 199.093C118.056 198.893 118.091 198.653 118.034 198.426C117.983 198.241 117.875 198.078 117.724 197.96C117.573 197.841 117.388 197.775 117.197 197.77V197.764ZM117.277 192.613C117.95 193.13 117.435 194.153 116.414 194.128C114.743 193.957 113.128 193.425 111.682 192.571C110.236 191.716 108.991 190.558 108.035 189.176C107.904 188.996 107.85 188.771 107.884 188.551C107.919 188.331 108.039 188.134 108.219 188.003C108.399 187.871 108.624 187.817 108.844 187.851C109.065 187.886 109.262 188.007 109.393 188.187C112.622 192.604 116.176 191.85 117.277 192.693V192.613Z" fill="#111111"/><path d="M136.906 115.64C134.167 115.785 131.433 115.277 128.929 114.159C126.424 113.041 124.221 111.344 122.5 109.208C122.252 108.912 121.688 108.98 121.302 109.011C98.805 110.436 80.22 125.847 67.1818 143.16C58.268 155.044 57.575 163.433 70.1526 172.673C79.1084 179.456 89.1152 184.725 99.7752 188.272C100.538 188.499 101.044 187.281 100.3 186.964C91.0718 183.091 82.2376 178.339 73.92 172.773C61.5412 164.175 58.5004 158.283 68.1072 145.299C92.491 112.399 114.715 111.773 121.796 110.859C131.701 122.259 145.438 117.852 152.201 109.067C163.937 112.129 175.335 116.366 186.221 121.715C186.992 126.27 187.746 132.495 190.183 136.263C190.588 136.877 191.608 136.332 191.46 135.659C190.231 130.33 188.915 125.933 187.943 120.317C186.358 111.217 183.982 101.728 179.714 93.5172C184.625 91.1263 189.715 89.1197 194.936 87.5154C204.159 101.903 210.679 117.853 214.176 134.582C218.226 154.945 201.548 159.184 186.176 152.013C177.964 148.19 168.714 144.446 160.306 141.396C159.316 141.04 158.879 142.496 159.79 142.936C163.29 144.63 166.891 146.145 170.486 147.659C170.804 163.139 170.734 179.778 169.786 193.218C154.716 198.765 138.376 199.899 122.683 196.486C121.762 196.298 121.283 197.635 122.219 197.903C134.103 201.25 156.041 201.012 170.926 194.932C171.56 194.674 171.658 193.763 171.648 193.228C171.648 188.731 173.55 162.368 172.144 148.323C176.729 150.304 181.265 152.285 185.891 154.127C203.104 160.931 220.268 156.355 216.345 134.319C212.848 117.218 205.996 100.979 196.185 86.5424C195.195 85.0864 195.345 85.3538 193.581 85.869C188.717 87.3152 181.913 89.7414 178.219 92.2278C178.053 92.358 177.933 92.5375 177.876 92.7403C177.819 92.9432 177.828 93.1589 177.902 93.3562C181.25 102.2 184.181 110.296 185.825 119.631C180.824 116.403 156.946 107.421 151.32 107.183C150.171 107.183 146.7 114.937 136.87 115.62L136.906 115.64ZM84.56 153.598C86.6404 150.399 95.6326 143.367 100.04 141.714C99.7178 139.871 99.4897 138.013 99.3566 136.147C99.288 135.078 100.922 134.761 101.021 135.867C102.358 149.653 113.341 171.412 112.797 181.623C112.797 182.613 111.35 182.494 111.241 181.682C109.607 169.382 102.561 154.16 100.426 143.731C94.8423 146.475 89.8649 150.311 85.7878 155.011C93.1378 163.29 99.6478 168.253 107.736 175.146C107.885 175.313 107.973 175.527 107.985 175.751C107.998 175.975 107.934 176.197 107.804 176.38C107.673 176.563 107.485 176.696 107.269 176.758C107.053 176.82 106.823 176.807 106.616 176.721C98.0672 171.324 87.738 160.448 81.4296 152.446C81.3098 152.276 81.2586 152.068 81.2864 151.862C81.3142 151.656 81.4188 151.468 81.5793 151.337C81.7398 151.205 81.9443 151.139 82.1516 151.152C82.3588 151.164 82.5536 151.255 82.6966 151.406C83.3 152.142 83.9188 152.88 84.56 153.598ZM111.244 208.6C111.131 210.543 111.131 212.491 111.244 214.434C111.314 215.305 112.612 215.097 112.69 214.334C112.909 212.188 113.077 210.032 113.196 207.868C113.344 204.985 111.343 205.887 111.215 208.6H111.244ZM174.524 205.53C174.758 206.333 175.514 207.847 174.306 208.264C173.097 208.681 172.801 206.947 172.572 206.144C171.596 203.226 170.805 200.249 170.205 197.231C170.177 197.041 170.215 196.848 170.314 196.684C170.413 196.52 170.566 196.396 170.747 196.332C170.928 196.269 171.125 196.271 171.304 196.337C171.484 196.403 171.635 196.53 171.731 196.696C172.853 199.573 173.785 202.521 174.521 205.52L174.524 205.53Z" fill="#111111"/><path d="M26.348 212.576C25.4856 213.179 26.5552 214.557 27.447 214.061C28.7938 213.249 47.7694 201.078 49.2352 199.423C49.77 198.8 49.3248 197.522 48.3644 197.849C46.2588 197.849 29.1886 210.626 26.348 212.576ZM248.528 208.852C244.878 205.841 225.602 196.105 220.867 194.852C220.666 194.803 220.454 194.828 220.27 194.923C220.087 195.018 219.944 195.177 219.869 195.37C219.793 195.563 219.791 195.776 219.861 195.971C219.932 196.165 220.071 196.327 220.252 196.427C227.304 200.052 241.22 208.025 247.706 210.342C248.532 210.644 249.154 209.373 248.522 208.852H248.528ZM272.388 150.864C266.58 149.736 243.151 150.142 237.882 150.647C237.626 150.657 237.384 150.765 237.206 150.95C237.028 151.135 236.928 151.381 236.928 151.638C236.928 151.894 237.028 152.14 237.206 152.325C237.384 152.51 237.626 152.618 237.882 152.628C246.687 152.845 264.202 153.468 272.16 152.548C273.015 152.439 273.42 151.06 272.383 150.864H272.388ZM237.1 110.684C236.663 111.279 237.1 112.487 238 112.07C241.466 110.397 262.989 94.066 264.523 92.372C264.634 92.234 264.698 92.0646 264.706 91.8881C264.715 91.7115 264.668 91.5367 264.571 91.3886C264.475 91.2404 264.334 91.1265 264.169 91.063C264.004 90.9995 263.823 90.9897 263.652 91.035C261.61 91.035 238.85 108.251 237.094 110.684H237.1ZM42.798 109.417C39.0936 106.812 23.6838 99.1858 19.7512 97.3924C18.7026 96.908 18.1272 98.483 19.0876 99.008C26.1198 102.82 34.5982 108.129 41.7382 111.308C41.9826 111.394 42.2495 111.391 42.4918 111.3C42.7342 111.208 42.9365 111.034 43.0632 110.808C43.1898 110.582 43.2326 110.319 43.1841 110.064C43.1356 109.81 42.9989 109.581 42.798 109.417ZM37.8462 148.576C27.6262 147.675 13.0564 149.043 7.62021 149.814C6.62901 149.943 6.92021 151.469 7.84701 151.459C10.0954 151.459 37.114 150.38 37.667 150.231C38.4734 150.017 38.64 148.576 37.8462 148.576Z" fill="#E04747"/><path d="M86.534 185.598C97.4288 203.732 115.415 227.263 147.014 241.902C176.729 219.201 192.972 188.3 201.6 160.272C205.834 160.126 209.911 158.631 213.237 156.005C204.6 189.381 180.96 233.64 148.484 255.975C116.95 241.338 84.693 210.13 70.9968 176.893C75.5006 180.536 84.1568 184.478 86.534 185.598ZM70.0546 135.177C66.2998 120.103 63.4746 79.6152 64.0528 69.0872C81.2952 57.8172 126.06 39.2378 136.853 35.672C148.688 38.8612 196.277 56.4704 211.548 65.8784C211.911 79.6791 211.412 93.489 210.053 107.227C213.024 114.745 215.946 122.678 217.125 129.017C222.076 105.683 223.405 68.677 222.076 59.5896C194.345 45.3278 154.333 28.5306 136.695 24.0296C122.601 28.1694 76.4386 48.7984 52.9872 64.1998C51.4738 93.8 56.8218 130.998 62.3588 145.309C64.6084 141.703 67.1845 138.311 70.0546 135.177Z" fill="#E04747"/></svg>