<svg viewBox="0 0 280 280" fill="none" xmlns="http://www.w3.org/2000/svg"><path d="M111.86 112.56C111.539 111.149 109.869 110.222 109.143 111.467C108.922 111.827 108.798 112.239 108.782 112.662C108.766 113.084 108.859 113.504 109.052 113.88C109.25 114.211 109.565 114.457 109.935 114.57C110.304 114.682 110.703 114.653 111.052 114.489C111.402 114.325 111.678 114.036 111.827 113.68C111.977 113.324 111.988 112.924 111.86 112.56Z" fill="#111111"/><path d="M113.014 15.3804C112.538 13.8768 112.363 13.6094 110.813 13.4974C107.71 13.1961 104.609 14.0921 102.145 16.002C102.104 16.0367 102.073 16.0816 102.054 16.1321C102.035 16.1827 102.03 16.2372 102.039 16.2904C101.997 16.4123 101.986 16.5428 102.008 16.6698C102.974 21.9268 103.211 25.0922 109.325 25.991C109.867 26.1462 110.438 26.1773 110.995 26.082C112.069 25.7054 112.342 24.1976 112.741 23.289C113.889 20.6766 114.3 19.4362 113.014 15.3804ZM111.527 22.4238C111.269 23.0006 111.069 23.6362 110.797 24.199C110.492 24.836 110.404 24.6358 109.735 24.549C103.928 23.7944 104.321 20.489 103.39 16.3212C105.707 15.4149 108.174 14.9514 110.662 14.9548C111.026 14.9702 111.209 14.9226 111.405 15.2124C111.562 15.5451 111.675 15.8973 111.74 16.2596C112.158 17.24 112.355 18.3002 112.318 19.3654C112.282 20.4305 112.011 21.4745 111.527 22.4238Z" fill="#111111"/><path d="M105.196 42.371C106.176 42.6006 106.924 42.1274 109.189 42.1274C109.826 42.1274 111.979 42.5838 111.849 41.384C111.724 40.264 109.375 40.4432 108.629 40.4726C107.32 40.3683 106.019 40.7463 104.969 41.5352C104.909 41.5983 104.867 41.6758 104.845 41.7601C104.824 41.8445 104.825 41.9329 104.848 42.0169C104.87 42.1008 104.914 42.1775 104.975 42.2395C105.036 42.3016 105.112 42.3468 105.196 42.371Z" fill="#111111"/><path d="M123.367 50.6436C122.338 48.5926 121.232 46.5724 120.043 44.6026C119.025 42.5883 117.699 40.7459 116.11 39.1426C115.807 38.885 115.199 39.1132 115.367 39.5836C116.298 41.621 117.416 43.5675 118.707 45.3978C119.673 47.04 120.589 48.72 121.47 50.4C118.226 50.7304 117.506 50.3524 116.399 50.82C116.315 50.8718 116.247 50.9439 116.199 51.0297C116.151 51.1154 116.126 51.2119 116.126 51.31C116.126 51.4081 116.151 51.5046 116.199 51.5903C116.247 51.6761 116.315 51.7482 116.399 51.8C117.4 52.183 118.484 52.2931 119.542 52.1192C120.667 52.0662 121.788 51.9545 122.902 51.7846C123.428 51.7202 123.565 51.0384 123.367 50.6436Z" fill="#111111"/><path d="M116.733 59.22C118.902 61.6854 123.528 58.786 123.14 56.3962C123.114 56.3097 123.056 56.2364 122.978 56.1911C122.9 56.1458 122.808 56.1321 122.72 56.1526C121.447 56.3668 120.838 57.96 119.623 58.3842C117.97 58.9624 117.503 57.3426 116.435 56.5026C115.706 55.9342 115.151 57.421 116.733 59.22Z" fill="#111111"/><path d="M261.145 192.324C259.528 184.909 255.405 178.277 249.472 173.545C244.187 169.446 233.597 165.015 225.183 164.741C224.136 164.707 224.136 166.334 225.183 166.365C228.606 166.561 231.984 167.241 235.217 168.384C245.696 171.795 253.73 177.138 257.928 187.694C260.842 195.026 260.792 203.192 259.536 210.889C258.494 218.631 255.115 225.87 249.851 231.641C243.817 237.878 236.209 240.019 227.627 241.326C209.916 244.024 194.956 235.515 188.628 221.561C182.265 207.526 187.142 186.498 196.826 176.642C203.098 170.596 211.207 166.813 219.87 165.894C219.961 165.894 220.047 165.858 220.112 165.794C220.176 165.73 220.212 165.643 220.212 165.553C220.212 165.462 220.176 165.375 220.112 165.311C220.047 165.247 219.961 165.211 219.87 165.211C216.311 165.172 212.779 165.826 209.471 167.139C198.223 171.304 190.744 178.828 186.7 191.367C176.537 222.867 197.772 243.587 220.86 243.587C225.563 243.497 230.237 242.834 234.78 241.613C240.768 240.409 246.288 237.523 250.695 233.294C255.101 229.065 258.211 223.668 259.661 217.735C261.869 210.448 262.808 199.672 261.145 192.324Z" fill="#111111"/><path d="M246.512 181.971C245.016 182.794 243.699 183.909 242.641 185.249C233.16 195.81 225.851 208.133 221.13 221.516C216.688 216.056 209.674 208.387 203.672 204.666C202.762 204.106 201.992 205.323 202.594 206.066C207.103 211.642 211.753 215.188 220.522 226.332C221.385 227.427 223.084 226.68 223.437 225.558C227.273 213.398 233.352 202.064 241.36 192.142C245.916 186.504 247.265 185.788 248.175 183.656C248.301 183.423 248.348 183.156 248.31 182.893C248.272 182.631 248.152 182.388 247.966 182.2C247.78 182.011 247.538 181.887 247.277 181.846C247.015 181.805 246.747 181.848 246.512 181.971Z" fill="#E04747"/><path d="M151.06 201.162C150.937 171.977 150.864 168.645 151.143 163.478C148.176 162.826 100.954 139.118 93.618 135.135C93.5956 154.678 93.2302 137.235 93.5438 185.675C93.6334 199.556 93.6838 212.405 93.4822 225.387C98.1956 228.014 102.698 231.003 106.947 234.328C109.088 235.983 111.244 238.001 113.947 238.654C118.896 239.849 122.354 236.223 141.211 233.873C142.122 233.766 143.591 233.341 144.05 234.465C144.29 235.445 144.172 236.479 143.716 237.38C142.055 241.198 136.426 243.348 132.468 244.772C130.207 245.592 127.894 246.261 125.545 246.777C125.996 247.179 126.478 247.544 126.987 247.869C138.93 253.732 150.311 260.912 152.825 261.976C151.395 243.071 151.141 221.603 151.06 201.162Z" fill="#E04747"/><path d="M250.201 132.695C250.2 132.668 250.193 132.642 250.18 132.618C250.167 132.595 250.148 132.575 250.126 132.56C250.104 132.546 250.078 132.536 250.051 132.533C250.025 132.53 249.998 132.534 249.973 132.544L249.745 132.056C249.779 132.033 249.807 132.002 249.826 131.964C249.844 131.927 249.852 131.885 249.849 131.843C249.846 131.802 249.832 131.762 249.809 131.727C249.785 131.693 249.753 131.665 249.715 131.648C230.373 123.795 208.898 117.046 188.598 110.942C188.595 110.91 188.585 110.879 188.57 110.851C188.554 110.824 188.532 110.8 188.506 110.781C188.481 110.762 188.451 110.749 188.42 110.743C188.389 110.737 188.356 110.737 188.325 110.744C169.494 114.86 152.463 119.806 134.161 123.981C120.861 127.035 132.621 124.1 115.2 128.475C108.324 130.215 101.374 131.641 94.381 132.835C99.1088 134.91 105.244 138.382 124.125 147.622C125.504 146.657 210.379 119.781 211.383 119.465C211.742 119.366 212.125 119.411 212.451 119.59C212.777 119.769 213.021 120.069 213.13 120.424C213.239 120.78 213.206 121.164 213.036 121.495C212.867 121.827 212.575 122.079 212.223 122.199C211.523 122.426 140.343 145.214 127.235 149.113C144.36 157.543 151.218 160.472 152.193 161.49C152.452 161.48 152.707 161.563 152.911 161.724C153.114 161.885 153.254 162.113 153.304 162.368C167.751 156.563 244.618 133.49 245.351 133.281C245.694 133.191 246.058 133.238 246.366 133.412C246.674 133.586 246.903 133.873 247.003 134.213C247.103 134.553 247.067 134.918 246.902 135.231C246.737 135.544 246.456 135.781 246.12 135.891C236.804 139.083 181.364 155.186 158.309 163.331C156.722 163.928 155.098 164.423 153.447 164.812C154.232 182.43 153.167 229.475 155.519 261.583C162.887 258.874 187.116 249.696 204.252 242.963C198.335 240.364 193.182 236.296 189.281 231.144C185.38 225.992 182.862 219.928 181.966 213.528C180.368 201.478 183.968 184.695 192.886 174.454C201.274 164.818 218.631 159.949 230.563 162.294C237.799 163.786 244.657 166.73 250.723 170.947C250.781 157.92 250.46 145.907 250.201 132.695Z" fill="#E04747"/><path d="M149.948 261.502C148.109 261.632 146.821 262.28 142.358 262.928C135.895 263.865 135.657 263.407 130.988 258.738C129.985 257.446 128.723 256.376 127.284 255.597C126.846 255.44 126.542 255.975 126.724 256.325C127.144 257.146 127.68 257.569 130.291 260.165C135.051 264.891 135.565 265.367 142.177 264.401C144.923 264.058 147.608 263.338 150.157 262.261C150.232 262.214 150.29 262.144 150.323 262.062C150.355 261.979 150.36 261.889 150.336 261.803C150.313 261.718 150.263 261.642 150.193 261.588C150.123 261.534 150.037 261.503 149.948 261.502Z" fill="#111111"/><path d="M140.718 266.511C138.575 267.41 136.325 268.028 134.023 268.348C132.827 268.62 131.572 268.407 130.532 267.756C128.283 266.16 122.009 260.648 120.285 260.242C119.725 260.109 119.238 260.833 119.693 261.243C120.351 261.752 121.041 262.22 121.758 262.643C123.936 264.146 126.155 266.045 128.498 267.865C130.76 269.622 131.222 269.987 134.207 269.611C136.637 269.352 138.964 268.491 140.977 267.106C141.233 266.918 141.082 266.372 140.718 266.511Z" fill="#111111"/><path d="M141.827 235.649C139.468 235.722 137.123 236.032 134.827 236.575C119.007 239.583 118.528 241.492 114.667 241.129C111.941 240.871 112.585 240.778 89.2556 225.751C76.1068 217.269 68.8156 213.646 65.7566 207.368C64.566 204.451 63.9971 201.318 64.0864 198.169C63.777 189.141 64.05 181.369 63.6454 179.269C65.2092 179.147 66.773 179.011 68.3368 178.874C68.5164 178.871 68.6903 178.811 68.8327 178.701C68.975 178.592 69.078 178.439 69.1264 178.266C70.6195 170.348 70.6962 162.227 69.3532 154.281C68.9547 150.564 68.3107 146.877 67.4254 143.245C67.3971 143.106 67.3168 142.982 67.2008 142.9C67.0848 142.818 66.9418 142.782 66.8008 142.802C66.6599 142.821 66.5315 142.893 66.4418 143.004C66.3521 143.114 66.3079 143.254 66.318 143.396C66.9592 155.016 70.238 160.712 67.6074 177.276C52.57 178.548 35.4802 179.91 20.3658 180.464C19.635 168.935 19.3032 164.157 20.8978 154.984C24.3614 134.348 28.7378 122.034 42.0378 105.54C54.2932 90.2906 70.9008 79.133 89.6518 73.5518C89.075 73.9718 88.5318 74.4464 87.997 74.9182C84.224 78.3244 84.2716 79.1266 85.4616 82.3102C89.2084 92.1794 95.0564 101.116 102.6 108.5C102.731 108.628 102.907 108.7 103.09 108.7C103.274 108.7 103.45 108.628 103.58 108.5C107.026 104.567 108.408 99.1032 112.232 95.4898C112.232 96.8898 114.171 102.131 116.028 110.109C118.229 119.83 118.059 122.965 118.912 125.047C119.052 125.381 119.657 125.517 119.732 125.047C120.364 120.567 115.406 99.6184 113.219 95.7782C117.915 97.7206 122.267 100.407 126.108 103.733C126.216 103.835 126.351 103.905 126.497 103.932C126.643 103.96 126.794 103.945 126.931 103.889C127.069 103.833 127.188 103.738 127.273 103.617C127.359 103.495 127.407 103.351 127.413 103.202C128.422 94.1948 126.066 85.1704 123.649 76.6206C123.071 74.6172 122.48 72.3394 120.491 71.2614C118.308 70.1303 115.875 69.5666 113.417 69.622C113.324 69.6266 113.236 69.6634 113.168 69.726C113.099 69.7886 113.055 69.8731 113.043 69.965C113.03 70.0568 113.05 70.1502 113.099 70.2289C113.148 70.3076 113.222 70.3668 113.31 70.3962C115.373 70.824 117.388 71.4601 119.322 72.2946C121.537 73.423 121.842 75.8184 122.221 77.1666C124.625 85.6646 126.529 93.2274 126.001 101.714C122.7 99.0808 116.806 95.2 113.47 94.5C114.419 92.9752 115.059 91.2783 115.352 89.5062C116.752 84.0042 117.323 76.5282 114.836 71.4266C114.668 71.092 114.229 71.351 114.276 71.6534C116.453 85.5834 112.974 91.0854 112.41 93.8476C112.045 93.7636 111.798 94.003 111.514 94.2886C109.274 92.0486 100.681 88.7194 94.9368 75.4642C95.0045 75.5028 95.0816 75.5218 95.1595 75.5191C95.2374 75.5163 95.313 75.492 95.3778 75.4488C98.1246 73.6722 98.14 69.3462 97.958 66.4622C97.6255 62.2622 97.0787 58.082 96.32 53.9378C96.2794 53.7994 96.1996 53.6757 96.0902 53.5817C95.9808 53.4878 95.8465 53.4275 95.7036 53.4083C95.5606 53.389 95.4152 53.4116 95.2848 53.4733C95.1545 53.5349 95.0448 53.6331 94.969 53.7558C93.569 56.6426 88.949 56.0686 86.513 52.0254C86.0386 51.3126 85.718 50.5086 85.5716 49.665C85.4253 48.8213 85.4565 47.9563 85.6632 47.1254C86.3532 45.5739 87.4045 44.2102 88.7292 43.148C89.9967 42.4367 91.4888 42.2385 92.8981 42.5942C94.3074 42.95 95.5266 43.8327 96.3046 45.0604C97.1698 46.4716 97.2846 48.2174 98.2926 49.5544C99.981 51.8252 102.719 51.3744 102.361 50.1914C101.023 45.7002 102.161 42.8246 102.984 39.4744C103.592 36.9544 103.712 34.965 102.878 33.7344C116.434 35.5964 117.018 36.792 121.793 36.4826C121.793 36.6226 121.773 36.379 122.126 37.59C121.327 37.6964 119.447 38.5882 119.273 39.6088C119.227 39.8524 119.379 40.201 119.693 40.1688C120.533 40.0722 121.206 39.1804 122.563 39.06C123.246 41.3378 123.868 43.6142 124.4 45.9368C125.8 52.0492 127.83 60.1902 123.626 63.7588C120.747 66.1878 114.759 65.6558 111.42 64.3048C110.127 63.6516 108.907 62.8632 107.78 61.9528C107.5 61.7708 107.052 62.0732 107.19 62.4078C107.905 63.8518 109.148 64.9659 110.662 65.52C110.202 66.9928 111.502 70.6468 112.514 72.5634C112.756 73.0338 113.151 74.0054 113.865 73.808C114.456 73.6414 114.335 73.003 114.122 72.5634C113.265 71.0357 112.583 69.4165 112.088 67.7362C111.945 67.1096 111.767 66.4913 111.556 65.884C114.766 67.004 119.536 67.4632 122.867 65.9596C129.64 62.9244 127.54 53.802 126.388 48.16C125.601 44.1584 124.552 40.2131 123.246 36.3496C131.207 35.259 136.741 28.9422 136.826 25.3288C136.865 24.5967 136.71 23.8674 136.377 23.2144C136.044 22.5613 135.544 22.0076 134.929 21.609C133.259 20.6682 131.468 21.5334 129.829 22.0794C127.826 22.7542 124.723 23.6124 122.571 24.1906C121.878 19.9141 120.193 15.859 117.653 12.3494C116.284 10.6416 114.441 9.37548 112.356 8.70939C105.892 6.38679 99.0752 5.99619 93.765 10.36C92.0674 11.8237 90.484 13.415 89.0288 15.12C87.5467 16.6954 86.3543 18.5201 85.5064 20.51C84.0139 24.8154 83.676 29.4369 84.5264 33.9136C84.4725 34.011 84.4394 34.1185 84.4295 34.2294C84.4195 34.3403 84.4328 34.452 84.4685 34.5575C84.5042 34.6629 84.5616 34.7597 84.6369 34.8417C84.7122 34.9237 84.8038 34.989 84.9058 35.0336C85.0233 37.8795 85.6828 40.6768 86.849 43.2754C85.6574 44.1763 84.7721 45.4223 84.3136 46.844C84.0454 47.9185 84.0179 49.0391 84.2331 50.1255C84.4482 51.2119 84.9007 52.2374 85.5582 53.1286C88.424 57.3566 92.7808 57.8592 95.1678 55.8614C95.7712 59.6582 97.0928 67.9014 96.1688 71.4014C96.1452 71.3047 96.0881 71.2196 96.0076 71.1611C95.9271 71.1027 95.8284 71.0747 95.7292 71.0822C94.27 71.1965 92.852 71.6208 91.5698 72.3268C91.5131 72.2509 91.4355 72.1932 91.3464 72.1609C91.2574 72.1285 91.1608 72.123 91.0686 72.1448C75.1576 75.6784 56.6258 86.1224 43.4 101.408C29.218 117.825 23.562 130.823 19.8212 151.154C17.9382 161.337 17.4412 164.521 18.683 181.394C18.688 181.626 18.7822 181.846 18.946 182.01C19.1097 182.174 19.3305 182.269 19.5622 182.274C21.3696 182.199 23.1602 182.108 24.9676 182.015C24.6316 186.042 24.577 194.678 24.6176 198.675C24.6792 204.081 24.4664 209.804 26.6224 214.889C29.7528 222.235 38.3992 229.113 45.1262 233.394C65.863 246.576 94.7968 253.07 104.224 258.29C106.325 259.369 108.331 260.624 110.221 262.039C113.247 264.116 116.024 266.536 118.495 269.251C119.07 270.193 119.839 271.003 120.749 271.628C121.659 272.253 122.691 272.679 123.777 272.878C126.032 273.089 128.305 272.986 130.532 272.574C130.882 272.545 130.791 271.982 130.456 271.982C128.575 271.982 126.647 271.891 124.779 271.771C121.762 271.555 120.999 270.355 119.319 268.188C116.991 265.539 114.322 263.211 111.38 261.265C105.322 256.822 104.198 256.319 100.618 254.859C86.5088 249.102 57.638 241.79 39.6074 227.473C34.0074 223.023 28.6356 217.784 27.0676 210.836C25.7362 204.826 26.3858 188.7 26.187 181.947C38.5728 181.3 49.616 180.478 62.286 179.382C62.153 180.54 62.2552 193.802 62.4078 197.901C62.636 204.856 63.469 209.22 69.0116 214.161C71.9432 216.758 99.9516 234.836 100.092 234.927C109.987 241.367 110.718 242.05 112.92 242.654C115.214 243.201 117.62 243.048 119.826 242.214C131.026 238.382 137.589 238.535 142.086 236.566C142.541 236.362 142.267 235.665 141.827 235.649ZM130.425 23.4094C131.944 22.8928 134.039 21.9212 135.01 23.8042C135.296 24.5743 135.364 25.4084 135.206 26.2145C135.048 27.0207 134.67 27.7675 134.114 28.3724C132.153 31.0066 129.454 32.9986 126.358 34.0956C120.355 36.274 116.278 34.3756 109.628 33.306C105.35 32.606 100.303 31.9452 98.2436 31.7128C117.701 26.8982 123.579 25.732 130.425 23.4108V23.4094ZM85.54 33.7022C85.6002 29.9838 85.2978 26.2332 86.3142 22.6058C87.423 18.6438 90.3224 15.6534 93.191 12.845C94.5418 11.3394 96.2199 10.1638 98.0963 9.40844C99.9726 8.65314 101.997 8.33831 104.014 8.48819C106.091 8.58767 108.147 8.94988 110.132 9.56619C112.22 10.0098 114.153 10.9997 115.732 12.4348C118.434 15.2138 120.352 20.5898 121.122 24.5798C120.98 24.6176 85.68 33.712 85.54 33.7022ZM95.984 71.9726C95.4674 73.4776 94.71 74.7726 94.71 74.9476C94.5091 74.4855 94.2649 74.0434 93.9806 73.6274C93.9362 73.5574 93.8705 73.5035 93.7932 73.4738C93.7159 73.444 93.631 73.4398 93.5511 73.462C93.4713 73.4841 93.4006 73.5313 93.3497 73.5966C93.2987 73.6619 93.2701 73.7419 93.268 73.8248C93.4291 75.0456 93.793 76.2309 94.3446 77.3318C97.1099 83.8895 101.759 89.4791 107.703 93.3926C108.631 94.0971 109.673 94.6361 110.783 94.9858C107.46 98.4326 106.047 103.275 103.057 106.994C96.6478 100.599 91.5121 93.0451 87.9228 84.7336C85.6044 79.3618 85.5106 79.3422 88.0138 76.8404C92.5554 72.24 95.62 72.219 95.9812 71.9726H95.984Z" fill="#111111"/><path d="M169.455 112.732C168.615 106.462 163.295 98.8722 158.844 94.2522C150.739 86.1738 141.195 79.6815 130.704 75.11C128.382 73.9218 125.86 73.1751 123.266 72.9078C122.846 72.8938 122.809 73.4678 123.175 73.6078C127.492 75.1344 131.669 77.0305 135.66 79.275C143.453 83.1284 150.573 88.2131 156.747 94.3334C165.441 103.027 166.449 108.802 168.861 112.899C169.005 113.14 169.501 113.067 169.455 112.732Z" fill="#111111"/><path d="M46.0838 239.809C45.6036 241.161 45.6302 242.684 45.5238 246.959C45.3516 253.73 45.3656 257.299 45.3418 262.017C45.2603 264.197 45.4011 266.379 45.7618 268.53C45.7876 268.616 45.8408 268.693 45.9133 268.747C45.9858 268.801 46.0739 268.83 46.1643 268.83C46.2548 268.83 46.3428 268.801 46.4153 268.747C46.4878 268.693 46.541 268.616 46.5668 268.53C47.4152 265.71 47.0022 262.305 47.2192 247.884C47.2962 242.787 47.4572 241.378 46.991 239.809C46.9612 239.712 46.901 239.627 46.8194 239.567C46.7377 239.506 46.6389 239.474 46.5374 239.474C46.4359 239.474 46.3371 239.506 46.2555 239.567C46.1738 239.627 46.1137 239.712 46.0838 239.809Z" fill="#111111"/></svg>