<svg viewBox="0 0 280 280" fill="none" xmlns="http://www.w3.org/2000/svg"><path d="M138.384 164.22C138.374 164.479 138.447 164.735 138.592 164.95C138.737 165.166 138.948 165.329 139.192 165.416C145.354 167.257 151.63 168.692 157.98 169.711C158.299 169.729 158.612 169.62 158.851 169.409C159.089 169.197 159.235 168.899 159.256 168.581C159.179 164.297 159.35 160.013 159.768 155.749C169.578 157.188 179.284 158.351 189.143 159.326C190.408 159.517 191.702 159.368 192.891 158.893C202.995 156.043 212.892 152.505 222.513 148.303C224.519 147.455 222.897 145.503 220.934 146.286C211.635 150.143 202.115 153.443 192.424 156.169C191.38 156.562 190.243 156.636 189.157 156.381C180.135 155.592 171.144 154.522 162.184 153.25C178.51 144.388 195.192 135.33 212.976 129.648C216.566 128.5 216.056 124.009 212.992 123.609C198.209 121.56 183.28 120.754 168.363 121.201C165.517 121.321 162.682 121.612 159.872 122.073C141.124 124.935 117.34 131.064 100.811 140.935C99.4434 141.753 99.4882 142.092 99.0626 143.823C95.4436 158.582 94.0352 187.223 97.5464 207.046C97.7578 208.244 99.4504 207.852 99.3664 206.697C98.9352 201.237 98.378 195.811 98.1848 190.338C97.5745 175.009 98.7566 159.661 101.707 144.606C102.108 142.604 101.59 143.097 103.726 141.936C120.075 133.053 142.296 126.889 160.468 124.109C163.245 123.716 166.049 123.546 168.853 123.602C180.661 123.314 192.476 123.8 204.221 125.059C185.538 128.477 156.484 138.131 140.7 149.8C129.511 147.805 118.495 145.243 107.362 143.192C106.161 142.969 105.934 144.672 107.038 145.012C117.626 148.061 128.376 150.515 139.238 152.362C138.578 156.279 138.292 160.249 138.384 164.22ZM143.646 151.192C148.399 151.326 153.126 151.942 157.755 153.031C158.515 153.244 159.082 154.736 157.655 154.729C152.895 154.671 148.156 154.079 143.528 152.965C141.946 152.55 142.533 151.211 143.64 151.185L143.646 151.192Z" fill="#111111"/><path d="M111.695 100.041C112.238 102.906 113.095 105.703 114.248 108.381C114.353 108.582 114.526 108.739 114.736 108.824C114.947 108.91 115.18 108.917 115.395 108.845C115.61 108.774 115.793 108.628 115.91 108.433C116.027 108.239 116.072 108.01 116.035 107.786C115.16 104.976 114.355 102.13 113.806 99.603C116.939 98.7768 119.877 97.3342 122.446 95.3594C125.015 93.3846 127.165 90.9174 128.769 88.102C132.047 82.3018 132.53 75.411 132.22 68.8898C131.968 60.5657 130.169 52.3611 126.916 44.695C126.815 44.457 126.625 44.2679 126.387 44.1681C126.149 44.0683 125.881 44.0659 125.64 44.1612C125.4 44.2566 125.207 44.4422 125.102 44.6783C124.997 44.9144 124.989 45.1822 125.079 45.4244C127.189 51.6835 128.661 58.14 129.471 64.6954C130.088 70.9366 130.311 77.6314 128.127 83.6136C126.84 87.0294 124.729 90.0742 121.981 92.4769C119.233 94.8796 115.934 96.5658 112.377 97.3854C102.717 99.6254 93.6768 94.9606 88.4786 86.7104C87.9298 85.8382 86.4346 86.66 86.8896 87.5938C89.1811 92.0213 92.815 95.6099 97.2708 97.8459C101.727 100.082 106.776 100.85 111.695 100.041Z" fill="#111111"/><path d="M116.34 67.4548C115.167 65.1563 113.777 62.9754 112.189 60.942C111.524 60.165 109.967 60.809 110.491 61.8688C111.728 64.372 113.38 66.6568 114.682 69.1278C115.188 70.0854 115.464 70.994 114.633 71.8452C113.652 72.583 112.515 73.0855 111.308 73.3138C111.089 73.406 110.91 73.573 110.803 73.7849C110.696 73.9968 110.667 74.24 110.723 74.471C110.778 74.702 110.914 74.9058 111.105 75.0462C111.297 75.1865 111.532 75.2543 111.769 75.2374C113.333 75.1724 114.833 74.6015 116.045 73.6106C118.194 71.6408 117.536 69.6122 116.34 67.4548Z" fill="#111111"/><path d="M100.908 51.835C98.1862 51.443 94.3964 54.474 93.1924 56.7028C93.06 56.8998 93.0027 57.1379 93.0312 57.3735C93.0596 57.6092 93.1718 57.8269 93.3473 57.9867C93.5227 58.1466 93.7499 58.2381 93.9872 58.2445C94.2245 58.2509 94.4562 58.1718 94.64 58.0216C97.9888 54.6966 99.4364 54.9892 101.5 53.6634C101.654 53.5287 101.765 53.3518 101.819 53.1547C101.874 52.9575 101.869 52.7487 101.806 52.5541C101.743 52.3595 101.625 52.1877 101.465 52.0599C101.305 51.932 101.112 51.8539 100.908 51.835Z" fill="#111111"/><path d="M122.815 50.1676C121.933 49.121 120.72 48.4072 119.377 48.1446C117.991 47.7787 116.527 47.8515 115.185 48.3532C114.976 48.4567 114.807 48.6257 114.704 48.8344C114.6 49.043 114.567 49.2799 114.611 49.5088C114.655 49.7376 114.772 49.9459 114.945 50.1018C115.118 50.2577 115.338 50.3526 115.57 50.372C116.7 50.1557 117.863 50.1723 118.986 50.421C119.904 50.6725 120.779 51.0609 121.582 51.5732C121.772 51.6916 121.999 51.7385 122.221 51.7056C122.443 51.6726 122.646 51.5619 122.794 51.3932C122.942 51.2245 123.025 51.0087 123.029 50.7842C123.033 50.5598 122.957 50.3413 122.815 50.1676Z" fill="#111111"/><path d="M118.559 57.54C117.034 58.5522 118.53 63.3836 120.537 62.531C121.325 62.1964 121.626 60.9728 121.377 59.8052C121.156 58.7342 119.752 56.7532 118.559 57.54Z" fill="#111111"/><path d="M101.941 67.508C103.635 66.5602 102.196 61.6546 99.96 62.4442C99.511 62.711 99.1661 63.1225 98.9819 63.6112C98.7977 64.1 98.7852 64.6368 98.9464 65.1336C99.1704 66.3124 100.66 68.2276 101.941 67.508Z" fill="#111111"/><path d="M115.08 82.005C115.882 81.2574 114.694 80.0702 113.831 80.6148C110.81 82.5258 107.097 84.0406 104.159 81.1244C103.529 80.3117 103.014 79.4168 102.627 78.4644C102.159 77.6678 101.094 78.0976 100.874 78.827C100.44 80.269 101.496 81.8888 102.439 82.873C105.946 86.5312 111.72 85.1494 115.08 82.005Z" fill="#111111"/><path d="M175.878 236.922C176.05 236.752 176.149 236.521 176.154 236.279C176.16 236.037 176.071 235.802 175.907 235.625C175.742 235.447 175.515 235.34 175.273 235.326C175.032 235.312 174.794 235.393 174.611 235.551C159.753 248.431 139.688 243.83 123.453 249.325C123.191 249.401 122.968 249.575 122.831 249.811C122.694 250.047 122.652 250.327 122.715 250.592C122.778 250.858 122.941 251.089 123.17 251.238C123.399 251.387 123.676 251.442 123.945 251.392C141.582 247.772 163.304 249.5 175.878 236.922Z" fill="#111111"/><path d="M157.478 236.46C165.738 236.645 176.938 232.672 180.261 225.131C180.359 224.911 180.368 224.661 180.286 224.434C180.204 224.208 180.037 224.022 179.82 223.916C179.603 223.81 179.354 223.792 179.124 223.866C178.895 223.94 178.703 224.101 178.59 224.314C176.567 227.502 173.573 229.956 170.05 231.314C165.86 232.881 161.506 233.965 157.07 234.545C155.884 234.735 156.432 236.436 157.478 236.46Z" fill="#111111"/><path d="M156.615 228.62C159.646 229.04 166.135 226.201 168.942 224.763C172.909 222.797 176.484 220.126 179.494 216.88C179.662 216.699 179.753 216.46 179.75 216.213C179.746 215.966 179.647 215.73 179.475 215.554C179.302 215.378 179.068 215.275 178.821 215.267C178.574 215.259 178.334 215.346 178.15 215.51C169.19 223.198 164.968 224.078 156.407 226.885C156.242 226.976 156.109 227.114 156.023 227.281C155.937 227.448 155.904 227.637 155.926 227.823C155.948 228.009 156.026 228.185 156.149 228.327C156.272 228.469 156.434 228.571 156.615 228.62Z" fill="#111111"/><path d="M174.812 204.989C175.451 203.959 173.996 203.113 173.272 204.009C164.928 214.197 160.156 214.438 153.839 217.699C152.802 218.233 153.476 219.594 154.498 219.495C159.824 218.97 170.1 212.61 174.812 204.989Z" fill="#111111"/><path d="M139.614 210C136.194 213.596 132.224 216.625 127.854 218.974C126.811 219.481 127.609 221.085 128.666 220.78C133.407 219.407 137.173 215.677 140.648 212.36C144.05 208.786 148.085 205.873 152.548 203.769C153.724 203.185 152.769 201.634 151.677 201.835C147.442 202.609 142.688 207.06 139.614 210Z" fill="#111111"/><path d="M261.744 142.072C261.663 140.85 259.755 140.769 259.784 142.057C260.526 170.834 261.93 199.44 260.789 228.257C251.144 234.374 241.033 239.724 230.549 244.257C217.755 249.785 206.444 252.876 193.241 256.537C193.521 235.368 194.988 192.315 192.174 163.997C192.161 163.748 192.05 163.513 191.866 163.344C191.681 163.174 191.438 163.084 191.188 163.092C190.938 163.1 190.701 163.206 190.528 163.387C190.355 163.567 190.26 163.809 190.263 164.059C190.576 180.635 193.22 226.639 190.249 256.851C173.905 257.321 156.369 254.012 140.29 251.43C139.234 251.261 138.719 253.03 139.804 253.284C155.718 257.073 171.986 259.179 188.341 259.568C190.147 259.643 191.956 259.477 193.718 259.074C206.352 255.891 218.744 251.816 230.801 246.88C241.493 242.321 251.803 236.914 261.632 230.71C263.053 229.816 262.927 229.702 262.982 228.227C264.086 199.507 263.673 170.748 261.744 142.072Z" fill="#111111"/><path d="M240.401 219.52C242.278 219.237 244.121 218.758 245.899 218.091C246.168 220.461 246.305 222.845 246.309 225.231C246.309 227.762 245.189 226.439 243.779 225.693C243.597 225.616 243.396 225.594 243.202 225.63C243.007 225.666 242.827 225.758 242.685 225.894C242.542 226.031 242.442 226.207 242.398 226.4C242.353 226.592 242.366 226.794 242.435 226.979C242.819 227.756 243.443 228.389 244.214 228.785C244.985 229.18 245.863 229.317 246.718 229.176C248.633 228.732 249.197 227.051 249.327 225.281C249.504 222.445 249.49 219.599 249.285 216.765C251.564 215.76 253.759 214.574 255.849 213.22C256.067 213.08 256.235 212.874 256.329 212.632C256.422 212.39 256.437 212.124 256.369 211.873C255.224 206.899 249.565 205.524 245.33 207.381C243.285 208.29 241.549 209.777 240.337 211.659C239.125 213.542 238.489 215.737 238.508 217.976C238.587 219.251 239.26 219.635 240.401 219.52Z" fill="#111111"/><path d="M79.3604 79.4402C79.296 78.7052 79.3142 77.5432 78.3104 77.5404C74.5766 77.532 72.093 73.9914 72.0216 70.483C71.946 66.7226 75.1016 63.9268 78.4616 66.7254C78.7405 66.9051 79.0782 66.9696 79.4037 66.905C79.7291 66.8405 80.0168 66.6521 80.206 66.3796C84.8335 60.6625 88.1145 53.9769 89.8058 46.8188C102.516 47.4292 121.537 45.3614 130.85 36.064C135.825 31.0982 139.81 21.9492 134.464 15.834C124.264 4.1552 103.618 10.0436 93.8224 19.957C92.9824 7.3976 68.8058 8.71079 66.9424 36.1116C59.3614 25.9518 52.6778 36.0584 53.4366 46.0726C54.607 61.5006 66.0366 78.4896 78.1228 87.9802C79.1364 94.7576 80.6078 103.064 83.2146 109.26C83.3152 109.46 83.4835 109.617 83.6894 109.704C83.8953 109.791 84.1254 109.801 84.3384 109.734C84.5515 109.667 84.7336 109.526 84.8522 109.336C84.9708 109.147 85.0181 108.921 84.9856 108.7C83.2258 100.687 80.78 95.4072 79.3604 79.4402ZM99.47 22.4C106.709 15.4644 120.362 13.9244 126.21 17.0268C126.405 17.1214 126.561 17.2816 126.651 17.4794C126.74 17.6772 126.757 17.9001 126.699 18.1092C126.641 18.3183 126.511 18.5003 126.332 18.6236C126.154 18.7469 125.938 18.8036 125.721 18.7838C121.336 18.4063 116.921 18.5973 112.585 19.3522C108.315 20.3079 104.195 21.842 100.339 23.912C99.3622 24.3908 98.8162 23.0202 99.47 22.4Z" fill="#111111"/><path d="M153.86 121.38C145.919 116.257 133.619 111.226 120.69 108.109C117.354 118.258 91.0434 121.086 77.0238 107.703C46.4058 118.759 1.27961 158.876 7.59781 203.629C12.7484 240.111 72.2246 270.617 118.758 270.617C119.427 252.218 122.291 227.24 127.077 215.935C101.43 213.485 71.8074 200.92 52.4958 184.95C52.3168 184.795 52.2049 184.577 52.1836 184.341C52.1623 184.105 52.2334 183.87 52.3818 183.686C52.5301 183.501 52.7443 183.381 52.9792 183.352C53.214 183.322 53.4513 183.384 53.641 183.526C58.6986 187.224 63.9434 190.659 69.3546 193.817C70.1484 184.88 76.2664 169.364 80.1668 161.785C80.271 161.566 80.4582 161.396 80.6872 161.314C80.9163 161.233 81.1685 161.245 81.3883 161.349C81.6081 161.453 81.7775 161.641 81.8593 161.87C81.9411 162.099 81.9286 162.351 81.8244 162.571C76.104 175.36 75.3844 183.061 71.7444 195.159C79.0071 199.19 86.5968 202.603 94.4328 205.359C91.7994 192.224 91.9128 149.227 96.9528 140.391C98.9898 136.826 127.145 124.691 153.86 121.38Z" fill="#E04747"/><path d="M253.567 95.9896C236.365 87.7926 206.735 96.5174 207.423 127.007C207.875 147.112 224.318 159.33 242.015 158.322C257.925 157.416 271.177 146.105 272.835 130.145C273.401 123.179 271.868 116.203 268.434 110.115C265 104.028 259.822 99.1082 253.567 95.9896ZM256.746 116.308C247.965 123.661 241.917 130.136 236.051 140.108C235.938 140.249 235.793 140.363 235.629 140.44C235.465 140.517 235.286 140.556 235.105 140.553C234.923 140.551 234.745 140.507 234.583 140.425C234.422 140.343 234.281 140.226 234.171 140.081C230.402 135.635 226.225 131.551 221.694 127.884C220.807 127.12 221.598 126.064 222.849 126.382C227.004 127.606 230.823 129.767 234.011 132.699C238.57 125.09 247.654 117.859 255.578 114.04C255.874 113.925 256.201 113.923 256.498 114.036C256.794 114.148 257.039 114.366 257.184 114.648C257.329 114.93 257.365 115.255 257.284 115.562C257.203 115.868 257.011 116.134 256.746 116.308Z" fill="#E04747"/></svg>