<svg viewBox="0 0 280 280" fill="none" xmlns="http://www.w3.org/2000/svg"><path d="M62.5114 76.1194C63.1132 76.4346 63.8015 76.5442 64.4714 76.4316C64.5888 76.3855 64.6935 76.3121 64.7767 76.2173C64.8599 76.1226 64.9192 76.0093 64.9498 75.887C64.9803 75.7646 64.9812 75.6368 64.9523 75.514C64.9234 75.3913 64.8656 75.2773 64.7836 75.1814C64.2236 74.4002 62.608 74.0936 62.1236 74.7908C61.74 75.3438 62.0424 75.8058 62.5114 76.1194Z" fill="#111111"/><path d="M72.1251 73.78C72.2161 72.3352 69.9369 73.5 69.9369 74.48C69.8487 75.9696 72.1251 74.7012 72.1251 73.78Z" fill="#111111"/><path d="M64.2307 71.82C64.3907 71.7695 64.5268 71.6622 64.6132 71.5183C64.6996 71.3744 64.7303 71.2038 64.6997 71.0388C64.5597 70.4886 63.917 70.4788 63.4494 70.5698C62.3973 70.66 61.3674 70.924 60.4017 71.351C60.324 71.3765 60.2588 71.4305 60.2193 71.5021C60.1798 71.5737 60.1689 71.6576 60.1888 71.7369C60.2086 71.8162 60.2578 71.885 60.3264 71.9296C60.395 71.9741 60.4779 71.9909 60.5585 71.9768C61.7752 71.8134 63.0044 71.761 64.2307 71.82Z" fill="#111111"/><path d="M68.999 70.0224C68.621 70.4004 68.6322 70.8274 68.7652 70.9604C69.0774 71.2726 69.4652 70.882 69.7802 70.7252C70.2024 70.4964 70.6478 70.3133 71.1088 70.1792C71.5778 70.1008 71.9684 69.4792 71.5008 69.0844C71.344 68.9276 71.1872 68.9276 70.9534 68.8506C69.7774 68.8506 69.4246 69.5968 68.999 70.0224Z" fill="#111111"/><path d="M49.3024 144.509C52.605 145.41 53.613 146.027 54.3046 145.681C54.3585 145.653 54.4059 145.614 54.4435 145.566C54.4811 145.518 54.5082 145.462 54.523 145.403C54.5378 145.344 54.54 145.283 54.5294 145.223C54.5188 145.163 54.4956 145.106 54.4614 145.055C54.0708 144.431 53.053 144.444 52.4286 144.355C51.4878 144.215 50.5526 144.049 49.5376 143.886C49.0672 143.808 48.8334 144.353 49.3024 144.509Z" fill="#111111"/><path d="M48.9118 148.495C50.5392 149.058 52.2131 149.476 53.914 149.745C54.614 149.745 54.614 148.756 54.0708 148.574C52.4739 148.039 50.8183 147.698 49.14 147.56C48.5996 147.477 48.3644 148.338 48.9118 148.495Z" fill="#111111"/><path d="M48.0522 152.481C49.2058 152.845 53.6018 154.225 53.6018 153.028C53.6015 152.898 53.5647 152.77 53.4957 152.66C53.4267 152.549 53.3282 152.46 53.2112 152.403C51.569 152.012 49.9254 152.022 48.286 151.621C48.2281 151.601 48.1667 151.593 48.1054 151.597C48.0442 151.602 47.9845 151.619 47.9302 151.647C47.8758 151.676 47.8279 151.715 47.7895 151.763C47.7511 151.811 47.7229 151.866 47.7068 151.925C47.6907 151.985 47.687 152.047 47.6959 152.107C47.7048 152.168 47.7261 152.226 47.7585 152.278C47.7909 152.331 47.8337 152.375 47.8843 152.41C47.9348 152.445 47.992 152.469 48.0522 152.481Z" fill="#111111"/><path d="M40.3201 139.819C40.6799 137.859 41.0719 135.752 41.2581 133.799C41.3253 133.099 40.2417 133.018 40.0849 133.643C39.5007 135.619 39.3409 137.697 39.6159 139.74C39.6887 140.132 40.2291 140.287 40.3201 139.819Z" fill="#111111"/><path d="M74.0012 171.473C74.6287 167.86 74.7338 164.175 74.3134 160.531C70.5628 161.469 66.8108 162.491 62.9734 163.267C62.426 163.345 61.88 164.83 61.488 165.299C59.5126 167.672 57.0282 169.569 54.2192 170.849C53.9854 170.849 53.8286 170.692 53.907 170.458C55.0018 168.816 56.721 167.957 58.128 166.706C58.828 166.159 60.2378 163.736 61.019 163.58C57.6849 164.168 54.3191 164.56 50.939 164.752C53.6718 193.138 50.9222 220.137 53.4394 248.539C53.4398 248.67 53.4765 248.797 53.5455 248.908C53.6145 249.018 53.7131 249.107 53.83 249.165C57.2621 250.558 61.0698 250.724 64.61 249.634C66.255 249.098 68.1464 248.618 68.1268 246.663C68.0484 238.769 66.9536 196.486 66.9536 191.643C66.9536 186.148 67.4226 174.822 67.4226 174.682C69.2986 174.37 71.6436 174.213 73.129 172.963C73.5101 172.525 73.8059 172.02 74.0012 171.473ZM55.79 207.819C57.4294 207.418 60.7138 208.834 61.887 210.007C61.9815 210.127 62.0601 210.258 62.1208 210.398C62.8208 211.492 60.8706 210.945 60.6354 210.788C56.504 208.723 56.3444 209.233 55.6332 208.522C55.5777 208.473 55.5364 208.411 55.5135 208.34C55.4906 208.27 55.487 208.196 55.5031 208.124C55.5191 208.052 55.5542 207.986 55.6047 207.932C55.6552 207.878 55.7192 207.839 55.79 207.819Z" fill="#E04747"/><path d="M87.9914 245.804C89.1387 245.733 90.2513 245.382 91.2322 244.783C92.2131 244.184 93.0326 243.354 93.6194 242.365C94.8234 239.845 90.9118 170.527 90.5716 165.066C88.666 163.042 87.2489 160.608 86.429 157.952C82.7442 158.515 79.0917 159.272 75.4866 160.219C75.8136 163.629 75.7346 167.067 75.2514 170.458C75.2586 171.427 74.9268 172.368 74.3134 173.118C77.5642 184.495 80.1934 229.748 80.9578 241.43C81.025 242.446 80.7226 244.009 81.5822 244.868C82.9108 246.039 86.5074 245.962 87.9914 245.804ZM85.26 208.209C86.6078 207.055 88.0454 206.009 89.5594 205.083C89.6685 205.023 89.7942 205 89.9174 205.018C90.0407 205.036 90.1549 205.093 90.2429 205.181C90.331 205.269 90.3881 205.383 90.4057 205.506C90.4233 205.63 90.4004 205.755 90.3406 205.864C89.1156 207.651 85.6044 209.364 85.26 208.678C85.2221 208.606 85.2023 208.526 85.2023 208.444C85.2023 208.362 85.2221 208.282 85.26 208.209Z" fill="#E04747"/><path d="M87.92 157.795C88.5791 159.845 89.4717 161.813 90.58 163.659C90.4232 161.626 90.3448 159.671 90.1894 157.639C89.3984 157.718 88.6956 157.718 87.92 157.795Z" fill="#E04747"/><path d="M42.8932 269.409C42.9716 269.409 42.9716 269.331 42.8932 269.331C42.8148 269.331 42.8148 269.409 42.8932 269.409Z" fill="#111111"/><path d="M66.0296 255.262C66.185 255.339 66.4972 253.933 66.4972 253.777C66.5331 252.85 66.3173 251.931 65.8727 251.117C65.4821 250.334 64.309 250.881 64.4658 251.664C64.6226 252.447 65.0818 253.379 64.6996 254.243C64.4602 254.787 63.6902 255.189 63.2156 255.571C62.5156 256.131 61.8156 256.595 61.1044 257.135C56.8232 260.39 49.3332 266.062 43.6758 267.14C43.3622 267.217 43.1284 267.373 43.1284 266.904C43.3042 265.79 43.8554 264.77 44.6908 264.012C46.8731 261.635 49.1961 259.391 51.6474 257.292C51.8042 257.37 53.3666 258.387 53.914 258.073C53.9861 258.037 54.0464 257.981 54.0881 257.912C54.1297 257.843 54.1509 257.763 54.1492 257.683C54.1492 257.058 52.7492 256.354 52.6638 256.354C53.1328 255.963 53.6802 255.494 54.1492 255.104C54.6182 255.338 56.5712 256.589 57.1186 256.199C57.2363 256.093 57.3156 255.951 57.344 255.795C57.3723 255.639 57.3482 255.478 57.2754 255.338C56.6726 254.868 56.0143 254.474 55.3154 254.166C55.9412 253.618 56.4872 253.149 57.113 252.602C57.1965 252.513 57.2452 252.397 57.2501 252.276C57.255 252.154 57.2157 252.035 57.1396 251.939C57.0634 251.844 56.9554 251.78 56.8355 251.758C56.7157 251.736 56.5919 251.759 56.4872 251.821C55.609 252.326 54.7729 252.901 53.9868 253.54C53.83 253.463 51.0944 252.368 49.8442 251.978C49.4536 251.821 49.2184 252.447 49.532 252.678C50.6254 253.225 51.7202 253.851 52.892 254.475C52.5014 254.789 51.492 255.648 51.408 255.727C51.408 255.727 49.063 254.632 47.9682 254.163C47.2276 253.917 46.9308 254.695 47.4208 255.023C48.4372 255.492 49.3808 256.039 50.3132 256.586C49.2184 257.524 48.1992 258.457 47.1086 259.477C44.8812 261.563 40.474 265.346 41.8712 267.998C42.0838 268.324 42.3992 268.57 42.7674 268.697C43.1356 268.824 43.5355 268.824 43.904 268.698C44.8957 268.514 45.8653 268.226 46.7964 267.838C51.4864 265.88 55.8797 263.275 59.8486 260.1C59.8567 260.179 59.8836 260.254 59.9268 260.319C59.9701 260.385 60.0285 260.439 60.0971 260.477C60.1658 260.516 60.2426 260.537 60.3212 260.539C60.3998 260.542 60.4777 260.525 60.5486 260.491C61.9987 260.147 63.3411 259.449 64.456 258.46C65.0874 257.919 66.4874 256.896 66.5658 255.958C66.5447 255.805 66.4841 255.661 66.3901 255.539C66.2961 255.417 66.1718 255.321 66.0296 255.262Z" fill="#111111"/><path d="M110.111 251.432C108.608 250.568 107.007 249.886 105.343 249.399C103.547 248.773 101.826 248.149 100.023 247.601C100.811 246.904 101.542 246.146 102.211 245.335C102.368 244.944 101.9 244.635 101.585 244.71C100.435 245.409 99.3379 246.193 98.3038 247.055C97.678 246.898 97.1306 246.742 96.5062 246.586C97.3931 245.804 98.2041 244.941 98.9282 244.006C98.9282 243.851 98.7728 243.615 98.616 243.615C97.3063 244.309 96.0969 245.177 95.0208 246.196C94.0174 245.949 92.9994 245.766 91.973 245.648C91.3458 245.585 91.3472 246.429 91.8162 246.663C92.5162 246.898 93.3016 247.132 94.0044 247.363C93.3124 248.201 92.6852 249.09 92.1284 250.023C91.896 250.415 92.5162 250.958 92.8284 250.571C93.5998 249.624 94.4692 248.695 95.3288 247.757C95.8762 247.913 97.048 248.226 97.1264 248.226C96.3606 248.977 95.6552 249.787 95.0166 250.649C94.9602 250.705 94.9154 250.772 94.8848 250.846C94.8543 250.92 94.8386 250.999 94.8386 251.079C94.8386 251.159 94.8543 251.238 94.8848 251.311C94.9154 251.385 94.9602 251.452 95.0166 251.509C95.073 251.565 95.14 251.61 95.2138 251.64C95.2875 251.671 95.3666 251.687 95.4464 251.687C95.5262 251.687 95.6053 251.671 95.679 251.64C95.7527 251.61 95.8198 251.565 95.8762 251.509C96.8142 250.571 97.7522 249.633 98.7686 248.695C99.862 249.007 105.417 250.947 107.054 251.587C108.359 251.935 109.513 252.704 110.335 253.775C110.561 254.171 110.492 254.166 110.102 254.244C109.711 254.323 109.32 254.404 108.928 254.478C102.929 255.623 91.6188 252.596 87.4356 251.899C86.8098 251.742 85.9502 251.742 85.4756 251.273C84.616 250.414 84.9408 248.613 84.7756 247.523C84.7756 247.326 84.6974 247.137 84.5583 246.998C84.4191 246.859 84.2304 246.781 84.0336 246.781C83.8368 246.781 83.6481 246.859 83.5089 246.998C83.3698 247.137 83.2916 247.326 83.2916 247.523C83.111 249.372 83.265 251.805 84.854 252.759C84.854 252.759 84.6202 253.854 85.0892 254.087C87.3636 254.705 89.6932 255.098 92.0444 255.261C92.1117 255.246 92.1754 255.218 92.2317 255.179C92.2881 255.139 92.336 255.089 92.3725 255.03C92.409 254.972 92.4335 254.907 92.4445 254.839C92.4555 254.771 92.4527 254.702 92.4364 254.635C93.3394 254.635 103.001 257.029 108.927 256.035C109.873 256.052 110.801 255.78 111.587 255.254C112.923 254.086 111.199 252.14 110.111 251.432Z" fill="#111111"/><path d="M272.762 37.66C271.837 25.7138 270.003 20.832 264.082 19.0582C243.536 11.3582 162.912 8.7318 133.399 11.9448C128.474 12.481 123.382 13.02 119.095 15.6968C104.794 24.6316 98.1917 52.1094 95.1047 68.6938C94.5657 71.5876 94.1415 74.5654 93.6193 77.448C93.5479 77.84 94.1695 77.9954 94.2451 77.6034C96.3817 66.135 99.3062 54.8274 102.998 43.7612C106.008 35.3332 109.679 26.2878 116.285 20.0004C118.775 17.4786 121.912 15.6928 125.352 14.84C146.399 10.22 207.931 12.4866 237.199 15.778C257.779 18.0936 260.719 19.999 261.663 19.999C261.25 20.2062 257.667 20.4666 252.127 27.111C235.88 46.6032 229.167 69.671 225.631 94.563C220.647 129.619 218.211 181.423 218.211 215.867C216.283 215.317 132.033 215.295 130.046 215.32C121.761 215.428 113.386 215.449 105.035 216.103C104.174 216.17 103.235 216.159 102.375 216.258C102.261 216.258 102.152 216.303 102.071 216.384C101.99 216.464 101.945 216.574 101.945 216.688C101.945 216.802 101.99 216.911 102.071 216.992C102.152 217.072 102.261 217.118 102.375 217.118C110.503 217.157 118.553 216.962 126.682 216.962C168.455 216.962 217.412 218.203 219.537 217.353C219.629 217.354 219.72 217.331 219.801 217.286C219.881 217.241 219.949 217.176 219.996 217.096C220.044 217.017 220.07 216.927 220.071 216.835C220.073 216.742 220.05 216.651 220.006 216.57C219.985 178.94 222.072 141.339 226.258 103.943C229.123 79.3128 233.701 57.043 247.205 36.7248C249.457 33.2597 251.966 29.968 254.709 26.8772C257.236 24.087 260.648 21.1848 264.635 21.483C265.633 21.581 266.576 21.9875 267.332 22.6458C268.088 23.3041 268.621 24.1817 268.856 25.1566C274.541 41.5814 270.116 60.8566 266.276 77.7588C266.197 77.6804 266.12 77.5236 265.964 77.4466C256.228 72.6656 244.166 71.1004 239.155 71.8186C239.057 71.8269 238.966 71.8716 238.899 71.944C238.833 72.0163 238.796 72.111 238.796 72.2092C238.796 72.3074 238.833 72.4021 238.899 72.4744C238.966 72.5468 239.057 72.5915 239.155 72.5998C248.065 73.3824 256.976 75.1016 265.026 79.0874C265.19 79.1537 265.367 79.1811 265.543 79.1675C265.719 79.1539 265.89 79.0997 266.042 79.009C266.042 79.0874 265.964 79.2442 265.964 79.3226C265.949 79.3701 265.944 79.4202 265.949 79.4697C265.955 79.5192 265.971 79.567 265.996 79.6101C266.021 79.6533 266.054 79.6907 266.094 79.7201C266.135 79.7496 266.18 79.7703 266.229 79.7811C266.278 79.7919 266.328 79.7925 266.377 79.7828C266.426 79.7732 266.472 79.7535 266.513 79.725C266.554 79.6965 266.588 79.6598 266.614 79.6173C266.64 79.5748 266.657 79.5274 266.664 79.478C269.657 70.4136 271.701 61.0627 272.762 51.576C273.058 46.942 273.058 42.294 272.762 37.66Z" fill="#111111"/><path d="M210.469 131.691C211.546 130.794 212.859 130.389 212.345 129.189C212.279 129.07 212.19 128.965 212.084 128.881C211.977 128.797 211.855 128.735 211.723 128.698C211.592 128.662 211.455 128.652 211.32 128.67C211.186 128.687 211.056 128.732 210.938 128.8C196.196 138.957 178.835 155.905 168.731 168.896C164.712 164.424 160.232 160.388 155.366 156.856C154.584 156.23 153.49 157.402 153.966 158.256C159.876 167.029 165.178 176.197 169.833 185.696C169.92 185.846 170.046 185.971 170.197 186.057C170.347 186.144 170.518 186.189 170.692 186.189C170.866 186.189 171.037 186.144 171.188 186.057C171.339 185.971 171.464 185.846 171.552 185.696C175.603 178.023 180.792 170.932 185.699 163.89C200.144 143.177 203.379 140 210.469 131.691Z" fill="#E04747"/><path d="M45.2382 162.876C66.1458 162.876 77.5922 155.677 90.8782 155.529C91.9982 155.368 94.6456 155.336 95.9588 155.217C96.2852 155.194 96.6128 155.238 96.9218 155.345C97.2308 155.453 97.5147 155.622 97.7564 155.842C97.935 156.102 98.0171 156.416 97.9884 156.73C97.9598 157.044 97.8223 157.338 97.5996 157.562C96.4059 158.984 94.8344 160.041 93.0664 160.609C92.7542 160.766 92.7542 161.309 93.1448 161.235C94.1858 161.115 95.1942 160.796 96.1156 160.297C97.4484 159.631 99.0556 158.647 99.3188 157.093C99.3972 157.093 99.4756 157.014 99.554 156.859C99.6421 156.468 99.6148 156.061 99.4756 155.686C99.071 153.476 94.8682 121.873 94.0044 115.825C92.7039 109.456 90.9542 103.187 88.7684 97.0648C88.7449 96.9839 88.7527 96.897 88.7904 96.8216C88.8281 96.7462 88.8928 96.6878 88.9717 96.6581C89.0506 96.6284 89.1378 96.6295 89.2159 96.6613C89.294 96.6931 89.3572 96.7532 89.3928 96.8296C91.879 102.429 93.869 108.235 95.34 114.183C106.658 106.329 128.499 90.7466 139.265 82.6C139.499 82.3662 139.734 82.131 139.577 81.7404C139.343 80.9592 138.327 78.9264 138.177 78.5358C139.037 78.0668 139.819 77.364 140.601 76.895C142.981 75.705 143.462 76.755 144.822 77.0518C146.152 77.4025 147.551 77.4025 148.882 77.0518C150.297 76.8242 151.636 76.2611 152.789 75.4096C152.843 75.3492 152.878 75.2745 152.891 75.1945C152.903 75.1144 152.893 75.0325 152.86 74.9585C152.827 74.8845 152.773 74.8217 152.705 74.7775C152.637 74.7333 152.558 74.7098 152.477 74.7096C151.783 74.7823 151.1 74.9398 150.444 75.1786C144.19 77.3346 143.952 73.5868 140.127 75.8786C139.318 76.3855 138.536 76.9337 137.782 77.5208C137.861 77.4424 135.985 73.2998 136.142 73.2214C137.243 72.6233 138.312 71.9692 139.346 71.2614C140.021 70.782 140.559 70.1355 140.909 69.3854C141.196 68.5171 141.168 67.5753 140.83 66.7254C140.293 64.6128 142.138 63.189 143.41 61.8016C146.25 58.7411 148.314 55.0445 149.43 51.0216C149.95 51.6922 150.322 52.4644 150.524 53.2882C150.763 54.3165 150.763 55.3861 150.524 56.4144C149.97 58.2316 148.776 59.7865 147.164 60.7908C147.085 60.8686 147.034 60.9697 147.018 61.0791C147.002 61.1884 147.022 61.3 147.075 61.397C147.128 61.494 147.211 61.5712 147.312 61.6169C147.412 61.6626 147.525 61.6743 147.633 61.6504C148.793 61.2643 149.786 60.4919 150.445 59.4622C151.212 58.4035 151.699 57.1689 151.863 55.8722C152.027 54.5755 151.862 53.2584 151.383 52.0422C150.997 51.0258 150.368 49.5418 149.038 49.6202C148.908 49.6241 148.782 49.6728 148.683 49.7582C148.583 49.8435 148.516 49.9604 148.492 50.0892C147.53 53.99 145.655 57.6064 143.021 60.641C141.852 61.9724 140.239 63.2058 139.738 65.0174C139.547 65.8746 139.601 66.7682 139.894 67.5962C140.018 68.025 140.019 68.4803 139.895 68.9093C139.771 69.3383 139.528 69.7233 139.194 70.0196C138.122 70.9054 136.971 71.6904 135.755 72.3646C135.363 71.1144 135.005 69.8558 134.66 68.5342C134.623 68.4102 134.553 68.298 134.459 68.2087C134.365 68.1194 134.249 68.056 134.124 68.0246C133.998 67.9931 133.866 67.9948 133.741 68.0294C133.616 68.064 133.502 68.1304 133.41 68.222C132.784 68.7694 123.718 72.912 121.608 73.927C103.228 82.7764 87.4482 90.804 69.3966 93.6236C68.6154 93.702 68.6966 95.0236 69.3966 95.1874C69.5534 95.1874 69.6318 95.2658 69.7872 95.2658C69.7872 95.3428 69.7088 95.4212 69.7088 95.578C69.7088 97.874 69.7704 99.204 67.599 100.898C66.7254 101.431 65.7537 101.784 64.7415 101.934C63.7292 102.085 62.697 102.032 61.7058 101.777C60.7147 101.522 59.7848 101.07 58.9711 100.45C58.1575 99.8287 57.4766 99.051 56.9688 98.1624C56.5302 97.4372 56.2133 96.6451 56.0308 95.8174C57.3209 95.9453 58.6235 95.8125 59.8612 95.4268C60.1027 95.1525 60.2886 94.834 60.4086 94.4888C60.0796 90.7088 59.2494 85.4756 59.08 84.798C59.3922 84.2506 58.6908 83.4722 57.9852 83.7816C56.1904 84.5698 53.3918 84.1708 53.1398 81.7488C52.92 79.6376 55.5632 79.17 57.1998 79.17C57.3135 79.1702 57.4257 79.1437 57.5274 79.0928C57.6291 79.0419 57.7175 78.968 57.7855 78.8768C57.8535 78.7857 57.8992 78.6799 57.9191 78.568C57.939 78.456 57.9324 78.341 57.8998 78.232C57.1075 75.1985 56.8957 72.0426 57.2754 68.9304C57.5848 67.3904 57.7948 65.7104 59.3852 65.8826C60.8463 66.0433 62.2718 66.4395 63.6062 67.0558C63.763 67.1328 63.84 67.0558 63.9184 66.9774C64.8761 66.2802 65.7667 65.4951 66.5784 64.6324C66.8192 64.4028 67.2784 63.6944 67.7516 63.6944H67.9C70.0559 65.2641 71.9773 67.1327 73.6064 69.244C73.9186 71.3538 74.1664 73.4636 74.3876 75.5748C74.8491 77.9515 74.66 80.4087 73.8402 82.6868C73.1008 84.6329 71.6495 86.2253 69.7802 87.1416C67.7386 87.9742 65.4682 88.0575 63.371 87.3768C62.7466 87.22 62.3574 88.1524 62.902 88.3932C63.6911 88.7644 64.5367 89.001 65.4038 89.0932C65.4038 90.426 65.3128 94.5532 65.7944 95.0334C65.8686 95.097 65.9556 95.1437 66.0496 95.1705C66.1435 95.1973 66.2421 95.2035 66.3387 95.1886C66.4352 95.1737 66.5274 95.1381 66.6089 95.0842C66.6904 95.0304 66.7593 94.9596 66.8108 94.8766C66.976 94.5374 67.0304 94.1549 66.9662 93.7832C66.9662 93.5592 66.654 89.2472 66.654 89.0932C67.3206 89.1046 67.984 88.9989 68.614 88.781C70.3103 88.4566 71.8502 87.5763 72.9904 86.2792C75.3018 83.4904 76.2846 80.7618 75.6504 75.8842C76.0704 75.8842 75.6686 75.9836 78.4644 74.7908C78.8522 74.6256 79.4808 74.4772 79.5592 73.9298C79.716 73.3838 79.4024 72.9932 79.1686 72.5298C78.778 71.7472 78.309 70.966 77.9954 70.1848C77.917 70.028 77.917 69.9496 77.84 69.7942C77.917 69.7158 78.0738 69.6374 78.1522 69.559C78.4164 69.1084 78.6503 68.6407 78.8522 68.159C79.4457 67.233 79.8448 66.1961 80.0254 65.1112C80.0649 64.6425 79.9585 64.173 79.7206 63.7672C79.4827 63.3614 79.1251 63.0391 78.6968 62.8446C75.5109 60.639 72.0397 58.8771 68.3788 57.6072C64.848 56.476 63.224 56.0014 62.048 56.6692C60.2966 57.666 60.2994 59.7618 59.5476 60.8902C58.8936 60.2194 58.0981 59.7029 57.2192 59.3784C56.3403 59.0539 55.4001 58.9294 54.467 59.0142C52.2004 59.325 51.1938 61.754 50.3244 63.5474C48.3143 68.0462 46.6677 72.6988 45.4006 77.4606C44.9316 79.023 46.2602 79.4206 47.432 79.8056C48.8052 80.3292 50.2163 80.7472 51.653 81.0558V81.9938C52.073 84.5012 54.6994 86.2246 57.9838 85.1984C57.9838 86.5494 58.8112 94.1976 58.8238 94.3446C58.7706 94.3614 55.8712 94.9676 55.8712 94.9676C55.8268 94.8011 55.7483 94.6456 55.6405 94.5112C55.5328 94.3767 55.3982 94.2661 55.2454 94.1864C54.7276 94.1079 54.2009 94.1079 53.683 94.1864C49.1498 93.7174 44.5438 94.5378 40.005 95.2028C35.5512 95.7148 31.2734 97.2386 27.4988 99.6576C-1.47416 116.817 2.38004 147.227 26.0106 154.98C28.7844 155.898 31.6863 156.371 34.608 156.38C36.288 156.38 36.512 156.542 37.1098 155.597C37.5883 154.808 37.9811 153.97 38.2816 153.097C42.9842 154.664 42.4956 154.419 42.6594 154.582C41.58 160.838 40.8184 161.767 41.4092 162.554C42.6678 162.816 43.9536 162.924 45.2382 162.876ZM71.5008 61.2682C73.0716 62.1082 74.5598 63.0476 76.034 64.0038C76.5359 64.2583 76.9657 64.6347 77.2842 65.0986C77.4396 65.4892 77.2842 65.9582 76.8152 65.9582C75.7204 65.8798 74.4044 64.533 73.5322 63.9254C72.114 62.9091 70.6253 61.9949 69.0774 61.1898C68.1394 60.7208 67.0446 60.1748 66.1066 60.8776C65.7944 61.0344 65.4822 60.6438 65.716 60.4086C67.4352 58.9232 69.867 60.3918 71.5008 61.2682ZM55.7116 68.6154C55.125 69.202 54.8128 71.1172 54.3116 71.1172C54.2187 71.1056 54.134 71.0581 54.0756 70.9848C54.0173 70.9116 53.9899 70.8184 53.9994 70.7252C54.0289 69.6977 54.4478 68.7198 55.1712 67.9896C55.243 67.9452 55.3266 67.9234 55.4109 67.9272C55.4953 67.931 55.5765 67.9601 55.6441 68.0107C55.7116 68.0613 55.7624 68.1311 55.7897 68.211C55.8169 68.2909 55.8195 68.3772 55.797 68.4586C55.7116 68.46 55.7116 68.537 55.7116 68.6154ZM54.1492 65.3324C55.1712 65.674 52.969 67.9392 52.2732 69.6318C52.1164 69.944 51.5732 69.7102 51.6474 69.3966C51.9359 67.9725 52.5513 66.6349 53.445 65.4892C53.5293 65.3899 53.6437 65.3209 53.7708 65.2926C53.8979 65.2643 54.0308 65.2783 54.1492 65.3324ZM52.2732 62.5184C52.3772 62.4321 52.5071 62.3833 52.6422 62.3798C52.7772 62.3763 52.9095 62.4183 53.0178 62.4991C53.1261 62.5799 53.204 62.6948 53.2391 62.8253C53.2742 62.9557 53.2644 63.0942 53.2112 63.2184C52.8941 63.7677 52.4989 64.268 52.038 64.7038C50.7952 66.4276 49.942 68.4009 49.5376 70.4872C49.5213 70.5435 49.4848 70.5919 49.4351 70.6231C49.3855 70.6543 49.3261 70.6662 49.2683 70.6565C49.2105 70.6468 49.1582 70.6163 49.1214 70.5706C49.0846 70.5249 49.0658 70.4674 49.0686 70.4088C49.212 68.9873 49.5537 67.5929 50.0836 66.2662C50.8522 64.9278 51.051 63.5376 52.2732 62.5184ZM38.5952 139.819C38.5595 139.667 38.482 139.528 38.3714 139.417C38.2609 139.307 38.1217 139.229 37.9694 139.194C34.6094 138.344 30.779 136.927 28.903 133.801C25.165 127.571 33.663 120.984 40.5482 120.123C40.5482 120.201 40.5482 120.201 40.6266 120.28V120.358C42.0125 124.109 42.9066 128.023 43.2866 132.003C43.5122 134.498 43.5384 137.008 43.365 139.507C43.3801 139.73 43.4755 139.94 43.6336 140.098C43.7916 140.256 44.0016 140.352 44.2246 140.367C46.4894 140.514 48.7375 140.853 50.9446 141.382C52.6286 141.612 54.2203 142.289 55.5548 143.342C55.6805 143.435 55.7866 143.552 55.8671 143.686C55.9475 143.82 56.0008 143.968 56.0238 144.123C56.1806 144.749 55.7004 145.212 55.4778 145.687C54.8198 147.08 55.3994 148.658 55.3994 150.063C55.3994 151.549 55.09 153.898 53.8356 154.91C52.6666 155.852 50.9446 155.61 49.616 155.457C48.755 155.301 38.5168 152.722 38.5168 152.643C39.7457 148.461 39.7729 144.017 38.5952 139.819ZM67.2798 139.194C71.7822 141.194 74.34 141.49 75.9598 142.398C76.0124 142.426 76.0533 142.471 76.0754 142.527C76.0975 142.582 76.0993 142.643 76.0804 142.699C76.0616 142.756 76.0234 142.803 75.9726 142.834C75.9218 142.865 75.8617 142.877 75.803 142.867C74.2596 142.748 72.7503 142.352 71.3482 141.695C69.8684 141.135 68.3774 140.522 66.8934 139.819C66.5 139.58 66.8892 138.96 67.2798 139.194ZM82.5202 139.741C81.9668 139.675 81.4185 139.57 80.8794 139.429C79.3395 139.027 77.8256 138.531 76.3462 137.943C70.3532 135.642 64.781 132.367 59.8542 128.251C59.5462 128.01 59.934 127.624 60.2448 127.861C71.9516 136.742 81.0964 138.188 82.677 139.201C82.9892 139.272 82.9108 139.741 82.5202 139.741Z" fill="#111111"/><path d="M143.563 191.405C149.346 197.716 157.269 201.651 165.792 202.445C174.314 203.24 182.828 200.837 189.678 195.703C200.525 187.419 205.961 173.489 199.682 162.485C198.681 160.731 197.065 161.451 198.041 163.58C202.615 173.559 198.82 184.44 191.241 191.639C179.115 203.15 160.32 204.2 147.55 192.889C133.008 180.009 134.25 156.372 150.52 142.867C159.029 135.804 169.236 133.216 178.97 138.177C176.908 135.862 174.014 134.458 170.919 134.27C163.892 133.43 156.779 136.076 151.067 140.21C134.578 152.146 129.955 176.211 143.563 191.405Z" fill="#E04747"/><path d="M212.736 61.894C207.029 58.7678 200.54 62.0816 194.446 61.7372C188.112 61.3802 183.193 56.6342 176.938 55.9538C175.476 55.7093 173.977 55.8004 172.555 56.2202C171.133 56.64 169.826 57.3776 168.731 58.3772C168.498 58.6138 168.809 58.9232 169.121 58.7678C170.208 57.9349 171.464 57.3494 172.8 57.0522C174.137 56.755 175.522 56.7533 176.859 57.0472C179.682 57.6494 182.397 58.6776 184.911 60.0964C192.471 63.8764 194.134 63.756 202.574 62.5968C205.86 62.146 209.294 61.7372 212.422 62.9874C212.891 63.0658 213.282 62.1278 212.736 61.894Z" fill="#111111"/><path d="M139.422 98.7854C145.321 95.9061 152.051 95.2116 158.414 96.8254C162.841 97.9454 166.975 100.78 171.311 101.515C182.44 103.403 193.514 94.528 204.684 101.594C204.82 101.667 204.978 101.69 205.129 101.658C205.28 101.626 205.414 101.541 205.509 101.419C205.603 101.297 205.65 101.145 205.643 100.991C205.635 100.836 205.573 100.69 205.467 100.577C202.427 97.839 197.886 97.2286 193.977 97.3728C186.721 97.6402 179.837 100.764 173.109 100.342C167.698 100.005 164.916 97.4904 159.586 95.9658C152.641 94.1327 145.258 95.0279 138.953 98.4676C138.718 98.4732 139.03 98.9422 139.422 98.7854Z" fill="#111111"/><path d="M107.062 116.449C106.75 116.369 106.595 116.84 106.828 116.918C119.022 122.192 135.146 112.298 145.048 114.183C148.256 114.794 151.068 116.528 154.036 117.856C165.41 122.944 170.976 121.002 183.113 118.168C187.874 116.836 192.882 116.649 197.729 117.622C199.298 118.063 200.817 118.666 202.262 119.42C202.733 119.65 203.357 119.027 202.887 118.637C198.636 115.121 191.772 115.277 186.318 116.137C175.662 117.825 168.984 122.228 157.007 117.622C153.959 116.449 151.148 114.877 148.096 113.714C136.013 109.106 123.841 120.736 107.062 116.449Z" fill="#111111"/><path d="M202.731 80.5C204.325 80.9546 205.89 81.5024 207.42 82.1408C208.202 82.376 208.524 81.3484 207.967 80.8906C206.738 80.0606 205.359 79.4768 203.907 79.1714C188.647 74.8104 174.075 84.2114 166.313 77.7644C165.928 77.4452 165.375 77.9996 165.766 78.3118C173.46 86.0006 188.72 76.6472 202.731 80.5Z" fill="#111111"/><path d="M221.255 42.3542C213.217 38.8542 204.035 43.2852 195.462 40.9542C190.413 39.5766 186.572 36.204 181.471 34.7018C170.822 31.5644 161.092 39.4506 149.895 38.297C141.474 37.4276 136.76 32.137 127.854 33.607C124.202 34.2118 120.807 35.8685 118.083 38.374C117.771 38.6092 118.24 38.9998 118.474 38.766C121.096 36.6669 124.221 35.29 127.54 34.7718C138.88 32.9252 143.475 42.5138 158.96 39.0712C166.533 37.3912 172.99 34.3532 179.438 35.5544C185.738 36.7276 190.81 41.9244 198.04 42.7448C205.621 43.6058 213.64 40.6056 220.86 43.7612C221.729 44.1392 222.12 42.7308 221.255 42.3542Z" fill="#111111"/><path d="M114.8 52.2802C117.951 54.6209 121.823 55.7826 125.742 55.5632C129.059 55.4344 132.356 54.4306 134.886 54.6252C135.963 54.7094 137.034 54.8661 138.09 55.0942C138.716 55.1782 139.185 54.3116 138.559 53.9994C135.591 52.3026 130.542 53.8594 126.679 54.39C124.723 54.6474 122.735 54.5416 120.817 54.0778C118.885 53.5028 117.003 52.771 115.191 51.8896C114.878 51.576 114.488 51.968 114.8 52.2802Z" fill="#111111"/><path d="M111.674 71.351C113.769 71.043 115.887 70.9123 118.005 70.9604C118.707 71.0911 119.429 71.0643 120.12 70.882C120.181 70.8388 120.231 70.7832 120.268 70.7189C120.306 70.6546 120.329 70.5831 120.336 70.5091C120.344 70.4352 120.335 70.3605 120.311 70.2901C120.288 70.2197 120.249 70.1551 120.198 70.1008C119.547 69.7703 118.814 69.6346 118.087 69.7102C115.843 69.6728 113.605 69.9624 111.444 70.5698C111.389 70.5808 111.336 70.6033 111.289 70.6359C111.243 70.6685 111.203 70.7104 111.174 70.7589C111.145 70.8075 111.126 70.8617 111.118 70.918C111.111 70.9744 111.115 71.0316 111.131 71.0861C111.147 71.1406 111.175 71.1912 111.211 71.2346C111.248 71.278 111.293 71.3133 111.344 71.3382C111.395 71.3631 111.451 71.3771 111.508 71.3793C111.564 71.3815 111.621 71.3719 111.674 71.351Z" fill="#111111"/><path d="M67.8271 79.24C67.9265 80.2326 70.1819 79.135 70.4871 78.3804C70.6425 77.9898 70.5697 77.2968 69.9397 77.5208C69.5368 77.7215 69.1881 78.0163 68.9233 78.3804C68.6867 78.6198 67.8271 78.855 67.8271 79.24Z" fill="#111111"/><path d="M154.036 61.74C154.514 61.2862 154.865 60.7166 155.057 60.0866C155.249 59.4565 155.275 58.7876 155.131 58.1448C155.118 58.0822 155.083 58.0262 155.033 57.986C154.984 57.9458 154.921 57.9239 154.857 57.9239C154.793 57.9239 154.731 57.9458 154.682 57.986C154.632 58.0262 154.597 58.0822 154.584 58.1448C154.179 59.6138 153.227 60.8722 151.924 61.6616C151.453 61.971 148.172 63.3038 149.031 64.1634C149.87 65.2736 153.09 62.8376 154.036 61.74Z" fill="#111111"/><path d="M148.8 67.522C154.29 67.9784 157.272 65.4346 157.48 64.0038C157.497 63.9235 157.49 63.8402 157.461 63.7637C157.432 63.6871 157.382 63.6203 157.316 63.5712C157.25 63.5221 157.172 63.4926 157.091 63.4861C157.009 63.4797 156.927 63.4966 156.855 63.5348C156.155 63.9254 155.686 64.5554 154.979 65.0202C153.119 66.1538 150.982 66.749 148.805 66.7394C148.331 66.7478 148.331 67.4436 148.8 67.522Z" fill="#111111"/><path d="M149.503 70.1008C150.949 71.064 154.582 70.336 156.223 69.7886C156.628 69.7023 157.01 69.5334 157.346 69.2925C157.682 69.0516 157.965 68.7438 158.176 68.3886C158.216 68.3201 158.233 68.241 158.226 68.1623C158.218 68.0836 158.187 68.009 158.135 67.949C158.084 67.8889 158.015 67.8463 157.938 67.827C157.862 67.8077 157.781 67.8127 157.707 67.8412C156.125 68.6032 154.44 69.1296 152.705 69.4036C151.808 69.6389 150.866 69.6389 149.969 69.4036C149.426 69.16 149.034 69.7886 149.503 70.1008Z" fill="#111111"/><path d="M67.9 84.1694C68.061 83.7802 67.7446 83.3098 67.2756 83.5436C67.116 83.6402 65.9036 84.5894 64.8522 84.1694C64.3664 83.9826 63.9644 83.6266 63.7202 83.1669C63.4761 82.7072 63.4063 82.1747 63.5236 81.6676C65.4016 82.451 67.4405 82.7708 69.468 82.6C69.6248 82.6 69.6248 82.2878 69.468 82.2878C68.2962 81.9756 67.123 81.7404 66.0296 81.3498C65.4822 81.193 64.8564 80.9592 64.309 80.8024C62.433 79.9988 62.1152 82.1212 62.902 83.7732C63.8848 85.8396 67.2518 85.7458 67.9 84.1694Z" fill="#111111"/><path d="M151.62 73.4608C154.158 74.4128 157.31 73.1024 157.794 72.1322C157.814 72.0807 157.821 72.0252 157.815 71.9702C157.809 71.9153 157.79 71.8626 157.76 71.8167C157.729 71.7707 157.688 71.7327 157.639 71.706C157.591 71.6793 157.537 71.6646 157.482 71.6632C156.692 71.7948 154.78 73.4706 151.775 72.8364C151.694 72.8197 151.609 72.8351 151.539 72.8794C151.469 72.9237 151.418 72.9934 151.398 73.0741C151.378 73.1547 151.39 73.24 151.431 73.312C151.473 73.3841 151.54 73.4374 151.62 73.4608Z" fill="#111111"/></svg>