<svg viewBox="0 0 280 280" fill="none" xmlns="http://www.w3.org/2000/svg"><path d="M200.108 78.617C212.066 76.657 223.3 75.537 232.786 69.6024H232.947L233.591 63.3248C233.682 62.8374 233.657 62.3354 233.517 61.8598C233.377 61.3841 233.127 60.9483 232.786 60.5878C232.38 60.2002 231.881 59.9231 231.337 59.7828L184.331 58.1728C183.667 58.2632 183.058 58.5894 182.614 59.0919C182.171 59.5944 181.923 60.2397 181.916 60.9098L179.34 85.862C181.028 85.2992 186.234 80.885 200.108 78.617Z" fill="#E04747"/><path d="M179.179 110.009L226.831 111.297C227.495 111.207 228.104 110.88 228.547 110.378C228.99 109.875 229.238 109.23 229.244 108.56L231.82 81.032L231.498 81.193C212.299 89.299 194.131 85.561 179.501 97.1306C178.947 97.5367 178.458 98.0253 178.052 98.5796L177.247 106.306C177.169 106.818 177.2 107.341 177.339 107.84C177.478 108.338 177.721 108.802 178.052 109.2C178.052 109.687 178.696 110.009 179.179 110.009Z" fill="#E04747"/><path d="M182.238 34.9916C181.492 34.976 180.771 35.2543 180.228 35.7664C179.686 36.2785 179.367 36.9833 179.34 37.7286C179.281 38.0994 179.297 38.4784 179.387 38.8429C179.477 39.2074 179.64 39.5501 179.865 39.8505C180.09 40.151 180.374 40.403 180.698 40.5916C181.023 40.7803 181.382 40.9017 181.755 40.9486C182.5 40.9631 183.222 40.6844 183.764 40.1725C184.306 39.6607 184.625 38.9565 184.653 38.2116C184.744 37.4669 184.544 36.7158 184.094 36.1156C183.643 35.5154 182.978 35.1126 182.238 34.9916Z" fill="#111111"/><path d="M146.983 134.156V114.356H33.3298V134.156H76.7942C77.2945 133.484 77.8305 132.839 78.4 132.224C82.7764 127.683 88.3554 129.242 89.8296 134.156H146.983ZM121.223 120.634C121.254 120.464 121.344 120.311 121.476 120.2C121.608 120.09 121.775 120.029 121.948 120.029C122.12 120.029 122.287 120.09 122.42 120.2C122.552 120.311 122.641 120.464 122.672 120.634C123.071 122.41 123.39 127.344 123.477 128.038C123.45 128.238 123.378 128.428 123.267 128.596C123.155 128.763 123.007 128.903 122.833 129.004C122.529 129.136 122.198 129.191 121.867 129.165C121.632 129.063 121.424 128.91 121.256 128.716C121.089 128.522 120.968 128.293 120.901 128.045C121.145 126.357 120.579 122.896 121.226 120.634H121.223ZM129.755 119.829C129.932 119.86 130.099 119.935 130.24 120.047C130.381 120.16 130.491 120.306 130.56 120.473C130.879 121.751 130.56 123.208 130.882 124.498C130.882 125.142 131.043 125.786 131.043 126.43C131.043 127.235 131.365 128.199 130.721 128.682C130.561 128.859 130.343 128.972 130.107 129.001C129.87 129.031 129.631 128.975 129.433 128.843C128.628 128.36 128.628 127.235 128.628 126.43C128.628 125.786 128.467 125.142 128.467 124.498C128.47 121.74 128.218 119.829 129.758 119.829H129.755ZM136.195 120.795C136.226 120.614 136.316 120.449 136.45 120.324C136.585 120.199 136.756 120.122 136.939 120.103C137.121 120.085 137.305 120.127 137.461 120.223C137.617 120.319 137.738 120.463 137.805 120.634C138.487 122.99 138.864 125.425 138.925 127.877C138.903 128.211 138.76 128.526 138.523 128.763C138.287 129 137.972 129.143 137.638 129.165C135.958 129.165 136.367 126.713 136.028 124.337C136.055 123.742 136 123.146 135.867 122.566C136.037 122.08 136.037 121.278 136.198 120.795H136.195Z" fill="#E04747"/><path d="M140.865 142.527C129.105 142.769 99.3356 143.087 96.1128 143.171C95.9493 143.182 95.7961 143.254 95.6841 143.374C95.5722 143.494 95.5099 143.651 95.5099 143.815C95.5099 143.979 95.5722 144.137 95.6841 144.256C95.7961 144.376 95.9493 144.448 96.1128 144.459C107.542 145.103 137.486 145.103 140.865 145.103C141.192 145.081 141.499 144.936 141.723 144.697C141.946 144.458 142.071 144.143 142.071 143.815C142.071 143.487 141.946 143.172 141.723 142.933C141.499 142.694 141.192 142.549 140.865 142.527Z" fill="#111111"/><path d="M141.67 151.704C135.874 151.784 98.2058 151.865 96.5902 151.865C96.4604 151.86 96.3309 151.881 96.2094 151.928C96.088 151.974 95.9771 152.044 95.8835 152.134C95.7899 152.224 95.7154 152.333 95.6646 152.452C95.6137 152.572 95.5875 152.7 95.5875 152.83C95.5875 152.96 95.6137 153.089 95.6646 153.208C95.7154 153.328 95.7899 153.436 95.8835 153.526C95.9771 153.616 96.088 153.687 96.2094 153.733C96.3309 153.779 96.4604 153.801 96.5902 153.796C99.4854 154.139 138.45 153.635 141.67 153.957C143.119 154.28 143.28 151.682 141.67 151.704Z" fill="#111111"/><path d="M141.831 160.075C130.08 160.154 98.3668 160.397 96.7512 160.719C96.5232 160.758 96.3164 160.876 96.1672 161.053C96.0181 161.229 95.9363 161.453 95.9363 161.685C95.9363 161.916 96.0181 162.14 96.1672 162.317C96.3164 162.493 96.5232 162.612 96.7512 162.651C99.6492 162.812 138.611 162.329 141.831 162.329C143.119 162.168 143.119 160.066 141.831 160.075Z" fill="#111111"/><path d="M41.3785 105.018C40.2585 105.018 40.2585 106.628 41.3785 106.789C43.3105 106.95 140.543 106.467 140.865 106.467C142.314 106.467 142.314 104.213 140.865 104.367C136.198 104.374 41.7005 105.018 41.3785 105.018Z" fill="#111111"/><path d="M84.6832 202.58C127.182 203.063 180.624 203.867 188.517 204.028C189.804 204.054 191.092 204.189 192.219 204.189C202.391 204.788 209.719 205.082 218.298 199.36C227.958 192.92 253.55 172.152 257.9 163.622C261.759 156.054 267.032 110.331 270.617 80.0716C271.095 76.0466 271.564 72.3422 271.905 69.2916C274.792 43.5148 272.066 36.2908 257.417 33.7148C255.646 33.2318 253.725 32.858 251.461 32.4268C243.761 30.9624 167.751 29.3678 132.334 29.2068C101.171 29.0668 99.2012 37.7468 97.5618 53.193C97.1012 57.5232 97.713 53.41 91.2828 93.5998H64.2376C63.8533 93.5998 63.4848 93.7525 63.213 94.0242C62.9413 94.296 62.7886 94.6645 62.7886 95.0488C62.7886 95.4331 62.9413 95.8017 63.213 96.0734C63.4848 96.3451 63.8533 96.4978 64.2376 96.4978H137.325C140.394 96.5122 143.334 97.7379 145.505 99.9085C147.675 102.079 148.901 105.019 148.915 108.088V161.052C148.9 164.121 147.675 167.061 145.504 169.231C143.334 171.402 140.394 172.628 137.325 172.642H89.9948C90.9608 172.642 90.9608 148.173 90.9608 145.919C90.9608 140.767 92.1214 132.654 86.6208 129.819C83.0998 128.008 79.8854 130.003 77.6048 132.717C76.65 133.854 72.2932 142.215 71.4882 142.215C67.7852 142.537 42.833 142.698 40.901 142.698C40.7376 142.709 40.5843 142.781 40.4724 142.901C40.3604 143.02 40.2981 143.178 40.2981 143.342C40.2981 143.506 40.3604 143.663 40.4724 143.783C40.5843 143.902 40.7376 143.975 40.901 143.986C49.112 144.791 68.7512 144.63 70.0392 144.63C68.9192 146.884 67.7852 148.977 66.6582 151.231C63.9212 151.392 45.892 151.07 41.062 151.553C40.8344 151.56 40.6157 151.643 40.4407 151.788C40.2656 151.934 40.1443 152.134 40.096 152.356C40.068 152.588 40.1156 152.822 40.2317 153.024C40.3477 153.225 40.5261 153.384 40.74 153.476C42.21 153.845 59.8542 153.476 65.5312 153.476C64.5652 155.576 63.5992 157.501 62.6332 159.594C59.2536 159.594 44.611 159.464 40.901 160.238C40.0974 160.406 39.935 161.848 40.901 162.009C42.833 162.331 58.4486 161.848 61.5076 161.848C60.8636 161.848 56.5348 170.876 55.7116 172.151C54.7666 173.614 46.697 172.634 44.9316 172.634C41.862 172.62 38.9223 171.394 36.7517 169.223C34.5811 167.053 33.3554 164.113 33.341 161.043V108.08C33.355 105.01 34.5807 102.07 36.7513 99.8997C38.9219 97.729 41.8619 96.5034 44.9316 96.4894H49.91C50.2943 96.4894 50.6629 96.3368 50.9346 96.065C51.2064 95.7933 51.359 95.4247 51.359 95.0404C51.359 94.6561 51.2064 94.2876 50.9346 94.0158C50.6629 93.7441 50.2943 93.5914 49.91 93.5914H44.9204C41.0812 93.6025 37.4024 95.1325 34.6877 97.8473C31.9729 100.562 30.4429 104.241 30.4318 108.08V124.015C30.4318 124.82 28.3388 126.911 27.8558 127.555C26.8898 128.843 26.0848 130.292 25.1188 131.58C20.153 139.709 14.189 148.849 9.50462 161.363C6.00462 170.715 6.96502 181.482 7.89462 191.304C9.76096 210.879 12.7167 230.335 16.7482 249.581C17.2522 251.992 19.4852 250.386 19.1632 248.615C15.1284 226.421 11.5234 203.899 9.98762 179.875C9.03842 165.046 15.5736 152.233 23.0272 139.469C25.1006 135.916 27.3672 130.292 30.4318 127.555C30.7538 138.664 30.4318 149.933 30.4318 161.202C30.4328 164.375 31.4716 167.461 33.3899 169.988C35.3081 172.516 38.0005 174.347 41.0564 175.202C43.4364 175.841 44.7076 175.685 53.291 175.685C53.452 176.812 54.411 176.812 55.223 176.007C67.8636 160.205 75.831 130.831 84.5222 131.736C90.4806 132.356 88.5458 145.58 88.5458 149.444C88.5584 161.41 87.6438 173.358 85.8102 185.182C83.1768 201.942 77.5628 223.402 60.214 230.74C59.1137 231.236 57.9847 231.666 56.833 232.028C55.384 232.35 56.035 234.634 57.477 234.282C62.203 233.184 66.5766 230.914 70.1946 227.682C69.2286 228.487 70.161 235.731 70.1946 237.18C70.2996 240.744 70.674 244.296 71.3146 247.804C71.659 249.732 73.9102 250.86 73.5686 247.965C73.1122 244.098 72.4486 240.398 72.2806 236.536C72.1252 232.994 72.1196 229.291 71.9586 225.756C78.0155 219.176 82.3823 211.222 84.6832 202.58ZM137.323 93.7552H107.059L113.659 48.6752C113.801 47.5158 114.38 46.4542 115.277 45.7065C116.174 44.9587 117.323 44.581 118.489 44.6502L245.665 47.8702C247.01 47.9252 248.281 48.5028 249.207 49.4802C250.055 50.5178 250.46 51.8477 250.334 53.1818L239.065 141.883C238.939 143.033 238.392 144.096 237.531 144.868C236.669 145.641 235.553 146.068 234.396 146.069L151.973 144.459V108.399C151.979 106.474 151.605 104.566 150.871 102.786C150.138 101.005 149.059 99.3877 147.697 98.026C146.336 96.6644 144.718 95.5855 142.938 94.8516C141.158 94.1176 139.25 93.7431 137.325 93.7496L137.323 93.7552ZM89.6728 175.851H137.325C141.164 175.84 144.842 174.31 147.556 171.595C150.271 168.88 151.801 165.202 151.812 161.363V146.23L234.235 147.84C235.861 147.875 237.442 147.3 238.664 146.227C239.886 145.153 240.661 143.661 240.836 142.044L252.105 53.34C252.212 52.4226 252.126 51.493 251.853 50.6107C251.58 49.7283 251.126 48.9126 250.52 48.2157C249.914 47.5188 249.169 46.9561 248.333 46.5634C247.497 46.1708 246.588 45.9569 245.665 45.9354L118.489 42.7154C116.852 42.7007 115.265 43.2799 114.022 44.3455C112.779 45.4112 111.964 46.8912 111.728 48.5114L105.127 93.9106H93.38C94.1304 89.2696 98.8848 59.563 99.498 53.8258C100.254 46.7376 100.992 41.1586 105.132 37.4052C109.69 33.2752 118.012 31.4706 132.499 31.6106C171.94 31.99 244.069 33.481 251.304 34.6696C264.362 36.813 268.104 38.6638 265.304 63.9674C264.949 67.1874 264.487 70.728 264.016 74.7474C260.707 103.069 255.165 150.41 251.621 157.653C247.6 165.865 221.983 186.444 212.663 192.746C204.599 198.199 197.861 197.495 187.711 197.254C157.024 196.524 104.322 195.854 86.6138 195.644C87.0968 193.544 87.4188 191.458 87.9004 189.528C88.5458 184.705 89.1898 180.358 89.6728 175.851Z" fill="#111111"/><path d="M213.63 127.235C213.791 125.464 213.952 123.854 214.274 122.083C214.274 121.439 214.435 120.634 214.435 119.983C216.309 120.248 218.054 121.093 219.425 122.398C219.564 122.533 219.747 122.615 219.941 122.627C220.135 122.64 220.327 122.582 220.482 122.466C220.637 122.349 220.746 122.181 220.788 121.991C220.831 121.802 220.804 121.603 220.713 121.432C220.096 120.379 219.231 119.492 218.194 118.848C217.156 118.205 215.978 117.825 214.76 117.74V116.62C214.759 116.419 214.684 116.225 214.549 116.076C214.413 115.928 214.228 115.834 214.028 115.814C213.827 115.794 213.627 115.849 213.465 115.968C213.303 116.087 213.191 116.262 213.15 116.459C212.989 116.942 212.989 117.264 212.828 117.747C209.286 117.908 204.716 120.302 205.583 124.509C206.107 127.046 208.701 128.835 211.218 129.338C210.501 136.503 210.574 135.638 210.574 135.778C208.903 135.29 207.326 134.529 205.905 133.524C204.778 132.88 203.314 134.504 204.456 135.456C206.225 136.814 208.252 137.8 210.413 138.354C210.379 138.949 210.433 139.545 210.574 140.125C210.657 140.288 210.784 140.425 210.94 140.521C211.097 140.616 211.276 140.667 211.459 140.667C211.643 140.667 211.822 140.616 211.979 140.521C212.135 140.425 212.262 140.288 212.345 140.125C212.601 139.747 212.715 139.29 212.667 138.837C213.68 138.998 214.712 138.998 215.725 138.837C220.801 137.99 222.592 134.056 221.199 131.27C219.747 127.877 216.527 127.555 213.63 127.235ZM207.834 123.532C207.815 122.885 208.01 122.249 208.39 121.725C208.77 121.201 209.313 120.817 209.934 120.634C210.712 120.289 211.52 120.019 212.349 119.829C212.188 120.473 212.188 121.117 212.027 121.6C211.705 123.21 211.544 124.981 211.383 126.591C211.296 126.602 211.207 126.593 211.123 126.565C211.04 126.537 210.964 126.491 210.9 126.43C210.158 126.309 209.469 125.968 208.923 125.451C208.376 124.934 207.997 124.266 207.834 123.532ZM217.494 135.283C216.001 136.029 214.319 136.309 212.666 136.088C212.666 135.479 213.294 129.949 213.31 129.809C213.793 129.809 214.437 129.97 214.92 129.97C216.206 130.131 218.299 130.453 218.782 131.902C219.586 133.029 218.62 134.478 217.493 135.283H217.494Z" fill="#E04747"/><path d="M180.628 120.795C179.144 123.35 179.34 126.913 179.34 129.809C179.354 130.099 179.479 130.371 179.689 130.571C179.899 130.77 180.177 130.882 180.467 130.882C180.757 130.882 181.035 130.77 181.245 130.571C181.455 130.371 181.58 130.099 181.594 129.809C181.594 127.074 182.399 123.854 182.077 121.117C182.071 120.947 182.008 120.785 181.9 120.654C181.791 120.524 181.642 120.433 181.477 120.397C181.311 120.36 181.138 120.379 180.984 120.451C180.831 120.523 180.706 120.644 180.628 120.795Z" fill="#E04747"/><path d="M187.88 120.634C187.558 120.634 187.075 120.795 187.075 121.278C186.592 123.854 185.626 127.877 186.27 130.453C186.753 132.385 188.524 130.453 188.524 129.333C188.685 126.759 188.685 124.183 188.685 121.446C188.517 120.96 188.356 120.634 187.88 120.634Z" fill="#E04747"/><path d="M194.151 121.117C193.398 124.168 193.126 127.318 193.346 130.453C193.346 130.752 193.464 131.039 193.676 131.25C193.887 131.462 194.174 131.58 194.473 131.58C194.772 131.58 195.058 131.462 195.27 131.25C195.481 131.039 195.6 130.752 195.6 130.453C195.761 127.394 195.922 124.337 195.922 121.439C195.761 120.473 194.312 120.151 194.151 121.117Z" fill="#E04747"/><path d="M123.319 63.8064C125.09 63.8064 170.323 64.8536 174.511 64.9264C174.803 64.9161 175.08 64.7929 175.282 64.5828C175.485 64.3727 175.599 64.0921 175.599 63.8001C175.599 63.5081 175.485 63.2274 175.282 63.0173C175.08 62.8072 174.803 62.6841 174.511 62.6738C162.688 62.608 120.971 61.3872 117.845 61.8688C117.738 61.8622 117.63 61.8786 117.529 61.9167C117.429 61.9549 117.337 62.0139 117.261 62.09C117.185 62.1661 117.126 62.2575 117.088 62.3581C117.05 62.4588 117.033 62.5664 117.04 62.6738C117.65 63.2912 116.62 63.8064 123.319 63.8064Z" fill="#E04747"/><path d="M115.591 75.7204C117.995 76.1208 171.451 77.329 173.551 77.329C173.815 77.3097 174.062 77.1911 174.242 76.9971C174.423 76.8031 174.523 76.5481 174.523 76.2832C174.523 76.0184 174.423 75.7633 174.242 75.5693C174.062 75.3753 173.815 75.2567 173.551 75.2374C164.627 75.0428 120.806 73.4174 115.919 74.1174C114.94 74.2462 114.625 75.5594 115.591 75.7204Z" fill="#E04747"/><path d="M171.13 88.599C171.42 88.5846 171.692 88.4595 171.892 88.2498C172.091 88.04 172.203 87.7615 172.203 87.472C172.203 87.1825 172.091 86.904 171.892 86.6942C171.692 86.4844 171.42 86.3594 171.13 86.345C163.887 85.862 119.12 85.2866 115.108 85.862C115.01 85.8577 114.913 85.8732 114.821 85.9077C114.729 85.9422 114.645 85.9949 114.575 86.0626C114.504 86.1303 114.448 86.2116 114.409 86.3016C114.371 86.3917 114.351 86.4886 114.351 86.5865C114.351 86.6844 114.371 86.7813 114.409 86.8714C114.448 86.9614 114.504 87.0427 114.575 87.1104C114.645 87.1781 114.729 87.2308 114.821 87.2653C114.913 87.2997 115.01 87.3153 115.108 87.311C118.811 87.633 133.461 87.591 137.003 87.633C144.409 87.7128 167.104 88.5178 171.13 88.599Z" fill="#E04747"/><path d="M212.503 161.041C213.843 161.121 215.187 161.121 216.527 161.041C216.734 161.005 216.929 160.92 217.098 160.795C217.267 160.67 217.403 160.506 217.497 160.318C217.591 160.13 217.64 159.923 217.639 159.713C217.638 159.503 217.588 159.296 217.493 159.109C216.562 157.637 214.273 157.821 212.825 157.982C211.378 158.143 208.607 157.804 207.834 159.27C207.74 159.451 207.705 159.657 207.734 159.859C207.763 160.061 207.854 160.249 207.995 160.397C208.639 161.202 210.893 161.041 212.503 161.041Z" fill="#111111"/><path d="M194.795 161.041C196.135 161.121 197.479 161.121 198.82 161.041C199.027 161.004 199.222 160.92 199.39 160.794C199.559 160.669 199.695 160.506 199.789 160.318C199.883 160.13 199.932 159.923 199.931 159.713C199.931 159.503 199.881 159.296 199.786 159.109C198.855 157.637 196.566 157.821 195.117 157.982C193.668 158.143 190.9 157.804 190.126 159.27C190.032 159.451 189.997 159.657 190.026 159.859C190.055 160.061 190.146 160.249 190.287 160.397C190.931 161.202 193.185 161.041 194.795 161.041Z" fill="#111111"/><path d="M177.086 161.041C178.426 161.121 179.771 161.121 181.111 161.041C181.318 161.005 181.514 160.92 181.682 160.795C181.851 160.67 181.987 160.506 182.081 160.318C182.175 160.13 182.224 159.923 182.223 159.713C182.222 159.503 182.172 159.296 182.077 159.109C181.146 157.637 178.857 157.821 177.408 157.982C175.959 158.143 173.191 157.804 172.418 159.27C172.325 159.451 172.29 159.657 172.318 159.859C172.347 160.061 172.439 160.249 172.579 160.397C173.223 161.202 175.477 161.041 177.086 161.041Z" fill="#111111"/><path d="M203.326 170.538C204.667 170.619 206.011 170.619 207.351 170.538C207.558 170.502 207.754 170.418 207.922 170.293C208.091 170.167 208.228 170.004 208.322 169.816C208.416 169.628 208.464 169.421 208.463 169.211C208.463 169 208.413 168.793 208.317 168.606C207.386 167.135 205.097 167.318 203.648 167.479C202.199 167.64 199.431 167.301 198.659 168.767C198.566 168.948 198.532 169.152 198.561 169.353C198.59 169.553 198.68 169.74 198.82 169.887C199.464 170.538 201.718 170.38 203.326 170.538Z" fill="#111111"/><path d="M185.619 170.538C186.959 170.619 188.304 170.619 189.644 170.538C189.851 170.502 190.046 170.418 190.215 170.292C190.383 170.167 190.52 170.003 190.614 169.815C190.707 169.628 190.756 169.42 190.755 169.21C190.754 169 190.704 168.793 190.609 168.606C189.678 167.135 187.389 167.318 185.941 167.479C184.493 167.64 181.724 167.301 180.95 168.767C180.858 168.948 180.824 169.152 180.853 169.353C180.881 169.553 180.972 169.74 181.111 169.887C181.755 170.538 184.009 170.38 185.619 170.538Z" fill="#111111"/><path d="M190.12 179.875C191.46 179.955 192.805 179.955 194.145 179.875C194.352 179.839 194.547 179.755 194.716 179.629C194.884 179.504 195.021 179.341 195.115 179.153C195.209 178.965 195.257 178.758 195.257 178.548C195.256 178.338 195.206 178.131 195.111 177.944C194.18 176.471 191.891 176.656 190.442 176.824C188.993 176.992 186.225 176.645 185.452 178.111C185.36 178.291 185.326 178.496 185.355 178.696C185.384 178.897 185.474 179.084 185.613 179.231C186.263 180.04 188.517 179.714 190.12 179.875Z" fill="#111111"/><path d="M172.418 179.875C173.759 179.955 175.103 179.955 176.443 179.875C176.65 179.838 176.845 179.754 177.014 179.629C177.182 179.503 177.318 179.34 177.412 179.153C177.506 178.965 177.554 178.758 177.554 178.548C177.553 178.338 177.503 178.131 177.408 177.944C176.477 176.471 174.188 176.656 172.74 176.824C171.293 176.992 168.524 176.645 167.749 178.111C167.657 178.291 167.623 178.496 167.652 178.696C167.681 178.897 167.771 179.084 167.91 179.231C168.56 180.04 170.808 179.714 172.418 179.875Z" fill="#111111"/><path d="M135.715 35.9576C134.765 35.6412 133.287 35.9576 132.334 35.6356C131.207 35.6356 130.08 35.4746 128.953 35.4746C122.294 35.4746 119.853 35.3486 115.591 35.9576C113.567 36.073 111.591 36.6216 109.796 37.5662C108.955 38.0671 108.233 38.7435 107.677 39.5493C107.121 40.355 106.746 41.2712 106.576 42.2352C106.555 42.3303 106.553 42.4287 106.57 42.5247C106.587 42.6207 106.622 42.7124 106.675 42.7947C106.727 42.8769 106.795 42.948 106.875 43.0039C106.955 43.0599 107.045 43.0996 107.14 43.1207C107.235 43.1418 107.333 43.144 107.429 43.1272C107.525 43.1103 107.617 43.0747 107.699 43.0223C107.782 42.97 107.853 42.902 107.909 42.8222C107.965 42.7424 108.004 42.6523 108.025 42.5572C109.064 39.1972 113.011 38.1682 116.074 37.8882C121.431 37.4658 126.81 37.412 132.174 37.7272C133.35 37.8611 134.533 37.9149 135.716 37.8882C135.911 37.8134 136.08 37.6811 136.198 37.5086C136.317 37.3361 136.38 37.1317 136.38 36.9224C136.38 36.7131 136.316 36.5088 136.197 36.3365C136.079 36.1642 135.91 36.0321 135.715 35.9576Z" fill="#111111"/><path d="M248.885 140.917C249.27 139.941 249.488 138.908 249.529 137.859C253.709 104.416 253.539 105.431 254.68 92.3006C254.68 91.4956 253.375 91.3318 253.232 92.1396C251.019 104.65 246.953 136.41 246.47 139.791C246.309 140.434 246.315 141.232 246.792 141.561C247.932 142.348 248.563 141.883 248.885 140.917Z" fill="#111111"/></svg>