<svg viewBox="0 0 280 280" fill="none" xmlns="http://www.w3.org/2000/svg"><g clip-path="url(#clip0_5383_31733)"><path d="M119.686 96.1098C119.22 96.7673 117.29 99.3392 117.518 100.053C117.837 101.049 121.123 101.745 121.656 100.832C121.795 100.589 121.826 100.174 121.562 100.081C120.752 99.7964 119.898 99.8655 119.017 99.5837C119.294 98.5781 120.016 97.4993 120.431 96.4192C120.629 96.0062 119.915 95.7851 119.686 96.1098Z" fill="#111111"/><path d="M114.597 92.3536C113.74 92.5124 113.598 93.1892 114.663 93.2928C115.121 93.3902 115.54 93.6182 115.87 93.949C116.409 94.5015 117.141 94.3095 116.812 93.4144C116.649 92.9888 116.329 92.6415 115.917 92.4442C115.505 92.2469 115.032 92.2144 114.597 92.3536Z" fill="#111111"/><path d="M126.166 93.2927C125.778 93.1732 125.361 93.1911 124.984 93.3434C124.608 93.4957 124.296 93.7731 124.102 94.1284C123.637 94.9944 124.102 95.5262 124.762 94.9254C125.147 94.5425 125.669 94.3265 126.213 94.3245C127.066 94.3093 127.225 93.5178 126.166 93.2927Z" fill="#111111"/><path d="M128.327 103.395C128.398 102.118 128.233 101.235 127.188 101.892C124.917 103.321 122.252 104.001 119.572 103.836C117.941 103.836 118.404 104.915 118.978 105.93C121.689 110.724 128.003 109.292 128.327 103.395ZM126.811 103.62C126.208 108.317 121.9 108.179 120.214 105.104C122.513 105.291 124.815 104.773 126.811 103.62Z" fill="#111111"/><path d="M131.825 93.761C132.868 93.8606 133.916 93.892 134.963 93.8549C136.518 93.6947 136.245 92.2056 134.84 92.1835C133.804 92.1677 132.769 92.0986 131.74 91.9763C130.797 84.0324 123.635 85.056 121.609 90.5674C121.373 90.4037 121.103 90.2958 120.818 90.252C120.534 90.2082 120.244 90.2296 119.969 90.3146C119.649 83.6581 111.78 83.1595 109.913 90.653C107.643 99.76 118.395 104.023 119.895 92.0896C120.115 92.0325 120.344 92.0255 120.566 92.0693C120.788 92.1131 120.997 92.2065 121.178 92.3424C119.686 103.264 131.561 103.563 131.825 93.761ZM118.272 91.247C118.088 93.5096 117.179 97.6549 114.39 97.659C111.402 97.659 110.714 93.9032 111.628 90.7525C111.799 89.9924 112.119 89.2737 112.572 88.6384C113.024 88.0031 113.599 87.4638 114.262 87.052C116.915 85.7135 118.465 88.8988 118.272 91.247ZM125.491 99.2364C122.588 98.4519 122.277 94.3825 122.759 92.0827C123.175 90.1005 124.916 87.4719 127.188 87.6791C128.733 87.8172 130.311 90.0549 130.239 93.2554C130.187 95.7597 128.662 100.087 125.491 99.2337V99.2364Z" fill="#111111"/><path d="M117.319 118.352C118.933 118.86 119.207 120.311 119.843 121.018C121.351 122.691 122.062 116.925 122.134 116.258C124.67 116.258 128.373 114.877 129.768 113.066C130.108 112.625 129.882 112.127 129.287 112.344C127.609 113.056 126.263 114.225 123.397 114.54C114.719 115.493 114.108 107.142 114.397 100.45C105.538 100.347 106.858 83.4715 116.366 83.9439C119.555 84.1028 122.766 81.4935 124.151 79.6619C123.641 78.4931 123.323 77.2502 123.208 75.9807C123.208 74.7886 123.977 75.04 124.318 76.0843C126.543 83.0143 130.5 88.1776 139.238 89.8393C139.363 89.8393 139.483 89.8888 139.571 89.9769C139.659 90.0649 139.709 90.1844 139.709 90.3089C139.709 90.4335 139.659 90.553 139.571 90.641C139.483 90.7291 139.363 90.7786 139.238 90.7786C138.212 90.8513 137.181 90.7528 136.187 90.4871C136.434 91.6405 136.749 92.7784 137.13 93.8948C134.84 95.4916 136.021 97.1022 136.517 96.2706C136.861 95.7007 137.374 95.2516 137.986 94.9857C138.597 94.7198 139.277 94.6504 139.93 94.7871C143.049 95.1822 141.316 103.702 137.743 103.426C136.009 103.288 136.079 103.295 135.857 105.454C135.479 109.078 134.929 118.659 135.924 120.946C136.172 121.517 136.778 121.102 136.999 120.87C137.566 120.272 139.063 117.831 141.05 118.175C142.342 118.577 143.53 119.257 144.529 120.167C145.527 121.078 146.312 122.197 146.827 123.444C149.919 124.223 158.251 127.002 161.408 129.499C157.638 123.8 154.084 116.091 154.084 109.002C154.084 101.913 158.521 85.9703 149.175 73.0136C140.541 61.0585 118.744 59.0639 109.59 75.7348C103.523 86.7852 104.966 99.8634 102.72 108.108C100.717 115.458 98.1296 120.756 93.2922 125.085C98.0844 123.795 102.985 122.943 107.932 122.539C110.325 119.338 115.627 117.818 117.319 118.352Z" fill="#111111"/><path d="M143.424 130.933C146.792 127.342 146.137 122.6 141.206 120.145C140.546 119.818 139.958 119.666 139.632 120.353C137.59 124.611 132.601 126.071 128.218 126.154C121.971 126.273 119.834 125.113 117.796 120.69C117.361 119.748 117.183 119.55 116.26 119.601C112.932 119.784 107.765 122.853 109.219 127.591C111.005 133.407 120.588 134.304 123.949 131.018C127.733 136.051 139.188 135.45 143.424 130.933ZM123.011 129.479C116.118 135.841 102.974 124.368 116.272 121.028C118.158 126.802 122.7 127.998 128.232 127.872C133.133 127.762 138.298 126.136 140.842 121.77C151.209 127.629 134.272 138.384 124.82 129.675C124.046 128.958 123.935 128.625 123.011 129.479Z" fill="#111111"/><path d="M125.048 141.966C126.604 142.394 127.31 138.872 125.915 138.811C124.718 138.765 124.011 141.681 125.048 141.966Z" fill="#111111"/><path d="M122.87 151.28C124.19 151.524 124.935 148.229 123.606 148.013C122.278 147.798 121.452 151.018 122.87 151.28Z" fill="#111111"/><path d="M120.808 135.743C118.769 140.805 116.51 151.035 116.595 156.454C116.588 156.526 116.597 156.599 116.619 156.669C116.641 156.738 116.677 156.803 116.724 156.858C116.771 156.914 116.829 156.96 116.893 156.993C116.958 157.027 117.029 157.047 117.102 157.053C117.175 157.06 117.248 157.051 117.318 157.029C117.388 157.007 117.452 156.972 117.508 156.925C117.564 156.878 117.61 156.82 117.644 156.756C117.677 156.691 117.698 156.62 117.704 156.548C118.503 149.624 120.116 142.817 122.509 136.268C122.824 135.313 121.185 134.803 120.808 135.743Z" fill="#111111"/><path d="M260.108 223.322C177.795 223.298 95.2766 222.891 12.9897 223.228C11.8112 223.228 12.0469 225.023 13.1686 225.023C95.454 225.758 177.984 225.231 260.306 225.258C261.56 225.267 261.348 223.322 260.108 223.322Z" fill="#111111"/><path d="M76.5793 175.325C77.5859 176.162 77.3862 176.07 78.5675 175.325C80.7859 173.925 84.675 170.968 86.361 169.578C86.1918 175.213 87.6282 200.466 88.2466 205.915C88.2713 206.084 88.3608 206.237 88.4962 206.342C88.6317 206.447 88.8026 206.495 88.9732 206.478C89.1438 206.46 89.3009 206.377 89.4115 206.246C89.5221 206.115 89.5776 205.947 89.5665 205.777C89.6511 193.337 87.6865 180.042 88.4255 167.872C88.9953 158.48 92.6986 150.054 95.2193 144.071C95.2557 143.987 95.2752 143.897 95.2766 143.806C95.278 143.714 95.2613 143.623 95.2275 143.538C95.1937 143.454 95.1435 143.376 95.0796 143.31C95.0157 143.245 94.9395 143.192 94.8553 143.156C94.7711 143.12 94.6805 143.1 94.5888 143.099C94.4971 143.098 94.406 143.114 94.3207 143.148C94.2354 143.181 94.1576 143.232 94.0917 143.295C94.0258 143.359 93.9732 143.435 93.9368 143.519C90.186 150.88 87.6922 158.813 86.5579 166.991C83.5325 169.743 80.1218 171.996 77.407 174.099C73.6372 169.403 67.8222 157.198 65.4666 149.001C67.549 146.653 69.7977 144.457 72.1952 142.429C81.0882 134.798 84.266 130.928 96.6044 127.726C99.9777 126.85 103.405 126.158 106.773 125.274C107.264 125.146 107.132 124.252 106.604 124.26C103.465 124.599 100.352 125.142 97.2838 125.885C84.1121 129.043 81.0535 132.054 71.5255 140.527C69.0311 142.558 66.7121 144.794 64.5931 147.212C64.1472 147.72 63.8663 148.351 63.7873 149.022C63.7084 149.692 63.8351 150.371 64.1508 150.968C66.2707 157.627 72.0288 171.54 76.5793 175.325Z" fill="#111111"/><path d="M157.79 173.589C157.627 182.734 156.645 194.861 156.574 199.934C156.564 200.61 157.736 200.658 157.902 200.018C158.449 197.927 159.982 175.553 159.222 173.485C158.966 172.792 157.8 172.996 157.79 173.589Z" fill="#111111"/><path d="M146.752 126.407C164.915 132.043 174.343 142.116 184.543 157.233C184.7 157.363 184.894 157.439 185.097 157.45C185.3 157.461 185.501 157.407 185.67 157.295C185.84 157.183 185.968 157.019 186.037 156.829C186.106 156.638 186.111 156.431 186.052 156.237C176.118 141.421 164.987 129.372 147.015 125.112C146.157 124.907 145.941 126.156 146.752 126.407Z" fill="#111111"/><path d="M178.172 169.608C175.273 171.265 169.794 177.343 167.947 180.349C165.12 176.462 159.565 168.671 157.109 165.889C156.637 165.355 155.564 165.889 155.969 166.58C158.035 170.127 162.914 176.702 165.713 180.579C167.748 183.396 167.844 183.248 169.691 180.926C172.522 177.261 175.655 173.837 179.058 170.692C179.758 170.068 179.054 169.101 178.172 169.608Z" fill="#111111"/><path d="M34.6879 107.824C35.5545 107.77 35.6321 104.175 38.2027 101.937C40.0897 100.296 38.3802 99.6812 37.185 100.529C34.6852 102.299 32.9063 107.926 34.6879 107.824Z" fill="#111111"/><path d="M44.0278 99.7605C45.9605 101.004 45.5044 99.5091 44.0278 105.808C42.8451 110.851 44.0458 115.662 45.2243 120.68C49.1065 137.227 56.6629 155.43 60.143 161.673C60.2454 161.765 60.3736 161.822 60.5101 161.838C60.6465 161.855 60.7847 161.829 60.9058 161.764C61.0269 161.699 61.1252 161.599 61.1871 161.477C61.2491 161.355 61.2718 161.216 61.2522 161.081C60.7724 159.871 60.2345 158.687 59.6882 157.505C60.936 156.227 61.969 155.091 63.5524 153.682C65.1357 152.274 63.4359 152.232 62.9867 152.537C61.5405 153.529 60.1815 154.64 58.9242 155.861C53.9397 144.801 50.0542 133.281 47.3235 121.466C45.1744 112.173 44.0541 112.543 46.9838 102.077C47.7477 99.3489 47.1904 99.3945 45.0233 98.1057C41.7789 96.1719 40.8888 94.7906 38.1809 92.5474C37.1993 91.7241 34.8714 93.8955 44.0278 99.7605Z" fill="#111111"/><path d="M28.7962 114.936C29.739 129.761 37.3231 159.009 41.8874 173.412C43.6399 178.937 46.7221 186.707 53.7059 187.087C60.0102 187.435 68.8561 182.563 74.872 174.984C75.3642 174.366 74.1414 173.477 73.6478 174.046C70.1649 178.052 61.3482 185.425 53.9596 185.303C47.5415 185.197 45.2164 178.317 43.6871 173.238C38.6416 156.476 32.4205 133.481 30.7373 116.142C30.5431 114.133 30.8606 113.615 28.853 112.996C25.1788 111.866 24.089 110.706 21.3133 109.241C20.9556 109.053 19.7881 109.358 20.7767 110.536C22.2838 112.346 26.4682 114.221 28.7962 114.936Z" fill="#111111"/><path d="M220.379 131.89C226.525 135.545 226.528 137.554 228.578 139.4C228.683 139.492 228.815 139.547 228.954 139.558C229.093 139.568 229.232 139.533 229.349 139.458C229.466 139.382 229.555 139.271 229.603 139.14C229.651 139.01 229.655 138.867 229.614 138.735C229.266 137.138 227.236 134.972 226.009 133.852C224.483 132.495 222.688 131.471 220.74 130.847C220.09 130.628 219.859 131.581 220.379 131.89Z" fill="#111111"/><path d="M229.997 133.931C231.76 134.057 232.826 132.988 230.779 132.569C229.3 132.267 227.697 132.137 226.204 131.855C225.314 131.685 223.7 133.477 229.997 133.931Z" fill="#111111"/><path d="M223.043 138.707C223.654 140.051 224.122 141.518 224.815 142.783C225.189 143.464 226.078 143.298 226.05 142.482C225.884 140.936 225.424 139.435 224.693 138.062C222.581 133.292 220.395 132.61 214.155 129.442C213.543 129.131 212.891 130.082 213.505 130.503C218.824 134.164 220.517 133.144 223.043 138.707Z" fill="#111111"/><path d="M170.925 181.796C170.397 181.091 167.874 181.785 172.508 186.208C176.938 190.433 177.512 187.965 176.975 187.466C175.976 186.538 175.231 187.542 170.925 181.796Z" fill="#111111"/><path d="M186.6 165.233C190.532 153.409 193.554 143.035 201.123 132.511C204.459 127.872 205.779 129.205 211.038 132.201C216.853 135.517 218.949 136.41 217.248 144.238C217.005 145.356 216.535 146.421 216.305 147.534C216.211 147.993 217.579 149.91 218.973 144.332C221.052 136.032 217.635 134.019 211.028 130.305C205.093 126.966 203.329 126.493 199.115 132.352C193.923 139.572 186.722 155.825 185.346 164.847C185.299 165.589 186.367 165.934 186.6 165.233Z" fill="#111111"/><path d="M204.018 149.626C203.193 151.89 201.189 163.716 201.755 165.701C201.78 165.844 201.85 165.975 201.956 166.076C202.061 166.176 202.197 166.24 202.341 166.257C202.486 166.275 202.633 166.246 202.76 166.174C202.887 166.103 202.987 165.992 203.046 165.859C203.404 165.076 203.809 158.454 205.68 150.039C205.891 149.1 204.366 148.688 204.018 149.626Z" fill="#111111"/><path d="M209.745 146.811C207.864 145.866 206.172 145.341 204.091 144.519C203.478 144.277 203.599 144.134 203.515 142.585C203.42 140.801 203.833 138.856 202.885 138.718C201.57 138.532 201.737 141.788 201.775 142.737C201.875 145.384 202.123 145.703 204.056 146.492C205.989 147.28 207.545 147.541 209.343 148.267C210.245 148.63 211.029 147.454 209.745 146.811Z" fill="#111111"/><path d="M60.9885 198.451C63.6253 198.723 66.2819 198.748 68.9234 198.526C69.1091 198.455 69.2677 198.328 69.3766 198.163C69.4855 197.997 69.5391 197.801 69.5297 197.604C69.5203 197.406 69.4485 197.216 69.3244 197.061C69.2003 196.907 69.0303 196.795 68.8388 196.742C66.2206 196.513 63.5873 196.513 60.9691 196.742C60.7475 196.753 60.5387 196.85 60.3867 197.011C60.2347 197.172 60.1512 197.385 60.1537 197.606C60.1562 197.827 60.2445 198.039 60.4002 198.196C60.5558 198.354 60.7667 198.445 60.9885 198.451Z" fill="#E04747"/><path d="M82.3526 211.747C81.7675 211.747 81.6178 212.814 82.2486 212.968C87.1249 214.144 120.2 213.633 124.413 213.578C125.563 213.562 125.735 211.727 124.564 211.782C113.305 212.336 91.9014 211.784 82.3526 211.747Z" fill="#E04747"/><path d="M150.847 206.291C150.754 206.366 150.682 206.463 150.637 206.574C150.593 206.684 150.578 206.804 150.594 206.922C150.61 207.04 150.657 207.152 150.729 207.247C150.801 207.342 150.897 207.417 151.007 207.464C151.284 207.583 157.784 207.728 158.961 207.802C159.687 207.802 160.625 206.957 159.951 206.272C158.958 205.258 152.077 205.298 150.847 206.291Z" fill="#E04747"/><path d="M81.7239 209.869C88.8588 210.441 114.209 210.155 122.965 210.075C123.908 210.067 124.213 208.451 123.116 208.417C118.234 208.249 83.7593 207.995 81.649 208.417C81.501 208.478 81.3755 208.583 81.2899 208.718C81.2043 208.853 81.1627 209.01 81.1709 209.17C81.1792 209.329 81.2367 209.482 81.3358 209.607C81.4348 209.732 81.5704 209.824 81.7239 209.869Z" fill="#E04747"/><path d="M165.047 211.361C167.135 211.52 169.228 211.523 171.323 211.484C172.571 211.461 172.491 209.531 171.229 209.531C169.967 209.531 165.285 209.333 164.255 209.737C163.888 209.882 162.841 211.052 165.047 211.361Z" fill="#E04747"/><path d="M61.8094 215.351C59.3691 215.549 59.2929 217.437 61.9702 217.351C65.1938 217.249 68.4271 217.308 71.6396 217.051C72.4216 216.988 72.4202 215.532 71.6396 215.294C70.1089 214.839 64.025 215.173 61.8094 215.351Z" fill="#E04747"/><path d="M164.858 213.109C164.067 213.362 164.34 214.628 165.112 214.677C166.752 214.778 168.882 214.43 171.568 214.61C173.359 214.731 173.95 213.015 171.746 212.733C169.446 212.464 167.116 212.591 164.858 213.109Z" fill="#E04747"/><path d="M151.011 209.474C150.372 209.675 150.202 210.702 150.964 210.883C153.963 211.198 156.979 211.32 159.993 211.249C160.12 211.253 160.247 211.232 160.367 211.187C160.486 211.141 160.595 211.073 160.688 210.986C160.78 210.899 160.855 210.794 160.907 210.679C160.959 210.563 160.988 210.438 160.992 210.311C160.996 210.184 160.974 210.057 160.929 209.939C160.884 209.82 160.815 209.711 160.728 209.619C160.64 209.526 160.535 209.452 160.419 209.4C160.303 209.348 160.177 209.319 160.05 209.315C158.268 209.136 152.815 208.911 151.011 209.474Z" fill="#E04747"/><path d="M61.1202 204.431C60.9894 204.518 60.8865 204.64 60.824 204.783C60.7615 204.926 60.7421 205.084 60.768 205.238C60.794 205.392 60.8643 205.535 60.9704 205.65C61.0765 205.765 61.2138 205.847 61.3656 205.886C61.9493 206.103 67.5577 205.974 68.9996 206.056C70.6967 206.151 71.8253 204.193 67.982 203.971C66.454 203.883 62.3292 203.672 61.1202 204.431Z" fill="#E04747"/><path d="M69.2722 200.602C68.4403 200.08 61.6049 200.224 60.7245 200.714C60.5844 200.791 60.4699 200.907 60.395 201.047C60.32 201.188 60.288 201.347 60.3027 201.506C60.3174 201.665 60.3783 201.815 60.4778 201.94C60.5774 202.065 60.7113 202.157 60.8631 202.207C61.0988 202.311 68.4708 202.622 69.2126 202.207C69.3541 202.129 69.473 202.015 69.5576 201.878C69.6423 201.74 69.6899 201.583 69.6959 201.421C69.7019 201.26 69.6661 201.1 69.5918 200.957C69.5176 200.813 69.4075 200.691 69.2722 200.602Z" fill="#E04747"/><path d="M159.568 214.414C161.587 214.597 161.812 212.61 159.568 212.395C157.325 212.179 152.49 212.066 150.785 212.902C150.647 212.979 150.535 213.095 150.463 213.234C150.39 213.374 150.36 213.532 150.376 213.688C150.392 213.845 150.453 213.993 150.553 214.115C150.652 214.237 150.785 214.328 150.936 214.376C151.445 214.499 156.742 214.159 159.568 214.414Z" fill="#E04747"/><path d="M151.381 217.754C152.22 218.018 160.184 218.327 161.117 217.81C161.247 217.728 161.353 217.613 161.425 217.477C161.496 217.341 161.531 217.188 161.525 217.035C161.519 216.881 161.474 216.732 161.392 216.601C161.31 216.471 161.196 216.364 161.06 216.291C157.824 215.945 154.561 215.945 151.325 216.291C151.152 216.326 150.998 216.421 150.888 216.56C150.779 216.698 150.723 216.87 150.73 217.046C150.737 217.222 150.806 217.389 150.925 217.519C151.044 217.649 151.206 217.732 151.381 217.754Z" fill="#E04747"/><path d="M124.805 219.106C111.91 219.19 93.9595 219.233 81.3674 219.36C80.6035 219.36 80.4246 220.617 81.2537 220.741C86.7872 221.562 119.508 221.107 124.889 220.892C125.075 220.821 125.234 220.694 125.343 220.528C125.453 220.362 125.506 220.166 125.497 219.968C125.488 219.77 125.416 219.58 125.291 219.425C125.167 219.27 124.997 219.159 124.805 219.106Z" fill="#E04747"/><path d="M151.729 204.139C153.532 204.217 157.073 204.289 158.882 204.261C160.691 204.234 160.191 202.511 159.42 202.383C158.825 202.285 153.765 201.67 151.517 202.383C149.938 202.786 150.081 204.068 151.729 204.139Z" fill="#E04747"/><path d="M173.462 219.389C170.799 219.294 168.133 219.407 165.488 219.727C165.055 219.885 164.027 221.276 166.657 221.352C168.966 221.417 171.284 221.377 173.59 221.352C174.857 221.338 174.716 219.395 173.462 219.389Z" fill="#E04747"/><path d="M171.848 218.223C173.083 218.321 173.364 216.427 172.125 216.346C170.512 216.231 165.754 215.886 164.161 216.42C163.322 216.697 163.595 217.879 164.359 218.035C165.862 218.342 169.838 218.064 171.848 218.223Z" fill="#E04747"/><path d="M160.768 219.446C158.326 219.446 155.876 219.584 153.435 219.615C152.643 219.626 151.616 219.53 151.012 220.141C150.89 220.281 150.828 220.464 150.839 220.65C150.849 220.835 150.932 221.009 151.069 221.135C151.811 221.826 154.839 221.501 155.961 221.493C157.601 221.479 159.241 221.446 160.87 221.38C161.128 221.366 161.369 221.251 161.542 221.061C161.714 220.87 161.803 220.618 161.79 220.362C161.776 220.105 161.661 219.865 161.469 219.693C161.278 219.521 161.025 219.432 160.768 219.446Z" fill="#E04747"/><path d="M59.9635 209.276C60.6415 209.53 66.9944 209.511 68.7289 209.52C70.6132 209.531 70.7352 207.643 68.7289 207.426C66.7227 207.209 61.1226 207.15 59.8221 207.933C59.7112 208.014 59.6236 208.122 59.5679 208.247C59.5122 208.372 59.4904 208.509 59.5048 208.645C59.5191 208.781 59.569 208.911 59.6495 209.022C59.73 209.132 59.8383 209.22 59.9635 209.276Z" fill="#E04747"/><path d="M122.957 217.661C123.175 217.639 123.376 217.536 123.523 217.374C123.669 217.212 123.75 217.002 123.75 216.784C123.75 216.566 123.669 216.355 123.523 216.193C123.376 216.031 123.175 215.929 122.957 215.906C110.866 215.409 92.629 215.676 80.97 215.7C80.7953 215.708 80.6304 215.783 80.5095 215.908C80.3887 216.034 80.3213 216.202 80.3213 216.376C80.3213 216.55 80.3887 216.718 80.5095 216.844C80.6304 216.97 80.7953 217.044 80.97 217.052C92.9063 217.248 110.856 217.925 122.957 217.661Z" fill="#E04747"/><path d="M60.0781 213.181C63.493 213.391 66.9107 213.53 70.3381 213.443C70.5139 213.398 70.6729 213.303 70.7959 213.17C70.9188 213.037 71.0007 212.871 71.0316 212.693C71.0625 212.515 71.0411 212.331 70.97 212.165C70.8988 211.998 70.781 211.856 70.6307 211.754C69.4244 211.063 61.4618 211.19 59.9547 211.811C59.3682 212.047 59.4653 213.144 60.0781 213.181Z" fill="#E04747"/><path d="M72.3192 219.259C68.2341 218.966 64.1299 219.083 60.0682 219.607C59.1725 219.905 59.5593 221.264 60.3788 221.277C64.2998 221.369 68.2332 221.395 72.1501 221.098C72.3696 221.079 72.5753 220.983 72.7312 220.827C72.8872 220.672 72.9836 220.467 73.0037 220.249C73.0238 220.03 72.9664 219.811 72.8413 219.63C72.7163 219.449 72.5315 219.318 72.3192 219.259Z" fill="#E04747"/><path d="M53.4111 215.895C50.48 215.895 47.5296 215.811 44.6083 216.008C44.432 216.04 44.2713 216.129 44.1512 216.262C44.0311 216.394 43.9585 216.563 43.9445 216.741C43.9306 216.919 43.9762 217.096 44.0742 217.246C44.1722 217.395 44.3171 217.508 44.4862 217.567C45.9698 218.09 51.7057 217.886 53.26 217.843C53.5188 217.863 53.7751 217.779 53.9723 217.611C54.1695 217.443 54.2916 217.204 54.3116 216.946C54.3317 216.688 54.248 216.432 54.0792 216.236C53.9103 216.04 53.67 215.918 53.4111 215.898V215.895Z" fill="#E04747"/><path d="M51.4602 219.237C50.0848 219.26 44.8619 219.237 43.9953 219.763C43.8829 219.82 43.7872 219.905 43.7176 220.01C43.6481 220.115 43.607 220.236 43.5985 220.361C43.5899 220.486 43.6142 220.612 43.669 220.725C43.7237 220.838 43.807 220.935 43.9107 221.006C45.0116 221.618 50.8571 221.232 52.5444 221.185C54.6547 221.124 55.42 219.172 51.4602 219.237Z" fill="#E04747"/><path d="M25.2293 60.0911C21.9696 60.6878 7.0593 63.7723 3.42115 65.1895C-0.217001 66.6067 -0.322374 69.8182 0.273817 72.4855C0.870008 75.1528 8.06728 100.183 10.0375 104.268C12.0077 108.352 15.4157 108.014 17.7561 107.478C23.0581 106.275 28.2964 104.809 33.4512 103.084C34.1617 100.912 35.5992 99.0498 37.5233 97.8076C37.0774 97.2818 36.6858 96.7126 36.3545 96.1086C36.2408 97.1031 34.4688 97.2261 33.526 97.4416C32.2172 97.7427 31.2161 96.7827 32.3586 95.9953C32.7746 95.7039 35.3174 94.8033 35.9482 95.2439C34.6103 91.8266 37.1073 89.7615 39.6155 91.7423C38.9084 88.5971 34.2082 68.372 32.7635 64.514C32.3427 62.9385 31.3164 61.5913 29.9066 60.7637C28.4967 59.936 26.8165 59.6944 25.2293 60.0911ZM32.543 80.2499C32.6817 81.3853 31.194 81.1394 29.3291 81.8273C27.8858 82.3605 26.5825 81.7665 28.1229 80.4847C28.8979 79.8355 32.3406 78.5688 32.5375 80.2499H32.543ZM8.03678 78.5978C7.19795 78.4279 5.65202 72.0256 5.77403 71.48C5.89604 70.9343 27.8913 65.434 28.4653 65.7904C29.0393 66.1467 30.8127 72.1941 30.5867 72.6637C30.3607 73.1334 8.5997 78.7097 8.00489 78.6033L8.03678 78.5978ZM15.1495 83.5125C16.3114 83.3744 16.4791 85.1231 15.3186 85.3248C14.3772 85.4878 13.4358 85.764 12.5456 85.9629C11.1994 86.2654 10.6975 85.2723 11.876 84.507C12.9007 83.9881 14.0085 83.6515 15.1495 83.5125ZM16.1103 88.8927C17.3166 88.6855 17.4677 90.564 16.2989 90.7699C15.1301 90.9757 14.5838 91.2768 13.763 91.3224C12.1616 91.4149 12.3973 90.3375 13.2541 89.7353C14.1481 89.286 15.1153 88.9993 16.1103 88.8885V88.8927ZM17.9946 94.0035C18.1144 94.0344 18.227 94.0885 18.3259 94.1628C18.4248 94.2371 18.5079 94.3301 18.5706 94.4365C18.6334 94.5428 18.6744 94.6605 18.6914 94.7827C18.7084 94.9049 18.7011 95.0292 18.6698 95.1486C18.4327 96.0575 17.4067 95.8613 15.1204 96.4166C13.9502 96.7012 13.5273 95.6003 14.6309 94.9428C15.6579 94.3605 16.8134 94.0403 17.9946 94.0104V94.0035ZM19.2105 101.121C18.4008 101.398 15.6708 102.537 15.3186 101.215C15.0108 100.059 17.537 99.7345 18.5505 99.3367C20.3253 98.6461 21.0019 100.474 19.1828 101.121H19.2105ZM22.9624 81.4405C24.6774 81.3563 24.8466 82.9434 23.5364 83.2721C22.2261 83.6009 21.8587 83.6106 20.3613 84.0415C20.2711 84.0929 20.1714 84.1255 20.0682 84.1373C19.965 84.1491 19.8604 84.1399 19.7609 84.1102C19.6613 84.0805 19.5689 84.031 19.4892 83.9646C19.4095 83.8982 19.3441 83.8164 19.2971 83.7241C19.25 83.6319 19.2223 83.531 19.2156 83.4277C19.2089 83.3244 19.2234 83.2209 19.258 83.1233C19.2927 83.0257 19.347 82.9362 19.4175 82.8602C19.4879 82.7841 19.5732 82.7232 19.6681 82.6809C20.6706 82.0498 21.7914 81.6278 22.9624 81.4405ZM20.9311 88.8789C20.4792 87.4699 24.0993 86.945 24.6358 87.0832C25.0033 87.1743 26.2192 88.5197 23.8719 88.9604C23.0331 89.1772 21.2805 90.0502 20.9034 88.8858L20.9311 88.8789ZM22.778 93.0573C23.84 92.3623 25.1012 92.0324 26.369 92.118C26.5289 92.2038 26.6605 92.3338 26.748 92.4923C26.8355 92.6508 26.8752 92.8312 26.8623 93.0116C26.8495 93.1921 26.7845 93.365 26.6754 93.5096C26.5662 93.6542 26.4174 93.7643 26.247 93.8267C25.2649 94.1305 24.2522 94.3251 23.2272 94.4068C23.0699 94.4053 22.917 94.3547 22.79 94.2622C22.6631 94.1697 22.5684 94.0398 22.5193 93.8909C22.4702 93.742 22.4691 93.5816 22.5163 93.4321C22.5634 93.2825 22.6564 93.1515 22.7821 93.0573H22.778ZM24.371 99.7801C23.5128 99.932 23.2785 98.4568 24.0036 98.1737C25.1642 97.7172 26.3625 97.3623 27.5849 97.1128C28.4889 96.9319 28.7343 98.5397 27.9426 98.8408C26.7864 99.267 25.5918 99.5815 24.3752 99.7801H24.371ZM34.8654 91.1787C34.4869 91.9523 30.8446 92.9261 30.5867 91.5351C30.3773 90.3817 32.2726 90.4301 33.7534 89.8775C33.9272 89.8289 34.1113 89.8309 34.284 89.8834C34.4567 89.9358 34.6106 90.0364 34.7277 90.1734C34.8447 90.3103 34.9198 90.4778 34.9442 90.656C34.9687 90.8341 34.9413 91.0156 34.8654 91.1787ZM33.4415 85.4698C33.8283 86.7282 30.6144 87.2462 30.0778 87.3014C28.6553 87.4464 28.1991 86.3124 29.9738 85.5057C30.8057 85.1272 33.0366 84.1907 33.4234 85.467L33.4415 85.4698Z" fill="#E04747"/><path d="M255.941 165.514C255.159 166.663 254.094 167.594 252.849 168.219C251.604 168.843 250.219 169.14 248.826 169.082C250.437 163.447 246.347 160.564 243.963 161.636C240.56 163.165 242.775 168.931 246.508 170.274C245.757 171.552 244.722 172.641 243.482 173.458C243.401 173.495 243.329 173.549 243.269 173.616C243.209 173.682 243.164 173.76 243.135 173.845C243.106 173.929 243.095 174.018 243.102 174.107C243.109 174.196 243.134 174.283 243.175 174.362C243.216 174.441 243.273 174.511 243.343 174.568C243.412 174.625 243.492 174.667 243.578 174.692C243.664 174.717 243.754 174.724 243.843 174.714C243.932 174.703 244.017 174.675 244.095 174.63C245.906 173.866 247.369 172.461 248.203 170.687C249.968 170.922 251.763 170.594 253.329 169.751C254.895 168.907 256.153 167.59 256.922 165.99C257.179 165.373 256.341 165.044 255.941 165.514ZM247.148 168.706C244.321 167.601 243.162 163.241 245.17 163.355C247.177 163.468 247.717 166.696 247.151 168.706H247.148Z" fill="#E04747"/><path d="M181.822 165.946C181.029 166.714 182.482 177.654 182.765 178.977C184.837 176.347 187.345 174.089 190.181 172.301C190.075 171.491 190.015 170.677 190.003 169.86C186.987 167.954 182.459 165.334 181.822 165.946Z" fill="#E04747"/><path d="M202.13 168.096C204.031 169.918 205.659 172.002 206.965 174.284C207.242 174.923 206.391 175.279 205.975 174.848C203.323 172.085 195.119 163.677 192.027 164.229C189.483 164.682 192.027 175.579 192.235 177.195C192.313 177.814 191.689 178.011 191.339 177.392C190.841 176.315 190.523 175.163 190.396 173.983C183.422 178.453 180.116 186.284 179.72 189.335C180.12 189.636 180.576 189.856 181.061 189.982C181.546 190.107 182.051 190.136 182.547 190.067C183.669 189.91 188.536 185.69 192.199 191.607C196.708 198.891 190.313 208.019 187.194 209.306C190.229 211.484 195.413 212.629 199.653 212.995C200.685 215.888 201.946 218.695 203.423 221.39C204.073 222 213.695 221.897 214.237 221.587C214.779 221.278 215.265 215.953 215.528 213.493C220.49 213.519 225.357 212.138 229.561 209.512C229.668 209.439 229.8 209.411 229.928 209.433C230.057 209.456 230.171 209.526 230.248 209.631C230.325 209.735 230.358 209.866 230.341 209.994C230.324 210.122 230.257 210.239 230.155 210.32C228.338 211.919 226.178 213.085 223.84 213.728C224.594 216.047 226.423 221.239 226.998 221.624C227.574 222.01 237.271 221.85 237.365 221.098C238.049 217.394 239.035 213.751 240.314 210.207C241.444 207.126 253.292 192.388 243.076 176.528C233.563 161.763 210.839 163.937 202.13 168.096ZM184.591 186.882C183.442 186.684 183.898 183.981 184.856 184.065C185.814 184.15 185.656 187.104 184.591 186.929V186.882ZM185.921 181.324C185.414 181.434 184.953 181.696 184.601 182.075C184.172 182.539 183.583 182.018 183.781 181.417C183.924 181.052 184.156 180.729 184.458 180.478C184.76 180.226 185.12 180.056 185.506 179.981C186.306 179.934 186.599 181.21 185.922 181.371L185.921 181.324ZM191.312 186.956C190.105 186.956 190.51 184.046 191.51 184.14C192.509 184.234 192.342 187.023 191.312 187.013V186.956ZM193.054 182.065C192.557 181.623 191.929 181.352 191.264 181.295C190.262 181.196 190.71 179.756 191.632 179.736C192.136 179.731 192.632 179.861 193.067 180.114C193.502 180.367 193.861 180.732 194.104 181.172C194.381 181.923 193.605 182.571 193.057 182.111L193.054 182.065ZM194.381 207.14C195.133 206.806 198.143 206.082 197.387 202.84C197.149 201.818 198.527 201.198 199.008 202.578C200.117 205.774 198.176 208.206 194.807 208.187C194.005 208.189 193.859 207.376 194.381 207.14ZM218.282 168.006C215.821 167.936 213.36 168.128 210.94 168.58C209.197 168.984 208.86 167.831 210.196 167.086C211.908 166.126 216.019 166.006 218.14 166.147C220.261 166.288 220.006 167.979 218.279 168.063L218.282 168.006Z" fill="#E04747"/><path d="M216.901 215.004C216.762 215.67 216.278 219.895 215.958 221.275C218.893 221.652 221.864 221.652 224.798 221.275C223.736 219.055 222.912 216.729 222.339 214.337C221.004 214.647 218.013 214.863 216.901 215.004Z" fill="#E04747"/><path d="M189.909 204.291C194.253 196.638 191.237 189.721 187.082 190.076C183.64 190.37 183.424 191.681 182.021 191.733C180.618 191.786 179.919 190.648 178.251 190.49C173.651 190.066 174.686 199.677 177.063 203.137C180.013 207.439 185.544 211.981 189.909 204.291ZM179.768 200.329C178.243 200.81 177.082 196.206 178.43 195.633C180.004 194.855 181.246 199.861 179.768 200.329ZM186.657 200.431C184.716 200.365 185.3 195.021 186.836 195.118C188.698 195.235 188.015 200.478 186.657 200.431Z" fill="#E04747"/><path d="M190.424 212.374C191.367 215.445 193.77 220.901 194.976 221.389C197.116 221.737 199.289 221.829 201.451 221.665C200.182 219.279 199.107 216.795 198.237 214.238C195.557 213.992 192.926 213.364 190.424 212.374Z" fill="#E04747"/><path d="M216.41 156.256C219.991 156.602 221.817 153.702 221.565 150.115C221.235 145.261 218.591 146.358 219.124 147.598C220.233 150.187 220.066 154.375 216.995 154.425C212.669 154.495 211.96 147.933 213.649 145.627C213.895 145.295 214.209 145.018 214.569 144.814C214.929 144.611 215.329 144.485 215.741 144.445C217.006 144.307 215.232 141.947 212.81 143.965C209.484 146.736 210.435 155.68 216.41 156.256Z" fill="#E04747"/><path d="M262.371 129.61C260.673 129.506 258.977 129.424 257.281 129.365C257.404 127.203 257.262 125.033 256.856 122.905C256.815 122.726 256.709 122.568 256.559 122.461C256.41 122.353 256.226 122.303 256.043 122.32C255.859 122.337 255.687 122.419 255.56 122.552C255.433 122.685 255.358 122.859 255.349 123.043C255.122 125.129 255.084 127.231 255.236 129.324C253.15 129.2 251.058 129.279 248.988 129.559C248.832 129.611 248.697 129.712 248.604 129.848C248.511 129.984 248.465 130.146 248.474 130.31C248.482 130.474 248.544 130.631 248.651 130.756C248.757 130.882 248.902 130.969 249.063 131.005C251.122 131.236 253.193 131.334 255.265 131.296V137.374C255.265 138.529 257.271 138.511 257.271 137.27V131.365C259.006 131.43 260.737 131.516 262.465 131.618C262.728 131.6 262.973 131.479 263.148 131.283C263.323 131.087 263.414 130.83 263.402 130.568C263.39 130.306 263.275 130.059 263.082 129.88C262.889 129.701 262.634 129.604 262.371 129.61Z" fill="#E04747"/><path d="M180.442 104.118C179.454 105.347 178.374 106.495 177.484 107.799C176.996 108.513 178.163 109.404 178.765 108.831C179.898 107.753 180.876 106.521 181.932 105.366C183.318 106.511 184.66 107.69 186.079 108.793C186.873 109.411 188.558 108.259 187.106 107.075L183.251 103.883C184.316 102.691 185.419 101.517 186.465 100.291C186.641 100.116 186.741 99.8781 186.743 99.6299C186.746 99.3817 186.65 99.1424 186.478 98.9633C186.306 98.7841 186.07 98.6792 185.821 98.6711C185.572 98.663 185.329 98.7523 185.145 98.9198C183.934 100.102 182.795 101.356 181.735 102.676C180.492 101.565 179.151 100.569 177.729 99.6989C176.985 99.3605 176.456 100.309 176.861 100.883C177.963 102.057 179.161 103.139 180.442 104.118Z" fill="#E04747"/><path d="M225.767 81.649C225.596 82.2469 225.58 82.8782 225.722 83.4837C225.863 84.0891 226.157 84.6487 226.576 85.1097C226.994 85.5708 227.524 85.9181 228.114 86.1191C228.705 86.3201 229.337 86.368 229.951 86.2584C230.995 85.9295 231.886 85.2394 232.463 84.3129C233.04 83.3864 233.266 82.2847 233.098 81.207C232.361 77.7026 226.492 78.1253 225.767 81.649ZM231.157 82.2872C230.813 84.7569 227.715 85.105 227.519 82.8701C227.281 80.1475 231.491 79.8851 231.157 82.2872Z" fill="#E04747"/><path d="M222.422 73.0295C221.626 68.8746 215.992 69.5528 215.436 73.5157C215.379 74.5427 215.733 75.5502 216.421 76.3169C217.109 77.0836 218.075 77.5467 219.106 77.6044C219.634 77.541 220.143 77.3693 220.602 77.1001C221.06 76.8309 221.458 76.47 221.769 76.0403C222.081 75.6105 222.3 75.1211 222.412 74.603C222.524 74.0848 222.528 73.5491 222.422 73.0295ZM218.97 72.2118C221.929 71.8637 220.563 76.2563 218.876 75.7507C216.147 74.9316 217.133 72.4273 218.97 72.2118Z" fill="#E04747"/><path d="M219.076 85.3571C223.07 81.4158 226.795 77.2123 230.225 72.7748C230.697 71.9211 229.393 71.0302 228.783 71.6697C226.685 73.9171 219.085 81.9936 217.86 84.4109C217.47 85.1858 218.466 85.7701 219.076 85.3571Z" fill="#E04747"/><rect x="70.6951" y="226.31" width="60.297" height="88.381" fill="white"/></g><defs><clipPath id="clip0_5383_31733"><rect width="280" height="174" fill="white" transform="translate(0 53)"/></clipPath></defs></svg>