<svg viewBox="0 0 280 280" fill="none" xmlns="http://www.w3.org/2000/svg"><path d="M139.22 132.567C139.306 132.701 139.425 132.811 139.566 132.887C139.707 132.963 139.866 133.002 140.027 133C140.188 132.998 140.345 132.955 140.484 132.876C140.624 132.797 140.74 132.684 140.822 132.547C140.911 132.421 140.968 132.276 140.99 132.124C141.012 131.972 140.998 131.818 140.949 131.672C140.901 131.526 140.819 131.393 140.71 131.284C140.601 131.175 140.468 131.092 140.321 131.042C139.351 130.76 138.614 131.969 139.22 132.567Z" fill="#111111"/><path d="M141.797 147.611C141.908 147.465 141.976 147.294 141.995 147.114C142.013 146.935 141.982 146.753 141.904 146.589C141.825 146.425 141.703 146.284 141.549 146.18C141.395 146.077 141.215 146.015 141.028 146C140.848 146.019 140.676 146.078 140.524 146.172C140.372 146.267 140.246 146.395 140.155 146.545C140.065 146.696 140.012 146.864 140.002 147.038C139.992 147.211 140.024 147.385 140.097 147.544C140.188 147.678 140.311 147.789 140.455 147.869C140.6 147.948 140.762 147.993 140.929 147.999C141.095 148.006 141.261 147.974 141.412 147.907C141.563 147.839 141.695 147.738 141.797 147.611Z" fill="#111111"/><path d="M141.034 161C140.853 161.02 140.68 161.079 140.528 161.173C140.375 161.267 140.249 161.394 140.157 161.542C140.066 161.691 140.013 161.858 140.002 162.029C139.991 162.2 140.023 162.372 140.095 162.53C140.232 162.746 140.454 162.904 140.713 162.968C140.971 163.032 141.246 162.999 141.479 162.874C141.712 162.75 141.884 162.545 141.959 162.302C142.034 162.06 142.005 161.799 141.88 161.576C141.807 161.417 141.69 161.279 141.541 161.178C141.392 161.076 141.217 161.015 141.034 161Z" fill="#111111"/><path d="M207.334 99.7045C208.413 94.981 204.954 91.7974 213.31 88.0781C217.017 86.4286 217.488 86.4301 217.947 85.5782C217.978 85.5272 217.996 85.4707 217.999 85.4128C218.003 85.3548 217.992 85.2969 217.968 85.2431C217.944 85.1893 217.907 85.141 217.86 85.1017C217.813 85.0623 217.756 85.0329 217.695 85.0156C216.774 84.9356 215.853 85.1659 215.109 85.6623C209.967 87.9528 205.944 89.5311 206.019 94.85C205.945 96.4783 206.092 98.1086 206.457 99.7045C206.485 99.7899 206.543 99.8647 206.622 99.918C206.701 99.9712 206.797 100 206.896 100C206.994 100 207.09 99.9712 207.169 99.918C207.248 99.8647 207.306 99.7899 207.334 99.7045Z" fill="#111111"/><path d="M216.624 88.9632C220.842 87.7226 224.747 85.6876 228.098 82.9828C228.941 82.241 230.023 81.472 230 80.3169C229.994 80.27 229.978 80.2246 229.954 80.1834C229.929 80.1421 229.896 80.1058 229.857 80.0766C229.817 80.0474 229.772 80.0258 229.723 80.0131C229.675 80.0005 229.624 79.9969 229.574 80.0027C228.457 80.2595 227.849 81.2797 227.024 81.9957C223.764 84.828 219.815 86.3389 216.26 88.2085C216.207 88.2309 216.159 88.2628 216.119 88.3025C216.08 88.3422 216.049 88.3888 216.028 88.4397C216.008 88.4906 215.998 88.5448 216 88.5992C216.002 88.6535 216.015 88.707 216.039 88.7566C216.063 88.8061 216.097 88.8508 216.14 88.888C216.182 88.9252 216.232 88.9542 216.286 88.9734C216.34 88.9926 216.398 89.0015 216.456 88.9998C216.514 88.998 216.571 88.9856 216.624 88.9632Z" fill="#111111"/><path d="M220.647 91.9778C224.571 90.5845 228.193 88.4939 231.328 85.813C232.437 85.0527 233.336 84.0396 233.947 82.8628C234.001 82.7417 234.014 82.6068 233.984 82.4779C233.953 82.3491 233.881 82.2332 233.777 82.1474C233.674 82.0615 233.544 82.0104 233.408 82.0014C233.272 81.9925 233.137 82.0262 233.022 82.0976C231.998 82.8429 231.061 83.6949 230.228 84.6383C226.874 87.5526 223.415 89.0889 220.2 91.1304C220.106 91.1986 220.04 91.2969 220.013 91.408C219.986 91.519 220.001 91.6356 220.055 91.7371C220.108 91.8386 220.197 91.9184 220.305 91.9625C220.414 92.0065 220.535 92.012 220.647 91.9778Z" fill="#111111"/><path d="M223.633 93.9771C227.048 92.7501 230.224 90.969 233.027 88.7095C233.803 88.1099 234.767 87.5337 234.992 86.5387C235.005 86.4708 235.002 86.4009 234.983 86.3343C234.965 86.2676 234.931 86.206 234.884 86.1542C234.837 86.1023 234.778 86.0615 234.713 86.0349C234.647 86.0084 234.576 85.9967 234.505 86.0008C233.318 86.1551 233.528 86.6107 229.216 89.5914C227.293 90.923 225.238 92.0209 223.204 93.2025C222.749 93.4392 223.128 94.1343 223.633 93.9771Z" fill="#111111"/><path d="M76.958 67.646C77.3573 64.1283 74.9502 56.947 68.0258 51.3788C67.3991 50.707 66.5758 50.2271 65.6606 50C65.5585 50 65.4578 50.0224 65.3663 50.0655C65.2749 50.1086 65.1952 50.1713 65.1336 50.2485C65.072 50.3257 65.0302 50.4155 65.0113 50.5106C64.9925 50.6058 64.9972 50.7038 65.0251 50.7969C65.3996 51.6174 66.7531 52.3392 68.7981 54.2454C75.1694 60.1878 75.1227 64.7484 76.2571 67.7329C76.3659 68.1424 76.9114 68.0555 76.958 67.646Z" fill="#111111"/><path d="M53.0489 48.6498C55.4762 51.9027 58.7332 54.5084 62.5107 56.2195C63.4569 56.6192 64.749 57.3036 65.7885 56.8507C65.8878 56.7899 65.9589 56.6949 65.9869 56.5854C66.0149 56.4759 65.9977 56.3603 65.9389 56.2626C65.2951 55.4259 63.8916 55.2763 62.9469 54.8536C58.3845 52.8106 56.6411 50.0775 53.7063 48.0603C53.6188 48.012 53.5173 47.9919 53.4168 48.003C53.3164 48.014 53.2224 48.0557 53.1487 48.1218C53.075 48.1879 53.0255 48.275 53.0075 48.3701C52.9895 48.4651 53.0041 48.5632 53.0489 48.6498Z" fill="#111111"/><path d="M48.0511 49.6803C49.4749 52.2223 57.1614 59.1611 60.4819 58.9971C60.5858 58.9946 60.6867 58.9639 60.772 58.9089C60.8573 58.8538 60.9233 58.7768 60.962 58.6873C61.0006 58.5978 61.01 58.4998 60.9892 58.4054C60.9684 58.311 60.9182 58.2243 60.8448 58.156C59.8281 57.4888 58.7417 56.918 57.6018 56.4523C53.0901 53.893 50.4768 50.2137 48.6855 49.0706C48.2822 48.8133 47.8495 49.3151 48.0511 49.6803Z" fill="#111111"/><path d="M45.1299 53.835C46.8354 55.5773 48.684 57.1685 50.6556 58.5913C51.9091 59.5878 54.0118 61.3176 55.7175 60.9494C55.7829 60.929 55.842 60.8919 55.8893 60.8416C55.9365 60.7913 55.9703 60.7296 55.9873 60.6622C56.0044 60.5949 56.0042 60.5242 55.9868 60.457C55.9693 60.3898 55.9352 60.3282 55.8876 60.2782C55.2126 59.6607 54.4251 59.1835 53.5697 58.8737C50.9057 57.3671 48.2432 54.5107 45.6781 53.0781C45.236 52.775 44.7663 53.424 45.1299 53.835Z" fill="#111111"/><path d="M112.431 74.2752C113.182 73.6746 113.702 72.8419 113.905 71.914C114.108 70.9861 113.983 70.0181 113.549 69.1693C113.116 68.3204 112.4 67.6412 111.519 67.2434C110.639 66.8455 109.646 66.7526 108.705 66.98C107.756 64.998 106.874 62.9958 105.906 61.0138C107.329 60.8656 108.756 61.2583 109.892 62.1107C109.959 62.1759 110.049 62.2133 110.144 62.2151C110.238 62.2169 110.33 62.1829 110.399 62.1203C110.469 62.0576 110.511 61.9712 110.517 61.8789C110.523 61.7866 110.492 61.6957 110.431 61.625C109.807 60.909 109.004 60.3622 108.101 60.0373C107.199 59.7125 106.225 59.6203 105.276 59.7698C104.823 58.8847 104.345 58.0228 103.832 57.155C103.793 57.0901 103.732 57.0411 103.659 57.0168C103.586 56.9925 103.507 56.9946 103.435 57.0227C103.364 57.0508 103.305 57.1031 103.27 57.1699C103.235 57.2368 103.225 57.3139 103.243 57.3871C103.484 58.2923 103.76 59.2004 104.084 60.1071C103.804 60.2208 103.536 60.3624 103.286 60.5294C102.813 59.4959 102.341 58.461 101.799 57.4505C101.755 57.3795 101.686 57.326 101.605 57.2994C101.525 57.2728 101.437 57.2748 101.358 57.305C101.278 57.3352 101.212 57.3917 101.171 57.4646C101.13 57.5376 101.116 57.6223 101.132 57.7042C101.438 58.9482 101.819 60.1732 102.274 61.3727C101.653 62.0084 101.236 62.8079 101.075 63.6726C100.913 64.5374 101.014 65.4295 101.365 66.2388C101.715 67.0482 102.3 67.7394 103.048 68.2271C103.795 68.7149 104.672 68.9778 105.57 68.9836C106.591 71.1919 108.403 74.7869 108.478 74.9498C105.981 75.3577 105.436 74.9498 102.791 74.3184C102.7 74.2951 102.604 74.3005 102.517 74.3339C102.43 74.3673 102.356 74.427 102.305 74.5043C102.255 74.5816 102.231 74.6725 102.237 74.764C102.243 74.8555 102.279 74.9427 102.338 75.0132C103.916 76.5685 106.864 76.6997 109.082 76.1303C109.474 77.2223 110.15 78.1958 111.042 78.9556C111.089 78.9833 111.142 78.9986 111.197 78.9999C111.252 79.0012 111.306 78.9884 111.354 78.9629C111.402 78.9374 111.442 78.9 111.471 78.8544C111.499 78.8089 111.515 78.7568 111.517 78.7033C111.372 77.6107 110.958 76.569 110.31 75.6676C111.523 75.1126 111.132 74.9368 111.489 75.5826C111.795 76.3729 112.326 77.0607 113.019 77.5646C113.074 77.5954 113.136 77.6122 113.199 77.6134C113.262 77.6146 113.324 77.6001 113.38 77.5713C113.436 77.5425 113.484 77.5004 113.518 77.4488C113.553 77.3972 113.574 77.3379 113.579 77.2763C113.532 76.4241 113.232 75.6038 112.717 74.9152C112.645 74.6926 112.549 74.4781 112.431 74.2752ZM111.764 72.9894C111.673 72.7818 110.668 70.9411 109.35 68.2456C111.87 67.8102 113.631 70.6398 111.764 72.9894ZM104.611 61.3929C105.429 63.4109 106.4 65.4203 107.369 67.3807C107.046 67.4657 106.744 67.5493 106.42 67.6128C105.558 65.6942 104.762 63.754 103.916 61.8354C104.127 61.6586 104.361 61.5098 104.611 61.3929ZM102.908 62.9958C103.533 64.5136 104.202 66.0113 104.891 67.5075C104.422 67.3889 103.987 67.1667 103.619 66.8582C103.252 66.5496 102.961 66.1627 102.77 65.7273C102.578 65.2918 102.491 64.8192 102.515 64.3458C102.539 63.8723 102.674 63.4105 102.908 62.9958ZM109.759 74.5101C108.939 72.9029 107.774 70.5216 107.024 68.8884C107.354 68.8229 107.678 68.7313 107.993 68.6146C108.73 70.1108 110.558 73.6741 110.73 73.9898C110.418 74.1835 110.094 74.3573 109.759 74.5101Z" fill="#111111"/><path d="M190.539 3.86424C190.766 2.99259 190.979 2.14417 191.13 1.27106C191.178 0.995034 190.764 0.761139 190.607 1.05896C189.106 3.90056 189.968 3.52866 188.674 3.35432C188.985 2.37661 189.279 1.39745 189.539 0.3994C189.626 0.0594531 189.106 -0.17299 188.924 0.165505C188.364 1.23175 187.862 2.32422 187.422 3.43858C186.589 3.54777 185.806 3.87526 185.164 4.38309C184.522 4.89091 184.047 5.55827 183.795 6.30778C183.543 7.05729 183.523 7.85826 183.738 8.61782C183.953 9.37738 184.394 10.0644 185.011 10.5993C184.211 13.1939 183.558 15.6273 183.328 16.4219C181.337 15.4922 181.057 14.5784 179.778 12.9789C179.554 12.7 178.98 12.7465 179.001 13.1707C179.198 14.1723 179.674 15.1078 180.381 15.8834C181.088 16.6591 182 17.2476 183.028 17.59C182.648 18.5688 182.508 19.6149 182.618 20.6509C182.631 20.696 182.657 20.7372 182.692 20.7704C182.727 20.8036 182.771 20.8278 182.819 20.8405C182.867 20.8532 182.918 20.8541 182.966 20.843C183.015 20.8319 183.06 20.8093 183.096 20.7773C183.626 20.189 183.69 19.7488 184.166 17.9735C184.477 18.0374 184.826 18.0796 185.144 18.1188C184.805 18.966 184.703 19.88 184.847 20.7744C184.866 20.8259 184.898 20.8724 184.941 20.9096C184.983 20.9469 185.035 20.9739 185.091 20.9882C185.147 21.0026 185.206 21.0038 185.263 20.9919C185.32 20.9799 185.372 20.9551 185.417 20.9197C186.093 20.2878 186.093 19.4393 186.487 18.0926C191.274 17.465 191.802 12.2554 188.442 10.9116C189.011 8.99832 189.626 7.10827 190.195 5.19498C190.741 5.53005 191.21 5.96411 191.573 6.47143C191.936 6.97874 192.187 7.54901 192.31 8.14845C192.383 8.50874 192.978 8.40414 192.993 8.06419C193.041 7.2204 192.837 6.38073 192.404 5.63903C191.97 4.89734 191.325 4.28285 190.539 3.86424ZM186.899 4.90443C186.375 6.3078 185.921 7.75184 185.488 9.17555C185.232 8.81999 185.064 8.41536 184.997 7.99134C184.93 7.56733 184.965 7.13468 185.101 6.72511C185.236 6.31554 185.468 5.93945 185.779 5.62441C186.09 5.30936 186.473 5.06336 186.899 4.90443ZM184.51 16.7619C184.892 15.3309 185.207 14.1121 186.079 11.2792C186.35 11.4085 186.632 11.5154 186.922 11.5988C186.099 14.3866 185.533 16.6936 185.488 16.8897C185.159 16.8692 184.832 16.8265 184.51 16.7619ZM187.263 16.6166L186.854 16.743C186.971 16.3624 187.135 15.5154 188.128 12.068C188.556 12.3445 188.891 12.7301 189.091 13.1791C189.292 13.6281 189.35 14.1214 189.259 14.6004C189.168 15.0793 188.931 15.5237 188.577 15.8807C188.223 16.2376 187.767 16.4921 187.263 16.6137V16.6166ZM186.467 10.0501C187.058 8.22254 187.695 6.41821 188.31 4.60951C188.57 4.60963 188.831 4.63101 189.087 4.67343C188.405 6.56203 187.843 8.49857 187.291 10.3901C187.008 10.2933 186.733 10.1788 186.467 10.0472V10.0501Z" fill="#111111"/><path d="M196.109 73.4325C193.943 70.8004 188.537 68.6252 185.423 71.0576C185.372 71.1082 185.338 71.1717 185.324 71.2403C185.311 71.3089 185.319 71.3797 185.347 71.4442C185.375 71.5087 185.423 71.5641 185.484 71.6038C185.545 71.6436 185.617 71.6659 185.691 71.6682C199.112 70.0964 198.187 83.7123 192.637 86.5255C181.337 92.2494 175.776 77.2987 183.907 72.0676C183.969 72.0285 184.014 71.9689 184.031 71.9005C184.048 71.8322 184.038 71.7602 184.001 71.699C183.964 71.6378 183.904 71.5919 183.833 71.5705C183.761 71.5491 183.684 71.5537 183.616 71.5834C176.338 75.0574 178.153 86.6418 185.655 88.6892C187.673 89.1955 189.811 89.0809 191.755 88.3622C193.698 87.6435 195.345 86.3586 196.452 84.6965C198.363 81.267 198.783 76.6838 196.109 73.4325Z" fill="#111111"/><path d="M184.084 82.9803C184.499 83.5143 185.026 83.9555 185.629 84.2745C186.231 84.5936 186.897 84.7832 187.58 84.8307C187.539 85.5174 187.64 86.2053 187.877 86.8527C187.99 87.1059 188.371 86.9982 188.441 86.7887C188.623 86.1669 188.682 85.5165 188.615 84.8729C193.69 84.563 194.1 80.0214 191.177 79.0438C190.302 78.8406 189.394 78.8041 188.505 78.9361C188.548 77.8305 188.613 76.7031 188.613 75.5903C189.752 75.5441 190.885 75.7708 191.915 76.2507C192.259 76.3845 192.391 75.8899 192.154 75.7183C191.132 74.956 189.875 74.5583 188.591 74.5909C188.569 74.1225 188.523 73.6758 188.46 73.2292C188.416 72.9092 187.896 72.9383 187.831 73.2292C187.723 73.7142 187.636 74.2248 187.57 74.7611C184.192 75.7066 183.79 79.6824 187.504 80.0592C187.504 80.1232 187.527 82.442 187.549 83.5505C186.571 83.2475 185.643 82.8101 184.791 82.2515C184.369 82.0172 183.78 82.5337 184.084 82.9803ZM191.685 82.0216C191.387 82.5668 190.93 83.0133 190.374 83.3051C189.817 83.5968 189.185 83.7207 188.557 83.6611C188.557 83.6393 188.514 81.2346 188.514 80.065C190.494 80.065 192.351 80.193 191.685 82.0216ZM187.277 78.8736C185.263 78.4037 186.213 76.6173 187.494 75.9365C187.354 79.0656 187.767 78.9871 187.277 78.8736Z" fill="#111111"/><path d="M111.129 8.50354C107.969 6.61677 101.77 6.0638 99.5015 9.48031C99.2499 9.86056 99.7315 10.1683 100.09 10.0318C103.007 8.92879 106.026 8.20891 109.053 9.37436C114.966 11.6515 115.777 20.3176 112.552 23.4917C102.484 33.3973 91.4195 18.6776 98.2605 11.0463C98.3233 10.9872 98.3586 10.9071 98.3586 10.8235C98.3586 10.74 98.3233 10.6598 98.2605 10.6008C98.2293 10.5715 98.1924 10.5483 98.1518 10.5325C98.1111 10.5166 98.0675 10.5085 98.0235 10.5085C97.9347 10.5085 97.8494 10.5417 97.7866 10.6008C89.7308 17.6239 100.553 34.1999 112.281 25.5672C113.25 24.9161 114.067 24.0845 114.681 23.124C115.295 22.1635 115.692 21.0947 115.848 19.9838C116.484 15.7429 115.17 10.923 111.129 8.50354Z" fill="#111111"/><path d="M104.65 17.7425C104.729 17.9807 104.972 18.8977 105.833 21.464C104.712 21.457 103.598 21.2957 102.522 20.9847C101.995 20.8716 101.448 21.5697 101.952 21.9642C102.565 22.4037 103.265 22.7103 104.005 22.8642C104.746 23.018 105.51 23.0157 106.25 22.8574C106.437 23.5987 106.772 24.295 107.237 24.9042C107.286 24.9504 107.347 24.9815 107.414 24.994C107.48 25.0064 107.548 24.9995 107.611 24.9742C107.674 24.9489 107.727 24.9063 107.766 24.8513C107.805 24.7964 107.827 24.7315 107.829 24.6646C107.826 23.9453 107.669 23.235 107.369 22.5805C110.136 21.665 111.982 18.8694 110.44 16.6573C109.131 14.7802 107.127 15.6778 105.329 16.2435C105.001 15.0675 104.716 13.8483 104.363 12.6515C105.535 12.23 106.796 12.1102 108.027 12.3032C108.422 12.3463 108.447 11.7747 108.116 11.6497C106.794 11.1422 105.334 11.1116 103.991 11.5633C103.82 11.0878 103.622 10.6221 103.399 10.1685C103.359 10.1037 103.299 10.0534 103.228 10.0252C103.157 9.99699 103.078 9.99232 103.004 10.0119C102.93 10.0315 102.865 10.0742 102.817 10.1339C102.77 10.1935 102.743 10.2667 102.741 10.3427C102.776 10.9216 102.857 11.497 102.982 12.0635C99.7784 14.1237 100.546 18.5285 104.65 17.7425ZM109.606 18.0403C109.938 19.6301 108.312 20.8061 106.997 21.2199C106.962 21.2368 106.924 21.244 106.886 21.2408C106.47 19.9784 106.054 18.6938 105.658 17.4091C106.033 17.4136 109.128 15.7538 109.606 18.0403ZM103.267 13.3601C104.125 16.5665 104.402 16.5174 104.233 16.5174C102.118 16.8985 101.545 14.9365 103.267 13.3646V13.3601Z" fill="#111111"/><path d="M155.334 91.8266C156.567 87.8161 155.706 87.5907 155.728 85.2344C155.72 85.0773 155.661 84.9268 155.559 84.8048C155.457 84.6827 155.318 84.5954 155.161 84.5556C146.75 82.7894 141.796 76.6318 141.653 69.65C141.758 68.6257 141.787 67.5952 141.739 66.5668C141.729 66.4355 141.675 66.3109 141.587 66.2115C141.498 66.1121 141.379 66.043 141.247 66.0146C141.115 65.9861 140.977 65.9996 140.853 66.0533C140.73 66.1069 140.627 66.1977 140.561 66.3124C139.542 68.0772 140.113 71.9525 140.692 73.9237C141.569 76.8468 143.237 79.4865 145.521 81.5661C147.804 83.6458 150.62 85.089 153.672 85.7446C154.239 85.8725 154.329 85.7664 154.568 86.2767C154.924 88.055 155.004 89.8753 154.806 91.6769C154.805 92.017 155.237 92.1232 155.334 91.8266Z" fill="#111111"/><path d="M150.807 78.3499C148.087 76.7948 146.087 73.5444 146.517 68.3055C146.862 67.013 146.959 65.668 146.803 64.3401C146.775 64.2597 146.727 64.1876 146.664 64.1306C146.6 64.0735 146.523 64.0332 146.439 64.0136C146.356 63.994 146.269 63.9956 146.186 64.0183C146.103 64.041 146.028 64.0841 145.967 64.1435C144.992 65.2517 145.093 67.3029 145.021 68.7404C144.741 74.3086 147.35 77.8271 150.542 78.9815C150.625 79.0097 150.716 79.0055 150.796 78.9697C150.876 78.9339 150.94 78.8692 150.974 78.7887C151.007 78.7083 151.009 78.6181 150.978 78.5366C150.947 78.4551 150.886 78.3883 150.807 78.3499Z" fill="#111111"/><path d="M152.981 75.5395C151.199 69.9389 152.644 68.3766 152.835 65.4938C152.848 65.4055 152.838 65.3144 152.804 65.2338C152.77 65.1533 152.715 65.0876 152.647 65.0465C152.58 65.0054 152.502 64.991 152.427 65.0055C152.351 65.0199 152.282 65.0624 152.229 65.1268C150.304 67.4466 150.849 73.1268 152.431 75.8623C152.626 76.1644 153.099 75.9301 152.981 75.5395Z" fill="#111111"/><path d="M157.234 76.5839C156.342 70.7127 158.055 67.774 157.999 66.4386C157.985 66.1267 157.644 65.859 157.42 66.0826C156.375 67.1261 156.145 69.3742 156.041 70.9104C155.898 72.905 156.133 74.9123 156.73 76.7831C156.752 76.8628 156.8 76.9287 156.863 76.9664C156.926 77.004 156.999 77.0103 157.066 76.9839C157.132 76.9575 157.188 76.9005 157.219 76.8255C157.251 76.7505 157.256 76.6635 157.234 76.5839Z" fill="#111111"/><path d="M140.63 84.0442C140.402 84.0201 140.172 84.054 139.961 84.1428C139.75 84.2316 139.564 84.3724 139.422 84.5522C138.285 86.1049 139.7 87.4928 140.681 86.8306C141.162 86.4974 141.568 86.068 141.875 85.5697C141.974 85.3839 142.015 85.1731 141.995 84.9636C141.974 84.7541 141.893 84.5553 141.76 84.3922C141.627 84.2292 141.448 84.1092 141.247 84.0472C141.046 83.9853 140.832 83.9843 140.63 84.0442Z" fill="#111111"/><path d="M146.633 88.0419C146.402 88.0164 146.17 88.0502 145.956 88.1401C145.742 88.2299 145.555 88.3729 145.411 88.5556C144.114 90.3327 146.147 92.4742 147.875 89.5798C147.974 89.3932 148.015 89.1817 147.995 88.9715C147.975 88.7613 147.893 88.5619 147.761 88.3979C147.628 88.234 147.45 88.1128 147.25 88.0495C147.049 87.9862 146.835 87.9836 146.633 88.0419Z" fill="#111111"/><path d="M143.451 87.0115C142.215 87.4432 141.063 88.052 140.04 88.8148C138.975 89.3142 138.009 89.9703 137.181 90.7563C135.889 92.6003 141.976 93.7587 141.241 92.4214C140.696 91.6085 139.573 91.5435 138.883 91.2129C140.736 90.1922 142.438 88.9601 143.946 87.5467C144.149 87.2486 143.736 86.9356 143.451 87.0115Z" fill="#111111"/><path d="M143.298 93.4735C137.059 93.9774 136.903 92.8377 135.769 92.0869C135.713 92.042 135.644 92.0131 135.57 92.0035C135.497 91.9939 135.422 92.0042 135.354 92.033C135.287 92.0618 135.23 92.108 135.19 92.166C135.151 92.224 135.13 92.2912 135.131 92.3597C135.166 94.8802 139.374 95.0051 141.952 94.8587C137.873 99.9084 134.281 99.04 134.674 96.1606C134.807 95.1931 135.601 94.329 135.267 93.3673C134.955 92.4702 132.708 94.0592 133.032 97.0419C133.405 100.475 138.531 102.353 143.914 94.4381C143.972 94.3392 144.002 94.228 144 94.1154C143.998 94.0029 143.964 93.8927 143.902 93.7956C143.84 93.6986 143.752 93.6179 143.646 93.5615C143.54 93.505 143.42 93.4747 143.298 93.4735Z" fill="#111111"/><path d="M233.604 91.9182C230.003 93.7533 226.722 96.0363 222.726 97.0822C221.282 97.444 218.997 97.5082 218.021 98.7248C217.759 99.0754 217.576 99.4748 217.484 99.8974C217.392 100.32 217.394 100.756 217.488 101.178C216.736 101.216 215.99 101.338 215.267 101.542C212.087 101.902 208.864 101.685 205.766 100.901C205.717 100.858 205.659 100.827 205.595 100.81C205.531 100.792 205.464 100.79 205.399 100.803C205.334 100.815 205.273 100.842 205.221 100.882C205.169 100.921 205.128 100.972 205.1 101.03C204.39 102.663 199.343 124.789 201.126 133.162C201.216 133.654 201.885 133.454 201.948 133.055C202.468 129.206 202.051 125.897 203.368 116.882C205.719 101.447 205.713 104.986 205.967 102.003C208.904 103.006 212.057 103.285 215.135 102.814C216.067 102.685 217.398 102.668 218.065 101.982C219.138 109.304 221.982 118.722 222.466 130.466C222.715 136.116 222.748 143.012 218.138 146.597C211.065 152.16 189.4 147.019 180.649 144.555C181.077 142.799 181.061 140.97 180.603 139.22C180.58 139.144 180.532 139.077 180.466 139.03C180.4 138.982 180.32 138.956 180.237 138.956C180.155 138.956 180.075 138.982 180.009 139.03C179.943 139.077 179.895 139.144 179.872 139.22C179.608 140.58 179.444 141.956 179.383 143.338C176.487 165.297 172.289 170.17 171.946 172.016C164.905 168.82 142.09 169.509 134.673 169.796C131.253 169.924 127.058 169.776 124.06 171.631C118.883 163.068 117.346 137.761 115.669 127.868C115.602 127.441 114.884 127.549 114.892 127.975C114.937 130.494 115.136 133.01 115.313 135.528C110.661 134.116 106.182 132.22 101.957 129.874C76.1552 114.496 72.8904 82.7892 67.8803 73.949C70.7428 73.8192 76.4208 70.8142 78.0493 68.9498C79.2514 70.8171 88.7116 79.9723 99.0856 97.6978C99.4277 98.4534 99.8923 99.1521 100.462 99.7678C100.55 99.8467 100.661 99.8966 100.781 99.91C100.9 99.9235 101.021 99.8998 101.125 99.8425C101.229 99.7852 101.311 99.6973 101.36 99.5917C101.408 99.4861 101.42 99.3684 101.394 99.2558C101.116 97.603 91.3768 82.1882 81.6373 71.1759C80.9407 70.3853 78.4697 67.0914 77.3739 67.6545C76.5555 68.1789 75.77 68.7493 75.0214 69.3627C73.188 70.5933 71.1755 71.5568 69.049 72.2219C68.7125 71.1844 68.2818 70.1774 67.7619 69.2124C67.3787 68.2088 66.7 67.334 65.8086 66.6946C62.43 64.4029 60.6254 66.8755 44.6964 58.0528C44.2745 57.8194 43.7418 58.4161 44.1409 58.737C47.9378 61.6671 52.258 63.9083 56.8902 65.3511C62.26 67.157 64.8964 66.5881 66.3246 69.5975C66.7299 70.677 67.2044 71.7312 67.7452 72.7543C67.0425 73.1307 66.5052 73.2897 66.613 73.7755C67.4027 76.7405 68.3588 79.6623 69.477 82.5281C70.3877 85.3231 71.2755 88.14 72.209 90.9145C77.2039 105.917 84.8155 120.837 99.5378 130.409C104.275 133.659 109.678 135.899 115.388 136.981C115.952 143.586 118.396 167.433 123.069 172.314C122.822 172.881 122.701 173.492 122.714 174.107C122.072 174.724 110.479 196.347 104 218.659C100.785 229.705 98.3176 243.067 98.6712 253.16C98.6413 256.99 99.6515 260.761 101.602 264.101C105.633 270.228 113.181 272.562 119.562 267.111C118.563 262.246 119.41 257.337 120.05 252.409C121.702 238.891 124.949 225.598 129.729 212.786C131.355 208.289 133.268 203.893 135.457 199.622C135.577 199.44 135.76 199.304 135.974 199.24C136.188 199.176 136.418 199.187 136.624 199.272C136.83 199.357 136.998 199.509 137.098 199.702C137.197 199.895 137.221 200.116 137.166 200.325C135.474 205.745 126.694 218.472 121.183 253.732C120.472 258.383 119.513 263.44 120.45 268.135C121.097 269.749 121.995 271.259 123.113 272.615C129.881 280.93 142.808 281.892 153.35 277.16C160.543 273.938 165.538 267.986 170.244 262.033C180.158 249.487 185.119 238.193 192.332 224.201C192.448 223.996 192.478 223.756 192.416 223.53C192.354 223.305 192.206 223.11 192 222.986C190.179 221.705 188.357 220.446 186.536 219.167C187.002 218.583 187.424 217.972 187.89 217.416C188.248 217.06 188.581 216.682 188.889 216.286C189.034 216.408 189.149 216.561 189.223 216.733C193.418 220.281 202.866 218.449 209.913 219.016C214.112 219.346 220.865 222.843 224.098 218.057C224.518 217.516 224.783 216.878 224.865 216.207C224.946 215.537 224.843 214.857 224.564 214.237C224.183 213.508 209.178 205.494 208.492 205.126C206.802 204.04 204.984 203.152 203.075 202.48C202.537 202.36 201.979 202.344 201.434 202.432C200.89 202.52 200.368 202.711 199.9 202.993C199.774 202.226 199.921 201.215 199.545 200.773C199.002 200.137 191.349 196.919 188.978 196.122C188.139 195.839 186.014 198.381 184.871 201.243C184.684 201.332 184.483 201.494 184.316 201.389C184.045 201.224 184.164 201.345 184.115 200.961C184.168 200.269 184.131 199.574 184.005 198.891C183.583 197.889 181.896 197.377 180.986 196.907C175.381 194.034 175.258 193.99 174.57 193.578C174.594 193.955 174.658 194.875 174.658 195.285C182.121 199.211 182.426 199.033 182.628 199.574C182.924 200.356 182.003 202.464 183.85 202.796C184.706 202.951 184.247 202.128 183.073 207.214C182.669 208.487 182.677 209.848 183.095 211.117C182.465 211.732 181.878 212.388 181.341 213.081C180.946 212.75 180.726 213.059 178.855 212.789C179.284 211.184 176.109 208.567 173.615 209.054C173.557 209.07 173.504 209.1 173.462 209.141C173.419 209.183 173.389 209.234 173.373 209.29C173.358 209.347 173.358 209.406 173.374 209.462C173.39 209.518 173.421 209.569 173.464 209.61C174.658 210.523 176.912 210.413 177.525 212.405C177.592 212.598 177.615 212.725 177.659 212.875C176.902 213.69 176.193 214.545 175.534 215.435C174.934 216 174.458 216.674 174.134 217.419C173.779 217.184 173.447 216.971 173.092 216.758C172.715 216.461 172.286 216.23 171.826 216.076C171.716 216.049 171.601 216.055 171.495 216.091C171.389 216.127 171.296 216.192 171.227 216.278C171.159 216.364 171.118 216.468 171.11 216.576C171.102 216.684 171.127 216.792 171.182 216.887C171.504 217.265 171.895 217.583 172.337 217.825C172.67 218.059 172.981 218.294 173.313 218.507C171.822 219.574 170.426 220.759 169.14 222.049C163.632 239.289 153.658 260.889 150.825 263.332C150.709 263.436 150.562 263.5 150.405 263.517C150.248 263.534 150.09 263.501 149.954 263.425C149.817 263.348 149.71 263.231 149.649 263.092C149.587 262.952 149.573 262.797 149.61 262.65C150.388 260.819 151.339 259.061 152.452 257.398C158.644 245.523 163.753 233.154 167.722 220.43C171.856 207.276 172.705 201.535 173.471 193.653L173.338 193.781C173.62 187.698 173.294 181.603 172.362 175.58C173.593 170.253 172.342 175.113 174.781 169.307C177.8 162.159 179.265 153.363 180.442 145.667C187.728 148.208 201.412 150.836 209.48 150.424C215.603 150.132 220.089 148.567 222.466 143.085C225.966 135.074 222.534 116.43 220.734 107.985C219.045 99.9545 218.1 99.7882 220.78 99.2149C225.837 98.3924 230.458 95.9572 233.9 92.3018C233.952 92.2641 233.988 92.2077 233.997 92.1451C234.007 92.0824 233.99 92.0186 233.951 91.9678C233.912 91.9169 233.853 91.8831 233.788 91.8738C233.723 91.8645 233.656 91.8805 233.604 91.9182ZM185.49 203.618C186.178 201.304 187.408 199.173 189.086 197.387C189.499 196.99 188.603 197.46 196.479 200.929C197.034 201.108 197.563 201.353 198.054 201.659C198.391 201.972 197.945 202.268 198.543 204.241C198.603 204.434 198.738 204.597 198.92 204.697C199.102 204.796 199.317 204.824 199.521 204.774C200.498 204.411 201.94 204.219 202.606 203.387C202.606 203.365 202.629 203.365 202.629 203.345C204.192 204.552 205.89 205.589 207.691 206.437C223.003 214.898 221.806 214.373 223.252 214.93C223.069 218.439 220.596 219.528 217.014 218.898C214.078 218.049 211.043 217.555 207.979 217.426C203.568 217.305 198.634 217.952 194.104 217.32C192.572 217.107 191.549 216.38 190.041 216.103C190.344 214.779 188.887 213.202 187.954 212.31C187.043 211.435 185.534 210.347 184.225 210.774C184.135 210.708 184.026 210.67 183.913 210.668C184.052 208.252 184.586 205.873 185.496 203.618H185.49ZM184.358 211.81C184.896 211.87 185.414 212.04 185.877 212.309C186.341 212.578 186.739 212.939 187.045 213.368C187.665 213.881 188.132 214.544 188.398 215.288C187.711 215.502 187.243 216.27 186.844 216.782C186.358 217.359 185.92 217.973 185.534 218.617C184.047 217.572 182.56 216.547 181.095 215.502C182.117 214.217 183.208 212.985 184.364 211.81H184.358ZM178.254 213.561C178.929 214.005 179.748 214.202 180.562 214.115C180.401 214.35 180.252 214.594 180.118 214.844C180.029 214.78 179.966 214.738 179.873 214.674C179.731 214.595 179.571 214.554 179.407 214.554C179.244 214.554 179.083 214.595 178.941 214.674C174.482 217.4 176.004 217.174 178.26 213.561H178.254ZM131.922 199.349C129.673 197.838 127.884 198.513 126.704 198.182C126.643 198.166 126.587 198.135 126.542 198.091C126.497 198.047 126.466 197.993 126.45 197.933C126.435 197.874 126.436 197.811 126.454 197.753C126.472 197.694 126.506 197.641 126.553 197.599C128.222 196.318 131.038 197.685 132.391 198.793C132.706 199.052 132.267 199.577 131.928 199.349H131.922ZM137.96 196.512C137.922 196.628 137.847 196.729 137.745 196.801C137.643 196.873 137.52 196.911 137.394 196.911C137.268 196.911 137.145 196.873 137.043 196.801C136.941 196.729 136.866 196.628 136.828 196.512C135.79 190.093 139.391 175.79 140.891 174.339C141.135 174.339 141.357 174.339 141.601 174.317C141.973 174.765 139.97 180.395 139.048 185.476C137.993 191.398 138.429 193.428 137.974 196.512H137.96ZM147.085 201.462C145.368 201.377 144.465 200.162 141.046 199.968C140.392 200.001 139.736 199.959 139.092 199.841C139.024 199.822 138.963 199.784 138.917 199.732C138.87 199.68 138.84 199.616 138.831 199.548C138.822 199.48 138.833 199.411 138.864 199.35C138.895 199.288 138.943 199.236 139.004 199.2C140.427 198.657 141.999 198.589 143.467 199.008C144.776 199.265 146.684 199.737 147.395 200.929C147.428 200.982 147.447 201.042 147.449 201.104C147.451 201.165 147.435 201.226 147.404 201.28C147.374 201.335 147.328 201.38 147.273 201.412C147.218 201.444 147.155 201.461 147.091 201.462H147.085ZM170.927 174.912C155.85 172.618 140.518 172.295 125.35 173.952H123.907C123.907 172.371 123.907 173.007 124.197 172.629C128.362 171.427 129.485 171.049 147.994 171.049C154.051 170.918 160.108 171.325 166.087 172.266C169.297 172.839 169.73 173.134 171.082 173.418C171.089 173.922 171.039 174.426 170.934 174.919L170.927 174.912Z" fill="#111111"/><path d="M198.946 123.368C197.41 121.2 183.018 112.421 167.265 109.605C163.672 108.769 159.965 108.476 156.277 108.738C156.019 108.305 152.641 105.513 151.775 105.547C151.35 105.372 151.312 105.798 151.021 106.35C150.975 104.893 151.252 103.443 151.834 102.097C153.985 103.049 157.743 102.183 158.677 99.9863C159.009 99.1888 159.128 98.3248 159.024 97.4722C158.92 96.6195 158.596 95.8051 158.081 95.1023C160.054 94.3175 161.747 93.0035 162.958 91.3183C163.657 90.4379 164.14 89.4186 164.373 88.3355C164.606 87.2524 164.583 86.133 164.304 85.0598C163.387 81.8106 159.495 80.2799 160.442 75.6532C160.88 74.6174 161.255 73.5587 161.568 72.482C161.741 71.3141 158.931 72.1207 158.611 76.5407C158.214 82.2976 164.609 84.2157 162.429 89.4783C161.35 92.1639 158.716 93.1207 157.618 94.6167C157.618 94.6369 157.595 94.6369 157.595 94.6586C156.49 93.5977 153.584 93.2768 153.27 95.2368C153.227 95.5259 153.447 95.8915 153.8 95.8294C154.62 95.545 155.525 95.5829 156.316 95.9349C156.784 96.3867 157.105 96.9581 157.242 97.5806C157.379 98.203 157.326 98.8501 157.089 99.4443C156.741 99.9947 156.248 100.447 155.659 100.755C155.07 101.063 154.406 101.217 153.735 101.199C153.121 101.16 152.531 100.954 152.035 100.606C151.539 100.258 151.156 99.781 150.932 99.2318C150.911 99.1708 150.869 99.1181 150.814 99.0816C150.759 99.045 150.693 99.0266 150.626 99.029C150.559 99.0315 150.494 99.0546 150.442 99.0951C150.39 99.1356 150.353 99.1912 150.336 99.2535C150.248 99.6047 150.238 99.9697 150.307 100.325C150.376 100.68 150.522 101.017 150.736 101.315C150.165 102.257 149.853 103.323 149.831 104.412C149.584 105.621 149.722 106.873 150.228 108.005C149.663 108.904 149.037 109.766 148.352 110.585C146.551 112.725 145.776 113.043 145.24 113.735C145.121 113.392 141.84 111.522 139.96 108.831C140.446 108.133 140.159 106.97 140.049 106.187C139.987 105.697 139.899 105.211 139.787 104.73C143.015 104.496 146.099 103.356 148.654 101.452C149.162 101.03 148.544 100.296 147.993 100.459C146.216 100.982 136.18 105.662 132.657 101.368C129.442 97.3557 132.778 91.7042 135.504 87.647C137.573 84.8228 139.852 82.1448 142.323 79.6338C142.653 79.2537 142.145 78.622 141.704 78.9371C138.571 81.397 135.905 84.358 133.826 87.6889C131.665 90.902 129.326 94.8349 129.921 98.8098C130.074 100.276 130.728 101.653 131.782 102.727C132.835 103.801 134.229 104.512 135.747 104.75C135.809 104.75 137.162 104.769 138.556 104.805C138.811 105.608 138.913 106.449 138.857 107.287C138.188 106.324 138.09 105.142 136.343 106.23C135.647 106.677 135.029 107.227 134.511 107.858C133.473 105.532 130.163 105.427 128.326 107.054C125.276 103.944 123.764 106.226 122.369 105.898C120.732 105.522 120.586 105.308 113.058 102.938C104.863 100.301 101.208 99.1798 98.0519 103.467C97.8543 103.72 98.2691 103.97 98.4939 103.783C101.983 100.893 101.632 100.634 113.697 104.587C123.165 107.635 122.71 107.588 123.295 107.525C124.475 107.413 124.954 105.382 127.821 108.667C127.903 108.745 128.003 108.803 128.112 108.839C128.222 108.874 128.338 108.885 128.453 108.871C128.568 108.857 128.677 108.819 128.774 108.758C128.871 108.698 128.953 108.617 129.012 108.523C130.269 106.619 132.542 107.317 133.602 108.967C133.663 109.065 133.753 109.145 133.86 109.196C133.968 109.247 134.088 109.267 134.207 109.253C134.326 109.24 134.439 109.194 134.531 109.12C134.623 109.047 134.691 108.949 134.727 108.839C135.341 108.15 136.052 107.545 136.839 107.043C137.059 106.916 137.258 106.704 137.435 106.788C138.843 109.903 141.205 112.535 144.208 114.336C142.631 116.161 141.514 118.309 140.944 120.615C138.842 118.266 137.292 115.512 136.398 112.54C136.24 111.491 135.988 110.459 135.644 109.452C135.609 109.399 135.558 109.357 135.498 109.331C135.438 109.305 135.372 109.296 135.307 109.305C135.242 109.314 135.181 109.34 135.131 109.382C135.082 109.423 135.046 109.477 135.027 109.537C134.62 111.161 136.118 117.821 140.808 122.37C140.888 122.442 140.986 122.493 141.092 122.519C141.199 122.545 141.31 122.544 141.416 122.516C141.522 122.488 141.619 122.435 141.698 122.362C141.776 122.288 141.833 122.196 141.864 122.095C142.441 119.479 143.543 116.994 145.107 114.78C145.212 114.846 145.335 114.883 145.46 114.885C147.127 117.284 148.652 119.77 150.028 122.332C150.063 122.392 150.112 122.444 150.171 122.482C150.231 122.521 150.299 122.545 150.37 122.553C150.441 122.562 150.513 122.554 150.581 122.53C150.648 122.506 150.708 122.468 150.757 122.417C153.001 119.958 154.57 117.002 155.322 113.816C155.8 112.765 155.997 111.617 155.895 110.476C155.876 110.409 155.839 110.349 155.788 110.3C155.737 110.252 155.674 110.218 155.604 110.201C155.535 110.183 155.461 110.184 155.392 110.203C155.323 110.221 155.26 110.257 155.21 110.306C154.679 111.093 154.361 111.993 154.284 112.927C153.699 115.956 152.418 118.823 150.534 121.32C149.35 118.95 147.923 116.698 146.275 114.598C148.117 113.469 151.925 108.625 152.143 106.733C154.37 108.391 155.263 109.48 155.63 109.624C156.823 110.195 164.727 109.264 178.204 113.916C191.27 118.441 195.987 123.238 198.57 124C198.835 123.961 199.122 123.623 198.946 123.368Z" fill="#111111"/><path d="M160.946 36.2708C160.006 35.0724 150.316 30.3654 149.374 31.0718C148.893 31.6101 148.479 32.2016 148.139 32.8342C145.878 36.009 142.739 38.4947 139.088 40.004C135.437 41.5133 131.422 41.9843 127.508 41.3626C127.482 41.3095 127.439 41.2665 127.385 41.2405C127.331 41.2146 127.269 41.2072 127.21 41.2196C127.151 41.2321 127.099 41.2636 127.06 41.309C127.022 41.3544 127.001 41.4111 127 41.4698C127.429 46.2444 129.284 50.7919 132.335 54.551C132.644 55.0498 133.03 55.4991 133.48 55.8831C133.946 56.1592 134.535 55.8757 135.046 55.7538C141.81 54.1457 148.441 51.1085 152.829 45.701C155.064 42.9502 156.109 39.5767 160.853 36.7217C160.925 36.6731 160.976 36.5989 160.993 36.5147C161.011 36.4306 160.994 36.3431 160.946 36.2708ZM157.53 37.1726C157.567 37.2608 157.582 37.3565 157.574 37.4516C157.744 37.8643 156.728 38.2931 155.105 40.1378C154.315 41.0932 153.58 42.0899 152.902 43.1235C149.044 48.7983 146.186 51.4257 136.523 54.5789C135.91 54.7786 135.821 53.8446 134.538 53.4833C134.219 53.4211 133.893 53.4067 133.569 53.4407C133.517 53.4904 133.455 53.5281 133.386 53.5511C133.317 53.574 133.243 53.5816 133.171 53.5733C133.099 53.565 133.029 53.541 132.968 53.503C132.906 53.4651 132.854 53.4142 132.816 53.3541C131.679 51.6313 129.129 46.942 128.98 44.8903C128.664 44.2764 130.361 44.4937 130.456 43.0001C130.463 42.9235 130.491 42.85 130.535 42.7865C130.58 42.7231 130.641 42.6717 130.711 42.6374C130.782 42.603 130.861 42.5867 130.939 42.5901C131.018 42.5934 131.095 42.6163 131.162 42.6565C132.982 42.6152 134.793 42.3847 136.562 41.9692C145.962 39.4431 147.112 36.0344 148.769 33.7844C149.016 33.4525 149.261 33.6743 149.431 33.592C149.681 33.6093 149.932 33.5581 150.154 33.4442C150.376 33.3303 150.561 33.1582 150.688 32.9473C150.949 32.5831 151.291 32.2673 151.613 32.5816C153.623 33.3584 155.581 34.2555 157.477 35.2677C157.974 35.5967 157.058 36.099 157.53 37.1726Z" fill="#E04747"/><path d="M151.804 34C151.573 34.3312 151.258 34.5983 150.888 34.7745C150.518 34.9508 150.107 35.0302 149.696 35.0048C149.095 36.4074 148.151 37.6463 146.944 38.6137C144.023 40.9594 140.575 42.6059 136.878 43.4202C135.157 44.0134 133.315 44.1967 131.506 43.9547C131.407 44.3207 131.219 44.6581 130.957 44.9379C130.695 45.2177 130.366 45.4317 130 45.5613C131.254 47.8513 130.84 48.6283 133.699 53.1237C134.233 52.9811 134.797 52.9877 135.327 53.1428C135.857 53.2978 136.331 53.595 136.694 54C146.856 50.451 148.661 48.2924 152.397 43.0624C153.567 41.137 155.107 39.4474 156.934 38.085C156.806 37.815 156.746 37.5197 156.757 37.223C156.769 36.9262 156.852 36.6362 157 36.3762C156.118 36.0447 151.968 34.0847 151.804 34Z" fill="#E04747"/><path d="M79 37.0667C79 36.9613 78.8883 36.8125 78.7537 36.8341C67.453 37.9408 57.1833 29.4749 57.1389 22.1907C57.1385 22.1402 57.1171 22.092 57.0794 22.0563C57.0416 22.0206 56.9904 22.0004 56.937 22C56.4291 22.0289 56.631 21.909 51.679 24.9587C44.44 29.4214 45.0106 28.8016 45.0106 28.9735C45.5445 35.1612 55.9962 46.6985 70.7436 46.9976C72.0852 47.025 73.4284 46.8083 74.7486 46.934C74.9949 46.934 75.0408 46.8661 77.4121 41.5034C78.2604 40.1441 78.8011 38.6334 79 37.0667ZM75.2642 42.0307C74.6676 43.3309 74.4213 44.6673 73.7191 44.5026C72.74 44.2743 72.4417 44.8406 72.1082 45.2004C72.1103 45.2637 72.0983 45.3268 72.0729 45.3855C72.0475 45.4442 72.0094 45.4972 71.9609 45.5411C71.9124 45.585 71.8547 45.6187 71.7915 45.6401C71.7284 45.6616 71.6611 45.6702 71.5942 45.6656C66.4452 45.4935 61.4323 44.0586 57.0487 41.5019C53.706 39.4938 49.366 35.6321 47.83 32.1837C47.7722 32.158 47.7206 32.1213 47.6787 32.0757C47.6367 32.0302 47.6053 31.9769 47.5864 31.9192C47.5676 31.8616 47.5617 31.8008 47.5691 31.7409C47.5765 31.6809 47.5972 31.6231 47.6296 31.5711C47.8759 31.1695 48.2079 30.895 48.2553 30.4154C48.3456 29.5052 47.7612 28.8883 48.3456 28.8103C49.7622 27.8395 51.2522 27.7383 54.3424 25.343C54.4189 25.285 54.5107 25.2479 54.6078 25.2357C54.705 25.2234 54.8039 25.2366 54.8938 25.2736C54.9836 25.3107 55.061 25.3703 55.1175 25.4459C55.174 25.5216 55.2076 25.6104 55.2144 25.7028C56.1813 27.0405 57.0502 26.246 57.0502 27.0333C58.759 29.9007 61.0841 32.3986 63.8763 34.3666C72.0195 39.9431 75.2397 36.9396 74.9735 38.445C75.359 39.4129 75.9756 38.9463 76.384 39.332C76.5814 40.0804 76.2525 39.8839 75.2642 42.0307Z" fill="#E04747"/><path d="M74.8287 39.0548C69.6081 39.4458 63.0857 35.3321 59.6696 31.3273C58.5082 30.1362 57.5899 28.7435 56.9628 27.2225C56.5848 27.1852 56.2234 27.0527 55.9146 26.8382C55.6059 26.6237 55.3606 26.3347 55.2031 26C53.4059 27.3652 51.3854 28.4298 49.2252 29.1495C49.4914 29.5727 49.6129 30.0663 49.5724 30.5602C49.532 31.0541 49.3317 31.5231 49 31.9005C51.3467 35.4749 54.4438 38.5318 58.0902 40.8728C62.3204 43.4522 67.1917 44.8782 72.1898 45C72.3971 44.5966 72.7399 44.2735 73.162 44.0836C73.5841 43.8937 74.0603 43.8484 74.5125 43.9551C74.6563 43.2779 74.8755 42.6178 75.1665 41.9863C76.3201 39.2458 76.2198 40.7131 75.2127 39.7384C75.0374 39.5385 74.9067 39.3058 74.8287 39.0548Z" fill="#E04747"/><path d="M230.04 66.6499C227.981 62.5375 227.172 61.1331 225.939 58.8973C225.665 58.4014 225.315 57.1335 224.557 57.2033C223.917 57.2627 223.925 57.7793 221.839 58.5929C220.28 60.226 215.24 60.6996 212.946 60.7219C209.937 60.7501 206.325 59.5594 204.899 56.7253C204.871 56.673 204.863 56.6129 204.877 56.5554C204.89 56.498 204.924 56.447 204.972 56.4115C205.02 56.3759 205.079 56.3581 205.14 56.3612C205.2 56.3643 205.257 56.3881 205.301 56.4283C207.74 58.7829 209.294 59.9914 213.123 59.9038C215.797 59.9319 218.45 59.4372 220.925 58.4489C215.45 50.0816 215.896 46.5349 214.862 47.0485C212.91 47.8433 210.842 48.3343 208.733 48.5035C202.79 49.3423 201.946 48.7811 202.003 49.415C203.394 65.2633 218.36 73.7479 228.502 70.1996C229.126 69.9814 230.665 69.5256 230.954 68.8754C231.227 68.4656 230.2 66.9691 230.04 66.6499ZM204.454 54.4894C204.247 54.0856 203.711 52.5164 204.186 52.3605C205.056 51.97 205.603 51.5573 205.679 50.7111C205.682 50.608 205.725 50.5098 205.8 50.4369C205.875 50.3639 205.976 50.3218 206.082 50.3192C212.338 49.8901 212.143 48.2407 213.213 49.5382C213.28 49.6036 213.324 49.6867 213.347 49.6867C213.541 49.8908 213.793 50.0348 214.07 50.1005C214.348 50.1662 214.639 50.1509 214.907 50.0564C215.572 49.8827 215.313 50.5018 217.38 54.2905C218.52 56.3794 220.123 58.3079 219.096 58.3079C218.241 58.3079 215.118 51.7756 214.773 51.011C214.36 51.082 213.935 51.0429 213.542 50.8979C213.15 50.7529 212.805 50.5073 212.544 50.187C212.477 50.0564 212.411 49.9911 212.344 49.9688C212.119 49.9153 209.754 50.6903 209.157 50.7942C208.271 50.9394 207.379 51.0385 206.482 51.0912C206.403 51.5126 206.197 51.902 205.892 52.2108C205.587 52.5196 205.196 52.7343 204.767 52.8282C205.12 54.2088 205.6 54.7582 205.501 55.2392C205.48 55.2988 205.438 55.3491 205.382 55.3809C205.326 55.4128 205.26 55.4241 205.196 55.4129C205.011 55.3205 204.849 55.1901 204.721 55.0307C204.593 54.8712 204.502 54.6866 204.454 54.4894Z" fill="#E04747"/></svg>