<svg viewBox="0 0 280 280" fill="none" xmlns="http://www.w3.org/2000/svg"><path d="M166.013 118.785C166.135 118.705 165.957 118.815 166.013 118.785V118.785Z" fill="#E04747"/><path d="M256.179 30.1504C239.538 30.1263 56.5523 30.0241 22.1309 30C16.253 30.0143 10.621 32.3608 6.47162 36.524C2.32225 40.6873 -0.00532055 46.3271 9.13283e-06 52.2051V228.977C0.0139706 233.36 1.32645 237.64 3.77164 241.276C6.21683 244.913 9.68502 247.744 13.7381 249.41C16.4108 250.449 19.2645 250.942 22.1309 250.86H230.951C231.272 250.81 231.565 250.647 231.776 250.399C231.987 250.151 232.102 249.836 232.1 249.51C232.091 249.312 232.044 249.118 231.959 248.939C231.875 248.759 231.756 248.598 231.608 248.466L238.674 233.064C238.791 232.762 238.797 232.428 238.692 232.122C238.586 231.816 238.376 231.557 238.099 231.391L215.294 217.627C215.054 217.476 214.771 217.411 214.489 217.443C214.208 217.475 212.728 216.763 212.528 216.964C212.528 216.964 211.024 216.212 210.272 215.46C210.059 215.49 207.573 213.83 207.398 213.956C207.224 214.082 205.106 213.012 205.009 213.204L202.754 212.452L200.498 211.701C198.243 210.949 198.395 211.053 198.243 210.949C198.091 210.844 194.666 209.469 194.483 209.445C192.98 208.693 193.543 209.308 191.476 207.941C187.666 205.313 194.483 209.445 189.22 206.437C187.717 204.934 187.717 204.934 183.957 202.678C183.205 201.926 182.911 201.961 182.783 201.693C182.656 201.424 182.44 201.208 182.172 201.08L120.176 170.669C146.682 146.325 187.363 117.405 222.512 108.747C231.664 106.379 241.262 106.327 250.439 108.597C259.815 111.153 268.411 115.991 275.461 122.68V184.541C275.5 184.85 275.652 185.133 275.887 185.336C276.123 185.539 276.425 185.647 276.736 185.64C277.043 185.638 277.339 185.526 277.571 185.325C277.802 185.123 277.954 184.845 277.997 184.541V52.2131C278.041 49.3242 277.509 46.4556 276.431 43.775C275.353 41.0943 273.752 38.6555 271.72 36.6012C269.689 34.5469 267.268 32.9183 264.6 31.8106C261.931 30.703 259.069 30.1386 256.179 30.1504ZM3.24807 142.076C7.08759 144.125 18.951 150.002 55.6079 168.943L3.24807 201.064V142.076ZM12.4709 134.692C12.5738 134.469 12.7575 134.293 12.9849 134.2C13.2124 134.108 13.4665 134.105 13.696 134.192C13.8965 134.233 15.2578 134.463 15.9937 134.692C17.4488 135.204 18.8745 135.796 20.2643 136.466C20.9399 136.841 21.5875 137.29 22.2372 137.689C22.3502 137.735 22.4529 137.802 22.5394 137.888C22.6258 137.974 22.6943 138.076 22.7406 138.188C22.7869 138.301 22.8102 138.422 22.8091 138.544C22.8081 138.665 22.7826 138.786 22.7343 138.898C22.6859 139.009 22.6157 139.11 22.5278 139.195C22.4398 139.279 22.3358 139.344 22.222 139.388C22.1082 139.431 21.9869 139.451 21.8652 139.447C21.7435 139.443 21.6239 139.414 21.5134 139.363C20.0022 139.1 18.5325 138.638 17.1425 137.99C15.6613 137.483 14.2639 136.759 12.9962 135.84C12.7868 135.745 12.619 135.577 12.5236 135.367C12.4283 135.157 12.4117 134.92 12.477 134.7L12.4709 134.692ZM33.8279 143.405C35.055 143.731 36.2507 144.165 37.4008 144.702C39.2902 145.47 41.0641 146.495 42.6718 147.75C42.8882 147.859 43.055 148.046 43.1384 148.274C43.2218 148.501 43.2156 148.752 43.121 148.975C42.995 149.187 42.7956 149.344 42.5608 149.418C42.326 149.492 42.0722 149.477 41.8478 149.376C39.9448 148.855 38.1087 148.115 36.3762 147.171C35.1329 146.628 33.9922 145.876 33.0039 144.947C32.8908 144.9 32.7889 144.83 32.7046 144.741C32.6203 144.652 32.5555 144.547 32.5143 144.431C32.4732 144.316 32.4566 144.193 32.4656 144.071C32.4747 143.949 32.5092 143.83 32.5669 143.722C32.6246 143.614 32.7043 143.52 32.8008 143.444C32.8973 143.369 33.0085 143.315 33.1272 143.285C33.246 143.255 33.3696 143.25 33.4903 143.271C33.611 143.292 33.726 143.337 33.8279 143.405ZM51.213 155.1C51.0043 154.991 50.8477 154.803 50.7775 154.578C50.7074 154.353 50.7296 154.109 50.8391 153.9C50.9486 153.692 51.1366 153.535 51.3616 153.465C51.5867 153.395 51.8304 153.417 52.0391 153.526C52.932 153.758 53.8082 154.05 54.6616 154.401C56.3389 155.13 57.973 155.956 59.5557 156.873C60.3818 157.372 61.1056 157.947 61.8554 158.497C62.0633 158.62 62.2171 158.817 62.2863 159.048C62.3554 159.28 62.3347 159.529 62.2283 159.746C62.0974 159.952 61.8944 160.101 61.6591 160.166C61.4238 160.23 61.1728 160.205 60.9552 160.095C60.1311 159.77 59.3071 159.521 58.5332 159.196C55.9182 158.17 53.4554 156.792 51.213 155.1ZM55.7342 186.334C54.836 186.959 54.0861 187.633 53.1879 188.258C52.7869 188.541 50.1905 190.183 49.1659 190.755C47.6509 191.676 46.0534 192.454 44.3941 193.078C44.2925 193.137 44.1802 193.176 44.0638 193.191C43.9473 193.207 43.8289 193.2 43.7153 193.169C43.6018 193.139 43.4952 193.087 43.4019 193.016C43.3085 192.944 43.2301 192.855 43.1711 192.754C43.1121 192.652 43.0737 192.54 43.0581 192.423C43.0425 192.307 43.05 192.188 43.0802 192.075C43.1103 191.961 43.1626 191.855 43.2339 191.761C43.3052 191.668 43.3943 191.59 43.4959 191.531C44.7269 190.572 44.4342 190.749 46.1184 189.526C47.0768 188.86 50.7599 186.63 51.7885 186.129C52.7368 185.63 53.7613 185.229 54.7959 184.756C55.004 184.638 55.2498 184.606 55.481 184.667C55.7122 184.728 55.9106 184.876 56.0341 185.081C56.1576 185.285 56.1964 185.53 56.1423 185.763C56.0882 185.996 55.9454 186.198 55.7443 186.328L55.7342 186.334ZM28.9879 201.431C26.639 203.41 24.1234 205.181 21.4693 206.726C20.5811 207.294 19.747 207.851 18.8468 208.376C17.9465 208.902 17.0122 209.307 16.124 209.824C16.0275 209.897 15.9172 209.95 15.7997 209.98C15.6822 210.01 15.5599 210.015 15.4402 209.996C15.3205 209.977 15.2058 209.935 15.1031 209.87C15.0005 209.806 14.9118 209.721 14.8427 209.622C14.7735 209.522 14.7252 209.41 14.7006 209.291C14.676 209.172 14.6757 209.05 14.6997 208.931C14.7237 208.812 14.7715 208.7 14.8402 208.6C14.9089 208.5 14.9971 208.415 15.0995 208.35C17.923 205.682 21.0926 203.405 24.5228 201.582C25.6576 200.93 26.8967 200.433 28.0456 199.883C28.1504 199.821 28.2666 199.779 28.3874 199.762C28.5082 199.744 28.6314 199.751 28.7497 199.781C28.868 199.811 28.9792 199.864 29.0769 199.938C29.1745 200.011 29.2567 200.103 29.3187 200.208C29.3803 200.309 29.4206 200.422 29.4373 200.539C29.454 200.657 29.4466 200.776 29.4157 200.891C29.3847 201.005 29.3309 201.112 29.2573 201.205C29.1838 201.298 29.0921 201.375 28.9879 201.431ZM208.794 235.227C208.897 235.026 209.076 234.873 209.291 234.803C209.506 234.733 209.74 234.75 209.943 234.852C211.001 235.117 211.863 235.411 212.116 235.502C213.645 236.125 215.138 236.834 216.587 237.625C217.213 238.05 217.79 238.549 218.412 239.028C218.519 239.085 218.614 239.163 218.691 239.257C218.767 239.351 218.823 239.461 218.856 239.578C218.889 239.695 218.897 239.817 218.881 239.937C218.864 240.058 218.823 240.174 218.761 240.277C218.64 240.481 218.444 240.629 218.216 240.69C217.987 240.751 217.743 240.719 217.538 240.602C214.501 239.732 211.648 238.318 209.117 236.43C208.926 236.303 208.788 236.111 208.729 235.889C208.669 235.668 208.693 235.433 208.794 235.227ZM167.908 217.182C167.99 216.958 168.156 216.775 168.37 216.672C168.585 216.57 168.832 216.555 169.057 216.633C169.857 216.707 170.65 216.841 171.429 217.034C172.593 217.367 173.735 217.769 174.852 218.237C176.17 218.712 177.395 219.414 178.473 220.31C178.685 220.426 178.843 220.622 178.912 220.854C178.98 221.086 178.953 221.336 178.838 221.549C178.722 221.762 178.526 221.92 178.294 221.988C178.061 222.057 177.811 222.03 177.598 221.914C177.197 221.764 175.176 221.17 174.976 221.112C172.706 220.442 170.525 219.499 168.482 218.305C168.366 218.276 168.257 218.222 168.164 218.147C168.07 218.072 167.994 217.978 167.94 217.872C167.885 217.765 167.854 217.648 167.849 217.528C167.844 217.409 167.864 217.289 167.908 217.178V217.182ZM146.886 196.619L155.522 210.584L154.421 211.532C154.199 211.722 154.052 211.985 154.006 212.273C153.961 212.562 154.02 212.857 154.172 213.106C155.029 215.344 155.438 217.728 155.375 220.124C155.392 222.627 155.182 225.126 154.75 227.592C154.725 227.86 154.777 228.13 154.901 228.37C155.025 228.609 155.216 228.807 155.45 228.941C179.335 242.375 182.086 244.438 189.163 248.189H22.1309C19.6438 248.106 17.1983 247.528 14.9371 246.489C12.2958 245.407 9.93539 243.739 8.03456 241.61C6.13373 239.481 4.74236 236.947 3.96584 234.2L65.9476 199.244C66.1644 199.14 66.3434 198.97 66.4598 198.76C66.5762 198.549 66.6242 198.308 66.5972 198.069C66.6293 198.269 65.0112 180.257 65.3741 172.568L83.5572 166.322L103.94 175.565L105.714 181.78C105.771 181.971 105.87 182.146 106.004 182.293C106.138 182.44 106.303 182.555 106.488 182.629L146.886 196.619ZM104.082 160.265C104.321 159.994 105.73 158.437 106.43 157.817C108.883 155.5 111.682 153.579 114.725 152.121C114.82 152.055 114.929 152.008 115.043 151.985C115.157 151.962 115.275 151.962 115.39 151.985C115.504 152.008 115.612 152.055 115.708 152.121C115.804 152.188 115.885 152.273 115.948 152.371C116.084 152.565 116.139 152.803 116.101 153.037C116.064 153.27 115.937 153.48 115.747 153.621C114.923 154.32 114.143 155.044 113.325 155.744C112.724 156.287 110.875 157.639 109.628 158.617C108.248 159.74 106.778 160.746 105.231 161.624C104.321 162.402 103.264 160.921 104.082 160.265ZM134.409 140.368C133.747 141.048 133.046 141.69 132.31 142.29C131.55 142.942 129.762 144.295 129.038 144.897C128.206 145.509 127.335 146.068 126.432 146.569C125.658 147.343 124.374 146.032 125.283 145.246C126.267 143.805 127.502 142.552 128.93 141.549C130.282 140.418 131.809 139.515 133.451 138.876C134.347 138.218 135.48 139.712 134.409 140.368ZM176.247 112.372C175.624 112.795 175.044 113.246 174.475 113.645C167.283 118.04 166.13 118.724 166.014 118.786C165.836 118.94 165.604 119.016 165.369 118.998C165.135 118.981 164.917 118.871 164.764 118.693C164.61 118.515 164.534 118.283 164.551 118.049C164.569 117.814 164.679 117.596 164.857 117.443C165.542 116.606 166.313 115.844 167.159 115.169C168.827 113.903 170.618 112.807 172.504 111.897C173.452 111.448 174.477 111.123 175.425 110.772C175.53 110.718 175.645 110.685 175.763 110.676C175.881 110.666 176 110.68 176.113 110.716C176.226 110.752 176.33 110.81 176.42 110.887C176.511 110.963 176.585 111.057 176.639 111.162C176.693 111.268 176.726 111.383 176.736 111.501C176.745 111.619 176.732 111.737 176.696 111.85C176.659 111.963 176.601 112.067 176.525 112.158C176.448 112.248 176.354 112.322 176.249 112.376L176.247 112.372ZM201.355 101.435C200.658 101.71 200.082 101.985 199.382 102.237C198.815 102.502 196.942 103.081 195.236 103.711C193.946 104.225 192.629 104.666 191.29 105.034C191.187 105.088 191.074 105.121 190.958 105.132C190.842 105.142 190.725 105.13 190.613 105.095C190.502 105.06 190.399 105.004 190.309 104.929C190.219 104.854 190.146 104.762 190.091 104.659C190.037 104.556 190.004 104.443 189.994 104.327C189.983 104.21 189.996 104.093 190.031 103.982C190.065 103.871 190.122 103.767 190.197 103.678C190.271 103.588 190.363 103.514 190.466 103.46C191.191 102.861 191.978 102.342 192.814 101.912C194.514 101.069 196.308 100.432 198.159 100.014C199.094 99.854 200.036 99.7456 200.982 99.6888C201.207 99.6579 201.434 99.713 201.62 99.843C201.805 99.973 201.934 100.168 201.981 100.39C202.029 100.611 201.99 100.842 201.874 101.036C201.758 101.231 201.573 101.372 201.355 101.435ZM227.406 96.7756C226.307 96.8257 225.158 96.9761 224.034 97.0743C221.854 97.1891 219.685 97.4476 217.54 97.8483C216.561 97.9706 215.274 98.145 214.217 98.3736C213.995 98.4554 213.75 98.4462 213.535 98.3477C213.319 98.2493 213.152 98.0698 213.068 97.8483C212.996 97.6162 213.019 97.3649 213.132 97.1495C213.244 96.9342 213.438 96.7723 213.67 96.6994C214.707 96.1232 215.804 95.6626 216.942 95.326C219.263 94.7565 221.647 94.487 224.036 94.524C225.21 94.5971 226.378 94.7478 227.532 94.9751C227.771 94.9919 227.993 95.1028 228.15 95.2835C228.307 95.4641 228.386 95.6998 228.369 95.9385C228.353 96.1773 228.242 96.3996 228.061 96.5566C227.88 96.7136 227.645 96.7924 227.406 96.7756ZM250.144 99.7971C249.651 99.6989 247.147 99.2798 246.946 99.2477C243.462 98.4337 243.42 98.5039 242.335 98.2453C239.851 97.722 240.14 97.6959 238.939 97.3951C238.819 97.3891 238.702 97.3586 238.595 97.3055C238.488 97.2524 238.393 97.1779 238.315 97.0866C238.238 96.9952 238.18 96.889 238.146 96.7745C238.111 96.6599 238.101 96.5396 238.115 96.4207C238.129 96.3006 238.166 96.1845 238.226 96.079C238.285 95.9735 238.365 95.8809 238.46 95.8063C238.555 95.7318 238.664 95.6768 238.781 95.6446C238.897 95.6124 239.019 95.6036 239.139 95.6187C241.123 95.4334 243.124 95.5853 245.058 96.0679C247.053 96.4805 248.985 97.1547 250.804 98.0728C251.033 98.1603 251.217 98.335 251.317 98.5586C251.417 98.7821 251.424 99.0361 251.336 99.2648C251.249 99.4934 251.074 99.678 250.851 99.7778C250.627 99.8776 250.373 99.8846 250.144 99.7971ZM273.781 108.659C273.721 108.76 273.641 108.848 273.547 108.917C273.453 108.987 273.345 109.038 273.231 109.066C273.117 109.093 272.999 109.099 272.883 109.08C272.767 109.062 272.656 109.021 272.556 108.96C271.353 108.479 271.227 108.559 270.034 108.009C269.833 107.931 266.224 106.46 265.138 105.836C264.614 105.537 264.115 105.213 263.59 104.888C263.476 104.851 263.371 104.792 263.28 104.713C263.19 104.635 263.117 104.539 263.065 104.431C263.013 104.323 262.984 104.206 262.978 104.086C262.973 103.967 262.992 103.848 263.035 103.736C263.077 103.624 263.142 103.522 263.225 103.436C263.308 103.349 263.407 103.281 263.517 103.235C263.628 103.188 263.746 103.165 263.866 103.166C263.986 103.167 264.104 103.192 264.213 103.24C265.892 103.493 267.524 103.989 269.059 104.713C270.679 105.34 272.173 106.254 273.47 107.41C273.676 107.535 273.824 107.737 273.883 107.971C273.941 108.205 273.904 108.452 273.781 108.659ZM275.461 98.6904C258.838 90.0669 240.25 85.9392 221.539 86.7167C202.059 87.6229 183.155 93.6169 166.711 104.102L166.136 104.95C165.388 108.775 163.59 112.316 160.941 115.175C158.253 117.996 154.852 120.038 151.099 121.086C150.901 121.154 150.723 121.27 150.579 121.422C150.436 121.574 150.331 121.759 150.275 121.96C149.367 125.558 148.121 129.062 146.553 132.426C145.806 133.912 144.033 136.799 142.407 136.424C138.574 135.552 133.904 129.617 131.817 126.283C131.735 126.153 131.628 126.042 131.503 125.955C131.377 125.868 131.234 125.807 131.084 125.777C130.935 125.747 130.78 125.747 130.63 125.778C130.48 125.809 130.338 125.87 130.213 125.958L82.5086 157.031L3.24807 121.134V52.2051C3.26708 47.2029 5.26262 42.411 8.79972 38.8739C12.3368 35.3368 17.1287 33.3412 22.1309 33.3222C56.5523 33.2982 239.542 33.1979 256.179 33.1719C261.222 33.2636 266.036 35.2908 269.625 38.8337C273.215 42.3767 275.304 47.1642 275.461 52.2051V98.6904Z" fill="#E04747"/><path d="M136.482 225.889C136.602 225.95 136.734 225.982 136.869 225.982C137.003 225.982 137.136 225.95 137.255 225.889C144.351 222.681 151.623 218.296 157.889 214.8C158.15 214.623 158.35 214.37 158.462 214.076C158.492 213.924 158.489 213.768 158.455 213.618C158.42 213.467 158.354 213.325 158.262 213.202C155.655 209.104 151.691 201.886 149.668 198.814C148.704 197.391 148.622 197.296 147.944 196.889C133.326 190.874 122.361 187.065 107.556 181.627C107.237 181.521 106.889 181.538 106.583 181.678C106.277 181.817 106.035 182.067 105.906 182.377C104.556 185.617 102.856 188.749 101.759 191.4C100.637 194.271 99.5379 197.244 98.2628 200.141C96.0573 205.707 95.1992 205.695 95.5902 206.71C95.6297 206.874 95.7067 207.028 95.8152 207.158C95.9237 207.288 96.0608 207.391 96.2157 207.46C101.709 210.032 104.637 211.506 107.181 212.755C111.331 214.635 107.889 212.314 136.482 225.889ZM107.833 184.527C107.512 185.487 105.493 189.27 104.185 192.394C102.457 196.534 100.749 201.36 98.5154 205.757C104.185 208.53 135.283 223.367 136.857 224.141C142.984 221.133 149.442 217.172 155.715 213.45C155.27 212.618 147.146 199.416 146.998 199.215C143.098 197.27 108.025 184.599 107.825 184.527H107.833Z" fill="#111111"/><path d="M144.821 201.396C142.671 205.864 140.819 210.47 139.278 215.184C138.778 216.758 138.327 218.356 137.874 219.93C137.831 220.035 137.81 220.148 137.811 220.261C137.812 220.375 137.835 220.487 137.879 220.592C137.924 220.697 137.988 220.791 138.069 220.871C138.15 220.951 138.246 221.014 138.351 221.057C138.457 221.099 138.569 221.121 138.683 221.12C138.797 221.119 138.909 221.096 139.014 221.051C139.118 221.007 139.213 220.943 139.293 220.862C139.372 220.781 139.435 220.685 139.478 220.579C141.032 217.648 142.352 214.599 143.426 211.461C144.706 208.397 145.726 205.231 146.473 201.995C146.517 201.889 146.539 201.775 146.538 201.66C146.536 201.545 146.511 201.431 146.465 201.326C146.418 201.221 146.35 201.126 146.266 201.048C146.182 200.97 146.083 200.909 145.974 200.87C145.751 200.799 145.509 200.813 145.296 200.91C145.083 201.007 144.914 201.18 144.821 201.396Z" fill="#111111"/><path d="M157.321 219.491C157.316 219.254 157.219 219.028 157.051 218.861C156.884 218.693 156.658 218.596 156.421 218.591C156.304 218.587 156.188 218.607 156.078 218.649C155.969 218.691 155.87 218.755 155.786 218.837C155.702 218.918 155.636 219.016 155.59 219.124C155.545 219.232 155.522 219.348 155.523 219.465C155.481 223.196 155.247 226.923 154.823 230.631C149.502 233.694 150.081 233.169 145.706 235.601C143.238 237.058 141.608 238.147 139.876 239.061C139.986 235.526 139.594 231.993 138.713 228.567C138.709 228.448 138.68 228.331 138.627 228.224C138.575 228.117 138.5 228.023 138.408 227.947C138.316 227.871 138.209 227.816 138.094 227.784C137.979 227.753 137.858 227.747 137.741 227.765C137.519 227.799 137.317 227.916 137.178 228.093C137.039 228.269 136.972 228.492 136.991 228.716C136.991 229.718 136.867 230.635 136.867 231.862C136.938 234.261 137.174 236.652 137.574 239.019C126.092 234.809 111.873 227.992 102.269 224.834C101.894 222.829 100.494 214.442 100.119 212.219C100.086 211.992 99.9663 211.786 99.7844 211.646C99.6024 211.506 99.373 211.443 99.145 211.469C99.0313 211.483 98.9215 211.519 98.8221 211.575C98.7226 211.632 98.6354 211.708 98.5658 211.799C98.4961 211.889 98.4452 211.993 98.4163 212.104C98.3873 212.215 98.3808 212.33 98.3971 212.443C99.4477 220.263 100.001 224.656 100.17 225.877C100.204 226.08 100.295 226.27 100.432 226.424C100.569 226.578 100.746 226.692 100.943 226.751C108.949 229.831 126.024 237.622 138.587 242.137C138.923 242.245 139.287 242.228 139.611 242.087C142.671 240.557 144.393 239.242 147.004 237.766C151.725 234.911 150.629 235.934 156.427 232.22C156.558 232.137 156.67 232.028 156.756 231.899C156.842 231.769 156.9 231.624 156.926 231.471C157.335 227.491 157.467 223.488 157.321 219.491Z" fill="#111111"/><path d="M85.6351 138.325C85.6251 138.458 85.5851 138.587 85.5181 138.702C85.4511 138.818 85.3589 138.916 85.2483 138.991C85.1377 139.065 85.0117 139.114 84.8797 139.132C84.7477 139.151 84.6132 139.14 84.4863 139.099C80.5645 137.824 65.0781 132.605 61.1805 131.28C61.0194 131.209 60.8745 131.106 60.7545 130.978C60.6346 130.849 60.5421 130.698 60.4827 130.532C60.1519 129.674 60.8517 129.592 63.8531 123.663C66.3513 118.941 68.5748 114.095 71.1973 109.5C71.3591 109.209 71.6282 108.993 71.9472 108.898C82.0703 106.049 89.1719 102.805 100.097 100.506C100.289 100.469 100.487 100.474 100.677 100.521C100.866 100.569 101.044 100.657 101.196 100.78C104.761 103.72 109.055 110.163 115.583 119.264C115.689 119.407 115.763 119.571 115.798 119.746C115.833 119.92 115.828 120.1 115.785 120.272C115.742 120.445 115.662 120.606 115.549 120.744C115.437 120.881 115.295 120.992 115.134 121.069C110.814 123.541 98.1983 130.734 96.3517 131.833C91.5698 134.748 91.8826 134.855 85.6351 138.325ZM99.9727 103.18C91.3513 105.005 82.0081 108.718 73.1702 111.248C69.3728 117.841 67.7307 122.416 63.3458 129.558L84.0612 137.106C89.4526 134.299 89.609 133.393 102.645 125.492C106.042 123.487 109.39 121.546 112.712 119.597C111.249 117.494 103.167 106.029 99.9727 103.18Z" fill="#111111"/><path d="M74.8131 115.132L75.587 117.405C77.5571 122.618 79.8767 127.691 82.5303 132.591C82.5707 132.698 82.6324 132.795 82.7116 132.877C82.7908 132.959 82.8859 133.025 82.991 133.069C83.0961 133.114 83.2092 133.136 83.3233 133.136C83.4375 133.135 83.5503 133.111 83.655 133.066C83.7671 133.024 83.8697 132.961 83.9569 132.879C84.0441 132.797 84.1142 132.699 84.1631 132.59C84.212 132.48 84.2387 132.363 84.2416 132.243C84.2446 132.124 84.2238 132.005 84.1803 131.893C82.2207 125.805 79.6161 119.943 76.4111 114.408C76.3081 114.207 76.1319 114.054 75.919 113.98C75.7062 113.906 75.4729 113.916 75.2675 114.009C75.0622 114.102 74.9004 114.27 74.8158 114.479C74.7312 114.688 74.7303 114.922 74.8131 115.132Z" fill="#111111"/><path d="M180.757 67.5588C180.748 67.2774 180.65 67.006 180.476 66.7845C180.302 66.563 180.062 66.403 179.791 66.3278C170.425 63.4988 160.717 61.3815 155.33 59.7114C155.04 59.6266 154.728 59.653 154.456 59.7856C151.775 61.1944 149.21 62.8148 146.787 64.6316C145.937 65.2551 146.961 66.7087 147.886 66.0351C150.162 64.4884 152.569 63.1427 155.079 62.0131C166.678 65.6681 167.873 65.5619 176.132 67.9638C172.034 69.9926 168.139 72.4097 164.503 75.1817C164.301 75.3011 164.154 75.4959 164.096 75.7232C164.037 75.9505 164.072 76.1917 164.191 76.3937C164.31 76.5958 164.505 76.7422 164.732 76.8006C164.96 76.8591 165.201 76.8249 165.403 76.7055C169.834 74.6237 174.102 72.2109 178.171 69.4876C178.556 80.7155 179.133 84.6372 179.863 92.7072C179.879 92.9422 179.989 93.1611 180.166 93.3156C180.344 93.4702 180.576 93.5477 180.811 93.5312C181.046 93.5148 181.265 93.4056 181.42 93.2277C181.574 93.0499 181.652 92.8179 181.635 92.5829C181.543 89.0381 180.757 71.9156 180.757 67.5588Z" fill="#111111"/><path d="M258.185 39.3913C256.499 39.9747 254.763 40.5401 252.972 41.3642C249.639 42.9852 246.49 44.9616 243.581 47.2588C242.466 48.1941 241.434 49.2245 240.497 50.3384C221.522 45.5045 203.225 44.6503 185.549 52.5439C185.348 52.4737 171.452 49.6708 163.438 48.8568C170.605 45.227 178.146 42.3886 185.928 40.3918C188.823 39.625 191.759 39.0226 194.722 38.5873C194.947 38.5507 195.15 38.4295 195.29 38.2485C195.429 38.0675 195.494 37.8402 195.472 37.6129C195.437 37.3891 195.321 37.1861 195.145 37.0431C194.97 36.9001 194.747 36.8274 194.521 36.839C191.442 36.99 188.379 37.3653 185.355 37.9617C179.358 39.2874 173.539 41.3171 168.02 44.0087C164.637 45.6989 162.335 47.1826 160.052 48.5781C159.921 48.6622 159.815 48.7791 159.744 48.9172C159.673 49.0553 159.639 49.2096 159.646 49.3648C159.654 49.5199 159.702 49.6704 159.786 49.8012C159.869 49.932 159.986 50.0384 160.124 50.1099V55.393C160.112 55.5089 160.124 55.626 160.16 55.7369C160.196 55.8478 160.254 55.95 160.332 56.037C160.41 56.1239 160.504 56.1938 160.61 56.2421C160.717 56.2903 160.831 56.3159 160.948 56.3173C161.176 56.3265 161.399 56.245 161.567 56.0906C161.735 55.9362 161.836 55.7214 161.846 55.4932L162.097 50.8477C166.943 51.4973 172.058 52.6041 183.879 54.8577C184.003 58.0656 184.827 84.5834 184.952 89.3292C184.954 89.4441 184.98 89.5574 185.027 89.6624C185.074 89.7674 185.141 89.8621 185.225 89.941C185.308 90.0199 185.407 90.0813 185.515 90.1219C185.622 90.1624 185.737 90.1813 185.852 90.1772C185.963 90.1747 186.074 90.1499 186.176 90.1045C186.278 90.059 186.37 89.9937 186.446 89.9124C186.523 89.8311 186.583 89.7353 186.622 89.6307C186.662 89.5261 186.68 89.4148 186.676 89.3031C187.111 72.7881 186.708 68.0343 186.505 54.0998C199.826 48.7946 217.025 47.1525 239.036 52.592C237.548 62.5307 239.479 73.0167 239.659 82.5423C239.662 82.6593 239.689 82.7745 239.737 82.8811C239.786 82.9876 239.855 83.0833 239.941 83.1625C240.028 83.2416 240.129 83.3026 240.239 83.3417C240.35 83.3809 240.467 83.3975 240.583 83.3904C240.81 83.3741 241.021 83.272 241.174 83.105C241.327 82.938 241.411 82.7188 241.408 82.4922C241.307 73.2252 240.184 60.7763 241.704 51.8602C243.364 50.4267 246.36 48.2713 247.705 47.3751C250.556 45.4744 257.177 41.8213 258.845 41.0294C259.043 40.9292 259.196 40.7583 259.274 40.5506C259.352 40.3429 259.35 40.1135 259.267 39.9076C259.184 39.7018 259.027 39.5345 258.826 39.4389C258.626 39.3433 258.397 39.3263 258.185 39.3913Z" fill="#111111"/><path d="M270.498 60.15C268.894 59.6768 267.326 59.1475 265.652 58.7264C263.236 58.0748 258.103 57.1225 255.786 56.8037C254.47 56.6533 253.139 56.5651 252.109 56.5069C258.021 52.9802 265.237 48.4068 269.235 46.1492C269.425 46.0268 269.561 45.8374 269.617 45.6188C269.673 45.4002 269.645 45.1685 269.537 44.97C269.43 44.7715 269.252 44.6208 269.038 44.548C268.824 44.4752 268.591 44.4857 268.385 44.5773C261.809 47.7733 257.402 50.5 249.151 55.2678C248.937 55.3918 248.763 55.576 248.652 55.7977C248.541 56.0195 248.498 56.2688 248.528 56.5149C249.817 70.8766 249.662 75.1171 250.799 86.4893C250.804 86.6015 250.832 86.7116 250.88 86.8131C250.928 86.9145 250.996 87.0053 251.08 87.08C251.164 87.1547 251.262 87.2119 251.369 87.2482C251.475 87.2845 251.587 87.2991 251.7 87.2913C251.816 87.2955 251.933 87.2747 252.041 87.2304C252.149 87.1861 252.247 87.1191 252.327 87.0341C252.407 86.9491 252.468 86.8479 252.506 86.7374C252.544 86.6268 252.559 86.5094 252.548 86.393C252.291 76.0734 252.215 67.6024 251.258 58.3355C252.73 58.6703 252.772 58.7365 255.91 59.4021C266.047 61.395 267.248 61.4993 270.123 61.8502C270.237 61.8815 270.355 61.8894 270.471 61.8733C270.588 61.8572 270.7 61.8176 270.8 61.7568C270.901 61.696 270.988 61.6153 271.056 61.5197C271.125 61.424 271.173 61.3154 271.198 61.2006C271.242 60.9687 271.193 60.7289 271.062 60.5325C270.932 60.3361 270.729 60.1988 270.498 60.15Z" fill="#111111"/><path d="M105.791 175.716C100.927 173.154 88.2473 166.451 85.0574 165.525C84.0108 165.16 85.4303 164.999 63.927 171.72C63.6518 171.809 63.4118 171.982 63.2411 172.216C63.0704 172.449 62.9779 172.73 62.9766 173.019C63.2292 184.097 63.8568 190.775 65.4507 205.7C65.4621 205.909 65.5279 206.112 65.6415 206.287C65.755 206.463 65.9125 206.606 66.0983 206.703C76.44 212.176 81.4584 215.418 93.3499 221.363C93.4548 221.418 93.5697 221.451 93.6877 221.461C93.8057 221.47 93.9244 221.456 94.0367 221.418C94.149 221.381 94.2526 221.321 94.3413 221.243C94.43 221.164 94.502 221.069 94.5529 220.962C94.6432 220.754 94.655 220.521 94.586 220.305C94.517 220.089 94.372 219.906 94.178 219.789C91.4933 218.269 73.9959 208.225 67.8768 204.802C67.165 197.003 66.0202 184.381 65.6713 174.727C69.1138 176.694 73.5729 179.493 76.853 181.218C80.462 183.14 88.125 186.789 91.5655 189.011C91.7981 202.897 92.2552 202.358 92.4657 212.441C92.4627 212.557 92.4832 212.672 92.5261 212.779C92.569 212.887 92.6332 212.984 92.715 213.066C92.7968 213.148 92.8944 213.212 93.0018 213.255C93.1093 213.298 93.2243 213.318 93.3399 213.315C93.578 213.314 93.8058 213.218 93.974 213.05C94.1422 212.881 94.2371 212.653 94.2381 212.415C94.2381 208.587 94.172 193.985 94.164 189.037C94.6612 188.891 94.9519 188.788 95.4572 188.636C95.5153 188.612 98.21 187.433 98.5047 187.287C99.6614 186.78 100.752 186.134 101.753 185.364C102.791 184.901 102.033 183.307 101.003 183.76C99.8212 184.015 98.667 184.383 97.5564 184.861C96.0783 185.41 94.6735 186.139 93.374 187.032C87.9405 183.674 83.3912 181.749 78.05 178.986C74.1363 177.067 71.4757 175.421 67.3134 173.388C73.1097 171.518 82.4068 168.446 84.3777 167.856C87.5495 168.807 100.063 174.908 105.009 177.28C105.216 177.383 105.456 177.401 105.676 177.327C105.896 177.254 106.078 177.096 106.182 176.889C106.285 176.681 106.303 176.441 106.229 176.221C106.156 176.001 105.998 175.82 105.791 175.716Z" fill="#111111"/><path d="M66.6169 99.8121C66.8174 98.128 62.9698 96.8989 61.3238 96.2774C59.6777 95.6558 54.8156 94.11 53.0813 93.6549C52.4457 93.4905 50.553 93.0534 48.909 92.7546C48.7981 92.708 48.6787 92.6851 48.5584 92.6871C48.4382 92.6892 48.3197 92.7164 48.2105 92.7668C48.1013 92.8172 48.0038 92.8898 47.9242 92.9799C47.8446 93.0701 47.7846 93.1758 47.7481 93.2905C47.7116 93.4051 47.6994 93.526 47.7123 93.6456C47.7251 93.7652 47.7627 93.8808 47.8227 93.9851C47.8827 94.0893 47.9637 94.18 48.0606 94.2512C48.1576 94.3224 48.2682 94.3726 48.3857 94.3987C53.249 96.5165 58.3039 98.1641 63.4811 99.3189C58.1559 101.589 51.1064 104.169 45.9596 107.74C45.7839 107.846 45.6386 107.996 45.5381 108.175C45.4376 108.355 45.3853 108.557 45.3862 108.762C45.1256 117.747 47.0844 126.747 46.8599 133.967C46.855 134.083 46.8731 134.199 46.9131 134.309C46.9532 134.418 47.0144 134.519 47.0932 134.604C47.1721 134.69 47.267 134.759 47.3727 134.809C47.4783 134.858 47.5926 134.885 47.709 134.89C47.944 134.9 48.1733 134.816 48.3465 134.657C48.5196 134.498 48.6224 134.276 48.6323 134.041C49.324 125.219 47.8102 117.518 47.9325 109.512C53.1621 106.479 58.6154 103.849 64.245 101.645C64.245 101.741 64.8986 110.31 64.9427 112.46C64.9435 112.576 64.9675 112.692 65.0133 112.799C65.0592 112.907 65.1259 113.004 65.2097 113.085C65.2935 113.167 65.3926 113.23 65.5014 113.273C65.6101 113.316 65.7262 113.336 65.843 113.334C66.0695 113.323 66.2828 113.223 66.4368 113.057C66.5909 112.89 66.6736 112.67 66.667 112.443C66.7111 108.871 66.6169 107.311 66.6169 99.8121Z" fill="#111111"/><path d="M270.947 135.562C253.871 128.143 237.665 120.695 219.42 116.703C219.244 116.663 219.063 116.66 218.886 116.694C218.71 116.729 218.542 116.8 218.395 116.903C197.846 130.928 175.745 146.834 155.399 162.015C155.236 162.151 155.109 162.326 155.03 162.523C154.951 162.72 154.923 162.934 154.948 163.145C154.973 163.356 155.05 163.557 155.173 163.731C155.295 163.904 155.459 164.045 155.649 164.139C158.126 165.235 183.051 175.228 192.916 179.4C197.962 181.524 202.782 184.196 207.753 186.494C213.792 189.271 214.397 189.014 214.397 189.217C214.476 189.305 214.571 189.378 214.678 189.429C214.784 189.481 214.9 189.511 215.018 189.518C215.137 189.525 215.255 189.509 215.367 189.47C215.479 189.431 215.582 189.37 215.67 189.291C217.044 188.042 265.777 142.882 271.272 137.637C271.422 137.495 271.536 137.318 271.602 137.123C271.669 136.927 271.687 136.718 271.655 136.514C271.623 136.31 271.542 136.116 271.419 135.951C271.296 135.785 271.134 135.651 270.947 135.562ZM248.791 128.873C246.706 130.333 244.798 132.029 243.102 133.928C241.899 133.527 226.541 128.957 224.442 128.314C225.693 127.532 228.693 124.821 231.385 122.594C237.276 124.418 243.064 126.567 248.791 128.873ZM197.974 179.503C194.201 177.642 194.009 177.622 176.333 170.204C178.62 168.351 182.568 165.7 183.998 164.492C191.861 168.327 195.546 170.414 203.556 173.883C203.723 173.716 199.873 177.606 197.974 179.503ZM214.947 187.541C209.739 185.498 204.671 183.115 199.777 180.407C203.685 177.047 204.439 176.197 206.554 174.432C206.703 174.29 206.816 174.114 206.883 173.918C206.949 173.723 206.967 173.514 206.935 173.31C206.903 173.106 206.822 172.913 206.699 172.748C206.576 172.582 206.415 172.449 206.229 172.359C204.005 171.385 186.42 162.894 184.397 161.919C184.178 161.822 183.936 161.787 183.699 161.818C183.461 161.849 183.237 161.944 183.049 162.094C180.337 164.614 177.57 166.454 174.428 169.408C168.381 166.867 162.338 164.317 158.635 162.713C164.028 158.731 177.536 149.015 190.652 139.656C194.602 141.639 204.591 146.22 207.109 147.337C206.561 148.148 206.189 149.065 206.018 150.028C205.847 150.992 205.881 151.981 206.117 152.931C206.353 153.881 206.786 154.77 207.388 155.542C207.99 156.314 208.747 156.95 209.611 157.41C211.607 158.458 213.89 158.831 216.116 158.473C218.342 158.115 220.392 157.045 221.958 155.423C225.767 157.187 232.34 161.155 235.658 162.741C236.873 163.343 238.112 163.834 239.303 164.303C234.631 168.68 230.537 172.509 228.075 174.807C223.552 179.022 218.541 184.313 214.947 187.541ZM208.462 151.16C208.408 147.886 212.011 146.31 214.908 146.365C218.552 146.427 221.172 147.704 221.302 150.91C221.581 155.1 214.485 157.43 210.987 155.206C210.267 154.79 209.661 154.203 209.221 153.498C208.781 152.792 208.52 151.99 208.462 151.16ZM240.723 162.97C236 159.906 231.073 157.171 225.976 154.783C224.987 154.411 223.975 154.101 222.946 153.855C224.671 149.953 222.233 144.833 215.017 144.209C212.735 143.959 210.441 144.554 208.569 145.881C203.603 142.536 198.125 140.022 192.351 138.437C203.891 130.202 214.84 122.449 219.341 119.368C222.656 120.093 225.928 120.95 229.166 121.908C226.253 123.987 222.886 126.499 220.945 127.674C220.742 127.805 220.58 127.992 220.48 128.212C220.379 128.432 220.344 128.676 220.378 128.915C220.412 129.155 220.515 129.379 220.673 129.562C220.831 129.745 221.038 129.879 221.27 129.948C229.09 132.624 236.281 134.585 243.177 136.468C243.421 136.537 243.68 136.531 243.92 136.451C244.161 136.371 244.372 136.22 244.526 136.019C246.315 133.64 248.414 131.51 250.767 129.687C256.622 132.093 262.416 134.627 268.197 137.144C264.818 140.382 251.555 152.829 240.723 162.97Z" fill="#111111"/><path d="M113.625 131.18C113.348 129.051 113.37 128.485 113.224 126.769C113.211 126.534 113.105 126.313 112.929 126.156C112.754 125.999 112.523 125.918 112.287 125.931C112.052 125.944 111.832 126.05 111.674 126.225C111.517 126.401 111.436 126.632 111.449 126.867C111.499 127.451 111.576 130.376 111.576 130.789C99.3052 138.125 91.8688 143.065 85.5772 147.613C85.6587 145.466 85.3808 143.32 84.7551 141.265C84.7377 141.03 84.6283 140.812 84.4507 140.657C84.2732 140.502 84.0418 140.424 83.8068 140.439C83.5796 140.464 83.3697 140.572 83.2176 140.743C83.0655 140.914 82.9818 141.134 82.9827 141.363C82.6803 143.947 82.8022 146.562 83.3436 149.106C77.2464 146.825 71.037 144.854 64.7395 143.204L63.9155 134.362C63.919 134.248 63.8985 134.135 63.8551 134.03C63.8118 133.925 63.7466 133.831 63.664 133.753C63.5813 133.675 63.4831 133.615 63.3757 133.578C63.2684 133.541 63.1544 133.527 63.0413 133.538C62.8135 133.555 62.6004 133.657 62.4436 133.823C62.2868 133.989 62.1975 134.208 62.1932 134.436C62.1932 136.074 62.5601 142.544 62.5942 144.178C62.6043 144.414 62.6897 144.641 62.8379 144.826C62.9862 145.01 63.1895 145.142 63.4182 145.203C69.395 146.66 76.7112 149.702 83.3517 151.819C84.5226 152.186 83.8529 151.643 95.8406 143.651C98.7138 141.728 110.303 134.059 113.15 132.16C113.315 132.06 113.448 131.914 113.532 131.74C113.616 131.566 113.648 131.372 113.625 131.18Z" fill="#111111"/><path d="M137.941 66.4923C130.896 66.5114 124.123 69.2102 118.995 74.0411C113.867 78.872 110.77 85.4729 110.331 92.5041C109.893 99.5353 112.146 106.47 116.633 111.901C121.121 117.331 127.507 120.851 134.495 121.745C137.225 127.449 135.561 123.694 140.616 134.409C140.723 134.657 140.906 134.864 141.138 135.002C141.37 135.14 141.64 135.2 141.908 135.175C142.177 135.151 142.431 135.041 142.634 134.863C142.837 134.685 142.978 134.447 143.038 134.184C144.04 129.988 145.957 124.041 146.934 120.797C153.141 118.624 158.384 114.33 161.737 108.672C165.09 103.014 166.34 96.3536 165.265 89.8646C164.191 83.3757 160.861 77.4739 155.863 73.1985C150.865 68.9231 144.518 66.5484 137.941 66.4923ZM157.001 94.4937C157.001 96.9951 156.508 99.4719 155.551 101.783C154.593 104.094 153.19 106.193 151.422 107.962C149.653 109.731 147.553 111.134 145.242 112.091C142.931 113.048 140.455 113.541 137.953 113.541C135.452 113.541 132.975 113.048 130.664 112.091C128.353 111.134 126.254 109.731 124.485 107.962C122.716 106.193 121.313 104.094 120.356 101.783C119.399 99.4719 118.906 96.9951 118.906 94.4937C118.906 91.9924 119.399 89.5156 120.356 87.2047C121.313 84.8938 122.716 82.794 124.485 81.0253C126.254 79.2566 128.353 77.8536 130.664 76.8964C132.975 75.9392 135.452 75.4465 137.953 75.4465C140.455 75.4465 142.931 75.9392 145.242 76.8964C147.553 77.8536 149.653 79.2566 151.422 81.0253C153.19 82.794 154.593 84.8938 155.551 87.2047C156.508 89.5156 157.001 91.9924 157.001 94.4937Z" fill="#E04747"/><path d="M149.01 104.529C148.706 101.233 147.318 98.13 145.062 95.7071C144.099 94.7992 142.948 94.1147 141.69 93.7022C145.511 88.9283 141.375 81.9069 136.22 83.0116C135.385 83.2234 134.601 83.6038 133.918 84.1295C133.235 84.6551 132.667 85.3149 132.248 86.0683C131.829 86.8217 131.569 87.6527 131.483 88.5104C131.397 89.368 131.488 90.2342 131.749 91.0556C132.121 92.4209 132.875 93.6516 133.923 94.6024C132.636 95.5296 131.546 96.7021 130.714 98.0523C129.882 99.4025 129.326 100.904 129.077 102.47C128.841 104.049 128.733 105.645 128.752 107.242C128.724 107.545 128.787 107.85 128.934 108.117C129.081 108.384 129.304 108.601 129.576 108.739C134.011 111.055 138.562 110.38 143.464 108.914C145.538 108.475 147.455 107.483 149.01 106.043C149.113 105.946 149.196 105.828 149.252 105.698C149.308 105.568 149.337 105.428 149.337 105.286C149.337 105.144 149.308 105.004 149.252 104.874C149.196 104.743 149.113 104.626 149.01 104.529Z" fill="#E04747"/></svg>