<svg viewBox="0 0 99 86" fill="none" xmlns="http://www.w3.org/2000/svg"><path d="M78.1432 27.4628C76.3694 27.0851 74.5586 26.9079 72.745 26.9345C72.6463 27.0207 72.5623 27.1223 72.4962 27.2354C72.6098 27.3216 72.7235 27.4813 72.8438 27.4875C73.9654 27.4683 75.0856 27.5773 76.1824 27.8124C77.8378 28.2806 78.0332 28.0691 77.8702 28.4177C77.0893 30.1155 75.2483 31.1449 73.5322 31.9088C72.4768 32.3438 71.3653 32.6279 70.2305 32.7528C69.9935 32.7867 69.8861 32.7312 69.9596 32.4581C70.978 28.679 70.9158 27.4099 70.9158 23.982C70.9775 24.0708 71.6999 25.2773 72.0412 25.8271C72.1055 25.9298 72.2438 26.0838 72.3302 26.0695C75.2442 25.7039 75.2364 25.5047 77.661 24.9487C78.0944 24.8461 78.1592 24.826 77.9931 24.3994C77.5732 23.5955 77.0536 22.8476 76.4467 22.1733C75.8842 21.6918 75.1583 21.3724 74.7804 20.7153C74.3177 19.9108 73.6124 19.1864 74.3378 18.0657C74.5952 17.6531 74.7296 17.1759 74.7252 16.6898C74.7209 16.2037 74.5779 15.729 74.3131 15.3211C74.2576 15.223 74.473 13.1751 74.381 12.2664C74.3037 11.2106 73.9872 10.1861 73.4556 9.27027C72.4401 7.56779 70.7978 6.3297 68.88 5.82079C67.9223 5.53599 66.8988 5.5617 65.9567 5.89421C65.7221 5.93696 65.4821 5.94112 65.2462 5.90653C64.5015 5.89487 63.7636 6.05013 63.0869 6.36088C62.869 6.47126 62.6134 6.05285 62.4294 5.88497C60.099 3.66636 57.2708 2.03683 54.181 1.1325C42.0803 -2.26564 32.5672 7.94521 33.1127 21.0819C33.1492 21.9721 33.1523 21.9598 34.016 21.9166C34.2406 21.9043 34.2622 21.8309 34.2591 21.6343C34.2314 20.09 34.2077 18.5426 34.2077 16.9984C34.2065 16.6909 34.2587 16.3855 34.362 16.0958C34.4267 15.9238 34.8385 15.835 34.8509 16.1636C34.8879 16.2894 34.9095 19.6849 34.9707 21.2415C34.9984 21.9197 35.0385 21.9012 35.7362 21.9089C36.0344 21.9151 36.0683 21.817 36.0498 21.5496C35.7321 17.1709 36.6899 12.2408 39.4193 8.68911C42.3307 4.90388 46.149 3.18145 50.9328 3.94589C54.1033 4.45568 56.7253 6.07749 59.0388 8.25068C59.2414 8.44063 59.082 8.49607 58.9648 8.60337C58.0025 9.43202 57.2607 10.4857 56.8055 11.6704C56.0835 13.7199 55.6438 15.8579 55.4986 18.0256C55.3789 19.7019 54.9845 21.3042 53.746 22.563C54.8529 22.5661 55.9567 22.563 57.0621 22.5707C58.7268 22.581 58.2445 23.4866 58.3237 26.1347C58.3278 26.2671 58.3422 26.3991 58.3453 26.5341C58.3576 27.2556 58.3689 27.9765 58.3792 28.697C60.6413 28.4552 59.5617 28.6857 65.567 27.5948C66.1043 27.4982 65.8488 27.9351 65.8318 28.5127C65.822 28.7694 65.7331 28.8443 65.4596 28.8597C64.7311 28.8962 64.0021 28.9917 63.2736 29.0651C63.2049 29.2871 63.181 29.5205 63.2031 29.7518C63.2253 29.9831 63.2931 30.2078 63.4026 30.4128C63.6325 31.1038 64.0548 31.7151 64.62 32.1752C64.7614 32.2948 64.857 32.396 64.7743 32.6049C63.7763 35.3952 61.9335 37.8062 59.5015 39.5034C59.4306 39.5496 59.3509 39.583 59.2769 39.623C59.2553 39.8597 59.2311 40.0958 59.2126 40.3351C59.1941 40.5743 59.228 40.6636 59.5015 40.5132C60.7795 39.7731 61.917 38.814 62.8618 37.6798C64.5875 35.7036 65.8173 33.3454 66.4492 30.8004C66.7224 29.7688 66.9285 28.7207 67.0662 27.6625C67.4308 24.5696 67.1599 21.435 66.2698 18.4502C64.819 13.4703 62.1903 9.25538 58.0219 6.08724C55.6652 4.22794 52.8388 3.0569 49.8563 2.70399C46.5572 2.34462 40.5472 5.08613 40.4336 5.13849C41.3934 3.87231 42.7369 2.94947 44.2643 2.50736C53.2402 -0.484168 65.2498 7.21876 67.5983 21.0259C68.3881 25.2412 67.9276 29.5951 66.2734 33.5527C65.0173 36.7165 62.7527 39.3793 59.8295 41.1293C59.6321 41.2091 59.4671 41.3527 59.3611 41.5372C59.255 41.7217 59.214 41.9363 59.2445 42.1468C59.3056 42.8897 59.2691 43.6387 59.2748 44.3847C59.8192 44.1634 60.3724 43.9612 60.9045 43.7173C61.1441 43.6069 61.2516 43.666 61.3672 43.8677C62.0063 44.9669 62.6582 46.0599 63.3008 47.156C63.4453 47.4045 63.5867 47.6442 63.9177 47.3922C63.8806 47.217 63.825 47.0463 63.7517 46.8829C63.2108 45.9218 62.6633 44.9669 62.0978 44.0181C61.941 43.7543 62.0176 43.6716 62.2669 43.5484C63.2659 43.0514 64.2529 42.5324 65.2364 42.0082C65.4364 41.9055 65.5408 41.9096 65.6853 42.097C66.2667 42.8584 66.8724 43.5982 67.4564 44.356C67.6348 44.5865 67.8132 44.7153 68.0928 44.5433C68.3232 44.3159 68.1818 44.129 68.025 43.9416C67.1705 42.9149 66.3217 41.8783 65.4611 40.8562C65.3259 40.6934 65.3012 40.5995 65.4642 40.4357C67.2725 38.5387 68.6594 36.2819 69.5344 33.813C69.554 33.7269 69.6055 33.6515 69.6786 33.6019C69.7517 33.5523 69.8409 33.5323 69.9282 33.546C72.3501 33.4635 74.6861 32.6298 76.6117 31.1608C77.5276 30.5735 78.2379 29.7163 78.644 28.7078C78.7194 28.4167 78.7698 28.1198 78.7946 27.8201C78.5909 27.6781 78.3725 27.5583 78.1432 27.4628ZM34.7213 15.1763C34.6103 15.1223 34.522 15.0308 34.472 14.9181C34.422 14.8054 34.4134 14.6787 34.4478 14.5603C34.5059 14.2918 34.7727 14.0351 34.9337 14.0351C35.2498 14.1085 35.2375 14.4032 35.2498 14.6614C35.2501 14.7302 35.2365 14.7983 35.2098 14.8617C35.1832 14.9251 35.144 14.9826 35.0948 15.0306C35.0455 15.0786 34.987 15.1163 34.9229 15.1413C34.8587 15.1663 34.7902 15.1783 34.7213 15.1763ZM65.1449 31.4934L65.0221 31.5396C64.7789 31.1253 64.5146 30.7259 64.2992 30.3024C64.0046 29.7068 64.0195 29.6976 64.693 29.6273C65.82 29.5061 65.7038 29.4486 65.1449 31.4934ZM59.9642 14.1018C60.7502 13.7384 61.4901 13.2829 62.1682 12.7449C62.396 12.5945 62.4973 12.576 62.6479 12.8373C65.0235 16.8696 66.1988 21.4946 66.0359 26.1701C66.0328 26.299 66.0205 26.4268 66.0112 26.5541C65.984 26.5603 65.9531 26.5633 65.9254 26.5695C65.6976 26.069 65.4627 25.5746 65.2395 25.0648C65.221 25.0191 65.3043 24.884 65.3691 24.8594C65.5439 24.7916 65.6858 24.7459 65.6148 24.5C65.5408 24.2433 65.3871 24.2238 65.166 24.2793C64.604 24.463 64.0056 24.5073 63.4227 24.4081C62.2288 24.0765 61.1916 23.3324 60.4958 22.3084C59.0604 20.4417 58.7067 18.2926 58.8543 16.0147C58.9206 15.049 59.0584 14.4314 59.9642 14.1018ZM70.3493 7.83585C71.2729 8.36431 72.0506 9.1136 72.6125 10.0164C73.1745 10.9192 73.503 11.9473 73.5687 13.0083C73.5753 13.1188 73.5743 13.2296 73.5656 13.3399C73.5532 13.5643 73.4885 13.782 73.2211 13.7696C72.852 13.7532 72.9306 13.3902 72.9476 13.0206C72.8289 11.5867 72.1906 10.2453 71.1523 9.24768C70.814 8.89139 70.4017 8.60954 70.0609 8.2594C69.8727 8.0638 70.0408 7.6459 70.3493 7.83585ZM69.2301 7.08373C69.324 7.08655 69.414 7.12222 69.4843 7.18453C69.5545 7.24683 69.6007 7.33181 69.6146 7.42463C69.5745 7.81121 69.427 7.88206 69.172 7.87282C69.1222 7.87507 69.0727 7.86627 69.0267 7.84706C68.9808 7.82784 68.9398 7.79869 68.9065 7.7617C68.8733 7.72472 68.8487 7.68082 68.8345 7.63319C68.8203 7.58555 68.8168 7.53536 68.8244 7.48623C68.8202 7.43204 68.8278 7.37757 68.8468 7.32661C68.8658 7.27565 68.8956 7.22943 68.9342 7.19113C68.9729 7.15284 69.0194 7.1234 69.0706 7.10486C69.1217 7.08631 69.1763 7.0791 69.2306 7.08373H69.2301ZM68.8188 14.9771C69.3293 15.2194 69.8825 15.4905 70.4387 15.7354C70.593 15.8052 71.2613 15.3842 72.0068 15.1122C72.2087 15.0396 72.4242 15.0122 72.6379 15.032C72.8516 15.0517 73.0583 15.1181 73.2435 15.2264C73.4287 15.3347 73.5878 15.4824 73.7095 15.6589C73.8313 15.8353 73.9127 16.0364 73.9481 16.2478C74.3789 17.8994 72.6972 19.2075 71.2613 19.0478C70.7755 18.9965 70.7662 18.9451 70.6187 19.3671C70.5272 19.4693 70.4275 19.5637 70.3205 19.6495C69.8177 18.0806 69.3139 16.5091 68.8219 14.9771H68.8188Z" fill="#111111"/><path d="M68.0888 44.5293C68.3222 44.2993 68.1773 44.115 68.021 43.9276C67.1645 42.9009 66.3193 41.8633 65.4571 40.8422C65.3219 40.6825 65.2972 40.5901 65.4602 40.4217C67.2711 38.5267 68.6584 36.2693 69.5304 33.7989C69.5499 33.7129 69.6015 33.6374 69.6746 33.5879C69.7477 33.5383 69.8369 33.5183 69.9242 33.532C72.3455 33.4465 74.6806 32.6131 76.6077 31.1468C77.5239 30.5598 78.2342 29.7025 78.64 28.6938C78.7166 28.4031 78.767 28.1063 78.7906 27.8066C86.0483 30.3182 90.1617 33.898 94.107 38.8066C94.2448 38.9785 94.3188 39.1377 93.9775 39.15C92.93 39.2493 91.9043 39.5103 90.937 39.9237C89.6643 40.4361 88.5443 41.2658 87.6842 42.3336C86.692 43.4517 85.7769 44.6438 84.89 45.8457C84.5539 46.3708 84.2716 46.9284 84.0474 47.5101C83.9348 47.756 83.8325 47.7668 83.6232 47.6235C81.9596 46.4987 81.775 46.4017 81.1637 46.1558C81.0871 46.125 80.9792 46.1712 80.8871 46.1804C80.9278 46.4494 80.8013 46.414 81.2984 46.7883C82.0182 47.334 82.7585 47.8541 83.4577 48.4311C83.722 48.6493 83.905 48.4825 84.126 48.4481C84.0527 48.5904 84.0313 48.7538 84.0655 48.9102C84.0998 49.0666 84.1875 49.2061 84.3137 49.3049C85.7018 50.7424 86.3141 52.2205 85.8997 55.0518C85.6427 56.8199 84.8026 58.3919 83.9322 59.9362C83.3546 61.0856 82.3759 61.9843 81.1807 62.4631C81.1167 62.4741 81.0509 62.4692 80.9892 62.4488C80.9275 62.4283 80.8718 62.3931 80.827 62.3461C78.9993 59.6734 71.2265 48.3151 69.171 45.3046C68.9526 44.9852 68.7083 44.7614 68.2914 44.8995C68.2179 44.7778 68.1531 44.6536 68.0888 44.5293ZM78.3541 52.1922C78.6663 52.2201 78.9805 52.2139 79.2913 52.1737C79.5201 52.1332 79.5715 51.9555 79.2944 51.917C79.1165 51.877 78.932 51.8657 78.7505 51.8277C78.0661 51.7704 77.3894 51.644 76.7305 51.4504C76.1188 51.2548 75.0854 50.689 74.4957 50.4236C74.2464 50.2947 74.1543 50.6141 74.271 50.8507C74.5629 51.0536 74.8691 51.2351 75.1872 51.3939C76.1662 51.9027 77.2506 52.1766 78.3541 52.1938V52.1922Z" fill="#E04747"/><path d="M31.0526 62.3366C31.394 62.3366 31.4773 62.4321 31.4768 62.7668C31.4706 66.107 31.4567 69.444 31.4768 72.7841C31.4768 73.1497 31.3663 73.2236 31.0218 73.2231C25.6788 73.2186 20.3346 73.2207 14.9892 73.2292C14.8178 73.2172 14.6487 73.2736 14.5188 73.3858C14.2998 73.6893 14.5065 73.9993 14.9059 74.0019C16.6369 74.005 27.3988 74.0081 31.049 74.0019C31.3966 74.0019 31.4922 74.1 31.467 74.4316C31.4367 74.8341 31.4531 75.2423 31.4454 75.6473C31.4384 75.7416 31.4516 75.8363 31.4842 75.9251C31.5168 76.0139 31.568 76.0947 31.6344 76.1621C31.7008 76.2296 31.7808 76.282 31.8692 76.3161C31.9575 76.3501 32.0521 76.3649 32.1467 76.3594C34.8365 76.3936 37.527 76.4222 40.2182 76.4451C40.5627 76.4451 40.6917 76.5247 40.6809 76.8933C40.592 79.5044 40.9981 80.12 39.829 80.12C29.8285 80.12 15.1321 80.1133 5.6334 80.1077C5.34697 80.0977 5.06343 80.047 4.79129 79.9572C4.59264 79.8881 4.42452 79.7516 4.31614 79.5715C4.20776 79.3915 4.16596 79.1792 4.198 78.9715C4.19183 75.6345 4.2088 64.8065 4.19183 62.7345C4.18875 62.3905 4.26227 62.2812 4.6314 62.2832C9.04042 62.3048 26.6565 62.3438 31.0526 62.3366ZM30.318 66.3062C30.5483 66.3339 30.6527 65.8184 30.0995 65.7476C24.6581 65.7476 19.2132 65.7625 13.7718 65.7507C13.1353 65.7507 12.7297 66.3108 14.1008 66.3185C14.1528 66.319 29.9303 66.3596 30.318 66.3062ZM17.9469 71.1937V71.206H23.4376C23.7173 71.1264 23.7908 71.0679 23.7785 70.7578C23.7588 70.6486 23.6976 70.5513 23.6078 70.4861C23.5179 70.421 23.4063 70.393 23.2962 70.4082C22.2752 70.42 15.0293 70.4539 12.4253 70.4595C12.1513 70.4595 11.9025 70.5211 11.9087 70.8404C11.9159 71.188 12.2567 71.1967 12.6037 71.1962C14.3836 71.1952 16.1646 71.1943 17.9469 71.1937ZM25.5043 68.8269C25.5799 68.8091 25.6497 68.7724 25.7073 68.7203C25.7648 68.6683 25.8082 68.6025 25.8334 68.5292C25.8421 68.4874 25.8425 68.4444 25.8346 68.4025C25.8266 68.3606 25.8105 68.3207 25.7871 68.285C25.7637 68.2493 25.7335 68.2186 25.6982 68.1946C25.6629 68.1706 25.6233 68.1538 25.5815 68.1451C25.3722 68.0851 25.6653 68.1128 17.7942 68.1179C17.6856 68.119 17.5774 68.1312 17.4713 68.1544C17.3918 68.1685 17.3201 68.2107 17.2692 68.2733C17.2183 68.3359 17.1918 68.4148 17.1944 68.4954C17.197 68.576 17.2286 68.6529 17.2835 68.7121C17.3383 68.7713 17.4127 68.8088 17.4929 68.8177C17.7263 68.8536 25.1912 68.8582 25.5064 68.8269H25.5043ZM28.9813 71.1998C29.2646 71.1998 29.5257 71.1485 29.5319 70.8071C29.5381 70.4657 29.2491 70.4261 29.006 70.4231C27.6811 70.4087 26.3531 70.4123 25.0278 70.4138C24.7789 70.4138 24.5877 70.5165 24.6129 70.804C24.6117 70.8624 24.6234 70.9204 24.6471 70.9738C24.6708 71.0272 24.7059 71.0747 24.7501 71.1131C24.7942 71.1514 24.8462 71.1796 24.9025 71.1957C24.9587 71.2117 25.0178 71.2152 25.0756 71.206C25.2324 71.2034 28.9319 71.1998 28.9833 71.1998H28.9813ZM9.44503 73.3489C8.94685 73.3674 9.18797 73.9413 9.43886 73.9049C9.73704 73.9562 12.5132 73.9757 13.5924 73.9906C13.8232 73.9937 13.9954 73.8833 13.943 73.6928C13.8664 73.4166 13.7461 73.3124 13.4201 73.3273C12.9323 73.3093 10.2177 73.2477 9.44606 73.3489H9.44503Z" fill="#BABEC9"/><path d="M92.6799 81.0838L92.6029 80.9702C91.367 79.1477 86.2278 71.5697 85.6735 70.7638L85.645 70.7224L85.6226 70.6775C85.5826 70.5972 85.5529 70.5125 85.534 70.4255C85.0392 70.7359 84.5005 70.9781 83.9319 71.1423C83.2124 71.3601 82.4796 71.5318 81.7382 71.6563C81.0692 71.8038 80.3875 71.8744 79.7061 71.8678C79.8946 72.0626 80.0542 72.2844 80.1793 72.5266C81.9629 75.3187 86.4294 81.9975 87.7379 83.954C87.8262 84.0861 87.9002 84.1967 87.9579 84.2831C88.358 84.0567 89.1394 83.5941 89.9835 83.0574C91.0817 82.3591 92.182 81.5998 92.6713 81.1166C92.6714 81.1166 92.6714 81.1166 92.6714 81.1165L92.6799 81.0838ZM92.6799 81.0838C92.6833 81.0888 92.6866 81.0936 92.6897 81.0983L92.6799 81.0838ZM98.0613 49.0202C98.0613 49.0203 98.0613 49.0204 98.0613 49.0204L97.5373 49.0849C97.5373 49.0848 97.5373 49.0848 97.5373 49.0848M98.0613 49.0202L97.5373 49.0848M98.0613 49.0202C97.9772 48.3365 97.9066 47.7769 97.8266 47.2768M98.0613 49.0202L97.8266 47.2768M97.5373 49.0848C97.5015 48.4864 97.4679 47.9275 97.3721 47.3524M97.5373 49.0848L97.3721 47.3524M97.3721 47.3524C97.0517 45.4608 96.2827 43.7246 95.3679 41.9812C95.3679 41.9811 95.3678 41.981 95.3678 41.9809C95.1622 41.5891 94.9493 41.197 94.7325 40.8027L97.3721 47.3524ZM97.8266 47.2768L98.0774 47.2343L97.8266 47.2768ZM91.9963 73.2792C91.894 74.1889 91.7741 75.0808 91.6732 75.7614C90.4573 74.0756 88.1025 70.8022 87.2819 69.6483C87.1908 69.5201 87.0568 69.3829 86.8773 69.2944C87.009 69.1476 87.1343 68.9942 87.2524 68.8345L87.2593 68.8252L87.2658 68.8157C87.7698 68.0866 88.335 67.4016 88.9553 66.7682C89.5404 66.3569 90.105 65.9184 90.6471 65.4541C90.6871 65.5619 90.7395 65.654 90.7871 65.7268C91.5452 66.9124 92.0257 68.2535 92.1929 69.6503L92.1938 69.658L92.1949 69.6656C92.2328 69.9335 92.2323 70.4343 92.1925 71.1056C92.1538 71.7587 92.0817 72.5203 91.9963 73.2792ZM86.116 70.4768L86.1164 70.4772L86.116 70.4768Z" fill="#111111" stroke="#111111" stroke-width="1.43023"/><path d="M80.2299 62.7559L80.262 62.802L80.3008 62.8425C80.3208 62.8632 80.3415 62.8832 80.3629 62.9023C80.2773 62.9784 80.1997 63.0638 80.1317 63.1573C79.6928 63.7184 79.0734 64.1117 78.3776 64.2704L78.3573 64.275L78.3373 64.2809C77.6787 64.472 76.9983 64.5781 76.3127 64.5964C76.1553 64.5961 75.9688 64.6119 75.8115 64.6252C75.7722 64.6285 75.7348 64.6317 75.7001 64.6344C75.4953 64.6504 75.3166 64.6588 75.158 64.6464C74.8511 64.6223 74.7826 64.5443 74.7376 64.4312L74.7217 64.3911L74.701 64.3532C74.6371 64.236 74.5623 64.1251 74.4777 64.0221C74.417 63.8897 74.3501 63.7602 74.277 63.6341L74.2658 63.6149L74.2535 63.5963C73.5621 62.5581 72.1934 60.5138 70.6839 58.2592C68.2177 54.5756 65.3756 50.3308 64.498 48.9955L64.498 48.9954C64.3768 48.8111 64.3104 48.696 64.2747 48.6181C64.3178 48.5635 64.3893 48.4858 64.5127 48.3628L64.5127 48.3628L64.514 48.3615C64.5579 48.3176 64.5945 48.2774 64.6268 48.2373C64.6601 48.214 64.7103 48.1797 64.7878 48.1273C64.87 48.0717 64.9779 47.9993 65.1198 47.904C65.6435 47.5523 66.6305 46.8895 68.5012 45.616C68.521 45.6402 68.5442 45.6711 68.5715 45.7109C69.3455 46.8378 70.9247 49.1522 72.6923 51.7429C75.6243 56.04 79.0749 61.0972 80.2299 62.7559ZM64.5831 48.269C64.583 48.269 64.5838 48.2684 64.5855 48.267C64.584 48.2683 64.5831 48.269 64.5831 48.269Z" fill="#111111" stroke="#111111" stroke-width="1.43023"/><path d="M68.801 63.256C68.9104 63.4123 69.0374 63.5556 69.1794 63.6831C70.4045 64.6508 71.9066 65.2034 73.4676 65.2608C73.5989 65.2494 73.7296 65.2885 73.8331 65.3701C73.9365 65.4516 74.0049 65.5695 74.0243 65.6997C74.1123 65.999 74.2921 66.2632 74.5385 66.4549C74.6915 66.5333 74.8117 66.6634 74.8777 66.822C74.9436 66.9806 74.9509 67.1575 74.8983 67.321C74.7215 68.0762 75.1631 68.662 75.5965 69.2334C75.6988 69.3695 75.7519 69.5362 75.7471 69.7063C75.4798 72.3199 78.219 71.8774 78.6951 72.6752C79.5531 74.1127 80.388 75.5599 81.2317 77.0036C81.3299 77.1725 81.3268 77.231 81.1114 77.231C73.9945 77.2259 74.4351 77.2577 74.2865 77.1448C73.045 76.2022 72.3298 75.562 71.8239 75.2385C71.8255 75.3271 71.8401 75.415 71.8671 75.4994C72.2172 76.202 72.7544 76.7948 73.4198 77.2125C72.9442 77.2403 73.8979 77.2187 66.0721 77.2341C65.8078 77.2341 65.6911 77.2033 65.7585 76.8994C66.4561 73.7389 67.9177 66.2527 68.7007 63.2432C68.7329 63.2542 68.767 63.2585 68.801 63.256Z" fill="#111111"/><path d="M62.2072 52.1636C63.2956 52.1728 63.9804 52.4675 63.9783 53.9563C63.9681 60.5726 63.9691 67.1895 63.9814 73.8071C64.0177 74.1597 63.9513 74.5152 63.7904 74.8311C63.6294 75.1469 63.3807 75.4098 63.074 75.5881C62.924 75.6655 62.7575 75.7055 62.5887 75.7046C53.6205 75.7046 34.1172 75.6856 33.3357 75.6954C32.3856 75.7072 31.8237 75.1368 31.8139 74.0926C31.7965 72.2048 31.8309 58.7796 31.8417 53.9563C31.8235 53.6999 31.8358 53.4423 31.8782 53.1888C31.944 52.9042 32.1045 52.6504 32.3335 52.4686C32.5624 52.2869 32.8463 52.188 33.1388 52.1882C33.6683 52.1589 62.1702 52.1631 62.2072 52.1636ZM32.7769 55.6449C32.5029 55.6449 32.4232 55.7065 32.4293 55.9858C32.4509 56.9684 32.4381 57.9505 32.4417 58.9331C32.4586 64.0753 32.4931 69.2205 32.5121 74.3631C32.5246 74.4676 32.5603 74.5679 32.6167 74.6568C32.6731 74.7456 32.7488 74.8207 32.8381 74.8765C33.419 75.1846 34.1444 75.0275 35.6359 75.0269C44.5471 75.0269 53.4555 75.028 62.3609 75.03C62.539 75.0482 62.7177 75.0026 62.8653 74.9015C63.0128 74.8003 63.1196 74.6501 63.1666 74.4776C63.3753 73.8461 63.2987 75.3447 63.3141 56.1187C63.3141 55.7778 63.2247 55.6993 62.893 55.7013C57.8907 55.728 37.8126 55.6495 32.7769 55.6449ZM62.9038 54.8989C62.9774 54.8989 63.4509 54.8116 63.2637 53.5944C63.1717 52.984 62.8951 52.9588 62.2771 52.9034C62.1296 52.9188 42.8165 52.8818 33.3044 52.8756C33.2059 52.8627 33.1057 52.8706 33.0106 52.8991C32.9154 52.9275 32.8273 52.9758 32.7522 53.0407C32.677 53.1056 32.6165 53.1857 32.5746 53.2756C32.5327 53.3656 32.5103 53.4634 32.509 53.5626C32.4602 53.9127 32.4905 54.9441 32.7522 54.9441C37.791 54.9374 57.8907 54.8974 62.9054 54.8974L62.9038 54.8989Z" fill="#111111"/><path d="M68.6985 63.242C68.3901 62.7573 65.8154 58.7596 64.8427 57.2497C64.4458 56.6336 64.6412 56.5273 64.3445 52.3622C64.2988 51.7205 64.0556 51.5361 63.4222 51.5207C62.1467 51.4899 60.8737 51.4401 59.5977 51.4104C59.3304 51.4042 59.2558 51.3 59.2564 51.0325C59.2625 48.8133 59.2666 46.5927 59.2687 44.3707C59.8131 44.1495 60.3663 43.9467 60.8984 43.7033C61.138 43.593 61.2449 43.652 61.3611 43.8538C62.0002 44.955 62.6541 46.0449 63.2947 47.142C63.4397 47.3905 63.5806 47.6272 63.9116 47.3782C63.9913 47.4809 64.0659 47.5835 64.1466 47.6862C64.1027 47.7442 64.0555 47.7995 64.0052 47.852C63.4135 48.4245 63.3806 48.5954 63.8978 49.384C65.31 51.5403 71.8382 61.2582 73.6556 63.9885C73.7343 64.1229 73.8042 64.2623 73.8648 64.4058C72.1721 64.5067 70.4859 64.1199 69.007 63.2913C68.9071 63.2603 68.8032 63.2437 68.6985 63.242Z" fill="#E04747"/><path d="M1.98149 58.2815C1.63733 58.2654 1.31108 58.1236 1.06468 57.8832C0.818272 57.6427 0.668859 57.3202 0.644799 56.977C0.624235 56.5745 0.635545 56.1664 0.635545 55.7639C0.635545 33.0206 0.603156 34.1501 0.718317 33.7276C0.810814 33.3814 1.02344 33.0793 1.31826 32.8752C1.61308 32.6711 1.97094 32.5781 2.328 32.613C2.62773 32.6053 21.2011 32.5658 21.4165 32.6346C21.5707 32.6833 21.5758 33.2506 21.4319 33.302C21.2699 33.361 22.5527 33.3312 2.30949 33.3261C2.07332 33.3299 1.84613 33.4171 1.66824 33.5722C1.49036 33.7274 1.37329 33.9405 1.33782 34.1737C1.23911 35.4325 1.87918 35.2421 2.1604 35.2421C21.9871 35.2513 21.6021 35.2185 21.618 35.3155C21.6444 35.5201 21.6434 35.7273 21.6149 35.9316C21.6067 36.0014 22.255 36.0029 1.70541 35.9829C1.3733 35.9829 1.30698 36.0686 1.30852 36.3849C1.34399 42.7432 1.31314 49.1042 1.3116 55.462C1.3116 55.8768 1.26019 56.2942 1.26276 56.7085C1.26306 56.8341 1.28851 56.9584 1.33761 57.074C1.38671 57.1897 1.45846 57.2943 1.54866 57.3819C1.63886 57.4694 1.74568 57.538 1.86283 57.5837C1.97998 57.6294 2.1051 57.6513 2.23083 57.648C8.23823 57.6295 26.9365 57.6449 30.2782 57.6449C30.6134 57.6449 30.8062 57.436 30.8098 57.0371C30.8515 52.8417 30.763 52.6086 30.8653 52.4412C30.927 52.3385 31.3913 52.2754 31.4494 52.4566C31.4825 52.5361 31.4931 52.6231 31.4802 52.7082C31.4802 54.1821 31.4931 55.6555 31.4864 57.1264C31.4829 57.4403 31.3558 57.7401 31.1325 57.9611C30.9093 58.1821 30.608 58.3064 30.2936 58.3072C25.6384 58.3139 2.76551 58.3185 1.98149 58.2815Z" fill="#111111"/><path d="M5.97871 61.5668C5.48362 61.5668 4.27545 61.7024 4.27545 61.2588C4.23899 60.7674 4.23487 60.2742 4.26312 59.7823C4.29653 59.54 4.47853 58.9608 5.80545 58.966C13.0395 58.9814 29.6716 58.9598 30.7507 58.966C31.5666 58.9706 31.3676 59.0497 31.4668 61.2501C31.4771 61.4677 31.4154 61.5653 31.181 61.5478C31.0535 61.5355 15.0847 61.5601 5.97871 61.5668ZM7.49122 60.5662C7.79969 60.5447 7.76885 60.3388 7.75856 60.2377C7.75618 60.1691 7.72735 60.1041 7.67811 60.0563C7.62886 60.0084 7.56301 59.9814 7.49431 59.981C7.39149 60.0056 7.24702 60.0323 7.22697 60.2479C7.21258 60.425 7.27273 60.5293 7.49122 60.5662ZM6.4738 60.2715C6.46998 60.2052 6.44249 60.1425 6.39632 60.0947C6.35015 60.0469 6.28835 60.0171 6.22212 60.0109C6.1559 60.0047 6.08964 60.0224 6.03536 60.0608C5.98108 60.0992 5.94238 60.1558 5.92627 60.2202C5.92627 60.4815 6.07073 60.4928 6.15093 60.4995C6.24913 60.5103 6.40594 60.5231 6.4738 60.2715ZM9.18831 60.2407C9.08189 59.8429 8.65929 59.9173 8.66237 60.2839C8.67302 60.3434 8.70229 60.398 8.74598 60.4399C8.78967 60.4818 8.84554 60.5088 8.90555 60.5169C9.04384 60.5169 9.1698 60.4774 9.18831 60.2428V60.2407Z" fill="#BABEC9"/><path d="M63.2593 29.0596C63.1908 29.2817 63.167 29.5152 63.1891 29.7465C63.2113 29.9779 63.279 30.2026 63.3883 30.4077C63.6203 31.0976 64.0423 31.7082 64.6057 32.1697C64.7476 32.2893 64.8402 32.391 64.76 32.5994C63.6731 35.4066 62.0352 37.8093 59.4908 39.4978C59.4204 39.5446 59.3402 39.5774 59.2662 39.6175C59.2466 31.6476 59.2698 32.0455 59.1803 30.9509C59.1577 30.836 59.1762 30.7169 59.2325 30.6142C59.2889 30.5116 59.3796 30.4319 59.4888 30.3893C60.2486 30.0555 60.9982 29.6957 61.7761 29.4066C62.2625 29.2593 62.7579 29.1434 63.2593 29.0596Z" fill="#E04747"/><path d="M4.47998 42.162C4.47998 41.474 4.72881 41.2209 5.4023 41.2194C6.87471 41.2158 8.35022 41.2194 9.82366 41.2194C10.4874 41.2194 10.746 41.4761 10.746 42.125V49.7478C10.746 50.3834 10.4812 50.6504 9.86016 50.6504H5.36528C4.74423 50.6504 4.47998 50.3834 4.47998 49.7478V42.162ZM10.238 42.1707C10.2411 41.8668 10.164 41.7287 9.82675 41.7317C8.35296 41.7461 6.87917 41.7461 5.40538 41.7317C5.10411 41.7317 4.99409 41.8241 4.99409 42.1342C4.99855 44.6635 4.99855 47.1922 4.99409 49.7201C4.99409 50.0456 5.10823 50.1437 5.4244 50.1406C6.88517 50.1276 8.34662 50.1276 9.80875 50.1406C10.1254 50.1437 10.2427 50.0456 10.2391 49.7201C10.2272 48.7051 10.2283 43.179 10.238 42.1717V42.1707Z" fill="#111111"/><path d="M14.4937 42.737C14.4484 42.7462 14.4016 42.7457 14.3564 42.7355C14.3113 42.7253 14.2689 42.7056 14.232 42.6777C14.195 42.6498 14.1645 42.6144 14.1423 42.5738C14.1202 42.5332 14.107 42.4884 14.1035 42.4423C14.1099 42.3674 14.1453 42.2979 14.2021 42.2486C14.2589 42.1993 14.3327 42.1739 14.4079 42.1779C16.6766 42.2067 18.9454 42.1492 21.2142 42.1445C21.408 42.1445 21.6507 42.1384 21.6507 42.4238C21.6507 42.7319 21.5031 42.7591 21.2636 42.7586C20.1104 42.7555 15.595 42.7401 14.4937 42.737Z" fill="#111111"/><path d="M12.5508 47.7495C12.3323 47.7341 12.248 47.2597 12.5569 47.1909C12.7672 47.1437 17.3989 47.1576 17.4821 47.1786C17.548 47.1939 17.6065 47.2312 17.6481 47.2844C17.6897 47.3376 17.7118 47.4034 17.7108 47.4709C17.7097 47.5384 17.6855 47.6034 17.6422 47.6552C17.5989 47.7071 17.5392 47.7425 17.4729 47.7557C17.4215 47.7582 12.615 47.7829 12.5508 47.7495Z" fill="#111111"/><path d="M80.9685 66.3315C80.8947 66.4395 80.8137 66.5425 80.7258 66.6395C79.994 67.318 79.025 67.6829 78.0267 67.656C76.1723 67.7171 76.1914 67.6791 75.3796 67.2453C75.303 67.2047 75.2737 66.9932 75.2937 66.871C75.3369 66.6005 75.5456 66.754 75.6536 66.794C76.734 67.1586 77.8973 67.2012 79.0015 66.9167C79.5217 66.7627 80.0302 66.572 80.5233 66.3458C80.6496 66.3051 80.778 66.2709 80.9078 66.2432C80.9263 66.2737 80.9466 66.3032 80.9685 66.3315Z" fill="#111111"/><path d="M78.0087 70.0502C77.62 69.9424 77.2036 69.8279 76.7908 69.7011C76.5599 69.6308 76.2797 69.5199 76.4093 69.219C76.4494 69.1271 76.7908 69.0896 76.963 69.1394C77.5958 69.3701 78.275 69.4448 78.9428 69.3571C79.5423 69.238 80.1135 68.9772 80.7011 68.8016C80.8964 68.7614 81.095 68.7389 81.2944 68.7344C81.1996 68.9028 81.0905 69.0629 80.9684 69.2129C80.4964 69.608 79.9219 69.8615 79.3115 69.9439C78.8967 70.1048 78.4441 70.1418 78.0087 70.0502Z" fill="#111111"/><path d="M18.7483 47.7089C18.5364 47.7089 18.3334 47.6601 18.337 47.4009C18.3406 47.1416 18.5462 47.098 18.7549 47.0969C19.6377 47.0938 20.5199 47.0969 21.4021 47.0754C21.6849 47.0692 21.6448 47.235 21.6448 47.407C21.6448 47.579 21.6756 47.7453 21.3959 47.7325C20.9558 47.7099 19.1878 47.7161 18.7483 47.7089Z" fill="#111111"/><path d="M12.5334 42.7014C12.4198 42.6942 12.263 42.7527 12.2383 42.4447C12.2691 42.2173 12.3211 42.1957 12.4953 42.188C12.7338 42.1595 12.975 42.1647 13.212 42.2034C13.4485 42.2157 13.4855 42.6845 13.1966 42.7009C13.0958 42.704 12.6563 42.7091 12.5334 42.7014Z" fill="#111111"/><path d="M58.3163 26.1341C58.1569 26.1341 25.172 26.1177 22.4945 26.093C22.1439 26.0869 22.0673 26.1957 22.0704 26.5227C22.0822 27.2964 22.0581 49.901 22.1069 51.1506C22.1285 51.6876 22.3161 51.818 22.8662 51.818C26.0239 51.8273 57.6896 51.8427 57.8372 51.8334C57.9021 51.8385 57.9674 51.8291 58.0282 51.8058C58.0891 51.7826 58.144 51.7462 58.189 51.6992C58.2341 51.6521 58.268 51.5957 58.2885 51.534C58.309 51.4722 58.3156 51.4067 58.3076 51.3421C58.3127 51.0254 58.3708 26.9047 58.3163 26.1341ZM42.6035 30.1899C43.8055 30.1714 45.008 30.1776 46.21 30.1806C46.4249 30.1806 46.6465 30.2484 46.6095 30.4887C46.5941 30.596 46.3524 30.7341 46.2069 30.7402C45.7005 30.7639 43.3793 30.749 42.6344 30.7526C42.3979 30.7556 42.1825 30.6945 42.1979 30.4445C42.2041 30.3511 42.4591 30.1945 42.6035 30.1914V30.1899ZM38.6315 30.2361C39.4618 30.2084 40.3594 30.2695 41.1897 30.2756C41.8349 30.4137 41.5213 30.7485 41.0787 30.7377C40.6885 30.7284 38.6593 30.7074 38.5641 30.6951C38.321 30.6643 38.0691 30.2987 38.6315 30.2376V30.2361ZM36.3627 30.1847C36.6275 30.1786 37.3467 30.2279 37.5339 30.1847C37.8721 30.1909 37.8202 30.7587 37.5925 30.7402C37.1664 30.7638 36.7393 30.7628 36.3134 30.7372C36.08 30.7346 35.9632 30.1976 36.3627 30.1883V30.1847ZM25.1628 30.1853C25.8856 30.1575 26.6537 30.176 27.3334 30.176C27.3745 30.1693 27.4166 30.1716 27.4568 30.1826C27.497 30.1936 27.5344 30.2132 27.5664 30.2399C27.5983 30.2666 27.6242 30.2999 27.6421 30.3375C27.6601 30.375 27.6697 30.416 27.6704 30.4577C27.6711 30.4993 27.6627 30.5406 27.646 30.5787C27.6293 30.6168 27.6045 30.6509 27.5734 30.6787C27.5423 30.7064 27.5056 30.7271 27.4658 30.7394C27.426 30.7517 27.384 30.7553 27.3426 30.75C26.9771 30.7315 25.5227 30.7777 25.1751 30.7346C25.1367 30.7394 25.0977 30.7362 25.0606 30.725C25.0235 30.7138 24.9892 30.695 24.9599 30.6698C24.9305 30.6445 24.9068 30.6134 24.8903 30.5784C24.8738 30.5435 24.8648 30.5054 24.8639 30.4668C24.8631 30.4281 24.8703 30.3897 24.8853 30.354C24.9002 30.3183 24.9225 30.2862 24.9507 30.2596C24.9788 30.2331 25.0123 30.2128 25.0488 30.2C25.0854 30.1871 25.1242 30.1821 25.1628 30.1853ZM27.3056 32.5371C27.0485 32.5489 25.7319 32.5433 25.2918 32.5125C24.9726 32.5489 24.9417 32.0119 25.2492 31.9991C25.953 31.9683 26.7 31.9744 27.3827 31.9929C27.7303 32.0766 27.5822 32.5458 27.3056 32.5371ZM24.8219 39.8529C24.788 39.5824 25.0492 39.549 25.2615 39.5449C25.5612 39.5382 27.7061 39.5413 27.7575 39.5418C27.9698 39.5449 28.176 39.5968 28.1822 39.8457C28.1883 40.0947 27.9883 40.162 27.7709 40.162C26.9257 40.162 26.0805 40.1743 25.2378 40.1435C25.0893 40.1384 24.8374 39.9695 24.8219 39.8529ZM25.4764 41.311C26.1992 41.2863 26.9217 41.2843 27.6439 41.3048C27.706 41.3072 27.7648 41.3335 27.808 41.3781C27.8513 41.4227 27.8756 41.4823 27.876 41.5444C27.8764 41.6065 27.8528 41.6663 27.8102 41.7115C27.7675 41.7566 27.7091 41.7837 27.647 41.7869C27.284 41.8177 26.9154 41.7992 26.5463 41.7992V41.79C26.19 41.79 25.8332 41.8115 25.4826 41.7807C25.2214 41.8054 25.1448 41.3233 25.4764 41.311ZM28.0192 46.1522C27.7303 46.1522 26.027 46.1923 25.6147 46.1461C25.1936 46.1974 25.2769 45.6794 25.609 45.6887C26.3653 45.6584 27.1246 45.6491 27.8809 45.6645C28.2804 45.6948 28.2403 46.1522 28.0192 46.1522ZM29.0274 30.4738C29.0119 30.1606 29.4027 30.1822 29.6237 30.176C30.6108 30.1699 34.1124 30.1606 34.9576 30.176C35.2101 30.1806 35.3329 30.25 35.4008 30.3911C35.4008 30.5842 35.3299 30.7777 35.1792 30.7505C33.913 30.7798 30.655 30.7546 29.6978 30.7413C29.4459 30.7377 29.0459 30.8054 29.0274 30.4738ZM29.3168 41.5841C29.3238 41.5324 29.3439 41.4833 29.3751 41.4415C29.4063 41.3996 29.4476 41.3664 29.4952 41.3449C29.9704 41.307 30.4481 41.3142 30.9219 41.3664C30.9769 41.3787 31.1337 41.4491 31.1368 41.5903C31.1398 41.713 31.0478 41.8603 30.9157 41.8516C30.441 41.8698 29.9657 41.8605 29.4921 41.8238C29.4439 41.8035 29.4021 41.7704 29.3712 41.7282C29.3403 41.686 29.3215 41.6362 29.3168 41.5841ZM40.6206 40.1507C39.0968 40.1887 43.2832 40.1872 34.9916 40.1872V40.1784C33.27 40.1784 31.5494 40.1784 29.8299 40.1784C29.4577 40.2811 28.923 39.5737 30.0756 39.5829C32.2987 39.6014 34.4805 39.5197 36.6331 39.5495C39.6073 39.5901 40.3347 39.5495 40.6057 39.6075C40.9465 39.6809 40.9064 40.1384 40.6206 40.1507ZM45.0137 41.2956C45.2476 41.2956 45.5859 41.2191 45.5951 41.5687C45.6075 41.9558 45.2538 41.8767 45.0111 41.8767C43.7916 41.8767 31.9403 41.8813 31.8622 41.8557C31.6622 41.7879 31.6159 41.3212 31.8653 41.312C32.2472 41.2956 29.2577 41.2956 45.0137 41.2956ZM35.6743 46.1522C34.77 46.1522 30.8011 46.1492 29.7374 46.1312C29.4459 46.0912 29.3163 45.7051 29.7404 45.7071C31.7146 45.7174 33.713 45.7472 35.6867 45.7225C35.9262 45.7195 36.1843 45.6856 36.1812 45.9253C36.1812 46.1892 35.846 46.1492 35.6743 46.1522ZM42.8745 46.1492C41.9151 46.1461 38.1333 46.1553 37.1961 46.1522C37.0054 46.1522 36.7683 46.1923 36.7776 45.8853C36.7869 45.6122 36.9776 45.5629 37.2146 45.5629C39.1079 45.569 40.9995 45.5701 42.8894 45.566C43.1387 45.566 43.2647 45.6491 43.2647 45.8945C43.2647 46.1728 43.0616 46.1492 42.8745 46.1492ZM49.7425 46.1312C49.6911 46.1605 50.033 46.1461 44.3284 46.1461C44.2554 46.148 44.1824 46.1449 44.1099 46.1368C43.6796 46.0665 43.8888 45.5624 44.007 45.5629C44.7664 45.567 48.6094 45.5721 49.47 45.5721C50.1018 45.5629 49.8561 46.0634 49.7425 46.1312ZM52.8323 32.5166C52.7295 32.5623 29.6546 32.5499 29.3656 32.5135C29.252 32.4981 29.2114 32.4334 29.1718 32.2676C29.1742 32.2088 29.196 32.1526 29.2339 32.1076C29.2717 32.0626 29.3235 32.0315 29.3811 32.0191C29.5132 31.9729 52.786 32.0006 52.8472 32.016C53.333 32.1408 53.0842 32.5458 52.8323 32.5166Z" fill="#BABEC9"/><path d="M61.5535 17.7477C61.773 16.9992 62.3072 15.4149 62.3406 15.3861C62.4434 15.3004 62.8182 15.4169 62.7956 15.5273C62.6059 16.4586 62.0558 18.3545 61.9288 19.4198C61.8512 20.0708 62.8336 20.3044 62.8326 20.3439C62.8126 21.1556 61.81 20.8732 61.4738 20.3532C61.0209 19.8927 61.3844 18.3222 61.5535 17.7477Z" fill="#111111"/><path d="M62.1706 22.1746C62.0786 22.1233 61.9819 21.6736 62.3212 21.7126C62.6033 21.7805 62.8901 21.8269 63.1793 21.8512C63.8003 21.8265 64.2548 20.7299 64.2949 20.6873C64.4173 20.558 64.5519 20.3752 64.701 20.3557C64.9535 20.3233 65.0445 20.5462 65.0547 20.7736C65.0866 21.5165 64.5998 21.996 64.0368 22.4005C63.5469 22.7542 62.5006 22.3636 62.1706 22.1746Z" fill="#111111"/><path d="M61.3135 14.0771C61.4018 14.0794 61.4868 14.1109 61.5552 14.1667C61.6236 14.2224 61.6715 14.2993 61.6914 14.3852C61.766 14.6095 61.5886 14.7661 61.3752 14.7815C61.0913 14.8248 60.8193 14.9262 60.5764 15.0793C60.3336 15.2325 60.1251 15.4342 59.964 15.6717C59.7825 15.9053 59.5949 15.5768 59.6164 15.4536C59.7134 15.0724 59.9309 14.7326 60.2367 14.4846C60.5424 14.2366 60.92 14.0938 61.3135 14.0771Z" fill="#111111"/><path d="M61.3212 17.2284C61.3284 18.2818 60.1187 18.1797 60.1099 17.2746C60.1048 16.7432 60.331 16.3885 60.6786 16.3838C61.0261 16.3792 61.3181 16.7678 61.3212 17.2284Z" fill="#111111"/><path d="M48.8637 65.1374C48.8317 66.551 48.3824 67.9236 47.5722 69.0832C46.762 70.2428 45.627 71.1376 44.3095 71.6555C42.992 72.1734 41.5506 72.2913 40.1663 71.9943C38.782 71.6974 37.5163 70.9989 36.528 69.9864C35.5396 68.9739 34.8727 67.6925 34.6109 66.303C34.349 64.9135 34.5038 63.4776 35.0559 62.1757C35.6081 60.8737 36.5329 59.7635 37.7144 58.9843C38.8959 58.2052 40.2816 57.7917 41.6975 57.7959C43.622 57.8226 45.4574 58.6105 46.8008 59.9869C48.1443 61.3632 48.8862 63.2155 48.8637 65.1374ZM48.3496 64.8294C48.3013 63.3438 47.7586 61.9167 46.8072 60.7736C46.6566 60.5857 46.5759 60.5682 46.4011 60.7551C43.4795 63.9039 40.5652 67.0599 37.6581 70.2231C37.5224 70.3699 37.4941 70.4479 37.6766 70.5825C42.0913 73.9103 48.3979 70.7945 48.3475 64.8273L48.3496 64.8294ZM35.0068 65.4455C35.0666 67.1262 35.7555 68.7235 36.9373 69.9217C37.0982 70.0927 37.1944 70.1492 37.383 69.934C38.6112 68.5479 39.8569 67.1756 41.0816 65.7864C41.1423 65.7162 41.1885 65.6347 41.2175 65.5465C41.2465 65.4584 41.2578 65.3655 41.2507 65.273C40.8394 63.1472 40.4243 61.0217 40.0055 58.8966C39.951 58.6174 39.8672 58.5588 39.5752 58.6574C36.8607 59.5718 34.9729 62.1998 35.0048 65.4444L35.0068 65.4455ZM41.7026 64.9726C41.789 64.9572 41.8054 64.9572 41.8106 64.9511C43.2059 63.3596 44.6058 61.765 45.9913 60.1591C46.0067 60.1176 46.011 60.0729 46.004 60.0293C45.997 59.9857 45.9788 59.9446 45.9512 59.9101C45.2222 59.2786 44.3621 58.8164 43.4328 58.5566C42.5035 58.2969 41.528 58.2461 40.5767 58.4079C40.5333 58.4298 40.4963 58.4626 40.4693 58.5029C40.4423 58.5433 40.4262 58.59 40.4225 58.6384C40.8692 60.7382 41.2702 62.8503 41.7005 64.9716L41.7026 64.9726Z" fill="#111111"/><path d="M59.7802 60.1804C60.0018 60.1917 60.2295 60.223 60.2167 60.5085C60.2049 60.7652 59.9833 60.7939 59.7771 60.7939C59.571 60.7939 51.4418 60.8114 51.2305 60.779C50.9971 60.7431 50.9976 60.2533 51.2305 60.1984C51.4557 60.1455 59.7185 60.1768 59.7802 60.1804Z" fill="#111111"/><path d="M53.6265 69.243C53.5682 69.2239 53.5172 69.1872 53.4807 69.1379C53.4441 69.0887 53.4238 69.0293 53.4224 68.9681C53.4211 68.9068 53.4388 68.8466 53.4731 68.7958C53.5075 68.745 53.5568 68.7061 53.6142 68.6844C53.8255 68.6007 60.6791 68.6331 60.75 68.6813C60.805 68.703 60.8523 68.7404 60.886 68.7888C60.9198 68.8372 60.9385 68.8945 60.9398 68.9535C60.9411 69.0124 60.925 69.0705 60.8934 69.1203C60.8619 69.1702 60.8163 69.2096 60.7624 69.2338C60.6364 69.2563 53.7036 69.2707 53.6265 69.243Z" fill="#111111"/><path d="M55.4791 62.1328C55.71 62.1328 55.9547 62.1544 55.9465 62.4614C55.9393 62.7437 55.7007 62.7648 55.4884 62.7653C54.1421 62.7653 52.7946 62.7653 51.4459 62.7653C51.2305 62.7653 50.995 62.7376 50.9966 62.4521C50.9966 62.1441 51.2459 62.1328 51.4763 62.1328H55.4791Z" fill="#111111"/><path d="M51.3224 69.2076C51.0058 69.1835 50.9168 68.7969 51.1996 68.7014C51.4916 68.6829 52.2278 68.6429 52.6905 68.6644C52.9707 68.7291 52.964 69.1829 52.8411 69.2107C52.3361 69.2617 51.8272 69.2607 51.3224 69.2076Z" fill="#111111"/><path d="M57.0595 22.5692C55.9557 22.56 32.8073 22.5769 23.2031 22.5692C23.0653 22.5594 22.9269 22.5777 22.7963 22.6229C22.6657 22.6682 22.5458 22.7395 22.4437 22.8325C22.3416 22.9255 22.2595 23.0383 22.2024 23.164C22.1453 23.2897 22.1145 23.4257 22.1117 23.5637C22.0783 24.1012 22.0844 24.6418 22.0968 25.1819C22.1116 25.2349 22.1396 25.2832 22.1783 25.3224C22.217 25.3615 22.265 25.3902 22.3178 25.4057C23.8921 25.4057 47.8887 25.3672 58.317 25.3641C58.3288 23.2844 58.5304 22.5785 57.0595 22.5692ZM24.0211 24.247C23.9646 24.247 23.9093 24.2303 23.8623 24.1989C23.8153 24.1675 23.7786 24.123 23.757 24.0708C23.7354 24.0186 23.7297 23.9612 23.7407 23.9059C23.7518 23.8505 23.779 23.7996 23.819 23.7597C23.859 23.7198 23.9099 23.6926 23.9653 23.6816C24.0208 23.6706 24.0783 23.6762 24.1305 23.6978C24.1827 23.7195 24.2274 23.756 24.2588 23.803C24.2902 23.8499 24.3069 23.9051 24.3069 23.9616C24.3069 24.0373 24.2768 24.1099 24.2232 24.1634C24.1696 24.2169 24.0969 24.247 24.0211 24.247ZM25.4323 24.3112C25.3758 24.3112 25.3205 24.2944 25.2735 24.2631C25.2265 24.2317 25.1899 24.1871 25.1682 24.135C25.1466 24.0828 25.141 24.0254 25.152 23.9701C25.163 23.9147 25.1902 23.8638 25.2302 23.8239C25.2702 23.784 25.3211 23.7568 25.3766 23.7458C25.432 23.7348 25.4895 23.7404 25.5417 23.762C25.594 23.7836 25.6386 23.8202 25.67 23.8672C25.7014 23.9141 25.7182 23.9693 25.7182 24.0257C25.7182 24.1014 25.6881 24.174 25.6345 24.2276C25.5809 24.2811 25.5081 24.3112 25.4323 24.3112ZM26.622 24.3112C26.5655 24.3112 26.5102 24.2944 26.4632 24.2631C26.4162 24.2317 26.3795 24.1871 26.3579 24.135C26.3363 24.0828 26.3306 24.0254 26.3416 23.9701C26.3527 23.9147 26.3799 23.8638 26.4199 23.8239C26.4598 23.784 26.5108 23.7568 26.5662 23.7458C26.6217 23.7348 26.6791 23.7404 26.7314 23.762C26.7836 23.7836 26.8283 23.8202 26.8597 23.8672C26.8911 23.9141 26.9078 23.9693 26.9078 24.0257C26.9078 24.1014 26.8777 24.174 26.8241 24.2276C26.7705 24.2811 26.6978 24.3112 26.622 24.3112Z" fill="#BABEC9"/><path d="M33.9341 53.9164C33.9341 54.0377 33.9823 54.1541 34.0683 54.2399C34.1542 54.3257 34.2707 54.3738 34.3922 54.3738C34.5136 54.3738 34.6302 54.3257 34.7161 54.2399C34.802 54.1541 34.8502 54.0377 34.8502 53.9164C34.8502 53.7951 34.802 53.6787 34.7161 53.593C34.6302 53.5072 34.5136 53.459 34.3922 53.459C34.2707 53.459 34.1542 53.5072 34.0683 53.593C33.9823 53.6787 33.9341 53.7951 33.9341 53.9164Z" fill="#636B7E"/><path d="M35.6592 53.9164C35.6592 54.0377 35.7074 54.1541 35.7933 54.2399C35.8793 54.3257 35.9958 54.3738 36.1173 54.3738C36.2387 54.3738 36.3553 54.3257 36.4412 54.2399C36.5271 54.1541 36.5753 54.0377 36.5753 53.9164C36.5753 53.7951 36.5271 53.6787 36.4412 53.593C36.3553 53.5072 36.2387 53.459 36.1173 53.459C35.9958 53.459 35.8793 53.5072 35.7933 53.593C35.7074 53.6787 35.6592 53.7951 35.6592 53.9164Z" fill="#636B7E"/><path d="M37.3647 53.9164C37.3647 54.0377 37.413 54.1541 37.4989 54.2399C37.5848 54.3257 37.7013 54.3738 37.8228 54.3738C37.9443 54.3738 38.0608 54.3257 38.1467 54.2399C38.2326 54.1541 38.2809 54.0377 38.2809 53.9164C38.2809 53.7951 38.2326 53.6787 38.1467 53.593C38.0608 53.5072 37.9443 53.459 37.8228 53.459C37.7013 53.459 37.5848 53.5072 37.4989 53.593C37.413 53.6787 37.3647 53.7951 37.3647 53.9164Z" fill="#636B7E"/><path d="M2.74805 34.3041C2.74805 34.4254 2.79631 34.5418 2.88221 34.6276C2.96812 34.7134 3.08463 34.7615 3.20612 34.7615C3.32761 34.7615 3.44412 34.7134 3.53003 34.6276C3.61593 34.5418 3.66419 34.4254 3.66419 34.3041C3.66419 34.1828 3.61593 34.0664 3.53003 33.9807C3.44412 33.8949 3.32761 33.8467 3.20612 33.8467C3.08463 33.8467 2.96812 33.8949 2.88221 33.9807C2.79631 34.0664 2.74805 34.1828 2.74805 34.3041Z" fill="#111111"/><path d="M4.48828 34.3041C4.48828 34.4254 4.53654 34.5418 4.62245 34.6276C4.70835 34.7134 4.82487 34.7615 4.94635 34.7615C5.06784 34.7615 5.18436 34.7134 5.27026 34.6276C5.35617 34.5418 5.40443 34.4254 5.40443 34.3041C5.40443 34.1828 5.35617 34.0664 5.27026 33.9807C5.18436 33.8949 5.06784 33.8467 4.94635 33.8467C4.82487 33.8467 4.70835 33.8949 4.62245 33.9807C4.53654 34.0664 4.48828 34.1828 4.48828 34.3041Z" fill="#111111"/><path d="M6.22998 34.3041C6.22998 34.4254 6.27824 34.5418 6.36415 34.6276C6.45005 34.7134 6.56657 34.7615 6.68805 34.7615C6.80954 34.7615 6.92606 34.7134 7.01196 34.6276C7.09787 34.5418 7.14613 34.4254 7.14613 34.3041C7.14613 34.1828 7.09787 34.0664 7.01196 33.9807C6.92606 33.8949 6.80954 33.8467 6.68805 33.8467C6.56657 33.8467 6.45005 33.8949 6.36415 33.9807C6.27824 34.0664 6.22998 34.1828 6.22998 34.3041Z" fill="#111111"/></svg>