<svg viewBox="0 0 280 280" fill="none" xmlns="http://www.w3.org/2000/svg"><path d="M187.929 159.358C179.433 162.197 170.737 164.399 161.914 165.946C160.486 160.231 155.103 144.724 151.974 140.455C151.414 139.692 149.702 139.59 150.459 141.274C155.019 151.425 172.084 199.623 173.806 235.796C154.773 244.476 95.2378 250.414 72.7034 243.715C76.825 226.635 82.6518 198.898 81.8034 184.551C87.255 180.681 92.904 177.058 98.1568 172.931C98.882 172.364 98.2366 171.014 97.3392 171.452C86.9792 176.513 71.6646 188.091 63.1302 196.116C62.5408 184.324 56.9702 164.101 47.9108 154.33C58.1308 143.9 85.8508 128.446 96.1842 124.79C105.584 134.649 124.022 130.554 123.591 119.864C146.518 117.978 170.041 119.689 182.111 117.891C186.82 129.251 188.57 150.868 187.929 159.358Z" fill="#E04747"/><path d="M135.296 67.9824C138.245 75.5858 139.022 86.7242 137.762 94.8624C136.091 105.67 129.63 112.425 118.263 110.986C118.665 113.942 119.968 118.641 120.036 120.366C120.046 120.561 119.986 120.752 119.868 120.906C119.75 121.061 119.58 121.168 119.39 121.209C119.2 121.249 119.001 121.221 118.83 121.128C118.659 121.036 118.526 120.885 118.456 120.704C117.474 117.399 116.715 114.031 116.186 110.624C112.644 109.827 109.235 108.525 106.064 106.758C105.863 106.654 105.71 106.477 105.637 106.263C105.563 106.049 105.575 105.815 105.669 105.61C105.764 105.404 105.933 105.243 106.143 105.159C106.353 105.075 106.587 105.075 106.797 105.159C111.286 107.027 115.98 108.953 120.927 108.903C130.191 108.811 134.33 103.463 135.728 94.8232C137.258 85.3634 136.103 77.69 133.795 68.5256C133.742 68.3317 133.765 68.1252 133.857 67.9469C133.95 67.7687 134.106 67.6319 134.295 67.5635C134.484 67.4951 134.692 67.5003 134.877 67.5779C135.062 67.6555 135.212 67.7999 135.296 67.9824ZM115.045 78.8422C113.225 78.7764 113.587 81.0052 113.898 82.1252C114.139 82.9932 114.878 84.2014 115.875 84.2784C118.112 84.452 117.426 78.9276 115.045 78.8422ZM126.191 80.3262C126.141 80.4764 126.144 80.6396 126.201 80.7875C126.258 80.9355 126.364 81.0589 126.503 81.1364C126.641 81.2139 126.802 81.2405 126.958 81.2117C127.114 81.1829 127.255 81.1004 127.356 80.9786C127.622 80.5458 128.048 80.2353 128.542 80.1148C129.035 79.9942 129.557 80.0732 129.992 80.3346C130.876 80.6818 131.306 79.8824 130.902 79.3308C130.602 78.9215 130.189 78.6075 129.714 78.4264C129.24 78.2453 128.723 78.2049 128.226 78.3099C127.729 78.4149 127.273 78.661 126.912 79.0186C126.551 79.3762 126.301 79.8302 126.191 80.3262ZM131.152 71.0204C129.883 69.5714 126.411 69.2424 124.772 70.1482C123.97 70.5906 124.154 72.2412 125.752 71.8828C127.321 71.4202 129.006 71.5621 130.475 72.2804C131.182 72.5604 131.742 71.7008 131.152 71.0204ZM115.677 71.0596C112.841 70.3806 109.958 73.1596 109.156 75.7104C109.123 75.8928 109.155 76.0811 109.248 76.2418C109.34 76.4024 109.487 76.525 109.661 76.5877C109.836 76.6504 110.027 76.6491 110.201 76.5841C110.374 76.5191 110.519 76.3945 110.609 76.2326C111.116 75.3726 111.794 74.6263 112.602 74.0405C113.41 73.4546 114.33 73.0418 115.305 72.8278C116.284 72.5198 116.846 71.3396 115.677 71.0596ZM124.03 87.9198C123.249 88.1074 122.389 88.001 121.723 88.1998C121.568 88.2396 121.427 88.3228 121.318 88.4395C121.209 88.5563 121.135 88.7018 121.106 88.8589C121.076 89.0161 121.093 89.1784 121.152 89.3268C121.212 89.4751 121.313 89.6033 121.443 89.6964C122.442 90.0401 123.529 90.0307 124.523 89.6698C127.631 88.7318 126.942 87.3108 125.829 85.0274C125.408 84.0963 124.927 83.1933 124.39 82.324C124.29 82.1426 124.124 82.0071 123.926 81.9464C123.728 81.8856 123.515 81.9043 123.33 81.9985C123.146 82.0927 123.006 82.255 122.939 82.4509C122.873 82.6468 122.885 82.861 122.974 83.0478C123.459 84.2742 124.142 85.4278 124.654 86.6206C125.092 87.6034 125.141 87.6538 124.03 87.9198ZM112.075 90.5196C117.798 94.1596 120.274 94.7294 125.087 94.8834C125.226 94.8983 125.361 94.9436 125.48 95.016C125.6 95.0885 125.703 95.1863 125.781 95.3027C125.859 95.4191 125.911 95.5512 125.932 95.6896C125.954 95.8281 125.945 95.9696 125.906 96.1042C124.786 100.173 120.356 103.885 116.146 102.323C111.778 100.703 110.528 95.54 110.898 91.347C110.951 90.731 111.417 90.101 112.075 90.5196ZM112.693 93.1796C112.845 96.0412 113.584 99.1786 116.533 100.451C119.67 101.804 122.844 99.3732 124.188 96.6376C120.083 96.7534 116.051 95.539 112.693 93.1754V93.1796ZM38.1692 113.646C39.7092 110.772 39.2108 109.098 35.8858 108.428C32.9762 107.75 29.9687 107.598 27.0056 107.98C26.7981 108.027 26.6141 108.146 26.4868 108.317C26.3595 108.487 26.2974 108.698 26.3116 108.91C26.3258 109.122 26.4154 109.322 26.5642 109.474C26.713 109.626 26.9113 109.72 27.1232 109.739C29.5844 109.929 32.0386 109.963 34.483 110.362C37.423 110.839 37.3712 110.859 36.0412 113.174C33.5315 117.388 30.7036 121.404 27.5824 125.188C26.5758 126.458 26.5114 126.735 26.9104 128.677C29.1868 139.776 40.335 159.562 46.46 166.929C47.1474 167.755 48.357 166.72 47.7326 165.868C39.4628 154.572 32.1534 140.652 28.7724 127.012C32.4515 122.967 35.6084 118.477 38.1692 113.646ZM58.4174 188.636C53.8562 190.641 50.0454 193.025 45.1776 194.836C37.815 197.579 34.8736 199.833 28.8564 193.819C15.5676 180.53 9.25639 145.96 9.09399 127.667C9.05339 122.879 9.13879 113.135 10.7138 108.259C11.474 105.903 12.167 105.729 14.225 108.384C15.3254 109.803 16.213 111.364 17.1874 112.864C17.6802 113.624 18.8674 112.901 18.5482 112.092C17.7888 109.992 16.6589 108.044 15.212 106.342C14.4933 105.324 13.4374 104.593 12.2314 104.279C10.333 104.125 9.49999 105.756 8.95399 107.234C7.11019 112.229 7.03739 120.095 7.00239 125.013C6.86239 146.013 13.294 180.043 27.5726 194.873C33.0326 200.543 36.1126 200.142 44.1444 197.354C48.581 195.814 55.4704 193 59.0908 190.149C59.7628 189.627 59.3624 188.223 58.4174 188.636ZM15.1224 103.002C16.619 102.48 18.3956 104.658 19.1824 105.711C20.6482 107.692 20.7322 109.172 21.7724 110.981C21.8653 111.114 21.9948 111.217 22.1451 111.278C22.2955 111.339 22.4603 111.355 22.6196 111.324C22.7789 111.294 22.9259 111.217 23.0429 111.105C23.1599 110.993 23.2418 110.849 23.2788 110.691C23.4664 108.673 21.8032 105.715 20.5628 104.171C19.1992 102.476 16.7072 99.971 14.3482 101.371C14.173 101.496 14.0474 101.679 13.9933 101.887C13.9393 102.095 13.9603 102.316 14.0526 102.511C14.1449 102.705 14.3026 102.861 14.4982 102.951C14.6938 103.041 14.9147 103.059 15.1224 103.002ZM260.276 88.7892C263.53 92.7092 264.103 96.7104 264.136 101.609C264.149 101.808 264.232 101.996 264.371 102.139C264.51 102.283 264.695 102.372 264.894 102.391C265.092 102.41 265.291 102.358 265.455 102.244C265.618 102.13 265.736 101.962 265.787 101.769C267.163 96.9246 264.843 91.0572 261.492 87.5236C260.692 86.6878 259.562 87.9436 260.271 88.7892H260.276ZM267.475 73.2674C266.834 72.6262 265.546 73.2674 266.037 74.1858C269.544 80.6958 271.184 83.997 271.16 91.6592C271.149 91.8709 271.221 92.0784 271.36 92.2381C271.5 92.3979 271.695 92.4973 271.906 92.5154C272.118 92.5336 272.328 92.4691 272.492 92.3355C272.656 92.2019 272.763 92.0096 272.788 91.7992C273.702 85.9654 271.714 77.5066 267.47 73.2674H267.475ZM250.129 58.5296C249.855 70.9211 250.224 83.3184 251.235 95.6716C251.491 98.2308 252.158 98.501 255.697 98.3162C257.698 98.2068 259.687 97.9258 261.64 97.4762C263.338 97.0716 262.854 95.0654 261.317 95.281C258.923 95.6134 256.513 95.8167 254.097 95.89C252.837 81.5414 252.712 60.7346 252.726 57.222C255.355 56.718 259.726 56.1958 262.41 55.8052C262.903 60.3566 263.155 67.2012 263.621 72.3756C263.711 73.3556 265.696 73.833 265.784 72.2566C266.035 67.7766 265.672 62.6372 265.472 57.4278C265.318 53.3916 264.703 52.4536 260.652 52.98C259.025 53.1914 255.452 53.7822 253.121 54.3184C250.243 54.9834 250.182 55.3782 250.129 58.5296ZM245.743 49.781C245.903 49.8358 246.076 49.8429 246.24 49.8013C246.403 49.7598 246.552 49.6715 246.667 49.5472C246.781 49.4229 246.857 49.2679 246.885 49.1011C246.914 48.9343 246.893 48.7629 246.825 48.6078C245.855 46.7682 240.513 42.0278 238.638 40.443C236.612 38.7378 235.446 39.9488 237.034 41.7422C238.644 43.5594 243.889 48.9004 245.743 49.781ZM252.071 45.7924C251.953 43.6602 251.206 36.7652 250.381 34.7114C250.3 34.5309 250.163 34.3811 249.991 34.2843C249.818 34.1875 249.619 34.1486 249.423 34.1736C249.227 34.1985 249.044 34.2859 248.901 34.4228C248.758 34.5598 248.663 34.739 248.63 34.934C248.477 37.3 249.919 43.992 250.511 46.2082C250.761 47.1434 252.117 46.6478 252.071 45.7924ZM233.611 56.8804C236.977 57.0895 240.356 56.9044 243.679 56.3288C244.452 56.0488 244.552 55.024 243.679 54.8168C240.314 54.519 236.925 54.6328 233.587 55.1556C233.402 55.2137 233.241 55.3298 233.127 55.4868C233.014 55.6437 232.954 55.8332 232.956 56.0269C232.959 56.2206 233.024 56.4083 233.142 56.5621C233.26 56.7159 233.424 56.8275 233.611 56.8804ZM264.411 79.6458C263.83 78.8394 262.532 79.4932 263.026 80.4172C265.468 84.777 267.219 89.4889 268.217 94.385C269.862 103.134 264.418 109.134 257.873 114.57C240.168 129.27 215.122 141.17 193.38 147.861C190.113 148.867 191.633 150.976 193.66 150.308C216.539 142.805 239.58 131.951 258.41 116.868C266.548 110.348 272.363 104.688 270.331 94.0336C269.417 88.8672 267.397 83.9593 264.411 79.6458ZM244.984 107.226C242.977 104.426 240.394 101.532 241.966 97.9032C243.591 94.4762 245.638 91.2662 248.061 88.3482C248.514 87.735 247.66 86.685 246.941 87.1834C244.316 89.0034 240.728 94.826 239.636 97.8472C239.17 99.25 239.096 100.754 239.423 102.195C239.75 103.637 240.465 104.962 241.491 106.026C224.758 112.675 207.395 117.616 189.667 120.774C186.727 121.29 187.556 123.434 190.402 122.953C208.493 119.884 226.176 114.764 243.108 107.693C244.504 108.949 245.562 108.024 244.984 107.22V107.226ZM135.018 63.375C127.122 67.995 110.409 68.618 101.866 66.8442C103.602 71.0694 99.2624 80.6412 96.1726 83.4412C95.768 83.808 95.3648 84.2588 94.7922 83.8276C92.9932 82.4696 90.6552 80.4676 88.3396 81.9796C84.0752 84.7712 87.8328 91.7796 90.707 94.2996C92.1252 95.5386 94.6452 96.4234 96.1348 94.7686C96.255 94.6475 96.4028 94.5574 96.5656 94.5061C96.7283 94.4548 96.9011 94.4439 97.069 94.4742C97.2369 94.5045 97.395 94.5752 97.5295 94.6801C97.6641 94.7851 97.7711 94.9211 97.8414 95.0766C99.8014 99.81 101.612 120.704 101.173 120.904C100.453 121.646 83.3025 105.159 83.3025 105.159C83.3025 105.159 73.7431 97.8459 72.2018 74.2558C71.7818 68.0244 71.6754 60.9712 76.5418 56.291C79.7198 53.2306 85.065 52.651 88.3634 55.4622C93.8234 41.8486 116.915 30.5002 130.883 34.3656C142.891 37.6864 144.893 57.5958 135.018 63.375ZM132.419 42.7726C131.615 40.6348 128.828 40.0916 126.799 39.932C119.393 39.3524 110.509 42.7992 104.55 46.9222C103.633 47.5564 104.57 48.8738 105.516 48.3348C111.596 44.8926 118.414 42.9651 125.396 42.7152C128.447 42.7152 129.053 43.7932 131.223 44.1432C131.403 44.1757 131.589 44.1608 131.762 44.1001C131.935 44.0394 132.089 43.9349 132.209 43.7969C132.33 43.6588 132.412 43.4918 132.449 43.3123C132.486 43.1328 132.475 42.9469 132.419 42.7726ZM19.7592 99.621C19.2678 95.8809 19.2063 92.0968 19.5758 88.3426C19.769 86.4708 20.6958 79.5226 22.2008 77.3498C22.996 76.206 23.8318 77.6018 23.1892 82.2134C22.3263 88.3032 22.3735 94.4874 23.3292 100.563C23.3687 100.77 23.4887 100.952 23.6626 101.07C23.8365 101.188 24.0502 101.232 24.2567 101.193C24.4631 101.153 24.6454 101.033 24.7634 100.859C24.8814 100.685 24.9255 100.471 24.886 100.265C24.1642 93.9301 24.222 87.5305 25.0582 81.2096C25.7078 75.4024 23.3194 74.7136 21.9488 75.4304C19.4134 76.7548 18.4712 82.779 18.0848 86.4974C17.5333 90.9558 17.5874 95.4683 18.2458 99.9122C18.4068 100.902 19.8824 100.6 19.7592 99.621ZM27.3584 99.3984C29.0706 93.5184 30.7338 89.1308 34.5894 84.3386C34.8274 84.0418 36.6992 81.3986 37.2648 82.275C38.018 83.4342 31.123 90.6512 29.275 105.858C29.135 106.968 30.8724 107.098 31.0082 105.99C31.9163 99.012 34.1441 92.271 37.5728 86.1264C38.375 84.683 39.8702 82.7468 38.6242 81.1116C37.262 79.3266 35.3482 80.7056 33.7242 82.597C29.7931 87.3669 27.0919 93.0283 25.8576 99.0848C25.8498 99.2688 25.9076 99.4495 26.0207 99.5948C26.1337 99.7401 26.2947 99.8406 26.475 99.8782C26.6552 99.9159 26.8429 99.8883 27.0047 99.8004C27.1665 99.7126 27.2919 99.5701 27.3584 99.3984Z" fill="#111111"/></svg>