<svg viewBox="0 0 280 280" fill="none" xmlns="http://www.w3.org/2000/svg"><path d="M182.071 64.3842C197.418 70.3228 204.055 97 204.055 97L211.194 94.9119C215.316 94.3484 211.194 78.3303 210.453 75.8534C205.472 59.2337 187.901 47.6882 170.47 51.8556C154.353 55.709 151 71.2795 151 71.2795C151 71.2795 160.754 56.1301 182.071 64.3842Z" fill="#111111"/><path d="M68.8702 22.3444C72.9215 32.9324 77.9121 31.6206 72.8837 13.0868C70.1838 3.13949 66.6494 4.08761 67.028 13.2831C67.1725 16.3789 67.7938 19.4346 68.8702 22.3444Z" fill="#E04747"/><path d="M93.9435 26.3321C95.6558 24.1813 97.4506 17.63 98.4299 11.492C99.4091 5.43531 99.2692 1.73544 96.8813 3.399C94.4318 5.10898 91.6172 12.1157 91.0996 18.6278C90.575 25.2197 92.2117 28.5077 93.9435 26.3321Z" fill="#E04747"/><path d="M107.395 38.9931C110.553 39.1647 116.709 36.0959 121.388 32.1412C126.104 28.1553 127.292 24.9207 124.541 25.0015C118.564 25.1801 100.956 38.6459 107.395 38.9931Z" fill="#E04747"/><path d="M123.621 59.5963C119.99 54.6863 61.0084 36.9995 58.4773 39.1863C54.4681 42.6356 54.2746 81.5007 54.2746 81.5007C68.7464 75.5074 80.0891 73.8673 90.8972 78.9975C102.563 84.5374 94.6998 94.5733 94.6998 94.5733C106.307 102.737 96.6003 111.896 96.6003 111.896C99.7014 119.404 91.8305 133.597 86.0595 132.575C74.9191 130.601 58.5054 132.867 54.2716 138.436C51.4313 142.212 49.9308 146.807 50.0025 151.51C50.003 153.456 50.7323 155.333 52.0501 156.779C53.3679 158.226 55.1811 159.141 57.1409 159.347L97.8703 167.915C99.4291 168.177 101.03 167.828 102.332 166.942C103.634 166.056 104.534 164.704 104.842 163.173C109.485 139.564 126.761 63.8475 123.621 59.5963ZM66.1164 48.4714C62.1809 48.0005 62.7849 53.4777 62.7199 56.1441C62.2489 74.0321 59.0577 71.5843 58.2174 55.6178C57.843 52.5618 58.2775 49.4622 59.4786 46.6214C62.6816 39.6076 75.6944 46.1534 79.9252 48.9277C80.4273 49.2557 80.7935 49.454 80.9589 50.0474C77.2449 52.2094 70.232 48.9642 66.1164 48.4714ZM88.6644 68.2633C85.3625 68.431 82.728 65.3316 82.0605 62.4319C81.461 59.8296 82.1875 56.3264 84.6625 54.956C88.022 53.0957 93.7163 55.7505 94.5683 60.0935C95.2875 63.7542 92.4345 68.0694 88.6644 68.2633Z" fill="#E04747"/><path d="M220.188 164.815L212.669 162.487C212.52 162.442 212.364 162.427 212.209 162.444C212.054 162.462 211.905 162.511 211.77 162.588C211.636 162.665 211.519 162.769 211.427 162.893C211.336 163.017 211.271 163.159 211.237 163.309L204.308 195.215C180.196 185.816 160.614 188.248 147.959 192.29L147.664 162.158C147.667 161.995 147.634 161.833 147.568 161.683C147.502 161.534 147.404 161.4 147.281 161.291C147.158 161.182 147.012 161.1 146.854 161.052C146.696 161.003 146.53 160.989 146.365 161.009L140.503 161.6C140.347 161.612 140.195 161.656 140.057 161.728C139.918 161.8 139.795 161.898 139.696 162.018C139.596 162.137 139.522 162.275 139.478 162.424C139.433 162.572 139.42 162.728 139.437 162.881L142.239 194.195H142.837C139.127 195.635 135.596 197.49 132.315 199.723C116.629 211.684 127.952 264.16 127.952 264.16L204.281 266C218.668 247.861 220.586 219.078 220.732 207.906C220.742 206.461 220.349 205.042 219.598 203.802C218.846 202.562 217.764 201.549 216.47 200.874C213.707 199.393 211.015 198.11 208.345 196.964L220.899 166.371C220.966 166.224 221 166.064 221 165.903C221 165.742 220.965 165.582 220.898 165.435C220.831 165.288 220.733 165.157 220.61 165.05C220.488 164.943 220.344 164.863 220.188 164.815Z" fill="#111111"/><path d="M190.265 125.786C179.442 129.019 161.209 129.262 154.984 119.909C147.478 108.635 149.414 92.1724 149.303 82.4756C149.253 78.1944 148.773 77.6963 147.849 81.9452C146.253 89.4428 145.686 97.1246 146.164 104.777C146.573 110.339 148.161 115.749 150.822 120.644C155.182 128.416 164.084 130.929 172.987 130.999C178.265 131.036 183.494 129.974 188.343 127.878C190.08 127 192.122 125.232 190.265 125.786Z" fill="#111111"/><path d="M168.479 135.347C166.162 141.427 163.89 157.675 163.583 157.926C163.168 158.251 162.675 158.464 162.151 158.546C156.694 160.279 145.909 161.904 151.624 162.755C154.021 163.082 156.453 163.082 158.85 162.755C161.03 162.696 163.178 162.231 165.18 161.384C167.211 160.272 167.736 157.892 168.078 155.806C170.804 139.208 170.344 130.466 168.479 135.347Z" fill="#111111"/><path d="M279.54 208.595C278.608 199.609 274.928 191.126 268.998 184.292C263.067 177.458 255.172 172.604 246.382 170.386C236.635 168.024 225.565 167.636 225.016 168.273C224.541 168.904 234.402 169.718 245.223 172.926C251.895 174.89 257.993 178.429 262.999 183.243C268.004 188.057 271.77 194.003 273.975 200.577C281.407 223.867 271.592 249.675 263.341 271.384C260.759 278.183 260.904 279.096 264.468 272.54C270.594 261.037 275.13 248.762 277.95 236.047C279.959 227.041 280.496 217.771 279.54 208.595Z" fill="#111111"/><path d="M105.299 221.387C98.4415 222.769 88.5624 225.427 76.377 227.056C14.8903 235.274 -12.2598 174.715 14.764 119.438C17.4801 113.893 21.0462 108.087 25.7075 104.046C26.9304 102.986 31.9397 100.717 32.4403 99.4982C33.1979 97.6509 31.0852 95.3104 30.451 93.7302C29.5253 91.1486 29.3638 88.3574 29.9856 85.6873C31.326 78.736 37.0767 71.6357 47.4563 68.252C50.4366 67.2816 51.6023 67.0657 50.5732 67C47.2744 67.1142 44.0393 67.935 41.0891 69.4061C28.469 75.0793 24.1116 88.5152 28.9564 98.185C24.9855 100.397 21.4836 103.353 18.6443 106.889C11.6325 115.613 7.01673 126.733 3.65472 137.308C-8.03011 174.078 9.14992 218.282 43.118 228.407C59.2674 233.222 76.3829 230.596 92.3972 226.495C94.2852 226.011 114.435 220.606 114.98 219.929C115.282 219.572 112.168 220.001 105.299 221.387Z" fill="#111111"/><path d="M44.0891 91.909C42.4156 94.1694 42.6525 94.6098 44.9259 93.1686C46.5106 92.1361 48.152 91.1872 49.843 90.3262C58.2301 86.1184 68.4329 84.9045 77.8434 84.5785C82.7918 84.2479 87.7635 84.6285 92.596 85.7081C93.9674 86.0312 94.7716 86.1927 94.9657 85.994C95.447 85.5279 90.9136 81.2915 78.5069 81.0198C66.4232 80.7611 51.909 82.9615 44.0891 91.909Z" fill="#111111"/><path d="M60.3664 96.9507C58.4757 98.0922 58.5217 98.6344 60.663 98.3668C64.26 97.7944 67.9008 97.4998 71.5489 97.4859C83.5603 97.6434 93.6558 102.378 98.0436 103.688C100.164 104.319 100.673 104.017 99.0149 102.554C95.9747 100.153 92.5349 98.2388 88.8334 96.888C77.2328 92.3834 65.69 93.734 60.3664 96.9507Z" fill="#111111"/><path d="M83.866 113.162C86.7993 113.983 89.6366 115.114 92.3299 116.535C93.9301 117.317 94.534 117.194 93.4584 115.542C91.3713 112.934 88.5864 110.97 85.4265 109.877C81.0572 108.324 76.4055 107.724 71.7844 108.117C68.5645 108.302 65.3837 108.915 62.3257 109.938C60.6271 110.586 60.5022 111.151 62.2919 111.462C65.9479 112.109 75.7871 110.987 83.866 113.162Z" fill="#111111"/><path d="M63.3626 130.168C77.008 126.345 89.3683 129.672 89.9787 128.821C90.1437 128.624 89.3552 128.093 87.4395 127.407C76.6663 123.559 61.3023 123.952 52.1149 131.32C47.9469 134.828 45.0884 139.635 44.0022 144.964C42.317 152.025 42.7645 159.426 45.2886 166.235C46.0187 168.042 46.6027 168.964 46.8714 169C48.2133 168.996 38.4184 137.158 63.3626 130.168Z" fill="#111111"/><path d="M175.379 114.186C175.682 113.938 175.888 113.6 175.966 113.227C176.044 112.855 175.988 112.468 175.807 112.129C175.627 111.79 175.332 111.518 174.971 111.356C174.609 111.194 174.201 111.153 173.811 111.237C163.648 116.092 162.384 106.675 162.058 109.562C161.042 118.562 173.583 116.079 175.379 114.186Z" fill="#111111"/><path d="M182.961 89.726C183.144 88.3661 182.664 87.151 181.854 87.0124C181.043 86.8738 180.245 87.9164 180.044 89.2732C179.844 90.63 180.341 91.8497 181.15 91.9868C181.989 92.1285 182.774 91.1151 182.961 89.726Z" fill="#111111"/><path d="M162.961 84.7211C163.144 83.33 162.671 82.1281 161.846 82.0095C161.022 81.891 160.239 82.8904 160.043 84.2814C159.847 85.6725 160.334 86.8909 161.158 86.993C161.983 87.095 162.784 86.0746 162.961 84.7211Z" fill="#111111"/><path d="M153.42 74.7479C153.154 75.114 153.008 75.5513 153 76.0014C152.993 76.4515 153.124 76.8933 153.378 77.2679C153.631 77.6425 153.994 77.9322 154.419 78.0984C154.844 78.2646 155.309 78.2996 155.755 78.1985C165.832 71.4771 169.25 82.8007 168.986 79.3176C168.17 68.325 154.955 72.3259 153.42 74.7479Z" fill="#111111"/><path d="M177.255 81.5618C175.492 84.2568 183.259 76.6797 188.554 86.4638C188.863 86.7446 189.253 86.9253 189.67 86.9814C190.087 87.0374 190.512 86.9661 190.887 86.7771C191.261 86.5881 191.568 86.2906 191.764 85.925C191.96 85.5593 192.037 85.1433 191.984 84.7334C191.8 82.0753 182.808 73.0741 177.255 81.5618Z" fill="#111111"/><path d="M227.496 237.278C224.83 243.212 221.005 260.366 213.757 271.2C212.604 272.924 212.661 273.569 214.674 272.427C216.686 271.285 219.668 268.004 221.968 263.673C229.487 249.51 230.345 230.939 227.496 237.278Z" fill="#111111"/><path d="M202.125 122.8C208.493 125.753 218.167 124.414 225.099 120.667C257.039 103.406 255.499 53.3836 229.2 31.6375C222.6 26.3195 214.943 22.4169 206.721 20.1797C198.498 17.9426 189.891 17.4202 181.451 18.6462C167.78 20.7812 154.361 29.9252 148.506 42.2339C145.464 48.6242 143.961 54.7067 145.805 65.8535C145.841 66.1049 145.961 66.3373 146.147 66.5135C146.333 66.6897 146.574 66.7998 146.83 66.8262C147.087 66.8526 147.345 66.7937 147.564 66.6591C147.783 66.5244 147.95 66.3216 148.038 66.083C152.787 51.7047 169.113 44.9847 183.452 46.9569C205.359 49.972 216.511 68.1163 215.296 89.6706C215.266 90.1949 214.729 95.6078 214.628 95.5759C212.477 95.0558 210.21 95.2636 208.193 96.1656C205.786 97.3013 205.192 98.7246 205.293 98.925C205.359 99.0557 205.629 98.9628 206.093 98.6955C210.324 96.2498 217.324 97.2969 218.397 102.73C218.664 104.127 218.538 105.568 218.032 106.899C217.527 108.23 216.661 109.4 215.529 110.282C213.106 111.958 209.227 111.89 205.826 110.413L204.159 109.687L203.291 111.131C195.703 123.608 192.734 138.283 194.888 152.668C195.26 154.992 195.933 157.507 197.889 158.868C199.022 159.538 200.282 159.974 201.592 160.147C203.795 160.689 206.055 160.975 208.326 161C203.481 157.886 200.476 158.607 198.856 156.44C197.178 154.194 195.846 138.911 200.858 125.93C201.236 124.935 201.691 123.847 202.125 122.8ZM214.829 34.4217C206.381 27.3168 195.823 25.8223 185.157 27.6305C174.919 29.3733 165.859 34.4653 157.846 40.7525C155.083 42.9223 154.81 42.3269 156.813 39.3757C163.937 28.8708 177.451 23.3141 189.953 22.6097C194.352 22.266 198.777 22.82 202.948 24.237C207.12 25.654 210.949 27.9035 214.196 30.8446C215.044 31.6486 215.773 32.5652 216.363 33.5677C218.444 36.7222 217.526 36.6888 214.829 34.4202V34.4217Z" fill="#111111"/><path d="M53.0452 162.617C52.9664 162.874 52.9913 163.153 53.1149 163.392C53.2384 163.632 53.4508 163.815 53.7072 163.902C61.4394 166.352 99.2975 178.045 105.361 172.545C110.997 167.434 126.23 80.2146 127.964 70.2887C128.002 70.1519 128.01 70.0088 127.988 69.8687C127.967 69.7286 127.916 69.5944 127.84 69.4747C127.764 69.355 127.663 69.2524 127.545 69.1734C127.427 69.0944 127.293 69.0408 127.153 69.0159C127.013 68.991 126.869 68.9954 126.73 69.0288C126.592 69.0622 126.462 69.1239 126.349 69.2099C126.236 69.296 126.142 69.4045 126.073 69.5286C126.004 69.6528 125.962 69.7898 125.949 69.9309C119.17 108.641 107.852 167.506 103.969 171.031C99.8949 174.73 71.3732 167.351 54.3383 161.961C54.0794 161.885 53.8008 161.91 53.5602 162.032C53.3196 162.154 53.1352 162.363 53.0452 162.617Z" fill="#111111"/><path d="M111.786 166.091C110.707 166.892 110.707 167.205 111.981 166.863C117.173 165.145 122.554 164.159 127.985 163.931C130.324 163.85 132.657 163.64 134.975 163.303C136.249 163.025 136.384 162.72 135.105 162.502C128.474 161.373 117.316 161.977 111.786 166.091Z" fill="#111111"/><path d="M169.639 84.4784C167.608 86.426 162.752 95.3609 162.246 96.7211C161.935 97.465 161.918 98.2969 162.198 99.0525C162.478 99.8082 163.035 100.433 163.759 100.803C165.099 101.443 166.543 101.847 168.025 101.997C168.563 102.025 169.484 101.858 169.134 101.133C168.91 100.759 168.613 100.433 168.261 100.171C168.093 100.005 165.741 98.1473 165.741 98.1811C166.121 97.6553 167.05 96.1042 167.354 95.5607C171.269 88.5309 172.032 82.1811 169.639 84.4784Z" fill="#111111"/></svg>