<svg viewBox="0 0 280 280" fill="none" xmlns="http://www.w3.org/2000/svg"><path d="M66.6918 101.168C65.0216 97.0088 65.7118 94.8402 65.1742 92.6086C65.1483 92.5187 65.0939 92.4396 65.0192 92.3834C64.9444 92.3271 64.8534 92.2966 64.7598 92.2966C64.6662 92.2966 64.5752 92.3271 64.5004 92.3834C64.4257 92.4396 64.3713 92.5187 64.3454 92.6086C63.4144 95.3358 64.7948 98.994 65.8994 101.479C66.1052 101.962 66.8878 101.655 66.6918 101.168Z" fill="#E04747"/><path d="M65.1001 89.5033C65.2249 87.525 65.4586 85.555 65.8001 83.6023C66.1818 82.0079 66.4809 80.3948 66.6961 78.7695C66.6951 78.6644 66.6597 78.5624 66.5953 78.4792C66.5309 78.3961 66.4411 78.3363 66.3395 78.309C66.2379 78.2817 66.1302 78.2884 66.0328 78.3281C65.9354 78.3678 65.8537 78.4382 65.8001 78.5287C64.0053 81.7039 64.0739 85.9823 64.3847 89.5033C64.4004 89.5867 64.4448 89.662 64.5101 89.7161C64.5754 89.7703 64.6575 89.7999 64.7424 89.7999C64.8272 89.7999 64.9094 89.7703 64.9747 89.7161C65.04 89.662 65.0844 89.5867 65.1001 89.5033Z" fill="#E04747"/><path d="M68.625 74.1805C71.0498 68.2333 73.679 65.5005 74.9754 62.6543C75.0324 62.5527 75.051 62.434 75.0277 62.3198C75.0045 62.2057 74.941 62.1037 74.8489 62.0324C74.7568 61.9612 74.6421 61.9254 74.5258 61.9316C74.4095 61.9378 74.2993 61.9856 74.2152 62.0663C70.7992 64.7935 69.0352 69.8321 67.8998 73.8697C67.7962 74.3191 68.443 74.6201 68.625 74.1805Z" fill="#E04747"/><path d="M77.8401 59.2367C80.3601 56.0909 83.4891 53.4967 84.5349 52.1961C84.6137 52.1119 84.66 52.0023 84.6654 51.8871C84.6708 51.7718 84.6351 51.6584 84.5645 51.5671C84.4939 51.4758 84.3932 51.4126 84.2803 51.3888C84.1674 51.3651 84.0497 51.3823 83.9483 51.4373C81.0083 52.8527 78.8747 56.0279 77.1835 58.7173C76.9427 59.1331 77.5335 59.6203 77.8401 59.2367Z" fill="#E04747"/><path d="M87.9199 49.5055C90.6401 47.7695 93.8209 46.2603 96.0987 43.9489C96.3395 43.6689 96.0987 43.1201 95.7193 43.2923C92.7163 44.5355 90.1277 46.8819 87.5055 48.7803C87.0533 49.0911 87.4327 49.8135 87.9199 49.5055Z" fill="#E04747"/><path d="M99.3398 42.2575C104.44 39.7067 106.719 38.8975 108.037 37.3575C108.105 37.2831 108.149 37.1887 108.16 37.0881C108.172 36.9874 108.152 36.8857 108.102 36.7974C108.052 36.7092 107.975 36.639 107.883 36.597C107.791 36.555 107.688 36.5434 107.589 36.5637C105.605 36.9165 103.809 38.5041 98.9954 41.6359C98.9169 41.6836 98.8599 41.7598 98.8364 41.8486C98.8128 41.9374 98.8245 42.0318 98.869 42.1122C98.9135 42.1925 98.9874 42.2525 99.0752 42.2796C99.1629 42.3067 99.2578 42.2988 99.3398 42.2575Z" fill="#E04747"/><path d="M112.453 36.183C114.223 35.7461 115.955 35.1693 117.633 34.4582C119.232 33.9712 120.79 33.3594 122.293 32.6284C122.397 32.5628 122.478 32.4656 122.523 32.351C122.569 32.2363 122.576 32.1102 122.545 31.991C122.514 31.8717 122.445 31.7655 122.35 31.6878C122.254 31.6101 122.136 31.5649 122.013 31.5588C120.119 31.7256 118.27 32.2281 116.553 33.0428C114.915 33.609 113.403 34.4882 112.101 35.6314C111.833 35.8736 112.108 36.2446 112.453 36.183Z" fill="#E04747"/><path d="M126.259 31.5253C129.803 31.2296 133.287 30.4393 136.612 29.1775C137.164 28.9367 136.892 28.0043 136.301 28.0393C132.815 28.2115 129.331 29.6269 126.017 30.7315C125.499 30.8687 125.707 31.6037 126.259 31.5253Z" fill="#E04747"/><path d="M140.063 28.6607C143.031 28.5237 145.984 28.1657 148.898 27.5897C149.023 27.5499 149.131 27.4716 149.208 27.3662C149.285 27.2608 149.326 27.1336 149.326 27.0031C149.326 26.8726 149.285 26.7455 149.208 26.6401C149.131 26.5347 149.023 26.4564 148.898 26.4165C145.958 25.6577 142.651 26.5887 139.959 27.7283C139.511 27.9355 139.476 28.7335 140.063 28.6607Z" fill="#E04747"/><path d="M152.969 26.6923C154.528 27.1926 156.179 27.3362 157.801 27.1123C159.669 27.2697 161.55 27.0943 163.357 26.5943C163.455 26.5621 163.541 26.4997 163.601 26.4161C163.662 26.3325 163.694 26.232 163.694 26.1288C163.694 26.0256 163.662 25.925 163.601 25.8414C163.541 25.7578 163.455 25.6955 163.357 25.6633C161.524 25.3179 159.646 25.2829 157.801 25.5597C156.155 25.477 154.51 25.7353 152.969 26.3185C152.939 26.3391 152.914 26.3669 152.896 26.3995C152.879 26.4321 152.87 26.4685 152.87 26.5054C152.87 26.5423 152.879 26.5786 152.896 26.6112C152.914 26.6438 152.939 26.6716 152.969 26.6923Z" fill="#E04747"/><path d="M167.223 26.831C168.638 27.0732 170.023 27.111 171.433 27.2104C173.01 27.4168 174.603 27.4861 176.193 27.4176C176.323 27.4142 176.447 27.3645 176.544 27.2774C176.641 27.1904 176.703 27.0716 176.72 26.9426C176.737 26.8136 176.707 26.6828 176.636 26.5738C176.565 26.4648 176.458 26.3847 176.333 26.348C173.387 25.3951 170.237 25.2639 167.222 25.9686C167.128 25.9961 167.047 26.053 166.989 26.1308C166.931 26.2087 166.899 26.3032 166.899 26.4003C166.9 26.4974 166.931 26.5918 166.989 26.6695C167.048 26.7471 167.13 26.8038 167.223 26.831Z" fill="#E04747"/><path d="M180.2 27.6248C183.249 28.3531 186.399 28.5632 189.518 28.2464C190.07 28.1764 190.001 27.349 189.518 27.2104C186.512 26.5048 183.411 26.2948 180.337 26.5888C179.785 26.6238 179.578 27.489 180.2 27.6248Z" fill="#E04747"/><path d="M193.831 28.7629C196.876 29.9145 200.097 30.5335 203.351 30.5927C203.868 30.5577 203.903 29.9375 203.455 29.7303C200.381 28.6704 197.146 28.1563 193.894 28.2113C193.827 28.2124 193.761 28.2383 193.711 28.2839C193.661 28.3296 193.629 28.392 193.621 28.4594C193.613 28.5269 193.631 28.5949 193.669 28.6507C193.708 28.7065 193.766 28.7464 193.831 28.7629Z" fill="#E04747"/><path d="M206.394 31.5252C211.219 33.2486 212.593 34.3728 214.435 34.5618C214.917 34.6304 215.125 33.9402 214.813 33.6294C212.778 31.5938 209.292 31.1794 206.601 30.765C206.502 30.745 206.4 30.7631 206.315 30.8157C206.23 30.8682 206.167 30.9513 206.141 31.0481C206.115 31.1448 206.126 31.2479 206.173 31.3366C206.22 31.4252 206.299 31.4926 206.394 31.5252Z" fill="#E04747"/><path d="M217.196 37.0118C219.346 39.4925 219.25 41.783 220.136 43.155C220.377 43.5344 221.102 43.5344 221.206 43.015C221.585 40.565 219.446 37.975 217.755 36.4237C217.368 36.0808 216.86 36.624 217.196 37.0118Z" fill="#E04747"/><path d="M220.78 45.9508C220.44 48.3851 220.313 50.8444 220.401 53.3008C220.469 53.8874 221.367 54.3704 221.712 53.6466C222.576 51.1149 222.648 48.3804 221.92 45.8066C221.785 45.122 220.815 45.3292 220.78 45.9508Z" fill="#E04747"/><path d="M219.542 54.8199C218.426 55.4921 217.274 56.1025 216.091 56.6483C214.967 57.016 213.89 57.514 212.881 58.1323C212.433 58.5117 212.848 59.0997 213.301 59.1683C214.585 59.1554 215.835 58.7585 216.891 58.0287C218.079 57.3534 219.141 56.4782 220.031 55.4415C220.301 55.1307 219.926 54.5833 219.542 54.8199Z" fill="#E04747"/><path d="M210.57 57.6156C208.547 56.7868 207.187 54.992 205.324 53.991C205.235 53.9425 205.133 53.921 205.032 53.9292C204.93 53.9373 204.833 53.9747 204.753 54.0368C204.672 54.099 204.612 54.1832 204.578 54.2792C204.545 54.3752 204.54 54.4788 204.564 54.5776C205.324 57.0276 208.118 57.995 210.363 58.4094C210.468 58.4365 210.579 58.4208 210.673 58.3658C210.767 58.3108 210.835 58.2209 210.862 58.1158C210.889 58.0107 210.874 57.8991 210.819 57.8053C210.765 57.7116 210.675 57.6433 210.57 57.6156Z" fill="#E04747"/><path d="M204.564 51.2653C204.504 50.1202 204.807 48.9854 205.428 48.0215C206.026 47.2039 206.721 46.4621 207.498 45.8123C207.568 45.734 207.615 45.6377 207.633 45.5342C207.651 45.4307 207.639 45.3242 207.599 45.227C207.56 45.1297 207.493 45.0456 207.408 44.9842C207.323 44.9229 207.222 44.8867 207.117 44.8799C204.151 45.1599 203.356 49.0225 203.874 51.3689C203.944 51.7133 204.599 51.6447 204.564 51.2653Z" fill="#E04747"/><path d="M211.225 45.0869C214.331 44.7145 217.368 45.2269 220.44 45.1219C220.86 45.1219 221.13 44.4667 220.68 44.2595C217.677 42.9127 214.193 43.3621 211.086 44.0859C210.535 44.1895 210.638 45.1583 211.225 45.0869Z" fill="#E04747"/><path d="M223.822 45.6399C226.577 45.8779 229.205 46.7781 231.932 47.0203C232.484 47.0539 232.553 46.3301 232.173 46.0879C229.793 44.4317 226.583 44.3967 223.822 44.6739C223.7 44.6832 223.587 44.7381 223.504 44.8276C223.421 44.9172 223.375 45.0348 223.375 45.1569C223.375 45.279 223.421 45.3966 223.504 45.4862C223.587 45.5757 223.7 45.6306 223.822 45.6399Z" fill="#E04747"/><path d="M237.212 48.2286C238.65 48.996 240.165 49.6089 241.733 50.057C243.239 50.6821 244.815 51.1225 246.427 51.3688C246.547 51.3657 246.664 51.3237 246.758 51.2491C246.853 51.1746 246.921 51.0715 246.953 50.9551C246.984 50.8387 246.977 50.7153 246.933 50.6032C246.889 50.4911 246.809 50.3963 246.707 50.3328C245.248 49.5918 243.707 49.0242 242.116 48.6416C240.593 48.1017 239.021 47.7089 237.423 47.4684C237.005 47.4348 236.897 48.0284 237.212 48.2286Z" fill="#E04747"/><path d="M250.912 53.2321C252.683 54.1719 254.319 55.3443 255.779 56.7181C257.021 57.8563 258.057 59.5181 259.576 60.3413C259.64 60.3794 259.714 60.3975 259.788 60.3932C259.862 60.389 259.934 60.3626 259.993 60.3174C260.052 60.2723 260.097 60.2105 260.121 60.1399C260.145 60.0693 260.147 59.9932 260.127 59.9213C259.748 58.1265 257.953 56.6775 256.573 55.5729C254.969 54.3282 253.219 53.2853 251.362 52.4677C250.844 52.2311 250.394 52.9591 250.912 53.2321Z" fill="#E04747"/><path d="M262.094 63.7574C264.629 66.9774 265.555 70.0042 266.788 71.5582C266.864 71.6345 266.961 71.6867 267.066 71.7081C267.172 71.7295 267.281 71.7192 267.381 71.6785C267.48 71.6377 267.566 71.5684 267.626 71.4792C267.686 71.39 267.718 71.285 267.719 71.1774C267.439 68.1058 264.993 65.2764 262.991 63.0672C262.543 62.6192 261.684 63.238 262.094 63.7574Z" fill="#E04747"/><path d="M267.582 74.3525C268.013 77.5725 267.789 81.0473 268.513 84.1889C268.653 84.8091 269.721 84.8791 269.825 84.1889C270.343 80.9101 269.265 77.2519 268.513 74.1089C268.38 73.4901 267.504 73.7673 267.582 74.3525Z" fill="#E04747"/><path d="M268.409 89.1241C267.709 93.8407 265.983 95.4591 265.165 97.4751C264.885 98.1317 265.821 98.4761 266.235 98.0967C268.581 96.1297 269.41 92.1957 269.617 89.2963C269.686 88.6061 268.52 88.4339 268.409 89.1241Z" fill="#E04747"/><path d="M254.433 97.8209C256.467 98.4766 258.388 99.4428 260.127 100.685C259.987 100.803 239.485 108.503 239.351 108.553C239.351 108.553 240.041 108.07 240.387 107.759C244.563 104.17 253.915 97.6795 254.433 97.8209Z" fill="#E04747"/><path d="M263.75 100.857C266.903 101.743 269.993 102.839 273 104.136C272.882 104.311 272.729 104.46 272.551 104.573C272.373 104.686 272.173 104.76 271.964 104.791C265.821 106.448 241.042 109.175 241.009 108.829C240.992 108.696 263.62 100.835 263.75 100.857Z" fill="#E04747"/><path d="M268.272 107.001C266.326 110.893 266.386 110.921 266.172 111.073C266.019 111.137 265.85 111.149 265.689 111.107C257.079 109.588 253.001 109.13 253.649 108.744C254.356 108.321 268.136 107.134 268.272 107.001Z" fill="#E04747"/><path d="M33.5273 131.261C33.5496 131.428 33.6366 131.578 33.7695 131.681C33.8907 131.769 34.0413 131.806 34.1895 131.785C34.7689 131.697 35.3224 131.485 35.8121 131.163C38.7311 129.567 41.0467 129.324 55.3449 124.124C54.8658 123.97 54.3638 123.9 53.8609 123.917C30.9093 123.255 32.1077 123.301 31.9117 123.399C31.2915 123.679 31.7395 124.4 31.9117 124.814C32.2925 125.842 32.2603 127.189 33.5273 131.261Z" fill="#E04747"/><path d="M53.5779 125.947C45.5713 130.95 37.5647 135.989 29.5581 140.994C29.3999 136.249 29.0653 135.852 29.3173 135.023C29.6617 133.816 32.4925 133.47 33.5271 133.091C50.5091 127.224 51.9623 125.874 53.5779 125.947Z" fill="#E04747"/><path d="M36.9096 141.338C36.9782 141.373 37.0818 141.408 37.1504 141.442C37.2537 141.446 37.3543 141.409 37.4304 141.338C40.3284 139.441 42.399 136.681 44.919 134.368C45.8364 133.44 46.7006 132.46 47.5076 131.435C47.6112 131.295 47.7484 131.124 47.7134 130.95C45.4734 132.125 43.4 133.539 41.2608 134.782C39.009 135.922 36.8306 137.201 34.7382 138.613C35.049 139.164 35.532 139.647 35.8764 140.2C36.1631 140.628 36.5112 141.012 36.9096 141.338Z" fill="#E04747"/><path d="M231.344 107.38C230.68 107.494 230.055 107.776 229.53 108.199C229.005 108.622 228.596 109.172 228.343 109.796C226.015 114.31 224.314 118.196 222.648 122.357C222.442 122.944 221.647 124.187 221.752 124.809C221.992 126.154 224.512 125.499 225.306 125.257C226.41 125.021 227.478 124.638 228.48 124.118C229.68 122.919 231.98 117.323 233.174 114.765C234.47 112.552 235.645 110.271 236.694 107.932C236.999 107.5 237.148 106.976 237.114 106.448C237.115 106.407 237.106 106.368 237.088 106.332C237.07 106.296 237.043 106.265 237.01 106.242C236.865 106.17 237.091 106.177 231.344 107.38Z" fill="#E04747"/><path d="M69.6262 123.393C68.3046 123.19 67.7278 122.606 67.7278 121.047C67.6928 118.493 67.3078 115.938 67.0376 113.42C66.4034 107.185 66.1794 106.67 66.5196 106.103C66.6946 105.907 66.9153 105.757 67.1623 105.667C67.4092 105.576 67.6746 105.548 67.935 105.585C69.7298 105.552 71.5246 105.689 73.318 105.827C74.494 105.934 75.0218 106.159 75.2864 107.829C76.0354 112.041 76.5828 119.211 76.7354 122.249C76.818 123.413 76.489 123.802 75.5622 123.906C73.572 123.916 71.5851 123.744 69.6262 123.393Z" fill="#E04747"/><path d="M100.168 72.8686C100.997 67.9966 100.387 62.5086 111.487 61.5496C112.392 61.4726 170.168 60.8496 181.165 60.9966C184.755 61.0316 188.102 61.5832 190.76 64.2418C192.969 66.4496 193.106 69.1418 193.037 72.1098C193.002 73.1108 194.521 73.0758 194.556 72.1098C194.729 69.5212 194.976 66.9298 193.555 64.6212C192.087 62.2209 189.792 60.4406 187.101 59.6162C183.615 58.5816 179.75 58.8924 176.162 58.8924C171.813 58.926 127.397 59.1724 122.945 59.2032C115.883 59.262 105.437 58.5116 101.105 63.9996C99.173 66.4846 99.2416 69.7284 99.2416 72.6964C99.2024 73.248 100.073 73.423 100.168 72.8686Z" fill="#111111"/><path d="M108.416 100.719C108.984 93.1351 108.934 85.5345 109.038 77.9423C109.073 75.1115 108.727 70.6259 112.178 69.6249C113.791 69.3151 115.438 69.2106 117.078 69.3141C119.113 69.2791 176.609 67.8651 180.853 67.8987C182.717 67.9337 185.237 68.2095 186.033 70.2465C186.343 71.7208 186.378 73.2395 186.137 74.7265C186.149 74.9333 186.24 75.1276 186.39 75.2696C186.541 75.4117 186.74 75.4909 186.948 75.4909C187.155 75.4909 187.354 75.4117 187.505 75.2696C187.655 75.1276 187.746 74.9333 187.758 74.7265C187.828 72.1379 188.552 69.5157 186.309 67.5865C183.617 65.3087 179.511 65.9989 176.301 66.0675C167.674 66.2747 133.162 67.1021 124.569 67.3443C120.629 67.2165 116.685 67.3667 112.766 67.7937C105.939 68.9305 107.586 77.7939 107.586 85.7739C107.586 90.7425 107.654 95.7475 107.866 100.716C107.829 101.1 108.388 101.1 108.416 100.719Z" fill="#111111"/><path d="M198.318 98.0281C198.587 98.8274 199.123 99.5098 199.836 99.9601C201.376 100.696 202.731 99.6801 202.114 99.3049C201.134 98.5685 200.375 99.5681 198.698 97.7509C198.491 97.5451 198.215 97.8209 198.318 98.0281Z" fill="#111111"/><path d="M201.113 96.0596C200.786 96.9654 202.321 96.9234 202.735 96.5776C203.476 95.9602 203.031 95.0376 203.218 93.541C203.221 93.4856 203.21 93.4304 203.187 93.38C203.163 93.3297 203.128 93.2857 203.084 93.2517C203.04 93.2178 202.989 93.195 202.934 93.1852C202.879 93.1753 202.823 93.1788 202.77 93.1952C202.114 93.4024 201.975 94.1276 202.01 94.7492C202.103 95.1133 202.091 95.4964 201.975 95.8538C201.803 96.1338 201.666 95.9938 201.423 95.8874C201.36 95.8757 201.294 95.8865 201.237 95.9179C201.181 95.9493 201.137 95.9994 201.113 96.0596Z" fill="#111111"/><path d="M203.874 91.574C203.874 92.092 203.702 92.9543 204.154 93.3337C204.233 93.4087 204.338 93.4504 204.447 93.4504C204.556 93.4504 204.661 93.4087 204.74 93.3337C205.188 92.8857 204.88 92.0219 204.809 91.4703C204.738 90.8837 203.909 91.056 203.874 91.574Z" fill="#111111"/><path d="M199.22 91.3668C199.156 91.8456 199.111 92.8256 199.462 93.1266C199.541 93.2032 199.646 93.246 199.756 93.246C199.865 93.246 199.97 93.2032 200.049 93.1266C200.41 92.8172 200.346 91.8666 200.291 91.3668C200.279 91.233 200.218 91.1084 200.118 91.0177C200.019 90.927 199.89 90.8767 199.756 90.8767C199.621 90.8767 199.492 90.927 199.393 91.0177C199.293 91.1084 199.232 91.233 199.22 91.3668Z" fill="#111111"/><path d="M198.318 90.7803C198.899 89.9487 199.871 89.9977 200.354 89.6757C200.401 89.6505 200.44 89.6132 200.467 89.5676C200.495 89.522 200.509 89.4698 200.509 89.4167C200.509 89.3636 200.495 89.3114 200.467 89.2658C200.44 89.2202 200.401 89.1828 200.354 89.1577C199.388 88.5711 198.145 89.6407 197.694 90.4345C197.49 90.8489 198.076 91.1247 198.318 90.7803Z" fill="#111111"/><path d="M205.427 117.664C212.594 123.856 211.382 126.722 211.846 128.846C211.986 129.57 212.916 129.398 213.123 128.846C213.986 126.672 212.537 123.876 211.258 122.151C209.662 120.272 207.802 118.633 205.737 117.285C205.496 117.111 205.223 117.488 205.427 117.664Z" fill="#111111"/><path d="M202.03 112.863C201.422 110.195 201.241 107.447 201.492 104.723C204.886 103.068 206.35 99.3469 206.682 95.2911C207.879 98.0155 209.884 100.165 211.329 102.895C214.225 108.301 211.428 112.584 207.084 111.901C206.703 111.841 206.639 112.413 206.912 112.591C209.86 114.515 214.519 111.696 214.089 106.448C213.679 101.244 209.206 98.0575 206.752 93.8337C206.779 91.587 206.54 89.345 206.041 87.1543C206.808 86.7497 208.001 85.8621 208.085 85.3623C208.327 83.6013 208.055 81.8079 207.302 80.1977C206.549 78.5876 205.347 77.2293 203.84 76.2861C197.558 72.0609 188.322 75.5049 183.82 81.7727C179.266 88.1217 182.61 94.0325 180.058 97.8209C178.851 99.6143 176.746 100.547 175.055 101.789C173.612 102.815 172.488 104.227 171.811 105.863C171.134 107.499 170.93 109.292 171.224 111.038C172.327 118.39 181.716 123.428 188.548 121.495C190.196 121.104 191.691 120.232 192.843 118.991C193.996 117.749 194.753 116.193 195.02 114.52C195.583 115.097 196.266 115.542 197.022 115.824C197.777 116.105 198.585 116.216 199.388 116.148C200.619 115.955 202.059 115.094 202.037 113.768C206.846 115.139 211.35 116.437 215.16 120.364C216.126 121.398 216.748 122.917 217.888 123.746C217.997 123.806 218.119 123.836 218.244 123.834C218.368 123.832 218.49 123.799 218.597 123.736C218.705 123.674 218.794 123.585 218.857 123.477C218.92 123.37 218.955 123.249 218.957 123.125C218.88 119.98 210.724 112.951 202.03 112.863ZM191.554 117.6C186.446 123.018 176.68 118.635 173.814 112.872C173.011 111.225 172.83 109.342 173.305 107.572C173.78 105.801 174.879 104.263 176.4 103.239C178.78 101.548 181.404 100.202 182.44 97.2679C183.441 94.4035 182.647 91.4355 182.958 88.5025C183.468 85.1399 185.231 82.0946 187.893 79.9779C195.681 73.4161 205.94 75.8465 206.41 84.7673C205.51 85.5284 204.461 86.0938 203.33 86.4274C202.199 86.761 201.011 86.8555 199.842 86.7049C197.755 86.4737 195.746 85.7792 193.962 84.6721C193.721 84.4649 193.479 84.8121 193.652 85.0165C194.381 85.7896 195.239 86.4293 196.188 86.9065C195.158 87.543 194.355 88.488 193.893 89.6071C190.198 87.8977 187.835 94.8977 190.684 96.9921C191.159 97.3488 191.748 97.5205 192.34 97.4751C189.927 104.736 195.915 112.969 191.554 117.6ZM198.594 114.94C197.337 114.809 196.138 114.342 195.124 113.588C195.465 108.279 192.084 102.652 193.486 96.8213C193.545 96.7609 193.584 96.6845 193.6 96.6016C193.615 96.5187 193.606 96.4331 193.573 96.3555C193.54 96.278 193.484 96.2119 193.414 96.1658C193.343 96.1196 193.261 96.0954 193.176 96.0961C192.485 96.0275 191.899 96.2683 191.311 95.6761C189.771 94.2215 191.656 89.2095 193.763 90.9833C193.833 91.0513 193.917 91.1024 194.01 91.1328C194.102 91.1631 194.2 91.1719 194.297 91.1583C194.393 91.1448 194.486 91.1094 194.566 91.0548C194.647 91.0002 194.714 90.9279 194.762 90.8433C195.339 89.4539 196.342 88.2836 197.627 87.5015C200.178 88.3613 202.947 88.3277 205.477 87.4063C205.439 88.0853 205.423 88.7629 205.416 89.4377C205.244 89.1501 205.016 88.9002 204.745 88.7029C204.474 88.5056 204.167 88.3651 203.84 88.2897C203.391 88.1861 203.085 88.7993 203.494 89.0149C204.394 89.4895 204.588 90.1713 205.15 90.2231C205.201 90.2237 205.252 90.2122 205.297 90.1896C205.343 90.1669 205.382 90.1338 205.412 90.0929C205.581 92.9792 205.306 95.8743 204.599 98.6777C203.529 102.164 200.25 105.269 196.627 102.784C195.936 102.301 195.254 103.329 195.765 103.889C196.337 104.536 197.088 104.999 197.923 105.22C198.758 105.441 199.64 105.411 200.458 105.132C199.989 106.467 199.801 107.884 199.907 109.295C200.012 110.706 200.409 112.08 201.071 113.33C200.355 114.166 199.86 114.94 198.594 114.94Z" fill="#111111"/><path d="M107.485 170.846C107.285 176.54 107.45 177.426 108.727 214.467C108.795 216.366 108.867 218.679 110.866 219.61C111.884 219.968 112.97 220.086 114.041 219.955C115.664 219.92 177.404 217.575 183.481 217.295C185.31 217.225 186.794 216.777 187.036 214.742C187.456 211.494 186.855 209.591 186.172 193.344C185.931 187.201 186.068 180.921 185.482 174.812C185.482 174.68 185.429 174.553 185.335 174.459C185.242 174.365 185.115 174.313 184.982 174.313C184.849 174.313 184.722 174.365 184.629 174.459C184.535 174.553 184.482 174.68 184.482 174.812C183.453 185.846 185.774 195.142 185.31 208.599C185.17 212.229 185.679 213.725 185.275 214.535C184.584 215.949 182.204 215.569 180.858 215.639C179.444 215.673 114.498 217.916 113.113 217.951C111.18 217.986 110.765 216.846 110.628 215.151C110.607 214.871 108.793 177.24 108.074 170.804C108.072 170.467 107.52 170.467 107.485 170.846Z" fill="#111111"/><path d="M97.5449 195.488C97.0325 204.662 96.9933 213.881 97.0619 223.068C97.0969 226.761 97.5113 230.798 100.134 233.663C103.033 236.838 107.726 237.08 111.73 237.252C147.339 238.963 182.862 235.852 187.309 234.732C190.145 234.004 191.834 233.771 192.987 231.396C194.247 228.795 193.924 224.998 193.245 222.516C193.105 221.956 192.279 222.205 192.382 222.758C192.588 224.553 192.519 226.368 192.175 228.141C192.002 229.383 191.755 231.316 190.588 231.938C188.692 232.816 186.637 233.298 184.548 233.352C161.94 235.654 139.197 236.335 116.493 235.389C112.35 235.217 107.208 235.63 103.412 233.559C99.6169 231.489 98.9603 227.037 98.8217 223.103C98.5109 213.923 98.7181 204.708 98.3051 195.523C98.3095 195.471 98.3035 195.42 98.2875 195.371C98.2715 195.323 98.2459 195.278 98.2121 195.239C98.1783 195.2 98.1371 195.169 98.0909 195.147C98.0446 195.125 97.9944 195.112 97.9432 195.11C97.892 195.107 97.8408 195.115 97.7928 195.133C97.7447 195.151 97.7008 195.179 97.6636 195.214C97.6264 195.249 97.5967 195.292 97.5763 195.339C97.5559 195.386 97.5452 195.436 97.5449 195.488Z" fill="#111111"/><path d="M137.992 228.376C142.551 228.502 142.149 228.208 160.252 227.816V228.99C159.954 229.288 160.513 228.861 146.517 229.818C143.577 229.991 137.992 231.164 136.164 228.127C136.101 228.034 136.004 227.968 135.895 227.944C135.785 227.919 135.67 227.937 135.573 227.995C135.476 228.052 135.404 228.144 135.373 228.252C135.341 228.36 135.353 228.476 135.404 228.577C137.051 231.571 141.928 230.677 146.171 230.677C158.813 230.677 160.02 231.199 161.701 230.021C161.971 229.848 162.201 229.617 162.373 229.346C162.545 229.075 162.657 228.77 162.699 228.452C162.742 228.133 162.715 227.809 162.62 227.502C162.526 227.196 162.365 226.913 162.151 226.674C161.264 225.848 158.732 226.188 155.524 226.254C149.691 226.394 143.825 226.185 137.992 226.598C137.757 226.598 137.53 226.692 137.364 226.859C137.197 227.026 137.103 227.252 137.103 227.487C137.103 227.723 137.197 227.949 137.364 228.116C137.53 228.283 137.757 228.376 137.992 228.376Z" fill="#111111"/><path d="M182.753 224.855C182.582 224.69 182.362 224.586 182.126 224.558C181.889 224.531 181.651 224.582 181.446 224.703C181.242 224.825 181.084 225.011 180.995 225.232C180.907 225.452 180.894 225.696 180.958 225.925C180.948 226.105 181.001 226.283 181.108 226.428C181.215 226.573 181.37 226.676 181.545 226.719C181.51 226.719 181.476 226.685 181.441 226.685C181.684 226.812 181.965 226.848 182.231 226.784C182.498 226.721 182.733 226.563 182.893 226.34C183.052 226.118 183.126 225.845 183.1 225.572C183.075 225.299 182.952 225.045 182.753 224.855Z" fill="#111111"/><path d="M116.802 227.651C116.649 227.448 116.441 227.295 116.202 227.209C115.963 227.123 115.704 227.109 115.457 227.168C115.237 227.235 115.036 227.355 114.874 227.518C114.711 227.68 114.591 227.88 114.524 228.101C114.476 228.282 114.468 228.473 114.499 228.658C114.53 228.844 114.6 229.021 114.704 229.177C114.808 229.334 114.945 229.466 115.104 229.566C115.264 229.666 115.443 229.731 115.629 229.757C115.888 229.794 116.152 229.753 116.386 229.637C116.621 229.521 116.814 229.337 116.941 229.108C117.069 228.88 117.124 228.618 117.099 228.358C117.074 228.098 116.97 227.851 116.802 227.651Z" fill="#111111"/><path d="M72.3168 113.627C73.8252 114.43 75.1527 115.534 76.2173 116.871C76.4349 117.249 76.7152 117.587 77.0461 117.872C77.1197 117.913 77.2029 117.935 77.2876 117.935C77.3723 117.934 77.4553 117.912 77.5286 117.869C77.6018 117.827 77.6626 117.766 77.7049 117.693C77.7473 117.619 77.7697 117.536 77.7699 117.452C77.7699 116.382 76.528 115.312 75.7692 114.652C74.8362 113.881 73.772 113.285 72.6277 112.892C72.2147 112.729 71.901 113.425 72.3168 113.627Z" fill="#111111"/><path d="M72.6601 116.421C73.629 117.051 74.4911 117.832 75.2137 118.734C75.8353 119.459 76.4219 120.597 77.2843 121.08C77.3623 121.123 77.4513 121.142 77.5402 121.135C77.629 121.128 77.7137 121.095 77.7838 121.04C77.8538 120.984 77.9061 120.91 77.934 120.825C77.962 120.741 77.9644 120.65 77.9409 120.564C77.8009 119.493 76.5605 118.423 75.8003 117.733C74.9748 116.914 73.9529 116.32 72.8323 116.008C72.7811 115.999 72.7285 116.008 72.683 116.033C72.6375 116.058 72.6019 116.098 72.5819 116.146C72.5619 116.194 72.5588 116.247 72.573 116.297C72.5872 116.347 72.6179 116.391 72.6601 116.421Z" fill="#111111"/><path d="M91.0923 97.5101C91.4696 97.2277 91.7601 96.8451 91.9308 96.4058C92.1016 95.9665 92.1458 95.4882 92.0583 95.0251C92.0342 94.9635 91.9958 94.9084 91.9464 94.8645C91.8969 94.8205 91.8378 94.7888 91.7738 94.772C91.7098 94.7553 91.6427 94.7538 91.5781 94.7679C91.5134 94.7819 91.453 94.8111 91.4017 94.8529C90.9745 95.4919 90.5941 96.161 90.2635 96.8549C90.2073 96.9658 90.1912 97.0928 90.2179 97.2142C90.2446 97.3357 90.3125 97.4442 90.4101 97.5213C90.5076 97.5984 90.6288 97.6394 90.7532 97.6374C90.8775 97.6354 90.9973 97.5904 91.0923 97.5101Z" fill="#111111"/><path d="M90.3322 88.5375C89.88 88.7713 89.9122 89.4349 89.8842 89.8829C89.8492 90.4009 89.7806 90.9875 90.3042 91.2983C90.374 91.3321 90.4506 91.3497 90.5282 91.3497C90.6057 91.3497 90.6823 91.3321 90.7522 91.2983C91.3388 90.9189 91.1722 90.1587 91.1316 89.5721C91.126 89.1927 90.9496 88.2169 90.3322 88.5375Z" fill="#111111"/><path d="M85.2934 89.0539C85.2069 89.4505 85.172 89.8566 85.1898 90.2621C85.3088 91.4493 86.3882 91.3541 86.5016 90.3321C86.5019 89.9155 86.4673 89.4997 86.398 89.0889C86.2594 88.3637 85.3634 88.3637 85.2934 89.0539Z" fill="#111111"/><path d="M87.1232 86.5004C87.0826 86.2036 86.3602 85.7738 84.9826 86.6404C84.8808 86.7041 84.8021 86.7989 84.7582 86.9107C84.7143 87.0226 84.7075 87.1456 84.7389 87.2616C84.7703 87.3775 84.8382 87.4804 84.9325 87.5548C85.0268 87.6293 85.1425 87.6714 85.2626 87.675C85.753 87.6348 86.232 87.5062 86.6766 87.2956C86.8349 87.2398 86.9674 87.1284 87.0496 86.9821C87.1318 86.8358 87.1579 86.6646 87.1232 86.5004Z" fill="#111111"/><path d="M93.2665 87.64C92.9305 86.7328 91.2323 85.7892 90.7815 86.3632C90.4021 86.8462 90.9215 87.3642 91.2645 87.6736C91.6391 88.0769 92.1369 88.3443 92.6799 88.4338C92.7767 88.4361 92.8725 88.4151 92.9594 88.3725C93.0464 88.3299 93.1218 88.267 93.1793 88.1892C93.2368 88.1114 93.2747 88.0209 93.2899 87.9253C93.3051 87.8297 93.2971 87.7319 93.2665 87.64Z" fill="#111111"/><path d="M87.3991 90.884C87.4705 91.4006 87.0197 91.85 86.8125 92.2994C86.7103 92.5027 86.6571 92.727 86.6571 92.9546C86.6571 93.1821 86.7103 93.4065 86.8125 93.6098C86.95 93.8321 87.1366 94.02 87.358 94.159C87.5794 94.298 87.8298 94.3843 88.0898 94.4113C88.3498 94.4384 88.6126 94.4054 88.8579 94.315C89.1032 94.2246 89.3245 94.0791 89.5047 93.8898C89.554 93.8384 89.5893 93.7754 89.6076 93.7067C89.6258 93.6379 89.6262 93.5656 89.6089 93.4966C89.5915 93.4277 89.5569 93.3642 89.5084 93.3122C89.4598 93.2603 89.3988 93.2215 89.3311 93.1996C88.7795 93.0596 87.5027 93.5104 87.7099 92.5094C87.9365 91.9764 87.9965 91.3873 87.8821 90.8196C87.7799 90.6082 87.3599 90.6418 87.3991 90.884Z" fill="#111111"/><path d="M87.9199 104.205C83.5603 105.615 78.2417 108.277 76.8067 111.625C76.5995 112.108 77.0489 112.763 77.6005 112.419C80.0925 110.774 82.2359 107.057 88.1271 104.859C88.5037 104.688 88.3315 104.07 87.9199 104.205Z" fill="#111111"/><path d="M110.32 142.961C110.18 142.306 109.319 142.541 109.25 143.101C109.043 145.638 108.974 148.184 109.043 150.728C109.008 152.937 108.732 155.147 108.732 157.354C102.763 159.276 96.5006 160.129 90.2343 159.874C84.5205 159.522 78.994 157.703 74.1875 154.594C75.8201 145.609 76.8328 136.523 77.2185 127.4C77.2185 127.019 76.5969 126.916 76.5283 127.296C76.3901 128.097 76.2539 128.899 76.1195 129.703C73.9635 130.609 71.6969 132.215 69.5227 133.063C67.3821 133.925 64.3805 135.023 62.0327 134.478C57.0291 133.305 64.5191 122.298 66.0367 120.058C66.1767 119.955 65.9331 119.748 65.7959 119.885C63.467 122.527 61.4944 125.462 59.9285 128.617C58.8239 130.826 57.8579 133.937 60.2729 135.692C62.5507 137.348 66.0367 136.347 68.4531 135.552C71.1487 134.839 73.6526 133.537 75.7849 131.74C74.5417 139.413 73.4875 147.104 72.2135 154.77C72.1699 154.973 72.1897 155.184 72.27 155.375C72.3504 155.567 72.4875 155.729 72.6629 155.84C73.3545 156.297 74.0447 156.75 74.7559 157.161C57.1467 186.281 62.3029 203.244 61.6547 225.061C61.5567 228.281 60.9393 232.26 61.1269 235.537C60.9939 235.628 52.5169 242.117 52.2327 242.386C51.5761 243.008 49.7127 244.664 50.1957 245.665C50.6787 246.631 52.5435 246.631 53.4059 246.666C56.9409 246.91 62.8769 244.609 66.1053 243.145C68.0737 242.236 70.6273 241.385 70.6273 239.004C70.6511 238.881 70.6945 237.665 70.6777 236.919C73.7129 228.346 77.0953 214.453 77.1499 206.459C77.1434 206.322 77.0886 206.192 76.9951 206.091C76.9017 205.99 76.7756 205.925 76.6391 205.909C76.5027 205.892 76.3647 205.924 76.2497 205.999C76.1346 206.074 76.0498 206.188 76.0103 206.319C74.3849 213.056 75.4041 211.499 70.2241 236.114C69.5003 236.006 66.1879 239.352 62.5829 235.77C64.6213 229.485 62.6067 207.399 63.5167 195.31C64.7095 179.901 70.7211 168.927 75.4783 157.555C78.5908 159.228 81.944 160.409 85.4183 161.055C74.2183 182.343 75.9725 203.475 80.7983 227.615C81.3748 231.193 82.1933 234.727 83.2483 238.195C79.3171 239.539 75.5721 242.675 72.6545 245.526C72.1365 246.044 71.5849 246.7 71.8271 247.39C72.0679 248.115 73.0339 248.287 73.7941 248.322C76.8574 248.439 79.9223 248.137 82.9039 247.425C85.7697 246.68 90.6907 245.249 91.9815 242.455C92.2497 241.509 92.385 240.531 92.3833 239.548C92.6535 233.649 92.2349 233.827 91.9465 229.134C90.1755 201.146 95.7839 195.846 103.715 176.021C105.879 170.992 107.197 165.64 107.614 160.181C107.682 159.939 107.234 159.901 107.166 160.146C103.776 175.608 94.5071 188.832 91.4285 202.733C89.4615 211.443 89.6085 219.712 90.1853 228.512C90.2119 228.903 90.5283 236.708 91.0995 237.951C89.4195 239.879 86.7259 240.524 84.6973 238.543C84.4257 235.463 83.4093 231.413 82.8353 228.444C77.8051 203.557 76.0089 184.344 86.1505 161.188C93.9752 162.385 101.975 161.598 109.417 158.9C109.624 158.9 110.039 158.589 110.142 157.83C110.544 155.472 110.741 153.083 110.729 150.69C110.896 148.107 110.759 145.513 110.32 142.961Z" fill="#111111"/><path d="M180.233 182.855C180.402 181.305 180.273 179.737 179.854 178.235C178.819 175.613 175.747 175.435 173.331 175.336C160.184 174.749 147 175.164 133.851 174.992C128.811 174.906 120.478 174.992 117.423 179.133C116.556 180.477 116.122 182.055 116.182 183.653C115.762 189.832 113.351 202.083 122.358 203.291C124.207 203.44 126.065 203.452 127.915 203.325C132.907 203.249 148.333 203.185 156.294 202.943C157.888 202.894 160.226 202.642 161.425 202.566C162.594 204.649 164.125 206.507 165.946 208.053C166.075 208.127 166.218 208.176 166.367 208.195C166.515 208.214 166.665 208.204 166.809 208.165C166.954 208.126 167.089 208.059 167.207 207.968C167.325 207.876 167.424 207.762 167.499 207.633C169.225 205.253 170.881 202.836 172.572 200.493C174.919 201.148 177.752 201.39 179.371 199.181C180.716 197.295 180.233 195.311 180.233 182.855ZM178.44 197.662C177.651 200.01 174.989 199.87 172.918 199.594C172.858 199.396 172.744 199.219 172.589 199.082C172.434 198.945 172.244 198.853 172.041 198.817C171.837 198.782 171.627 198.803 171.435 198.879C171.243 198.955 171.075 199.083 170.951 199.248C169.432 201.319 167.871 203.391 166.36 205.461C165.214 204.093 164.143 202.665 163.15 201.181C162.25 200.042 162.03 200.641 155.937 200.871C145.533 201.379 134.937 201.144 124.222 201.354C123.346 201.459 122.458 201.362 121.626 201.068C120.794 200.775 120.041 200.294 119.425 199.662C116.656 196.417 117.404 189.923 117.838 184.271C117.728 182.808 118.078 181.348 118.839 180.095C121.972 175.952 132.013 176.679 139.062 176.816C147.855 176.973 152.12 176.208 168.602 176.782C170.569 176.851 172.571 176.851 174.538 177.023C176.575 177.197 178.403 177.713 178.61 180.061C178.956 183.891 178.679 187.929 178.679 191.759C178.647 193.554 179.03 195.902 178.44 197.662Z" fill="#111111"/><path d="M122.118 184.961C126.061 185.383 130.032 185.476 133.99 185.241C138.235 185.206 167.706 184.862 171.951 184.689C172.279 184.674 172.589 184.533 172.816 184.295C173.043 184.057 173.169 183.741 173.169 183.413C173.169 183.084 173.043 182.768 172.816 182.53C172.589 182.292 172.279 182.151 171.951 182.136C167.81 182.136 163.668 182.445 159.527 182.556C124.958 183.396 125.292 183.369 122.118 184.005C122.017 184.038 121.929 184.101 121.866 184.187C121.804 184.273 121.77 184.377 121.77 184.483C121.77 184.589 121.804 184.692 121.866 184.778C121.929 184.864 122.017 184.928 122.118 184.961Z" fill="#111111"/><path d="M123.119 190.275C138.228 191.108 152.799 190.491 167.534 190.24C169.569 190.172 172.054 190.551 173.988 189.896C174.223 189.827 174.429 189.684 174.576 189.488C174.723 189.292 174.803 189.054 174.803 188.809C174.803 188.564 174.723 188.326 174.576 188.13C174.429 187.934 174.223 187.791 173.988 187.722C171.962 187.428 169.905 187.428 167.88 187.722C149.513 188.342 134.968 188.205 123.119 189.067C122.964 189.075 122.817 189.142 122.71 189.254C122.603 189.367 122.543 189.516 122.543 189.671C122.543 189.827 122.603 189.976 122.71 190.089C122.817 190.201 122.964 190.268 123.119 190.275Z" fill="#111111"/><path d="M154.731 195.418C157.231 196 158.791 195.853 169.011 195.418C170.595 195.477 172.178 195.291 173.705 194.866C173.866 194.815 174.007 194.714 174.107 194.577C174.207 194.441 174.261 194.276 174.261 194.106C174.261 193.937 174.207 193.772 174.107 193.636C174.007 193.499 173.866 193.398 173.705 193.347C172.279 193.02 170.806 192.95 169.355 193.14C167.63 193.21 165.904 193.28 164.175 193.382C161.104 193.522 157.653 193.382 154.72 194.313C154.6 194.349 154.496 194.423 154.423 194.523C154.349 194.623 154.31 194.745 154.311 194.869C154.312 194.994 154.354 195.115 154.43 195.213C154.505 195.312 154.611 195.384 154.731 195.418Z" fill="#111111"/><path d="M163.221 147.344C162.395 139.812 156.361 141.414 151.279 141.649C148.346 141.789 131.574 142.478 126.156 142.72C122.635 142.892 117.32 142.167 115.56 146.067C114.076 149.38 114.559 153.59 114.87 157.111C114.895 157.88 115.139 158.626 115.573 159.261C116.007 159.897 116.613 160.396 117.32 160.699C119.56 161.596 121.8 160.279 124.085 160.665C124.809 160.769 125.362 159.768 124.602 159.388C121.345 157.795 117.261 160.762 116.941 156.352C116.734 153.521 116.078 150.242 116.872 147.481C117.424 145.481 118.943 144.893 120.875 144.721C124.873 144.379 156.111 143.55 156.249 143.547C157.48 143.366 158.735 143.649 159.77 144.341C160.839 145.274 160.839 146.895 160.976 148.207C161.289 151.007 162.62 156.831 160.39 158.525C159.009 159.596 156.352 159.25 154.696 159.353C133.655 160.492 133.857 159.99 132.954 160.941C131.911 162.026 132.106 162.389 129.296 166.325C128.226 164.564 127.196 162.804 126.121 161.08C125.499 160.079 123.946 161.01 124.568 161.976C125.913 164.013 127.26 166.015 128.606 168.05C128.846 168.396 129.468 168.603 129.779 168.19C130.573 167.189 131.401 166.188 132.229 165.222C132.885 164.462 133.713 163.013 134.609 162.562C135.267 162.429 135.94 162.382 136.611 162.422C137.266 162.387 148.651 161.904 151.311 161.801C154.011 161.802 156.708 161.628 159.386 161.283C165.946 160.319 163.705 151.76 163.221 147.344Z" fill="#111111"/><path d="M169.467 97.545C166.506 96.586 162.875 97.685 159.838 97.7508C153.258 97.923 144.673 97.734 137.06 98.0966C135.922 98.1652 134.093 97.8894 133.161 98.6146C132.752 98.9212 129.538 103.436 129.331 103.722C129.02 103.302 126.881 100.202 126.155 99.029C125.569 98.028 123.946 98.994 124.603 99.925C125.293 100.926 127.639 105.171 128.295 106.207C128.399 106.373 128.544 106.51 128.716 106.605C128.888 106.7 129.082 106.75 129.278 106.75C129.475 106.75 129.668 106.7 129.84 106.605C130.012 106.51 130.157 106.373 130.262 106.207C131.712 104.343 133.126 102.48 134.575 100.582C140.409 100.162 146.275 100.029 152.142 99.7528C155.386 99.6128 158.665 99.3048 161.909 99.442C164.325 99.5456 167.397 99.862 169.673 98.7868C170.191 98.5446 169.985 97.72 169.467 97.545Z" fill="#111111"/><path d="M125.051 97.0605C123.87 96.8135 122.668 96.6864 121.461 96.6811C120.151 96.6811 118.149 97.2677 117.286 95.9573C116.801 94.6925 116.578 93.3421 116.63 91.9883C116.435 90.3849 116.412 88.7652 116.561 87.1569C116.701 85.6729 117.044 83.8431 118.493 83.1193C119.878 82.6374 121.347 82.4468 122.808 82.5593C132.188 82.2569 164.573 82.3353 173.918 81.4547C176.196 81.2475 178.44 81.3147 180.718 81.2475C181.891 81.2139 181.856 79.3505 180.718 79.4541C178.459 79.6948 176.189 79.7981 173.918 79.7635C164.272 79.4233 128.958 80.3991 126.189 80.5237C123.832 80.5042 121.478 80.6775 119.15 81.0417C113.59 82.3017 114.87 89.6083 114.87 93.1895C114.665 94.6922 114.995 96.2192 115.802 97.5029C116.345 98.0636 117.012 98.4874 117.75 98.7393C118.488 98.9913 119.276 99.0641 120.047 98.9519C121.715 98.8892 123.375 98.7048 125.016 98.4003C125.161 98.3606 125.289 98.2753 125.382 98.157C125.475 98.0387 125.527 97.8937 125.531 97.7434C125.535 97.5931 125.49 97.4456 125.404 97.3226C125.317 97.1996 125.194 97.1077 125.051 97.0605Z" fill="#111111"/><path d="M122.704 151.658C122.038 149.936 123.015 147.724 125.119 148.379C125.964 148.67 126.69 149.227 127.19 149.967C126.983 149.519 128.226 148.725 128.537 148.551C130.938 147.151 133.027 150.231 130.676 153.073C129.744 154.264 128.652 155.32 127.432 156.213C127.054 156.464 126.993 156.327 126.846 156.178C125.362 154.84 123.452 153.595 122.704 151.658Z" fill="#E04747"/><path d="M135.542 151.416C134.872 149.696 135.853 147.482 137.957 148.138C138.802 148.428 139.529 148.985 140.028 149.726C139.821 149.276 141.064 148.483 141.375 148.31C143.793 146.899 145.855 150.002 143.514 152.831C142.582 154.022 141.491 155.079 140.27 155.971C139.891 156.223 139.831 156.085 139.684 155.938C138.2 154.591 136.284 153.321 135.542 151.416Z" fill="#E04747"/><path d="M148.38 151.14C147.71 149.421 148.691 147.206 150.795 147.861C151.64 148.151 152.367 148.709 152.866 149.449C152.66 149.001 153.902 148.207 154.213 148.035C156.631 146.625 158.693 149.726 156.352 152.555C155.42 153.746 154.329 154.803 153.108 155.695C152.732 155.947 152.669 155.809 152.522 155.662C151.004 154.315 149.122 153.045 148.38 151.14Z" fill="#E04747"/><path d="M175.196 129.709C164.521 128.682 152.282 130.985 144.446 130.192C141.226 129.923 141.263 129.352 140.995 127.742C140.588 125.464 140.402 123.153 140.442 120.84C140.442 119.563 140.27 116.628 141.478 115.731C142.376 115.076 144.376 115.179 145.412 115.076C153.826 114.323 161.048 114.699 167.952 114.145C169.022 114.041 169.057 112.419 167.952 112.454C164.146 112.504 149.951 112.855 144.795 113.351C143.32 113.331 141.858 113.637 140.515 114.247C139.031 115.214 138.859 117.561 138.755 119.113C138.59 121.73 138.684 124.356 139.035 126.953C139.243 128.645 139.243 130.369 140.9 131.302C145.508 133.879 163.562 131.183 175.273 130.784C175.886 130.745 175.886 129.78 175.196 129.709Z" fill="#111111"/><path d="M145.792 123.048C151.522 123.364 159.355 123.006 163.565 123.083C165.463 123.118 167.673 123.503 169.501 122.803C169.677 122.747 169.831 122.637 169.941 122.488C170.05 122.339 170.109 122.159 170.109 121.974C170.109 121.79 170.05 121.61 169.941 121.461C169.831 121.312 169.677 121.202 169.501 121.146C167.673 120.69 165.775 120.595 163.911 120.866C157.798 120.862 151.69 121.219 145.62 121.937C144.998 122.048 145.205 123.015 145.792 123.048Z" fill="#111111"/><path d="M121.013 91.9534C126.761 92.5344 129.608 91.8806 145.793 91.4704C148.39 91.5584 150.988 91.3147 153.524 90.7452C153.633 90.7094 153.728 90.6401 153.795 90.5472C153.862 90.4543 153.898 90.3426 153.898 90.2279C153.898 90.1133 153.862 90.0016 153.795 89.9087C153.728 89.8158 153.633 89.7465 153.524 89.7106C150.945 89.1604 149.479 89.3354 137.2 89.7792C131.815 89.9864 126.157 89.7442 120.842 90.6416C120.047 90.7802 120.323 91.8834 121.013 91.9534Z" fill="#111111"/><path d="M159.18 90.3322C162.12 91.3122 171.035 91.3878 173.711 90.4008C174.331 90.1586 174.503 89.124 173.711 88.9854C168.855 88.7908 163.992 89.0335 159.18 89.7106C159.11 89.727 159.047 89.7666 159.003 89.823C158.958 89.8795 158.933 89.9494 158.933 90.0214C158.933 90.0934 158.958 90.1633 159.003 90.2197C159.047 90.2761 159.11 90.3158 159.18 90.3322Z" fill="#111111"/><path d="M217.022 139.544C225.506 142.864 235.947 135.311 236.073 123.29C236.142 119.666 235.417 115.179 233.133 112.246C233.084 112.168 233.009 112.111 232.92 112.084C232.832 112.058 232.737 112.064 232.653 112.102C232.569 112.14 232.502 112.207 232.463 112.29C232.425 112.374 232.418 112.469 232.443 112.557C233.133 115.801 234.377 118.734 234.514 122.077C234.987 133.078 226.674 140.577 217.087 139.23C216.885 139.16 216.815 139.44 217.022 139.544Z" fill="#111111"/><path d="M233.589 119.98C233.695 117.704 233.347 114.457 231.587 112.801C231.513 112.731 231.418 112.687 231.317 112.674C231.215 112.662 231.113 112.683 231.024 112.733C230.935 112.783 230.865 112.86 230.824 112.954C230.782 113.047 230.771 113.151 230.793 113.25C231.233 114.951 232.546 116.103 232.76 119.945C232.748 120.005 232.749 120.066 232.763 120.125C232.777 120.184 232.803 120.24 232.841 120.287C232.878 120.335 232.926 120.374 232.98 120.402C233.034 120.43 233.093 120.446 233.154 120.448C233.215 120.451 233.275 120.44 233.331 120.417C233.387 120.394 233.438 120.359 233.479 120.314C233.521 120.27 233.552 120.217 233.571 120.159C233.59 120.102 233.596 120.04 233.589 119.98Z" fill="#111111"/><path d="M232.07 120.943C232.318 118.765 232.138 115.835 230.689 114.075C230.628 114.011 230.549 113.967 230.463 113.949C230.376 113.931 230.286 113.939 230.204 113.972C230.123 114.006 230.053 114.063 230.004 114.137C229.955 114.211 229.93 114.297 229.931 114.386C230.033 115.976 230.386 115.382 231.38 121.012C231.483 121.46 232.031 121.288 232.07 120.943Z" fill="#111111"/><path d="M230.828 122.668C230.994 120.856 230.634 119.035 229.792 117.422C229.652 117.215 229.232 117.282 229.274 117.562C229.414 119.253 229.929 120.945 230.138 122.669C230.206 123.082 230.818 123.117 230.828 122.668Z" fill="#111111"/><path d="M223.752 125.257C224.613 124.02 226.31 121.031 226.202 119.528C226.2 119.469 226.18 119.412 226.146 119.364C226.112 119.316 226.065 119.279 226.011 119.257C225.956 119.235 225.897 119.23 225.839 119.241C225.781 119.252 225.728 119.28 225.686 119.321C225.146 120.1 224.737 120.963 224.477 121.874C224.057 122.944 223.615 123.974 223.201 125.049C223.097 125.36 223.58 125.5 223.752 125.257Z" fill="#111111"/><path d="M222.027 124.6C223.523 122.946 224.673 121.01 225.408 118.905C225.478 118.56 225.029 118.249 224.788 118.56C223.526 120.349 222.44 122.256 221.544 124.254C221.371 124.531 221.784 124.911 222.027 124.6Z" fill="#111111"/><path d="M226.409 120.875C224.362 128.239 219.81 134.658 213.538 139.027C210.318 141.177 206.607 142.479 202.75 142.812C198.893 143.144 195.014 142.496 191.474 140.928C193.957 138.761 195.635 135.818 196.234 132.577C206.874 137.325 218.617 130.374 223.103 120.357C223.275 119.937 222.792 119.459 222.447 119.839C220.562 122 218.652 126.121 214.095 129.359C211.522 131.203 208.536 132.387 205.398 132.81C202.35 133.016 199.289 132.735 196.329 131.978C196.452 131.122 196.495 130.256 196.459 129.392C196.434 128.771 194.251 127.253 193.698 126.528C193.175 125.665 192.599 124.835 191.974 124.043C191.694 123.763 191.065 123.941 191.11 124.389C191.327 125.427 191.767 126.405 192.399 127.257C193.031 128.109 193.839 128.814 194.769 129.324C194.953 132.644 193.825 135.904 191.628 138.4C188.948 141.332 186.399 141.725 183.414 138.642C181.344 136.409 179.894 133.673 179.21 130.707C178.526 127.74 178.631 124.645 179.515 121.731C179.655 121.282 178.963 121.11 178.825 121.524C174.558 133.045 183.032 146.444 190.7 141.493C194.337 143.405 198.422 144.304 202.527 144.094C206.631 143.884 210.603 142.573 214.026 140.298C217.376 137.949 220.275 135.014 222.585 131.637C224.759 128.53 226.933 124.837 227.002 120.938C227.01 120.859 226.987 120.781 226.937 120.719C226.888 120.658 226.816 120.618 226.737 120.61C226.658 120.602 226.58 120.625 226.518 120.675C226.457 120.724 226.418 120.796 226.409 120.875Z" fill="#111111"/><path d="M26.2107 138.681C24.7953 139.614 23.4499 140.58 22.1381 141.621C20.7475 142.546 19.4931 143.661 18.4113 144.934C18.1313 145.354 18.6521 145.692 19.0329 145.555C20.44 144.813 21.7402 143.885 22.8983 142.794C24.2437 141.69 25.5205 140.585 26.7623 139.377C26.829 139.297 26.866 139.196 26.8672 139.092C26.8685 138.988 26.8338 138.887 26.7691 138.805C26.7044 138.723 26.6136 138.667 26.5119 138.644C26.4102 138.622 26.3039 138.635 26.2107 138.681Z" fill="#E04747"/><path d="M16.38 147.241C14.977 148.023 13.7355 149.065 12.7218 150.311C12.2341 150.81 11.8562 151.406 11.6125 152.06C11.3687 152.713 11.2644 153.411 11.3064 154.108C11.3279 154.193 11.372 154.27 11.434 154.332C11.4959 154.393 11.5734 154.437 11.6582 154.458C11.7431 154.48 11.8321 154.478 11.9158 154.452C11.9996 154.427 12.0749 154.38 12.1338 154.315C12.815 153.329 13.3718 152.262 13.7914 151.14C14.5141 149.825 15.5007 148.673 16.6894 147.757C16.9624 147.55 16.7216 147.035 16.38 147.241Z" fill="#E04747"/><path d="M10.1292 157.248C8.77256 159.831 6.85036 163.668 7.95496 166.601C7.98126 166.69 8.03287 166.769 8.10344 166.828C8.17401 166.888 8.26046 166.925 8.35213 166.937C8.44381 166.948 8.5367 166.931 8.61937 166.89C8.70203 166.849 8.77086 166.785 8.81736 166.705C9.79736 164.692 9.23736 162.212 11.1638 157.662C11.406 157.08 10.4372 156.66 10.1292 157.248Z" fill="#E04747"/><path d="M7.19608 170.363C6.87968 173.4 6.64308 178.196 9.02448 180.509C9.11328 180.595 9.2252 180.652 9.34643 180.675C9.46765 180.698 9.59288 180.684 9.70664 180.637C9.82041 180.589 9.91772 180.509 9.98658 180.407C10.0554 180.305 10.0928 180.184 10.0941 180.061C9.98348 177.674 8.16208 175.813 8.26568 170.363C8.26008 169.68 7.26328 169.707 7.19608 170.363Z" fill="#E04747"/><path d="M10.7798 184.789C11.345 186.485 12.1341 188.098 13.1262 189.585C13.955 190.758 15.1282 192.518 16.6122 192.795C16.7338 192.827 16.8618 192.822 16.9805 192.781C17.0992 192.74 17.2035 192.666 17.2805 192.567C17.3576 192.468 17.404 192.349 17.4141 192.223C17.4242 192.098 17.3976 191.973 17.3374 191.863C16.5268 189.972 13.8668 189.483 11.8158 184.512C11.5442 183.891 10.5488 184.131 10.7798 184.789Z" fill="#E04747"/><path d="M20.31 196.039C22.0516 197.347 23.9252 198.469 25.9002 199.387C27.2806 200.008 29.179 201.113 30.628 200.215C30.7336 200.147 30.8099 200.042 30.842 199.921C30.8741 199.799 30.8597 199.67 30.8016 199.559C29.9042 198.248 28.0016 198.248 26.5904 197.834C24.5638 197.225 22.6347 196.329 20.8616 195.174C20.8048 195.138 20.7414 195.113 20.675 195.101C20.6087 195.09 20.5407 195.091 20.4749 195.106C20.4091 195.12 20.3469 195.148 20.2917 195.186C20.2365 195.225 20.1894 195.274 20.1532 195.331C20.117 195.388 20.0923 195.451 20.0806 195.517C20.0689 195.584 20.0703 195.652 20.0849 195.717C20.0994 195.783 20.1268 195.845 20.1654 195.901C20.2041 195.956 20.2532 196.003 20.31 196.039Z" fill="#E04747"/><path d="M35.2186 200.767C38.7396 200.586 43.4324 200.487 46.469 198.454C46.5548 198.398 46.6207 198.316 46.6572 198.22C46.6937 198.124 46.699 198.018 46.6723 197.919C46.6456 197.82 46.5884 197.732 46.5086 197.667C46.4289 197.602 46.3308 197.564 46.2282 197.558C43.7782 197.508 40.5834 198.912 35.2186 199.559C34.4934 199.662 34.4248 200.808 35.2186 200.767Z" fill="#E04747"/><path d="M50.0583 195.832C51.8867 195.832 53.7501 194.383 55.0619 193.208C56.6262 192.038 57.7265 190.352 58.1685 188.448C58.2371 187.93 57.5819 187.827 57.2711 188.069C55.9243 189.139 55.0311 190.729 53.7851 191.933C52.4009 192.962 51.0758 194.069 49.8161 195.247C49.7618 195.292 49.7234 195.354 49.7065 195.422C49.6896 195.491 49.6951 195.563 49.7221 195.628C49.7492 195.694 49.7963 195.749 49.8568 195.785C49.9173 195.822 49.9879 195.838 50.0583 195.832Z" fill="#E04747"/><path d="M58.4442 184.512C59.6328 181.703 59.756 176.196 56.235 174.852C55.752 174.679 55.304 175.232 55.4076 175.68C55.752 176.992 56.753 178.06 57.1674 179.407C57.6424 180.974 57.7251 182.633 57.4082 184.239C57.3789 184.374 57.4029 184.515 57.475 184.632C57.5472 184.75 57.662 184.836 57.7956 184.871C57.9292 184.906 58.0712 184.888 58.192 184.821C58.3129 184.754 58.4032 184.643 58.4442 184.512Z" fill="#E04747"/><path d="M53.6466 172.192C52.1696 169.252 48.8866 166.256 45.3306 167.012C45.2486 167.035 45.1751 167.081 45.1193 167.146C45.0636 167.21 45.028 167.29 45.017 167.374C45.0059 167.459 45.02 167.545 45.0573 167.621C45.0946 167.698 45.1536 167.762 45.227 167.805C47.467 169.198 50.0612 169.569 52.7156 172.913C53.1636 173.435 53.9252 172.743 53.6466 172.192Z" fill="#E04747"/><path d="M41.9132 168.84C37.8168 170.031 32.921 177.008 33.9066 181.126C33.9337 181.219 33.9875 181.301 34.0613 181.364C34.1351 181.426 34.2255 181.465 34.3213 181.475C34.4171 181.486 34.514 181.469 34.5999 181.425C34.6857 181.381 34.7567 181.313 34.804 181.229C35.8736 179.228 36.253 176.95 37.4962 174.983C38.9141 173.025 40.5464 171.23 42.3626 169.634C42.4396 169.562 42.4903 169.466 42.5063 169.362C42.5223 169.258 42.5028 169.151 42.4509 169.06C42.399 168.968 42.3177 168.896 42.2201 168.857C42.1226 168.817 42.0144 168.811 41.9132 168.84Z" fill="#E04747"/><path d="M33.2165 184.271C32.8055 185.93 32.5967 187.633 32.5949 189.343C32.3058 190.873 32.402 192.45 32.8749 193.934C32.9215 194.016 32.9891 194.085 33.0709 194.132C33.1527 194.18 33.2457 194.205 33.3404 194.205C33.4351 194.205 33.528 194.18 33.6098 194.132C33.6916 194.085 33.7593 194.016 33.8059 193.934C34.3833 192.477 34.585 190.898 34.3925 189.343C34.4895 187.647 34.3956 185.946 34.1125 184.271C34.0836 184.174 34.0245 184.09 33.9438 184.03C33.8631 183.97 33.7651 183.937 33.6645 183.937C33.5638 183.937 33.4659 183.97 33.3852 184.03C33.3045 184.09 33.2453 184.174 33.2165 184.271Z" fill="#E04747"/><path d="M33.5621 197.316C33.8534 199.396 34.4222 201.427 35.2533 203.356C35.784 205.249 36.7001 207.013 37.9441 208.536C38.0286 208.616 38.1368 208.667 38.2525 208.68C38.3682 208.694 38.4852 208.67 38.5861 208.612C38.687 208.553 38.7664 208.464 38.8124 208.357C38.8584 208.25 38.8686 208.131 38.8415 208.018C38.3404 206.102 37.5985 204.258 36.6337 202.53C35.8735 200.735 35.2533 198.836 34.3559 197.112C34.1487 196.763 33.4921 196.902 33.5621 197.316Z" fill="#E04747"/><path d="M39.3947 212.156C40.4158 213.884 41.683 215.453 43.1565 216.815C44.4089 218.391 45.8853 219.774 47.5385 220.921C47.6349 220.977 47.7468 220.999 47.857 220.985C47.9672 220.97 48.0696 220.919 48.1482 220.841C48.2268 220.762 48.2773 220.66 48.2918 220.55C48.3064 220.439 48.2842 220.328 48.2287 220.231C47.1491 218.517 45.8237 216.971 44.2947 215.642C43.0126 214.108 41.5015 212.78 39.8147 211.707C39.7529 211.677 39.683 211.667 39.6155 211.68C39.5479 211.692 39.4861 211.726 39.4392 211.777C39.3922 211.827 39.3626 211.891 39.3546 211.959C39.3466 212.027 39.3607 212.096 39.3947 212.156Z" fill="#E04747"/><path d="M50.6098 224.269C52.8106 225.974 58.8698 230.682 61.6194 231.829C62.2396 232.07 62.5854 231.207 62.206 230.793C60.6397 229.354 58.9281 228.082 57.0988 226.997C55.2004 225.721 53.2675 224.512 51.3 223.373C50.7484 223.061 50.0638 223.846 50.6098 224.269Z" fill="#E04747"/><path d="M64.3117 233.311C67.3413 235.131 73.9493 238.658 77.4605 238.28C78.0121 238.211 78.3565 237.453 77.7699 237.142C75.9065 236.141 73.5601 235.934 71.5931 235.243C69.2761 234.474 67.035 233.492 64.8983 232.31C64.7662 232.243 64.6131 232.228 64.4705 232.269C64.3279 232.311 64.2066 232.405 64.1315 232.533C64.0564 232.662 64.0332 232.814 64.0667 232.958C64.1003 233.103 64.1879 233.229 64.3117 233.311Z" fill="#E04747"/><path d="M82.6365 239.523C85.8887 240.568 89.4699 242.353 92.9209 242.491C93.044 242.485 93.162 242.44 93.2578 242.362C93.3535 242.285 93.4219 242.178 93.4531 242.059C93.4844 241.94 93.4767 241.814 93.4314 241.699C93.386 241.584 93.3053 241.487 93.2009 241.422C90.1993 239.764 86.2303 239.42 82.8829 238.622C82.7633 238.589 82.6357 238.605 82.528 238.667C82.4204 238.728 82.3416 238.83 82.3089 238.949C82.2762 239.069 82.2924 239.196 82.3538 239.304C82.4152 239.412 82.5169 239.491 82.6365 239.523Z" fill="#E04747"/><path d="M99.7542 244.112C101.745 244.746 103.79 245.197 105.862 245.459C107.595 245.924 109.393 246.099 111.182 245.977C111.665 245.907 111.735 245.113 111.322 244.906C109.526 244.204 107.625 243.807 105.697 243.733C103.784 243.377 101.844 243.193 99.8984 243.181C99.7809 243.175 99.665 243.212 99.5735 243.286C99.4819 243.36 99.4212 243.465 99.4032 243.581C99.3851 243.698 99.4111 243.817 99.476 243.915C99.5409 244.013 99.6401 244.083 99.7542 244.112Z" fill="#E04747"/><path d="M115.042 246.39C117.922 247.528 123.82 249.367 126.742 248.392C126.829 248.363 126.905 248.308 126.958 248.233C127.012 248.159 127.041 248.069 127.041 247.978C127.041 247.886 127.012 247.797 126.958 247.722C126.905 247.648 126.829 247.592 126.742 247.563C124.362 246.603 121.441 247.251 115.249 245.563C114.731 245.391 114.52 246.186 115.042 246.39Z" fill="#E04747"/><path d="M134.334 250.46C138.412 250.74 142.927 251.633 147 250.88C147.131 250.842 147.246 250.763 147.328 250.654C147.41 250.545 147.455 250.412 147.455 250.276C147.455 250.139 147.41 250.007 147.328 249.898C147.246 249.789 147.131 249.709 147 249.672C142.996 248.671 138.407 249.292 134.334 249.392C134.197 249.399 134.068 249.458 133.974 249.557C133.879 249.657 133.827 249.789 133.827 249.926C133.827 250.063 133.879 250.195 133.974 250.294C134.068 250.394 134.197 250.453 134.334 250.46Z" fill="#E04747"/><path d="M152.279 251.947C156.18 252.115 160.46 252.706 164.29 251.912C164.417 251.875 164.529 251.798 164.609 251.692C164.689 251.586 164.732 251.458 164.732 251.325C164.732 251.193 164.689 251.064 164.609 250.958C164.529 250.852 164.417 250.775 164.29 250.739C160.425 249.911 156.18 250.498 152.279 250.67C152.117 250.681 151.966 250.753 151.855 250.871C151.744 250.99 151.682 251.146 151.682 251.308C151.682 251.471 151.744 251.627 151.855 251.746C151.966 251.864 152.117 251.936 152.279 251.947Z" fill="#E04747"/><path d="M169.156 252.085C172.892 252.623 176.701 252.316 180.303 251.188C180.821 251.014 180.958 250.083 180.303 250.015C176.549 249.579 172.745 249.967 169.156 251.153C168.742 251.292 168.638 252.013 169.156 252.085Z" fill="#E04747"/><path d="M228.48 234.622C230.073 233.668 231.496 232.455 232.691 231.034C234.018 229.738 235.156 228.262 236.073 226.65C236.122 226.568 236.141 226.473 236.129 226.379C236.117 226.284 236.074 226.197 236.007 226.13C235.94 226.063 235.853 226.02 235.758 226.008C235.664 225.996 235.569 226.015 235.487 226.064C232.411 228.14 229.811 230.846 227.858 234.002C227.686 234.415 228.067 234.864 228.48 234.622Z" fill="#E04747"/><path d="M238.972 224.097C241.59 222.569 244.184 219.617 244.321 216.434C244.318 216.32 244.282 216.208 244.218 216.114C244.153 216.019 244.062 215.945 243.957 215.901C243.851 215.856 243.734 215.843 243.622 215.864C243.509 215.884 243.404 215.936 243.32 216.014C242.458 217.084 241.836 218.326 241.08 219.465C240.216 220.758 239.281 222.002 238.28 223.192C237.902 223.682 238.384 224.44 238.972 224.097Z" fill="#E04747"/><path d="M245.56 213.536C247.366 210.886 249.805 208.324 250.667 205.184C250.703 205.061 250.696 204.929 250.647 204.81C250.599 204.692 250.512 204.593 250.401 204.529C250.289 204.466 250.16 204.441 250.033 204.46C249.906 204.479 249.79 204.539 249.701 204.632C247.321 206.872 246.18 210.223 244.661 213.018C244.601 213.137 244.588 213.274 244.626 213.402C244.664 213.529 244.75 213.637 244.865 213.704C244.98 213.77 245.117 213.79 245.246 213.759C245.375 213.728 245.488 213.648 245.56 213.536Z" fill="#E04747"/><path d="M252.914 200.836C253.589 199.049 254.157 197.316 254.674 195.488C255.26 194.045 255.497 192.484 255.364 190.932C255.337 190.839 255.286 190.754 255.217 190.687C255.147 190.619 255.061 190.571 254.968 190.546C254.874 190.522 254.775 190.522 254.681 190.548C254.588 190.573 254.502 190.622 254.433 190.69C253.599 191.99 253.079 193.467 252.914 195.003C252.494 196.868 252.189 198.696 251.948 200.595C251.924 200.72 251.948 200.85 252.017 200.958C252.085 201.066 252.193 201.144 252.317 201.175C252.441 201.206 252.572 201.188 252.683 201.125C252.794 201.061 252.877 200.958 252.914 200.836Z" fill="#E04747"/><path d="M256.228 186.099C256.572 179.494 257.076 178.168 256.228 176.719C256.19 176.652 256.134 176.597 256.067 176.558C256.001 176.519 255.925 176.499 255.848 176.499C255.771 176.499 255.695 176.519 255.628 176.558C255.562 176.597 255.506 176.652 255.468 176.719C254.528 178.214 255.048 179.974 255.048 186.099C255.048 186.256 255.11 186.406 255.221 186.516C255.331 186.627 255.481 186.689 255.638 186.689C255.794 186.689 255.944 186.627 256.055 186.516C256.166 186.406 256.228 186.256 256.228 186.099Z" fill="#E04747"/><path d="M256.883 170.846C256.68 165.934 257.117 163.78 256.124 162.425C256.064 162.334 255.982 162.258 255.886 162.206C255.789 162.154 255.682 162.127 255.572 162.127C255.462 162.127 255.355 162.154 255.258 162.206C255.162 162.258 255.08 162.334 255.02 162.425C254.611 163.627 254.562 164.923 254.88 166.152C255.02 167.74 255.329 169.259 255.536 170.846C255.675 171.674 256.921 171.744 256.883 170.846Z" fill="#E04747"/><path d="M255.571 158.732C255 156.369 254.062 149.772 252.603 147.241C252.515 147.099 252.383 146.989 252.228 146.927C252.072 146.865 251.901 146.854 251.739 146.896C251.577 146.939 251.433 147.032 251.328 147.162C251.223 147.292 251.162 147.453 251.154 147.62C251.262 150.56 254.061 157.448 254.605 158.974C254.619 159.04 254.646 159.102 254.684 159.158C254.722 159.213 254.771 159.26 254.828 159.296C254.885 159.331 254.949 159.355 255.015 159.366C255.082 159.376 255.15 159.373 255.215 159.357C255.28 159.341 255.341 159.311 255.395 159.271C255.448 159.23 255.493 159.179 255.526 159.121C255.56 159.062 255.581 158.998 255.589 158.931C255.596 158.864 255.591 158.796 255.571 158.732Z" fill="#E04747"/><path d="M250.153 144.169C248.829 141.721 245.854 137.259 243.251 136.749C243.162 136.727 243.068 136.731 242.981 136.762C242.894 136.792 242.818 136.848 242.763 136.922C242.707 136.996 242.675 137.084 242.67 137.176C242.664 137.268 242.687 137.36 242.733 137.439C243.588 138.699 244.623 139.827 245.805 140.787C247.032 142.012 248.152 143.339 249.152 144.756C249.234 144.88 249.361 144.967 249.506 145.001C249.65 145.034 249.802 145.011 249.93 144.936C250.059 144.861 250.153 144.74 250.195 144.597C250.236 144.454 250.221 144.301 250.153 144.169Z" fill="#E04747"/><path d="M117.148 113.799C114.28 107.968 107.965 102.652 101.27 102.341C101.561 99.4462 101.13 96.4978 101.651 93.6096C101.97 92.2769 102.507 91.0059 103.24 89.8478C106.954 82.6658 102.331 75.9248 96.9471 76.202C96.6559 73.1444 92.2067 71.8872 89.7805 72.9036C86.7089 74.2154 80.3585 80.0814 78.1157 74.5598C77.5767 73.3264 74.8957 75.3382 75.5957 79.9778C75.9189 81.9104 76.9847 83.6402 78.5656 84.7979C80.1465 85.9555 82.1173 86.4495 84.0573 86.1742C84.6173 91.0854 82.8379 97.0746 87.2269 100.719C88.0485 101.402 89.0371 101.855 90.0913 102.031C90.0745 102.311 89.8841 105.239 89.9177 105.517C89.813 106.567 90.1225 107.616 90.7802 108.441C91.4379 109.266 92.3918 109.802 93.4387 109.934C94.7634 110.129 96.1149 109.857 97.2609 109.165C98.407 108.472 99.2761 107.402 99.7191 106.138C99.8591 105.62 99.1591 105.339 98.7881 105.654C97.7234 106.86 96.3697 107.775 94.8541 108.314C94.4161 108.431 93.9588 108.457 93.5104 108.39C93.062 108.323 92.6321 108.165 92.2471 107.926C91.8622 107.686 91.5304 107.37 91.2723 106.998C91.0142 106.625 90.8353 106.203 90.7465 105.759C90.8804 104.544 90.9272 103.322 90.8865 102.101C93.0789 102.101 95.8313 100.038 95.0613 97.8558C95.0403 97.7859 94.9999 97.7233 94.9447 97.6755C94.8896 97.6276 94.8219 97.5965 94.7497 97.5856C94.6775 97.5747 94.6037 97.5846 94.5369 97.6141C94.4701 97.6436 94.4131 97.6915 94.3725 97.7522C93.3015 99.2712 92.2725 100.824 90.1263 100.444C89.1516 100.19 88.2575 99.6921 87.5274 98.998C86.7973 98.3038 86.2551 97.436 85.9515 96.4754C84.7461 93.2288 85.0989 89.495 84.4605 86.0608C86.6235 85.3342 88.8005 83.006 91.7139 84.0168C92.4902 84.2635 93.1722 84.7423 93.6679 85.3887C94.1636 86.035 94.4491 86.8179 94.4859 87.6316C94.429 87.7349 94.3794 87.842 94.3375 87.9522C94.2339 88.2966 94.6805 88.6396 94.9577 88.4352C95.1787 88.3047 95.4247 88.2224 95.6798 88.1937C95.9348 88.165 96.193 88.1905 96.4375 88.2687C96.6819 88.3468 96.9071 88.4757 97.0982 88.647C97.2893 88.8184 97.442 89.0281 97.5463 89.2626C97.6579 89.5097 97.6977 89.7833 97.661 90.0519C97.6244 90.3206 97.5128 90.5735 97.3391 90.7816C96.9191 91.2226 96.4417 91.0616 95.8901 91.0238C95.74 91.0276 95.5942 91.0746 95.4702 91.1592C95.3462 91.2439 95.2492 91.3625 95.191 91.5009C95.1327 91.6392 95.1157 91.7915 95.1418 91.9393C95.168 92.0871 95.2363 92.2243 95.3385 92.3342C95.5478 92.5157 95.7935 92.6502 96.0592 92.7286C96.3248 92.8071 96.6042 92.8278 96.8785 92.7892C97.6084 94.0038 98.4745 95.1311 99.4601 96.1492C99.3815 98.4706 99.6544 100.79 100.269 103.03C100.409 103.484 100.66 103.278 101.132 103.45C107.205 105.486 112.521 108.522 115.552 114.458C117.016 117.416 117.729 120.689 117.626 123.988C117.524 127.287 116.61 130.51 114.965 133.371C108.788 130.766 107.98 129.85 103.955 124.674C105.391 122.059 106.072 119.096 105.922 116.116C105.889 115.805 105.406 115.667 105.336 116.046C104.076 123.871 101.886 124.271 102.536 125.089C103.274 126.151 103.906 127.049 104.487 127.83C103.158 128.405 101.776 128.851 100.362 129.161C97.557 129.53 94.7062 129.316 91.9884 128.531C89.2705 127.746 86.7443 126.408 84.5683 124.6C81.9486 122.202 79.9481 119.207 78.7373 115.868C77.5977 113.176 75.6307 112.141 72.9049 111.451C72.4849 111.311 72.3883 111.828 72.7313 111.968C74.7067 112.778 76.5967 113.59 77.5291 115.661C78.2529 117.215 78.6337 118.836 79.4961 120.355C85.2081 130.381 98.5431 132.859 105.049 128.542C106.942 131.022 109.477 132.936 112.381 134.078C109.861 136.938 105.875 138.093 102.17 138.404C97.9593 138.783 93.0243 138.3 89.3661 135.988C81.8831 131.219 78.7261 121.104 72.3869 118.348C72.2833 118.313 72.1811 118.45 72.2469 118.52C77.0643 123.574 77.8469 125.688 81.1495 130.15C83.7031 133.602 86.7061 137.26 90.8473 138.846C97.0395 141.236 105.656 141.011 110.759 137.708C111.983 136.991 112.957 135.916 113.551 134.628C113.971 134.82 114.402 135.019 114.867 135.229C115.069 135.345 115.309 135.378 115.535 135.32C115.76 135.262 115.955 135.118 116.075 134.918C117.98 131.759 119.075 128.178 119.262 124.493C119.449 120.809 118.723 117.135 117.148 113.799Z" fill="#111111"/><path d="M184.789 163.8C185.479 164.007 186.169 164.179 186.859 164.353C186.826 164.144 186.756 163.933 186.719 163.731L184.789 163.8Z" fill="#111111"/><path d="M187.074 164.59C185.221 164.125 185.301 164.14 183.739 163.67L186.868 163.559C186.953 164.08 186.959 163.899 187.074 164.59ZM185.909 163.939L186.633 164.123C186.633 164.123 186.595 163.972 186.582 163.915L185.909 163.939Z" fill="#111111"/><path d="M226.997 243.424C225.042 240.864 222.393 238.92 219.364 237.824C219.965 236.316 220.411 234.752 220.695 233.155C221.304 230.3 221.88 228.395 222.68 224.095C226.509 203.727 225.377 183.996 216.07 160.731C217.39 158.787 216.49 156.267 216.126 154.109C215.59 150.1 214.818 146.127 213.813 142.209C213.777 142.084 213.697 141.977 213.588 141.906C213.479 141.835 213.348 141.805 213.219 141.822C213.09 141.839 212.971 141.901 212.884 141.998C212.797 142.095 212.747 142.219 212.744 142.349C212.933 145.635 213.313 148.907 213.882 152.149C214.162 154.048 215.02 156.629 214.676 158.533C214.296 160.707 211.501 161.398 209.706 162.019C205.666 163.38 201.441 164.114 197.179 164.193C189.453 164.312 186.772 162.434 184.341 162.434C184.621 159.397 184.685 156.325 185.1 153.289C185.549 149.941 186.481 146.628 186.756 143.315C186.791 142.866 186.074 142.663 185.893 143.073C184.655 146.248 183.876 149.583 183.58 152.978C183.047 156.497 182.977 160.07 183.375 163.607C184.393 164.138 185.496 164.489 186.634 164.644C186.407 167.639 189.617 185.893 190.834 192.665C194.512 213.128 196.081 223.254 192.522 240.946C192.475 241.141 192.488 241.346 192.559 241.534C192.629 241.722 192.755 241.885 192.918 242.001C192.587 245.193 194.793 248.217 197.246 250.092C198.847 251.259 200.601 252.201 202.458 252.892C204.247 253.684 206.124 254.263 208.048 254.617C211.914 255.066 208.842 250.165 207.945 248.923C206.073 246.302 203.666 244.107 200.884 242.483C200.928 242.366 200.941 242.241 200.922 242.118C200.903 241.995 200.853 241.879 200.777 241.781C200.701 241.683 200.601 241.606 200.487 241.557C200.373 241.508 200.248 241.49 200.124 241.503C201.993 236.237 206.984 227.951 209.084 208.424C211.475 186.764 208.027 186.325 207.6 176.957C207.576 176.467 208.261 176.453 208.404 176.883C209.795 181.349 210.695 185.954 211.088 190.616C211.893 198.16 211.023 206.104 210.015 213.647C210.937 223.524 209.717 231.251 210.466 236.449C210.715 237.059 211.042 237.634 211.439 238.16C211.687 241.284 214.739 243.9 217.161 245.539C220.02 247.514 223.386 248.628 226.859 248.749C230.448 248.668 228.2 244.941 226.997 243.424ZM206.4 248.92C207.071 249.754 207.669 250.644 208.188 251.58C209.528 253.998 208.506 253.275 206.186 252.616C200.707 250.995 195.929 248.429 194.169 242.861C194.302 242.957 194.668 243.167 194.838 243.264C195.66 244.946 196.866 246.412 198.357 247.545C199.848 248.677 201.584 249.445 203.425 249.785C204.733 250.04 205.916 250.149 206.4 248.92ZM204.05 246.54C205.17 247.755 205.413 249.12 202.942 248.57C200.042 247.877 197.505 246.125 195.828 243.659C197.045 244.083 198.369 244.09 199.591 243.68C201.195 244.435 202.694 245.397 204.05 246.54ZM222.164 242.53C221.744 242.617 221.31 242.617 220.889 242.53C218.554 242.366 216.358 241.359 214.709 239.697C215.852 239.81 217 239.529 217.96 238.899C218.112 239.012 219.437 239.477 220.924 240.257C223.098 241.391 222.74 242.222 222.164 242.525V242.53ZM224.235 246.81C218.859 245.862 213.89 241.931 212.573 239.064C212.984 239.289 213.423 239.458 213.879 239.564C214.738 240.779 215.862 241.783 217.166 242.501C218.47 243.218 219.919 243.63 221.406 243.705C222.368 243.737 223.9 243.739 224.418 242.725C225.414 243.694 226.249 244.816 226.892 246.047C227.79 247.702 225.167 246.943 224.235 246.805V246.81Z" fill="#111111"/><path d="M185.134 250.774C187.131 251.136 189.177 251.136 191.174 250.774C193.342 250.598 195.447 249.963 197.351 248.91C197.869 248.566 197.73 247.598 197.006 247.667C195.074 247.939 193.161 248.331 191.278 248.84C189.241 249.26 187.136 249.4 185.099 249.876C184.72 250.015 184.685 250.705 185.134 250.774Z" fill="#E04747"/><path d="M201.18 248.116C204.955 248.58 208.761 247.538 211.774 245.217C212.327 244.7 211.74 243.975 211.119 244.079C209.414 244.499 207.742 245.041 206.115 245.7C204.424 246.218 202.733 246.632 201.075 247.288C200.974 247.311 200.885 247.372 200.826 247.457C200.767 247.542 200.741 247.646 200.754 247.749C200.767 247.852 200.818 247.947 200.897 248.015C200.975 248.082 201.076 248.119 201.18 248.116Z" fill="#E04747"/><path d="M214.987 242.871C218.572 242.516 223.338 240.454 225.099 237.142C225.162 237.026 225.187 236.893 225.168 236.762C225.149 236.631 225.089 236.51 224.995 236.416C224.902 236.323 224.781 236.262 224.65 236.244C224.519 236.225 224.386 236.249 224.27 236.313C222.751 237.21 221.509 238.487 219.99 239.42C218.339 240.372 216.62 241.203 214.848 241.905C214.365 242.077 214.365 242.932 214.987 242.871Z" fill="#E04747"/></svg>