<svg viewBox="0 0 280 280" fill="none" xmlns="http://www.w3.org/2000/svg"><path d="M278.633 124.297C272.529 156.503 236.431 158.422 221.496 155.495C220.073 161.735 207.23 220.861 205.808 225.838C200.474 229.747 135.392 255.459 130.177 257C121.167 254.038 23.9252 206.84 11.4344 198.229C9.24899 187.613 5.23619 145.961 4.80293 131.548C4.70419 128.307 4.41683 128.897 8.0229 126.88C10.8259 125.461 13.7083 124.204 16.6556 123.115C17.5782 122.753 18.2855 124.043 17.3689 124.515C15.1967 125.634 13.082 126.842 11.0012 128.129C7.961 130.013 7.57785 130.867 10.8715 132.223C40.3198 144.342 131.737 180.978 133.923 180.617C136.294 180.222 214.077 155.822 219.157 153.585C221.725 150.719 245.553 87.7804 250.027 57C263.183 63.6313 285.786 86.5682 278.633 124.297ZM106.032 144.902C106 144.744 105.924 144.599 105.811 144.484C105.699 144.369 105.555 144.289 105.398 144.254C105.241 144.219 105.077 144.23 104.927 144.286C104.776 144.342 104.644 144.44 104.548 144.569C103.683 146.925 102.994 149.341 102.485 151.798C102.049 154.035 102.082 156.338 102.582 158.562C102.723 159.99 102.995 161.401 103.396 162.779C103.47 162.958 103.601 163.107 103.769 163.205C103.936 163.302 104.131 163.341 104.323 163.317C104.515 163.293 104.694 163.206 104.832 163.07C104.97 162.935 105.06 162.757 105.088 162.566C104.944 161.167 104.722 159.778 104.423 158.404C104.024 156.395 104.024 154.327 104.423 152.318C105.15 149.891 105.688 147.412 106.032 144.902ZM104.594 141.13C102.75 139.453 99.1413 137.288 96.8998 135.585C96.7373 135.458 96.5329 135.397 96.3273 135.414C96.1217 135.431 95.93 135.524 95.7903 135.676C95.6506 135.828 95.5731 136.026 95.5734 136.233C95.5736 136.439 95.6516 136.637 95.7916 136.789C98.1143 139.058 100.743 140.992 103.602 142.533C103.789 142.64 104.008 142.673 104.218 142.627C104.427 142.58 104.612 142.457 104.736 142.282C104.86 142.107 104.914 141.891 104.888 141.678C104.862 141.465 104.757 141.27 104.594 141.13ZM92.9916 133.64C90.5144 136.721 87.9812 139.77 85.6439 142.96C85.5127 143.137 85.4552 143.358 85.4836 143.576C85.512 143.794 85.624 143.992 85.796 144.13C85.968 144.267 86.1866 144.332 86.4057 144.311C86.6247 144.29 86.8272 144.185 86.9702 144.018C89.7805 140.925 92.3904 137.636 95.0636 134.422C95.4586 133.946 107.355 131.034 108.338 130.775C111.786 132.715 115.116 134.856 118.312 137.186C115.092 138.941 110.998 140.103 107.616 141.605C107.432 141.707 107.291 141.872 107.218 142.069C107.146 142.266 107.146 142.483 107.221 142.68C107.295 142.877 107.438 143.04 107.623 143.14C107.808 143.241 108.022 143.271 108.228 143.226C108.742 143.067 119.708 139.349 119.87 139.182C121.424 141.709 122.778 144.352 123.921 147.089C118.24 149.582 112.433 151.776 106.523 153.663C105.466 154.017 106.107 155.507 107.137 155.243C112.676 153.836 118.112 152.05 123.407 149.898C121.519 154.084 118.986 157.752 117.07 161.829C116.999 162.011 116.994 162.212 117.058 162.397C117.121 162.582 117.248 162.738 117.416 162.838C117.585 162.938 117.783 162.974 117.975 162.941C118.168 162.909 118.343 162.808 118.468 162.658C120.774 159.413 122.832 155.999 124.624 152.445C125.968 150.066 127.212 148.347 126.117 145.743C125.215 143.569 124.113 141.484 122.825 139.515C121.903 137.96 120.67 136.611 119.202 135.554C116.276 133.345 113.186 131.362 109.958 129.623C109.464 129.342 108.917 129.168 108.351 129.111C107.786 129.054 107.215 129.116 106.675 129.293C102.682 130.121 98.7388 131.171 94.8632 132.438C93.7594 132.828 93.7285 132.72 92.9916 133.64ZM98.739 151.835C95.0548 149.654 90.8607 147.533 87.0557 145.404C86.1612 144.903 85.3109 145.817 85.834 146.97C86.6254 148.72 90.4717 157.454 92.1384 158.827C92.8413 159.408 94.0276 158.64 93.5634 157.899C91.6857 154.801 89.9791 151.601 88.4513 148.316C91.4449 150.258 94.5906 151.956 97.8577 153.392C98.7611 153.74 99.6423 152.377 98.7286 151.835H98.739ZM157.768 145.089C157.634 146.826 159.624 147.454 159.746 145.342C160.074 139.71 157.363 133.011 157.739 127.857C158.099 122.524 159.543 117.321 161.983 112.566C162.627 115.615 164.967 117.936 167.254 119.887C174.127 125.729 183.009 128.663 192.012 128.066C193.029 128.003 192.973 126.226 191.938 126.263C182.614 126.597 172.565 123.037 166.296 115.938C162.067 111.15 163.468 106.879 170.128 106.571C174.921 106.441 179.676 107.447 184.006 109.505C188.336 111.563 192.118 114.616 195.042 118.414C195.768 119.33 197.077 118.219 196.433 117.282C193.415 113.084 189.392 109.709 184.732 107.466C180.073 105.222 174.925 104.182 169.759 104.44C163.632 104.749 161.472 107.942 159.198 113.38C157.582 117.349 156.45 121.498 155.827 125.737C155.045 131.704 158.238 138.874 157.758 145.089H157.768ZM194.521 127.886C191.655 134.475 187.228 138.412 180.289 141.828C176.675 143.607 172.887 144.553 169.384 146.714C166.445 148.539 164.291 151.391 163.342 154.716C163.28 154.923 163.3 155.146 163.398 155.339C163.496 155.531 163.664 155.679 163.868 155.751C164.071 155.824 164.295 155.816 164.493 155.728C164.69 155.641 164.847 155.481 164.93 155.282C166.588 151.649 169.457 148.705 173.046 146.952C176.73 145.037 178.899 144.812 182.625 143.071C188.866 140.156 193.714 134.909 196.126 128.459C196.202 128.245 196.19 128.01 196.092 127.805C195.995 127.599 195.82 127.441 195.605 127.366C195.391 127.29 195.156 127.302 194.95 127.399C194.745 127.497 194.587 127.672 194.511 127.886H194.521ZM35.0411 103.332C37.5285 106.308 39.7844 109.47 41.7891 112.79C43.8264 116.039 45.5618 119.467 46.9734 123.033C47.4303 124.317 48.6372 123.456 48.4471 122.482C47.7943 119.152 44.7334 113.525 43.6017 111.682C41.5244 108.246 39.0552 105.062 36.2436 102.195C35.5805 101.529 34.4472 102.601 35.0411 103.332ZM44.7791 104.328C52.4289 107.234 54.2106 102.855 53.6064 96.0791C53.4388 92.8412 52.7035 89.6579 51.4342 86.6743C50.9921 85.761 49.6864 86.4459 49.8824 87.34C50.6085 90.0278 51.1831 92.7541 51.6037 95.5061C52.1651 100.875 52.2668 105.228 44.9943 102.369C42.6209 101.421 40.4416 100.046 38.5647 98.3121C38.4039 98.1691 38.1943 98.0932 37.9792 98.1001C37.7641 98.107 37.5598 98.1962 37.4086 98.3493C37.2573 98.5024 37.1706 98.7076 37.1664 98.9227C37.1621 99.1378 37.2407 99.3463 37.3857 99.5052C39.4686 101.633 41.9921 103.279 44.7791 104.328ZM54.0102 85.4325C54.6464 88.8305 55.9167 92.0784 57.7548 95.0068C62.0431 101.94 66.7441 104.557 72.6978 97.2899C74.7732 94.7764 76.0726 91.7141 76.4379 88.4757C76.5558 87.368 74.9849 87.2855 74.7609 88.3137C74.2025 90.961 73.0741 93.455 71.454 95.6225C66.0088 102.787 62.2789 98.9131 58.9278 93.1685C57.4933 90.6623 56.4183 87.9669 55.7344 85.1615C55.4647 84.0804 53.8083 84.3102 54.0102 85.4325ZM79.1465 88.7703C76.7194 96.5932 75.5699 107.561 77.1026 115.622C77.1373 115.832 77.2516 116.02 77.4216 116.148C77.5917 116.276 77.8044 116.333 78.0155 116.308C78.2267 116.283 78.4201 116.177 78.5555 116.013C78.6909 115.85 78.758 115.64 78.7428 115.428C78.3537 105.505 78.4849 99.0074 80.7425 89.224C80.9503 88.3196 79.4339 87.8688 79.1465 88.7703ZM81.8625 78.5774C81.3178 77.8582 80.5309 77.3605 79.6475 77.1764C78.764 76.9923 77.8438 77.1341 77.0569 77.5758C76.9114 77.6897 76.8067 77.8476 76.7584 78.0259C76.7101 78.2042 76.7208 78.3934 76.789 78.5651C76.8571 78.7368 76.979 78.8819 77.1365 78.9786C77.294 79.0753 77.4785 79.1185 77.6626 79.1018C78.189 78.906 78.767 78.8987 79.2982 79.0811C79.8294 79.2634 80.281 79.6242 80.576 80.1019C82.1248 82.4925 80.296 86.3325 77.0495 83.8904C76.6061 83.6076 76.2822 83.1716 76.1398 82.6655C75.9974 82.1594 76.0463 81.6186 76.2773 81.1462C76.3504 80.966 76.3568 80.7657 76.2954 80.5812C76.234 80.3968 76.1089 80.2402 75.9424 80.1396C75.7759 80.039 75.5791 80.001 75.3871 80.0325C75.1951 80.0639 75.0207 80.1627 74.895 80.3111C74.4253 80.9857 74.2054 81.8028 74.2732 82.6219C74.3409 83.441 74.6921 84.2109 75.2664 84.7992C79.9158 89.8824 85.781 83.2054 81.8625 78.5789V78.5774ZM53.8525 82.7017C54.3291 82.0838 54.6371 81.3528 54.7461 80.5803C54.8551 79.8077 54.7615 79.0201 54.4744 78.2946C54.2087 77.5597 53.7496 76.91 53.1456 76.4139C52.5416 75.9177 51.815 75.5935 51.0422 75.4753C50.1748 75.3359 49.2856 75.4829 48.5093 75.8941C47.7331 76.3053 47.1121 76.9583 46.7406 77.754C46.6726 77.9446 46.673 78.1529 46.7417 78.3433C46.8103 78.5336 46.943 78.6943 47.1169 78.7977C47.2909 78.9012 47.4955 78.9411 47.6956 78.9106C47.8957 78.8801 48.079 78.781 48.2142 78.6304C48.584 78.1398 49.0999 77.779 49.6877 77.5998C50.2755 77.4206 50.905 77.4323 51.4858 77.6332C53.6197 78.4596 53.2173 81.021 51.7805 82.1449C50.0224 83.5206 47.9637 82.6575 47.8989 81.3421C47.8385 80.1284 46.4842 79.7543 46.3014 80.7721C45.7532 83.7887 50.7327 86.4931 53.8525 82.6987V82.7017ZM28.445 96.0526C29.3292 95.0716 30.3504 94.1716 31.7622 94.6002C32.1824 94.72 32.564 94.9475 32.869 95.2601C33.1741 95.5728 33.392 95.9597 33.5012 96.3826C33.6104 96.8054 33.607 97.2495 33.4915 97.6707C33.3759 98.0918 33.1521 98.4754 32.8424 98.7835C32.473 99.1174 31.9906 99.2989 31.4925 99.2912C30.9945 99.2836 30.5178 99.0874 30.1589 98.7422C28.6012 97.1323 27.6669 98.8085 28.9622 100.059C29.417 100.498 29.9747 100.817 30.5843 100.985C31.194 101.153 31.836 101.165 32.4518 101.021C33.0676 100.877 33.6374 100.581 34.109 100.16C34.5807 99.7391 34.9392 99.2065 35.1516 98.6111C35.3661 98.0332 35.4609 97.4177 35.4304 96.802C35.4 96.1864 35.2448 95.5833 34.9744 95.0293C34.7039 94.4753 34.3238 93.9819 33.857 93.5791C33.3903 93.1762 32.8466 92.8722 32.2588 92.6854C30.1795 92.0005 27.2484 93.1656 26.849 95.4752C26.837 95.6659 26.8872 95.8554 26.992 96.0152C27.0969 96.1751 27.2507 96.2966 27.4305 96.3616C27.6103 96.4267 27.8064 96.4317 27.9893 96.376C28.1722 96.3203 28.3321 96.2068 28.445 96.0526ZM78.2078 137.455C80.4897 137.516 82.7146 138.18 84.6566 139.38C85.6086 139.911 86.2216 138.44 85.5084 137.802C83.1832 136.064 80.3272 135.185 77.4268 135.316C72.7862 135.35 64.4703 138.721 65.9454 144.448C66.6189 147.06 69.2803 148.243 71.6073 149.032C71.827 149.102 72.0651 149.084 72.2725 148.984C72.4798 148.883 72.6407 148.707 72.7219 148.491C72.8032 148.276 72.7986 148.037 72.7091 147.825C72.6196 147.612 72.452 147.442 72.2409 147.35C70.5772 146.745 68.1913 145.842 67.842 143.846C67.0801 139.487 74.7756 137.282 78.2078 137.455ZM95.7238 128.555C96.1706 128.354 96.5673 128.056 96.8853 127.684C97.2034 127.311 97.4349 126.873 97.5632 126.4C97.6916 125.928 97.7136 125.432 97.6277 124.95C97.5418 124.468 97.3501 124.011 97.0663 123.612C94.7409 119.984 86.5812 118.953 82.8985 120.683C81.8118 121.175 80.8711 121.939 80.1685 122.902C79.4659 123.866 79.0254 124.995 78.8901 126.179C78.7767 127.421 79.1173 128.661 79.8489 129.671C80.5804 130.681 81.6534 131.392 82.869 131.672C83.0983 131.726 83.3396 131.687 83.54 131.563C83.7403 131.439 83.8833 131.241 83.9374 131.012C83.9916 130.783 83.9524 130.541 83.8286 130.341C83.7048 130.141 83.5065 129.998 83.2772 129.944C82.8264 129.805 82.4089 129.576 82.0504 129.269C81.6919 128.963 81.4 128.586 81.1929 128.163C80.9857 127.739 80.8676 127.278 80.8459 126.807C80.8242 126.336 80.8994 125.866 81.0667 125.425C81.4948 124.401 82.2089 123.522 83.1236 122.893C84.0382 122.264 85.1148 121.912 86.2246 121.878C90.2536 121.567 94.4417 122.697 95.4365 124.987C95.6042 125.323 95.6563 125.705 95.5846 126.073C95.5129 126.442 95.3215 126.776 95.04 127.025C94.2855 127.53 94.7954 128.907 95.7238 128.555ZM88.718 116.836C89.6553 116.818 89.6995 115.334 88.7858 115.197C86.0521 114.786 86.1833 111.594 87.797 110.012C90.9889 106.883 98.5091 108.085 102.002 110.218C103.548 111.162 105.469 113.753 103.36 114.987C102.542 115.465 102.738 116.815 103.741 116.661C104.275 116.534 104.773 116.286 105.196 115.937C105.619 115.587 105.957 115.145 106.182 114.644C106.407 114.144 106.515 113.598 106.495 113.049C106.476 112.501 106.331 111.964 106.072 111.48C103.823 106.72 95.0297 105.399 90.4334 106.491C82.5566 108.361 83.5484 116.938 88.718 116.836ZM112.646 120.648C112.139 119.83 111.942 118.857 112.091 117.906C112.241 116.955 112.726 116.089 113.459 115.465C114.279 114.815 115.234 114.356 116.254 114.121C117.273 113.886 118.332 113.881 119.354 114.107C123.304 114.769 128.613 117.347 128.87 121.894C128.864 122.114 128.945 122.327 129.095 122.488C129.246 122.648 129.453 122.743 129.673 122.752C129.893 122.76 130.107 122.682 130.27 122.534C130.433 122.386 130.53 122.18 130.542 121.96C130.946 119.09 129.039 116.571 126.783 115.038C124.318 113.338 121.455 112.304 118.473 112.037C117.165 111.909 115.846 112.094 114.624 112.577C113.402 113.059 112.312 113.826 111.445 114.812C110.638 115.797 110.194 117.029 110.187 118.302C110.18 119.576 110.611 120.812 111.408 121.806C112.127 122.648 113.278 121.508 112.652 120.648H112.646ZM126.591 134.298C126.733 135.915 127.432 137.432 128.57 138.59C129.707 139.748 131.212 140.475 132.826 140.646C133.064 140.663 133.3 140.588 133.484 140.435C133.668 140.283 133.786 140.066 133.814 139.829C133.841 139.592 133.777 139.354 133.633 139.163C133.49 138.972 133.278 138.844 133.043 138.805C132.326 138.7 131.64 138.444 131.03 138.054C130.42 137.663 129.9 137.148 129.504 136.542C129.108 135.936 128.845 135.253 128.733 134.538C128.621 133.822 128.662 133.092 128.853 132.393C130.373 127.132 141.446 126.376 145.497 129.045C146.789 129.826 147.744 131.061 148.175 132.508C148.606 133.954 148.482 135.51 147.827 136.87C147.385 137.703 148.711 138.388 149.256 137.656C150.112 136.445 150.551 134.988 150.507 133.506C150.463 132.024 149.939 130.596 149.013 129.437C143.808 122.411 126.002 124.68 126.591 134.298ZM135.581 174.237C134.632 174.679 135.08 176.164 136.121 175.815C139.471 174.69 143.225 172.885 144.303 169.216C146.754 160.872 135.062 158.223 128.579 159.936C125.29 160.801 121.395 162.754 119.817 165.943C117.839 169.942 121.349 172.856 124.68 174.298C125.742 174.759 126.538 173.162 125.476 172.677C121.932 171.047 119.339 168.502 122.997 165.084C127.691 160.696 140.45 159.193 142.352 166.419C143.471 170.667 138.622 172.807 135.581 174.237ZM149.669 163.473C148.685 163.712 149.013 165.329 150.017 165.215C153.018 164.958 155.794 163.522 157.736 161.221C164.491 152.628 153.978 145.35 144.268 146.602C141.026 147.018 137.796 148.58 136.998 152.007C136.739 153.124 138.45 153.461 138.737 152.362C139.602 149.067 143.724 148.516 146.57 148.435C152.17 148.275 159.98 151.919 157.074 158.4C155.729 161.387 152.665 162.739 149.662 163.473H149.669ZM186.343 157.314C183.521 157.989 180.586 158.031 177.747 157.438C175.409 156.955 172.383 156.057 171.205 153.756C170.714 152.797 169.179 153.342 169.609 154.382C170.149 155.471 170.919 156.431 171.866 157.194C172.813 157.957 173.914 158.505 175.094 158.801C177.875 159.725 180.815 160.076 183.736 159.832C188.815 159.41 195.41 156.425 191.582 150.405C190.688 149.26 189.509 148.371 188.162 147.828C186.815 147.285 185.349 147.107 183.911 147.312C183.698 147.337 183.502 147.438 183.357 147.596C183.213 147.754 183.13 147.959 183.123 148.173C183.117 148.387 183.187 148.596 183.322 148.762C183.457 148.929 183.647 149.041 183.858 149.079C186.17 149.484 188.904 149.911 189.9 152.383C191.079 155.348 188.877 156.696 186.335 157.314H186.343ZM61.4964 120.144C63.9478 119.17 66.5939 118.785 69.2214 119.02C72.3854 119.395 72.9542 120.588 74.7521 122.753C74.873 122.87 75.0253 122.95 75.1904 122.982C75.3556 123.015 75.5267 122.999 75.6832 122.937C75.8397 122.875 75.9748 122.769 76.0724 122.632C76.1699 122.494 76.2257 122.332 76.2331 122.164C76.0784 119.847 73.6453 118.187 71.6647 117.45C67.873 116.055 59.8651 117.268 57.3171 120.67C56.6288 121.607 56.2022 122.711 56.081 123.867C55.9599 125.023 56.1484 126.191 56.6274 127.25C57.1905 128.399 58.0878 129.351 59.2017 129.982C60.3156 130.613 61.5942 130.893 62.8699 130.785C63.9766 130.691 64.0488 128.989 62.8993 129.026C61.8174 129.073 60.7534 128.738 59.893 128.081C59.0325 127.423 58.4302 126.485 58.191 125.429C58.0107 124.298 58.2461 123.14 58.8537 122.168C59.4612 121.197 60.3999 120.478 61.4964 120.144ZM50.55 142.937C50.3438 142.919 50.1384 142.979 49.9745 143.105C49.8105 143.232 49.7001 143.415 49.6651 143.619C49.63 143.823 49.6729 144.033 49.7852 144.206C49.8976 144.38 50.0711 144.505 50.2715 144.557C57.911 146.325 63.561 141.48 58.9263 135.236C55.4735 130.583 46.3191 128.003 41.5371 132.097C39.0318 134.236 37.9516 138.182 40.1665 140.935C40.3123 141.092 40.5102 141.191 40.7233 141.213C40.9364 141.235 41.1503 141.179 41.3252 141.055C41.5001 140.932 41.6241 140.749 41.6742 140.54C41.7243 140.332 41.697 140.113 41.5975 139.923C41.2798 139.292 41.0956 138.601 41.0561 137.895C41.0167 137.19 41.123 136.483 41.3683 135.82C41.6136 135.157 41.9928 134.551 42.4822 134.041C42.9716 133.531 43.5608 133.126 44.2132 132.853C48.1406 130.993 54.722 133.109 57.3554 136.535C61.5554 142.021 55.1434 143.612 50.55 142.937ZM33.6235 132.461C34.6668 132.239 34.5165 130.462 33.4525 130.775C30.5302 131.629 24.6606 131.974 24.3673 127.814C24.0726 123.681 31.0342 121.088 34.2999 121.038C36.5841 121.005 40.4893 121.922 39.8114 125.015C39.7827 125.214 39.8259 125.417 39.9333 125.586C40.0408 125.756 40.2053 125.882 40.3973 125.941C40.5893 126 40.7961 125.989 40.9805 125.909C41.1649 125.829 41.3147 125.686 41.403 125.506C42.4345 122.843 40.3714 120.473 37.9266 119.682C29.8214 117.063 17.8523 125.197 24.0667 131.532C26.1903 133.696 30.5184 133.124 33.6235 132.461ZM11.4226 104.948C11.6597 104.901 11.8686 104.763 12.0033 104.562C12.138 104.362 12.1876 104.116 12.1411 103.879C12.0946 103.642 11.9558 103.433 11.7553 103.299C11.5548 103.164 11.309 103.115 11.0719 103.161C7.76648 103.444 3.85094 103.569 0.651608 104.152C0.457562 104.196 0.285447 104.307 0.166296 104.466C0.0471447 104.626 -0.0112006 104.822 0.00177969 105.02C0.01476 105.219 0.0982115 105.406 0.237088 105.548C0.375964 105.69 0.561126 105.778 0.759185 105.796C4.09115 105.815 8.04205 105.25 11.4226 104.948ZM9.52162 80.912C12.7799 82.6045 16.1281 84.1525 19.4777 85.6564C20.4842 86.1072 21.115 84.5782 20.1438 84.0907C16.8649 82.4424 13.5477 80.8251 10.1789 79.3684C9.17678 78.9339 8.57405 80.4201 9.52162 80.912ZM41.456 68.4213C41.5828 68.5682 41.7588 68.664 41.951 68.6909C42.1433 68.7177 42.3388 68.6738 42.501 68.5673C42.6633 68.4608 42.7813 68.299 42.833 68.112C42.8848 67.925 42.8668 67.7255 42.7823 67.5508C41.6664 65.2584 40.4069 63.0386 39.0112 60.9048C38.9164 60.7083 38.7474 60.5575 38.5414 60.4855C38.3354 60.4136 38.1092 60.4264 37.9126 60.5211C37.716 60.6158 37.5651 60.7848 37.4931 60.9907C37.4211 61.1966 37.4339 61.4227 37.5287 61.6192C38.6929 63.9671 40.0046 66.2391 41.456 68.4213ZM69.4645 68.3226C69.3673 65.1322 69.3437 61.93 69.1168 58.7484C69.0895 58.5344 68.9797 58.3395 68.8109 58.2052C68.642 58.0709 68.4274 58.0078 68.2126 58.0293C67.9979 58.0508 67.8 58.1552 67.6612 58.3203C67.5223 58.4855 67.4534 58.6982 67.4692 58.9134C67.4456 62.1068 67.6254 65.306 67.7315 68.4979C67.7683 69.6218 69.4984 69.4391 69.4645 68.3226ZM86.005 69.5437C87.1043 66.4623 88.4085 63.1805 89.3075 60.0608C89.3599 59.8558 89.3301 59.6384 89.2244 59.455C89.1188 59.2716 88.9456 59.1367 88.7419 59.079C88.5381 59.0214 88.3199 59.0456 88.1338 59.1464C87.9476 59.2473 87.8083 59.4168 87.7454 59.6189C86.5016 62.6208 85.4715 65.9968 84.4105 69.0945C84.0627 70.1064 85.6484 70.5409 86.005 69.5437ZM52.899 239.671C51.7628 239.406 51.2132 240.709 52.3567 241.182C54.4464 242.045 58.6508 243.671 57.1461 246.756C55.562 250.003 48.4515 250.481 45.18 250.129C41.7404 249.759 36.2009 247.586 39.6508 243.266C41.8259 240.54 45.9374 240.672 49.0734 240.718C50.1551 240.734 50.3349 239.105 49.2208 239.024C45.5145 238.754 41.3072 238.698 38.519 241.594C33.7016 246.602 38.6516 251.534 44.2737 252.264C48.6121 252.829 56.5611 251.97 58.8305 247.803C61.0838 243.673 56.4712 240.504 52.899 239.672V239.671ZM39.9588 225.825C36.3276 223.661 31.5588 224.205 27.8039 225.801C26.5793 226.324 27.3412 227.993 28.5599 227.667C31.5073 226.881 34.4546 225.915 37.483 226.906C43.2391 228.785 43.4646 235.04 35.4611 236.373C32.6761 236.875 29.8177 236.804 27.0612 236.164C23.3682 235.013 23.6069 231.908 25.6878 229.406C26.3833 228.569 25.1764 227.763 24.4602 228.557C22.3057 230.943 21.2653 234.782 24.0682 237.125C26.5469 239.201 31.4203 239.126 34.4679 238.81C43.8537 237.844 47.2888 230.198 39.9588 225.828V225.825ZM10.7963 240.662C10.607 240.736 10.4492 240.874 10.3495 241.051C10.2498 241.228 10.2142 241.434 10.2488 241.635C10.2834 241.835 10.3861 242.017 10.5395 242.151C10.693 242.284 10.8878 242.361 11.0911 242.368C13.8262 242.427 17.5664 241.394 19.379 244.197C21.0118 246.723 19.1299 249.749 17.0624 251.307C13.4607 254.023 3.68589 255.371 2.41854 250.251C1.58149 246.863 5.2524 244.571 7.6869 243.156C8.68899 242.566 7.73995 241.08 6.73638 241.636C3.69915 243.319 0.434978 245.613 0.39961 249.469C0.342137 256.947 12.7622 256.779 17.8773 253.163C20.6581 251.197 22.8878 247.756 21.6411 244.254C20.1291 239.981 14.5395 239.436 10.7963 240.662Z" fill="#E04747"/><path d="M59.9132 165.533C60.3254 161.018 65.6629 160.488 67.026 165.238C67.3435 166.32 67.3013 167.477 66.9056 168.533C66.51 169.589 65.7824 170.488 64.8327 171.093C64.9386 172.486 64.8339 173.887 64.5221 175.249C64.3738 175.48 64.1638 175.666 63.9159 175.784C63.6679 175.902 63.3919 175.949 63.119 175.918C62.8462 175.887 62.5873 175.781 62.3717 175.61C62.1561 175.44 61.9923 175.212 61.899 174.953C61.7079 173.627 61.7237 172.278 61.9461 170.956C60.3548 170.065 59.6718 168.216 59.9132 165.533ZM133.412 187.031C131.839 208.666 130.91 230.392 129.954 252.061C129.906 253.146 131.602 253.397 131.678 252.247C133.133 230.641 134.4 208.864 135.124 187.217C135.164 186.115 133.496 185.909 133.415 187.027L133.412 187.031ZM14.905 144.09C26.2218 150.074 36.0019 153.464 48.3373 158.568C49.3766 158.999 50.1037 157.387 49.0527 156.945C36.2462 151.632 26.3205 148.196 14.4281 141.985C14.2952 141.909 14.1452 141.869 13.9924 141.868C13.8396 141.867 13.6891 141.905 13.5553 141.979C13.4215 142.054 13.3089 142.161 13.2282 142.291C13.1475 142.421 13.1015 142.57 13.0944 142.723C12.8425 151.063 13.0947 159.41 13.8496 167.72C14.3411 175.179 15.2469 182.605 16.5625 189.964C16.7347 190.997 18.2641 190.607 18.1228 189.595C16.8672 180.61 16.2622 176.284 15.6013 167.233C14.983 158.711 15.0949 152.4 14.908 144.092L14.905 144.09ZM123.899 187.225C107.455 181.578 91.2479 175.319 75.1206 168.825C74.9302 168.74 74.7213 168.705 74.5138 168.725C74.3064 168.744 74.1073 168.816 73.9357 168.935C73.7641 169.053 73.6258 169.214 73.534 169.401C73.4422 169.589 73.4001 169.797 73.4116 170.006C73.2806 174.683 72.6829 182.383 72.3812 185.106C65.9003 182.786 59.5727 180.057 53.4364 176.935C53.2156 170.999 53.192 166.486 53.2892 160.539C53.3098 159.251 51.745 158.952 51.6317 160.368C51.0973 167.04 51.3623 171.409 51.3535 175.771C51.3535 177.041 51.324 178.094 52.4442 178.722C58.9051 182.227 65.685 185.106 72.6917 187.319C73.2276 187.486 74.0018 187.411 74.1093 186.729C74.7246 182.832 74.6657 176.079 75.1161 170.597C90.7754 177.238 106.747 183.18 122.823 188.727C122.427 198.109 121.671 207.503 121.134 216.64C120.604 225.653 120.049 232.221 119.558 241.029C99.4514 232.359 78.9301 222.879 59.005 213.025C45.8688 206.522 33.0696 199.67 20.1042 192.86C19.193 192.382 18.3142 193.712 19.2327 194.23C32.1084 201.496 43.044 207.023 56.2715 213.618C77.2741 224.095 98.4755 233.848 120.024 243.119C120.141 243.183 120.272 243.217 120.406 243.218C120.539 243.218 120.67 243.185 120.787 243.121C120.905 243.057 121.004 242.965 121.076 242.853C121.149 242.74 121.192 242.612 121.202 242.479C121.808 232.975 122.341 226.133 122.901 216.627C123.414 207.872 124.068 198.857 124.459 190.095C124.496 189.202 124.851 187.555 123.899 187.225ZM208.142 165.36C188.278 173.476 165.735 180.98 145.24 187.278C144.544 187.492 144.636 188.472 144.579 189.059C142.796 207.115 141.211 222.965 139.574 241.108C139.517 241.732 139.973 242.265 140.622 242.043C150.502 238.679 160.2 234.637 169.95 230.914C179.701 227.191 188.295 224.048 197.97 220.103C198.171 220.021 198.332 219.865 198.42 219.666C198.508 219.467 198.516 219.242 198.442 219.038C198.369 218.834 198.219 218.666 198.024 218.57C197.83 218.474 197.606 218.457 197.399 218.523C187.556 222.025 179.128 225.572 169.365 229.295C160.072 232.837 150.626 236.13 141.439 239.954C143.136 222.062 144.756 206.652 146.307 188.668C167.056 182.763 187.46 175.702 207.423 167.516C204.758 184.741 203.027 198.242 198.725 215.346C198.471 216.357 199.937 216.547 200.209 215.529C204.936 197.904 206.568 184.201 209.364 166.17C209.47 165.453 208.679 165.143 208.145 165.363L208.142 165.36ZM254.911 73.0652C254.083 72.23 252.965 73.6908 253.787 74.5157C266.224 86.9745 272.906 104.983 267.215 122.145C262.166 137.37 247.692 148.166 231.438 145.616C239.853 124.093 247.038 102.107 252.959 79.7645C253.022 79.5493 252.997 79.3178 252.89 79.1209C252.782 78.924 252.601 78.7778 252.387 78.7146C252.172 78.6514 251.941 78.6763 251.745 78.7838C251.548 78.8913 251.402 79.0727 251.339 79.2879C245.252 101.727 238.03 123.841 229.701 145.544C229.483 146.1 229.321 146.906 230.11 147.064C243.17 149.674 256.845 143.258 264.171 132.316C277.133 112.96 270.302 88.6021 254.911 73.0652ZM246.882 55.7338C243.605 76.8635 218.807 149.608 215.879 150.644C212.951 151.68 193.637 144.524 188.959 142.233C197.484 134.397 209.05 116.22 189.019 105.342C169.409 94.6906 154.206 100.177 152.425 123.445C147.042 116.567 138.803 118.36 135.012 119.706C134.55 109.556 117.616 105.07 110.347 109.671C103.293 99.997 89.1974 100.412 83.1578 104.923C85.8427 93.8436 106.9 25.0908 108.677 24.0268C110.453 22.9629 243.031 53.8834 246.882 55.7338ZM99.7753 93.0305C98.9139 90.5744 97.9279 88.164 96.821 85.8088C96.7166 85.6373 96.555 85.5087 96.3648 85.4456C96.1746 85.3826 95.9683 85.3894 95.7826 85.4647C95.597 85.5401 95.444 85.6791 95.3511 85.857C95.2582 86.0348 95.2313 86.24 95.2753 86.4359C96.1403 88.8907 97.1298 91.2996 98.24 93.6532C98.6139 94.5091 100.112 93.9144 99.7753 93.0305ZM111.11 84.2328C111.281 83.3253 109.8 82.9947 109.526 83.8712C108.652 86.675 107.963 89.9819 107.318 92.8726C107.118 93.7683 108.656 94.124 108.902 93.2342C109.705 90.3109 110.55 87.2062 111.114 84.2328H111.11ZM120.413 92.396C119.154 94.1759 117.539 95.6735 115.672 96.7934C114.779 97.3497 115.492 98.7796 116.408 98.2557C118.599 97.1111 120.449 95.4043 121.769 93.3094C121.889 93.1292 121.934 92.9082 121.892 92.6951C121.851 92.4821 121.726 92.2943 121.546 92.1732C121.457 92.1132 121.357 92.0714 121.252 92.0501C121.147 92.0289 121.039 92.0286 120.934 92.0493C120.721 92.091 120.534 92.2158 120.413 92.396ZM142.134 59.355C140.118 52.7004 136.669 46.5705 132.032 41.3979C127.394 36.2253 121.681 32.1361 115.295 29.4188C115.087 29.3302 114.852 29.328 114.642 29.4128C114.433 29.4977 114.265 29.6625 114.177 29.8711C114.088 30.0797 114.086 30.315 114.171 30.5251C114.255 30.7353 114.42 30.9032 114.628 30.9918C121.338 34.1317 127.217 38.8096 131.791 44.6477C136.364 50.4858 139.504 57.3204 140.956 64.5994C143.654 78.286 140.331 95.2455 128.003 103.35C127.178 103.891 127.986 105.358 128.873 104.881C144.201 96.6444 146.794 74.6633 142.131 59.355H142.134ZM152.261 103.022C150.459 100.933 148.524 98.9611 146.47 97.1195C145.761 96.5115 144.738 97.5711 145.324 98.2867C147.123 100.38 149.053 102.356 151.103 104.203C151.767 104.815 152.888 103.744 152.258 103.022H152.261ZM164.91 94.7024C164.098 91.6554 163.134 88.6511 162.021 85.701C161.952 85.5185 161.82 85.3668 161.649 85.2737C161.477 85.1806 161.279 85.1522 161.088 85.1936C160.898 85.2351 160.729 85.3437 160.612 85.4997C160.495 85.6556 160.437 85.8486 160.45 86.0434C161.231 89.1724 162.179 92.2574 163.288 95.2853C163.624 96.3374 165.242 95.7531 164.91 94.7024ZM185.121 84.5648C185.268 83.6307 183.771 83.3843 183.511 84.2697C182.527 87.7782 181.732 91.3372 181.129 94.9311C180.973 95.8519 182.48 96.1028 182.728 95.2263C183.715 91.7155 184.514 88.1541 185.121 84.5574V84.5648ZM204.8 95.0418C205.351 94.363 204.276 93.271 203.543 93.9602C201.496 95.8785 199.235 98.4594 197.368 100.592C197.286 100.665 197.22 100.753 197.172 100.852C197.124 100.951 197.097 101.058 197.09 101.167C197.084 101.277 197.099 101.387 197.135 101.49C197.171 101.594 197.227 101.689 197.3 101.771C197.372 101.853 197.461 101.92 197.559 101.968C197.658 102.016 197.765 102.044 197.874 102.05C197.983 102.056 198.093 102.041 198.196 102.005C198.299 101.969 198.395 101.913 198.477 101.84C200.53 99.7653 202.981 97.2803 204.8 95.0374V95.0418ZM212.708 134.94C210.171 134.438 207.677 133.736 205.249 132.842C204.184 132.451 203.499 133.774 204.562 134.213C207.088 135.224 209.699 136.008 212.364 136.556C212.472 136.587 212.586 136.595 212.698 136.579C212.81 136.564 212.917 136.526 213.014 136.468C213.111 136.409 213.194 136.332 213.26 136.239C213.325 136.147 213.371 136.043 213.395 135.932C213.418 135.821 213.419 135.707 213.397 135.596C213.375 135.485 213.33 135.38 213.266 135.287C213.201 135.194 213.119 135.115 213.023 135.056C212.927 134.996 212.82 134.957 212.708 134.94ZM215.054 113.558C212.353 113.685 209.663 113.99 207.002 114.472C206.768 114.485 206.547 114.589 206.387 114.762C206.228 114.935 206.141 115.163 206.146 115.399C206.152 115.635 206.248 115.859 206.415 116.025C206.582 116.191 206.807 116.285 207.042 116.288C209.821 116.127 212.587 115.782 215.321 115.255C215.517 115.19 215.683 115.057 215.79 114.88C215.897 114.703 215.938 114.494 215.905 114.29C215.872 114.085 215.767 113.9 215.61 113.766C215.453 113.632 215.253 113.558 215.047 113.558H215.054Z" fill="#111111"/></svg>