<svg viewBox="0 0 280 280" fill="none" xmlns="http://www.w3.org/2000/svg"><path d="M242.722 221.459C242.722 221.459 243.944 218.958 245.96 164.195C247.714 116.738 190.639 106.039 181.761 105.682C181.741 106.006 181.608 106.312 181.388 106.541C181.168 106.771 180.876 106.91 180.566 106.931C180.104 106.96 179.641 106.899 179.2 106.753C157.857 122.986 119.098 127.803 126.782 102.292C108.684 100.331 100.147 101.045 97.0714 101.579L110.048 154.562C110.193 155.172 110.207 155.809 110.089 156.425C109.971 157.042 109.724 157.624 109.365 158.129C109.009 158.572 108.565 158.929 108.064 159.176C107.562 159.422 107.016 159.552 106.462 159.556C71.9974 158.771 74.5123 158.294 73.5125 157.594L73.1718 165.086C78.6398 166.548 83.9154 168.705 88.8805 171.51C89.5634 168.833 90.2463 166.335 90.9293 163.659C90.9852 163.458 91.1123 163.287 91.2848 163.18C91.4573 163.074 91.6622 163.04 91.8579 163.085C92.0536 163.131 92.2253 163.252 92.3381 163.425C92.451 163.598 92.4965 163.81 92.4655 164.017C90.3607 174.516 87.6809 184.88 84.4394 195.059C81.3655 208.259 77.0976 224.672 73 238.229L165.543 255C163.431 250.586 143.013 216.014 133.438 175.972C133.399 175.839 133.393 175.699 133.419 175.564C133.445 175.428 133.503 175.302 133.588 175.195C133.672 175.089 133.781 175.007 133.904 174.956C134.027 174.904 134.16 174.886 134.292 174.902C133.951 173.475 133.609 172.226 133.438 171.155C132.769 170.814 132.229 170.249 131.902 169.55C129.17 171.512 126.27 170.263 123.876 169.372V169.55C123.91 169.679 123.919 169.814 123.902 169.946C123.886 170.079 123.845 170.207 123.782 170.323C123.718 170.439 123.633 170.541 123.532 170.622C123.431 170.704 123.315 170.764 123.192 170.799C122.095 171.181 121.665 169.916 121.315 169.55C119.436 171.155 117.558 170.263 116.192 168.123V169.014C116.147 169.152 116.073 169.278 115.976 169.383C115.879 169.488 115.761 169.569 115.63 169.62C115.5 169.671 115.36 169.691 115.221 169.679C115.082 169.667 114.947 169.623 114.826 169.55C113.277 168.467 112.679 163.992 112.432 162.057C111.735 157.443 112.58 152.718 114.826 148.678C117.13 144.896 120.177 144.497 122.509 143.676C121.997 142.963 121.502 142.236 120.972 141.536C117.073 136.387 106.08 118.973 110.899 114.778C110.998 114.671 111.123 114.594 111.26 114.553C111.397 114.512 111.542 114.509 111.68 114.545C111.818 114.582 111.945 114.655 112.048 114.758C112.15 114.862 112.225 114.991 112.265 115.134C125.253 133.23 151.522 148.365 162.293 168.295C168.686 180.076 175.819 191.401 183.645 202.197C183.816 202.375 183.986 202.732 184.158 202.91V202.554C184.908 196.387 186.165 190.299 187.913 184.357C188.92 180.596 190.413 176.996 192.35 173.656C192.447 173.478 192.605 173.346 192.792 173.286C192.98 173.227 193.182 173.244 193.357 173.336C193.532 173.427 193.667 173.586 193.734 173.778C193.801 173.97 193.794 174.182 193.716 174.37C192.847 176.682 192.008 179.008 191.155 181.327C189.506 186.521 188.194 191.825 187.227 197.204L242.722 221.459ZM233.326 154.206C233.345 154.465 233.266 154.722 233.107 154.921C232.947 155.121 232.72 155.248 232.472 155.275C232.226 155.308 231.976 155.257 231.76 155.128C231.544 154.999 231.375 154.8 231.277 154.562C230.529 151.438 230.539 147.881 228.038 142.432C221.23 127.63 207.855 119.408 192.865 114.066C191.843 113.703 192.353 112.105 193.206 112.461C197.633 113.826 201.968 115.495 206.183 117.457C217.448 122.848 226.741 131.335 231.282 142.789C232.04 144.563 232.613 146.417 232.991 148.319C233.277 150.266 233.389 152.237 233.326 154.206Z" fill="#E04747"/><path d="M140.234 52.2753C140.561 53.144 141.118 53.8767 141.783 54.3121C142.448 54.7476 143.166 54.8502 143.779 54.5974C144.392 54.3446 144.849 53.757 145.051 52.964C145.253 52.171 145.183 51.2374 144.856 50.3688C144.529 49.5001 143.971 48.7674 143.307 48.3319C142.642 47.8965 141.924 47.7939 141.311 48.0467C140.698 48.2995 140.24 48.8871 140.038 49.6801C139.836 50.4731 139.907 51.4067 140.234 52.2753Z" fill="#111111"/><path d="M116.234 64.2752C116.561 65.1439 117.119 65.8765 117.783 66.3119C118.448 66.7473 119.166 66.8499 119.779 66.597C120.392 66.3441 120.85 65.7565 121.052 64.9634C121.254 64.1704 121.183 63.2369 120.856 62.3682C120.529 61.4996 119.971 60.767 119.307 60.3316C118.642 59.8962 117.924 59.7936 117.311 60.0465C116.698 60.2994 116.24 60.887 116.038 61.68C115.836 62.4731 115.907 63.4066 116.234 64.2752Z" fill="#111111"/><path d="M143.752 40.6287C141.965 39.4187 138.94 40.1242 137.323 41.3198C136.637 41.9112 136.079 42.6279 135.68 43.4286C135.282 44.2293 135.051 45.0983 135 45.9857C135.027 46.217 135.126 46.4348 135.284 46.61C135.442 46.7853 135.652 46.9094 135.885 46.9659C136.118 47.0224 136.364 47.0084 136.589 46.9259C136.814 46.8435 137.007 46.6964 137.143 46.5044C137.642 45.4741 138.461 44.6204 139.486 44.0626C140.511 43.5048 141.69 43.2708 142.859 43.3934C143.932 43.5544 145.537 43.0485 144.823 41.6661C144.466 41.3198 144.108 40.8011 143.752 40.6287Z" fill="#111111"/><path d="M119.234 51.151C118.693 50.6153 118.037 50.2496 117.332 50.0902C116.626 49.9308 115.896 49.9834 115.215 50.2426C114.197 50.5981 113.336 51.3777 112.808 52.4236C112.318 53.4915 112.043 54.6688 112.003 55.8711C111.985 56.1356 112.059 56.3975 112.209 56.6013C112.359 56.8051 112.574 56.9345 112.808 56.9623C114.094 57.325 114.582 54.9717 115.38 54.2357C115.816 53.8823 116.319 53.6489 116.848 53.5542C117.378 53.4594 117.92 53.506 118.431 53.6901C118.663 53.7556 118.907 53.745 119.134 53.6597C119.362 53.5744 119.563 53.4179 119.714 53.2084C119.866 52.9988 119.962 52.7449 119.991 52.4762C120.02 52.2075 119.98 51.935 119.878 51.6906C119.557 51.6966 119.395 51.5152 119.234 51.151Z" fill="#111111"/><path d="M129.524 70.9192C129.001 66.5538 128.681 62.1825 127.957 57.6471C127.79 56.5971 126.218 56.9486 126.042 57.8214C125.871 62.9089 126.221 68.0007 127.087 73.0163C127.261 73.7148 128.13 74.2376 128.653 73.8891C131.263 72.8406 133.873 71.7935 136.309 70.5764C136.462 70.5005 136.597 70.3938 136.707 70.2631C136.817 70.1324 136.899 69.9804 136.948 69.8165C136.997 69.6527 137.011 69.4805 136.991 69.3107C136.971 69.1409 136.916 68.977 136.83 68.8294C136.483 68.1309 135.787 68.1309 135.091 68.3066C133.345 69.1794 131.436 70.0435 129.524 70.9192Z" fill="#111111"/><path d="M143.199 79.0094C141.866 78.7915 135.87 82.418 134.35 83.3173C134.216 83.4243 134.113 83.5733 134.055 83.7456C133.996 83.918 133.984 84.1059 134.021 84.2858C134.057 84.4657 134.14 84.6295 134.259 84.7566C134.378 84.8837 134.528 84.9684 134.69 85C136.359 85 142.703 82.3732 143.538 81.253C144.2 80.5082 144.204 79.1732 143.199 79.0094Z" fill="#111111"/><path d="M179.812 107C180.491 107 180.83 106.288 181 105.753C181.003 105.569 180.957 105.389 180.867 105.231C180.777 105.074 180.647 104.946 180.491 104.863C179.641 104.507 178.109 104.15 177.432 103.793C177.432 103.793 173.899 76.3428 172.844 64.4231C172.704 62.8174 172.675 61.0443 172.675 59.4357C172.562 58.6605 172.62 57.8686 172.844 57.1205C173.232 56.2509 173.687 55.4158 174.204 54.6232C175.105 52.915 175.683 51.0397 175.903 49.1011C176.045 46.5738 175.254 44.0863 173.694 42.1541C172.662 41.0533 171.374 40.2551 169.956 39.8389C169.604 37.9542 169.092 36.1061 168.426 34.3168C167.791 32.1175 166.995 29.9731 166.044 27.903C162.99 21.7801 159.421 17.6448 153.13 16.3256C154.117 19.0655 154.69 21.9501 154.829 24.8753C154.828 25.0975 154.748 25.3113 154.605 25.4755C154.462 25.6397 154.267 25.7427 154.056 25.7648C153.845 25.7869 153.633 25.7264 153.462 25.595C153.292 25.4636 153.173 25.2706 153.13 25.0531C150.411 13.4742 144.81 8.11957 141.919 6.17164C127.302 -3.66205 103.269 -2.35902 95.5365 14.5451C90.9781 24.5037 92.3331 37.7102 101.484 42.5125C105.765 44.7587 110.836 44.6911 115.417 43.7582C125.46 41.7134 134.107 35.3848 142.093 28.617C143.283 31.1143 147.191 33.9613 150.589 34.8515C152.458 39.3056 157.046 50.3498 158.915 53.022C160.105 54.9816 163.529 54.8009 163.334 52.4872C163.032 48.9204 160.968 40.1327 170.3 42.5125C173.703 43.3792 175.737 49.9928 170.979 56.0496C170.471 79.5629 173.869 93.9917 175.228 103.793C175.397 104.685 175.397 105.397 176.247 105.575C177.127 105.953 178.036 106.251 178.965 106.465C178.791 107 179.301 107 179.812 107ZM112.694 5.99976C111.674 6.53302 110.654 7.2455 109.635 7.78023C103.361 11.729 98.2746 20.2449 98.7595 27.3756C98.823 28.475 99.0523 29.5569 99.4391 30.581C99.8227 31.6234 100.277 32.6357 100.798 33.6102C100.958 33.8951 101.012 34.2318 100.95 34.5559C100.888 34.88 100.715 35.1688 100.462 35.3671C100.21 35.5654 99.897 35.6593 99.5828 35.6309C99.2687 35.6024 98.9756 35.4536 98.7595 35.2129C96.5566 33.2459 95.8714 29.6908 95.8714 26.8394C95.8714 21.0323 99.4755 12.4517 105.896 7.06628C106.797 6.36865 107.766 5.7719 108.786 5.28581C109.809 4.77737 110.893 4.41757 112.009 4.21636C112.866 4.05477 113.713 5.64279 112.694 5.99976Z" fill="#111111"/><path d="M150.99 219.142C144.949 205.317 139.801 191.085 135.578 176.542C135.406 176.185 135.235 176.006 134.893 176.006C134.761 175.989 134.627 176.007 134.503 176.058C134.38 176.11 134.27 176.192 134.185 176.299C134.1 176.406 134.042 176.533 134.015 176.669C133.989 176.806 133.996 176.947 134.036 177.079C142.245 210.302 153.224 230.716 165.032 254.044C165.39 254.753 165.888 255.656 166.231 256.372C171.369 265.679 177.164 275.789 187.636 279.104C193.373 280.787 199.511 280.082 204.761 277.136C209.93 274.246 214.385 270.14 217.776 265.143C224.585 255.625 228.573 243.806 231.133 232.389C231.455 230.951 231.646 229.525 231.989 228.093C232.16 226.84 230.259 226.12 229.934 227.556C227.392 238.798 224.242 250.258 218.118 259.953C204.714 281.171 188.498 281.14 177.869 269.619C172.971 264.305 170.808 259.532 168.451 255.658C162.463 243.663 156.399 231.527 150.99 219.142Z" fill="#111111"/><path d="M93.4029 132.66C90.9609 132.417 86.7629 133.407 81.6198 133.407C75.529 133.407 68.1707 132.202 63.3487 128.18C62.4784 127.455 61.4701 129.113 62.3235 129.674C69.1537 135.832 78.5469 136.394 86.9135 135.832C89.1615 135.697 91.3921 135.322 93.5733 134.713C93.7199 134.586 93.8352 134.421 93.9089 134.233C93.9826 134.045 94.0123 133.84 93.9954 133.636C93.9785 133.433 93.9155 133.237 93.812 133.066C93.7086 132.896 93.568 132.756 93.4029 132.66Z" fill="#111111"/><path d="M91.632 140.249C88.5552 140.843 85.4383 141.192 82.3091 141.294C76.8684 141.257 71.4553 140.496 66.2048 139.031C65.9592 138.966 65.6989 139.004 65.48 139.135C65.261 139.266 65.1009 139.48 65.0341 139.731C64.9674 139.982 64.9993 140.25 65.1231 140.477C65.2469 140.704 65.4526 140.872 65.6959 140.945C73.1428 144.195 88.1637 145.236 92.6498 142.164C92.8284 141.994 92.9466 141.767 92.9857 141.52C93.0249 141.273 92.9828 141.02 92.8661 140.8C92.7493 140.58 92.5646 140.407 92.3411 140.307C92.1176 140.207 91.8681 140.187 91.632 140.249Z" fill="#111111"/><path d="M106.069 159.992C106.668 160.032 107.267 159.919 107.814 159.664C108.362 159.409 108.841 159.019 109.212 158.527C109.582 158.035 109.832 157.457 109.94 156.842C110.048 156.228 110.01 155.595 109.831 154.999L94.9572 94.6314C94.7543 93.7896 94.2944 93.0391 93.6468 92.4929C92.9992 91.9467 92.1988 91.6344 91.3661 91.603L59.053 90.0006C58.4411 89.9899 57.8351 90.126 57.2818 90.3986C56.7286 90.6711 56.2431 91.0727 55.8628 91.5722C55.4826 92.0717 55.2178 92.6557 55.0891 93.2789C54.9604 93.9021 54.9712 94.5479 55.1207 95.1661L61.7841 118.317C60.8103 117.508 60.0268 116.477 59.4937 115.305C58.9605 114.132 58.6916 112.847 58.7076 111.55C58.8782 110.482 57.1947 110.309 56.9973 111.372C55.9385 117.1 60.759 121.524 65.2046 123.838C70.2804 126.482 77.5359 128.09 86.5751 127.045C88.2162 126.947 89.8331 126.586 91.3689 125.975C91.5837 125.911 91.7702 125.77 91.8964 125.578C92.0227 125.386 92.0806 125.154 92.0605 124.922C92.0403 124.69 91.9431 124.473 91.7858 124.308C91.6284 124.142 91.4207 124.039 91.1983 124.016C90.0421 124.016 84.3135 124.401 83.1616 124.551C77.9745 124.906 72.7766 124.053 67.9455 122.054C67.0996 121.687 66.0647 121.162 65.2102 120.807L57.6854 94.4537C57.6295 94.2449 57.6158 94.0263 57.6451 93.8116C57.6745 93.597 57.7463 93.391 57.856 93.2068C57.9841 93.0508 58.141 92.9231 58.3173 92.8313C58.4936 92.7395 58.6857 92.6854 58.8824 92.6722L91.1955 94.2745C91.4825 94.2825 91.7582 94.3932 91.9761 94.5879C92.1941 94.7826 92.3411 95.0495 92.3925 95.3438L107.266 155.896C107.322 156.105 107.336 156.323 107.306 156.537C107.277 156.752 107.205 156.957 107.095 157.141C106.967 157.297 106.81 157.425 106.634 157.517C106.458 157.609 106.266 157.663 106.069 157.676L74.9529 156.251C74.69 156.248 74.4344 156.161 74.2204 156.002C74.0064 155.843 73.8443 155.619 73.7559 155.361L72.5603 151.087C76.64 152.141 80.8739 152.382 85.0397 151.8C85.9089 151.707 86.7677 151.528 87.6043 151.265C88.5412 151.178 89.4329 150.806 90.169 150.196C90.2973 150.061 90.3882 149.892 90.4322 149.707C90.4762 149.523 90.4718 149.329 90.4193 149.147C90.3668 148.965 90.2682 148.801 90.1338 148.672C89.9995 148.544 89.8344 148.455 89.6558 148.416C88.787 148.348 87.9141 148.469 87.0925 148.771C86.3649 148.968 85.6199 149.088 84.869 149.128C83.2235 149.335 81.5689 149.454 79.9117 149.484C76.6165 149.466 73.3386 148.987 70.1662 148.059C69.9208 148.001 69.6634 148.043 69.4475 148.178C69.2317 148.313 69.0742 148.529 69.008 148.782C68.9417 149.035 68.9719 149.305 69.092 149.535C69.2122 149.766 69.4132 149.939 69.653 150.018L71.3632 155.893C71.6903 156.783 72.2912 157.534 73.0721 158.03C74.1352 158.733 71.9963 159.217 106.069 159.992Z" fill="#111111"/><path d="M70 104C70 104.796 70.3161 105.559 70.8787 106.121C71.4413 106.684 72.2044 107 73 107C73.7957 107 74.5587 106.684 75.1213 106.121C75.6839 105.559 76 104.796 76 104C76 103.204 75.6839 102.441 75.1213 101.879C74.5587 101.316 73.7957 101 73 101C72.2044 101 71.4413 101.316 70.8787 101.879C70.3161 102.441 70 103.204 70 104Z" fill="#111111"/><path d="M65 110C65 110.796 65.3161 111.559 65.8787 112.121C66.4413 112.684 67.2044 113 68 113C68.7957 113 69.5587 112.684 70.1213 112.121C70.6839 111.559 71 110.796 71 110C71 109.204 70.6839 108.441 70.1213 107.879C69.5587 107.316 68.7957 107 68 107C67.2044 107 66.4413 107.316 65.8787 107.879C65.3161 108.441 65 109.204 65 110Z" fill="#111111"/><path d="M63 101C63 101.796 63.3161 102.559 63.8787 103.121C64.4413 103.684 65.2043 104 66 104C66.7956 104 67.5587 103.684 68.1213 103.121C68.6839 102.559 69 101.796 69 101C69 100.204 68.6839 99.4413 68.1213 98.8787C67.5587 98.3161 66.7956 98 66 98C65.2043 98 64.4413 98.3161 63.8787 98.8787C63.3161 99.4413 63 100.204 63 101Z" fill="#111111"/><path d="M107.016 46.2035C109.032 59.5777 109.693 66.3037 113.62 79.4463C117.149 91.2607 121.353 101.332 132.925 102.2C132.553 103.404 132.379 104.667 132.411 105.932C132.559 107.488 134.274 107.105 134.274 106.289C134.426 104.957 134.709 103.647 135.12 102.377C137.824 102.297 140.504 101.818 143.081 100.955C147.961 99.4062 152.506 96.8698 156.458 93.489C157.612 92.4552 158.686 91.3278 159.67 90.1172C159.886 89.8794 160.004 89.5628 160 89.2348C159.996 88.9068 159.87 88.5934 159.649 88.3614C159.428 88.1294 159.13 87.9973 158.817 87.9931C158.505 87.9889 158.203 88.113 157.976 88.339C150.875 95.471 137.887 101.745 128.681 98.2945C128.213 98.0941 127.76 97.8564 127.326 97.5835C125.779 96.6633 124.402 95.4592 123.261 94.0285C118.373 87.7482 116.683 79.9301 114.462 72.1632C112.021 63.6458 110.911 54.737 109.048 45.8487C108.371 44.4267 106.827 44.9618 107.016 46.2035Z" fill="#111111"/><path d="M190.5 198.958C190.5 198.174 189.154 198.345 188.968 198.78C188.77 199.242 186.075 205.591 185.903 205.948C184.388 204.352 177.566 194.28 176.032 191.969C159.722 167.379 164.499 167.347 147.098 149.851C136.058 138.747 121.303 127.906 112.549 115.617C112.509 115.473 112.435 115.343 112.332 115.239C112.23 115.135 112.104 115.062 111.966 115.025C111.828 114.989 111.684 114.992 111.547 115.033C111.41 115.074 111.286 115.152 111.187 115.259C109.017 117.163 110.244 122.234 111.528 124.938C114.445 131.885 118.221 138.395 122.757 144.301C119.69 144.885 116.951 146.68 115.098 149.319C112.712 153.082 112.194 158.282 112.712 162.76C112.839 164.092 113.067 165.41 113.392 166.704C113.57 168.063 114.168 169.323 115.095 170.288C115.215 170.362 115.35 170.406 115.488 170.418C115.627 170.43 115.766 170.41 115.897 170.358C116.027 170.307 116.145 170.226 116.241 170.12C116.338 170.015 116.412 169.889 116.456 169.75C116.517 168.648 116.343 167.546 115.945 166.525C115.642 165.469 115.415 164.39 115.265 163.298C114.943 161.161 114.943 158.984 115.265 156.846C115.818 153.089 117.137 149.319 120.541 147.526C121.871 147.002 123.236 146.582 124.625 146.271C126.498 145.913 128.2 145.734 130.073 145.375C130.582 145.375 130.753 144.837 130.753 144.301C130.753 143.764 130.243 143.584 129.903 143.403C128.483 143.28 127.053 143.341 125.647 143.584C125.136 142.686 117.853 132.633 114.418 125.301C113.576 123.505 112.206 119.566 112.716 119.028C113.057 118.85 121.54 128.739 126.673 133.546C136.87 143.097 152.391 155.54 159.35 167.599C167.668 183.338 177.295 198.27 188.117 212.218C188.811 213.097 189.549 213.936 190.329 214.731C190.406 214.816 190.498 214.884 190.601 214.93C190.703 214.976 190.813 215 190.925 215C191.036 215 191.147 214.976 191.249 214.93C191.351 214.884 191.444 214.816 191.521 214.731C192.599 213.596 192.109 213.945 187.436 207.383C187.776 205.948 190.5 199.496 190.5 198.958Z" fill="#111111"/><path d="M124.588 160.222C126.356 157.206 129.113 154.985 132.331 153.984C132.567 153.904 132.765 153.731 132.883 153.501C133.002 153.271 133.031 153.001 132.966 152.749C132.901 152.496 132.746 152.279 132.534 152.145C132.321 152.01 132.068 151.967 131.826 152.025C129.843 152.477 127.959 153.324 126.275 154.521C124.732 155.681 123.465 157.205 122.573 158.971C120.923 162.373 120.214 167.161 122.236 170.717C122.405 170.896 122.573 171.251 122.741 171.429C123.945 172.703 125.028 171.567 124.76 170.717C124.136 169.011 123.795 167.205 123.751 165.377C123.554 164.503 123.527 163.595 123.67 162.709C123.814 161.823 124.126 160.977 124.588 160.222Z" fill="#111111"/><path d="M134.63 171.918C134.366 170.809 134.025 169.723 133.609 168.668C133.376 167.217 133.644 165.725 134.363 164.465C135.081 163.206 136.203 162.263 137.524 161.808C137.707 161.703 137.851 161.534 137.931 161.329C138.011 161.125 138.022 160.897 137.962 160.685C137.902 160.473 137.774 160.289 137.602 160.165C137.429 160.041 137.221 159.984 137.013 160.004C136.031 160.173 135.093 160.557 134.258 161.132C133.424 161.707 132.712 162.46 132.167 163.343C131.623 164.226 131.258 165.22 131.096 166.261C130.934 167.302 130.978 168.368 131.226 169.39C131.703 170.91 131.95 172.211 133.439 173H133.609C133.863 172.952 134.097 172.822 134.279 172.629C134.462 172.435 134.584 172.187 134.63 171.918Z" fill="#111111"/><path d="M68.5191 239.215C69.3655 238.678 69.0308 237.093 68.013 237.247C61.3397 238.259 53.0811 242.077 44.849 237.068C41.3046 234.911 38.7558 231.167 37.9178 225.44C36.7814 217.688 38.2803 202.99 39.2703 195.206C40.6176 184.558 42.4792 173.99 44.8476 163.543C44.8811 163.396 52.9236 128.27 52.964 128.122C53.1327 127.048 51.6115 126.511 51.4414 127.585C45.529 148.73 40.8428 170.238 37.4088 191.987C36.331 199.373 34.3497 216.164 35.2114 223.652C35.9978 230.494 38.364 236.5 44.1713 239.573C49.3188 242.001 55.0642 242.627 60.5714 241.361C62.0695 241.175 63.5437 240.815 64.9678 240.289C66.2071 240.183 67.4142 239.818 68.5191 239.215Z" fill="#111111"/><path d="M70.5581 209.412C70.7165 210.306 72.1462 210.128 71.9878 209.233C71.4968 198.167 66.1604 172.567 68.3364 153.77C68.4948 152.874 67.0455 152.691 66.9067 153.59C64.3956 169.885 67.8074 187.243 68.6532 197.245C69.2934 201.182 69.6063 205.297 70.5581 209.412Z" fill="#111111"/></svg>