<svg viewBox="0 0 24 24" fill="none" xmlns="http://www.w3.org/2000/svg"><path clip-rule="evenodd" d="M16.6684 22.0041C19.6128 22.0041 21.9998 19.6162 21.9998 16.6706C21.9998 13.725 19.6128 11.3372 16.6684 11.3372C13.7239 11.3372 11.3369 13.725 11.3369 16.6706C11.3369 19.6162 13.7239 22.0041 16.6684 22.0041Z" stroke="currentColor" stroke-linecap="round" stroke-linejoin="round"/><path d="M16.6685 14.0038V19.3373" stroke="currentColor" stroke-linecap="round" stroke-linejoin="round"/><path d="M14.0027 16.6706H19.3341" stroke="currentColor" stroke-linecap="round" stroke-linejoin="round"/><path d="M8.64032 16.0039L3.47681 10.6126C1.94225 9.07781 1.56176 6.73277 2.53226 4.79117V4.79117C3.25689 3.34137 4.63411 2.3285 6.23354 2.06908C7.83296 1.80966 9.45954 2.33532 10.605 3.48181L12 4.87295L13.3915 3.48181C14.5369 2.33532 16.1635 1.80966 17.763 2.06908C19.3624 2.3285 20.7396 3.34137 21.4642 4.79117V4.79117C22.179 6.22384 22.1714 7.91088 21.4438 9.33706" stroke="currentColor" stroke-linecap="round" stroke-linejoin="round"/></svg>