<svg viewBox="0 0 24 24" fill="none" xmlns="http://www.w3.org/2000/svg"><g clip-path="url(#clip0_3696_429)"><path d="M11 17C11 18.5913 11.6321 20.1174 12.7574 21.2426C13.8826 22.3679 15.4087 23 17 23C18.5913 23 20.1174 22.3679 21.2426 21.2426C22.3679 20.1174 23 18.5913 23 17C23 15.4087 22.3679 13.8826 21.2426 12.7574C20.1174 11.6321 18.5913 11 17 11C15.4087 11 13.8826 11.6321 12.7574 12.7574C11.6321 13.8826 11 15.4087 11 17Z" stroke="currentColor" stroke-linecap="round" stroke-linejoin="round"/><path d="M17 14V20" stroke="currentColor" stroke-linecap="round" stroke-linejoin="round"/><path d="M14 17H20" stroke="currentColor" stroke-linecap="round" stroke-linejoin="round"/><path d="M1 17C1.00073 16.0078 1.26621 15.0313 1.77271 14.1577C2.27922 13.2842 3.01095 12.5408 3.90249 11.994C4.79403 11.4472 5.81759 11.1142 6.88164 11.0245C7.94569 10.9349 9.01708 11.0916 10 11.4805" stroke="currentColor" stroke-linecap="round" stroke-linejoin="round"/><path d="M3 5C3 6.06087 3.42143 7.07828 4.17157 7.82843C4.92172 8.57857 5.93913 9 7 9C8.06087 9 9.07828 8.57857 9.82843 7.82843C10.5786 7.07828 11 6.06087 11 5C11 3.93913 10.5786 2.92172 9.82843 2.17157C9.07828 1.42143 8.06087 1 7 1C5.93913 1 4.92172 1.42143 4.17157 2.17157C3.42143 2.92172 3 3.93913 3 5V5Z" stroke="currentColor" stroke-linecap="round" stroke-linejoin="round"/></g><defs><clipPath id="clip0_3696_429"><rect width="24" height="24" fill="currentColor"/></clipPath></defs></svg>