<svg viewBox="0 0 24 24" fill="none" xmlns="http://www.w3.org/2000/svg"><path d="M12 18C11.8159 18 11.6666 18.1492 11.6666 18.3333C11.6666 18.5174 11.8159 18.6667 12 18.6667C12.1841 18.6667 12.3333 18.5174 12.3333 18.3333C12.3333 18.1492 12.1841 18 12 18V18" stroke="currentColor" stroke-linecap="round" stroke-linejoin="round"/><path d="M12 15.3333V8.66669" stroke="currentColor" stroke-linecap="round"/><path clip-rule="evenodd" d="M13.4409 2.89781C13.171 2.34837 12.6121 2.00024 12 2.00024C11.3878 2.00024 10.829 2.34837 10.5591 2.89781L2.13868 20.0515C1.93261 20.4707 1.95752 20.9666 2.20457 21.363C2.45161 21.7595 2.88579 22.0003 3.3529 22H20.6471C21.1142 22.0003 21.5484 21.7595 21.7954 21.363C22.0425 20.9666 22.0674 20.4707 21.8613 20.0515L13.4409 2.89781Z" stroke="currentColor" stroke-linecap="round" stroke-linejoin="round"/></svg>