<svg viewBox="0 0 19 16" fill="none" xmlns="http://www.w3.org/2000/svg"><path clip-rule="evenodd" d="M17.0739 10.7623H11.5494C11.5494 11.9828 10.56 12.9722 9.33956 12.9722C8.11911 12.9722 7.12974 11.9828 7.12974 10.7623H1.60519C1.30008 10.7623 1.05273 11.0097 1.05273 11.3148V14.0771C1.05273 14.6873 1.54742 15.182 2.15765 15.182H16.5215C17.1317 15.182 17.6264 14.6873 17.6264 14.0771V11.3148C17.6264 11.0097 17.3791 10.7623 17.0739 10.7623Z" stroke="currentColor" stroke-width="1.0" stroke-linecap="round" stroke-linejoin="round"/><path d="M16.5216 8.55249V1.92303C16.5216 1.3128 16.0269 0.818115 15.4167 0.818115H8.23479C7.62457 0.818115 7.12988 1.3128 7.12988 1.92303V8.55249" stroke="currentColor" stroke-width="1.0" stroke-linecap="round" stroke-linejoin="round"/><path d="M2.15723 8.55251V4.13286C2.15723 3.52264 2.65191 3.02795 3.26214 3.02795H4.9195" stroke="currentColor" stroke-width="1.0" stroke-linecap="round" stroke-linejoin="round"/><path d="M11.5488 4.13281H14.3118" stroke="currentColor" stroke-width="1.0" stroke-linecap="round" stroke-linejoin="round"/><path d="M9.33887 6.89514H14.3117" stroke="currentColor" stroke-width="1.0" stroke-linecap="round" stroke-linejoin="round"/></svg>