<svg viewBox="0 0 24 24" fill="none" xmlns="http://www.w3.org/2000/svg"><path d="M1.47302 22.3199H22.473" stroke="currentColor" stroke-linecap="round" stroke-linejoin="round"/><path clip-rule="evenodd" d="M2.97302 10.86C2.97302 10.0316 3.6446 9.35999 4.47302 9.35999H19.473C20.3014 9.35999 20.973 10.0316 20.973 10.86V17.94C20.973 18.7684 20.3014 19.44 19.473 19.44H4.47302C3.6446 19.44 2.97302 18.7684 2.97302 17.94V10.86Z" stroke="currentColor" stroke-linecap="round" stroke-linejoin="round"/><path d="M11.973 7.19995V9.35995" stroke="currentColor" stroke-linecap="round" stroke-linejoin="round"/><path clip-rule="evenodd" d="M13.473 2.87997C13.473 3.67526 12.8014 4.31997 11.973 4.31997C11.1446 4.31997 10.473 3.67526 10.473 2.87997C10.473 2.08509 11.973 0.719971 11.973 0.719971C11.973 0.719971 13.473 2.08509 13.473 2.87997Z" stroke="currentColor" stroke-linecap="round" stroke-linejoin="round"/><path d="M17.973 7.19995V9.35995" stroke="currentColor" stroke-linecap="round" stroke-linejoin="round"/><path clip-rule="evenodd" d="M19.473 2.87997C19.473 3.67526 18.8014 4.31997 17.973 4.31997C17.1446 4.31997 16.473 3.67526 16.473 2.87997C16.473 2.08509 17.973 0.719971 17.973 0.719971C17.973 0.719971 19.473 2.08509 19.473 2.87997Z" stroke="currentColor" stroke-linecap="round" stroke-linejoin="round"/><path d="M5.97302 7.19995V9.35995" stroke="currentColor" stroke-linecap="round" stroke-linejoin="round"/><path clip-rule="evenodd" d="M7.47302 2.87997C7.47302 3.67526 6.80145 4.31997 5.97302 4.31997C5.1446 4.31997 4.47302 3.67526 4.47302 2.87997C4.47302 2.08509 5.97302 0.719971 5.97302 0.719971C5.97302 0.719971 7.47302 2.08509 7.47302 2.87997Z" stroke="currentColor" stroke-linecap="round" stroke-linejoin="round"/><path d="M2.97302 12.6C2.9717 13.6246 3.61746 14.5477 4.6059 14.9342C5.59435 15.3208 6.72821 15.0935 7.47302 14.3597C8.04112 14.9213 8.84997 15.1957 9.65949 15.1015C10.469 15.0073 11.1861 14.5553 11.598 13.8797C12.0649 14.6478 12.9216 15.1201 13.848 15.1201C14.7744 15.1201 15.6311 14.6478 16.098 13.8797C16.6971 14.8582 17.9051 15.3298 19.0455 15.0304C20.186 14.731 20.9759 13.735 20.973 12.6" stroke="currentColor" stroke-linecap="round" stroke-linejoin="round"/></svg>