<svg viewBox="0 0 24 24" fill="none" xmlns="http://www.w3.org/2000/svg"><path d="M20 6L19.584 6.27735C19.6767 6.41645 19.8328 6.5 20 6.5V6ZM18.5937 3.8906L19.0098 3.61325V3.61325L18.5937 3.8906ZM3 6V5.5V6ZM10 6V6.5C10.1672 6.5 10.3233 6.41645 10.416 6.27735L10 6ZM11.4063 3.8906L10.9902 3.61325V3.61325L11.4063 3.8906ZM20.416 5.72265L19.0098 3.61325L18.1777 4.16795L19.584 6.27735L20.416 5.72265ZM20 6.5H21V5.5H20V6.5ZM21 6.5C21.8284 6.5 22.5 7.17157 22.5 8H23.5C23.5 6.61929 22.3807 5.5 21 5.5V6.5ZM22.5 8V19H23.5V8H22.5ZM22.5 19C22.5 19.8284 21.8284 20.5 21 20.5V21.5C22.3807 21.5 23.5 20.3807 23.5 19H22.5ZM21 20.5H3V21.5H21V20.5ZM3 20.5C2.17157 20.5 1.5 19.8284 1.5 19H0.5C0.5 20.3807 1.61929 21.5 3 21.5V20.5ZM1.5 19V8H0.5V19H1.5ZM1.5 8C1.5 7.17157 2.17157 6.5 3 6.5V5.5C1.61929 5.5 0.5 6.61929 0.5 8H1.5ZM3 6.5L10 6.5V5.5L3 5.5V6.5ZM10.9902 3.61325L9.58397 5.72265L10.416 6.27735L11.8223 4.16795L10.9902 3.61325ZM13.0704 2.5C12.2345 2.5 11.4539 2.91775 10.9902 3.61325L11.8223 4.16795C12.1005 3.75065 12.5688 3.5 13.0704 3.5V2.5ZM16.9296 2.5H13.0704V3.5H16.9296V2.5ZM19.0098 3.61325C18.5461 2.91775 17.7655 2.5 16.9296 2.5V3.5C17.4312 3.5 17.8995 3.75065 18.1777 4.16795L19.0098 3.61325Z" fill="currentColor"/><circle cx="15" cy="13" r="5" stroke="currentColor" stroke-linecap="round" stroke-linejoin="round"/></svg>