<svg viewBox="0 0 24 24" fill="none" xmlns="http://www.w3.org/2000/svg"><path clip-rule="evenodd" d="M17.4211 4H7.57895C5.60235 4 4 5.60235 4 7.57895V12.9474C4 14.924 5.60235 16.5263 7.57895 16.5263H12.0526V21L16.5263 16.5263H17.4211C19.3977 16.5263 21 14.924 21 12.9474V7.57895C21 5.60235 19.3977 4 17.4211 4Z" stroke="currentColor" stroke-linecap="round" stroke-linejoin="round"/><path d="M9.31229 10.0714C9.0608 10.0714 8.85693 10.2753 8.85693 10.5268C8.85693 10.7783 9.0608 10.9821 9.31229 10.9821C9.56378 10.9821 9.76765 10.7783 9.76765 10.5268C9.76765 10.2753 9.56378 10.0714 9.31229 10.0714" stroke="currentColor" stroke-linecap="round" stroke-linejoin="round"/><path d="M12.9554 10.0714C12.7039 10.0714 12.5 10.2753 12.5 10.5268C12.5 10.7783 12.7039 10.9821 12.9554 10.9821C13.2068 10.9821 13.4107 10.7783 13.4107 10.5268C13.4107 10.2753 13.2068 10.0714 12.9554 10.0714" stroke="currentColor" stroke-linecap="round" stroke-linejoin="round"/><path d="M16.5984 10.0714C16.3469 10.0714 16.1431 10.2753 16.1431 10.5268C16.1431 10.7783 16.3469 10.9821 16.5984 10.9821C16.8499 10.9821 17.0538 10.7783 17.0538 10.5268C17.0538 10.2753 16.8499 10.0714 16.5984 10.0714" stroke="currentColor" stroke-linecap="round" stroke-linejoin="round"/></svg>