<svg viewBox="0 0 24 24" fill="none" xmlns="http://www.w3.org/2000/svg"><path d="M19.3906 21.1304C19.3906 21.3611 19.299 21.5822 19.1359 21.7453C18.9729 21.9084 18.7517 22 18.5211 22H4.6084V2H18.5211C18.7517 2 18.9729 2.09161 19.1359 2.25469C19.299 2.41776 19.3906 2.63894 19.3906 2.86957V21.1304Z" stroke="currentColor" stroke-width="0.833333" stroke-linecap="round" stroke-linejoin="round"/><path d="M4.60863 2H2.86954C2.63893 2 2.41775 2.09161 2.25468 2.25469C2.09161 2.41776 2 2.63894 2 2.86957V21.1304C2 21.3611 2.09161 21.5822 2.25468 21.7453C2.41775 21.9084 2.63893 22 2.86954 22H4.60863" stroke="currentColor" stroke-width="0.833333" stroke-linecap="round" stroke-linejoin="round"/><path d="M19.3916 3.11108H20.2611C20.722 3.11249 21.1635 3.30024 21.4893 3.63334C21.8152 3.96643 21.9989 4.4178 22.0002 4.88886V7.55552H19.3916" stroke="currentColor" stroke-width="0.833333" stroke-linecap="round" stroke-linejoin="round"/><path d="M19.3916 7.55579H22.0002V12.0002H19.3916" stroke="currentColor" stroke-width="0.833333" stroke-linecap="round" stroke-linejoin="round"/><path d="M19.3916 12.0001H22.0002V16.4445H19.3916" stroke="currentColor" stroke-width="0.833333" stroke-linecap="round" stroke-linejoin="round"/><path d="M19.3916 16.4444H22.0002V19.1111C21.9989 19.5821 21.8152 20.0335 21.4893 20.3666C21.1635 20.6997 20.722 20.8874 20.2611 20.8888H19.3916" stroke="currentColor" stroke-width="0.833333" stroke-linecap="round" stroke-linejoin="round"/><path d="M15.9127 17.0121C15.9127 15.891 15.4546 14.8158 14.6393 14.0231C13.8239 13.2304 12.7181 12.785 11.565 12.785C10.4119 12.785 9.30605 13.2304 8.4907 14.0231C7.67535 14.8158 7.21729 15.891 7.21729 17.0121H15.9127Z" stroke="currentColor" stroke-width="0.833333" stroke-linecap="round" stroke-linejoin="round"/><path d="M8.95728 8.98069C8.95728 9.65334 9.23211 10.2984 9.72132 10.7741C10.2105 11.2497 10.8741 11.5169 11.5659 11.5169C12.2578 11.5169 12.9213 11.2497 13.4105 10.7741C13.8997 10.2984 14.1745 9.65334 14.1745 8.98069C14.1745 8.30804 13.8997 7.66294 13.4105 7.1873C12.9213 6.71167 12.2578 6.44446 11.5659 6.44446C10.8741 6.44446 10.2105 6.71167 9.72132 7.1873C9.23211 7.66294 8.95728 8.30804 8.95728 8.98069V8.98069Z" stroke="currentColor" stroke-width="0.833333" stroke-linecap="round" stroke-linejoin="round"/></svg>