<svg viewBox="0 0 24 24" fill="none" xmlns="http://www.w3.org/2000/svg"><path d="M19.3333 8.66571V5.99904C19.3333 5.26266 18.7364 4.66571 18 4.66571H14.4445" stroke="currentColor" stroke-linecap="round" stroke-linejoin="round"/><path d="M6.88889 4.66571H3.33333C2.59695 4.66571 2 5.26266 2 5.99904V20.6657C2 21.4021 2.59695 21.999 3.33333 21.999H8.66667" stroke="currentColor" stroke-linecap="round" stroke-linejoin="round"/><path clip-rule="evenodd" d="M14.152 5.54303C14.061 5.81529 13.8062 5.99891 13.5191 5.99903H7.81422C7.52716 5.99891 7.27231 5.81529 7.18133 5.54303L6.29245 2.87636C6.22429 2.67299 6.25829 2.44924 6.38377 2.27529C6.50925 2.10135 6.71085 1.9985 6.92533 1.99903H14.408C14.6225 1.9985 14.8241 2.10135 14.9496 2.27529C15.0751 2.44924 15.109 2.67299 15.0409 2.87636L14.152 5.54303Z" stroke="currentColor" stroke-linecap="round" stroke-linejoin="round"/><path clip-rule="evenodd" d="M11.3334 12.8323C11.3334 12.0039 12.0049 11.3323 12.8334 11.3323H20.5C21.3285 11.3323 22 12.0039 22 12.8323V20.499C22 21.3274 21.3285 21.999 20.5 21.999H12.8334C12.0049 21.999 11.3334 21.3274 11.3334 20.499V12.8323Z" stroke="currentColor" stroke-linecap="round" stroke-linejoin="round"/><path d="M14 13.999H19.3333" stroke="currentColor" stroke-linecap="round" stroke-linejoin="round"/><path d="M14 16.6657H19.3333" stroke="currentColor" stroke-linecap="round" stroke-linejoin="round"/><path d="M14 19.3323H16" stroke="currentColor" stroke-linecap="round" stroke-linejoin="round"/></svg>