<svg viewBox="0 0 20 20" fill="none" xmlns="http://www.w3.org/2000/svg"><path d="M6.5568 16.904C7.6668 16.904 8.4948 16.25 8.6508 15.26H7.6428C7.5228 15.698 7.1208 15.968 6.5748 15.968C5.8608 15.968 5.4168 15.446 5.4168 14.612C5.4168 13.766 5.8548 13.256 6.5748 13.256C7.1088 13.256 7.4868 13.508 7.6188 13.952H8.64481C8.50681 12.956 7.7088 12.32 6.5988 12.32C5.2728 12.32 4.3908 13.232 4.3908 14.618C4.3908 16.022 5.2248 16.904 6.5568 16.904ZM9.05487 13.682C9.05487 14.408 9.46287 14.858 10.2549 15.02L10.9329 15.158C11.2269 15.218 11.3409 15.344 11.3409 15.59C11.3409 15.872 11.0649 16.046 10.6269 16.046C10.1949 16.046 9.95487 15.866 9.95487 15.542L8.98887 15.542C8.98887 16.376 9.63087 16.91 10.6209 16.91C11.6409 16.91 12.3129 16.352 12.3129 15.494C12.3129 14.792 11.9349 14.414 11.1429 14.252L10.4769 14.114C10.1649 14.048 10.0269 13.916 10.0269 13.646C10.0269 13.352 10.2789 13.172 10.6749 13.172C11.0409 13.172 11.2749 13.364 11.2749 13.676H12.2409C12.2409 12.836 11.6409 12.308 10.6869 12.308C9.73287 12.308 9.05487 12.878 9.05487 13.682ZM14.1292 16.832H15.1312L16.7632 12.392H15.7492L14.9212 14.636C14.8252 14.9 14.7412 15.146 14.6272 15.572C14.5312 15.188 14.4472 14.912 14.3452 14.636L13.5052 12.392H12.4672L14.1292 16.832Z" fill="currentColor"/><path d="M11.206 0.830731H2.77713C2.16348 0.830731 1.66602 1.35308 1.66602 1.9974V17.9974C1.66602 18.6417 2.16348 19.1641 2.77713 19.1641H17.2216C17.8352 19.1641 18.3327 18.6417 18.3327 17.9974V8.31373C18.3326 8.00456 18.2156 7.70802 18.0075 7.48932L11.9912 1.17214C11.7829 0.953655 11.5005 0.830837 11.206 0.830731Z" stroke="currentColor" stroke-linecap="round" stroke-linejoin="round"/><path d="M10.833 0.832031V7.063C10.833 7.76385 11.4012 8.33203 12.102 8.33203H18.333" stroke="currentColor" stroke-linecap="round" stroke-linejoin="round"/></svg>