<svg viewBox="0 0 24 24" fill="none" xmlns="http://www.w3.org/2000/svg"><path d="M15 23H9L9.75 19H14.25L15 23Z" stroke="currentColor" stroke-linecap="round" stroke-linejoin="round"/><path d="M7 23H17" stroke="currentColor" stroke-linecap="round" stroke-linejoin="round"/><path d="M20.0667 1H3.93333C2.3133 1 1 2.34315 1 4V16C1 17.6569 2.3133 19 3.93333 19H20.0667C21.6867 19 23 17.6569 23 16V4C23 2.34315 21.6867 1 20.0667 1Z" stroke="currentColor" stroke-linecap="round" stroke-linejoin="round"/><path d="M1 11L4.99003 7.0199C5.1303 6.88015 5.32045 6.80165 5.5187 6.80165C5.71696 6.80165 5.90711 6.88015 6.04738 7.0199L7.95262 8.9801C8.09289 9.11985 8.28304 9.19835 8.4813 9.19835C8.67955 9.19835 8.8697 9.11985 9.00998 8.9801L13 5" stroke="currentColor" stroke-linecap="round" stroke-linejoin="round"/><path d="M1 15H23" stroke="currentColor" stroke-linecap="round" stroke-linejoin="round"/><path d="M14 9V12" stroke="currentColor" stroke-linecap="round" stroke-linejoin="round"/><path d="M20 9V12" stroke="currentColor" stroke-linecap="round" stroke-linejoin="round"/><path d="M17 7V12" stroke="currentColor" stroke-linecap="round" stroke-linejoin="round"/></svg>