<svg viewBox="0 0 24 24" fill="none" xmlns="http://www.w3.org/2000/svg"><path d="M1 5.5C1 6.69347 2.15893 7.83807 4.22183 8.68198C6.28473 9.52589 9.08262 10 12 10C14.9174 10 17.7153 9.52589 19.7782 8.68198C21.8411 7.83807 23 6.69347 23 5.5C23 4.30653 21.8411 3.16193 19.7782 2.31802C17.7153 1.47411 14.9174 1 12 1C9.08262 1 6.28473 1.47411 4.22183 2.31802C2.15893 3.16193 1 4.30653 1 5.5V5.5Z" stroke="currentColor" stroke-width="1.0" stroke-linecap="round" stroke-linejoin="round"/><path d="M1 5V11.5996C1 14.0296 5.92507 16 12 16C18.0749 16 23 14.0306 23 11.5996V5" stroke="currentColor" stroke-width="1.0" stroke-linecap="round" stroke-linejoin="round"/><path d="M1 12V18.6C1 21.0298 5.92507 23 12 23C18.0749 23 23 21.0298 23 18.6V12" stroke="currentColor" stroke-width="1.0" stroke-linecap="round" stroke-linejoin="round"/></svg>