<svg viewBox="0 0 24 24" fill="none" xmlns="http://www.w3.org/2000/svg"><path d="M19.3107 3.108C19.1689 2.91922 18.9849 2.766 18.7735 2.66047C18.5621 2.55494 18.329 2.5 18.0926 2.5H5.91198C5.67561 2.5 5.44248 2.55494 5.23106 2.66047C5.01964 2.766 4.83574 2.91922 4.69392 3.108L1.30669 7.61836C1.10112 7.89215 0.994107 8.22717 1.00295 8.56921C1.01179 8.91126 1.13597 9.24032 1.35541 9.50316L10.834 20.9539C10.9769 21.1242 11.1555 21.2612 11.3571 21.3552C11.5588 21.4492 11.7787 21.4979 12.0013 21.4979C12.2239 21.4979 12.4437 21.4492 12.6454 21.3552C12.8471 21.2612 13.0257 21.1242 13.1686 20.9539L22.6472 9.50316C22.8666 9.24032 22.9908 8.91126 22.9996 8.56921C23.0085 8.22717 22.9014 7.89215 22.6959 7.61836L19.3107 3.108Z" stroke="currentColor" stroke-linecap="round" stroke-linejoin="round"/><path d="M5.21338 2.66919L12.0021 21.5" stroke="currentColor" stroke-linecap="round" stroke-linejoin="round"/><path d="M18.7896 2.66919L12.002 21.5" stroke="currentColor" stroke-linecap="round" stroke-linejoin="round"/><path d="M1 8.58002H22.9992" stroke="currentColor" stroke-linecap="round" stroke-linejoin="round"/><path d="M7.43457 8.58001L12.0023 2.5L16.57 8.58001" stroke="currentColor" stroke-linecap="round" stroke-linejoin="round"/></svg>