<svg viewBox="0 0 24 24" fill="none" xmlns="http://www.w3.org/2000/svg"><path d="M6 5.51068C6.18409 5.51068 6.33333 5.65357 6.33333 5.82983" stroke="currentColor" stroke-linecap="round" stroke-linejoin="round"/><path d="M5.66663 5.82983C5.66663 5.65357 5.81586 5.51068 5.99996 5.51068" stroke="currentColor" stroke-linecap="round" stroke-linejoin="round"/><path d="M5.99996 6.14892C5.81586 6.14892 5.66663 6.00603 5.66663 5.82977" stroke="currentColor" stroke-linecap="round" stroke-linejoin="round"/><path d="M6.33333 5.82977C6.33333 6.00603 6.18409 6.14892 6 6.14892" stroke="currentColor" stroke-linecap="round" stroke-linejoin="round"/><path clip-rule="evenodd" d="M6 2C8.20914 2 10 3.71465 10 5.82979C10 7.46468 7.61067 10.5753 6.52533 11.9047C6.39899 12.0595 6.20521 12.15 6 12.15C5.79479 12.15 5.60101 12.0595 5.47467 11.9047C4.38933 10.5762 2 7.46468 2 5.82979C2 3.71465 3.79086 2 6 2V2Z" stroke="currentColor" stroke-linecap="round" stroke-linejoin="round"/><path d="M18 14.5097C18.1841 14.5097 18.3333 14.6526 18.3333 14.8289" stroke="currentColor" stroke-linecap="round" stroke-linejoin="round"/><path d="M17.6666 14.8289C17.6666 14.6526 17.8159 14.5097 18 14.5097" stroke="currentColor" stroke-linecap="round" stroke-linejoin="round"/><path d="M18 15.1489C17.8159 15.1489 17.6666 15.006 17.6666 14.8297" stroke="currentColor" stroke-linecap="round" stroke-linejoin="round"/><path d="M18.3333 14.829C18.3333 15.0052 18.1841 15.1481 18 15.1481" stroke="currentColor" stroke-linecap="round" stroke-linejoin="round"/><path clip-rule="evenodd" d="M18 10.9991C20.2091 10.9991 22 12.7138 22 14.8289C22 16.4638 19.6107 19.5745 18.5253 20.9038C18.399 21.0587 18.2052 21.1491 18 21.1491C17.7948 21.1491 17.601 21.0587 17.4747 20.9038C16.3893 19.5745 14 16.4638 14 14.8289C14 12.7138 15.7909 10.9991 18 10.9991V10.9991Z" stroke="currentColor" stroke-linecap="round" stroke-linejoin="round"/><path d="M6 14.7659V17.3191" stroke="currentColor" stroke-linecap="round" stroke-linejoin="round"/><path d="M6 19.8723C6 20.5774 6.59695 21.1489 7.33333 21.1489H8.66667" stroke="currentColor" stroke-linecap="round" stroke-linejoin="round"/><path d="M11.3334 21.1489H12.6667" stroke="currentColor" stroke-linecap="round" stroke-linejoin="round"/></svg>