<svg viewBox="0 0 24 24" fill="none" xmlns="http://www.w3.org/2000/svg"><path clip-rule="evenodd" d="M11.7111 18.71L6.61107 13.61C5.72189 12.7205 5.72212 11.2787 6.61157 10.3895C7.50103 9.50032 8.94289 9.50055 9.83207 10.39L13.0771 13.634L19.1531 5.534C19.6413 4.88324 20.4396 4.54237 21.2472 4.63979C22.0549 4.7372 22.7493 5.25811 23.0687 6.00629C23.3882 6.75446 23.2843 7.61624 22.7961 8.267L15.1441 18.467C14.7481 18.9957 14.142 19.3263 13.4831 19.3729C12.8242 19.4195 12.1776 19.1776 11.7111 18.71Z" stroke="currentColor" stroke-linejoin="round"/><path d="M11.7051 8.537L13.9581 5.531C14.5252 4.776 15.4991 4.44872 16.4071 4.708" stroke="currentColor" stroke-linecap="round" stroke-linejoin="round"/><path d="M8.89108 19.246C8.06292 19.5403 7.13934 19.3317 6.51807 18.71L1.41808 13.61C0.664966 12.8588 0.532251 11.6864 1.09841 10.7859C1.66457 9.88538 2.77873 9.49684 3.78208 9.85" stroke="currentColor" stroke-linecap="round" stroke-linejoin="round"/></svg>