<svg viewBox="0 0 24 25" fill="none" xmlns="http://www.w3.org/2000/svg"><path d="M18 14.5H16.1929C15.916 14.5002 15.6477 14.5967 15.4342 14.7731C15.2206 14.9494 15.0751 15.1946 15.0225 15.4665C14.97 15.7384 15.0137 16.0202 15.1461 16.2634C15.2786 16.5066 15.4915 16.6962 15.7485 16.7996L17.5831 17.5338C17.8401 17.6372 18.053 17.8267 18.1855 18.0699C18.3179 18.3132 18.3616 18.5949 18.3091 18.8668C18.2565 19.1387 18.111 19.3839 17.8974 19.5602C17.6839 19.7366 17.4156 19.8331 17.1387 19.8333H15.3334" stroke="currentColor" stroke-width="1.0" stroke-linecap="round" stroke-linejoin="round"/><path d="M16.6666 14.5V13.8333" stroke="currentColor" stroke-width="1.0" stroke-linecap="round" stroke-linejoin="round"/><path d="M16.6666 20.5V19.8333" stroke="currentColor" stroke-width="1.0" stroke-linecap="round" stroke-linejoin="round"/><path d="M11.3334 17.1666C11.3334 18.5811 11.8953 19.9377 12.8955 20.9379C13.8957 21.9381 15.2522 22.5 16.6667 22.5C18.0812 22.5 19.4378 21.9381 20.4379 20.9379C21.4381 19.9377 22 18.5811 22 17.1666C22 15.7522 21.4381 14.3956 20.4379 13.3954C19.4378 12.3952 18.0812 11.8333 16.6667 11.8333C15.2522 11.8333 13.8957 12.3952 12.8955 13.3954C11.8953 14.3956 11.3334 15.7522 11.3334 17.1666Z" stroke="currentColor" stroke-width="1.0" stroke-linecap="round" stroke-linejoin="round"/><path d="M4.66663 7.83331H14" stroke="currentColor" stroke-width="1.0" stroke-linecap="round" stroke-linejoin="round"/><path d="M4.66663 11.8333H9.99996" stroke="currentColor" stroke-width="1.0" stroke-linecap="round" stroke-linejoin="round"/><path d="M4.66663 15.8333H7.99996" stroke="currentColor" stroke-width="1.0" stroke-linecap="round" stroke-linejoin="round"/><path d="M8 19.8333H3.33333C2.97971 19.8333 2.64057 19.6929 2.39052 19.4428C2.14048 19.1928 2 18.8536 2 18.5V3.83333C2 3.47971 2.14048 3.14057 2.39052 2.89052C2.64057 2.64048 2.97971 2.5 3.33333 2.5H12.7813C13.1347 2.50008 13.4736 2.64043 13.7236 2.89022L16.2764 5.44311C16.5262 5.69307 16.6666 6.03196 16.6667 6.38533V9.16667" stroke="currentColor" stroke-width="1.0" stroke-linecap="round" stroke-linejoin="round"/></svg>