<svg viewBox="0 0 24 24" fill="none" xmlns="http://www.w3.org/2000/svg"><path d="M16.2818 15.7663H14.2188V22.398C18.9501 21.3738 22.5 17.139 22.5 12.0672C22.5 6.22823 17.7961 1.5 12 1.5C6.20387 1.5 1.5 6.22823 1.5 12.0672C1.5 17.139 5.04989 21.3738 9.78125 22.398V15.7663H7.48828H6.98828V15.2663V12.0672V11.5672H7.48828H9.78125V9.62898C9.78125 8.14319 10.223 6.92812 11.0616 6.0836C11.9001 5.2392 13.0779 4.82314 14.4361 4.82314C15.0646 4.82314 15.7013 4.87937 16.1763 4.93455C16.4149 4.96227 16.6151 4.99002 16.7562 5.01091C16.8268 5.02137 16.8827 5.03013 16.9213 5.03634L16.9661 5.04365L16.9782 5.04567L16.9815 5.04624L16.9825 5.04641L16.9828 5.04647L16.983 5.04649L16.8984 5.53929L16.9831 5.0465L17.3984 5.11783V5.53929V8.26287V8.76287H16.8984H15.5114C14.9377 8.76287 14.6429 8.93731 14.4818 9.12473C14.3087 9.32619 14.2188 9.6256 14.2188 9.99119V11.5672H16.7695H17.3515L17.2638 12.1426L16.7761 15.3417L16.7114 15.7663H16.2818Z" stroke="currentColor"/></svg>