<svg viewBox="0 0 24 24" fill="none" xmlns="http://www.w3.org/2000/svg"><path d="M13.2634 18.3198H23.3741" stroke="currentColor" stroke-linecap="round" stroke-linejoin="round"/><path d="M0.625 18.3198H5.68033" stroke="currentColor" stroke-linecap="round" stroke-linejoin="round"/><path clip-rule="evenodd" d="M13.2634 18.3198C13.2634 20.4136 11.5662 22.111 9.47248 22.1113C7.37871 22.1116 5.68104 20.4147 5.68042 18.321C5.6798 16.2272 7.37647 14.5293 9.47024 14.5283C10.4761 14.5279 11.4409 14.9271 12.1523 15.6382C12.8637 16.3493 13.2634 17.314 13.2634 18.3198V18.3198Z" stroke="currentColor" stroke-linecap="round" stroke-linejoin="round"/><path d="M15.791 5.6815H0.625" stroke="currentColor" stroke-linecap="round" stroke-linejoin="round"/><path clip-rule="evenodd" d="M23.374 5.6815C23.374 3.58773 21.6768 1.89031 19.5831 1.89C17.4893 1.88969 15.7916 3.58661 15.791 5.68038C15.7904 7.77414 17.4871 9.47207 19.5808 9.473C21.6751 9.473 23.3731 7.77576 23.374 5.6815Z" stroke="currentColor" stroke-linecap="round" stroke-linejoin="round"/></svg>