<svg viewBox="0 0 24 24" xmlns="http://www.w3.org/2000/svg"><g transform="matrix(1,0,0,1,0,0)"><path d="M15.75.75a3,3,0,0,0-3,3v3h-9a3,3,0,0,0-3,3v10.5a3,3,0,0,0,3,3h16.5a3,3,0,0,0,3-3V3.75a3,3,0,0,0-3-3Z" fill="none" stroke="currentColor" stroke-linecap="round" stroke-linejoin="round" stroke-width="1.0"/><path d="M20.25,5.25a1.5,1.5,0,0,0-1.5-1.5h-1.5a1.5,1.5,0,0,0,0,3h1.5A1.5,1.5,0,0,0,20.25,5.25Z" fill="none" stroke="currentColor" stroke-linecap="round" stroke-linejoin="round" stroke-width="1.0"/><path d="M4.75,3.75h4a1,1,0,0,1,1,1v2a0,0,0,0,1,0,0h-6a0,0,0,0,1,0,0v-2A1,1,0,0,1,4.75,3.75Z" fill="none" stroke="currentColor" stroke-linecap="round" stroke-linejoin="round" stroke-width="1.0"/><path d="M6.75 9.75L17.25 20.25" fill="none" stroke="currentColor" stroke-linecap="round" stroke-linejoin="round" stroke-width="1.0"/><path d="M6.75 20.25L17.25 9.75" fill="none" stroke="currentColor" stroke-linecap="round" stroke-linejoin="round" stroke-width="1.0"/></g></svg>