<svg viewBox="0 0 24 24" fill="none" xmlns="http://www.w3.org/2000/svg"><rect x="2" y="2" width="13.3333" height="20" rx="1" stroke="currentColor" stroke-linecap="round" stroke-linejoin="round"/><path clip-rule="evenodd" d="M12.6667 5.99999C12.6667 5.26361 12.0698 4.66666 11.3334 4.66666H6.00008C5.2637 4.66666 4.66675 5.26361 4.66675 5.99999C4.66675 6.73637 5.2637 7.33332 6.00008 7.33332H11.3334C12.0698 7.33332 12.6667 6.73637 12.6667 5.99999Z" stroke="currentColor" stroke-linecap="round" stroke-linejoin="round"/><path d="M2 10H15.3333" stroke="currentColor" stroke-linecap="round" stroke-linejoin="round"/><path d="M15.3335 6H16.6668C17.4032 6 18.0002 6.59695 18.0002 7.33333V20.6667C18.0002 21.403 18.5971 22 19.3335 22C20.0699 22 20.6668 21.403 20.6668 20.6667V12.6667C20.6667 11.7967 20.9241 10.9462 21.4064 10.2222L22.0002 9.33333" stroke="currentColor" stroke-linecap="round" stroke-linejoin="round"/><path d="M20.6667 12.6667H22.0001" stroke="currentColor" stroke-linecap="round" stroke-linejoin="round"/></svg>