<svg viewBox="0 0 18 18" fill="none" xmlns="http://www.w3.org/2000/svg"><path d="M7.36621 11.2632V11.0673C7.36621 9.92817 8.28962 9.00476 9.42871 9.00476C10.5678 9.00476 11.4912 9.92817 11.4912 11.0673V11.2632" stroke="currentColor" stroke-width="1.0" stroke-linecap="round" stroke-linejoin="round"/><path d="M10.9766 4.36414L9.42969 9.00476" stroke="currentColor" stroke-width="1.0" stroke-linecap="round" stroke-linejoin="round"/><path d="M5.5625 5.91101C5.42011 5.91101 5.30469 6.02644 5.30469 6.16882C5.30469 6.31121 5.42011 6.42664 5.5625 6.42664C5.70489 6.42664 5.82031 6.31121 5.82031 6.16882C5.82031 6.02644 5.70489 5.91101 5.5625 5.91101V5.91101" stroke="currentColor" stroke-width="1.0" stroke-linecap="round" stroke-linejoin="round"/><path d="M14.3281 8.48914C14.1857 8.48914 14.0703 8.60456 14.0703 8.74695C14.0703 8.88933 14.1857 9.00476 14.3281 9.00476C14.4705 9.00476 14.5859 8.88933 14.5859 8.74695C14.5859 8.60456 14.4705 8.48914 14.3281 8.48914V8.48914" stroke="currentColor" stroke-width="1.0" stroke-linecap="round" stroke-linejoin="round"/><path d="M13.2973 5.91101C13.1929 5.91046 13.0985 5.97292 13.0581 6.06921C13.0178 6.1655 13.0395 6.27662 13.1131 6.35064C13.1867 6.42465 13.2977 6.44697 13.3942 6.40714C13.4908 6.36732 13.5537 6.27323 13.5537 6.16883C13.5537 6.02644 13.4383 5.91101 13.2959 5.91101V5.91101" stroke="currentColor" stroke-width="1.0" stroke-linecap="round" stroke-linejoin="round"/><path d="M7.625 3.84851C7.48261 3.84851 7.36719 3.96394 7.36719 4.10632C7.36719 4.24871 7.48261 4.36414 7.625 4.36414C7.76739 4.36414 7.88281 4.24871 7.88281 4.10632C7.88281 3.96394 7.76739 3.84851 7.625 3.84851V3.84851" stroke="currentColor" stroke-width="1.0" stroke-linecap="round" stroke-linejoin="round"/><path d="M15.9129 13.2226C12.068 10.3488 6.79021 10.3488 2.94531 13.2226" stroke="currentColor" stroke-width="1.0" stroke-linecap="round" stroke-linejoin="round"/><path clip-rule="evenodd" d="M9.42871 16.7391C13.7003 16.7391 17.1631 13.2763 17.1631 9.00476C17.1631 4.73318 13.7003 1.27039 9.42871 1.27039C5.15713 1.27039 1.69434 4.73318 1.69434 9.00476C1.69434 13.2763 5.15713 16.7391 9.42871 16.7391Z" stroke="currentColor" stroke-width="1.0" stroke-linecap="round" stroke-linejoin="round"/><path d="M4.53125 8.48914C4.38886 8.48914 4.27344 8.60456 4.27344 8.74695C4.27344 8.88933 4.38886 9.00476 4.53125 9.00476C4.67364 9.00476 4.78906 8.88933 4.78906 8.74695C4.78906 8.60456 4.67364 8.48914 4.53125 8.48914" stroke="currentColor" stroke-width="1.0" stroke-linecap="round" stroke-linejoin="round"/></svg>