<svg viewBox="0 0 24 24" fill="none" xmlns="http://www.w3.org/2000/svg"><path clip-rule="evenodd" d="M12 23.25C18.2132 23.25 23.25 18.2132 23.25 12C23.25 5.7868 18.2132 0.75 12 0.75C5.7868 0.75 0.75 5.7868 0.75 12C0.75 18.2132 5.7868 23.25 12 23.25Z" stroke="currentColor" stroke-linecap="round" stroke-linejoin="round"/><path d="M9.289 22.921C7.767 20.689 6.75 16.633 6.75 12C6.75 7.36698 7.767 3.31098 9.289 1.07898" stroke="currentColor" stroke-linecap="round" stroke-linejoin="round"/><path d="M0.75 12H23.25" stroke="currentColor" stroke-linecap="round" stroke-linejoin="round"/><path d="M2.48206 18H21.5181" stroke="currentColor" stroke-linecap="round" stroke-linejoin="round"/><path d="M2.48206 6H21.5181" stroke="currentColor" stroke-linecap="round" stroke-linejoin="round"/><path d="M14.7111 1.07898C16.2331 3.31098 17.2501 7.36698 17.2501 12C17.2501 16.633 16.2331 20.689 14.7111 22.921" stroke="currentColor" stroke-linecap="round" stroke-linejoin="round"/></svg>