<svg viewBox="0 0 24 24" fill="none" xmlns="http://www.w3.org/2000/svg"><path d="M3.27295 6.01221H9.8184" stroke="currentColor" stroke-linejoin="round"/><path d="M20.5 15.5C21.5 17.5 19 18 19 18L14.1816 14.0909" stroke="currentColor" stroke-linecap="round" stroke-linejoin="round"/><path d="M18.5455 17.9528C18.5455 18.4541 18.5455 20.9605 15.5703 18.9554C12.1432 16.6457 12 16.4489 12 16.4489" stroke="currentColor" stroke-linecap="round" stroke-linejoin="round"/><path d="M10.2148 18.1884L14.1421 21.1605C14.7967 21.5568 16.2367 21.8738 16.7603 19.9717" stroke="currentColor" stroke-linecap="round" stroke-linejoin="round"/><path d="M2.72705 14.6364L9.46305 20.5013C10.3052 21.2783 12.3683 22.4827 13.8841 21.0841" stroke="currentColor" stroke-linejoin="round"/><path d="M18.7636 5.22244C20.1917 5.68629 20.6776 5.9091 21.2727 5.9091V15.7273H20.7272L12.2182 8.70121L11.0281 9.86085C11.0281 9.86085 8.33055 12.0547 6.54541 9.73544C7.14075 8.5758 6.86263 9.16521 9.24281 6.38208C12.218 2.90316 16.9784 4.64262 18.7636 5.22244Z" stroke="currentColor" stroke-linejoin="round"/><path fill-rule="evenodd" clip-rule="evenodd" d="M1.09091 5.36364V15.1818H2.18182V5.36364H1.09091ZM0.545455 4.27274C0.244208 4.27274 0 4.51694 0 4.81819V15.7273C0 16.0285 0.244208 16.2727 0.545455 16.2727H2.72727C3.02852 16.2727 3.27273 16.0285 3.27273 15.7273V4.81819C3.27273 4.51694 3.02852 4.27274 2.72727 4.27274H0.545455Z" fill="currentColor"/><path fill-rule="evenodd" clip-rule="evenodd" d="M21.818 5.36364V15.1818H22.9089V5.36364H21.818ZM21.2725 4.27274C20.9713 4.27274 20.7271 4.51694 20.7271 4.81819V15.7273C20.7271 16.0285 20.9713 16.2727 21.2725 16.2727H23.4543C23.7556 16.2727 23.9998 16.0285 23.9998 15.7273V4.81819C23.9998 4.51694 23.7556 4.27274 23.4543 4.27274H21.2725Z" fill="currentColor"/></svg>