<svg viewBox="0 0 24 24" fill="none" xmlns="http://www.w3.org/2000/svg"><g clip-path="url(#clip0_536_63)"><path d="M20.8427 14.3761L14.9333 15.5494" stroke="currentColor" stroke-width="1.0" stroke-linecap="round" stroke-linejoin="round"/><path d="M3.12537 14.3867H5.7387L9.4827 18.5894C9.61851 18.7385 9.78293 18.8588 9.96617 18.9431C10.1494 19.0274 10.3478 19.0739 10.5494 19.08C12.729 17.5112 14.7767 15.7667 16.672 13.864C16.7894 13.5334 16.5654 13.2027 16.3627 12.9254L13.6854 9.46936" stroke="currentColor" stroke-width="1.0" stroke-linecap="round" stroke-linejoin="round"/><path d="M10.4854 6.79208L10.1121 6.47208C9.72859 6.19919 9.27072 6.05029 8.80007 6.04542C8.51504 6.04481 8.23255 6.09913 7.96807 6.20542L3.20007 8.10408" stroke="currentColor" stroke-width="1.0" stroke-linecap="round" stroke-linejoin="round"/><path d="M0 6.2801H2.13333C2.40205 6.27923 2.66119 6.37983 2.85895 6.56176C3.0567 6.7437 3.1785 6.99357 3.2 7.26143V14.1094C3.17597 14.3754 3.05307 14.6226 2.85557 14.8024C2.65808 14.9821 2.40036 15.0812 2.13333 15.0801H0" stroke="currentColor" stroke-width="1.0" stroke-linecap="round" stroke-linejoin="round"/><path d="M24 15.0801H21.8667C21.5997 15.0812 21.342 14.9821 21.1445 14.8024C20.947 14.6226 20.8241 14.3754 20.8 14.1094V7.26143C20.8215 6.99357 20.9433 6.7437 21.1411 6.56176C21.3389 6.37983 21.598 6.27923 21.8667 6.2801H24" stroke="currentColor" stroke-width="1.0" stroke-linecap="round" stroke-linejoin="round"/><path d="M14.9334 9.0534L11.2534 10.2694C10.8476 10.4113 10.4032 10.3958 10.0082 10.226C9.61323 10.0561 9.29631 9.74427 9.12011 9.35207C8.93028 8.94346 8.90648 8.47712 9.05372 8.0513C9.20096 7.62549 9.50775 7.27346 9.90944 7.0694L13.4934 5.26673C13.8435 5.08861 14.2313 4.99716 14.6241 5.00007C14.9149 5.00202 15.2033 5.0525 15.4774 5.1494L20.8108 7.09073" stroke="currentColor" stroke-width="1.0" stroke-linecap="round" stroke-linejoin="round"/></g><defs><clipPath id="clip0_536_63"><rect width="24" height="24" fill="currentColor"/></clipPath></defs></svg>