<svg viewBox="0 0 24 24" fill="none" xmlns="http://www.w3.org/2000/svg"><path clip-rule="evenodd" d="M3.75 13.75C3.75 13.1977 4.19772 12.75 4.75 12.75H7.25C7.80228 12.75 8.25 13.1977 8.25 13.75V22.25C8.25 22.8023 7.80228 23.25 7.25 23.25H4.75C4.19772 23.25 3.75 22.8023 3.75 22.25V13.75Z" stroke="currentColor" stroke-linecap="round" stroke-linejoin="round"/><path clip-rule="evenodd" d="M15.75 13.75C15.75 13.1977 16.1977 12.75 16.75 12.75H19.25C19.8023 12.75 20.25 13.1977 20.25 13.75V22.25C20.25 22.8023 19.8023 23.25 19.25 23.25H16.75C16.1977 23.25 15.75 22.8023 15.75 22.25V13.75Z" stroke="currentColor" stroke-linecap="round" stroke-linejoin="round"/><path d="M0.75 18V12C0.75 5.7868 5.7868 0.75 12 0.75C18.2132 0.75 23.25 5.7868 23.25 12V18" stroke="currentColor" stroke-linecap="round" stroke-linejoin="round"/></svg>