<svg viewBox="0 0 24 24" fill="none" xmlns="http://www.w3.org/2000/svg"><path d="M17.6225 15.4312C17.42 15.4312 17.2559 15.5953 17.2559 15.7978C17.2559 16.0003 17.42 16.1645 17.6225 16.1645C17.825 16.1645 17.9892 16.0003 17.9892 15.7978C17.9892 15.5953 17.825 15.4312 17.6225 15.4312V15.4312" stroke="currentColor" stroke-linecap="round" stroke-linejoin="round"/><path clip-rule="evenodd" d="M17.6227 11.3978C20.0527 11.3978 22.0227 13.3677 22.0227 15.7978C22.0227 17.6761 19.3944 21.2499 18.2005 22.7771C18.0615 22.955 17.8484 23.059 17.6227 23.059C17.3969 23.059 17.1838 22.955 17.0448 22.7771C15.8509 21.2508 13.2227 17.6761 13.2227 15.7978C13.2227 13.3677 15.1926 11.3978 17.6227 11.3978Z" stroke="currentColor" stroke-linecap="round" stroke-linejoin="round"/><path d="M3.93335 12.7991V20.8658H9.80002V14.9991C9.80002 14.1891 10.4567 13.5325 11.2667 13.5325" stroke="currentColor" stroke-linecap="round" stroke-linejoin="round"/><path d="M1 11.3329L10.9636 1.37034C11.5363 0.797778 12.4647 0.797778 13.0374 1.37034L23 11.3329" stroke="currentColor" stroke-linecap="round" stroke-linejoin="round"/><path d="M16.3999 4.73247V3.26581H20.0666V8.39914" stroke="currentColor" stroke-linecap="round" stroke-linejoin="round"/></svg>