<svg viewBox="0 0 24 24" fill="none" xmlns="http://www.w3.org/2000/svg"><path d="M22.868 8.947L12 0.747002L1.122 8.947C0.897113 9.15452 0.76189 9.44147 0.744995 9.747V22.269C0.745786 22.5281 0.849079 22.7764 1.03232 22.9597C1.21556 23.1429 1.46386 23.2462 1.723 23.247H8.245V18C8.245 17.0054 8.64008 16.0516 9.34334 15.3484C10.0466 14.6451 11.0004 14.25 11.995 14.25C12.9896 14.25 13.9434 14.6451 14.6466 15.3484C15.3499 16.0516 15.745 17.0054 15.745 18V23.25H22.266C22.5252 23.2492 22.7736 23.146 22.957 22.9627C23.1404 22.7795 23.2439 22.5312 23.245 22.272V9.747C23.2277 9.44157 23.0925 9.15478 22.868 8.947Z" stroke="currentColor" stroke-linecap="round" stroke-linejoin="round"/></svg>