<svg viewBox="0 0 24 24" fill="none" xmlns="http://www.w3.org/2000/svg"><path d="M5.625 8.625C5.625 8.96972 5.6929 9.31106 5.82482 9.62954C5.95673 9.94802 6.15009 10.2374 6.39384 10.4812C6.6376 10.7249 6.92698 10.9183 7.24546 11.0502C7.56394 11.1821 7.90528 11.25 8.25 11.25C8.59472 11.25 8.93606 11.1821 9.25454 11.0502C9.57302 10.9183 9.8624 10.7249 10.1062 10.4812C10.3499 10.2374 10.5433 9.94802 10.6752 9.62954C10.8071 9.31106 10.875 8.96972 10.875 8.625C10.875 8.28028 10.8071 7.93894 10.6752 7.62046C10.5433 7.30198 10.3499 7.0126 10.1062 6.76884C9.8624 6.52509 9.57302 6.33173 9.25454 6.19982C8.93606 6.0679 8.59472 6 8.25 6C7.90528 6 7.56394 6.0679 7.24546 6.19982C6.92698 6.33173 6.6376 6.52509 6.39384 6.76884C6.15009 7.0126 5.95673 7.30198 5.82482 7.62046C5.6929 7.93894 5.625 8.28028 5.625 8.625V8.625Z" stroke="currentColor" stroke-linecap="round" stroke-linejoin="round"/><path d="M3.75 16.5C3.75 15.3065 4.22411 14.1619 5.06802 13.318C5.91193 12.4741 7.05653 12 8.25 12C9.44347 12 10.5881 12.4741 11.432 13.318C12.2759 14.1619 12.75 15.3065 12.75 16.5H3.75Z" stroke="currentColor" stroke-linecap="round" stroke-linejoin="round"/><path d="M14.25 9H18.75" stroke="currentColor" stroke-linecap="round" stroke-linejoin="round"/><path d="M14.25 12H20.25" stroke="currentColor" stroke-linecap="round" stroke-linejoin="round"/><path d="M21.75 3H2.25C1.85218 3 1.47064 3.15804 1.18934 3.43934C0.908035 3.72064 0.75 4.10218 0.75 4.5V19.5C0.75 19.8978 0.908035 20.2794 1.18934 20.5607C1.47064 20.842 1.85218 21 2.25 21H5.25C5.25 20.6022 5.40804 20.2206 5.68934 19.9393C5.97064 19.658 6.35218 19.5 6.75 19.5C7.14782 19.5 7.52936 19.658 7.81066 19.9393C8.09196 20.2206 8.25 20.6022 8.25 21H15.75C15.75 20.6022 15.908 20.2206 16.1893 19.9393C16.4706 19.658 16.8522 19.5 17.25 19.5C17.6478 19.5 18.0294 19.658 18.3107 19.9393C18.592 20.2206 18.75 20.6022 18.75 21H21.75C22.1478 21 22.5294 20.842 22.8107 20.5607C23.092 20.2794 23.25 19.8978 23.25 19.5V4.5C23.25 4.10218 23.092 3.72064 22.8107 3.43934C22.5294 3.15804 22.1478 3 21.75 3Z" stroke="currentColor" stroke-linecap="round" stroke-linejoin="round"/></svg>