<svg viewBox="0 0 24 24" fill="none" xmlns="http://www.w3.org/2000/svg"><path d="M14.0001 16H13.3334C12.597 16 12.0001 15.4031 12.0001 14.6667V11.3333C12.0001 10.9651 11.7016 10.6667 11.3334 10.6667H10.6667" stroke="currentColor" stroke-linecap="round" stroke-linejoin="round"/><path d="M11.6667 7.33334C11.4826 7.33334 11.3334 7.48257 11.3334 7.66667C11.3334 7.85076 11.4826 8 11.6667 8C11.8508 8 12 7.85076 12 7.66667C12 7.48257 11.8508 7.33334 11.6667 7.33334V7.33334" stroke="currentColor" stroke-linecap="round" stroke-linejoin="round"/><path clip-rule="evenodd" d="M12 22C17.5228 22 22 17.5228 22 12C22 6.47715 17.5228 2 12 2C6.47715 2 2 6.47715 2 12C2 17.5228 6.47715 22 12 22Z" stroke="currentColor" stroke-linecap="round" stroke-linejoin="round"/></svg>