<svg viewBox="0 0 24 24" fill="none" xmlns="http://www.w3.org/2000/svg"><path d="M12 1.00005C9.01256 1.00005 8.63797 1.01271 7.4647 1.06624C6.29388 1.11964 5.49425 1.30561 4.79456 1.57751C4.07122 1.85862 3.45778 2.23475 2.84624 2.84627C2.23471 3.45779 1.85859 4.07128 1.57748 4.79462C1.30557 5.4943 1.11962 6.29393 1.06618 7.46475C1.01266 8.63801 1 9.01261 1 12C1 14.9874 1.01266 15.362 1.06618 16.5353C1.11962 17.7061 1.30557 18.5057 1.57748 19.2054C1.85859 19.9288 2.23471 20.5422 2.84624 21.1538C3.45778 21.7653 4.07122 22.1414 4.79456 22.4225C5.49425 22.6944 6.29388 22.8804 7.4647 22.9338C8.63797 22.9873 9.01256 23 12 23C14.9874 23 15.362 22.9873 16.5353 22.9338C17.7061 22.8804 18.5057 22.6944 19.2054 22.4225C19.9287 22.1414 20.5422 21.7653 21.1537 21.1538C21.7653 20.5422 22.1414 19.9288 22.4225 19.2054C22.6944 18.5057 22.8804 17.7061 22.9338 16.5353C22.9873 15.362 23 14.9874 23 12C23 9.01261 22.9873 8.63801 22.9338 7.46475C22.8804 6.29393 22.6944 5.4943 22.4225 4.79462C22.1414 4.07128 21.7653 3.45779 21.1537 2.84627C20.5422 2.23475 19.9287 1.85862 19.2054 1.57751C18.5057 1.30561 17.7061 1.11964 16.5353 1.06624C15.362 1.01271 14.9874 1.00005 12 1.00005ZM12 2.98202C14.9371 2.98202 15.285 2.99324 16.4449 3.04616C17.5174 3.09507 18.0998 3.27427 18.4874 3.42491C19.0009 3.62446 19.3673 3.86282 19.7522 4.24772C20.1372 4.63267 20.3755 4.9991 20.5751 5.51255C20.7257 5.90016 20.9049 6.4826 20.9538 7.55509C21.0068 8.71499 21.018 9.06291 21.018 12C21.018 14.9371 21.0068 15.2851 20.9538 16.445C20.9049 17.5174 20.7257 18.0999 20.5751 18.4875C20.3755 19.0009 20.1372 19.3674 19.7522 19.7523C19.3673 20.1372 19.0009 20.3756 18.4874 20.5751C18.0998 20.7258 17.5174 20.905 16.4449 20.9539C15.2852 21.0068 14.9373 21.018 12 21.018C9.06264 21.018 8.71481 21.0068 7.55504 20.9539C6.48256 20.905 5.90011 20.7258 5.51251 20.5751C4.99905 20.3756 4.63263 20.1372 4.24772 19.7523C3.8628 19.3674 3.62441 19.0009 3.42486 18.4875C3.27422 18.0999 3.09504 17.5174 3.04611 16.445C2.99318 15.2851 2.98197 14.9371 2.98197 12C2.98197 9.06291 2.99318 8.71499 3.04611 7.55509C3.09504 6.4826 3.27422 5.90016 3.42486 5.51255C3.62441 4.9991 3.86279 4.63267 4.2477 4.24777C4.63263 3.86282 4.99905 3.62446 5.51251 3.42491C5.90011 3.27427 6.48256 3.09507 7.55504 3.04616C8.71495 2.99324 9.06286 2.98202 12 2.98202Z" fill="currentColor"/><path d="M12.0001 15.6666C9.97502 15.6666 8.33341 14.025 8.33341 11.9999C8.33341 9.97488 9.97502 8.33327 12.0001 8.33327C14.0251 8.33327 15.6667 9.97488 15.6667 11.9999C15.6667 14.025 14.0251 15.6666 12.0001 15.6666ZM12.0001 6.35129C8.8804 6.35129 6.35144 8.88025 6.35144 11.9999C6.35144 15.1196 8.8804 17.6486 12.0001 17.6486C15.1197 17.6486 17.6487 15.1196 17.6487 11.9999C17.6487 8.88025 15.1197 6.35129 12.0001 6.35129Z" fill="currentColor"/><path d="M19.1919 6.12826C19.1919 6.85729 18.6009 7.44824 17.8719 7.44824C17.1429 7.44824 16.5519 6.85729 16.5519 6.12826C16.5519 5.39924 17.1429 4.80824 17.8719 4.80824C18.6009 4.80824 19.1919 5.39924 19.1919 6.12826Z" fill="currentColor"/></svg>