<svg viewBox="0 0 24 24" fill="none" xmlns="http://www.w3.org/2000/svg"><path d="M2 12C2 12.5304 2.21071 13.0391 2.58579 13.4142C2.96086 13.7893 3.46957 14 4 14C4.53043 14 5.03914 13.7893 5.41421 13.4142C5.78929 13.0391 6 12.5304 6 12C6 11.4696 5.78929 10.9609 5.41421 10.5858C5.03914 10.2107 4.53043 10 4 10C3.46957 10 2.96086 10.2107 2.58579 10.5858C2.21071 10.9609 2 11.4696 2 12V12Z" fill="currentColor"/><path d="M18 12C18 12.2626 18.0517 12.5227 18.1522 12.7654C18.2527 13.008 18.4001 13.2285 18.5858 13.4142C18.7715 13.5999 18.992 13.7473 19.2346 13.8478C19.4773 13.9483 19.7374 14 20 14C20.2626 14 20.5227 13.9483 20.7654 13.8478C21.008 13.7473 21.2285 13.5999 21.4142 13.4142C21.5999 13.2285 21.7473 13.008 21.8478 12.7654C21.9483 12.5227 22 12.2626 22 12C22 11.7374 21.9483 11.4773 21.8478 11.2346C21.7473 10.992 21.5999 10.7715 21.4142 10.5858C21.2285 10.4001 21.008 10.2528 20.7654 10.1522C20.5227 10.0517 20.2626 10 20 10C19.7374 10 19.4773 10.0517 19.2346 10.1522C18.992 10.2528 18.7715 10.4001 18.5858 10.5858C18.4001 10.7715 18.2527 10.992 18.1522 11.2346C18.0517 11.4773 18 11.7374 18 12V12Z" fill="currentColor"/><path d="M10 12C10 12.5304 10.2107 13.0391 10.5858 13.4142C10.9609 13.7893 11.4696 14 12 14C12.5304 14 13.0391 13.7893 13.4142 13.4142C13.7893 13.0391 14 12.5304 14 12C14 11.4696 13.7893 10.9609 13.4142 10.5858C13.0391 10.2107 12.5304 10 12 10C11.4696 10 10.9609 10.2107 10.5858 10.5858C10.2107 10.9609 10 11.4696 10 12V12Z" fill="currentColor"/></svg>