<svg viewBox="0 0 24 24" fill="none" xmlns="http://www.w3.org/2000/svg"><path d="M17.3184 20.0027H19.9824" stroke="currentColor" stroke-linecap="round" stroke-linejoin="round"/><path d="M18.6504 18.6707V21.3348" stroke="currentColor" stroke-linecap="round" stroke-linejoin="round"/><path d="M2 6.01636H5.99611" stroke="currentColor" stroke-linecap="round" stroke-linejoin="round"/><path d="M3.99805 4.01825V8.01436" stroke="currentColor" stroke-linecap="round" stroke-linejoin="round"/><path d="M13.9696 7.84659C13.9696 8.42596 14.1998 8.98161 14.6094 9.39129C15.0191 9.80097 15.5748 10.0311 16.1541 10.0311C16.7335 10.0311 17.2892 9.80097 17.6988 9.39129C18.1085 8.98161 18.3387 8.42596 18.3387 7.84659C18.3387 7.26721 18.1085 6.71157 17.6988 6.30189C17.2892 5.8922 16.7335 5.66205 16.1541 5.66205C15.5748 5.66205 15.0191 5.8922 14.6094 6.30189C14.1998 6.71157 13.9696 7.26721 13.9696 7.84659V7.84659Z" stroke="currentColor" stroke-linecap="round" stroke-linejoin="round"/><path d="M10.9726 10.4529L2.53641 18.8892C2.19491 19.2307 2.00305 19.6938 2.00305 20.1768C2.00305 20.6597 2.19491 21.1229 2.53641 21.4644C2.87791 21.8059 3.34109 21.9978 3.82404 21.9978C4.307 21.9978 4.77017 21.8059 5.11168 21.4644L6.39487 20.1803L7.68961 21.4751C7.96281 21.7483 8.33335 21.9018 8.71972 21.9018C9.10608 21.9018 9.47662 21.7483 9.74982 21.4751C10.023 21.2019 10.1765 20.8313 10.1765 20.445C10.1765 20.0586 10.023 19.6881 9.74982 19.4149L8.45597 18.1201L13.5479 13.0282C14.7846 13.6526 16.2034 13.8158 17.5496 13.4887C18.8958 13.1615 20.0814 12.3653 20.8937 11.243C21.7059 10.1207 22.0916 8.74564 21.9816 7.36461C21.8717 5.98357 21.2732 4.68692 20.2935 3.70729C19.3139 2.72766 18.0173 2.12917 16.6362 2.01919C15.2552 1.90921 13.8802 2.29494 12.7578 3.10718C11.6355 3.91942 10.8393 5.10501 10.5122 6.45123C10.185 7.79745 10.3483 9.2162 10.9726 10.4529Z" stroke="currentColor" stroke-linecap="round" stroke-linejoin="round"/></svg>