<svg viewBox="0 0 24 24" fill="none" xmlns="http://www.w3.org/2000/svg"><path clip-rule="evenodd" d="M12.6766 10.0495C12.6759 7.27858 10.5509 4.96997 7.78691 4.73733C5.02295 4.50469 2.54119 6.42555 2.07638 9.15725C1.61157 11.8889 3.31861 14.5211 6.00429 15.2138V20.667C6.00429 21.4032 6.60175 22 7.33876 22C8.07576 22 8.67322 21.4032 8.67322 20.667V15.2138C11.0305 14.6058 12.6772 12.4815 12.6766 10.0495Z" stroke="currentColor" stroke-linecap="round" stroke-linejoin="round"/><path d="M13.399 15.331C14.0961 15.2348 14.7671 15.0013 15.3731 14.644L19.7386 19.004C20.2622 19.5092 21.0945 19.502 21.6093 18.9878C22.124 18.4736 22.1312 17.6421 21.6255 17.1191L17.2574 12.759C18.4898 10.6737 18.1608 8.02067 16.4564 6.29876C14.7519 4.57686 12.0999 4.21852 9.99878 5.4262" stroke="currentColor" stroke-linecap="round" stroke-linejoin="round"/><path clip-rule="evenodd" d="M7.3391 10.7155C8.07611 10.7155 8.67356 10.1187 8.67356 9.38245C8.67356 8.64622 8.07611 8.04938 7.3391 8.04938C6.6021 8.04938 6.00464 8.64622 6.00464 9.38245C6.00464 10.1187 6.6021 10.7155 7.3391 10.7155Z" stroke="currentColor" stroke-linecap="round" stroke-linejoin="round"/><path d="M7.33911 8.0495V3.99961C7.33911 2.89526 8.2353 2 9.34081 2C10.4463 2 11.3425 2.89526 11.3425 3.99961V4.87856" stroke="currentColor" stroke-linecap="round" stroke-linejoin="round"/></svg>