<svg viewBox="0 0 24 24" fill="none" xmlns="http://www.w3.org/2000/svg"><path d="M9.36403 18.5L8.43203 19.432C6.67466 21.1894 3.8254 21.1894 2.06803 19.432C0.310657 17.6746 0.310657 14.8254 2.06803 13.068L6.84103 8.294C8.50064 6.63063 11.1607 6.52415 12.9479 8.04954C14.7352 9.57494 15.048 12.2187 13.666 14.119" stroke="currentColor" stroke-linecap="round" stroke-linejoin="round"/><path d="M14.8181 5.567L15.5681 4.817C17.3255 3.05963 20.1747 3.05963 21.9321 4.817C23.6895 6.57437 23.6895 9.42363 21.9321 11.181L17.1591 15.954C15.4991 17.6167 12.8395 17.7225 11.0527 16.197C9.26584 14.6715 8.9533 12.0281 10.3351 10.128" stroke="currentColor" stroke-linecap="round" stroke-linejoin="round"/></svg>