<svg viewBox="0 0 24 24" fill="none" xmlns="http://www.w3.org/2000/svg"><path d="M18.875 7.75C20.6009 7.75 22 6.35089 22 4.625C22 2.89911 20.6009 1.5 18.875 1.5C17.1491 1.5 15.75 2.89911 15.75 4.625C15.75 6.35089 17.1491 7.75 18.875 7.75Z" stroke="currentColor" stroke-linecap="round" stroke-linejoin="round"/><path d="M21.0859 6.83398L23.2509 8.99998" stroke="currentColor" stroke-linecap="round" stroke-linejoin="round"/><path d="M12.75 7.5H2.25C1.85218 7.5 1.47064 7.34196 1.18934 7.06066C0.908035 6.77936 0.75 6.39782 0.75 6V4.5C0.75 4.10218 0.908035 3.72064 1.18934 3.43934C1.47064 3.15804 1.85218 3 2.25 3H12.75" stroke="currentColor" stroke-linecap="round" stroke-linejoin="round"/><path d="M6 12H18" stroke="currentColor" stroke-linecap="round" stroke-linejoin="round"/><path d="M6 17.25H18" stroke="currentColor" stroke-linecap="round" stroke-linejoin="round"/><path d="M6 22.5H18" stroke="currentColor" stroke-linecap="round" stroke-linejoin="round"/><path d="M2.625 12C2.41789 12 2.25 11.8321 2.25 11.625C2.25 11.4179 2.41789 11.25 2.625 11.25" stroke="currentColor" stroke-linecap="round" stroke-linejoin="round"/><path d="M2.625 12C2.83211 12 3 11.8321 3 11.625C3 11.4179 2.83211 11.25 2.625 11.25" stroke="currentColor" stroke-linecap="round" stroke-linejoin="round"/><path d="M2.625 17.25C2.41789 17.25 2.25 17.0821 2.25 16.875C2.25 16.6679 2.41789 16.5 2.625 16.5" stroke="currentColor" stroke-linecap="round" stroke-linejoin="round"/><path d="M2.625 17.25C2.83211 17.25 3 17.0821 3 16.875C3 16.6679 2.83211 16.5 2.625 16.5" stroke="currentColor" stroke-linecap="round" stroke-linejoin="round"/><path d="M2.625 22.5C2.41789 22.5 2.25 22.3321 2.25 22.125C2.25 21.9179 2.41789 21.75 2.625 21.75" stroke="currentColor" stroke-linecap="round" stroke-linejoin="round"/><path d="M2.625 22.5C2.83211 22.5 3 22.3321 3 22.125C3 21.9179 2.83211 21.75 2.625 21.75" stroke="currentColor" stroke-linecap="round" stroke-linejoin="round"/></svg>