<svg xmlns="http://www.w3.org/2000/svg" viewBox="0 0 24 24" fill="none"><path d="M12.0157 0.869778C12.0157 0.372072 11.6117 -0.0349157 11.1153 0.00237423C9.05597 0.157104 7.06569 0.840632 5.34014 1.9936C3.36417 3.31391 1.82409 5.19051 0.914645 7.38608C0.00520611 9.58166 -0.232745 11.9976 0.230884 14.3284C0.694511 16.6593 1.8389 18.8003 3.51932 20.4807C5.19974 22.1611 7.34073 23.3055 9.67155 23.7691C12.0024 24.2327 14.4183 23.9948 16.6139 23.0854C18.8095 22.1759 20.6861 20.6358 22.0063 18.6598C23.1593 16.9342 23.8428 14.9441 23.9976 12.8847C24.0349 12.3883 23.628 11.9843 23.1302 11.9843C22.6325 11.9843 22.2331 12.3885 22.1893 12.8844C22.0387 14.5868 21.4626 16.2294 20.5078 17.6585C19.3855 19.3381 17.7904 20.6472 15.9242 21.4202C14.058 22.1932 12.0044 22.3955 10.0232 22.0014C8.04197 21.6072 6.22214 20.6346 4.79377 19.2062C3.36541 17.7778 2.39269 15.958 1.9986 13.9768C1.60452 11.9956 1.80677 9.94205 2.5798 8.07581C3.35282 6.20957 4.66189 4.61447 6.34146 3.49221C7.77052 2.53734 9.41318 1.96128 11.1156 1.81069C11.6115 1.76683 12.0157 1.36749 12.0157 0.869778Z" fill="currentColor"/></svg>