<svg viewBox="0 0 24 24" fill="none" xmlns="http://www.w3.org/2000/svg"><path d="M11.3333 16.6666C11.3333 18.0811 11.8952 19.4377 12.8953 20.4379C13.8955 21.4381 15.2521 22 16.6666 22C18.0811 22 19.4376 21.4381 20.4378 20.4379C21.438 19.4377 21.9999 18.0811 21.9999 16.6666C21.9999 15.2522 21.438 13.8956 20.4378 12.8954C19.4376 11.8952 18.0811 11.3333 16.6666 11.3333C15.2521 11.3333 13.8955 11.8952 12.8953 12.8954C11.8952 13.8956 11.3333 15.2522 11.3333 16.6666Z" stroke="currentColor" stroke-linecap="round" stroke-linejoin="round"/><path d="M12.896 20.4364L20.4373 12.896" stroke="currentColor" stroke-linecap="round" stroke-linejoin="round"/><path d="M8.66667 18H3.33333C2.97971 18 2.64057 17.8595 2.39052 17.6095C2.14048 17.3594 2 17.0203 2 16.6667V7.33333C2 6.97971 2.14048 6.64057 2.39052 6.39052C2.64057 6.14048 2.97971 6 3.33333 6H16.6667C17.0203 6 17.3594 6.14048 17.6095 6.39052C17.8595 6.64057 18 6.97971 18 7.33333V8.66667" stroke="currentColor" stroke-linecap="round" stroke-linejoin="round"/><path d="M17.5697 6.35289L15.0622 2.59378C14.9407 2.41152 14.7761 2.26199 14.5831 2.15843C14.3901 2.05487 14.1746 2.00045 13.9555 2H6.0444C5.8249 2.00002 5.6088 2.05422 5.41528 2.1578C5.22177 2.26138 5.05681 2.41114 4.93506 2.59378L2.43018 6.35289" stroke="currentColor" stroke-linecap="round" stroke-linejoin="round"/><path d="M10 2V6" stroke="currentColor" stroke-linecap="round" stroke-linejoin="round"/></svg>