<svg viewBox="0 0 24 24" fill="none" xmlns="http://www.w3.org/2000/svg"><path d="M14.6658 10H6.00001C4.93914 10 3.92172 9.5786 3.17158 8.82844C2.42143 8.0783 2 7.06088 2 6.00001C2 4.93914 2.42143 3.92173 3.17158 3.17157C3.92172 2.42143 4.93914 2 6.00001 2H16.6667C19.7298 2 21.9885 5.44356 19.7841 8.66668" stroke="currentColor" stroke-width="1.0" stroke-linecap="round" stroke-linejoin="round"/><path d="M11.3334 18H6.00001C4.93914 18 3.92172 17.5786 3.17158 16.8284C2.42143 16.0783 2 15.0609 2 14C2 12.9392 2.42143 11.9217 3.17158 11.1716C3.92172 10.4215 4.93914 10 6.00001 10H14.6658" stroke="currentColor" stroke-width="1.0" stroke-linecap="round" stroke-linejoin="round"/><path d="M10.6666 6.00006H16.6666" stroke="currentColor" stroke-width="1.0" stroke-linecap="round" stroke-linejoin="round"/><path d="M10.6666 14H12" stroke="currentColor" stroke-width="1.0" stroke-linecap="round" stroke-linejoin="round"/><path d="M20.6667 15.3333H15.3333C14.5969 15.3333 14 15.9303 14 16.6666V20.6667C14 21.4031 14.5969 22 15.3333 22H20.6667C21.403 22 22 21.4031 22 20.6667V16.6666C22 15.9303 21.403 15.3333 20.6667 15.3333Z" stroke="currentColor" stroke-width="1.0" stroke-linecap="round" stroke-linejoin="round"/><path d="M18 11.3333C17.2928 11.3333 16.6145 11.6143 16.1144 12.1144C15.6143 12.6145 15.3334 13.2928 15.3334 14V15.3333H20.6667V14C20.6667 13.2928 20.3857 12.6145 19.8857 12.1144C19.3856 11.6143 18.7072 11.3333 18 11.3333Z" stroke="currentColor" stroke-width="1.0" stroke-linecap="round" stroke-linejoin="round"/><path d="M5.99996 6.33336C5.81586 6.33336 5.66663 6.18412 5.66663 6.00002C5.66663 5.81593 5.81586 5.66669 5.99996 5.66669" stroke="currentColor" stroke-width="1.0"/><path d="M6 6.33336C6.18409 6.33336 6.33333 6.18412 6.33333 6.00002C6.33333 5.81593 6.18409 5.66669 6 5.66669" stroke="currentColor" stroke-width="1.0"/><path d="M5.99996 14.3333C5.81586 14.3333 5.66663 14.1841 5.66663 14C5.66663 13.8159 5.81586 13.6666 5.99996 13.6666" stroke="currentColor" stroke-width="1.0"/><path d="M6 14.3333C6.18409 14.3333 6.33333 14.1841 6.33333 14C6.33333 13.8159 6.18409 13.6666 6 13.6666" stroke="currentColor" stroke-width="1.0"/><path d="M18.0001 19.0259C17.816 19.0259 17.6667 18.8766 17.6667 18.6925C17.6667 18.5084 17.816 18.3592 18.0001 18.3592" stroke="currentColor" stroke-width="1.0"/><path d="M18 19.0259C18.1841 19.0259 18.3333 18.8766 18.3333 18.6925C18.3333 18.5084 18.1841 18.3592 18 18.3592" stroke="currentColor" stroke-width="1.0"/></svg>