<svg viewBox="0 0 24 24" fill="none" xmlns="http://www.w3.org/2000/svg"><path d="M0.75 14.25V13.5C0.75 12.6716 1.42157 12 2.25 12H15.75V6.75C15.75 6.33579 16.0858 6 16.5 6H18.75C21.2353 6 23.25 8.01472 23.25 10.5V16.5C23.25 17.3284 22.5784 18 21.75 18H21" stroke="currentColor" stroke-linecap="round" stroke-linejoin="round"/><path d="M23.25 12H20.25C19.4216 12 18.75 11.3284 18.75 10.5V6" stroke="currentColor" stroke-linecap="round" stroke-linejoin="round"/><path clip-rule="evenodd" d="M16.5 19.5C17.7426 19.5 18.75 18.4926 18.75 17.25C18.75 16.0074 17.7426 15 16.5 15C15.2574 15 14.25 16.0074 14.25 17.25C14.25 18.4926 15.2574 19.5 16.5 19.5Z" stroke="currentColor" stroke-linecap="round" stroke-linejoin="round"/><path clip-rule="evenodd" d="M4.5 19.5C5.74264 19.5 6.75 18.4926 6.75 17.25C6.75 16.0074 5.74264 15 4.5 15C3.25736 15 2.25 16.0074 2.25 17.25C2.25 18.4926 3.25736 19.5 4.5 19.5Z" stroke="currentColor" stroke-linecap="round" stroke-linejoin="round"/><path d="M12 18H9" stroke="currentColor" stroke-linecap="round" stroke-linejoin="round"/><path d="M3 12V4.5" stroke="currentColor" stroke-linecap="round" stroke-linejoin="round"/><path d="M11.25 12V4.5" stroke="currentColor" stroke-linecap="round" stroke-linejoin="round"/><path d="M1.5 6H12.75" stroke="currentColor" stroke-linecap="round" stroke-linejoin="round"/><path d="M1.5 9H12.75" stroke="currentColor" stroke-linecap="round" stroke-linejoin="round"/></svg>