<svg viewBox="0 0 24 24" fill="none" xmlns="http://www.w3.org/2000/svg"><path clip-rule="evenodd" d="M11.9999 12C13.9329 12 15.4999 10.433 15.4999 8.5C15.4999 6.567 13.9329 5 11.9999 5C10.0669 5 8.49988 6.567 8.49988 8.5C8.49988 10.433 10.0669 12 11.9999 12Z" stroke="currentColor" stroke-linecap="round" stroke-linejoin="round"/><path clip-rule="evenodd" d="M12 2.00043C15.866 2.00043 19 4.98508 19 8.66683C19 11.6952 14.2643 19.2886 12.5833 21.7019C12.4536 21.8881 12.2346 22 12 22C11.7654 22 11.5464 21.8881 11.4167 21.7019C9.73573 19.2886 5 11.6952 5 8.66683C5 4.98508 8.13401 2.00043 12 2.00043Z" stroke="currentColor" stroke-linecap="round" stroke-linejoin="round"/></svg>