<svg viewBox="0 0 24 24" fill="none" xmlns="http://www.w3.org/2000/svg"><path clip-rule="evenodd" d="M12 22.5C17.799 22.5 22.5 17.799 22.5 12C22.5 6.20101 17.799 1.5 12 1.5C6.20101 1.5 1.5 6.20101 1.5 12C1.5 17.799 6.20101 22.5 12 22.5Z" stroke="currentColor" stroke-linecap="round" stroke-linejoin="round"/><path d="M14.9999 7.49991H10.7889C10.3036 7.46116 9.82569 7.63716 9.48142 7.98142C9.13716 8.32569 8.96116 8.80359 8.99991 9.28891C8.99991 11.2499 14.9999 12.7499 14.9999 14.7109C15.0087 15.188 14.823 15.6482 14.4856 15.9856C14.1482 16.323 13.688 16.5087 13.2109 16.4999H8.99991" stroke="currentColor" stroke-linecap="round" stroke-linejoin="round"/><path d="M12 7.5V5.25" stroke="currentColor" stroke-linecap="round" stroke-linejoin="round"/><path d="M12 18.75V16.5" stroke="currentColor" stroke-linecap="round" stroke-linejoin="round"/></svg>