<svg viewBox="0 0 24 24" fill="none" xmlns="http://www.w3.org/2000/svg"><path d="M21.0161 3.42786L17.2827 3.49452L17.2446 6.71361" stroke="currentColor" stroke-linecap="round" stroke-linejoin="round"/><path d="M2.49268 20.5723L6.74035 20.5056L6.76892 17.296" stroke="currentColor" stroke-linecap="round" stroke-linejoin="round"/><path d="M17.2822 3.49506C19.1266 4.64433 20.5469 6.36263 21.3285 8.39038C22.11 10.4181 22.2105 12.6452 21.6146 14.735C21.0187 16.8249 19.7589 18.6641 18.0254 19.9747C16.292 21.2854 14.1791 21.9963 12.0059 22C11.2886 22.0019 10.5732 21.9253 9.87256 21.7715" stroke="currentColor" stroke-linecap="round" stroke-linejoin="round"/><path d="M6.73993 20.505C4.8893 19.3604 3.46251 17.6434 2.67603 15.6145C1.88956 13.5856 1.78631 11.3556 2.38197 9.2627C2.97763 7.16983 4.23967 5.32835 5.97663 4.01766C7.71359 2.70697 9.83067 1.9986 12.0067 2.00002C12.7177 1.99861 13.4267 2.07526 14.121 2.22859" stroke="currentColor" stroke-linecap="round" stroke-linejoin="round"/><path d="M14.338 7.99993H10.5949C10.1635 7.96549 9.73872 8.12193 9.43271 8.42795C9.12669 8.73396 8.97025 9.15876 9.00469 9.59015C9.00469 11.3333 14.338 12.6666 14.338 14.4097C14.3458 14.8338 14.1808 15.2428 13.8809 15.5428C13.5809 15.8427 13.1719 16.0077 12.7478 15.9999H9.00469" stroke="currentColor" stroke-linecap="round" stroke-linejoin="round"/><path d="M11.6714 8V6" stroke="currentColor" stroke-linecap="round" stroke-linejoin="round"/><path d="M11.6714 18.0001V16.0001" stroke="currentColor" stroke-linecap="round" stroke-linejoin="round"/></svg>