<svg viewBox="0 0 22 21" fill="none" xmlns="http://www.w3.org/2000/svg"><path d="M17.1113 8.55512C17.1115 10.1485 16.6392 11.7062 15.7541 13.0311C14.869 14.3561 13.6109 15.3888 12.1389 15.9986C10.6668 16.6085 9.04704 16.7681 7.48431 16.4573C5.92158 16.1465 4.48611 15.3792 3.35945 14.2525C2.2328 13.1258 1.46555 11.6902 1.15475 10.1274C0.843946 8.56465 1.00355 6.94478 1.61338 5.4727C2.2232 4.00062 3.25585 2.74245 4.58074 1.85731C5.90562 0.972174 7.46323 0.499824 9.05656 0.5C10.1143 0.5 11.1617 0.708352 12.139 1.11316C13.1162 1.51797 14.0042 2.1113 14.7522 2.85929C15.5001 3.60728 16.0934 4.49527 16.4982 5.47256C16.903 6.44985 17.1113 7.49731 17.1113 8.55512Z" stroke="currentColor" stroke-linecap="round" stroke-linejoin="round"/><path d="M6.17236 5.67163L11.829 11.3285" stroke="currentColor" stroke-linecap="round" stroke-linejoin="round"/><path d="M6.17236 11.3285L11.829 5.67163" stroke="currentColor" stroke-linecap="round" stroke-linejoin="round"/><path d="M14.752 14.2512L20.9997 20.5001" stroke="currentColor" stroke-linecap="round" stroke-linejoin="round"/></svg>