<svg viewBox="0 0 24 24" fill="none" xmlns="http://www.w3.org/2000/svg"><path d="M6.81399 4.26598C5.77581 4.84248 4.92008 5.69856 4.34399 6.73698" stroke="currentColor" stroke-linecap="round" stroke-linejoin="round"/><path d="M5.975 1.5C3.8086 2.11594 2.11546 3.80947 1.5 5.976" stroke="currentColor" stroke-linecap="round" stroke-linejoin="round"/><path d="M4.5 18H19.5" stroke="currentColor" stroke-linecap="round" stroke-linejoin="round"/><path d="M19.5 18C19.5 18 18 16.694 18 12C18 8.24998 15.438 4.93198 12 4.93198C8.562 4.93198 6 8.24998 6 12C6 16.719 4.5 18 4.5 18" stroke="currentColor" stroke-linecap="round" stroke-linejoin="round"/><path d="M13.5 21C13.5 21.8284 12.8284 22.5 12 22.5C11.1716 22.5 10.5 21.8284 10.5 21" stroke="currentColor" stroke-linecap="round" stroke-linejoin="round"/><path d="M12 4.932V3" stroke="currentColor" stroke-linecap="round" stroke-linejoin="round"/><path d="M17.186 4.26598C17.7017 4.5539 18.1755 4.91124 18.594 5.32798C19.0115 5.74628 19.3689 6.22047 19.656 6.73698" stroke="currentColor" stroke-linecap="round" stroke-linejoin="round"/><path d="M18.0249 1.5C20.1913 2.11594 21.8844 3.80947 22.4999 5.976" stroke="currentColor" stroke-linecap="round" stroke-linejoin="round"/></svg>