<svg viewBox="0 0 24 24" fill="none" xmlns="http://www.w3.org/2000/svg"><g clip-path="url(#clip0_3108_2485)"><path d="M0.75 14.25V23.25" stroke="currentColor" stroke-linecap="round" stroke-linejoin="round"/><path d="M0.75 21.75H17.25C17.25 20.9544 16.9339 20.1913 16.3713 19.6287C15.8087 19.0661 15.0456 18.75 14.25 18.75H10.5C10.5 17.9544 10.1839 17.1913 9.62132 16.6287C9.05871 16.0661 8.29565 15.75 7.5 15.75H0.75" stroke="currentColor" stroke-linecap="round" stroke-linejoin="round"/><path d="M6.75 18.75H10.5" stroke="currentColor" stroke-linecap="round" stroke-linejoin="round"/><path d="M18.1 4.48008H15.93C15.7474 4.47476 15.5656 4.50545 15.3949 4.57043C15.2243 4.6354 15.068 4.73337 14.9352 4.85875C14.8024 4.98412 14.6956 5.13444 14.621 5.30111C14.5463 5.46777 14.5052 5.64752 14.5 5.83008C14.5047 6.10535 14.5934 6.37261 14.7542 6.59603C14.9151 6.81946 15.1404 6.98835 15.4 7.08008L17.6 7.92008C17.8596 8.01181 18.0849 8.18071 18.2458 8.40413C18.4066 8.62755 18.4953 8.89482 18.5 9.17008C18.4948 9.35264 18.4537 9.5324 18.379 9.69906C18.3044 9.86573 18.1976 10.016 18.0648 10.1414C17.932 10.2668 17.7757 10.3648 17.6051 10.4297C17.4344 10.4947 17.2526 10.5254 17.07 10.5201H14.9" stroke="currentColor" stroke-linecap="round" stroke-linejoin="round"/><path d="M16.5 4.48V3.25" stroke="currentColor" stroke-linecap="round" stroke-linejoin="round"/><path d="M16.5 11.75V10.52" stroke="currentColor" stroke-linecap="round" stroke-linejoin="round"/><path d="M16.5 14.25C20.2279 14.25 23.25 11.2279 23.25 7.5C23.25 3.77208 20.2279 0.75 16.5 0.75C12.7721 0.75 9.75 3.77208 9.75 7.5C9.75 11.2279 12.7721 14.25 16.5 14.25Z" stroke="currentColor" stroke-linecap="round" stroke-linejoin="round"/></g><defs><clipPath id="clip0_3108_2485"><rect width="24" height="24" fill="currentColor"/></clipPath></defs></svg>