<svg viewBox="0 0 24 24" fill="none" xmlns="http://www.w3.org/2000/svg"><path d="M8.27079 18.524C9.17679 18.524 9.78279 17.93 9.78279 17.042C9.78279 16.154 9.17679 15.56 8.27079 15.56H6.47079L6.47079 20H7.44279V18.524H8.27079ZM8.05479 16.424C8.52279 16.424 8.75679 16.628 8.75679 17.042C8.75679 17.456 8.52279 17.66 8.05479 17.66H7.44279L7.44279 16.424H8.05479ZM12.1366 20C13.4026 20 14.2846 19.088 14.2846 17.792C14.2846 16.472 13.3786 15.56 12.0766 15.56H10.3966V20H12.1366ZM11.9806 16.46C12.7846 16.46 13.2586 16.952 13.2586 17.792C13.2586 18.614 12.8086 19.1 12.0406 19.1H11.3686V16.46H11.9806ZM17.493 18.266V17.39H15.933V16.46H17.787V15.56L14.961 15.56V20H15.933V18.266H17.493Z" fill="currentColor"/><path d="M13.448 1H3.33333C2.59696 1 2 1.62682 2 2.4L2 21.6C2 22.3732 2.59696 23 3.33333 23L20.6667 23C21.403 23 22 22.3732 22 21.6V9.9796C21.9999 9.6086 21.8595 9.25275 21.6098 8.99031L14.3902 1.40969C14.1402 1.14751 13.8013 1.00013 13.448 1Z" stroke="currentColor" stroke-linecap="round" stroke-linejoin="round"/><path d="M13 1L13 8.47716C13 9.31818 13.6818 10 14.5228 10L22 10" stroke="currentColor" stroke-linecap="round" stroke-linejoin="round"/></svg>