<svg viewBox="0 0 24 25" fill="none" xmlns="http://www.w3.org/2000/svg"><path d="M12.75 14.45V20.718C12.75 22.2268 11.5268 23.45 10.018 23.45H3.483C1.974 23.45 0.750552 22.227 0.75 20.718V5.18295C0.750552 3.67379 1.97383 2.4505 3.483 2.44995H6" stroke="currentColor" stroke-linecap="round" stroke-linejoin="round"/><path d="M0.75 18.95H12.75" stroke="currentColor" stroke-linecap="round" stroke-linejoin="round"/><path clip-rule="evenodd" d="M20.25 0.949951H12C10.3431 0.949951 9 2.2931 9 3.94995V8.44995C9 10.1068 10.3431 11.45 12 11.45H15.75V15.2L19.5 11.45H20.25C21.9069 11.45 23.25 10.1068 23.25 8.44995V3.94995C23.25 2.2931 21.9069 0.949951 20.25 0.949951Z" stroke="currentColor" stroke-linecap="round" stroke-linejoin="round"/><path d="M12.375 5.82495C12.1679 5.82495 12 5.99284 12 6.19995C12 6.40706 12.1679 6.57495 12.375 6.57495C12.5821 6.57495 12.75 6.40706 12.75 6.19995C12.75 5.99284 12.5821 5.82495 12.375 5.82495" stroke="currentColor" stroke-linecap="round" stroke-linejoin="round"/><path d="M16.125 5.82495C15.9179 5.82495 15.75 5.99284 15.75 6.19995C15.75 6.40706 15.9179 6.57495 16.125 6.57495C16.3321 6.57495 16.5 6.40706 16.5 6.19995C16.5 5.99284 16.3321 5.82495 16.125 5.82495" stroke="currentColor" stroke-linecap="round" stroke-linejoin="round"/><path d="M19.875 5.82495C19.6679 5.82495 19.5 5.99284 19.5 6.19995C19.5 6.40706 19.6679 6.57495 19.875 6.57495C20.0821 6.57495 20.25 6.40706 20.25 6.19995C20.25 5.99284 20.0821 5.82495 19.875 5.82495" stroke="currentColor" stroke-linecap="round" stroke-linejoin="round"/></svg>