<svg viewBox="0 0 24 24" fill="none" xmlns="http://www.w3.org/2000/svg"><path clip-rule="evenodd" d="M15.0401 22.39L15.0521 22.397C17.24 23.79 20.102 23.4761 21.9361 21.642L22.7101 20.868C23.4299 20.1473 23.4299 18.9797 22.7101 18.259L19.4491 15C18.7283 14.2802 17.5608 14.2802 16.8401 15V15C16.4944 15.3461 16.0252 15.5406 15.5361 15.5406C15.0469 15.5406 14.5778 15.3461 14.2321 15L9.01406 9.78099C8.29424 9.06027 8.29424 7.89271 9.01406 7.17199V7.17199C9.36018 6.8263 9.55466 6.35718 9.55466 5.86799C9.55466 5.37881 9.36018 4.90969 9.01406 4.56399L5.75406 1.29999C5.03334 0.580178 3.86578 0.580178 3.14506 1.29999L2.37106 2.07399C0.537342 3.90814 0.223096 6.76961 1.61506 8.95799L1.62306 8.96999C5.19647 14.2598 9.75103 18.8154 15.0401 22.39V22.39Z" stroke="currentColor" stroke-linecap="round" stroke-linejoin="round"/></svg>