<svg viewBox="0 0 20 20" fill="none" xmlns="http://www.w3.org/2000/svg"><path clip-rule="evenodd" d="M9.5835 10C11.6546 10 13.3335 8.32107 13.3335 6.25C13.3335 4.17893 11.6546 2.5 9.5835 2.5C7.51243 2.5 5.8335 4.17893 5.8335 6.25C5.8335 8.32107 7.51243 10 9.5835 10Z" stroke="currentColor" stroke-width="1.0" stroke-linecap="round" stroke-linejoin="round"/><path d="M9.271 5C9.44359 5 9.5835 5.13991 9.5835 5.3125" stroke="currentColor" stroke-width="1.0" stroke-linecap="round" stroke-linejoin="round"/><path d="M8.9585 5.3125C8.9585 5.13991 9.09841 5 9.271 5" stroke="currentColor" stroke-width="1.0" stroke-linecap="round" stroke-linejoin="round"/><path d="M9.271 5.625C9.09841 5.625 8.9585 5.48509 8.9585 5.3125" stroke="currentColor" stroke-width="1.0" stroke-linecap="round" stroke-linejoin="round"/><path d="M9.5835 5.3125C9.5835 5.48509 9.44359 5.625 9.271 5.625" stroke="currentColor" stroke-width="1.0" stroke-linecap="round" stroke-linejoin="round"/><path d="M9.5835 10V17.5" stroke="currentColor" stroke-width="1.0" stroke-linecap="round" stroke-linejoin="round"/></svg>