<svg viewBox="0 0 20 20" fill="none" xmlns="http://www.w3.org/2000/svg"><path fill-rule="evenodd" clip-rule="evenodd" d="M14.6931 15.1587C14.6187 15.1348 14.5452 15.1079 14.4728 15.078C14.1162 14.9308 13.7924 14.7145 13.52 14.4414L10.5196 11.4392C10.4135 11.3377 10.2724 11.2811 10.1255 11.2811C9.97868 11.2811 9.83751 11.3377 9.73139 11.4392L6.7209 14.4497C6.44865 14.7231 6.12492 14.9399 5.7684 15.0875C5.6414 15.14 5.51114 15.1835 5.37861 15.2175C5.1391 15.2791 4.8922 15.3102 4.64379 15.3095H4.0564L7.85831 19.1114C8.42852 19.6804 9.20117 20 10.0067 20C10.8123 20 11.5849 19.6804 12.1551 19.1114L15.9646 15.3013L15.5971 15.2988C15.2898 15.2999 14.9847 15.2525 14.6931 15.1587ZM6.16614 16.0051L8.56466 18.4036C8.56473 18.4037 8.56459 18.4035 8.56466 18.4036C8.94738 18.7854 9.46611 19 10.0067 19C10.5473 19 11.0658 18.7856 11.4485 18.4038C11.4486 18.4038 11.4484 18.4039 11.4485 18.4038L13.9235 15.9284C13.5109 15.7351 13.1347 15.471 12.8122 15.1478C12.8121 15.1478 12.8122 15.1478 12.8122 15.1478L10.1254 12.4594L7.42954 15.1552C7.42927 15.1555 7.42899 15.1558 7.42872 15.1561C7.0673 15.5188 6.63836 15.8072 6.16614 16.0051Z" fill="currentColor"/><path fill-rule="evenodd" clip-rule="evenodd" d="M11.4416 1.59711C11.2524 1.4078 11.0277 1.25764 10.7804 1.15519C10.5331 1.05273 10.2681 1 10.0004 1C9.73277 1 9.46773 1.05273 9.22045 1.15519C8.97325 1.25761 8.74863 1.40772 8.55944 1.59694C8.55938 1.597 8.55949 1.59689 8.55944 1.59694L6.16561 3.99277C6.63836 4.19062 7.06776 4.47927 7.42949 4.84243C7.42976 4.8427 7.43003 4.84297 7.4303 4.84324L10.1262 7.53975L12.8106 4.85538C12.811 4.85496 12.8115 4.85454 12.8119 4.85413C13.1328 4.53135 13.5073 4.26736 13.9181 4.07361L11.4416 1.59711ZM12.1488 0.890131C11.8667 0.607931 11.5318 0.384073 11.1632 0.231342C10.7946 0.0786106 10.3994 0 10.0004 0C9.60142 0 9.20631 0.0786106 8.83768 0.231342C8.46905 0.384073 8.13413 0.607931 7.85203 0.890131L4.05646 4.68888H4.64449C4.89259 4.68822 5.1392 4.71918 5.37843 4.78061C5.51127 4.81471 5.64183 4.85821 5.76911 4.9109C6.12563 5.05849 6.44937 5.27529 6.7216 5.54875L9.73208 8.55987C9.83672 8.66419 9.97845 8.72277 10.1262 8.72277C10.274 8.72277 10.4157 8.66419 10.5203 8.55987L13.5201 5.56015C13.7921 5.28635 14.1157 5.06929 14.4723 4.92158C14.5429 4.89234 14.6145 4.86593 14.6869 4.84239C14.9804 4.747 15.2876 4.69867 15.5972 4.69965H15.9583L12.1488 0.890131Z" fill="currentColor"/><path fill-rule="evenodd" clip-rule="evenodd" d="M18.4204 8.57611C18.4145 8.57045 18.4086 8.56469 18.4028 8.55885L16.4265 6.58264H15.599C15.3185 6.58361 15.0497 6.69498 14.8507 6.89265L14.85 6.89337L11.8517 9.88975C11.8139 9.9275 11.7746 9.96431 11.7346 9.99929C11.7747 10.0342 11.8138 10.0707 11.8519 10.1088L14.85 13.1063L14.8508 13.1071C15.0498 13.3047 15.3185 13.416 15.5989 13.417H16.4265L18.4028 11.4408C18.5921 11.2516 18.7424 11.0268 18.8448 10.7795C18.9473 10.5322 19 10.2672 19 9.99951C19 9.73185 18.9473 9.46681 18.8448 9.21953C18.7456 8.97995 18.6015 8.76158 18.4204 8.57611ZM19.6914 8.66547C19.5442 8.36426 19.3479 8.0891 19.1102 7.85143L16.8078 5.54969C16.7559 5.57091 16.7004 5.58209 16.6443 5.58264H15.5975C15.0528 5.584 14.5306 5.80034 14.1446 6.18461L11.1449 9.18242C11.0198 9.30726 10.8741 9.40677 10.7159 9.47764C10.5323 9.55985 10.3319 9.60353 10.1269 9.60353C9.92191 9.60353 9.72142 9.55984 9.53788 9.47764C9.37965 9.40676 9.234 9.30726 9.10893 9.18242L6.09781 6.1732C5.71184 5.7887 5.18966 5.57213 4.64485 5.5706H3.3598C3.30684 5.56941 3.25451 5.5589 3.20519 5.53955L0.888557 7.85175C0.319559 8.42196 0 9.1946 0 10.0001C0 10.8057 0.319559 11.5783 0.888557 12.1485L3.20012 14.4601C3.24933 14.4404 3.30173 14.4299 3.35473 14.4291H4.64485C5.18965 14.4275 5.7118 14.2109 6.09781 13.8265L9.1083 10.816C9.23179 10.6926 9.3761 10.5973 9.53177 10.5299C9.71918 10.4488 9.92305 10.4082 10.1269 10.4082C10.3307 10.4082 10.5345 10.4488 10.7218 10.5299C10.8774 10.5973 11.0215 10.6926 11.1449 10.816L14.1446 13.815C14.5306 14.1993 15.0528 14.4157 15.5975 14.417H16.6443C16.7004 14.4174 16.7559 14.4286 16.8078 14.45L19.1099 12.1479C19.3921 11.8658 19.6159 11.5309 19.7687 11.1623C19.9214 10.7936 20 10.3985 20 9.99951C20 9.60049 19.9214 9.20539 19.7687 8.83676C19.7446 8.7788 19.7189 8.72168 19.6914 8.66547ZM8.51891 9.99905C8.47904 9.96414 8.4402 9.92783 8.40247 9.89016L5.39206 6.88166C5.19314 6.68374 4.9238 6.57169 4.64321 6.5706H3.58774L1.59642 8.5581C1.21492 8.94077 1 9.45977 1 10.0001C1 10.5407 1.21438 11.0592 1.59611 11.4419L3.58329 13.4291H4.64314C4.92372 13.4279 5.19259 13.3163 5.39156 13.1185L8.40119 10.1089C8.43925 10.0708 8.4788 10.034 8.51891 9.99905Z" fill="currentColor"/></svg>