<svg viewBox="0 0 24 24" fill="none" xmlns="http://www.w3.org/2000/svg"><path d="M4 3.46424V20.5358C3.99998 20.7889 4.06259 21.0377 4.18173 21.2579C4.30086 21.4781 4.47245 21.6622 4.67974 21.7922C4.88704 21.9222 5.12295 21.9937 5.36447 21.9996C5.60598 22.0055 5.84484 21.9458 6.05773 21.8261L21.2629 13.2904C21.4857 13.1652 21.6719 12.9792 21.8017 12.7519C21.9315 12.5247 22 12.2648 22 12C22 11.7352 21.9315 11.4753 21.8017 11.2481C21.6719 11.0208 21.4857 10.8348 21.2629 10.7096L6.05773 2.17388C5.84484 2.05423 5.60598 1.99446 5.36447 2.0004C5.12295 2.00635 4.88704 2.0778 4.67974 2.20779C4.47245 2.33778 4.30086 2.52187 4.18173 2.74208C4.06259 2.96229 3.99998 3.21111 4 3.46424V3.46424Z" stroke="currentColor" stroke-linecap="round" stroke-linejoin="round"/></svg>