<svg viewBox="0 0 24 24" fill="none" xmlns="http://www.w3.org/2000/svg"><path d="M5.40002 5.40002H8.33336V8.33336H5.40002V5.40002Z" stroke="currentColor" stroke-linecap="round" stroke-linejoin="round"/><path d="M5.40002 15.6667H8.33336V18.6H5.40002V15.6667Z" stroke="currentColor" stroke-linecap="round" stroke-linejoin="round"/><path d="M15.6667 5.40002H18.6V8.33336H15.6667V5.40002Z" stroke="currentColor" stroke-linecap="round" stroke-linejoin="round"/><path d="M5.40002 12.7333H11.2667V14.2" stroke="currentColor" stroke-linecap="round" stroke-linejoin="round"/><path d="M14.2 14.2V18.6H18.6V14.2H17.1333" stroke="currentColor" stroke-linecap="round" stroke-linejoin="round"/><path d="M11.2667 17.1334V18.6" stroke="currentColor" stroke-linecap="round" stroke-linejoin="round"/><path d="M11.2667 5.40002V9.80002H12.7333" stroke="currentColor" stroke-linecap="round" stroke-linejoin="round"/><path d="M15.6667 11.2667H18.6667" stroke="currentColor" stroke-linecap="round" stroke-linejoin="round"/><path d="M1 6V2.42857C1 2.04969 1.15051 1.68633 1.41842 1.41842C1.68633 1.15051 2.04969 1 2.42857 1H6" stroke="currentColor" stroke-linecap="round" stroke-linejoin="round"/><path d="M18 1H21.5714C21.9503 1 22.3137 1.15051 22.5816 1.41842C22.8495 1.68633 23 2.04969 23 2.42857V6" stroke="currentColor" stroke-linecap="round" stroke-linejoin="round"/><path d="M23 18V21.5714C23 21.9503 22.8495 22.3137 22.5816 22.5816C22.3137 22.8495 21.9503 23 21.5714 23H18" stroke="currentColor" stroke-linecap="round" stroke-linejoin="round"/><path d="M6 23H2.42857C2.04969 23 1.68633 22.8495 1.41842 22.5816C1.15051 22.3137 1 21.9503 1 21.5714V18" stroke="currentColor" stroke-linecap="round" stroke-linejoin="round"/></svg>