<svg viewBox="0 0 24 24" fill="none" xmlns="http://www.w3.org/2000/svg"><g clip-path="url(#a)" stroke="currentColor"><path d="M9.25 9.25a2.75 2.75 0 0 1 5.274-1.092c.2.462.27.971.2 1.47a2.75 2.75 0 0 1-1.807 2.215A1.376 1.376 0 0 0 12 13.14v.922" stroke-linecap="round" stroke-linejoin="round"/><path d="M12 17.5a.344.344 0 0 1 0-.688M12 17.5a.344.344 0 0 0 0-.688"/><path d="M12 22.313c5.695 0 10.313-4.618 10.313-10.313S17.694 1.687 12 1.687 1.687 6.306 1.687 12 6.306 22.313 12 22.313Z" stroke-miterlimit="10"/></g><defs><clipPath id="a"><path fill="currentColor" transform="translate(1 1)" d="M0 0h22v22H0z"/></clipPath></defs></svg>