<svg viewBox="0 0 24 24" fill="none" xmlns="http://www.w3.org/2000/svg"><path d="M11.3334 7.33273H12C12.3682 7.33273 12.6666 7.63119 12.6666 7.99935V12.6657" stroke="currentColor" stroke-linecap="round" stroke-linejoin="round"/><path d="M11.3334 12.6656H13.9998" stroke="currentColor" stroke-linecap="round" stroke-linejoin="round"/><path d="M5.52668 13.0229L2.00073 17.3319L5.33381 17.9986L6.66704 21.9983L10.2134 16.3702" stroke="currentColor" stroke-linecap="round" stroke-linejoin="round"/><path d="M18.4732 13.0229L21.9992 17.3319L18.6661 17.9986L17.3329 21.9983L13.7865 16.3702" stroke="currentColor" stroke-linecap="round" stroke-linejoin="round"/><path clip-rule="evenodd" d="M12.4187 2.14734L14.0604 3.46724L16.166 3.36236C16.4789 3.34686 16.7604 3.55143 16.8424 3.85388L17.3934 5.88838L19.1586 7.04385C19.4209 7.21546 19.5281 7.54656 19.4164 7.83934L18.6662 9.80986L19.4164 11.7795C19.5285 12.0723 19.4211 12.4036 19.1586 12.575L17.3934 13.7304L16.8424 15.7658C16.7604 16.0683 16.4789 16.2729 16.166 16.2574L14.0604 16.1525L12.4187 17.475C12.1742 17.6715 11.826 17.6715 11.5814 17.475L9.93979 16.1498L7.83418 16.2547C7.52121 16.2702 7.23971 16.0656 7.15778 15.7632L6.60671 13.7278L4.84152 12.5723C4.57901 12.4009 4.47165 12.0696 4.58376 11.7768L5.33392 9.80986L4.58376 7.83934C4.47201 7.54656 4.57929 7.21546 4.84152 7.04385L6.60671 5.88838L7.15778 3.85388C7.23971 3.55143 7.52121 3.34686 7.83418 3.36236L9.93979 3.46724L11.5814 2.14734C11.826 1.95089 12.1742 1.95089 12.4187 2.14734Z" stroke="currentColor" stroke-linecap="round" stroke-linejoin="round"/></svg>