<svg viewBox="0 0 24 24" fill="none" xmlns="http://www.w3.org/2000/svg"><path d="M12.5538 21.8923C12.1974 22.0298 11.8026 22.0298 11.4462 21.8923V21.8923C8.6626 20.8009 6.27251 18.896 4.58751 16.4262C2.90252 13.9563 2.00082 11.036 2 8.04615V3.53846C2 3.13044 2.16209 2.73912 2.4506 2.4506C2.73912 2.16209 3.13044 2 3.53846 2H20.4615C20.8696 2 21.2609 2.16209 21.5494 2.4506C21.8379 2.73912 22 3.13044 22 3.53846V8.03077C22.0023 11.0233 21.102 13.9469 19.4168 16.4198C17.7316 18.8927 15.3398 20.7999 12.5538 21.8923V21.8923Z" stroke="currentColor" stroke-linecap="round" stroke-linejoin="round"/><path d="M12 13.5384C14.1241 13.5384 15.8461 11.8165 15.8461 9.69228C15.8461 7.56811 14.1241 5.84613 12 5.84613C9.87579 5.84613 8.15381 7.56811 8.15381 9.69228C8.15381 11.8165 9.87579 13.5384 12 13.5384Z" stroke="currentColor" stroke-linecap="round" stroke-linejoin="round"/><path d="M6.23071 18.4461C6.95257 17.6276 7.84034 16.9721 8.83504 16.523C9.82973 16.074 10.9086 15.8418 11.9999 15.8418C13.0913 15.8418 14.1702 16.074 15.1648 16.523C16.1595 16.9721 17.0473 17.6276 17.7692 18.4461" stroke="currentColor" stroke-linecap="round" stroke-linejoin="round"/></svg>