<svg viewBox="0 0 16 16" fill="none" xmlns="http://www.w3.org/2000/svg"><path d="M14.0667 15H1.93333C1.6858 15 1.4484 14.9017 1.27337 14.7266C1.09833 14.5516 1 14.3142 1 14.0667V5.04009C1.00011 4.54506 1.19684 4.07034 1.54693 3.72036L3.71973 1.54693C3.8931 1.37351 4.09894 1.23595 4.3255 1.1421C4.55205 1.04826 4.79487 0.999971 5.04009 1H14.0667C14.3142 1 14.5516 1.09833 14.7266 1.27337C14.9017 1.4484 15 1.6858 15 1.93333V14.0667C15 14.3142 14.9017 14.5516 14.7266 14.7266C14.5516 14.9017 14.3142 15 14.0667 15Z" stroke="currentColor" stroke-linecap="round" stroke-linejoin="round"/><path d="M6 1V4.2C6 4.41217 6.10536 4.61566 6.29289 4.76569C6.48043 4.91571 6.73478 5 7 5H12C12.2652 5 12.5196 4.91571 12.7071 4.76569C12.8946 4.61566 13 4.41217 13 4.2V1" stroke="currentColor" stroke-linecap="round" stroke-linejoin="round"/><path d="M11 2.5V3.5" stroke="currentColor" stroke-linecap="round" stroke-linejoin="round"/><path d="M12 8H5C4.73478 8 4.48043 8.10536 4.29289 8.29289C4.10536 8.48043 4 8.73478 4 9V15H13V9C13 8.73478 12.8946 8.48043 12.7071 8.29289C12.5196 8.10536 12.2652 8 12 8Z" stroke="currentColor" stroke-linecap="round" stroke-linejoin="round"/><path d="M6 10H9" stroke="currentColor" stroke-linecap="round" stroke-linejoin="round"/><path d="M6 12H11" stroke="currentColor" stroke-linecap="round" stroke-linejoin="round"/></svg>