<svg viewBox="0 0 24 24" fill="none" xmlns="http://www.w3.org/2000/svg"><path clip-rule="evenodd" d="M5.25 15C7.32107 15 9 13.3211 9 11.25C9 9.17893 7.32107 7.5 5.25 7.5C3.17893 7.5 1.5 9.17893 1.5 11.25C1.5 13.3211 3.17893 15 5.25 15Z" stroke="currentColor" stroke-linecap="round" stroke-linejoin="round"/><path clip-rule="evenodd" d="M18.75 9.75C20.8211 9.75 22.5 8.07107 22.5 6C22.5 3.92893 20.8211 2.25 18.75 2.25C16.6789 2.25 15 3.92893 15 6C15 8.07107 16.6789 9.75 18.75 9.75Z" stroke="currentColor" stroke-linecap="round" stroke-linejoin="round"/><path clip-rule="evenodd" d="M18.75 21.75C20.8211 21.75 22.5 20.0711 22.5 18C22.5 15.9289 20.8211 14.25 18.75 14.25C16.6789 14.25 15 15.9289 15 18C15 20.0711 16.6789 21.75 18.75 21.75Z" stroke="currentColor" stroke-linecap="round" stroke-linejoin="round"/><path d="M8.74609 9.891L15.2541 7.36" stroke="currentColor" stroke-linecap="round" stroke-linejoin="round"/><path d="M8.60498 12.928L15.395 16.323" stroke="currentColor" stroke-linecap="round" stroke-linejoin="round"/></svg>