<svg viewBox="0 0 16 16" fill="none" xmlns="http://www.w3.org/2000/svg"><path d="M8.38769 14.9278C8.1382 15.0241 7.8618 15.0241 7.61231 14.9278C5.66552 14.1804 3.99126 12.8599 2.81068 11.1409C1.6301 9.42183 0.998744 7.38508 1.00001 5.29965V2.48875C0.999416 2.37082 1.0368 2.25584 1.10662 2.1608C1.17644 2.06576 1.27499 1.99572 1.3877 1.96103C5.70279 0.679655 10.2972 0.679655 14.6123 1.96103C14.725 1.99572 14.8236 2.06576 14.8934 2.1608C14.9632 2.25584 15.0006 2.37082 15 2.48875V5.29965C15.0013 7.38508 14.3699 9.42183 13.1893 11.1409C12.0087 12.8599 10.3345 14.1804 8.38769 14.9278Z" stroke="currentColor" stroke-linecap="round" stroke-linejoin="round"/></svg>