<svg viewBox="0 0 24 24" fill="none" xmlns="http://www.w3.org/2000/svg"><path d="M11.2666 17.1334C11.2666 18.6893 11.8847 20.1815 12.9849 21.2818C14.0851 22.382 15.5773 23.0001 17.1333 23.0001C18.6892 23.0001 20.1814 22.382 21.2816 21.2818C22.3818 20.1815 22.9999 18.6893 22.9999 17.1334C22.9999 15.5775 22.3818 14.0852 21.2816 12.985C20.1814 11.8848 18.6892 11.2667 17.1333 11.2667C15.5773 11.2667 14.0851 11.8848 12.9849 12.985C11.8847 14.0852 11.2666 15.5775 11.2666 17.1334Z" stroke="currentColor" stroke-linecap="round" stroke-linejoin="round"/><path d="M18.4221 14.422H16.6267C16.0578 14.4202 15.5681 14.8231 15.4601 15.3816C15.3522 15.9401 15.6566 16.4964 16.1851 16.7067L18.007 17.4362C18.5336 17.6481 18.836 18.2034 18.7283 18.7606C18.6206 19.3179 18.133 19.7205 17.5655 19.7209H15.7727" stroke="currentColor" stroke-linecap="round" stroke-linejoin="round"/><path d="M17.0972 14.4221V13.7598" stroke="currentColor" stroke-linecap="round" stroke-linejoin="round"/><path d="M17.0972 20.3833V19.7209" stroke="currentColor" stroke-linecap="round" stroke-linejoin="round"/><path d="M8.33333 18.6H2.46667C2.07768 18.6 1.70463 18.4455 1.42958 18.1704C1.15452 17.8954 1 17.5223 1 17.1334V6.86669C1 6.47771 1.15452 6.10465 1.42958 5.8296C1.70463 5.55455 2.07768 5.40002 2.46667 5.40002H17.1333C17.5223 5.40002 17.8954 5.55455 18.1704 5.8296C18.4455 6.10465 18.6 6.47771 18.6 6.86669V8.33336" stroke="currentColor" stroke-linecap="round" stroke-linejoin="round"/><path d="M18.1271 5.78818L15.3688 1.65316C15.2352 1.45267 15.0542 1.28819 14.8419 1.17427C14.6296 1.06035 14.3924 1.0005 14.1515 1H5.44928C5.20783 1.00002 4.97012 1.05964 4.75725 1.17358C4.54438 1.28752 4.36293 1.45225 4.22901 1.65316L1.47363 5.78818" stroke="currentColor" stroke-linecap="round" stroke-linejoin="round"/><path d="M9.80005 1V5.4" stroke="currentColor" stroke-linecap="round" stroke-linejoin="round"/></svg>