<svg viewBox="0 0 24 24" fill="none" xmlns="http://www.w3.org/2000/svg"><path clip-rule="evenodd" d="M12.7289 1.20002L16.0749 7.82902L22.5149 8.46702C22.828 8.49303 23.0973 8.69877 23.2048 8.99397C23.3122 9.28917 23.2381 9.61989 23.0149 9.84102L17.7149 15.094L19.6799 22.232C19.7621 22.5413 19.6551 22.87 19.4068 23.0717C19.1584 23.2735 18.8148 23.3108 18.5289 23.167L11.9999 19.934L5.47995 23.163C5.19407 23.3068 4.85046 23.2695 4.6021 23.0677C4.35374 22.866 4.24682 22.5373 4.32895 22.228L6.29395 15.09L0.989945 9.83702C0.766825 9.61589 0.692719 9.28517 0.800141 8.98997C0.907564 8.69477 1.17689 8.48903 1.48995 8.46302L7.92994 7.82502L11.2709 1.20002C11.411 0.926401 11.6926 0.754272 11.9999 0.754272C12.3073 0.754272 12.5889 0.926401 12.7289 1.20002Z" stroke="currentColor" stroke-linecap="round" stroke-linejoin="round"/></svg>