<svg viewBox="0 0 24 24" fill="none" xmlns="http://www.w3.org/2000/svg"><path clip-rule="evenodd" d="M17.8847 13.0013L19.1801 15.3332H21.3858C21.6325 15.3289 21.857 15.4752 21.9528 15.7027C22.0485 15.9301 21.9961 16.1929 21.8205 16.3663L19.7953 18.5791L20.9173 21.1574C21.0185 21.3994 20.9538 21.6791 20.7566 21.8521C20.5594 22.0251 20.2737 22.0529 20.0469 21.9211L17.3344 20.3928L14.6228 21.9184C14.3959 22.0496 14.1106 22.0217 13.9134 21.8489C13.7163 21.6761 13.6512 21.3969 13.7516 21.1547L14.8744 18.5765L12.8492 16.3654C12.6736 16.192 12.6212 15.9292 12.717 15.7018C12.8127 15.4743 13.0372 15.328 13.2839 15.3323H15.4896L16.7841 13.0004C16.8894 12.7931 17.1022 12.6626 17.3347 12.6628C17.5672 12.663 17.7798 12.7938 17.8847 13.0013Z" stroke="currentColor" stroke-linecap="round" stroke-linejoin="round"/><path clip-rule="evenodd" d="M7.21619 13.0013L8.51064 15.3332H10.7164C10.9628 15.3295 11.1869 15.4757 11.2827 15.7028C11.3785 15.93 11.3268 16.1925 11.152 16.3663L9.12586 18.5792L10.2487 21.1574C10.3491 21.3996 10.284 21.6788 10.0869 21.8516C9.88972 22.0244 9.6044 22.0523 9.37746 21.9211L6.66587 20.3928L3.95339 21.9184C3.72706 22.0491 3.44268 22.0213 3.24593 21.8493C3.04919 21.6773 2.9837 21.3991 3.08301 21.1574L4.20499 18.5792L2.17974 16.3663C2.00416 16.1929 1.95181 15.9301 2.04752 15.7027C2.14324 15.4752 2.36775 15.3289 2.61448 15.3332H4.82021L6.11555 13.0013C6.22067 12.7939 6.4334 12.6633 6.66587 12.6633C6.89834 12.6633 7.11107 12.7939 7.21619 13.0013Z" stroke="currentColor" stroke-linecap="round" stroke-linejoin="round"/><path clip-rule="evenodd" d="M12.5504 2.33716L13.844 4.66647H16.0488C16.2956 4.66215 16.5201 4.80844 16.6158 5.03589C16.7115 5.26334 16.6592 5.52614 16.4836 5.69954L14.4592 7.9106L15.5812 10.4888C15.6824 10.7309 15.6177 11.0105 15.4205 11.1835C15.2233 11.3566 14.9377 11.3843 14.7108 11.2525L12.0001 9.72515L9.28941 11.2499C9.06258 11.3817 8.77691 11.3539 8.57971 11.1809C8.38251 11.0079 8.31783 10.7282 8.41903 10.4862L9.54101 7.9106L7.51665 5.69954C7.34108 5.52614 7.28872 5.26334 7.38444 5.03589C7.48015 4.80844 7.70467 4.66215 7.95139 4.66647H10.1553L11.4507 2.33716C11.556 2.1303 11.7684 2.00003 12.0006 2.00003C12.2327 2.00003 12.4452 2.1303 12.5504 2.33716Z" stroke="currentColor" stroke-linecap="round" stroke-linejoin="round"/></svg>