<svg viewBox="0 0 24 24" fill="none" xmlns="http://www.w3.org/2000/svg"><path clip-rule="evenodd" d="M17.25 9.75H22.25C22.8023 9.75 23.25 10.1977 23.25 10.75V22.25C23.25 22.8023 22.8023 23.25 22.25 23.25H18.25C17.6977 23.25 17.25 22.8023 17.25 22.25V9.75Z" stroke="currentColor" stroke-linecap="round" stroke-linejoin="round"/><path d="M17.25 21.75L23.25 15.75" stroke="currentColor" stroke-linecap="round" stroke-linejoin="round"/><path d="M17.25 17.25L23.25 11.25" stroke="currentColor" stroke-linecap="round" stroke-linejoin="round"/><path d="M17.25 9.75L4.5 0.75" stroke="currentColor" stroke-linecap="round" stroke-linejoin="round"/><path d="M12.049 13.608L10.3 9.71C9.97016 8.83122 9.12964 8.24935 8.191 8.25H0.75" stroke="currentColor" stroke-linecap="round" stroke-linejoin="round"/><path d="M13.5 20.049V21.749C13.5 22.5774 12.8284 23.249 12 23.249C11.1716 23.249 10.5 22.5774 10.5 21.749V20.249" stroke="currentColor" stroke-linecap="round" stroke-linejoin="round"/><path d="M10.875 16.5C11.0821 16.5 11.25 16.6679 11.25 16.875" stroke="currentColor" stroke-linecap="round" stroke-linejoin="round"/><path d="M10.5 16.875C10.5 16.6679 10.6679 16.5 10.875 16.5" stroke="currentColor" stroke-linecap="round" stroke-linejoin="round"/><path d="M10.875 17.25C10.6679 17.25 10.5 17.0821 10.5 16.875" stroke="currentColor" stroke-linecap="round" stroke-linejoin="round"/><path d="M11.25 16.875C11.25 17.0821 11.0821 17.25 10.875 17.25" stroke="currentColor" stroke-linecap="round" stroke-linejoin="round"/><path d="M0.75 13.5H11.25C12.9069 13.5 14.25 14.8431 14.25 16.5V18.75C14.25 19.5784 13.5784 20.25 12.75 20.25H0.75" stroke="currentColor" stroke-linecap="round" stroke-linejoin="round"/></svg>