<svg viewBox="0 0 24 24" fill="none" xmlns="http://www.w3.org/2000/svg"><path d="M22 9.33355V5.46689C22.0001 4.92157 21.6681 4.43116 21.1618 4.22867L15.8284 2.09533C15.5106 1.96822 15.1561 1.96822 14.8382 2.09533L9.16178 4.36644C8.84394 4.49355 8.48939 4.49355 8.17156 4.36644L2.91467 2.26333C2.7087 2.18078 2.47516 2.20613 2.29169 2.33094C2.10822 2.45575 1.99888 2.66366 2.00001 2.88556V15.6615C1.99992 16.2069 2.3319 16.6973 2.83823 16.8998L8.17156 19.0331C8.48939 19.1602 8.84394 19.1602 9.16178 19.0331L11.7227 18.0082" stroke="currentColor" stroke-linecap="round" stroke-linejoin="round"/><path d="M8.66663 4.46136V19.128" stroke="currentColor" stroke-linecap="round" stroke-linejoin="round"/><path d="M15.3334 2V8.66666" stroke="currentColor" stroke-linecap="round" stroke-linejoin="round"/><path d="M18 15.0658C18.1841 15.0658 18.3333 15.215 18.3333 15.3991" stroke="currentColor" stroke-linecap="round" stroke-linejoin="round"/><path d="M17.6666 15.3991C17.6666 15.215 17.8159 15.0658 18 15.0658" stroke="currentColor" stroke-linecap="round" stroke-linejoin="round"/><path d="M18 15.7333C17.8159 15.7333 17.6666 15.5841 17.6666 15.4" stroke="currentColor" stroke-linecap="round" stroke-linejoin="round"/><path d="M18.3333 15.3991C18.3333 15.5832 18.1841 15.7324 18 15.7324" stroke="currentColor" stroke-linecap="round" stroke-linejoin="round"/><path clip-rule="evenodd" d="M18 11.3991C20.2091 11.3991 22 13.19 22 15.3991C22 17.1067 19.6107 20.3555 18.5253 21.744C18.399 21.9057 18.2052 22.0002 18 22.0002C17.7948 22.0002 17.601 21.9057 17.4747 21.744C16.3893 20.3564 14 17.1067 14 15.3991C14 13.19 15.7909 11.3991 18 11.3991V11.3991Z" stroke="currentColor" stroke-linecap="round" stroke-linejoin="round"/></svg>