<svg viewBox="0 0 24 24" fill="none" xmlns="http://www.w3.org/2000/svg"><path d="M7.538 21.75H6.75C5.92157 21.75 5.25 21.0784 5.25 20.25V14.25C5.25 13.4216 5.92157 12.75 6.75 12.75H15.75C16.5784 12.75 17.25 13.4216 17.25 14.25V19.538" stroke="currentColor" stroke-linecap="round" stroke-linejoin="round"/><path d="M17.25 14.25H20.25C21.9069 14.25 23.25 15.5931 23.25 17.25V20.25C23.25 21.0784 22.5784 21.75 21.75 21.75H19.462" stroke="currentColor" stroke-linecap="round" stroke-linejoin="round"/><path clip-rule="evenodd" d="M17.625 23.25C18.6605 23.25 19.5 22.4105 19.5 21.375C19.5 20.3395 18.6605 19.5 17.625 19.5C16.5895 19.5 15.75 20.3395 15.75 21.375C15.75 22.4105 16.5895 23.25 17.625 23.25Z" stroke="currentColor" stroke-linecap="round" stroke-linejoin="round"/><path clip-rule="evenodd" d="M9.375 23.25C10.4105 23.25 11.25 22.4105 11.25 21.375C11.25 20.3395 10.4105 19.5 9.375 19.5C8.33947 19.5 7.5 20.3395 7.5 21.375C7.5 22.4105 8.33947 23.25 9.375 23.25Z" stroke="currentColor" stroke-linecap="round" stroke-linejoin="round"/><path d="M15.788 21.75H11.212" stroke="currentColor" stroke-linecap="round" stroke-linejoin="round"/><path d="M23.25 17.25H20.25" stroke="currentColor" stroke-linecap="round" stroke-linejoin="round"/><path d="M1.75701 13.891C0.0414418 10.5761 0.550009 6.5463 3.03536 3.76157C5.52072 0.976839 9.46701 0.0151719 12.9549 1.3443C16.4427 2.67343 18.7482 6.01749 18.75 9.75001" stroke="currentColor" stroke-linecap="round" stroke-linejoin="round"/><path d="M9.74999 0.75C7.26709 3.07335 5.90139 6.35102 5.99999 9.75" stroke="currentColor" stroke-linecap="round" stroke-linejoin="round"/><path d="M9.75 0.75C12.2329 3.07335 13.5986 6.35102 13.5 9.75" stroke="currentColor" stroke-linecap="round" stroke-linejoin="round"/><path d="M1.26306 6.75H18.2341" stroke="currentColor" stroke-linecap="round" stroke-linejoin="round"/></svg>