<svg xmlns="http://www.w3.org/2000/svg" viewBox="0 0 24 24"><g><path d="M22.5,19.5a1,1,0,0,0,1-1v-7" fill="none" stroke="currentColor" stroke-linecap="round" stroke-linejoin="round"/><path d="M12.5,19.5V2.5a1,1,0,0,0-1-1H.5" fill="none" stroke="currentColor" stroke-linecap="round" stroke-linejoin="round"/><line x1="8.5" y1="13" x2="8.5" y2="4.5" fill="none" stroke="currentColor" stroke-linecap="round" stroke-linejoin="round"/><line x1="4.5" y1="13" x2="4.5" y2="4.5" fill="none" stroke="currentColor" stroke-linecap="round" stroke-linejoin="round"/><line x1="23.5" y1="16" x2="14.5" y2="16" fill="none" stroke="currentColor" stroke-linecap="round" stroke-linejoin="round"/><line x1="12.5" y1="16" x2="0.5" y2="16" fill="none" stroke="currentColor" stroke-linecap="round" stroke-linejoin="round"/><path d="M23.5,16.5v-7c0-4-2.8-5-5-5h-6" fill="none" stroke="currentColor" stroke-linecap="round" stroke-linejoin="round"/><path d="M23.5,12.5h-4a1,1,0,0,1-1-1.06V4.5" fill="none" stroke="currentColor" stroke-linecap="round" stroke-linejoin="round"/><circle cx="2.5" cy="20.5" r="2" fill="none" stroke="currentColor" stroke-linecap="round" stroke-linejoin="round"/><circle cx="9.5" cy="20.5" r="2" fill="none" stroke="currentColor" stroke-linecap="round" stroke-linejoin="round"/><circle cx="18.5" cy="20.5" r="2" fill="none" stroke="currentColor" stroke-linecap="round" stroke-linejoin="round"/><path d="M19.58,4.58,18.27,3.27A5,5,0,0,0,14.5,1.5v3" fill="none" stroke="currentColor" stroke-linecap="round" stroke-linejoin="round"/><line x1="16.77" y1="19.5" x2="11.23" y2="19.5" fill="none" stroke="currentColor" stroke-linecap="round" stroke-linejoin="round"/><line x1="7.77" y1="19.5" x2="4.23" y2="19.5" fill="none" stroke="currentColor" stroke-linecap="round" stroke-linejoin="round"/></g></svg>