<svg viewBox="0 0 24 24" fill="none" xmlns="http://www.w3.org/2000/svg"><path clip-rule="evenodd" d="M17.25 23.25C18.4926 23.25 19.5 22.2426 19.5 21C19.5 19.7574 18.4926 18.75 17.25 18.75C16.0074 18.75 15 19.7574 15 21C15 22.2426 16.0074 23.25 17.25 23.25Z" stroke="currentColor" stroke-linecap="round" stroke-linejoin="round"/><path clip-rule="evenodd" d="M3 23.25C4.24264 23.25 5.25 22.2426 5.25 21C5.25 19.7574 4.24264 18.75 3 18.75C1.75736 18.75 0.75 19.7574 0.75 21C0.75 22.2426 1.75736 23.25 3 23.25Z" stroke="currentColor" stroke-linecap="round" stroke-linejoin="round"/><path clip-rule="evenodd" d="M9.75 23.25C10.9926 23.25 12 22.2426 12 21C12 19.7574 10.9926 18.75 9.75 18.75C8.50736 18.75 7.5 19.7574 7.5 21C7.5 22.2426 8.50736 23.25 9.75 23.25Z" stroke="currentColor" stroke-linecap="round" stroke-linejoin="round"/><path d="M9.75 18.75V2.8C9.75 1.666 9.1 0.75 8.306 0.75H0.75" stroke="currentColor" stroke-linecap="round" stroke-linejoin="round"/><path d="M7.5 21H5.25" stroke="currentColor" stroke-linecap="round" stroke-linejoin="round"/><path d="M23.25 12.75H20.109C18.9892 12.7911 18.0466 11.9196 18 10.8V6" stroke="currentColor" stroke-linecap="round" stroke-linejoin="round"/><path d="M0.75 15H9.75" stroke="currentColor" stroke-linecap="round" stroke-linejoin="round"/><path d="M2.25 12V3.81799" stroke="currentColor" stroke-linecap="round" stroke-linejoin="round"/><path d="M6 12V3.81799" stroke="currentColor" stroke-linecap="round" stroke-linejoin="round"/><path d="M19.5 21H21.75C22.5784 21 23.25 20.3284 23.25 19.5V10.5C23.25 8.01472 21.2353 6 18.75 6H13.5V18" stroke="currentColor" stroke-linecap="round" stroke-linejoin="round"/><path d="M13.5 5.99999V2.24999C16.165 2.11899 17.755 3.60999 18.75 5.99999" stroke="currentColor" stroke-linecap="round" stroke-linejoin="round"/></svg>