<svg viewBox="0 0 24 24" fill="none" xmlns="http://www.w3.org/2000/svg"><path d="M13.6845 3.75358C11.2144 5.40105 11.6167 7.7553 11.7695 8.5459C7.1584 8.27455 4.14433 5.667 2.98189 4.45585C2.72289 4.18598 2.25176 4.24709 2.14351 4.60395C0.976981 8.44975 4.94996 11.9544 4.94996 11.9544C4.2476 11.9544 2.84494 11.7177 2.04203 11.5709C1.73069 11.5139 1.44173 11.752 1.51014 12.0588C2.03284 14.4026 5.39895 16.9816 7.5977 16.9231C6.20595 18.2336 4.43771 18.7179 3.07331 18.8824C2.54733 18.9458 2.32964 19.7271 2.81375 19.9408C11.1288 23.6116 21.2475 17.3295 20.7323 7.44065L22.4078 5.0748C22.6476 4.7363 22.3903 4.27222 21.9739 4.29185L19.5128 4.40785C18.5336 3.25843 15.9246 2.25959 13.6845 3.75358Z" stroke="currentColor" stroke-linecap="round" stroke-linejoin="round"/></svg>