<svg viewBox="0 0 17 16" fill="none" xmlns="http://www.w3.org/2000/svg"><g clip-path="url(#clip0_778_30314)"><path d="M1.25 11.4999C1.25036 10.684 1.4725 9.88356 1.89266 9.18417C2.31283 8.48478 2.91521 7.91276 3.63537 7.52929C4.35554 7.14582 5.1664 6.96534 5.98122 7.00713C6.79605 7.04893 7.58418 7.31143 8.26133 7.76658" stroke="currentColor" stroke-linecap="round" stroke-linejoin="round"/><path d="M3 3.25C3 3.97935 3.28973 4.67882 3.80546 5.19454C4.32118 5.71027 5.02065 6 5.75 6C6.47935 6 7.17882 5.71027 7.69454 5.19454C8.21027 4.67882 8.5 3.97935 8.5 3.25C8.5 2.52065 8.21027 1.82118 7.69454 1.30546C7.17882 0.789731 6.47935 0.5 5.75 0.5C5.02065 0.5 4.32118 0.789731 3.80546 1.30546C3.28973 1.82118 3 2.52065 3 3.25V3.25Z" stroke="currentColor" stroke-linecap="round" stroke-linejoin="round"/><path d="M12.714 7.78671L13.742 10H15.742C15.8428 9.99609 15.9424 10.0234 16.0272 10.0782C16.112 10.133 16.1777 10.2126 16.2155 10.3062C16.2533 10.3998 16.2613 10.5028 16.2383 10.6011C16.2154 10.6994 16.1626 10.7882 16.0873 10.8554L14.354 12.5634L15.316 14.7727C15.358 14.8739 15.3672 14.9856 15.3424 15.0923C15.3176 15.199 15.2599 15.2952 15.1776 15.3675C15.0953 15.4397 14.9924 15.4843 14.8834 15.4951C14.7744 15.5058 14.6648 15.4821 14.57 15.4274L12.2453 14.12L9.92129 15.4274C9.82644 15.4824 9.71671 15.5063 9.60757 15.4956C9.49843 15.485 9.39538 15.4404 9.31292 15.3681C9.23047 15.2958 9.17278 15.1995 9.14797 15.0927C9.12316 14.9859 9.13248 14.8739 9.17463 14.7727L10.1366 12.5634L8.40329 10.8554C8.32809 10.7887 8.27523 10.7005 8.2519 10.6028C8.22856 10.505 8.23589 10.4025 8.27289 10.309C8.30989 10.2156 8.37475 10.1358 8.45868 10.0805C8.5426 10.0253 8.64151 9.99715 8.74196 10H10.742L11.7713 7.78471C11.8168 7.69914 11.8848 7.6276 11.968 7.57778C12.0511 7.52796 12.1463 7.50175 12.2432 7.50195C12.3402 7.50216 12.4352 7.52878 12.5181 7.57895C12.6011 7.62912 12.6688 7.70095 12.714 7.78671Z" stroke="currentColor" stroke-linecap="round" stroke-linejoin="round"/></g><defs><clipPath id="clip0_778_30314"><rect width="16" height="16" fill="currentColor" transform="translate(0.75)"/></clipPath></defs></svg>