<svg viewBox="0 0 24 24" fill="none" xmlns="http://www.w3.org/2000/svg"><path d="M2.01074 17.392C2.01152 16.2523 2.2947 15.1307 2.83497 14.1272C3.37524 13.1238 4.15576 12.2699 5.10673 11.6418C6.0577 11.0137 7.1495 10.6311 8.2845 10.5282C9.41948 10.4252 10.5623 10.6052 11.6107 11.0519" stroke="currentColor" stroke-width="0.851064" stroke-linecap="round" stroke-linejoin="round"/><path d="M8.44238 9C10.5134 9 12.1924 7.32106 12.1924 5.25C12.1924 3.17894 10.5134 1.5 8.44238 1.5C6.37132 1.5 4.69238 3.17894 4.69238 5.25C4.69238 7.32106 6.37132 9 8.44238 9Z" stroke="currentColor" stroke-width="0.851064" stroke-linecap="round" stroke-linejoin="round"/><path d="M17.2358 23.2341C20.5495 23.2341 23.2358 20.5478 23.2358 17.2341C23.2358 13.9204 20.5495 11.2341 17.2358 11.2341C13.9221 11.2341 11.2358 13.9204 11.2358 17.2341C11.2358 20.5478 13.9221 23.2341 17.2358 23.2341Z" stroke="currentColor" stroke-width="0.851064" stroke-linecap="round" stroke-linejoin="round"/><path d="M17.3625 20.4258V17.3619" stroke="currentColor" stroke-width="0.851064" stroke-linecap="round" stroke-linejoin="round"/><path d="M17.361 15.0641C17.1495 15.0641 16.978 14.8926 16.978 14.6811C16.978 14.4696 17.1495 14.2981 17.361 14.2981" stroke="currentColor" stroke-width="0.851064"/><path d="M17.3625 15.0641C17.5741 15.0641 17.7455 14.8926 17.7455 14.6811C17.7455 14.4696 17.5741 14.2981 17.3625 14.2981" stroke="currentColor" stroke-width="0.851064"/></svg>