<svg viewBox="0 0 24 24" fill="none" xmlns="http://www.w3.org/2000/svg"><path d="M22 18V20.6667C22 21.403 21.403 22 20.6667 22H18" stroke="currentColor" stroke-linecap="round" stroke-linejoin="round"/><path d="M18 2H20.6667C21.403 2 22 2.59695 22 3.33333V6" stroke="currentColor" stroke-linecap="round" stroke-linejoin="round"/><path d="M2 6V3.33333C2 2.59695 2.59695 2 3.33333 2H6" stroke="currentColor" stroke-linecap="round" stroke-linejoin="round"/><path d="M6 22H3.33333C2.59695 22 2 21.403 2 20.6667V18" stroke="currentColor" stroke-linecap="round" stroke-linejoin="round"/><path clip-rule="evenodd" d="M12 13C14.0251 13 15.6667 11.3584 15.6667 9.33333C15.6667 7.30829 14.0251 5.66666 12 5.66666C9.975 5.66666 8.33337 7.30829 8.33337 9.33333C8.33337 11.3584 9.975 13 12 13Z" stroke="currentColor" stroke-linecap="round" stroke-linejoin="round"/><path d="M17.6578 18.3333C16.8102 15.9356 14.5432 14.3325 12.0001 14.3325C9.45689 14.3325 7.18991 15.9356 6.34229 18.3333" stroke="currentColor" stroke-linecap="round" stroke-linejoin="round"/></svg>