<svg viewBox="0 0 42 24" fill="none" xmlns="http://www.w3.org/2000/svg"><path d="M40.3033 9.86729L37.7751 8.59423C37.5564 8.48476 37.3151 8.42824 37.0707 8.42921H33.3449V6.07168C33.3449 5.65485 33.18 5.25508 32.8864 4.96033C32.5928 4.66559 32.1947 4.5 31.7795 4.5H19.2559C18.8407 4.5 18.4425 4.66559 18.1489 4.96033C17.8554 5.25508 17.6904 5.65485 17.6904 6.07168V17.8593C17.6904 18.2761 17.8554 18.6759 18.1489 18.9706C18.4425 19.2654 18.8407 19.431 19.2559 19.431H19.3655C19.5457 20.0969 19.9392 20.6847 20.4852 21.1038C21.0312 21.5229 21.6995 21.75 22.3868 21.75C23.0741 21.75 23.7423 21.5229 24.2883 21.1038C24.8344 20.6847 25.2278 20.0969 25.4081 19.431H31.8891C32.0693 20.0969 32.4628 20.6847 33.0088 21.1038C33.5548 21.5229 34.2231 21.75 34.9104 21.75C35.5977 21.75 36.2659 21.5229 36.8119 21.1038C37.3579 20.6847 37.7514 20.0969 37.9317 19.431H39.6067C40.0219 19.431 40.4201 19.2654 40.7137 18.9706C41.0072 18.6759 41.1722 18.2761 41.1722 17.8593V11.274C41.172 10.9816 41.0906 10.695 40.9371 10.4465C40.7836 10.198 40.5642 9.99741 40.3033 9.86729ZM19.2559 6.07168H31.7795V17.8593H25.4159C25.4159 17.7493 25.3455 17.655 25.3142 17.545C25.2829 17.4349 25.3142 17.4428 25.2594 17.3957C25.1831 17.2242 25.0942 17.0587 24.9932 16.9006L24.915 16.8063C24.83 16.6886 24.7385 16.5758 24.641 16.4684L24.4923 16.3348C24.4056 16.2478 24.3113 16.1689 24.2105 16.099L24.0305 15.9811L23.7174 15.8083L23.5217 15.7218C23.4068 15.6775 23.2892 15.6408 23.1695 15.6118C23.1105 15.5925 23.0504 15.5768 22.9895 15.5646C22.6026 15.4809 22.2023 15.4809 21.8154 15.5646C21.7545 15.5768 21.6944 15.5925 21.6354 15.6118C21.5104 15.6401 21.3875 15.6769 21.2675 15.7218L21.0718 15.8083L20.7587 15.9811L20.5787 16.099C20.4779 16.1689 20.3836 16.2478 20.2969 16.3348C20.2499 16.3819 20.1951 16.4212 20.156 16.4684C20.0538 16.5737 19.9596 16.6867 19.8742 16.8063L19.796 16.9006C19.695 17.0587 19.6061 17.2242 19.5298 17.3957C19.5298 17.4428 19.5298 17.4978 19.475 17.545C19.4202 17.5921 19.3968 17.7493 19.3733 17.8593H19.2559V6.07168ZM22.3868 20.2168C22.0772 20.2168 21.7745 20.1246 21.5171 19.9519C21.2596 19.7792 21.059 19.5338 20.9405 19.2466C20.822 18.9594 20.791 18.6434 20.8514 18.3385C20.9118 18.0336 21.0609 17.7536 21.2798 17.5338C21.4988 17.314 21.7777 17.1643 22.0814 17.1037C22.385 17.043 22.6998 17.0741 22.9858 17.1931C23.2719 17.3121 23.5164 17.5135 23.6884 17.772C23.8604 18.0304 23.9522 18.3343 23.9522 18.6451C23.9522 19.062 23.7873 19.4617 23.4937 19.7565C23.2001 20.0512 22.802 20.2168 22.3868 20.2168ZM34.9104 20.2168C34.6008 20.2168 34.2981 20.1246 34.0407 19.9519C33.7832 19.7792 33.5826 19.5338 33.4641 19.2466C33.3456 18.9594 33.3146 18.6434 33.375 18.3385C33.4354 18.0336 33.5845 17.7536 33.8034 17.5338C34.0224 17.314 34.3013 17.1643 34.605 17.1037C34.9086 17.043 35.2234 17.0741 35.5094 17.1931C35.7955 17.3121 36.04 17.5135 36.212 17.772C36.384 18.0304 36.4758 18.3343 36.4758 18.6451C36.4758 19.062 36.3109 19.4617 36.0173 19.7565C35.7237 20.0512 35.3256 20.2168 34.9104 20.2168ZM39.6067 17.8593H37.9395C37.9395 17.7493 37.8691 17.655 37.8378 17.545C37.8065 17.4349 37.8378 17.4428 37.783 17.3957C37.7067 17.2242 37.6178 17.0587 37.5168 16.9006L37.4386 16.8063C37.3535 16.6886 37.2621 16.5758 37.1646 16.4684L37.0159 16.3348C36.9292 16.2478 36.8349 16.1689 36.7341 16.099L36.5541 15.9811L36.241 15.8083L36.0453 15.7218C35.9253 15.6769 35.8024 15.6401 35.6774 15.6118C35.6184 15.5925 35.5583 15.5768 35.4974 15.5646C35.3044 15.5235 35.1077 15.5024 34.9104 15.5018C34.7213 15.5041 34.5328 15.5225 34.3468 15.5568H34.2137C34.0369 15.5925 33.8639 15.6451 33.6971 15.714V15.714L33.3684 15.879V10.0009H37.0942L39.6067 11.274V17.8593Z" fill="currentColor"/><rect x="10.4343" y="7.11871" width="4.30902" height="0.873157" rx="0.436578" stroke="currentColor" stroke-width="1.0"/><rect x="5.2521" y="11.4843" width="9.4912" height="0.873157" rx="0.436578" stroke="currentColor" stroke-width="1.0"/><rect x="1.7974" y="15.8506" width="12.946" height="0.873157" rx="0.436579" stroke="currentColor" stroke-width="1.0"/></svg>