<svg viewBox="0 0 24 24" fill="none" xmlns="http://www.w3.org/2000/svg"><path clip-rule="evenodd" d="M18.375 22.463C19.4105 22.463 20.25 21.6235 20.25 20.588C20.25 19.5525 19.4105 18.713 18.375 18.713C17.3395 18.713 16.5 19.5525 16.5 20.588C16.5 21.6235 17.3395 22.463 18.375 22.463Z" stroke="currentColor" stroke-linecap="round" stroke-linejoin="round"/><path clip-rule="evenodd" d="M2.625 22.463C3.66053 22.463 4.5 21.6235 4.5 20.588C4.5 19.5525 3.66053 18.713 2.625 18.713C1.58947 18.713 0.75 19.5525 0.75 20.588C0.75 21.6235 1.58947 22.463 2.625 22.463Z" stroke="currentColor" stroke-linecap="round" stroke-linejoin="round"/><path clip-rule="evenodd" d="M6.375 22.463C7.41053 22.463 8.25 21.6235 8.25 20.588C8.25 19.5525 7.41053 18.713 6.375 18.713C5.33947 18.713 4.5 19.5525 4.5 20.588C4.5 21.6235 5.33947 22.463 6.375 22.463Z" stroke="currentColor" stroke-linecap="round" stroke-linejoin="round"/><path d="M12 20.213V17.213H21.75C22.5784 17.213 23.25 17.8846 23.25 18.713C23.25 19.5414 22.5784 20.213 21.75 20.213H20.213" stroke="currentColor" stroke-linecap="round" stroke-linejoin="round"/><path d="M22.5 17.414V11.214C22.5 8.72871 20.4853 6.71399 18 6.71399H12V17.214" stroke="currentColor" stroke-linecap="round" stroke-linejoin="round"/><path d="M12 6.713V3.272C11.9998 2.81607 12.2069 2.38477 12.563 2.09995C12.919 1.81513 13.3852 1.7077 13.83 1.808C15.422 2.165 17.544 2.8 18 3.713C18.4285 4.65974 18.6825 5.67602 18.75 6.713V6.776" stroke="currentColor" stroke-linecap="round" stroke-linejoin="round"/><path d="M9 15.713H0.75" stroke="currentColor" stroke-linecap="round" stroke-linejoin="round"/><path d="M22.5 13.463H12" stroke="currentColor" stroke-linecap="round" stroke-linejoin="round"/><path d="M16.5 6.71301V13.463" stroke="currentColor" stroke-linecap="round" stroke-linejoin="round"/><path d="M9 17.213V2.96301C9 2.13459 8.32843 1.46301 7.5 1.46301H0.75" stroke="currentColor" stroke-linecap="round" stroke-linejoin="round"/><path d="M16.5379 20.213H11.9999H8.21094" stroke="currentColor" stroke-linecap="round" stroke-linejoin="round"/></svg>