<svg viewBox="0 0 24 24" fill="none" xmlns="http://www.w3.org/2000/svg"><path clip-rule="evenodd" d="M10.73 1.35677C11.0394 0.972196 11.5064 0.748535 12 0.748535C12.4936 0.748535 12.9606 0.972196 13.27 1.35677L14.782 3.23777C15.13 3.67146 15.6752 3.89767 16.228 3.83777L18.628 3.57677C19.1201 3.5221 19.6104 3.6941 19.9605 4.04422C20.3107 4.39435 20.4826 4.88465 20.428 5.37677L20.167 7.77677C20.1071 8.32958 20.3333 8.87476 20.767 9.22277L22.648 10.7348C23.0326 11.0442 23.2562 11.5112 23.2562 12.0048C23.2562 12.4984 23.0326 12.9654 22.648 13.2748L20.761 14.7798C20.3274 15.1283 20.1013 15.6737 20.161 16.2268L20.422 18.6268C20.477 19.119 20.3052 19.6095 19.9549 19.9597C19.6047 20.31 19.1142 20.4818 18.622 20.4268L16.222 20.1658C15.6691 20.1057 15.1239 20.3319 14.776 20.7658L13.27 22.6398C12.9608 23.0247 12.4937 23.2486 12 23.2486C11.5063 23.2486 11.0392 23.0247 10.73 22.6398L9.21897 20.7598C8.87053 20.3261 8.32507 20.0999 7.77197 20.1598L5.37197 20.4208C4.87966 20.4762 4.38889 20.3045 4.03857 19.9542C3.68825 19.6039 3.51652 19.1131 3.57197 18.6208L3.83297 16.2208C3.89285 15.6677 3.66667 15.1222 3.23297 14.7738L1.35297 13.2628C0.968058 12.9536 0.744141 12.4865 0.744141 11.9928C0.744141 11.499 0.968058 11.032 1.35297 10.7228L3.23297 9.21077C3.66681 8.86288 3.89306 8.31761 3.83297 7.76477L3.57197 5.36477C3.51691 4.87255 3.68878 4.38202 4.039 4.0318C4.38922 3.68158 4.87975 3.50971 5.37197 3.56477L7.77197 3.82577C8.32504 3.88545 8.87042 3.65931 9.21897 3.22577L10.73 1.35677Z" stroke="currentColor" stroke-linecap="round" stroke-linejoin="round"/><path d="M15.75 9.74854L11.769 15.0565C11.6385 15.2303 11.439 15.3389 11.2222 15.3543C11.0055 15.3696 10.7927 15.2902 10.639 15.1365L8.25 12.7485" stroke="currentColor" stroke-linecap="round" stroke-linejoin="round"/></svg>