<svg viewBox="0 0 24 24" fill="none" xmlns="http://www.w3.org/2000/svg"><path d="M2.78296 21L21.533 3" stroke="currentColor" stroke-linecap="round" stroke-linejoin="round"/><path d="M8.96399 19.051C9.9468 19.3562 10.9709 19.5077 12 19.5C16.1 19.569 20.258 16.687 22.824 13.863C23.3938 13.2304 23.3938 12.2696 22.824 11.637C21.8944 10.6172 20.8645 9.69356 19.75 8.88" stroke="currentColor" stroke-linecap="round" stroke-linejoin="round"/><path d="M14.4129 6.282C13.6239 6.08565 12.813 5.99088 11.9999 6C7.96895 5.933 3.79995 8.752 1.17895 11.635C0.609133 12.2676 0.609133 13.2284 1.17895 13.861C1.97587 14.7334 2.84569 15.5363 3.77895 16.261" stroke="currentColor" stroke-linecap="round" stroke-linejoin="round"/><path d="M8.25 12.75C8.24973 11.7554 8.64474 10.8014 9.34806 10.0981C10.0514 9.39474 11.0054 8.99973 12 9" stroke="currentColor" stroke-linecap="round" stroke-linejoin="round"/><path d="M15.75 12.749V12.749C15.7503 13.7437 15.3553 14.6978 14.652 15.4013C13.9487 16.1048 12.9947 16.5 12 16.5" stroke="currentColor" stroke-linecap="round" stroke-linejoin="round"/></svg>