<svg viewBox="0 0 26 25" fill="none" xmlns="http://www.w3.org/2000/svg"><path d="M25 14V2.54545C25 2.13557 24.8314 1.74248 24.5314 1.45265C24.2313 1.16282 23.8243 1 23.4 1H2.6C2.17565 1 1.76869 1.16282 1.46863 1.45265C1.16857 1.74248 1 2.13557 1 2.54545V16.4545C1 16.8644 1.16857 17.2575 1.46863 17.5473C1.76869 17.8372 2.17565 18 2.6 18H8" stroke="currentColor" stroke-linecap="round" stroke-linejoin="round"/><path d="M9 9C10.1046 9 11 8.10457 11 7C11 5.89543 10.1046 5 9 5C7.89543 5 7 5.89543 7 7C7 8.10457 7.89543 9 9 9Z" stroke="currentColor" stroke-linecap="round" stroke-linejoin="round"/><path d="M5 14C5 13.4747 5.10346 12.9546 5.30448 12.4693C5.5055 11.984 5.80014 11.543 6.17157 11.1716C6.54301 10.8001 6.98396 10.5055 7.46927 10.3045C7.95457 10.1035 8.47471 10 9 10C9.52529 10 10.0454 10.1035 10.5307 10.3045C11.016 10.5055 11.457 10.8001 11.8284 11.1716C12.1999 11.543 12.4945 11.984 12.6955 12.4693C12.8965 12.9546 13 13.4747 13 14H5Z" stroke="currentColor" stroke-linecap="round" stroke-linejoin="round"/><path d="M15 6H20" stroke="currentColor" stroke-linecap="round" stroke-linejoin="round"/><path d="M15 8.4043H22" stroke="currentColor" stroke-linecap="round" stroke-linejoin="round"/><path d="M25 19C25 19 22.6667 23 18 23C13.3333 23 11 19 11 19C11 19 13.3333 15 18 15C22.6667 15 25 19 25 19Z" stroke="currentColor" stroke-linecap="round" stroke-linejoin="round"/><path d="M18 21C19.1046 21 20 20.1046 20 19C20 17.8954 19.1046 17 18 17C16.8954 17 16 17.8954 16 19C16 20.1046 16.8954 21 18 21Z" stroke="currentColor" stroke-linecap="round" stroke-linejoin="round"/></svg>