<svg viewBox="0 0 24 24" fill="none" xmlns="http://www.w3.org/2000/svg"><g clip-path="url(#clip0_3072_494)"><path d="M22.0892 9.36981C22.3492 9.11981 22.5892 8.86981 22.8192 8.60981C23.0953 8.30608 23.2484 7.91032 23.2484 7.49981C23.2484 7.08931 23.0953 6.69354 22.8192 6.38981C20.1992 3.49981 15.9992 0.679812 11.9992 0.749812C7.99918 0.819812 3.79918 3.49981 1.17918 6.38981C0.903022 6.69354 0.75 7.08931 0.75 7.49981C0.75 7.91032 0.903022 8.30608 1.17918 8.60981C2.94365 10.5736 5.09094 12.156 7.48918 13.2598" stroke="currentColor" stroke-linecap="round" stroke-linejoin="round"/><path d="M9.25888 10.0599C8.8278 9.59743 8.52064 9.0335 8.36594 8.4205C8.21125 7.80751 8.21405 7.16535 8.37407 6.55373C8.5341 5.94211 8.84616 5.38087 9.28125 4.92218C9.71634 4.4635 10.2603 4.12226 10.8627 3.93019C11.465 3.73811 12.1061 3.70144 12.7264 3.82357C13.3467 3.94571 13.9261 4.22269 14.4106 4.62876C14.8952 5.03484 15.2692 5.55683 15.4979 6.14622C15.7267 6.7356 15.8027 7.37325 15.7189 7.99989" stroke="currentColor" stroke-linecap="round" stroke-linejoin="round"/><path d="M15.75 21C18.6495 21 21 18.6495 21 15.75C21 12.8505 18.6495 10.5 15.75 10.5C12.8505 10.5 10.5 12.8505 10.5 15.75C10.5 18.6495 12.8505 21 15.75 21Z" stroke="currentColor" stroke-linecap="round" stroke-linejoin="round"/><path d="M23.2502 23.25L19.4902 19.49" stroke="currentColor" stroke-linecap="round" stroke-linejoin="round"/></g><defs><clipPath id="clip0_3072_494"><rect width="24" height="24" fill="currentColor"/></clipPath></defs></svg>