<svg viewBox="0 0 24 24" fill="none" xmlns="http://www.w3.org/2000/svg"><path clip-rule="evenodd" d="M11.9999 5.251C7.96895 5.183 3.79995 8 1.17895 10.885C0.609133 11.5176 0.609133 12.4784 1.17895 13.111C3.74295 15.935 7.89995 18.817 11.9999 18.748C16.0999 18.817 20.2579 15.935 22.8239 13.111C23.3938 12.4784 23.3938 11.5176 22.8239 10.885C20.1999 8 16.0309 5.183 11.9999 5.251Z" stroke="currentColor" stroke-linecap="round" stroke-linejoin="round"/><path clip-rule="evenodd" d="M15.75 12C15.7494 14.0709 14.0703 15.7494 11.9993 15.749C9.9284 15.7486 8.24982 14.0696 8.25 11.9987C8.25018 9.92773 9.92906 8.249 12 8.249C12.9948 8.24874 13.9489 8.64388 14.6523 9.34741C15.3556 10.0509 15.7505 11.0052 15.75 12V12Z" stroke="currentColor" stroke-linecap="round" stroke-linejoin="round"/></svg>