<svg viewBox="0 0 22 22" fill="none" xmlns="http://www.w3.org/2000/svg"><path d="M11.0089 1.00007L11.0071 1.50007L11.0098 1.50006L11.0089 1.00007ZM1.00002 10.9966L0.500021 10.9939L0.500018 10.9956L1.00002 10.9966ZM2.90224 16.8547L3.37638 17.0134C3.42781 16.8598 3.4016 16.6907 3.30605 16.5599L2.90224 16.8547ZM1.65779 20.572L1.18366 20.4133C1.12385 20.592 1.16953 20.789 1.30182 20.9232C1.43411 21.0573 1.63056 21.1057 1.81 21.0483L1.65779 20.572ZM5.49779 19.3449L5.7737 18.9279C5.64735 18.8443 5.48991 18.8225 5.34559 18.8686L5.49779 19.3449ZM21 10.9966L21.5 11.0006L21.5 10.9939L21 10.9966ZM15.9718 13.7103C16.1102 13.9493 16.416 14.0309 16.655 13.8926C16.894 13.7542 16.9756 13.4483 16.8373 13.2093L15.9718 13.7103ZM12.3779 13.3255L12.6029 12.8789C12.595 12.875 12.587 12.8712 12.5789 12.8677L12.3779 13.3255ZM8.69788 10.1187L8.26555 10.3702L8.27224 10.3811L8.69788 10.1187ZM8.81344 9.59022L8.45853 9.23803C8.45419 9.24241 8.44992 9.24686 8.44574 9.2514L8.81344 9.59022ZM9.36455 8.99903L8.92545 8.75988C8.92241 8.76546 8.91948 8.7711 8.91665 8.77679L9.36455 8.99903ZM9.36455 8.5422L9.80365 8.30305C9.78606 8.27075 9.76496 8.24049 9.74073 8.21282L9.36455 8.5422ZM6.74233 6.46408L7.10644 6.80694L7.11389 6.79865L6.74233 6.46408ZM16.2623 14.6601L15.8519 14.3745C15.8428 14.3876 15.8343 14.4012 15.8265 14.4151L16.2623 14.6601ZM16.8711 13.298C16.7718 13.0403 16.4824 12.9119 16.2248 13.0112C15.9671 13.1105 15.8387 13.3998 15.938 13.6575L16.8711 13.298ZM11.0107 0.500069C5.23007 0.479219 0.53085 5.17812 0.500024 10.9939L1.50001 10.9992C1.52795 5.7278 5.78529 1.48123 11.0071 1.50006L11.0107 0.500069ZM0.500018 10.9956C0.495877 13.2091 1.1961 15.366 2.49843 17.1496L3.30605 16.5599C2.12947 14.9485 1.49627 12.999 1.50002 10.9975L0.500018 10.9956ZM2.4281 16.696L1.18366 20.4133L2.13193 20.7308L3.37638 17.0134L2.4281 16.696ZM1.81 21.0483L5.65 19.8212L5.34559 18.8686L1.50559 20.0958L1.81 21.0483ZM5.22188 19.7619C8.43815 21.8901 12.5521 22.0773 15.9459 20.2497L15.4718 19.3692C12.4026 21.022 8.68291 20.8529 5.7737 18.9279L5.22188 19.7619ZM15.9459 20.2497C19.3393 18.4222 21.4685 14.8738 21.5 11.0006L20.5 10.9925C20.4715 14.5035 18.5414 17.7161 15.4718 19.3692L15.9459 20.2497ZM21.5 10.9939C21.4692 5.18547 16.7813 0.489613 11.008 0.500067L11.0098 1.50006C16.225 1.49062 20.4721 5.73447 20.5 10.9992L21.5 10.9939ZM16.8373 13.2093C16.7332 13.0296 16.5663 12.9298 16.4723 12.8774C16.3718 12.8215 16.2344 12.7586 16.1255 12.7057L15.688 13.6049C15.7495 13.6348 15.8229 13.6695 15.8671 13.6909C15.9193 13.7161 15.9568 13.735 15.9857 13.7511C16.0153 13.7676 16.0241 13.7747 16.0225 13.7734C16.0204 13.7717 15.9958 13.7518 15.9718 13.7103L16.8373 13.2093ZM16.1255 12.7057C15.8911 12.5916 14.5666 11.9377 14.3097 11.8381L13.9483 12.7705C14.1536 12.8501 15.4069 13.4681 15.688 13.6049L16.1255 12.7057ZM14.3097 11.8381C14.2022 11.7964 13.9895 11.7133 13.7548 11.7405C13.4663 11.7739 13.2591 11.9497 13.119 12.1726L13.9657 12.7047C13.9833 12.6766 13.9853 12.6829 13.9642 12.698C13.9533 12.7058 13.9385 12.7143 13.9204 12.7213C13.9023 12.7282 13.8849 12.7321 13.8699 12.7338C13.8415 12.7371 13.8299 12.7319 13.8472 12.736C13.8552 12.7379 13.8673 12.7413 13.8849 12.7472C13.9025 12.7532 13.923 12.7607 13.9483 12.7705L14.3097 11.8381ZM13.119 12.1726C12.9571 12.4303 12.6981 12.7897 12.5729 12.9308L13.3207 13.5947C13.4976 13.3954 13.7898 12.9845 13.9657 12.7047L13.119 12.1726ZM12.5729 12.9308C12.5572 12.9485 12.556 12.9458 12.5696 12.9374C12.577 12.9329 12.5877 12.9273 12.6015 12.9223C12.6154 12.9173 12.6299 12.9139 12.6439 12.9121C12.6727 12.9086 12.6877 12.9133 12.6811 12.9117C12.6727 12.9095 12.6483 12.9018 12.6029 12.8789L12.1529 13.772C12.3207 13.8566 12.5325 13.9337 12.7674 13.9045C13.0212 13.8729 13.1991 13.7316 13.3207 13.5947L12.5729 12.9308ZM12.5789 12.8677C11.1512 12.2407 9.94593 11.1907 9.12353 9.85637L8.27224 10.3811C9.2007 11.8875 10.5623 13.0743 12.1768 13.7833L12.5789 12.8677ZM9.13008 9.86729C9.12058 9.85096 9.13008 9.8612 9.13338 9.89362C9.13499 9.90947 9.13469 9.92695 9.132 9.94486C9.12933 9.96257 9.12482 9.97738 9.12039 9.98855C9.11224 10.0091 9.10531 10.0147 9.11608 10.0012C9.12107 9.99494 9.12825 9.98655 9.1395 9.97414C9.14507 9.96799 9.15106 9.9615 9.15813 9.95388C9.16457 9.94693 9.17326 9.93759 9.18114 9.92904L8.44574 9.2514C8.41382 9.28604 8.26645 9.42936 8.19093 9.61961C8.09388 9.86412 8.12325 10.1253 8.26569 10.3701L9.13008 9.86729ZM9.16835 9.94241C9.37935 9.72978 9.46882 9.65609 9.5555 9.57429C9.60047 9.53185 9.65051 9.4814 9.69943 9.41395C9.74637 9.34924 9.7814 9.28384 9.81245 9.22126L8.91665 8.77679C8.89437 8.82171 8.88829 8.82909 8.88995 8.8268C8.8936 8.82177 8.89419 8.82339 8.86915 8.84701C8.81583 8.89733 8.68308 9.01174 8.45853 9.23803L9.16835 9.94241ZM9.80365 9.23818C9.96233 8.94682 9.96233 8.59441 9.80365 8.30305L8.92545 8.78135C8.92173 8.77452 8.92173 8.76671 8.92545 8.75988L9.80365 9.23818ZM9.74073 8.21282C9.7673 8.24317 9.76895 8.25534 9.74137 8.20303C9.72105 8.1645 9.69455 8.10982 9.66229 8.03932C9.59811 7.899 9.52034 7.71625 9.43753 7.51653C9.27685 7.129 9.09129 6.66241 8.97982 6.4018L8.0604 6.79507C8.17115 7.054 8.34114 7.48315 8.51379 7.89955C8.59765 8.1018 8.68099 8.29806 8.75292 8.45529C8.78872 8.53356 8.82402 8.6073 8.85683 8.66951C8.88237 8.71793 8.92846 8.80316 8.98837 8.87158L9.74073 8.21282ZM8.97982 6.4018C8.86577 6.13518 8.65248 5.95738 8.44136 5.84708C8.22848 5.73587 7.98655 5.67556 7.75127 5.65665C7.30535 5.62081 6.73286 5.72738 6.37077 6.1295L7.11389 6.79865C7.18736 6.71707 7.39264 6.63105 7.67116 6.65344C7.79811 6.66364 7.90507 6.69515 7.9783 6.73341C8.05329 6.77259 8.06333 6.80194 8.0604 6.79507L8.97982 6.4018ZM6.37832 6.1213C5.07874 7.50142 4.90132 9.14554 5.39894 10.6895C5.88828 12.2077 7.02588 13.6353 8.37686 14.7148C9.72739 15.794 11.3485 16.5713 12.858 16.7286C14.3901 16.8883 15.856 16.4033 16.6982 14.9051L15.8265 14.4151C15.2286 15.4787 14.2068 15.8638 12.9617 15.734C11.6939 15.6019 10.2484 14.9303 9.00113 13.9336C7.75433 12.9373 6.76305 11.662 6.35072 10.3827C5.94667 9.12908 6.09482 7.88107 7.10635 6.80685L6.37832 6.1213ZM16.6727 14.9457C17.0081 14.4639 17.0822 13.8458 16.8711 13.298L15.938 13.6575C16.03 13.8963 15.9974 14.1655 15.8519 14.3745L16.6727 14.9457Z" fill="currentColor"/></svg>