<svg viewBox="0 0 24 24" fill="none" xmlns="http://www.w3.org/2000/svg"><path d="M8.00309 17.78L6.57509 15.56H7.73309L8.10509 16.142C8.26709 16.394 8.42309 16.664 8.62109 17.03L9.50909 15.56H10.6431L9.23909 17.78L10.6431 20H9.49109L9.19709 19.538C8.97509 19.184 8.83109 18.92 8.61509 18.524L7.66109 20H6.52109L8.00309 17.78ZM12.183 15.56V19.1H13.935V20H11.211V15.56H12.183ZM14.1467 16.85C14.1467 16.046 14.8247 15.476 15.7787 15.476C16.7327 15.476 17.3327 16.004 17.3327 16.844H16.3667C16.3667 16.532 16.1327 16.34 15.7667 16.34C15.3707 16.34 15.1187 16.52 15.1187 16.814C15.1187 17.084 15.2567 17.216 15.5687 17.282L16.2347 17.42C17.0267 17.582 17.4047 17.96 17.4047 18.662C17.4047 19.52 16.7327 20.078 15.7127 20.078C14.7227 20.078 14.0807 19.544 14.0807 18.71H15.0467C15.0467 19.034 15.2867 19.214 15.7187 19.214C16.1567 19.214 16.4327 19.04 16.4327 18.758C16.4327 18.512 16.3187 18.386 16.0247 18.326L15.3467 18.188C14.5547 18.026 14.1467 17.576 14.1467 16.85Z" fill="currentColor"/><path d="M13.448 1H3.33333C2.59696 1 2 1.62682 2 2.4V21.6C2 22.3732 2.59696 23 3.33333 23H20.6667C21.403 23 22 22.3732 22 21.6V9.9796C21.9999 9.6086 21.8595 9.25275 21.6098 8.99031L14.3902 1.40969C14.1402 1.14751 13.8013 1.00013 13.448 1Z" stroke="currentColor" stroke-linecap="round" stroke-linejoin="round"/><path d="M13 1V8.47716C13 9.31818 13.6818 10 14.5228 10H22" stroke="currentColor" stroke-linecap="round" stroke-linejoin="round"/></svg>