<svg viewBox="0 0 24 24" fill="none" xmlns="http://www.w3.org/2000/svg"><mask id="path-1-inside-1_2180_407" fill="currentColor"><path fill-rule="evenodd" clip-rule="evenodd" d="M21.3767 4.0075C22.4093 4.28675 23.2224 5.10973 23.4984 6.15456C24 8.04851 24 11.9999 24 11.9999C24 11.9999 24 15.9515 23.4984 17.8454C23.2224 18.8901 22.4093 19.7132 21.3767 19.9923C19.5049 20.5 11.9999 20.5 11.9999 20.5C11.9999 20.5 4.49499 20.5 2.62332 19.9923C1.59078 19.7132 0.777489 18.8901 0.501528 17.8454C0 15.9515 0 11.9999 0 11.9999C0 11.9999 0 8.04851 0.501528 6.15456C0.777489 5.10973 1.59078 4.28675 2.62332 4.0075C4.49499 3.5 11.9999 3.5 11.9999 3.5C11.9999 3.5 19.5049 3.5 21.3767 4.0075ZM16.2353 11.9998L9.88235 15.5414V8.4581L16.2353 11.9998Z"/></mask><path d="M23.4984 6.15456L22.5316 6.40994L22.5317 6.41057L23.4984 6.15456ZM21.3767 4.0075L21.115 4.97265L21.1156 4.97283L21.3767 4.0075ZM23.4984 17.8454L22.5317 17.5894L22.5316 17.59L23.4984 17.8454ZM21.3767 19.9923L21.1157 19.027L21.1149 19.0272L21.3767 19.9923ZM2.62332 19.9923L2.88509 19.0272L2.88432 19.027L2.62332 19.9923ZM0.501528 17.8454L1.46837 17.59L1.46821 17.5894L0.501528 17.8454ZM0.501528 6.15456L1.46821 6.41054L1.46837 6.40992L0.501528 6.15456ZM2.62332 4.0075L2.88439 4.97282L2.88502 4.97265L2.62332 4.0075ZM9.88235 15.5414H8.88235C8.88235 15.896 9.07012 16.2241 9.37586 16.4037C9.68159 16.5833 10.0596 16.5875 10.3693 16.4149L9.88235 15.5414ZM16.2353 11.9998L16.7222 12.8733C17.039 12.6967 17.2353 12.3625 17.2353 11.9998C17.2353 11.6372 17.039 11.303 16.7222 11.1264L16.2353 11.9998ZM9.88235 8.4581L10.3693 7.58467C10.0596 7.41201 9.6816 7.41627 9.37586 7.59586C9.07013 7.77545 8.88235 8.10352 8.88235 8.4581H9.88235ZM24.4652 5.89917C24.0991 4.513 23.0201 3.41602 21.6377 3.04218L21.1156 4.97283C21.7985 5.15749 22.3457 5.70645 22.5316 6.40994L24.4652 5.89917ZM24 11.9999C25 11.9999 25 11.9999 25 11.9998C25 11.9997 25 11.9996 25 11.9995C25 11.9993 25 11.999 25 11.9987C25 11.9981 25 11.9972 25 11.9961C25 11.9938 25 11.9906 25 11.9865C25 11.9783 24.9999 11.9664 24.9999 11.9509C24.9997 11.9201 24.9995 11.8752 24.999 11.8177C24.998 11.7027 24.996 11.5374 24.992 11.3333C24.984 10.9258 24.968 10.3617 24.936 9.73634C24.8735 8.51519 24.7457 6.95801 24.4651 5.89854L22.5317 6.41057C22.7527 7.24505 22.8757 8.61056 22.9386 9.83861C22.9693 10.4378 22.9847 10.98 22.9924 11.3725C22.9962 11.5685 22.9981 11.7267 22.9991 11.8352C22.9995 11.8895 22.9998 11.9313 22.9999 11.9593C22.9999 11.9732 23 11.9837 23 11.9906C23 11.994 23 11.9965 23 11.9981C23 11.9988 23 11.9994 23 11.9997C23 11.9999 23 12 23 12C23 12 23 12 23 12C23 12 23 11.9999 24 11.9999ZM24.4651 18.1014C24.7457 17.042 24.8735 15.4848 24.936 14.2636C24.968 13.6382 24.984 13.0741 24.992 12.6665C24.996 12.4625 24.998 12.2971 24.999 12.1822C24.9995 12.1247 24.9997 12.0798 24.9999 12.0489C24.9999 12.0335 25 12.0216 25 12.0134C25 12.0092 25 12.0061 25 12.0038C25 12.0027 25 12.0018 25 12.0012C25 12.0008 25 12.0006 25 12.0004C25 12.0003 25 12.0002 25 12.0001C25 12 25 11.9999 24 11.9999C23 11.9999 23 11.9999 23 11.9999C23 11.9999 23 11.9998 23 11.9999C23 11.9999 23 12 23 12.0002C23 12.0005 23 12.001 23 12.0018C23 12.0034 23 12.0059 23 12.0093C23 12.0161 22.9999 12.0266 22.9999 12.0406C22.9998 12.0686 22.9995 12.1104 22.9991 12.1647C22.9981 12.2732 22.9962 12.4313 22.9924 12.6274C22.9847 13.0199 22.9693 13.5621 22.9386 14.1613C22.8757 15.3894 22.7527 16.7549 22.5317 17.5894L24.4651 18.1014ZM21.6376 20.9577C23.0201 20.5839 24.0991 19.4868 24.4652 18.1008L22.5316 17.59C22.3457 18.2934 21.7984 18.8424 21.1157 19.027L21.6376 20.9577ZM11.9999 20.5C11.9999 21.5 12 21.5 12.0001 21.5C12.0002 21.5 12.0003 21.5 12.0004 21.5C12.0007 21.5 12.0011 21.5 12.0016 21.5C12.0026 21.5 12.004 21.5 12.0059 21.5C12.0097 21.5 12.0153 21.5 12.0226 21.5C12.0372 21.5 12.0588 21.4999 12.0869 21.4999C12.1431 21.4997 12.2255 21.4995 12.3308 21.499C12.5414 21.498 12.844 21.496 13.2127 21.492C13.9497 21.484 14.953 21.4681 16.0165 21.4361C17.0783 21.4042 18.2081 21.356 19.1956 21.2831C20.1546 21.2123 21.0655 21.1129 21.6384 20.9575L21.1149 19.0272C20.752 19.1256 20.0228 19.2166 19.0483 19.2885C18.1021 19.3584 17.0048 19.4055 15.9564 19.437C14.9096 19.4685 13.9197 19.4842 13.191 19.4921C12.8269 19.4961 12.5284 19.498 12.3213 19.499C12.2178 19.4995 12.1371 19.4998 12.0824 19.4999C12.0551 19.4999 12.0343 19.5 12.0204 19.5C12.0135 19.5 12.0083 19.5 12.0049 19.5C12.0031 19.5 12.0019 19.5 12.001 19.5C12.0006 19.5 12.0003 19.5 12.0002 19.5C12.0001 19.5 12 19.5 12 19.5C11.9999 19.5 11.9999 19.5 11.9999 20.5ZM2.36155 20.9575C2.93449 21.1129 3.84535 21.2123 4.80439 21.2831C5.79183 21.356 6.92165 21.4042 7.98345 21.4361C9.04688 21.4681 10.0502 21.484 10.7872 21.492C11.1559 21.496 11.4584 21.498 11.6691 21.499C11.7744 21.4995 11.8568 21.4997 11.913 21.4999C11.9411 21.4999 11.9626 21.5 11.9773 21.5C11.9846 21.5 11.9902 21.5 11.994 21.5C11.9959 21.5 11.9973 21.5 11.9983 21.5C11.9988 21.5 11.9992 21.5 11.9995 21.5C11.9996 21.5 11.9997 21.5 11.9998 21.5C11.9999 21.5 11.9999 21.5 11.9999 20.5C11.9999 19.5 11.9999 19.5 11.9999 19.5C11.9999 19.5 11.9998 19.5 11.9997 19.5C11.9995 19.5 11.9992 19.5 11.9988 19.5C11.998 19.5 11.9967 19.5 11.995 19.5C11.9916 19.5 11.9864 19.5 11.9794 19.5C11.9656 19.5 11.9448 19.4999 11.9174 19.4999C11.8628 19.4998 11.7821 19.4995 11.6786 19.499C11.4714 19.498 11.173 19.4961 10.8089 19.4921C10.0802 19.4842 9.09034 19.4685 8.04357 19.437C6.99517 19.4055 5.89781 19.3584 4.95167 19.2885C3.97712 19.2166 3.24798 19.1256 2.88509 19.0272L2.36155 20.9575ZM-0.465312 18.1008C-0.0991795 19.4869 0.979992 20.5839 2.36232 20.9577L2.88432 19.027C2.20157 18.8424 1.65416 18.2934 1.46837 17.59L-0.465312 18.1008ZM0 11.9999C-1 11.9999 -1 12 -1 12.0001C-1 12.0002 -1 12.0003 -1 12.0004C-1 12.0006 -1 12.0008 -1 12.0012C-0.999999 12.0018 -0.999999 12.0027 -0.999998 12.0038C-0.999995 12.0061 -0.999991 12.0092 -0.999983 12.0134C-0.999966 12.0216 -0.999933 12.0335 -0.999869 12.0489C-0.99974 12.0798 -0.999486 12.1247 -0.998982 12.1822C-0.997974 12.2971 -0.995968 12.4625 -0.991972 12.6665C-0.983988 13.0741 -0.968018 13.6382 -0.936001 14.2636C-0.873487 15.4848 -0.745704 17.042 -0.465151 18.1014L1.46821 17.5894C1.24723 16.7549 1.12425 15.3894 1.06138 14.1613C1.03071 13.5621 1.01533 13.0199 1.00764 12.6274C1.0038 12.4313 1.00189 12.2732 1.00094 12.1647C1.00047 12.1104 1.00023 12.0686 1.00011 12.0406C1.00006 12.0266 1.00003 12.0161 1.00001 12.0093C1.00001 12.0059 1 12.0034 1 12.0018C1 12.001 1 12.0005 1 12.0002C1 12 1 11.9999 1 11.9999C1 11.9998 1 11.9999 1 11.9999C1 11.9999 1 11.9999 0 11.9999ZM-0.465154 5.89857C-0.745703 6.95803 -0.873487 8.51519 -0.936001 9.73635C-0.968018 10.3618 -0.983988 10.9258 -0.991972 11.3333C-0.995968 11.5374 -0.997974 11.7027 -0.998982 11.8177C-0.999486 11.8752 -0.99974 11.9201 -0.999869 11.9509C-0.999933 11.9664 -0.999966 11.9783 -0.999983 11.9865C-0.999991 11.9906 -0.999995 11.9938 -0.999998 11.9961C-0.999999 11.9972 -0.999999 11.9981 -1 11.9987C-1 11.999 -1 11.9993 -1 11.9995C-1 11.9996 -1 11.9997 -1 11.9998C-1 11.9999 -1 11.9999 0 11.9999C1 11.9999 1 12 1 12C1 12 1 12 1 12C1 12 1 11.9999 1 11.9997C1 11.9994 1 11.9988 1 11.9981C1 11.9965 1.00001 11.994 1.00001 11.9906C1.00003 11.9837 1.00006 11.9732 1.00011 11.9593C1.00023 11.9313 1.00047 11.8895 1.00094 11.8352C1.00189 11.7267 1.0038 11.5685 1.00764 11.3725C1.01533 10.98 1.03071 10.4378 1.06138 9.8386C1.12425 8.61056 1.24723 7.24503 1.46821 6.41054L-0.465154 5.89857ZM2.36225 3.04218C0.980012 3.41601 -0.099179 4.51294 -0.465317 5.89919L1.46837 6.40992C1.65416 5.70651 2.20155 5.1575 2.88439 4.97282L2.36225 3.04218ZM11.9999 3.5C11.9999 2.5 11.9999 2.5 11.9998 2.5C11.9997 2.5 11.9996 2.5 11.9995 2.5C11.9992 2.5 11.9988 2.5 11.9983 2.5C11.9973 2.5 11.9959 2.5 11.994 2.5C11.9902 2.5 11.9846 2.50001 11.9773 2.50002C11.9626 2.50003 11.9411 2.50006 11.913 2.50013C11.8568 2.50025 11.7744 2.5005 11.6691 2.501C11.4584 2.502 11.1559 2.504 10.7872 2.50799C10.0502 2.51596 9.04688 2.53192 7.98346 2.56389C6.92166 2.59581 5.79185 2.64392 4.80441 2.71682C3.84537 2.78761 2.93454 2.88701 2.36162 3.04235L2.88502 4.97265C3.24793 4.87425 3.9771 4.78333 4.95165 4.71139C5.8978 4.64155 6.99516 4.5945 8.04356 4.56299C9.09033 4.53152 10.0802 4.51576 10.8089 4.50787C11.173 4.50393 11.4714 4.50196 11.6786 4.50098C11.7821 4.50049 11.8628 4.50024 11.9174 4.50012C11.9448 4.50006 11.9656 4.50003 11.9794 4.50001C11.9864 4.50001 11.9916 4.5 11.995 4.5C11.9967 4.5 11.998 4.5 11.9988 4.5C11.9992 4.5 11.9995 4.5 11.9997 4.5C11.9998 4.5 11.9999 4.5 11.9999 4.5C11.9999 4.5 11.9999 4.5 11.9999 3.5ZM21.6384 3.04235C21.0654 2.88701 20.1546 2.78761 19.1955 2.71682C18.2081 2.64392 17.0783 2.59581 16.0165 2.56389C14.953 2.53192 13.9497 2.51596 13.2127 2.50799C12.844 2.504 12.5414 2.502 12.3308 2.501C12.2255 2.5005 12.1431 2.50025 12.0869 2.50013C12.0588 2.50006 12.0372 2.50003 12.0226 2.50002C12.0153 2.50001 12.0097 2.5 12.0059 2.5C12.004 2.5 12.0026 2.5 12.0016 2.5C12.0011 2.5 12.0007 2.5 12.0004 2.5C12.0003 2.5 12.0002 2.5 12.0001 2.5C12 2.5 11.9999 2.5 11.9999 3.5C11.9999 4.5 11.9999 4.5 12 4.5C12 4.5 12.0001 4.5 12.0002 4.5C12.0003 4.5 12.0006 4.5 12.001 4.5C12.0019 4.5 12.0031 4.5 12.0049 4.5C12.0083 4.5 12.0135 4.50001 12.0204 4.50001C12.0343 4.50003 12.0551 4.50006 12.0824 4.50012C12.1371 4.50024 12.2178 4.50049 12.3213 4.50098C12.5285 4.50196 12.8269 4.50393 13.191 4.50787C13.9197 4.51576 14.9096 4.53152 15.9564 4.56299C17.0048 4.5945 18.1021 4.64155 19.0483 4.71139C20.0229 4.78333 20.752 4.87425 21.115 4.97265L21.6384 3.04235ZM10.3693 16.4149L16.7222 12.8733L15.7484 11.1264L9.39543 14.668L10.3693 16.4149ZM8.88235 8.4581V15.5414H10.8824V8.4581H8.88235ZM16.7222 11.1264L10.3693 7.58467L9.39542 9.33154L15.7484 12.8733L16.7222 11.1264Z" fill="currentColor" mask="url(#path-1-inside-1_2180_407)"/></svg>