<svg width="52" height="40" viewBox="0 0 52 40" fill="none" xmlns="http://www.w3.org/2000/svg">
<path d="M2.95911 19.2121V8.57413H0.393921V6.20722H2.95911V5.01096C2.95911 4.12642 3.14629 3.32475 3.52092 2.60505C3.89555 1.88565 4.43732 1.32196 5.14566 0.914268C5.85429 0.507189 6.68856 0.30304 7.64961 0.30304C8.48044 0.30304 9.21311 0.494087 9.84847 0.875267V3.34639C9.29439 3.017 8.62697 2.85216 7.84508 2.85216C7.16107 2.85216 6.6316 3.04717 6.25726 3.43719C5.88234 3.82751 5.69516 4.36073 5.69516 5.03686V6.20722H9.18878V8.57413H5.69516V19.2121H2.95911Z" fill="#E04747"/>
<path d="M10.6364 19.2121V6.02586H13.0918V7.76522C14.1166 6.46739 15.3484 5.81818 16.7864 5.81818C17.1383 5.81818 17.452 5.87017 17.7273 5.97417V8.69967C17.4977 8.64767 17.2224 8.62152 16.9011 8.62152C16.1818 8.62152 15.5048 8.77751 14.8701 9.08889C14.2352 9.40027 13.6806 9.82447 13.2066 10.3609V19.2121H10.6364Z" fill="#E04747"/>
<path d="M26.9927 11.2218C26.9135 10.3853 26.5987 9.69409 26.0471 9.14746C25.4955 8.60113 24.7709 8.32781 23.8726 8.32781C22.9901 8.32781 22.2378 8.60563 21.6153 9.16006C20.9928 9.71509 20.611 10.4021 20.4689 11.2218H26.9927ZM20.8352 18.3412C19.8661 17.7612 19.1057 16.9584 18.5544 15.9341C18.0025 14.9096 17.7273 13.7572 17.7273 12.4767C17.7273 11.2647 17.9989 10.1462 18.5425 9.12166C19.0861 8.0974 19.8306 7.29066 20.7763 6.70173C21.7216 6.11249 22.7617 5.81818 23.8964 5.81818C25.0464 5.81818 26.0471 6.09989 26.898 6.66332C27.7489 7.22675 28.4027 7.9738 28.8599 8.90415C29.3168 9.8348 29.5455 10.821 29.5455 11.862C29.5455 12.3402 29.4981 12.8095 29.4037 13.2706H20.4216C20.5475 14.2609 20.9299 15.0632 21.5682 15.6779C22.2062 16.2927 23.0372 16.5999 24.0617 16.5999C24.7235 16.5999 25.2986 16.4634 25.7874 16.19C26.2755 15.917 26.6618 15.5414 26.9454 15.0632H29.4746C29.175 16.2585 28.5328 17.2488 27.5482 18.034C26.5632 18.8194 25.4008 19.2121 24.0617 19.2121C22.8799 19.2121 21.8044 18.922 20.8352 18.3412Z" fill="#E04747"/>
<path d="M33.7793 18.0101C33.0338 17.2087 32.6614 16.0324 32.6614 14.4812V8.27653H30.3333V5.92423H32.6614V2.66669H35.266V5.92423H38.7925V8.27653H35.266V14.3779C35.266 15.1535 35.4308 15.7441 35.7615 16.1487C36.0918 16.554 36.5414 16.7563 37.11 16.7563C37.74 16.7563 38.3697 16.6185 38.9999 16.3426V18.6694C38.3238 19.0313 37.5861 19.2121 36.7873 19.2121C35.5271 19.2121 34.5246 18.8115 33.7793 18.0101Z" fill="#E04747"/>
<path d="M49.0533 11.2218C48.9743 10.3853 48.6592 9.69409 48.1079 9.14746C47.5561 8.60113 46.8314 8.32781 45.9331 8.32781C45.0506 8.32781 44.2983 8.60563 43.6758 9.16006C43.0533 9.71509 42.6715 10.4021 42.5294 11.2218H49.0533ZM42.8958 18.3412C41.9266 17.7612 41.1663 16.9584 40.6149 15.9341C40.0631 14.9096 39.7878 13.7572 39.7878 12.4767C39.7878 11.2647 40.0595 10.1462 40.603 9.12166C41.1469 8.0974 41.8912 7.29066 42.8368 6.70173C43.7822 6.11249 44.8222 5.81818 45.9569 5.81818C47.1069 5.81818 48.1079 6.09989 48.9586 6.66332C49.8095 7.22675 50.4632 7.9738 50.9207 8.90415C51.3773 9.8348 51.606 10.821 51.606 11.862C51.606 12.3402 51.5587 12.8095 51.4642 13.2706H42.4821C42.6081 14.2609 42.9905 15.0632 43.6288 15.6779C44.2667 16.2927 45.0977 16.5999 46.1223 16.5999C46.784 16.5999 47.3592 16.4634 47.8479 16.19C48.3361 15.917 48.7224 15.5414 49.0059 15.0632H51.5351C51.2355 16.2585 50.5934 17.2488 49.6087 18.034C48.6238 18.8194 47.4614 19.2121 46.1223 19.2121C44.9404 19.2121 43.8649 18.922 42.8958 18.3412Z" fill="#E04747"/>
<path d="M10.0886 36.5499C10.6555 36.2102 11.1025 35.7271 11.4288 35.1002C11.7551 34.4736 11.9184 33.7338 11.9184 32.8805C11.9184 31.6266 11.5839 30.6344 10.916 29.9028C10.2475 29.1716 9.40096 28.806 8.37529 28.806C7.1631 28.806 6.16064 29.2068 5.36817 30.0075V35.9884C6.16064 36.7025 7.11641 37.059 8.23547 37.059C8.90342 37.059 9.52111 36.8895 10.0886 36.5499ZM6.75513 39.4097C6.21908 39.2182 5.70215 38.9134 5.20515 38.4955V39.5663H2.75757V20.7879H5.36817V27.3174C6.30046 26.5513 7.38047 26.1683 8.60822 26.1683C9.72729 26.1683 10.7374 26.447 11.6385 27.0038C12.5397 27.5613 13.2546 28.3449 13.7833 29.3545C14.3114 30.3645 14.5757 31.5397 14.5757 32.8805C14.5757 34.2383 14.2997 35.4313 13.7481 36.4584C13.1964 37.4861 12.458 38.2825 11.5337 38.8483C10.609 39.4143 9.60276 39.697 8.5151 39.697C7.87774 39.697 7.29118 39.6012 6.75513 39.4097Z" fill="#111111"/>
<path d="M16.1515 39.697V26.5107H18.607V28.2501C19.6318 26.9523 20.8635 26.303 22.3015 26.303C22.6534 26.303 22.9671 26.355 23.2424 26.459V29.1845C23.0128 29.1325 22.7375 29.1064 22.4163 29.1064C21.6969 29.1064 21.02 29.2624 20.3853 29.5738C19.7503 29.8851 19.1957 30.3093 18.7218 30.8457V39.697H16.1515Z" fill="#111111"/>
<path d="M30.8767 36.4638V34.2058H28.6645C27.298 34.2058 26.6152 34.7703 26.6152 35.8993C26.6152 36.4124 26.7742 36.8101 27.0926 37.0924C27.4104 37.3746 27.8414 37.5159 28.3849 37.5159C29.3474 37.5159 30.1781 37.1654 30.8767 36.4638ZM25.1131 38.7089C24.3912 38.0507 24.0303 37.1399 24.0303 35.9763C24.0303 34.8133 24.4144 33.8896 25.1829 33.2052C25.9514 32.5213 27.0418 32.179 28.4547 32.179H30.8767V31.0499C30.8767 30.3147 30.7136 29.7373 30.3879 29.3179C30.0616 28.8989 29.5569 28.6894 28.874 28.6894C28.2684 28.6894 27.8027 28.8349 27.4767 29.1256C27.1507 29.4165 26.9412 29.8695 26.8481 30.4854H24.3563C24.4801 29.2197 24.9461 28.2061 25.7533 27.445C26.5606 26.6839 27.6164 26.303 28.9204 26.303C30.3489 26.303 31.4666 26.7521 32.2741 27.65C33.0811 28.5481 33.4848 29.7243 33.4848 31.1783V39.5428H30.9932V38.2599C30.6359 38.6879 30.1816 39.0342 29.6308 39.299C29.0795 39.5641 28.509 39.697 27.9192 39.697C26.7701 39.697 25.8349 39.3678 25.1131 38.7089Z" fill="#111111"/>
<path d="M37.1905 38.5977C36.3562 37.8653 35.9087 36.8939 35.8485 35.6839H38.237C38.3279 36.2295 38.5475 36.6511 38.8966 36.949C39.2454 37.2476 39.6928 37.3964 40.2386 37.3964C40.8603 37.3964 41.3152 37.2476 41.6035 36.949C41.8914 36.6511 42.0358 36.2549 42.0358 35.7605C42.0358 35.2835 41.8538 34.9257 41.4898 34.6871C41.1257 34.4484 40.5571 34.2014 39.7837 33.9456C39.0405 33.6902 38.4265 33.4345 37.9412 33.1788C37.4557 32.9234 37.0426 32.5443 36.7013 32.0415C36.3602 31.539 36.1896 30.8785 36.1896 30.0604C36.1896 29.328 36.3639 28.6761 36.7127 28.1051C37.0616 27.5343 37.5391 27.0915 38.1459 26.7759C38.7521 26.4608 39.4346 26.303 40.1933 26.303C41.4517 26.303 42.4414 26.6399 43.1617 27.3128C43.8817 27.9862 44.2801 28.9357 44.3561 30.1628H42.0129C41.9369 29.6687 41.7437 29.2852 41.433 29.0124C41.122 28.7402 40.7164 28.6036 40.216 28.6036C39.6848 28.6036 39.2907 28.7228 39.033 28.9615C38.7751 29.2001 38.6463 29.5325 38.6463 29.9583C38.6463 30.4015 38.8244 30.7377 39.1809 30.968C39.5372 31.198 40.0944 31.4408 40.8529 31.6962C41.6262 31.969 42.2554 32.2331 42.7409 32.4889C43.2259 32.7443 43.643 33.1279 43.9921 33.639C44.3406 34.1502 44.5152 34.8146 44.5152 35.6327C44.5152 36.8257 44.1474 37.8012 43.4119 38.5594C42.6762 39.3179 41.6262 39.697 40.2615 39.697C39.0479 39.697 38.0244 39.3305 37.1905 38.5977Z" fill="#111111"/>
</svg>
