<svg viewBox="0 0 24 24" fill="none" xmlns="http://www.w3.org/2000/svg"><g clip-path="url(#clip0_2261_884)"><path d="M9.49298 17.7293C9.4876 17.6779 9.46271 17.6303 9.42303 17.5954L3.32757 11.2733C2.65059 10.6413 2.20288 9.81831 2.05003 8.92503C1.89719 8.03175 2.04724 7.1151 2.4782 6.30938C2.79915 5.69707 3.2688 5.16735 3.84777 4.76462C4.42675 4.36189 5.09816 4.09791 5.80572 3.9948C6.5257 3.87731 7.26463 3.9272 7.96025 4.14026C8.65587 4.35332 9.28778 4.7233 9.80275 5.21904L11.3316 6.55805C11.5158 6.71936 11.7564 6.80881 12.0061 6.80881C12.2558 6.80881 12.4964 6.71936 12.6806 6.55805L14.2294 5.16165C14.7478 4.67167 15.381 4.30748 16.0763 4.0995C16.7717 3.89152 17.5089 3.84578 18.2265 3.9661C18.931 4.07797 19.5976 4.34886 20.1711 4.75635C20.7445 5.16384 21.2083 5.69621 21.524 6.30938C21.8486 6.91265 22.0061 7.58548 21.9816 8.26362C21.9571 8.94177 21.7514 9.60258 21.3841 10.183C21.3585 10.2444 21.3585 10.3128 21.3841 10.3742C21.3938 10.4056 21.4104 10.4347 21.4329 10.4594C21.4553 10.4842 21.4829 10.5041 21.514 10.5177C21.9464 10.7248 22.3607 10.9647 22.7531 11.235C22.7806 11.2567 22.8128 11.2723 22.8474 11.2805C22.882 11.2888 22.918 11.2896 22.953 11.2829C22.9864 11.2753 23.0179 11.2612 23.0454 11.2414C23.0729 11.2217 23.0959 11.1967 23.1128 11.1681C23.6536 10.3072 23.9566 9.32868 23.9933 8.32475C24.03 7.32083 23.7992 6.32447 23.3227 5.42946C22.8531 4.54991 22.1738 3.78852 21.3397 3.20688C20.5056 2.62523 19.5402 2.23966 18.5216 2.08135C17.503 1.92305 16.4598 1.99646 15.4763 2.29564C14.4928 2.59482 13.5967 3.11137 12.8605 3.80351L11.9911 4.54953L11.1617 3.8322C10.4272 3.13315 9.52925 2.61154 8.54229 2.31051C7.55532 2.00948 6.50766 1.93768 5.48596 2.10105C4.46828 2.25296 3.50315 2.63505 2.67069 3.21559C1.83823 3.79613 1.16248 4.55837 0.699525 5.43902C0.0812033 6.59523 -0.136843 7.90972 0.0769227 9.19238C0.290688 10.475 0.925184 11.6594 1.88864 12.5741L8.99335 19.9195C9.02628 19.9551 9.06953 19.9804 9.11759 19.9923C9.16564 20.0043 9.21632 20.0022 9.26315 19.9865C9.30896 19.9682 9.34836 19.9378 9.37669 19.8988C9.40503 19.8599 9.4211 19.8139 9.42303 19.7665L9.49298 17.7293Z" fill="currentColor"/><path d="M17 10C15.8133 10 14.6533 10.3519 13.6666 11.0112C12.6799 11.6705 11.9109 12.6075 11.4567 13.7039C11.0026 14.8003 10.8838 16.0067 11.1153 17.1705C11.3468 18.3344 11.9182 19.4035 12.7574 20.2426C13.5965 21.0818 14.6656 21.6532 15.8295 21.8847C16.9933 22.1162 18.1997 21.9974 19.2961 21.5433C20.3925 21.0891 21.3295 20.3201 21.9888 19.3334C22.6481 18.3467 23 17.1867 23 16C22.9976 14.4095 22.3646 12.8847 21.2399 11.7601C20.1153 10.6354 18.5906 10.0024 17 10V10ZM19.3077 15.2708C19.4913 15.2708 19.6674 15.3437 19.7972 15.4735C19.9271 15.6034 20 15.7795 20 15.9631C20 16.1467 19.9271 16.3228 19.7972 16.4526C19.6674 16.5824 19.4913 16.6554 19.3077 16.6554H17.9231C17.8619 16.6554 17.8032 16.6797 17.7599 16.723C17.7166 16.7663 17.6923 16.8249 17.6923 16.8862V18.2708C17.6923 18.4544 17.6194 18.6305 17.4895 18.7603C17.3597 18.8901 17.1836 18.9631 17 18.9631C16.8164 18.9631 16.6403 18.8901 16.5105 18.7603C16.3806 18.6305 16.3077 18.4544 16.3077 18.2708V16.8862C16.3077 16.8249 16.2834 16.7663 16.2401 16.723C16.1968 16.6797 16.1381 16.6554 16.0769 16.6554H14.6923C14.5087 16.6554 14.3326 16.5824 14.2028 16.4526C14.0729 16.3228 14 16.1467 14 15.9631C14 15.7795 14.0729 15.6034 14.2028 15.4735C14.3326 15.3437 14.5087 15.2708 14.6923 15.2708H16.0769C16.1381 15.2708 16.1968 15.2465 16.2401 15.2032C16.2834 15.1599 16.3077 15.1012 16.3077 15.04V13.6554C16.3077 13.4718 16.3806 13.2957 16.5105 13.1658C16.6403 13.036 16.8164 12.9631 17 12.9631C17.1836 12.9631 17.3597 13.036 17.4895 13.1658C17.6194 13.2957 17.6923 13.4718 17.6923 13.6554V15.04C17.6923 15.1012 17.7166 15.1599 17.7599 15.2032C17.8032 15.2465 17.8619 15.2708 17.9231 15.2708H19.3077Z" fill="currentColor"/></g><defs><clipPath id="clip0_2261_884"><rect width="24" height="24" fill="currentColor"/></clipPath></defs></svg>