<svg viewBox="0 0 24 24" fill="none" xmlns="http://www.w3.org/2000/svg"><path d="M12 0C10.1435 0 8.363 0.730605 7.05025 2.03109C5.73749 3.33157 5 5.09541 5 6.93457V18.6936C4.96942 19.3792 5.07933 20.0639 5.32309 20.7062C5.56686 21.3486 5.93943 21.9354 6.41834 22.4313C6.89726 22.9272 7.47258 23.3218 8.10963 23.5914C8.74668 23.861 9.43225 24 10.125 24C10.8177 24 11.5033 23.861 12.1404 23.5914C12.7774 23.3218 13.3527 22.9272 13.8316 22.4313C14.3106 21.9354 14.6831 21.3486 14.9269 20.7062C15.1707 20.0639 15.2806 19.3792 15.25 18.6936V9.61924C15.25 8.75484 14.9034 7.92583 14.2864 7.31461C13.6694 6.70338 12.8326 6.35999 11.96 6.35999C11.0874 6.35999 10.2506 6.70338 9.63361 7.31461C9.01662 7.92583 8.67 8.75484 8.67 9.61924V17.3364C8.67 17.5992 8.77535 17.8511 8.96289 18.0369C9.15043 18.2227 9.40478 18.3271 9.67 18.3271C9.93521 18.3271 10.1896 18.2227 10.3771 18.0369C10.5646 17.8511 10.67 17.5992 10.67 17.3364V9.61924C10.67 9.28031 10.8059 8.95526 11.0478 8.7156C11.2898 8.47594 11.6179 8.3413 11.96 8.3413C12.3021 8.3413 12.6302 8.47594 12.8722 8.7156C13.1141 8.95526 13.25 9.28031 13.25 9.61924V18.6936C13.2741 19.1149 13.2111 19.5366 13.0649 19.9329C12.9187 20.3293 12.6925 20.6919 12.3999 20.9985C12.1074 21.3052 11.7547 21.5495 11.3635 21.7165C10.9724 21.8834 10.5509 21.9696 10.125 21.9696C9.69906 21.9696 9.27762 21.8834 8.88645 21.7165C8.49528 21.5495 8.14263 21.3052 7.85009 20.9985C7.55754 20.6919 7.33125 20.3293 7.18508 19.9329C7.03891 19.5366 6.97593 19.1149 7 18.6936V6.93457C7 5.62088 7.52678 4.361 8.46446 3.43208C9.40214 2.50317 10.6739 1.98131 12 1.98131C13.3261 1.98131 14.5978 2.50317 15.5355 3.43208C16.4732 4.361 17 5.62088 17 6.93457V14.3645C17 14.6272 17.1054 14.8792 17.2929 15.065C17.4804 15.2508 17.7348 15.3551 18 15.3551C18.2652 15.3551 18.5196 15.2508 18.7071 15.065C18.8946 14.8792 19 14.6272 19 14.3645V6.93457C19 5.09541 18.2625 3.33157 16.9497 2.03109C15.637 0.730605 13.8565 0 12 0V0Z" fill="currentColor"/></svg>