<svg viewBox="0 0 24 24" fill="none" xmlns="http://www.w3.org/2000/svg"><path d="M21.56 5.85L16.15 0.44C15.8677 0.160449 15.4873 0.00251166 15.09 0L3.5 0C3.10218 0 2.72064 0.158035 2.43934 0.43934C2.15804 0.720644 2 1.10218 2 1.5V22.5C2 22.8978 2.15804 23.2794 2.43934 23.5607C2.72064 23.842 3.10218 24 3.5 24H21.5C21.6326 24 21.7598 23.9473 21.8536 23.8536C21.9473 23.7598 22 23.6326 22 23.5V6.91C21.9975 6.51274 21.8396 6.13226 21.56 5.85V5.85ZM9.82 11.18L6.45 9.92C5.98791 9.70191 5.60233 9.34952 5.34365 8.90887C5.08497 8.46822 4.9652 7.95979 5 7.45C4.99715 6.81859 5.23051 6.20893 5.65424 5.74079C6.07797 5.27266 6.66143 4.97989 7.29 4.92C7.34916 4.91042 7.4029 4.8799 7.44145 4.83402C7.47999 4.78813 7.50077 4.72992 7.5 4.67V4C7.5 3.73478 7.60536 3.48043 7.79289 3.29289C7.98043 3.10536 8.23478 3 8.5 3C8.76522 3 9.01957 3.10536 9.20711 3.29289C9.39464 3.48043 9.5 3.73478 9.5 4V4.63C9.5 4.6963 9.52634 4.75989 9.57322 4.80678C9.62011 4.85366 9.6837 4.88 9.75 4.88H11C11.2652 4.88 11.5196 4.98536 11.7071 5.17289C11.8946 5.36043 12 5.61478 12 5.88C12 6.14522 11.8946 6.39957 11.7071 6.58711C11.5196 6.77464 11.2652 6.88 11 6.88H7.88C7 6.88 7 7.31 7 7.45C6.98404 7.67153 7.04789 7.89146 7.18 8.07L10.55 9.33C11.0121 9.54809 11.3977 9.90048 11.6563 10.3411C11.915 10.7818 12.0348 11.2902 12 11.8C12.0028 12.4314 11.7695 13.0411 11.3458 13.5092C10.922 13.9773 10.3386 14.2701 9.71 14.33C9.65084 14.3396 9.5971 14.3701 9.55855 14.416C9.52001 14.4619 9.49923 14.5201 9.5 14.58V15.25C9.5 15.5152 9.39464 15.7696 9.20711 15.9571C9.01957 16.1446 8.76522 16.25 8.5 16.25C8.23478 16.25 7.98043 16.1446 7.79289 15.9571C7.60536 15.7696 7.5 15.5152 7.5 15.25V14.63C7.5 14.5637 7.47366 14.5001 7.42678 14.4532C7.37989 14.4063 7.3163 14.38 7.25 14.38H6C5.73478 14.38 5.48043 14.2746 5.29289 14.0871C5.10536 13.8996 5 13.6452 5 13.38C5 13.1148 5.10536 12.8604 5.29289 12.6729C5.48043 12.4854 5.73478 12.38 6 12.38H9.12C10 12.38 10 11.94 10 11.8C10.016 11.5785 9.95211 11.3585 9.82 11.18ZM18.5 14.75C18.6989 14.75 18.8897 14.829 19.0303 14.9697C19.171 15.1103 19.25 15.3011 19.25 15.5C19.25 15.6989 19.171 15.8897 19.0303 16.0303C18.8897 16.171 18.6989 16.25 18.5 16.25H13.5C13.3011 16.25 13.1103 16.171 12.9697 16.0303C12.829 15.8897 12.75 15.6989 12.75 15.5C12.75 15.3011 12.829 15.1103 12.9697 14.9697C13.1103 14.829 13.3011 14.75 13.5 14.75H18.5ZM14.75 11C14.7526 10.8019 14.8324 10.6126 14.9725 10.4725C15.1126 10.3324 15.3019 10.2526 15.5 10.25H18.5C18.6989 10.25 18.8897 10.329 19.0303 10.4697C19.171 10.6103 19.25 10.8011 19.25 11C19.25 11.1989 19.171 11.3897 19.0303 11.5303C18.8897 11.671 18.6989 11.75 18.5 11.75H15.5C15.3019 11.7474 15.1126 11.6676 14.9725 11.5275C14.8324 11.3874 14.7526 11.1981 14.75 11V11ZM18.5 19.25C18.6989 19.25 18.8897 19.329 19.0303 19.4697C19.171 19.6103 19.25 19.8011 19.25 20C19.25 20.1989 19.171 20.3897 19.0303 20.5303C18.8897 20.671 18.6989 20.75 18.5 20.75H8.5C8.30109 20.75 8.11032 20.671 7.96967 20.5303C7.82902 20.3897 7.75 20.1989 7.75 20C7.75 19.8011 7.82902 19.6103 7.96967 19.4697C8.11032 19.329 8.30109 19.25 8.5 19.25H18.5Z" fill="currentColor"/></svg>