<svg viewBox="0 0 24 24" fill="none" xmlns="http://www.w3.org/2000/svg"><g clip-path="url(#clip0_2075_434)"><path d="M5.5 5.49999C6.09765 5.49735 6.66993 5.25807 7.0916 4.83453C7.51327 4.41098 7.75001 3.83765 7.75 3.23999C7.56853 2.21783 7.13167 1.25812 6.48 0.449991C6.35903 0.301545 6.20652 0.181894 6.03356 0.0997212C5.86059 0.0175481 5.6715 -0.0250854 5.48 -0.0250854C5.2885 -0.0250854 5.09941 0.0175481 4.92644 0.0997212C4.75348 0.181894 4.60097 0.301545 4.48 0.449991C3.84267 1.26222 3.41972 2.22161 3.25 3.23999C3.24999 3.83765 3.48673 4.41098 3.9084 4.83453C4.33007 5.25807 4.90235 5.49735 5.5 5.49999V5.49999Z" fill="currentColor"/><path d="M18.5 5.49999C19.0976 5.49735 19.6699 5.25807 20.0916 4.83453C20.5132 4.41098 20.75 3.83765 20.75 3.23999C20.5685 2.21783 20.1316 1.25812 19.48 0.449991C19.359 0.301545 19.2065 0.181894 19.0335 0.0997212C18.8605 0.0175481 18.6715 -0.0250854 18.48 -0.0250854C18.2885 -0.0250854 18.0994 0.0175481 17.9264 0.0997212C17.7534 0.181894 17.6009 0.301545 17.48 0.449991C16.8283 1.25812 16.3914 2.21783 16.21 3.23999C16.2099 3.53932 16.2694 3.83567 16.3848 4.11184C16.5003 4.38801 16.6694 4.6385 16.8825 4.84875C17.0955 5.05901 17.3482 5.22485 17.6259 5.33665C17.9035 5.44844 18.2007 5.50396 18.5 5.49999V5.49999Z" fill="currentColor"/><path d="M12 5.49999C12.5977 5.49735 13.1699 5.25807 13.5916 4.83453C14.0133 4.41098 14.25 3.83765 14.25 3.23999C14.0744 2.21973 13.6445 1.26018 13 0.449991C12.879 0.301545 12.7265 0.181894 12.5536 0.0997212C12.3806 0.0175481 12.1915 -0.0250854 12 -0.0250854C11.8085 -0.0250854 11.6194 0.0175481 11.4464 0.0997212C11.2735 0.181894 11.121 0.301545 11 0.449991C10.3555 1.26018 9.9256 2.21973 9.75 3.23999C9.74999 3.83765 9.98673 4.41098 10.4084 4.83453C10.8301 5.25807 11.4023 5.49735 12 5.49999V5.49999Z" fill="currentColor"/><path d="M20.5 11C20.3674 11 20.2402 10.9473 20.1464 10.8536C20.0527 10.7598 20 10.6326 20 10.5V7.5C20 7.23478 19.8946 6.98043 19.7071 6.79289C19.5196 6.60536 19.2652 6.5 19 6.5H18C17.7348 6.5 17.4804 6.60536 17.2929 6.79289C17.1054 6.98043 17 7.23478 17 7.5V10.5C17 10.6326 16.9473 10.7598 16.8536 10.8536C16.7598 10.9473 16.6326 11 16.5 11H14C13.8674 11 13.7402 10.9473 13.6464 10.8536C13.5527 10.7598 13.5 10.6326 13.5 10.5V7.5C13.5 7.23478 13.3946 6.98043 13.2071 6.79289C13.0196 6.60536 12.7652 6.5 12.5 6.5H11.5C11.2348 6.5 10.9804 6.60536 10.7929 6.79289C10.6054 6.98043 10.5 7.23478 10.5 7.5V10.5C10.5 10.6326 10.4473 10.7598 10.3536 10.8536C10.2598 10.9473 10.1326 11 10 11H7.5C7.36739 11 7.24021 10.9473 7.14645 10.8536C7.05268 10.7598 7 10.6326 7 10.5V7.5C7 7.23478 6.89464 6.98043 6.70711 6.79289C6.51957 6.60536 6.26522 6.5 6 6.5H5C4.73478 6.5 4.48043 6.60536 4.29289 6.79289C4.10536 6.98043 4 7.23478 4 7.5V10.5C4 10.6326 3.94732 10.7598 3.85355 10.8536C3.75979 10.9473 3.63261 11 3.5 11C2.83696 11 2.20107 11.2634 1.73223 11.7322C1.26339 12.2011 1 12.837 1 13.5V13.86C1.01097 14.341 1.19496 14.8019 1.51822 15.1582C1.84148 15.5145 2.28235 15.7424 2.76 15.8C3.16942 15.8412 3.58231 15.7698 3.95415 15.5936C4.32599 15.4174 4.64266 15.143 4.87 14.8C4.98929 14.6167 5.15227 14.4659 5.34427 14.3612C5.53627 14.2564 5.75129 14.2011 5.97 14.2C6.20256 14.198 6.43201 14.2536 6.63789 14.3618C6.84377 14.4699 7.0197 14.6274 7.15 14.82C7.35704 15.1191 7.6335 15.3635 7.95571 15.5324C8.27791 15.7012 8.63624 15.7894 9 15.7894C9.36376 15.7894 9.72209 15.7012 10.0443 15.5324C10.3665 15.3635 10.643 15.1191 10.85 14.82C10.9854 14.6437 11.1595 14.5009 11.3589 14.4026C11.5584 14.3043 11.7777 14.2532 12 14.2532C12.2223 14.2532 12.4416 14.3043 12.6411 14.4026C12.8405 14.5009 13.0146 14.6437 13.15 14.82C13.357 15.1191 13.6335 15.3635 13.9557 15.5324C14.2779 15.7012 14.6362 15.7894 15 15.7894C15.3638 15.7894 15.7221 15.7012 16.0443 15.5324C16.3665 15.3635 16.643 15.1191 16.85 14.82C16.9797 14.6352 17.1518 14.4843 17.3519 14.3799C17.552 14.2755 17.7743 14.2207 18 14.22C18.2187 14.2211 18.4337 14.2764 18.6257 14.3812C18.8177 14.4859 18.9807 14.6367 19.1 14.82C19.3273 15.163 19.644 15.4374 20.0159 15.6136C20.3877 15.7898 20.8006 15.8612 21.21 15.82C21.6964 15.7687 22.1472 15.5409 22.477 15.1798C22.8069 14.8186 22.9929 14.3491 23 13.86V13.5C23 12.837 22.7366 12.2011 22.2678 11.7322C21.7989 11.2634 21.163 11 20.5 11V11Z" fill="currentColor"/><path d="M22.32 17.07C22.0212 17.1842 21.7084 17.2582 21.39 17.29C20.8333 17.3484 20.2706 17.2817 19.7429 17.0948C19.2153 16.908 18.736 16.6057 18.34 16.21C18.2951 16.1606 18.2403 16.1211 18.1791 16.0941C18.118 16.067 18.0519 16.0531 17.9851 16.0531C17.9182 16.0531 17.8521 16.067 17.791 16.0941C17.7298 16.1211 17.675 16.1606 17.63 16.21C17.2872 16.5595 16.8779 16.8369 16.4262 17.0258C15.9745 17.2147 15.4896 17.3113 15.0001 17.31C14.0112 17.307 13.063 16.9155 12.3601 16.22C12.2666 16.1284 12.1409 16.0771 12.0101 16.0771C11.8792 16.0771 11.7535 16.1284 11.6601 16.22C10.9544 16.9174 10.0022 17.3085 9.01005 17.3085C8.0179 17.3085 7.06574 16.9174 6.36005 16.22C6.31516 16.1722 6.26094 16.134 6.20074 16.108C6.14055 16.0819 6.07565 16.0685 6.01005 16.0685C5.94445 16.0685 5.87955 16.0819 5.81936 16.108C5.75916 16.134 5.70494 16.1722 5.66005 16.22C5.2672 16.6048 4.79552 16.8997 4.27757 17.0845C3.75962 17.2692 3.20774 17.3393 2.66005 17.29C2.34167 17.2582 2.02893 17.1842 1.73005 17.07C1.65502 17.0407 1.57401 17.0299 1.49392 17.0386C1.41383 17.0473 1.33702 17.0752 1.27005 17.12C1.20227 17.1648 1.14668 17.2257 1.10828 17.2972C1.06988 17.3688 1.04987 17.4488 1.05005 17.53V21.53C1.05771 22.1793 1.31768 22.8001 1.77494 23.2611C2.2322 23.7221 2.85087 23.9871 3.50005 24H20.5C20.8284 24 21.1534 23.9353 21.4568 23.8097C21.7601 23.6841 22.0357 23.4999 22.2678 23.2678C22.5 23.0356 22.6841 22.76 22.8097 22.4567C22.9354 22.1534 23 21.8283 23 21.5V17.5C23.0002 17.4188 22.9802 17.3388 22.9418 17.2672C22.9034 17.1957 22.8478 17.1348 22.7801 17.09C22.7106 17.05 22.6325 17.0274 22.5525 17.0239C22.4724 17.0204 22.3927 17.0362 22.32 17.07V17.07Z" fill="currentColor"/></g><defs><clipPath id="clip0_2075_434"><rect width="24" height="24" fill="currentColor"/></clipPath></defs></svg>