<svg viewBox="0 0 24 24" fill="none" xmlns="http://www.w3.org/2000/svg"><path d="M15.8262 8.34235C15.8703 8.3165 15.9052 8.27696 15.9258 8.22945C15.9464 8.18195 15.9517 8.12895 15.941 8.07815C15.9359 8.04187 15.923 8.00721 15.9032 7.97672C15.8833 7.94624 15.857 7.92071 15.8262 7.90202L6.47171 3.54758C6.40962 3.52094 6.34297 3.50722 6.27563 3.50722C6.2083 3.50722 6.14164 3.52094 6.07955 3.54758L2.43533 5.14258C2.39252 5.16431 2.35644 5.19777 2.33111 5.23923C2.30578 5.28069 2.29219 5.32853 2.29186 5.37742C2.28494 5.42758 2.29554 5.47863 2.32178 5.52158C2.34802 5.56454 2.38823 5.59665 2.43533 5.61227L12.2776 9.81014C12.3381 9.83652 12.4032 9.85011 12.4689 9.85011C12.5346 9.85011 12.5997 9.83652 12.6602 9.81014L15.8262 8.34235Z" fill="currentColor"/><path d="M21.6223 5.63183C21.6651 5.61273 21.7014 5.58125 21.7269 5.54125C21.7524 5.50126 21.7659 5.45451 21.7658 5.40677C21.7653 5.3604 21.7514 5.31522 21.7259 5.27691C21.7004 5.2386 21.6643 5.20888 21.6223 5.19149L12.3826 1.08169C12.2619 1.02781 12.1317 1 12 1C11.8683 1 11.7381 1.02781 11.6174 1.08169L8.53752 2.45163C8.49621 2.47003 8.46082 2.50001 8.43544 2.5381C8.41005 2.57618 8.3957 2.62083 8.39404 2.6669C8.39388 2.71465 8.40738 2.7614 8.43287 2.80139C8.45837 2.84138 8.49474 2.87286 8.53752 2.89196L17.8155 7.22682C17.877 7.2558 17.9438 7.2708 18.0115 7.2708C18.0792 7.2708 18.1461 7.2558 18.2076 7.22682L21.6223 5.63183Z" fill="currentColor"/><path d="M1.33526 6.73756C1.29921 6.7208 1.26008 6.71213 1.22048 6.71213C1.18089 6.71213 1.14175 6.7208 1.1057 6.73756C1.0735 6.76083 1.04716 6.7916 1.02887 6.82733C1.01058 6.86305 1.00085 6.90272 1.00049 6.94305V17.8634C1.00143 18.0566 1.05825 18.2451 1.16378 18.4053C1.26931 18.5656 1.41884 18.6902 1.59351 18.7636L11.4262 22.9713C11.4617 22.9901 11.501 23 11.541 23C11.581 23 11.6203 22.9901 11.6558 22.9713C11.6884 22.9508 11.7153 22.922 11.7338 22.8877C11.7522 22.8534 11.7616 22.8147 11.761 22.7756V11.3464C11.7612 11.2987 11.7477 11.2519 11.7222 11.2119C11.6967 11.1719 11.6603 11.1404 11.6175 11.1213L1.33526 6.73756Z" fill="currentColor"/><path d="M13.1958 22.6973C13.1957 22.738 13.2054 22.7781 13.2243 22.8139C13.2431 22.8498 13.2704 22.8802 13.3036 22.9026C13.3368 22.9249 13.375 22.9385 13.4146 22.9419C13.4543 22.9454 13.4941 22.9386 13.5306 22.9224L22.4355 18.7832C22.6078 18.704 22.7534 18.5744 22.8538 18.4107C22.9543 18.247 23.0051 18.0566 22.9998 17.8634V6.99199C23 6.9513 22.9902 6.91121 22.9713 6.87537C22.9525 6.83952 22.9253 6.80904 22.892 6.7867C22.8588 6.76435 22.8206 6.75084 22.781 6.74739C22.7413 6.74394 22.7015 6.75065 22.665 6.76693L13.3393 11.1018C13.2965 11.1209 13.2601 11.1524 13.2346 11.1924C13.2091 11.2324 13.1956 11.2791 13.1958 11.3269V22.6973Z" fill="currentColor"/></svg>