<svg viewBox="0 0 24 24" fill="none" xmlns="http://www.w3.org/2000/svg"><path d="M21.913 3H19.0435C18.9743 3 18.9079 2.97366 18.859 2.92678C18.8101 2.87989 18.7826 2.8163 18.7826 2.75V1C18.7826 0.734784 18.6727 0.48043 18.477 0.292893C18.2813 0.105357 18.0159 0 17.7391 0C17.4624 0 17.197 0.105357 17.0013 0.292893C16.8056 0.48043 16.6957 0.734784 16.6957 1V5.75C16.6957 5.94891 16.6132 6.13968 16.4664 6.28033C16.3197 6.42098 16.1206 6.5 15.913 6.5V6.5C15.7055 6.5 15.5064 6.42098 15.3597 6.28033C15.2129 6.13968 15.1304 5.94891 15.1304 5.75V3.5C15.1304 3.36739 15.0755 3.24021 14.9776 3.14645C14.8798 3.05268 14.7471 3 14.6087 3H8.08696C8.01777 3 7.95142 2.97366 7.90249 2.92678C7.85357 2.87989 7.82609 2.8163 7.82609 2.75V1C7.82609 0.734784 7.71615 0.48043 7.52046 0.292893C7.32477 0.105357 7.05936 0 6.78261 0C6.50586 0 6.24045 0.105357 6.04476 0.292893C5.84907 0.48043 5.73913 0.734784 5.73913 1V5.75C5.73913 5.94891 5.65668 6.13968 5.50991 6.28033C5.36314 6.42098 5.16408 6.5 4.95652 6.5C4.74896 6.5 4.5499 6.42098 4.40313 6.28033C4.25637 6.13968 4.17391 5.94891 4.17391 5.75V3.5C4.17391 3.36739 4.11894 3.24021 4.0211 3.14645C3.92325 3.05268 3.79055 3 3.65217 3H2.08696C1.53346 3 1.00264 3.21071 0.611255 3.58579C0.219875 3.96086 0 4.46957 0 5V22C0 22.5304 0.219875 23.0391 0.611255 23.4142C1.00264 23.7893 1.53346 24 2.08696 24H21.913C22.4665 24 22.9974 23.7893 23.3887 23.4142C23.7801 23.0391 24 22.5304 24 22V5C24 4.46957 23.7801 3.96086 23.3887 3.58579C22.9974 3.21071 22.4665 3 21.913 3ZM21.3913 22H2.6087C2.47032 22 2.33762 21.9473 2.23977 21.8536C2.14193 21.7598 2.08696 21.6326 2.08696 21.5V9.5C2.08696 9.36739 2.14193 9.24021 2.23977 9.14645C2.33762 9.05268 2.47032 9 2.6087 9H21.3913C21.5297 9 21.6624 9.05268 21.7602 9.14645C21.8581 9.24021 21.913 9.36739 21.913 9.5V21.5C21.913 21.6326 21.8581 21.7598 21.7602 21.8536C21.6624 21.9473 21.5297 22 21.3913 22Z" fill="currentColor"/></svg>