<svg viewBox="0 0 12 12" fill="none" xmlns="http://www.w3.org/2000/svg"><path fill-rule="evenodd" clip-rule="evenodd" d="M1 2.66668H4.2L4.9087 1.4855C5.08942 1.1843 5.41493 1 5.76619 1H8.23381C8.58507 1 8.91058 1.1843 9.0913 1.4855L9.8 2.66668H11C11.5523 2.66668 12 3.11439 12 3.66668V9.66668C12 10.219 11.5523 10.6667 11 10.6667H1C0.447715 10.6667 0 10.219 0 9.66668V3.66668C0 3.11439 0.447715 2.66668 1 2.66668ZM7 9.5C8.65685 9.5 10 8.15685 10 6.5C10 4.84315 8.65685 3.5 7 3.5C5.34315 3.5 4 4.84315 4 6.5C4 8.15685 5.34315 9.5 7 9.5Z" fill="currentColor"/></svg>