<svg viewBox="0 0 24 24" fill="none" xmlns="http://www.w3.org/2000/svg"><g clip-path="url(#clip0_2083_517)"><path d="M24 12C24 9.62663 23.2962 7.30655 21.9776 5.33316C20.6591 3.35977 18.7849 1.8217 16.5922 0.913451C14.3995 0.00519943 11.9867 -0.232441 9.65892 0.230582C7.33115 0.693605 5.19295 1.83649 3.51472 3.51472C1.83649 5.19295 0.693605 7.33115 0.230582 9.65892C-0.232441 11.9867 0.00519943 14.3995 0.913451 16.5922C1.8217 18.7849 3.35977 20.6591 5.33316 21.9776C7.30655 23.2962 9.62663 24 12 24C15.1826 24 18.2349 22.7357 20.4853 20.4853C22.7357 18.2349 24 15.1826 24 12ZM16.71 15.28C16.8963 15.4674 17.0008 15.7208 17.0008 15.985C17.0008 16.2492 16.8963 16.5026 16.71 16.69C16.617 16.7837 16.5064 16.8581 16.3846 16.9089C16.2627 16.9597 16.132 16.9858 16 16.9858C15.868 16.9858 15.7373 16.9597 15.6154 16.9089C15.4936 16.8581 15.383 16.7837 15.29 16.69L12.18 13.58C12.1321 13.5364 12.0697 13.5123 12.005 13.5123C11.9403 13.5123 11.8779 13.5364 11.83 13.58L8.72001 16.69C8.5287 16.8538 8.28263 16.9394 8.03095 16.9297C7.77928 16.92 7.54054 16.8157 7.36244 16.6376C7.18435 16.4595 7.08002 16.2207 7.07029 15.9691C7.06057 15.7174 7.14618 15.4713 7.31001 15.28L10.42 12.17C10.4636 12.1221 10.4877 12.0597 10.4877 11.995C10.4877 11.9303 10.4636 11.8679 10.42 11.82L7.31001 8.71001C7.21628 8.61704 7.14188 8.50644 7.09111 8.38458C7.04035 8.26272 7.01421 8.13202 7.01421 8.00001C7.01421 7.86799 7.04035 7.73729 7.09111 7.61543C7.14188 7.49357 7.21628 7.38297 7.31001 7.29001C7.49737 7.10375 7.75082 6.99921 8.01501 6.99921C8.27919 6.99921 8.53264 7.10375 8.72001 7.29001L11.83 10.4C11.8525 10.4239 11.8796 10.443 11.9097 10.456C11.9398 10.469 11.9722 10.4758 12.005 10.4758C12.0378 10.4758 12.0703 10.469 12.1004 10.456C12.1305 10.443 12.1576 10.4239 12.18 10.4L15.29 7.29001C15.3832 7.19677 15.4939 7.12281 15.6158 7.07235C15.7376 7.02189 15.8681 6.99591 16 6.99591C16.1319 6.99591 16.2624 7.02189 16.3843 7.07235C16.5061 7.12281 16.6168 7.19677 16.71 7.29001C16.8032 7.38324 16.8772 7.49393 16.9277 7.61576C16.9781 7.73758 17.0041 7.86815 17.0041 8.00001C17.0041 8.13186 16.9781 8.26243 16.9277 8.38426C16.8772 8.50608 16.8032 8.61677 16.71 8.71001L13.6 11.82C13.5761 11.8425 13.557 11.8696 13.544 11.8997C13.531 11.9298 13.5242 11.9622 13.5242 11.995C13.5242 12.0278 13.531 12.0603 13.544 12.0904C13.557 12.1205 13.5761 12.1476 13.6 12.17L16.71 15.28Z" fill="currentColor"/></g><defs><clipPath id="clip0_2083_517"><rect width="24" height="24" fill="currentColor"/></clipPath></defs></svg>