<svg viewBox="0 0 24 24" fill="none" xmlns="http://www.w3.org/2000/svg"><path d="M17 0H7C6.20435 0 5.44129 0.31607 4.87868 0.87868C4.31607 1.44129 4 2.20435 4 3V21C4 21.7956 4.31607 22.5587 4.87868 23.1213C5.44129 23.6839 6.20435 24 7 24H17C17.7956 24 18.5587 23.6839 19.1213 23.1213C19.6839 22.5587 20 21.7956 20 21V3C20 2.20435 19.6839 1.44129 19.1213 0.87868C18.5587 0.31607 17.7956 0 17 0V0ZM13.5 22.5H10.5C10.2348 22.5 9.98043 22.3946 9.79289 22.2071C9.60536 22.0196 9.5 21.7652 9.5 21.5C9.5 21.2348 9.60536 20.9804 9.79289 20.7929C9.98043 20.6054 10.2348 20.5 10.5 20.5H13.5C13.7652 20.5 14.0196 20.6054 14.2071 20.7929C14.3946 20.9804 14.5 21.2348 14.5 21.5C14.5 21.7652 14.3946 22.0196 14.2071 22.2071C14.0196 22.3946 13.7652 22.5 13.5 22.5ZM18 18C18 18.2652 17.8946 18.5196 17.7071 18.7071C17.5196 18.8946 17.2652 19 17 19H7C6.73478 19 6.48043 18.8946 6.29289 18.7071C6.10536 18.5196 6 18.2652 6 18V5C6 4.73478 6.10536 4.48043 6.29289 4.29289C6.48043 4.10536 6.73478 4 7 4H17C17.2652 4 17.5196 4.10536 17.7071 4.29289C17.8946 4.48043 18 4.73478 18 5V18Z" fill="currentColor"/></svg>