<svg viewBox="0 0 24 24" fill="none" xmlns="http://www.w3.org/2000/svg"><path d="M23.8481 5.08388L20.8728 2.14977C20.7735 2.05377 20.64 2 20.5009 2C20.3618 2 20.2283 2.05377 20.129 2.14977L7.59016 14.515C7.49084 14.611 7.35732 14.6647 7.21825 14.6647C7.07918 14.6647 6.94565 14.611 6.84633 14.515L3.87102 11.5808C3.7717 11.4848 3.63818 11.4311 3.4991 11.4311C3.36003 11.4311 3.22651 11.4848 3.12719 11.5808L0.151878 14.515C0.0545281 14.6129 0 14.7446 0 14.8817C0 15.0189 0.0545281 15.1505 0.151878 15.2485L6.84633 21.8502C6.94565 21.9462 7.07918 22 7.21825 22C7.35732 22 7.49084 21.9462 7.59016 21.8502L23.8481 5.81741C23.9455 5.71947 24 5.58779 24 5.45065C24 5.3135 23.9455 5.18183 23.8481 5.08388Z" fill="currentColor"/></svg>