<svg viewBox="0 0 24 24" fill="none" xmlns="http://www.w3.org/2000/svg"><g clip-path="url(#clip0_2075_441)"><path d="M12 0C9.62663 0 7.30655 0.703788 5.33316 2.02236C3.35977 3.34094 1.8217 5.21509 0.913451 7.4078C0.00519943 9.60051 -0.232441 12.0133 0.230582 14.3411C0.693605 16.6689 1.83649 18.8071 3.51472 20.4853C5.19295 22.1635 7.33115 23.3064 9.65892 23.7694C11.9867 24.2324 14.3995 23.9948 16.5922 23.0866C18.7849 22.1783 20.6591 20.6402 21.9776 18.6668C23.2962 16.6935 24 14.3734 24 12C24 8.8174 22.7357 5.76516 20.4853 3.51472C18.2349 1.26428 15.1826 0 12 0V0ZM17.2 17.22C17.1111 17.3178 17.0036 17.3969 16.8839 17.4529C16.7642 17.5089 16.6346 17.5406 16.5025 17.5462C16.3705 17.5518 16.2386 17.5311 16.1146 17.4854C15.9906 17.4397 15.8769 17.3699 15.78 17.28L10.78 12.74C10.6855 12.6422 10.6119 12.5261 10.5637 12.3989C10.5156 12.2716 10.4939 12.1359 10.5 12V6.5C10.5 6.23478 10.6054 5.98043 10.7929 5.79289C10.9804 5.60536 11.2348 5.5 11.5 5.5C11.7652 5.5 12.0196 5.60536 12.2071 5.79289C12.3946 5.98043 12.5 6.23478 12.5 6.5V11.56L17.13 15.81C17.3258 15.9879 17.4432 16.2363 17.4563 16.5005C17.4694 16.7648 17.3773 17.0235 17.2 17.22V17.22Z" fill="currentColor"/></g><defs><clipPath id="clip0_2075_441"><rect width="24" height="24" fill="currentColor"/></clipPath></defs></svg>