<svg viewBox="0 0 12 12" fill="none" xmlns="http://www.w3.org/2000/svg"><path d="M9 2H9.6667C10.02 2.00063 10.3585 2.08512 10.6084 2.23501C10.8582 2.38491 10.999 2.58802 11.0001 2.8V4H9" stroke="currentColor" stroke-width="0.833333" stroke-linecap="round" stroke-linejoin="round"/><path d="M9 4H11.0001V6H9" stroke="currentColor" stroke-width="0.833333" stroke-linecap="round" stroke-linejoin="round"/><path d="M9 6.00006H11.0001V8.00006H9" stroke="currentColor" stroke-width="0.833333" stroke-linecap="round" stroke-linejoin="round"/><path d="M9 8H11.0001V9.2C10.999 9.41198 10.8582 9.61509 10.6084 9.76499C10.3585 9.91488 10.02 9.99937 9.6667 10H9" stroke="currentColor" stroke-width="0.833333" stroke-linecap="round" stroke-linejoin="round"/><path fill-rule="evenodd" clip-rule="evenodd" d="M1.5 3C1.5 1.89543 2.39543 1 3.5 1H8.5C9.05228 1 9.5 1.44772 9.5 2V10C9.5 10.5523 9.05228 11 8.5 11H3.5C2.39543 11 1.5 10.1046 1.5 9V3ZM7.5 8.5C7.5 7.96957 7.28929 7.46086 6.91421 7.08579C6.53914 6.71071 6.03043 6.5 5.5 6.5C4.96957 6.5 4.46086 6.71071 4.08579 7.08579C3.71071 7.46086 3.5 7.96957 3.5 8.5H7.5ZM4.65176 5.54853C4.42672 5.32349 4.30029 5.01826 4.30029 4.7C4.30029 4.38174 4.42672 4.07652 4.65176 3.85147C4.87681 3.62643 5.18203 3.5 5.50029 3.5C5.81855 3.5 6.12378 3.62643 6.34882 3.85147C6.57386 4.07652 6.70029 4.38174 6.70029 4.7C6.70029 5.01826 6.57386 5.32349 6.34882 5.54853C6.12378 5.77357 5.81855 5.9 5.50029 5.9C5.18203 5.9 4.87681 5.77357 4.65176 5.54853Z" fill="currentColor"/></svg>