<svg viewBox="0 0 12 12" fill="none" xmlns="http://www.w3.org/2000/svg"><g clip-path="url(#clip0_2107_392)"><path d="M6.69978 2.3274C6.69684 2.35772 6.70554 2.38801 6.7241 2.41215C6.74267 2.43629 6.76973 2.45247 6.79978 2.4574C6.92166 2.4884 7.02907 2.5606 7.1038 2.66175C7.17852 2.76291 7.21597 2.88679 7.20978 3.0124V3.7124C7.20978 3.79424 7.22598 3.87528 7.25745 3.95083C7.28892 4.02638 7.33503 4.09495 7.39314 4.15259C7.45124 4.21022 7.52018 4.25579 7.59598 4.28665C7.67178 4.31751 7.75294 4.33306 7.83478 4.3324V4.3324C7.91638 4.33307 7.99731 4.31749 8.07283 4.28656C8.14835 4.25564 8.21697 4.21 8.27467 4.15229C8.33238 4.09459 8.37802 4.02597 8.40894 3.95045C8.43986 3.87493 8.45545 3.79401 8.45478 3.7124V1.9624C8.45478 1.76435 8.37645 1.57434 8.23688 1.43383C8.09731 1.29332 7.90782 1.21372 7.70978 1.2124H6.84478C6.81166 1.21344 6.7799 1.2258 6.75478 1.2474C6.73199 1.2718 6.71946 1.30402 6.71978 1.3374C6.71978 1.5624 6.71978 2.0724 6.69978 2.3274Z" fill="currentColor"/><path d="M4.50002 10.5924C4.50218 10.5078 4.48686 10.4237 4.45502 10.3452C4.42317 10.2668 4.37549 10.1958 4.31494 10.1367C4.2544 10.0776 4.1823 10.0316 4.10316 10.0016C4.02402 9.97158 3.93955 9.95824 3.85502 9.9624H1.74002C1.66971 9.95795 1.60097 9.93966 1.53775 9.90857C1.47453 9.87749 1.41807 9.83423 1.37161 9.78126C1.32515 9.7283 1.28961 9.66669 1.26703 9.59996C1.24445 9.53322 1.23527 9.46269 1.24002 9.3924V3.0124C1.23477 2.88536 1.27452 2.76054 1.35226 2.65993C1.43001 2.55932 1.54076 2.48937 1.66502 2.4624C1.69456 2.45642 1.72094 2.43998 1.73932 2.41609C1.75769 2.3922 1.76682 2.36248 1.76502 2.3324C1.76502 1.9474 1.76502 1.5324 1.76502 1.3324C1.76502 1.29925 1.75185 1.26745 1.7284 1.24401C1.70496 1.22057 1.67317 1.2074 1.64002 1.2074H0.750017C0.651103 1.2074 0.553166 1.22696 0.461845 1.26496C0.370523 1.30297 0.287621 1.35866 0.217911 1.42883C0.148201 1.49901 0.0930612 1.58228 0.0556655 1.67385C0.0182698 1.76542 -0.000642755 1.86349 1.66683e-05 1.9624V10.4624C1.22671e-05 10.6604 0.0783432 10.8505 0.217916 10.991C0.357489 11.1315 0.546972 11.2111 0.745017 11.2124H3.85502C3.93852 11.2158 4.02183 11.2022 4.09997 11.1726C4.1781 11.1429 4.24943 11.0978 4.30968 11.0399C4.36992 10.982 4.41784 10.9125 4.45055 10.8356C4.48326 10.7587 4.50008 10.676 4.50002 10.5924V10.5924Z" fill="currentColor"/><path d="M5.97005 2.19738V1.19738C5.96874 1.13195 5.94183 1.06964 5.89508 1.02383C5.84834 0.97802 5.7855 0.952368 5.72005 0.952381H5.34005C5.30964 0.951571 5.28047 0.94012 5.25763 0.92002C5.23479 0.89992 5.21972 0.872446 5.21505 0.842381C5.17755 0.607458 5.05753 0.393598 4.87654 0.239205C4.69555 0.0848116 4.46545 0 4.22755 0C3.98965 0 3.75955 0.0848116 3.57856 0.239205C3.39757 0.393598 3.27755 0.607458 3.24005 0.842381C3.23876 0.874659 3.22502 0.905183 3.20172 0.927554C3.17841 0.949926 3.14735 0.962407 3.11505 0.962381H2.73505C2.67268 0.964917 2.61362 0.991167 2.56995 1.03577C2.52627 1.08037 2.50127 1.13997 2.50005 1.20238V2.20238C2.49939 2.23497 2.50523 2.26737 2.51725 2.29767C2.52926 2.32798 2.5472 2.35558 2.57002 2.37886C2.59283 2.40215 2.62007 2.42064 2.65012 2.43326C2.68018 2.44589 2.71245 2.45239 2.74505 2.45238H5.74505C5.8078 2.44609 5.86586 2.41632 5.90759 2.36903C5.94932 2.32174 5.97163 2.26043 5.97005 2.19738V2.19738Z" fill="currentColor"/><path d="M9.5 8.59741H7.5C7.40054 8.59741 7.30516 8.63692 7.23484 8.70725C7.16451 8.77757 7.125 8.87296 7.125 8.97241C7.125 9.07187 7.16451 9.16725 7.23484 9.23758C7.30516 9.3079 7.40054 9.34741 7.5 9.34741H9.5C9.59946 9.34741 9.69484 9.3079 9.76517 9.23758C9.83549 9.16725 9.875 9.07187 9.875 8.97241C9.875 8.87296 9.83549 8.77757 9.76517 8.70725C9.69484 8.63692 9.59946 8.59741 9.5 8.59741V8.59741Z" fill="currentColor"/><path d="M7.14502 7.23236C7.14631 7.33141 7.18624 7.42605 7.25629 7.49609C7.32633 7.56614 7.42097 7.60607 7.52002 7.60736H8.76502C8.86448 7.60736 8.95986 7.56785 9.03018 7.49753C9.10051 7.4272 9.14002 7.33182 9.14002 7.23236C9.14002 7.1329 9.10051 7.03752 9.03018 6.9672C8.95986 6.89687 8.86448 6.85736 8.76502 6.85736H7.50002C7.40449 6.86365 7.31485 6.90577 7.24904 6.9753C7.18322 7.04482 7.14607 7.13663 7.14502 7.23236Z" fill="currentColor"/><path d="M11.7501 6.69237C11.7503 6.4283 11.6461 6.17486 11.4601 5.98737L10.7551 5.28737C10.5684 5.09958 10.3149 4.99349 10.0501 4.99237H6.24512C5.9799 4.99237 5.72555 5.09773 5.53801 5.28526C5.35047 5.4728 5.24512 5.72715 5.24512 5.99237V10.9624C5.24512 11.2276 5.35047 11.4819 5.53801 11.6695C5.72555 11.857 5.9799 11.9624 6.24512 11.9624H10.7451C11.0103 11.9624 11.2647 11.857 11.4522 11.6695C11.6398 11.4819 11.7451 11.2276 11.7451 10.9624L11.7501 6.69237ZM6.25012 6.49237C6.25012 6.35976 6.3028 6.23259 6.39656 6.13882C6.49033 6.04505 6.61751 5.99237 6.75012 5.99237H9.84512C9.91092 5.99199 9.97615 6.0046 10.0371 6.02948C10.098 6.05437 10.1534 6.09103 10.2001 6.13737L10.6101 6.54737C10.7025 6.6405 10.7546 6.7662 10.7551 6.89737V10.4624C10.7551 10.595 10.7024 10.7222 10.6087 10.8159C10.5149 10.9097 10.3877 10.9624 10.2551 10.9624H6.75512C6.62251 10.9624 6.49533 10.9097 6.40156 10.8159C6.3078 10.7222 6.25512 10.595 6.25512 10.4624L6.25012 6.49237Z" fill="currentColor"/></g><defs><clipPath id="clip0_2107_392"><rect width="12" height="12" fill="currentColor"/></clipPath></defs></svg>