<svg viewBox="0 0 24 24" fill="none" xmlns="http://www.w3.org/2000/svg"><path fill-rule="evenodd" clip-rule="evenodd" d="M12 9.5C16.4182 9.5 20 7.82107 20 5.75C20 3.67893 16.4182 2 12 2C7.58172 2 4 3.67893 4 5.75C4 7.82107 7.58172 9.5 12 9.5ZM12 17.8333C7.6 17.8333 4 16.1667 4 14.0833V18.25C4 20.3333 7.6 22 12 22C16.4 22 20 20.3333 20 18.25V14.0833C20 16.1667 16.4 17.8333 12 17.8333ZM4 7.83333C4 9.91667 7.6 11.5833 12 11.5833C16.4 11.5833 20 9.91667 20 7.83333V12C20 14.0833 16.4 15.75 12 15.75C7.6 15.75 4 14.0833 4 12V7.83333Z" fill="currentColor"/></svg>