<svg viewBox="0 0 24 24" fill="none" xmlns="http://www.w3.org/2000/svg"><g clip-path="url(#clip0_2075_442)"><path d="M19.4499 7.50002H4.54994C4.48078 7.4998 4.41232 7.51393 4.34889 7.54153C4.28546 7.56912 4.22845 7.60957 4.18146 7.66032C4.13447 7.71107 4.09851 7.77102 4.07588 7.83638C4.05324 7.90174 4.04441 7.97108 4.04994 8.04002L5.32994 22.18C5.375 22.6787 5.60544 23.1423 5.97575 23.4793C6.34605 23.8162 6.82927 24.0021 7.32994 24H16.6699C17.1706 24.0021 17.6538 23.8162 18.0241 23.4793C18.3944 23.1423 18.6249 22.6787 18.6699 22.18L19.9999 8.00002C20.0055 7.93108 19.9966 7.86174 19.974 7.79638C19.9514 7.73102 19.9154 7.67107 19.8684 7.62032C19.8214 7.56957 19.7644 7.52912 19.701 7.50152C19.6376 7.47393 19.5691 7.4598 19.4999 7.46002L19.4499 7.50002ZM10.2499 20.5C10.2499 20.6989 10.1709 20.8897 10.0303 21.0304C9.88962 21.171 9.69885 21.25 9.49994 21.25C9.30103 21.25 9.11026 21.171 8.96961 21.0304C8.82896 20.8897 8.74994 20.6989 8.74994 20.5V11.5C8.74994 11.3011 8.82896 11.1103 8.96961 10.9697C9.11026 10.829 9.30103 10.75 9.49994 10.75C9.69885 10.75 9.88962 10.829 10.0303 10.9697C10.1709 11.1103 10.2499 11.3011 10.2499 11.5V20.5ZM15.2499 20.5C15.2499 20.6989 15.1709 20.8897 15.0303 21.0304C14.8896 21.171 14.6989 21.25 14.4999 21.25C14.301 21.25 14.1103 21.171 13.9696 21.0304C13.829 20.8897 13.7499 20.6989 13.7499 20.5V11.5C13.7499 11.3011 13.829 11.1103 13.9696 10.9697C14.1103 10.829 14.301 10.75 14.4999 10.75C14.6989 10.75 14.8896 10.829 15.0303 10.9697C15.1709 11.1103 15.2499 11.3011 15.2499 11.5V20.5Z" fill="currentColor"/><path d="M22 4H17.25C17.1837 4 17.1201 3.97366 17.0732 3.92678C17.0263 3.87989 17 3.8163 17 3.75V2.5C17 1.83696 16.7366 1.20107 16.2678 0.732233C15.7989 0.263392 15.163 0 14.5 0L9.5 0C8.83696 0 8.20107 0.263392 7.73223 0.732233C7.26339 1.20107 7 1.83696 7 2.5V3.75C7 3.8163 6.97366 3.87989 6.92678 3.92678C6.87989 3.97366 6.8163 4 6.75 4H2C1.73478 4 1.48043 4.10536 1.29289 4.29289C1.10536 4.48043 1 4.73478 1 5C1 5.26522 1.10536 5.51957 1.29289 5.70711C1.48043 5.89464 1.73478 6 2 6H22C22.2652 6 22.5196 5.89464 22.7071 5.70711C22.8946 5.51957 23 5.26522 23 5C23 4.73478 22.8946 4.48043 22.7071 4.29289C22.5196 4.10536 22.2652 4 22 4V4ZM9 3.75V2.5C9 2.36739 9.05268 2.24021 9.14645 2.14645C9.24021 2.05268 9.36739 2 9.5 2H14.5C14.6326 2 14.7598 2.05268 14.8536 2.14645C14.9473 2.24021 15 2.36739 15 2.5V3.75C15 3.8163 14.9737 3.87989 14.9268 3.92678C14.8799 3.97366 14.8163 4 14.75 4H9.25C9.1837 4 9.12011 3.97366 9.07322 3.92678C9.02634 3.87989 9 3.8163 9 3.75Z" fill="currentColor"/></g><defs><clipPath id="clip0_2075_442"><rect width="24" height="24" fill="currentColor"/></clipPath></defs></svg>