<svg viewBox="0 0 12 12" fill="none" xmlns="http://www.w3.org/2000/svg"><path fill-rule="evenodd" clip-rule="evenodd" d="M5.75091 1H2.95189C2.75622 1 2.56321 1.04548 2.38813 1.13287C2.37081 1.14152 2.35371 1.15055 2.33685 1.15996L3.43287 3.90002H3.80853L5.70463 1.05588C5.71822 1.03549 5.73376 1.0168 5.75091 1ZM3.99042 4.60002C3.99382 4.60007 3.99722 4.60007 4.00062 4.60002H7.99107C7.99447 4.60007 7.99786 4.60007 8.00126 4.60002H8.27893L5.9959 10.3076L3.71287 4.60002H3.99042ZM8.18316 3.90002H8.55893L9.65537 1.15892C9.63911 1.14988 9.62264 1.1412 9.60596 1.13287C9.43088 1.04548 9.23786 1 9.0422 1H6.24078C6.25793 1.0168 6.27347 1.03549 6.28706 1.05588L8.18316 3.90002ZM7.34186 3.90002H4.64983L5.99584 1.881L7.34186 3.90002ZM1.7978 1.69716L2.67895 3.90002H0.157554C0.184868 3.85123 0.215522 3.80409 0.249403 3.75897L1.7978 1.69716ZM2.95895 4.60002H0C0.0178969 4.86443 0.118855 5.11688 0.289036 5.32111L0.289787 5.32201L5.02771 11.0457L5.02982 11.0483C5.14826 11.1895 5.29622 11.3029 5.46323 11.3808C5.54651 11.4196 5.63352 11.4491 5.72269 11.4689C5.70516 11.447 5.69004 11.4227 5.67788 11.3961C5.67545 11.3909 5.67315 11.3855 5.67098 11.3801L5.67068 11.3794L2.95895 4.60002ZM6.32104 11.3796L9.03285 4.60002H11.9931C11.9752 4.86442 11.8742 5.11687 11.7041 5.32109L11.7033 5.32201L6.96326 11.0483C6.84482 11.1895 6.69685 11.3029 6.52984 11.3808C6.44608 11.4198 6.35854 11.4494 6.26884 11.4692C6.2882 11.4451 6.30464 11.418 6.31741 11.3883L6.32087 11.38L6.32104 11.3796ZM11.7437 3.75897C11.7775 3.80409 11.8082 3.85123 11.8355 3.90002H9.31285L10.1948 1.69524L11.7437 3.75897Z" fill="currentColor"/></svg>