<svg viewBox="0 0 12 12" fill="none" xmlns="http://www.w3.org/2000/svg"><path d="M2.5 6C2.57248 6.0004 2.64226 5.97455 2.69444 5.92795C2.77778 5.83018 5 3.77187 5 2.31561C5 1.70147 4.73661 1.11249 4.26777 0.678226C3.79893 0.243965 3.16304 0 2.5 0C1.83696 0 1.20107 0.243965 0.732233 0.678226C0.263392 1.11249 0 1.70147 0 2.31561C0 3.77187 2.22222 5.83018 2.30556 5.92795C2.35774 5.97455 2.42752 6.0004 2.5 6ZM1.49444 2.31561C1.49334 2.15357 1.54421 1.99488 1.6406 1.85966C1.737 1.72443 1.87457 1.61876 2.03587 1.55605C2.19718 1.49333 2.37496 1.47639 2.54668 1.50738C2.71839 1.53837 2.87631 1.61588 3.0004 1.7301C3.12449 1.84431 3.20917 1.99009 3.24371 2.14894C3.27825 2.30779 3.26108 2.47256 3.19439 2.62237C3.1277 2.77217 3.01449 2.90026 2.8691 2.99039C2.72372 3.08052 2.55272 3.12864 2.37778 3.12864C2.14446 3.12865 1.92062 3.04315 1.75512 2.89082C1.58962 2.7385 1.49591 2.53171 1.49444 2.31561Z" fill="currentColor"/><path d="M9.5 5C8.83696 5 8.20107 5.24315 7.73223 5.67596C7.26339 6.10876 7 6.69578 7 7.30786C7 8.77104 9.23 10.8481 9.325 10.9358C9.37233 10.977 9.43493 11 9.5 11C9.56507 11 9.62767 10.977 9.675 10.9358C9.77 10.8481 12 8.77104 12 7.30786C12 7.00479 11.9353 6.70468 11.8097 6.42468C11.6841 6.14468 11.4999 5.89026 11.2678 5.67596C11.0356 5.46165 10.76 5.29166 10.4567 5.17568C10.1534 5.05969 9.8283 5 9.5 5ZM9.5 8.11561C9.32694 8.11561 9.15777 8.06824 9.01388 7.97948C8.86998 7.89072 8.75783 7.76457 8.69161 7.61697C8.62538 7.46938 8.60805 7.30696 8.64181 7.15028C8.67558 6.99359 8.75891 6.84966 8.88128 6.73669C9.00365 6.62373 9.15956 6.5468 9.3293 6.51563C9.49903 6.48446 9.67496 6.50046 9.83485 6.5616C9.99473 6.62273 10.1314 6.72626 10.2275 6.8591C10.3237 6.99193 10.375 7.1481 10.375 7.30786C10.375 7.52209 10.2828 7.72754 10.1187 7.87903C9.95462 8.03051 9.73206 8.11561 9.5 8.11561Z" fill="currentColor"/><path d="M2.25 6.91504C2.11739 6.91504 1.99021 6.96772 1.89645 7.06149C1.80268 7.15525 1.75 7.28243 1.75 7.41504V8.16504C1.75 8.29765 1.80268 8.42482 1.89645 8.51859C1.99021 8.61236 2.11739 8.66504 2.25 8.66504C2.38261 8.66504 2.50979 8.61236 2.60355 8.51859C2.69732 8.42482 2.75 8.29765 2.75 8.16504V7.41504C2.75 7.28243 2.69732 7.15525 2.60355 7.06149C2.50979 6.96772 2.38261 6.91504 2.25 6.91504Z" fill="currentColor"/><path d="M2.25 9.41504C2.11739 9.41504 1.99021 9.46772 1.89645 9.56149C1.80268 9.65525 1.75 9.78243 1.75 9.91504V10.665C1.75 10.7976 1.80268 10.9248 1.89645 11.0186C1.99021 11.1124 2.11739 11.165 2.25 11.165C2.38261 11.165 2.50979 11.1124 2.60355 11.0186C2.69732 10.9248 2.75 10.7976 2.75 10.665V9.91504C2.75 9.78243 2.69732 9.65525 2.60355 9.56149C2.50979 9.46772 2.38261 9.41504 2.25 9.41504Z" fill="currentColor"/><path d="M4.75 10.165H4C3.86739 10.165 3.74021 10.2177 3.64645 10.3115C3.55268 10.4053 3.5 10.5324 3.5 10.665C3.5 10.7976 3.55268 10.9248 3.64645 11.0186C3.74021 11.1124 3.86739 11.165 4 11.165H4.75C4.88261 11.165 5.00979 11.1124 5.10355 11.0186C5.19732 10.9248 5.25 10.7976 5.25 10.665C5.25 10.5324 5.19732 10.4053 5.10355 10.3115C5.00979 10.2177 4.88261 10.165 4.75 10.165Z" fill="currentColor"/><path d="M7.25 10.165H6.5C6.36739 10.165 6.24021 10.2177 6.14645 10.3115C6.05268 10.4053 6 10.5324 6 10.665C6 10.7976 6.05268 10.9248 6.14645 11.0186C6.24021 11.1124 6.36739 11.165 6.5 11.165H7.25C7.38261 11.165 7.50979 11.1124 7.60355 11.0186C7.69732 10.9248 7.75 10.7976 7.75 10.665C7.75 10.5324 7.69732 10.4053 7.60355 10.3115C7.50979 10.2177 7.38261 10.165 7.25 10.165Z" fill="currentColor"/></svg>