<svg viewBox="0 0 12 12" fill="none" xmlns="http://www.w3.org/2000/svg"><path d="M2.76512 7.53C2.62588 7.38873 2.54782 7.19835 2.54782 7C2.54782 6.80165 2.62588 6.61126 2.76512 6.47L2.00012 5.705C1.90643 5.61187 1.77971 5.5596 1.64762 5.5596C1.51552 5.5596 1.3888 5.61187 1.29512 5.705L0.295116 6.705C0.248252 6.75148 0.211055 6.80678 0.18567 6.86771C0.160286 6.92864 0.147217 6.99399 0.147217 7.06C0.147217 7.126 0.160286 7.19136 0.18567 7.25229C0.211055 7.31322 0.248252 7.36852 0.295116 7.415L2.69512 9.81C2.7888 9.90312 2.91552 9.95539 3.04762 9.95539C3.17971 9.95539 3.30643 9.90312 3.40012 9.81L4.15512 9.055C4.16721 9.04334 4.17684 9.02936 4.18341 9.01389C4.18998 8.99843 4.19337 8.9818 4.19337 8.965C4.19337 8.94819 4.18998 8.93157 4.18341 8.9161C4.17684 8.90064 4.16721 8.88666 4.15512 8.875L2.76512 7.53Z" fill="currentColor"/><path d="M4.85 5.44999L5.605 6.20499C5.61622 6.21695 5.62978 6.22648 5.64483 6.233C5.65988 6.23951 5.6761 6.24287 5.6925 6.24287C5.7089 6.24287 5.72512 6.23951 5.74017 6.233C5.75522 6.22648 5.76878 6.21695 5.78 6.20499L8.965 3.02499C8.98714 3.00024 8.99938 2.9682 8.99938 2.93499C8.99938 2.90179 8.98714 2.86974 8.965 2.84499L8.285 2.16999C8.19132 2.07687 8.06459 2.0246 7.9325 2.0246C7.80041 2.0246 7.67368 2.07687 7.58 2.16999L4.5 5.25499C4.63247 5.28633 4.75364 5.35384 4.85 5.44999Z" fill="currentColor"/><path d="M10.7801 2.265C10.7336 2.21835 10.6709 2.19147 10.6051 2.19C10.5377 2.19122 10.4734 2.21803 10.4251 2.265L5.8701 6.825C5.82313 6.87027 5.76033 6.89539 5.6951 6.895C5.62833 6.89565 5.56388 6.87058 5.5151 6.825L4.5001 5.8C4.45313 5.75473 4.39033 5.72961 4.3251 5.73C4.25833 5.72936 4.19388 5.75442 4.1451 5.8L3.1451 6.825C3.12118 6.84745 3.10212 6.87456 3.08909 6.90465C3.07606 6.93475 3.06934 6.9672 3.06934 7C3.06934 7.0328 3.07606 7.06525 3.08909 7.09535C3.10212 7.12545 3.12118 7.15256 3.1451 7.175L5.5001 9.575C5.54767 9.62113 5.61133 9.64692 5.6776 9.64692C5.74386 9.64692 5.80752 9.62113 5.8551 9.575L11.8001 3.64C11.8235 3.61676 11.8421 3.58911 11.8548 3.55865C11.8675 3.52818 11.874 3.49551 11.874 3.4625C11.874 3.4295 11.8675 3.39682 11.8548 3.36636C11.8421 3.33589 11.8235 3.30824 11.8001 3.285L10.7801 2.265Z" fill="currentColor"/></svg>