<svg viewBox="0 0 20 20" fill="none" xmlns="http://www.w3.org/2000/svg"><path fill-rule="evenodd" clip-rule="evenodd" d="M0 1.55556C0 0.696445 0.795939 0 1.77778 0H14.2222C15.2041 0 16 0.696447 16 1.55556V2.72222C16 3.15177 15.602 3.5 15.1111 3.5C14.6202 3.5 14.2222 3.15177 14.2222 2.72222V1.55556H1.77778V14.4444H3.11111C3.60203 14.4444 4 14.7927 4 15.2222C4 15.6518 3.60203 16 3.11111 16H1.77778C0.795938 16 0 15.3036 0 14.4444V1.55556Z" fill="currentColor"/><path fill-rule="evenodd" clip-rule="evenodd" d="M7.55556 4C6.69645 4 6 4.79594 6 5.77778V18.2222C6 19.2041 6.69645 20 7.55556 20H18.4444C19.3036 20 20 19.2041 20 18.2222V5.77778C20 4.79594 19.3036 4 18.4444 4H7.55556Z" fill="currentColor"/></svg>