<svg viewBox="0 0 24 24" fill="none" xmlns="http://www.w3.org/2000/svg"><g clip-path="url(#clip0_2075_438)"><path d="M16.19 3.50999C16.0949 3.41774 15.9675 3.36615 15.835 3.36615C15.7025 3.36615 15.5752 3.41774 15.48 3.50999L4.07002 14.92C4.02315 14.9665 3.98596 15.0218 3.96057 15.0827C3.93519 15.1436 3.92212 15.209 3.92212 15.275C3.92212 15.341 3.93519 15.4063 3.96057 15.4673C3.98596 15.5282 4.02315 15.5835 4.07002 15.63L8.35002 19.91C8.39491 19.9578 8.44913 19.9959 8.50932 20.022C8.56952 20.0481 8.63442 20.0615 8.70002 20.0615C8.76561 20.0615 8.83051 20.0481 8.89071 20.022C8.95091 19.9959 9.00513 19.9578 9.05002 19.91L20.47 8.49999C20.5623 8.40484 20.6139 8.27752 20.6139 8.14499C20.6139 8.01246 20.5623 7.88514 20.47 7.78999L16.19 3.50999Z" fill="currentColor"/><path d="M3.00006 16.71C2.9388 16.6508 2.8637 16.6079 2.7816 16.5852C2.6995 16.5625 2.61302 16.5607 2.53006 16.58C2.44601 16.5977 2.36827 16.6377 2.30495 16.6958C2.24163 16.7538 2.19504 16.8278 2.17006 16.91L5.70193e-05 23.33C-0.0302566 23.4176 -0.0350721 23.5121 -0.0138298 23.6024C0.00741244 23.6926 0.0538401 23.775 0.120057 23.84C0.183575 23.9178 0.269065 23.9747 0.365386 24.0032C0.461707 24.0318 0.564392 24.0306 0.660057 24L7.08006 21.86C7.16033 21.8316 7.23241 21.7839 7.28995 21.7211C7.34749 21.6584 7.38873 21.5824 7.41006 21.5C7.4359 21.4119 7.43648 21.3183 7.41173 21.2299C7.38698 21.1415 7.33789 21.0618 7.27006 21L3.00006 16.71Z" fill="currentColor"/><path d="M23.0001 0.99999C22.329 0.352312 21.4328 -0.00964355 20.5001 -0.00964355C19.5675 -0.00964355 18.6712 0.352312 18.0001 0.99999L17.2901 1.70999C17.2432 1.75647 17.206 1.81177 17.1807 1.8727C17.1553 1.93363 17.1422 1.99898 17.1422 2.06499C17.1422 2.131 17.1553 2.19635 17.1807 2.25728C17.206 2.31821 17.2432 2.37351 17.2901 2.41999L21.5701 6.69999C21.6648 6.7893 21.79 6.83904 21.9201 6.83904C22.0502 6.83904 22.1755 6.7893 22.2701 6.69999L23.0001 5.99999C23.3291 5.67206 23.5901 5.28242 23.7682 4.85342C23.9463 4.42442 24.0379 3.96449 24.0379 3.49999C24.0379 3.03549 23.9463 2.57556 23.7682 2.14656C23.5901 1.71756 23.3291 1.32792 23.0001 0.99999V0.99999Z" fill="currentColor"/></g><defs><clipPath id="clip0_2075_438"><rect width="24" height="24" fill="currentColor"/></clipPath></defs></svg>