<svg viewBox="0 0 8 8" fill="none" xmlns="http://www.w3.org/2000/svg"><path fill-rule="evenodd" clip-rule="evenodd" d="M7.12629 1.79292C7.38014 1.53908 7.38014 1.12753 7.12629 0.873684C6.87245 0.619844 6.4609 0.619844 6.20706 0.873684L4.00001 3.08073L1.79296 0.873684C1.53912 0.619844 1.12756 0.619844 0.873723 0.873684C0.619882 1.12753 0.619882 1.53908 0.873723 1.79292L3.08077 3.99997L0.873723 6.20702C0.619882 6.46086 0.619882 6.87242 0.873723 7.12626C1.12756 7.3801 1.53912 7.3801 1.79296 7.12626L4.00001 4.91921L6.20706 7.12626C6.4609 7.3801 6.87245 7.3801 7.12629 7.12626C7.38014 6.87242 7.38014 6.46086 7.12629 6.20702L4.91925 3.99997L7.12629 1.79292Z" fill="currentColor"/></svg>