<svg viewBox="0 0 25 24" fill="none" xmlns="http://www.w3.org/2000/svg"><path d="M15 18H23" stroke="currentColor" stroke-linecap="round" stroke-linejoin="round"/><path d="M1 18H3" stroke="currentColor" stroke-linecap="round" stroke-linejoin="round"/><path fill-rule="evenodd" clip-rule="evenodd" d="M13 17.5C13 19.7089 11.2095 21.4997 9.00059 21.5C6.79168 21.5003 5.00065 19.7101 5 17.5012C4.99935 15.2923 6.78932 13.501 8.99822 13.5C10.0594 13.4995 11.0773 13.9207 11.8278 14.6709C12.5783 15.4211 13 16.4388 13 17.5V17.5Z" fill="currentColor"/><path d="M13 6H1" stroke="currentColor" stroke-linecap="round" stroke-linejoin="round"/><path fill-rule="evenodd" clip-rule="evenodd" d="M23 5.5C23 3.29109 21.2095 1.50033 19.0006 1.5C16.7917 1.49967 15.0007 3.28991 15 5.49882C14.9993 7.70772 16.7893 9.49902 18.9982 9.5C21.2076 9.5 22.999 7.70943 23 5.5Z" fill="currentColor"/></svg>