<svg viewBox="0 0 20 22" fill="none" xmlns="http://www.w3.org/2000/svg"><path d="M17.4419 0.00012207H10.4651C10.0599 0.0143178 9.66518 0.13635 9.31952 0.354298C8.97387 0.572246 8.6891 0.878658 8.49304 1.2436L6.53025 5.28012C6.45087 5.40594 6.34556 5.51228 6.22178 5.59162C6.09801 5.67096 5.95879 5.72136 5.81397 5.73925H1.16282C0.85603 5.73924 0.561671 5.8639 0.343871 6.08606C0.126071 6.30823 0.00248087 6.60989 2.65806e-05 6.92534V20.3166C-0.0011995 20.5373 0.0400025 20.756 0.121263 20.9602C0.202524 21.1644 0.32224 21.35 0.473527 21.5065C0.624815 21.6629 0.804688 21.7871 1.0028 21.8718C1.20092 21.9565 1.41337 22.0001 1.62793 22.0001H18.3721C18.8047 21.9976 19.2187 21.8191 19.5238 21.5037C19.8288 21.1882 20 20.7615 20 20.3166V2.62099C19.9975 1.92502 19.7269 1.25841 19.2475 0.767174C18.768 0.275938 18.1187 0.000117469 17.4419 0.00012207ZM11.5256 14.3479L14.8372 17.734C15.0105 17.9133 15.1077 18.1557 15.1077 18.4084C15.1077 18.6611 15.0105 18.9035 14.8372 19.0827C14.6629 19.2609 14.4272 19.3609 14.1814 19.3609C13.9356 19.3609 13.6999 19.2609 13.5256 19.0827L10.1861 15.6775C10.1664 15.654 10.1422 15.6351 10.1149 15.6219C10.0877 15.6087 10.058 15.6016 10.0279 15.601C9.99643 15.6014 9.96534 15.6084 9.93656 15.6216C9.90778 15.6347 9.88189 15.6538 9.86048 15.6775L6.55816 19.0827C6.38489 19.2594 6.15103 19.3591 5.907 19.3601C5.78457 19.3609 5.66321 19.3367 5.54987 19.2891C5.43654 19.2415 5.33345 19.1714 5.24653 19.0827C5.07327 18.9035 4.97603 18.6611 4.97603 18.4084C4.97603 18.1557 5.07327 17.9133 5.24653 17.734L8.56746 14.3193C8.60798 14.2735 8.63044 14.2138 8.63044 14.1519C8.63044 14.0899 8.60798 14.0303 8.56746 13.9845L5.24653 10.5697C5.14915 10.4839 5.07006 10.3784 5.01423 10.2597C4.95839 10.1411 4.92702 10.0118 4.92207 9.88009C4.91712 9.74835 4.93871 9.61699 4.98547 9.49425C5.03224 9.3715 5.10318 9.26002 5.19383 9.1668C5.28449 9.07359 5.3929 9.00064 5.51228 8.95256C5.63165 8.90447 5.7594 8.88227 5.88751 8.88736C6.01562 8.89245 6.14133 8.92471 6.25673 8.98212C6.37214 9.03954 6.47477 9.12086 6.55816 9.22099L9.87908 12.6262C9.9005 12.65 9.92638 12.669 9.95517 12.6821C9.98395 12.6953 10.015 12.7023 10.0465 12.7027C10.0766 12.7021 10.1063 12.695 10.1335 12.6818C10.1608 12.6686 10.185 12.6497 10.2047 12.6262L13.5256 9.22099C13.609 9.12086 13.7116 9.03954 13.827 8.98212C13.9424 8.92471 14.0681 8.89245 14.1962 8.88736C14.3243 8.88227 14.4521 8.90447 14.5715 8.95256C14.6908 9.00064 14.7993 9.07359 14.8899 9.1668C14.9806 9.26002 15.0515 9.3715 15.0983 9.49425C15.145 9.61699 15.1666 9.74835 15.1617 9.88009C15.1567 10.0118 15.1254 10.1411 15.0695 10.2597C15.0137 10.3784 14.9346 10.4839 14.8372 10.5697L11.5256 13.9845C11.5033 14.0059 11.4856 14.0319 11.4735 14.0607C11.4614 14.0894 11.4551 14.1205 11.4551 14.1519C11.4551 14.1832 11.4614 14.2143 11.4735 14.2431C11.4856 14.2719 11.5033 14.2978 11.5256 14.3193V14.3479ZM17.4419 5.49056C17.4419 5.74424 17.3439 5.98754 17.1694 6.16692C16.995 6.3463 16.7583 6.44708 16.5116 6.44708H10.4651L10.1861 6.16969C10.0064 5.96581 9.88794 5.71282 9.84502 5.44125C9.8021 5.16968 9.83655 4.89114 9.9442 4.63925L10.5116 3.48186C10.6483 3.23368 10.8435 3.02479 11.0792 2.87437C11.3149 2.72395 11.5835 2.63683 11.8605 2.62099H16.5116C16.7583 2.62099 16.995 2.72177 17.1694 2.90115C17.3439 3.08053 17.4419 3.32383 17.4419 3.57751V5.49056Z" fill="currentColor"/></svg>