<svg viewBox="0 0 24 24" fill="none" xmlns="http://www.w3.org/2000/svg"><g clip-path="url(#clip0_2075_436)"><path d="M23.68 8.64C23.4926 8.45374 23.2392 8.3492 22.975 8.3492C22.7108 8.3492 22.4574 8.45374 22.27 8.64C20.43 10.64 19.5 12.01 19.5 12.83V20.33C19.5 20.5952 19.3946 20.8496 19.2071 21.0371C19.0196 21.2246 18.7652 21.33 18.5 21.33C18.2348 21.33 17.9804 21.2246 17.7929 21.0371C17.6054 20.8496 17.5 20.5952 17.5 20.33V6.88C17.5 6.21695 17.2366 5.58107 16.7678 5.11223C16.2989 4.64339 15.663 4.38 15 4.38H14.75C14.6828 4.37741 14.6192 4.34888 14.5726 4.3004C14.526 4.25191 14.5 4.18725 14.5 4.12V2.38C14.5013 2.14934 14.457 1.9207 14.3697 1.70723C14.2823 1.49375 14.1536 1.29965 13.991 1.13609C13.8284 0.972526 13.635 0.842726 13.422 0.754156C13.209 0.665586 12.9807 0.619991 12.75 0.619995H1.75C1.28495 0.622637 0.839856 0.809231 0.511952 1.13901C0.184047 1.46879 -7.50651e-06 1.91494 2.29615e-10 2.38L2.29614e-10 21.38C0.00264229 21.8424 0.188183 22.2849 0.516085 22.611C0.843988 22.937 1.2876 23.12 1.75 23.12H12.75C12.9793 23.1213 13.2067 23.0773 13.4189 22.9904C13.6312 22.9036 13.8242 22.7756 13.9868 22.6139C14.1495 22.4522 14.2785 22.2599 14.3666 22.0482C14.4547 21.8364 14.5 21.6093 14.5 21.38V6.62C14.5026 6.55544 14.5301 6.49439 14.5767 6.44965C14.6233 6.40491 14.6854 6.37994 14.75 6.38H15C15.1326 6.38 15.2598 6.43267 15.3536 6.52644C15.4473 6.62021 15.5 6.74739 15.5 6.88V20.38C15.5 21.1756 15.8161 21.9387 16.3787 22.5013C16.9413 23.0639 17.7044 23.38 18.5 23.38C19.2956 23.38 20.0587 23.0639 20.6213 22.5013C21.1839 21.9387 21.5 21.1756 21.5 20.38V18.15C21.499 18.1023 21.5116 18.0553 21.5364 18.0145C21.5612 17.9738 21.5971 17.941 21.64 17.92L22.64 17.41C22.8891 17.2857 23.0986 17.0945 23.2452 16.8578C23.3918 16.6211 23.4696 16.3484 23.47 16.07V14.88C23.47 14.4822 23.312 14.1006 23.0307 13.8193C22.7494 13.538 22.3678 13.38 21.97 13.38H21.71C21.6437 13.38 21.5801 13.3537 21.5332 13.3068C21.4863 13.2599 21.46 13.1963 21.46 13.13V13C22.0703 11.9323 22.824 10.9532 23.7 10.09C23.7971 9.99523 23.8738 9.8817 23.9256 9.75632C23.9774 9.63095 24.0032 9.49634 24.0013 9.3607C23.9994 9.22506 23.97 9.09122 23.9147 8.96732C23.8595 8.84342 23.7796 8.73205 23.68 8.64ZM10.75 15.64C10.75 15.7726 10.6973 15.8998 10.6036 15.9935C10.5098 16.0873 10.3826 16.14 10.25 16.14H9.25C9.11739 16.14 8.99021 16.0873 8.89645 15.9935C8.80268 15.8998 8.75 15.7726 8.75 15.64V12.64C8.75 12.5074 8.80268 12.3802 8.89645 12.2864C8.99021 12.1927 9.11739 12.14 9.25 12.14H10.25C10.3818 12.1426 10.5075 12.1961 10.6007 12.2893C10.6939 12.3825 10.7474 12.5082 10.75 12.64V15.64ZM11.75 6.89C11.75 7.0226 11.6973 7.14978 11.6036 7.24355C11.5098 7.33732 11.3826 7.39 11.25 7.39H3.25C3.11739 7.39 2.99021 7.33732 2.89645 7.24355C2.80268 7.14978 2.75 7.0226 2.75 6.89V3.89C2.75 3.75739 2.80268 3.63021 2.89645 3.53644C2.99021 3.44267 3.11739 3.39 3.25 3.39H11.25C11.3818 3.39256 11.5075 3.44606 11.6007 3.53927C11.6939 3.63249 11.7474 3.75819 11.75 3.89V6.89Z" fill="currentColor"/></g><defs><clipPath id="clip0_2075_436"><rect width="24" height="24" fill="currentColor"/></clipPath></defs></svg>