<svg viewBox="0 0 24 24" fill="none" xmlns="http://www.w3.org/2000/svg"><path d="M15.57 5.5C15.6115 5.50141 15.6527 5.49202 15.6895 5.47274C15.7263 5.45345 15.7575 5.42494 15.78 5.39C15.7992 5.35472 15.8093 5.31518 15.8093 5.275C15.8093 5.23481 15.7992 5.19527 15.78 5.16C15.0865 3.2412 13.8103 1.58734 12.13 0.429996C12.0912 0.405021 12.0461 0.391739 12 0.391739C11.9539 0.391739 11.9087 0.405021 11.87 0.429996C10.1786 1.58272 8.89146 3.23708 8.18999 5.16C8.17073 5.19527 8.16064 5.23481 8.16064 5.275C8.16064 5.31518 8.17073 5.35472 8.18999 5.39C8.21248 5.42494 8.24365 5.45345 8.28046 5.47274C8.31727 5.49202 8.35846 5.50141 8.39999 5.5H15.57Z" fill="currentColor"/><path d="M18.4599 11C18.4648 11.0637 18.493 11.1235 18.5391 11.1677C18.5852 11.212 18.646 11.2377 18.7099 11.24H23.7099C23.7814 11.2395 23.8497 11.2107 23.8999 11.16C23.9219 11.1338 23.9386 11.1036 23.9489 11.071C23.9592 11.0384 23.9629 11.0041 23.9599 10.97C23.8456 9.64597 23.5075 8.35093 22.9599 7.14C22.9389 7.09715 22.9061 7.0612 22.8654 7.03639C22.8246 7.01158 22.7776 6.99895 22.7299 7H18.2699C18.2336 7.0003 18.1978 7.00851 18.165 7.02406C18.1322 7.0396 18.1032 7.0621 18.0799 7.09C18.0633 7.12249 18.0546 7.15848 18.0546 7.195C18.0546 7.23152 18.0633 7.26751 18.0799 7.3C18.3102 8.52049 18.4373 9.75819 18.4599 11Z" fill="currentColor"/><path d="M16.72 11.25C16.7879 11.247 16.8522 11.2184 16.9 11.17C16.9282 11.1509 16.9519 11.1257 16.9692 11.0963C16.9865 11.0669 16.997 11.034 17 11C16.9545 9.72033 16.787 8.4479 16.5 7.2C16.4856 7.13635 16.4478 7.08045 16.394 7.0434C16.3403 7.00635 16.2746 6.99086 16.21 7H7.79001C7.73332 7.00009 7.67822 7.0187 7.63309 7.053C7.58795 7.0873 7.55527 7.13541 7.54001 7.19C7.23888 8.43987 7.05805 9.71568 7.00001 11C6.99663 11.0325 7.00024 11.0654 7.01058 11.0965C7.02093 11.1275 7.03778 11.156 7.06001 11.18C7.10779 11.2284 7.17207 11.257 7.24001 11.26L16.72 11.25Z" fill="currentColor"/><path d="M8.4299 18.5C8.38837 18.4986 8.34718 18.508 8.31037 18.5273C8.27356 18.5465 8.24238 18.5751 8.2199 18.61C8.20064 18.6453 8.19055 18.6848 8.19055 18.725C8.19055 18.7652 8.20064 18.8047 8.2199 18.84C8.92137 20.7629 10.2085 22.4173 11.8999 23.57C11.9387 23.595 11.9838 23.6083 12.0299 23.6083C12.076 23.6083 12.1211 23.595 12.1599 23.57C13.8513 22.4173 15.1384 20.7629 15.8399 18.84C15.8592 18.8047 15.8692 18.7652 15.8692 18.725C15.8692 18.6848 15.8592 18.6453 15.8399 18.61C15.819 18.5758 15.7896 18.5477 15.7545 18.5284C15.7194 18.5091 15.6799 18.4993 15.6399 18.5H8.4299Z" fill="currentColor"/><path d="M7.29 12.75C7.21858 12.7505 7.15026 12.7792 7.1 12.83C7.07177 12.8491 7.04815 12.8743 7.03085 12.9037C7.01356 12.9331 7.00302 12.966 7 13C7.04555 14.2797 7.21297 15.5521 7.5 16.8C7.51526 16.8546 7.54795 16.9027 7.59308 16.937C7.63821 16.9713 7.69331 16.9899 7.75 16.99H16.17C16.2267 16.9899 16.2818 16.9713 16.3269 16.937C16.3721 16.9027 16.4047 16.8546 16.42 16.8C16.734 15.5547 16.9282 14.2822 17 13C17.0034 12.9674 16.9998 12.9346 16.9894 12.9035C16.9791 12.8725 16.9622 12.844 16.94 12.82C16.8922 12.7716 16.8279 12.743 16.76 12.74L7.29 12.75Z" fill="currentColor"/><path d="M0.0599512 11C0.0569686 11.034 0.0607329 11.0684 0.0710285 11.101C0.0813241 11.1336 0.0979489 11.1638 0.119951 11.19C0.17021 11.2407 0.23853 11.2695 0.309951 11.27H5.30995C5.37535 11.2625 5.43545 11.2304 5.47814 11.1803C5.52083 11.1302 5.54292 11.0658 5.53995 11C5.58898 9.75592 5.74286 8.5182 5.99995 7.29999C6.01662 7.2675 6.02532 7.23151 6.02532 7.19499C6.02532 7.15847 6.01662 7.12248 5.99995 7.08999C5.96944 7.04931 5.92725 7.0189 5.87901 7.00282C5.83077 6.98674 5.77877 6.98575 5.72995 6.99999H1.26995C1.21465 6.99114 1.15797 7.00111 1.10902 7.02831C1.06006 7.05551 1.02165 7.09836 0.999951 7.14999C0.470893 8.37084 0.153039 9.67269 0.0599512 11V11Z" fill="currentColor"/><path d="M5.53999 13C5.53511 12.9363 5.50692 12.8765 5.46081 12.8323C5.41469 12.788 5.35388 12.7623 5.28999 12.76H0.28999C0.218568 12.7605 0.150249 12.7892 0.0999899 12.84C0.0696464 12.8876 0.0556064 12.9437 0.0599899 13C0.174333 14.324 0.512463 15.6191 1.05999 16.83C1.07951 16.8747 1.11168 16.9127 1.15255 16.9394C1.19342 16.9661 1.2412 16.9802 1.28999 16.98H5.72999C5.7663 16.9797 5.8021 16.9715 5.83491 16.9559C5.86772 16.9404 5.89676 16.9179 5.91999 16.89C5.93666 16.8575 5.94536 16.8215 5.94536 16.785C5.94536 16.7485 5.93666 16.7125 5.91999 16.68C5.69088 15.4661 5.56377 14.2351 5.53999 13V13Z" fill="currentColor"/><path d="M6.51998 18.67C6.50308 18.6199 6.47074 18.5765 6.42762 18.546C6.38451 18.5154 6.33282 18.4993 6.27998 18.5H2.39998C2.35479 18.4987 2.31016 18.5103 2.27124 18.5333C2.23232 18.5563 2.20068 18.5898 2.17998 18.63C2.15501 18.6688 2.14172 18.7139 2.14172 18.76C2.14172 18.8061 2.15501 18.8512 2.17998 18.89C3.79136 21.1803 6.14956 22.8385 8.84998 23.58C8.9023 23.5929 8.95734 23.5893 9.00751 23.5696C9.05767 23.5499 9.10047 23.5151 9.12998 23.47C9.16406 23.4274 9.18263 23.3745 9.18263 23.32C9.18263 23.2655 9.16406 23.2126 9.12998 23.17C7.96568 21.8612 7.07791 20.3305 6.51998 18.67V18.67Z" fill="currentColor"/><path d="M17.7199 18.5C17.6671 18.4993 17.6154 18.5154 17.5723 18.546C17.5292 18.5765 17.4968 18.6199 17.4799 18.67C16.928 20.3289 16.0471 21.8594 14.8899 23.17C14.8558 23.2126 14.8373 23.2655 14.8373 23.32C14.8373 23.3745 14.8558 23.4274 14.8899 23.47C14.9194 23.5151 14.9622 23.5499 15.0124 23.5696C15.0626 23.5893 15.1176 23.5929 15.1699 23.58C17.8703 22.8385 20.2285 21.1803 21.8399 18.89C21.864 18.8528 21.8769 18.8094 21.8769 18.765C21.8769 18.7206 21.864 18.6772 21.8399 18.64C21.8217 18.5971 21.791 18.5608 21.7517 18.5358C21.7124 18.5108 21.6665 18.4983 21.6199 18.5H17.7199Z" fill="currentColor"/><path d="M6.28001 5.5C6.33285 5.50066 6.38453 5.48457 6.42765 5.45403C6.47077 5.42348 6.5031 5.38006 6.52001 5.33C7.07197 3.6711 7.95287 2.14058 9.11001 0.830001C9.14409 0.787434 9.16266 0.73453 9.16266 0.680001C9.16266 0.625472 9.14409 0.572568 9.11001 0.530001C9.08264 0.49028 9.04477 0.458955 9.00062 0.439529C8.95647 0.420103 8.90778 0.413342 8.86001 0.420001C6.15959 1.16152 3.80139 2.81968 2.19001 5.11C2.1659 5.14723 2.15308 5.19064 2.15308 5.235C2.15308 5.27936 2.1659 5.32277 2.19001 5.36C2.2082 5.40286 2.23897 5.43919 2.27825 5.46419C2.31753 5.48919 2.36348 5.50168 2.41001 5.5H6.28001Z" fill="currentColor"/><path d="M23.94 13C23.943 12.9659 23.9392 12.9316 23.9289 12.899C23.9186 12.8664 23.902 12.8362 23.88 12.81C23.8297 12.7592 23.7614 12.7305 23.69 12.73H18.69C18.6261 12.7323 18.5653 12.758 18.5192 12.8023C18.473 12.8465 18.4449 12.9063 18.44 12.97C18.3992 14.2235 18.252 15.4714 18 16.7C17.9833 16.7325 17.9746 16.7685 17.9746 16.805C17.9746 16.8415 17.9833 16.8775 18 16.91C18.0232 16.9379 18.0522 16.9604 18.0851 16.9759C18.1179 16.9915 18.1537 16.9997 18.19 17H22.65C22.6988 17.0002 22.7465 16.9861 22.7874 16.9594C22.8283 16.9327 22.8605 16.8947 22.88 16.85C23.4504 15.6365 23.8089 14.3344 23.94 13V13Z" fill="currentColor"/><path d="M17.4799 5.33C17.4968 5.38006 17.5291 5.42348 17.5723 5.45402C17.6154 5.48457 17.6671 5.50066 17.7199 5.5H21.5999C21.6451 5.50125 21.6897 5.48971 21.7286 5.46671C21.7676 5.44371 21.7992 5.41019 21.8199 5.37C21.8449 5.33124 21.8582 5.28611 21.8582 5.24C21.8582 5.19389 21.8449 5.14876 21.8199 5.11C20.206 2.81779 17.844 1.15943 15.1399 0.419997C15.0876 0.407051 15.0325 0.410682 14.9824 0.430389C14.9322 0.450095 14.8894 0.484903 14.8599 0.529997C14.8258 0.572564 14.8073 0.625467 14.8073 0.679997C14.8073 0.734526 14.8258 0.78743 14.8599 0.829997C16.0278 2.13795 16.919 3.66865 17.4799 5.33V5.33Z" fill="currentColor"/></svg>