<svg viewBox="0 0 24 24" fill="none" xmlns="http://www.w3.org/2000/svg"><path d="M23.234 5.76226H21.1302C20.8115 5.7633 20.4973 5.84292 20.2111 5.99512C20.179 6.01107 20.1442 6.01932 20.1089 6.01932C20.0737 6.01932 20.0389 6.01107 20.0068 5.99512L15.6153 4.22095C14.7696 3.88873 13.8373 3.93257 13.0213 4.34292V4.34292L10.8562 5.45178C10.8177 5.47077 10.7759 5.4806 10.7336 5.4806C10.6913 5.4806 10.6496 5.47077 10.6111 5.45178C10.2056 5.19691 9.75175 5.04639 9.28434 5.01179C8.81693 4.97719 8.34844 5.05943 7.91489 5.25219V5.25219L4.85106 6.67152C4.80033 6.69316 4.74469 6.69731 4.69171 6.68342C4.63872 6.66954 4.59095 6.63828 4.55489 6.5939C4.35141 6.333 4.09796 6.12342 3.81221 5.97978C3.52647 5.83615 3.21531 5.76192 2.90043 5.76226H0.765957C0.563635 5.76513 0.370344 5.85367 0.227269 6.00902C0.0841931 6.16436 0.00264507 6.37423 0 6.5939V17.1281C0 17.3486 0.0806989 17.5602 0.224344 17.7161C0.367989 17.8721 0.562813 17.9597 0.765957 17.9597H2.86979C3.21576 17.9621 3.55714 17.8737 3.8648 17.7018C4.17245 17.53 4.43725 17.2798 4.6366 16.9728C4.66088 16.9355 4.69299 16.9049 4.73028 16.8837C4.76757 16.8625 4.80897 16.8513 4.85106 16.8508H5.80085C5.85784 16.8511 5.9126 16.8749 5.95404 16.9174L8.81362 19.3458C8.99531 19.553 9.21397 19.7179 9.45628 19.8304C9.69859 19.9429 9.95946 20.0006 10.223 20C10.6837 19.9971 11.13 19.8252 11.4894 19.5121L14.6043 16.7289C14.6362 16.6994 14.6751 16.6802 14.7166 16.6734L18.6996 15.8085C18.7299 15.7928 18.763 15.7846 18.7966 15.7846C18.8302 15.7846 18.8633 15.7928 18.8936 15.8085C18.9477 15.8509 18.9844 15.9146 18.9957 15.9859C19.0867 16.5282 19.3503 17.0185 19.7405 17.3712C20.1307 17.7239 20.6225 17.9165 21.1302 17.9153H23.234C23.4372 17.9153 23.632 17.8277 23.7757 17.6718C23.9193 17.5158 24 17.3043 24 17.0837V6.5939C23.9974 6.37423 23.9158 6.16436 23.7727 6.00902C23.6297 5.85367 23.4364 5.76513 23.234 5.76226V5.76226ZM14.8391 13.6573L10.4272 17.6603C10.3862 17.6945 10.336 17.713 10.2843 17.713C10.2326 17.713 10.1823 17.6945 10.1413 17.6603L6.89362 14.8771C6.71393 14.7205 6.49079 14.6346 6.26043 14.6331H5.30043C5.23271 14.6331 5.16777 14.6039 5.11989 14.5519C5.07201 14.4999 5.04511 14.4294 5.04511 14.3559V9.15537C5.04493 9.10126 5.05935 9.04829 5.08657 9.00297C5.11379 8.95765 5.15263 8.92197 5.1983 8.90033L8.65021 7.30357C8.68747 7.28022 8.72974 7.26792 8.77277 7.26792C8.81579 7.26792 8.85806 7.28022 8.89532 7.30357C8.93218 7.3412 8.95626 7.39122 8.96368 7.44556C8.97109 7.49989 8.9614 7.55535 8.93617 7.60296C8.79741 8.20614 8.83307 8.84108 9.0383 9.42149C9.30863 10.1463 9.83117 10.7261 10.4926 11.0354C11.1541 11.3447 11.9012 11.3585 12.5719 11.0737V11.0737L12.7353 10.9961C12.7837 10.9755 12.8367 10.9709 12.8875 10.9827C12.9383 10.9946 12.9848 11.0223 13.0213 11.0626L14.8494 13.2803C14.8721 13.3069 14.8893 13.3385 14.8998 13.3729C14.9104 13.4074 14.9141 13.4438 14.9106 13.4799C14.9092 13.547 14.8835 13.6107 14.8391 13.6573V13.6573ZM18.9243 13.2581C18.9255 13.323 18.9057 13.3863 18.8684 13.4369C18.831 13.4876 18.7785 13.5224 18.72 13.5354L17.3821 13.8237C17.3449 13.8342 17.3059 13.8346 17.2685 13.825C17.2311 13.8153 17.1965 13.7958 17.1677 13.7682C17.1389 13.7403 17.1159 13.7061 17.1 13.6679C17.0842 13.6297 17.0759 13.5883 17.0757 13.5464C17.0757 12.3821 16.7183 12.2047 13.92 8.85597C13.774 8.69543 13.5885 8.58393 13.3856 8.53477C13.1828 8.48561 12.9712 8.50089 12.7762 8.57876V8.57876L11.7549 9.01121C11.5911 9.08276 11.4081 9.08276 11.2443 9.01121C11.1241 8.92562 11.0313 8.80164 10.9787 8.65638C10.9175 8.48926 10.916 8.30332 10.9746 8.13508C11.0332 7.96684 11.1476 7.82846 11.2953 7.74712V7.74712L13.8894 6.32778C14.2085 6.16075 14.5754 6.13685 14.9106 6.26125V6.26125L18.8323 7.89127C18.871 7.90853 18.9041 7.93767 18.9277 7.9751C18.9513 8.01252 18.9643 8.05661 18.9651 8.10195L18.9243 13.2581Z" fill="currentColor"/></svg>