<svg viewBox="0 0 16 16" fill="none" xmlns="http://www.w3.org/2000/svg"><path d="M2 4.39633H6.66667" stroke="currentColor" stroke-linejoin="round"/><path d="M12.9696 9.99999C14.4242 11.3333 12.606 12 12.606 12L9.33325 9.33333" stroke="currentColor" stroke-linecap="round" stroke-linejoin="round"/><path d="M12 11.6934C12 11.9997 12 13.5314 10.1818 12.3061C8.08749 10.8946 8 10.7743 8 10.7743" stroke="currentColor" stroke-linecap="round" stroke-linejoin="round"/><path d="M6.90918 11.8374L9.30918 13.6536C9.70918 13.8958 10.5892 14.0896 10.9092 12.9271" stroke="currentColor" stroke-linecap="round" stroke-linejoin="round"/><path d="M1.81812 9.33333L6.44969 13.2508C6.96431 13.7256 8.22513 14.4616 9.15145 13.6069" stroke="currentColor" stroke-linejoin="round"/><path d="M12.1334 3.9137C13.0061 4.19717 13.9516 4.26804 14.3152 4.26804L14.3152 9.22862L13.2244 10.2916L8.13343 6.03962L7.40615 6.74829C7.40615 6.74829 5.75767 8.08898 4.66675 6.67165C5.03056 5.96298 4.8606 6.32317 6.31516 4.62237C8.13336 2.49637 11.0425 3.55937 12.1334 3.9137Z" stroke="currentColor" stroke-linejoin="round"/><mask id="path-7-inside-1_2046_336" fill="currentColor"><rect y="3.33333" width="2" height="7.08667" rx="0.5"/></mask><rect y="3.33333" width="2" height="7.08667" rx="0.5" stroke="currentColor" stroke-width="2" mask="url(#path-7-inside-1_2046_336)"/><mask id="path-8-inside-2_2046_336" fill="currentColor"><rect x="14" y="3.33333" width="2" height="7.33333" rx="0.5"/></mask><rect x="14" y="3.33333" width="2" height="7.33333" rx="0.5" stroke="currentColor" stroke-width="2" mask="url(#path-8-inside-2_2046_336)"/></svg>