<svg viewBox="0 0 24 24" fill="none" xmlns="http://www.w3.org/2000/svg"><path d="M6.69 13.69C6.4 13.51 6.1 13.32 5.8 13.1C5.72572 13.0443 5.63738 13.0104 5.5449 13.002C5.45242 12.9937 5.35945 13.0113 5.27639 13.0528C5.19334 13.0943 5.12349 13.1581 5.07467 13.2371C5.02586 13.3161 5 13.4071 5 13.5V23.5C5.00137 23.5979 5.03144 23.6932 5.08647 23.7741C5.1415 23.855 5.21907 23.9181 5.30958 23.9553C5.40008 23.9926 5.49952 24.0025 5.59559 23.9837C5.69166 23.965 5.78011 23.9185 5.85 23.85C6.28 23.42 6.67 23.09 7.01 22.8C7.84 22.1 8.5 21.55 8.5 20.5V16C8.5 14.83 7.58 14.25 6.69 13.69Z" fill="currentColor"/><path d="M22.18 13.09C22.1281 13.0749 22.0825 13.0433 22.05 13C22.0175 12.9567 22 12.9041 22 12.85V10C22 7.34784 20.9464 4.8043 19.0711 2.92893C17.1957 1.05357 14.6522 0 12 0C9.34784 0 6.8043 1.05357 4.92893 2.92893C3.05357 4.8043 2 7.34784 2 10V12.85C2 12.9041 1.98246 12.9567 1.95 13C1.91754 13.0433 1.87193 13.0749 1.82 13.09C1.29619 13.2398 0.83532 13.5559 0.506996 13.9907C0.178671 14.4254 0.000715652 14.9552 0 15.5L0 21.5C0 21.8283 0.0646644 22.1534 0.190301 22.4567C0.315938 22.76 0.500087 23.0356 0.732233 23.2678C0.96438 23.4999 1.23998 23.6841 1.54329 23.8097C1.84661 23.9353 2.1717 24 2.5 24H3.5C3.63261 24 3.75979 23.9473 3.85355 23.8536C3.94732 23.7598 4 23.6326 4 23.5V10C4 7.87827 4.84285 5.84344 6.34315 4.34315C7.84344 2.84285 9.87827 2 12 2C14.1217 2 16.1566 2.84285 17.6569 4.34315C19.1571 5.84344 20 7.87827 20 10V23.5C20 23.6326 20.0527 23.7598 20.1464 23.8536C20.2402 23.9473 20.3674 24 20.5 24H21.5C21.8283 24 22.1534 23.9353 22.4567 23.8097C22.76 23.6841 23.0356 23.4999 23.2678 23.2678C23.4999 23.0356 23.6841 22.76 23.8097 22.4567C23.9353 22.1534 24 21.8283 24 21.5V15.5C23.9993 14.9552 23.8213 14.4254 23.493 13.9907C23.1647 13.5559 22.7038 13.2398 22.18 13.09V13.09Z" fill="currentColor"/><path d="M18.2 13.1C17.9 13.32 17.6 13.51 17.31 13.69C16.42 14.25 15.5 14.83 15.5 16V20.5C15.5 21.55 16.16 22.1 16.99 22.8C17.33 23.09 17.72 23.42 18.15 23.85C18.2199 23.9185 18.3083 23.965 18.4044 23.9837C18.5005 24.0025 18.5999 23.9926 18.6904 23.9553C18.7809 23.9181 18.8585 23.855 18.9135 23.7741C18.9686 23.6932 18.9986 23.5979 19 23.5V13.5C19 13.4071 18.9741 13.3161 18.9253 13.2371C18.8765 13.1581 18.8067 13.0943 18.7236 13.0528C18.6406 13.0113 18.5476 12.9937 18.4551 13.002C18.3626 13.0104 18.2743 13.0443 18.2 13.1Z" fill="currentColor"/></svg>