<svg viewBox="0 0 24 24" fill="none" xmlns="http://www.w3.org/2000/svg"><g clip-path="url(#clip0_2261_889)"><path d="M12.5 16C12.4915 14.7222 12.8604 13.4703 13.5605 12.4012C14.2605 11.3322 15.2606 10.4936 16.4353 9.99065C17.61 9.48767 18.907 9.34266 20.1638 9.5738C21.4206 9.80495 22.5812 10.402 23.5 11.29C23.537 11.3245 23.5817 11.3498 23.6304 11.3637C23.6791 11.3776 23.7303 11.3797 23.78 11.37C24.08 11.3 24.1 10.85 23.87 10.64L13 0.409981C12.725 0.164004 12.369 0.0280151 12 0.0280151C11.6311 0.0280151 11.275 0.164004 11 0.409981V0.409981L0.160021 10.64C0.0886671 10.7087 0.0393515 10.7971 0.0183344 10.894C-0.00268266 10.9908 0.0055467 11.0917 0.0419778 11.1839C0.0784089 11.276 0.141399 11.3553 0.222951 11.4115C0.304504 11.4678 0.400941 11.4986 0.500021 11.5H2.50002C2.63263 11.5 2.75981 11.5527 2.85357 11.6464C2.94734 11.7402 3.00002 11.8674 3.00002 12V22C3.00002 22.2652 3.10538 22.5196 3.29291 22.7071C3.48045 22.8946 3.7348 23 4.00002 23H14.83C14.9229 23 15.0139 22.9741 15.0929 22.9253C15.1719 22.8765 15.2357 22.8066 15.2772 22.7236C15.3188 22.6405 15.3363 22.5476 15.328 22.4551C15.3197 22.3626 15.2857 22.2743 15.23 22.2C13.89 20.42 12.5 18.08 12.5 16Z" fill="currentColor"/><path d="M19 11C17.6739 11 16.4021 11.5268 15.4645 12.4645C14.5268 13.4021 14 14.6739 14 16C14 19.17 18.46 23.66 18.65 23.85C18.6949 23.8978 18.7491 23.936 18.8093 23.962C18.8695 23.9881 18.9344 24.0015 19 24.0015C19.0656 24.0015 19.1305 23.9881 19.1907 23.962C19.2509 23.936 19.3051 23.8978 19.35 23.85C19.54 23.66 24 19.17 24 16C24 15.3434 23.8707 14.6932 23.6194 14.0866C23.3681 13.48 22.9998 12.9288 22.5355 12.4645C22.0712 12.0002 21.52 11.6319 20.9134 11.3806C20.3068 11.1293 19.6566 11 19 11V11ZM19 17.75C18.6539 17.75 18.3155 17.6474 18.0278 17.4551C17.74 17.2628 17.5157 16.9895 17.3832 16.6697C17.2508 16.3499 17.2161 15.9981 17.2836 15.6586C17.3512 15.3191 17.5178 15.0073 17.7626 14.7626C18.0073 14.5178 18.3191 14.3511 18.6586 14.2836C18.9981 14.2161 19.3499 14.2508 19.6697 14.3832C19.9895 14.5157 20.2628 14.74 20.4551 15.0278C20.6474 15.3155 20.75 15.6539 20.75 16C20.7474 16.4633 20.5622 16.9069 20.2345 17.2345C19.9069 17.5622 19.4633 17.7474 19 17.75V17.75Z" fill="currentColor"/></g><defs><clipPath id="clip0_2261_889"><rect width="24" height="24" fill="currentColor"/></clipPath></defs></svg>