<svg viewBox="0 0 24 24" fill="none" xmlns="http://www.w3.org/2000/svg"><path d="M23 9.707C22.9997 9.567 22.9673 9.42893 22.9053 9.30339C22.8433 9.17785 22.7534 9.06817 22.6425 8.98276L12.5592 1.19032C12.3989 1.06691 12.2023 1 12 1C11.7977 1 11.6011 1.06691 11.4408 1.19032L1.3575 8.98276C1.24657 9.06817 1.15667 9.17785 1.0947 9.30339C1.03273 9.42893 1.00034 9.567 1 9.707V22.0832C1 22.3264 1.09658 22.5596 1.26849 22.7315C1.44039 22.9034 1.67355 23 1.91667 23H9.25C9.37156 23 9.48814 22.9517 9.57409 22.8657C9.66005 22.7798 9.70833 22.6632 9.70833 22.5416V18.4162C9.70833 17.8084 9.94978 17.2254 10.3795 16.7956C10.8093 16.3658 11.3922 16.1243 12 16.1243C12.6078 16.1243 13.1907 16.3658 13.6205 16.7956C14.0502 17.2254 14.2917 17.8084 14.2917 18.4162V22.5416C14.2917 22.6632 14.34 22.7798 14.4259 22.8657C14.5119 22.9517 14.6284 23 14.75 23H22.0833C22.3264 23 22.5596 22.9034 22.7315 22.7315C22.9034 22.5596 23 22.3264 23 22.0832V9.707Z" fill="currentColor"/></svg>