<svg viewBox="0 0 12 12" fill="none" xmlns="http://www.w3.org/2000/svg"><path d="M11 1.5H1C0.734785 1.5 0.480429 1.60535 0.292893 1.79289C0.105357 1.98043 0 2.23478 0 2.5V10C0 10.1326 0.0526785 10.2598 0.146446 10.3535C0.240215 10.4473 0.367392 10.5 0.5 10.5H2C2.13261 10.5 2.25978 10.4473 2.35355 10.3535C2.44732 10.2598 2.5 10.1326 2.5 10C2.5 9.7348 2.60536 9.48045 2.7929 9.2929C2.98043 9.10535 3.23479 9 3.5 9C3.76521 9 4.01957 9.10535 4.20711 9.2929C4.39465 9.48045 4.5 9.7348 4.5 10C4.5 10.1326 4.55268 10.2598 4.64644 10.3535C4.74021 10.4473 4.86739 10.5 5 10.5H7C7.1326 10.5 7.2598 10.4473 7.35355 10.3535C7.4473 10.2598 7.5 10.1326 7.5 10C7.5 9.7348 7.60535 9.48045 7.7929 9.2929C7.98045 9.10535 8.2348 9 8.5 9C8.7652 9 9.01955 9.10535 9.2071 9.2929C9.39465 9.48045 9.5 9.7348 9.5 10C9.5 10.1326 9.5527 10.2598 9.64645 10.3535C9.7402 10.4473 9.8674 10.5 10 10.5H11.5C11.6326 10.5 11.7598 10.4473 11.8535 10.3535C11.9473 10.2598 12 10.1326 12 10V2.5C12 2.23478 11.8946 1.98043 11.7071 1.79289C11.5196 1.60535 11.2652 1.5 11 1.5ZM3.5 3.25C3.72251 3.25 3.94001 3.31598 4.12501 3.43959C4.31002 3.56322 4.45422 3.73891 4.53936 3.94448C4.62451 4.15005 4.64679 4.37625 4.60338 4.59447C4.55998 4.8127 4.45283 5.01315 4.2955 5.1705C4.13816 5.32785 3.93771 5.435 3.71948 5.4784C3.50125 5.5218 3.27505 5.4995 3.06948 5.41435C2.86391 5.3292 2.68822 5.185 2.56459 5C2.44098 4.81501 2.375 4.59751 2.375 4.375C2.375 4.07663 2.49353 3.79048 2.7045 3.5795C2.91548 3.36853 3.20163 3.25 3.5 3.25ZM1.7 7.75C1.68131 7.50885 1.71504 7.2665 1.79888 7.03965C1.88273 6.8128 2.0147 6.60675 2.18573 6.43575C2.35676 6.2647 2.56278 6.13275 2.78965 6.0489C3.01652 5.96505 3.25886 5.9313 3.5 5.95C3.74114 5.9313 3.98348 5.96505 4.21034 6.0489C4.43721 6.13275 4.64325 6.2647 4.81427 6.43575C4.98529 6.60675 5.11725 6.8128 5.2011 7.03965C5.28495 7.2665 5.3187 7.50885 5.3 7.75H1.7ZM10 6.875H6.5V6.125H10V6.875ZM10 4.875H7.5V4.125H10V4.875Z" fill="currentColor"/></svg>