<svg viewBox="0 0 24 24" fill="none" xmlns="http://www.w3.org/2000/svg"><path d="M12 1C9.82441 1 7.69767 1.64514 5.88873 2.85383C4.07979 4.06253 2.66989 5.78049 1.83733 7.79048C1.00477 9.80047 0.786929 12.0122 1.21137 14.146C1.6358 16.2798 2.68345 18.2398 4.22183 19.7782C5.76021 21.3165 7.72022 22.3642 9.85401 22.7886C11.9878 23.2131 14.1995 22.9952 16.2095 22.1627C18.2195 21.3301 19.9375 19.9202 21.1462 18.1113C22.3549 16.3023 23 14.1756 23 12C23 9.08262 21.8411 6.28472 19.7782 4.22182C17.7153 2.15892 14.9174 1 12 1V1ZM12.2292 5.58333C12.5011 5.58333 12.767 5.66397 12.9931 5.81506C13.2192 5.96615 13.3954 6.18089 13.4995 6.43214C13.6036 6.68339 13.6308 6.95986 13.5777 7.22658C13.5247 7.49331 13.3937 7.73831 13.2014 7.9306C13.0091 8.1229 12.7641 8.25386 12.4974 8.30691C12.2307 8.35997 11.9542 8.33274 11.703 8.22867C11.4517 8.1246 11.237 7.94836 11.0859 7.72224C10.9348 7.49612 10.8542 7.23028 10.8542 6.95833C10.8542 6.59366 10.999 6.24392 11.2569 5.98606C11.5148 5.7282 11.8645 5.58333 12.2292 5.58333ZM14.2917 17.9583H10.625C10.3819 17.9583 10.1487 17.8618 9.97682 17.6898C9.80491 17.5179 9.70834 17.2848 9.70834 17.0417C9.70834 16.7985 9.80491 16.5654 9.97682 16.3935C10.1487 16.2216 10.3819 16.125 10.625 16.125H11.3125C11.3733 16.125 11.4316 16.1009 11.4745 16.0579C11.5175 16.0149 11.5417 15.9566 11.5417 15.8958V11.7708C11.5417 11.7101 11.5175 11.6518 11.4745 11.6088C11.4316 11.5658 11.3733 11.5417 11.3125 11.5417H10.625C10.3819 11.5417 10.1487 11.4451 9.97682 11.2732C9.80491 11.1013 9.70834 10.8681 9.70834 10.625C9.70834 10.3819 9.80491 10.1487 9.97682 9.97682C10.1487 9.80491 10.3819 9.70833 10.625 9.70833H11.5417C12.0279 9.70833 12.4942 9.90149 12.838 10.2453C13.1818 10.5891 13.375 11.0554 13.375 11.5417V15.8958C13.375 15.9566 13.3991 16.0149 13.4421 16.0579C13.4851 16.1009 13.5434 16.125 13.6042 16.125H14.2917C14.5348 16.125 14.7679 16.2216 14.9398 16.3935C15.1118 16.5654 15.2083 16.7985 15.2083 17.0417C15.2083 17.2848 15.1118 17.5179 14.9398 17.6898C14.7679 17.8618 14.5348 17.9583 14.2917 17.9583Z" fill="currentColor"/></svg>