<svg viewBox="0 0 24 24" fill="none" xmlns="http://www.w3.org/2000/svg"><g clip-path="url(#clip0_2091_214)"><path d="M1 6H1.66667C1.75507 6 1.83986 6.03512 1.90237 6.09763C1.96488 6.16014 2 6.24493 2 6.33333V7C2 7.26522 2.10536 7.51957 2.29289 7.70711C2.48043 7.89464 2.73478 8 3 8C3.26522 8 3.51957 7.89464 3.70711 7.70711C3.89464 7.51957 4 7.26522 4 7V6.33333C4 6.24493 4.03512 6.16014 4.09763 6.09763C4.16014 6.03512 4.24493 6 4.33333 6H5C5.13132 6 5.26136 5.97413 5.38268 5.92388C5.50401 5.87363 5.61425 5.79997 5.70711 5.70711C5.79997 5.61425 5.87363 5.50401 5.92388 5.38268C5.97413 5.26136 6 5.13132 6 5C6 4.86868 5.97413 4.73864 5.92388 4.61732C5.87363 4.49599 5.79997 4.38575 5.70711 4.29289C5.61425 4.20003 5.50401 4.12638 5.38268 4.07612C5.26136 4.02587 5.13132 4 5 4H4.33333C4.24493 4 4.16014 3.96488 4.09763 3.90237C4.03512 3.83986 4 3.75507 4 3.66667V3C4 2.73478 3.89464 2.48043 3.70711 2.29289C3.51957 2.10536 3.26522 2 3 2C2.73478 2 2.48043 2.10536 2.29289 2.29289C2.10536 2.48043 2 2.73478 2 3V3.66667C2 3.75507 1.96488 3.83986 1.90237 3.90237C1.83986 3.96488 1.75507 4 1.66667 4H1C0.734784 4 0.48043 4.10536 0.292893 4.29289C0.105357 4.48043 0 4.73478 0 5C0 5.26522 0.105357 5.51957 0.292893 5.70711C0.48043 5.89464 0.734784 6 1 6V6Z" fill="currentColor"/><path d="M21 18H20.3333C20.2449 18 20.1601 17.9649 20.0976 17.9024C20.0351 17.8399 20 17.7551 20 17.6667V17C20 16.7348 19.8946 16.4804 19.7071 16.2929C19.5196 16.1054 19.2652 16 19 16C18.7348 16 18.4804 16.1054 18.2929 16.2929C18.1054 16.4804 18 16.7348 18 17V17.6667C18 17.7551 17.9649 17.8399 17.9024 17.9024C17.8399 17.9649 17.7551 18 17.6667 18H17C16.7348 18 16.4804 18.1054 16.2929 18.2929C16.1054 18.4804 16 18.7348 16 19C16 19.2652 16.1054 19.5196 16.2929 19.7071C16.4804 19.8946 16.7348 20 17 20H17.6667C17.7551 20 17.8399 20.0351 17.9024 20.0976C17.9649 20.1601 18 20.2449 18 20.3333V21C18 21.2652 18.1054 21.5196 18.2929 21.7071C18.4804 21.8946 18.7348 22 19 22C19.2652 22 19.5196 21.8946 19.7071 21.7071C19.8946 21.5196 20 21.2652 20 21V20.3333C20 20.2449 20.0351 20.1601 20.0976 20.0976C20.1601 20.0351 20.2449 20 20.3333 20H21C21.2652 20 21.5196 19.8946 21.7071 19.7071C21.8946 19.5196 22 19.2652 22 19C22 18.7348 21.8946 18.4804 21.7071 18.2929C21.5196 18.1054 21.2652 18 21 18V18Z" fill="currentColor"/><path d="M22.6968 7.03036C22.7014 5.97779 22.4685 4.93775 22.0155 3.98762C21.5626 3.0375 20.9012 2.20176 20.0806 1.54259C19.2599 0.883425 18.3012 0.417809 17.2758 0.180392C16.2503 -0.0570249 15.1845 -0.0601296 14.1577 0.171309C13.1309 0.402748 12.1695 0.86277 11.3451 1.51714C10.5206 2.17152 9.85436 3.00339 9.39586 3.95086C8.93737 4.89833 8.69845 5.937 8.69688 6.98958C8.69532 8.04215 8.93114 9.08153 9.38681 10.0304C9.4313 10.124 9.44557 10.2292 9.42765 10.3313C9.40974 10.4334 9.36052 10.5274 9.28681 10.6004L0.53681 19.3704C0.186436 19.7464 -0.00574635 20.2428 0.000130933 20.7567C0.00600821 21.2706 0.209494 21.7625 0.568375 22.1304C0.927256 22.4983 1.41399 22.7139 1.92759 22.7325C2.44119 22.7511 2.94225 22.5713 3.32681 22.2304C3.42091 22.1439 3.54403 22.096 3.67181 22.096C3.79959 22.096 3.92271 22.1439 4.01681 22.2304L5.50681 23.7204C5.69511 23.9073 5.94998 24.0119 6.21535 24.0109C6.48071 24.01 6.73483 23.9037 6.92181 23.7154C7.10879 23.5271 7.2133 23.2722 7.21237 23.0068C7.21143 22.7415 7.10511 22.4873 6.91681 22.3004L5.42681 20.8404C5.37995 20.7939 5.34275 20.7386 5.31736 20.6776C5.29198 20.6167 5.27891 20.5514 5.27891 20.4854C5.27891 20.4194 5.29198 20.354 5.31736 20.2931C5.34275 20.2321 5.37995 20.1768 5.42681 20.1304L6.05681 19.5004C6.15074 19.4098 6.27635 19.3596 6.40681 19.3604C6.53997 19.361 6.66818 19.4109 6.76681 19.5004L8.24681 21.0304C8.43511 21.2173 8.68998 21.3219 8.95535 21.3209C9.22071 21.32 9.47483 21.2137 9.66181 21.0254C9.84879 20.8371 9.9533 20.5822 9.95237 20.3168C9.95143 20.0515 9.84511 19.7973 9.65681 19.6104L8.17681 18.0904C8.12995 18.0439 8.09275 17.9886 8.06736 17.9276C8.04198 17.8667 8.02891 17.8014 8.02891 17.7354C8.02891 17.6694 8.04198 17.604 8.06736 17.5431C8.09275 17.4821 8.12995 17.4268 8.17681 17.3804L12.1168 13.4404C12.1897 13.3666 12.2838 13.3174 12.3859 13.2995C12.488 13.2816 12.5932 13.2959 12.6868 13.3404C13.7531 13.8482 14.9305 14.078 16.1094 14.0084C17.2884 13.9388 18.4306 13.572 19.4296 12.9422C20.4287 12.3124 21.2522 11.4401 21.8235 10.4064C22.3947 9.37277 22.6952 8.21137 22.6968 7.03036V7.03036ZM15.6968 10.0304C15.1035 10.0304 14.5234 9.85441 14.0301 9.52477C13.5368 9.19512 13.1522 8.72659 12.9252 8.17841C12.6981 7.63023 12.6387 7.02703 12.7545 6.44509C12.8702 5.86314 13.1559 5.3286 13.5755 4.90904C13.995 4.48948 14.5296 4.20376 15.1115 4.088C15.6935 3.97225 16.2967 4.03166 16.8449 4.25872C17.393 4.48578 17.8616 4.8703 18.1912 5.36365C18.5209 5.85699 18.6968 6.43701 18.6968 7.03036C18.6968 7.82601 18.3807 8.58907 17.8181 9.15168C17.2555 9.71429 16.4925 10.0304 15.6968 10.0304V10.0304Z" fill="currentColor"/></g><defs><clipPath id="clip0_2091_214"><rect width="24" height="24" fill="currentColor"/></clipPath></defs></svg>