<svg viewBox="0 0 24 25" fill="none" xmlns="http://www.w3.org/2000/svg"><path d="M13.9999 9C14.0076 7.52779 13.4752 6.10415 12.504 5V2.5C12.504 1.83696 12.2413 1.20107 11.7737 0.732233C11.3062 0.263392 10.672 0 10.0108 0C9.34951 0 8.71535 0.263392 8.24778 0.732233C7.7802 1.20107 7.51753 1.83696 7.51753 2.5V3C6.14729 3.10738 4.85569 3.68447 3.85982 4.63427C2.86395 5.58408 2.22452 6.84869 2.049 8.21555C1.87349 9.58241 2.17259 10.9682 2.89604 12.14C3.61949 13.3117 4.72317 14.1981 6.02159 14.65V15.29L5.17389 16.15C5.12619 16.1949 5.08817 16.2491 5.06218 16.3093C5.03619 16.3695 5.02278 16.4344 5.02278 16.5C5.02278 16.5656 5.03619 16.6305 5.06218 16.6907C5.08817 16.7509 5.12619 16.8051 5.17389 16.85L6.02159 17.71V18.29L5.17389 19.15C5.12619 19.1949 5.08817 19.2491 5.06218 19.3093C5.03619 19.3695 5.02278 19.4344 5.02278 19.5C5.02278 19.5656 5.03619 19.6305 5.06218 19.6907C5.08817 19.7509 5.12619 19.8051 5.17389 19.85L6.02159 20.71V22C6.02079 22.0656 6.03369 22.1306 6.05945 22.1909C6.08522 22.2512 6.12328 22.3054 6.17118 22.35L7.66712 23.85C7.71189 23.8978 7.76596 23.936 7.82599 23.962C7.88603 23.9881 7.95075 24.0015 8.01617 24.0015C8.08159 24.0015 8.14632 23.9881 8.20635 23.962C8.26638 23.936 8.32045 23.8978 8.36522 23.85L9.86116 22.35C9.90907 22.3054 9.94713 22.2512 9.97289 22.1909C9.99865 22.1306 10.0116 22.0656 10.0108 22V14.65C11.1763 14.2368 12.1856 13.4718 12.8999 12.46C13.6142 11.4483 13.9985 10.2396 13.9999 9V9ZM8.01617 6C8.21342 6 8.40623 6.05865 8.57024 6.16853C8.73424 6.27841 8.86207 6.43459 8.93755 6.61732C9.01303 6.80004 9.03278 7.00111 8.9943 7.19509C8.95582 7.38907 8.86084 7.56725 8.72136 7.70711C8.58189 7.84696 8.40419 7.9422 8.21073 7.98079C8.01728 8.01937 7.81676 7.99957 7.63452 7.92388C7.45229 7.84819 7.29654 7.72002 7.18695 7.55557C7.07737 7.39112 7.01888 7.19778 7.01888 7C7.01888 6.73478 7.12395 6.48043 7.31098 6.29289C7.49801 6.10536 7.75167 6 8.01617 6V6ZM10.0108 1C10.4075 1 10.788 1.15804 11.0685 1.43934C11.3491 1.72064 11.5067 2.10218 11.5067 2.5V4.13C10.9064 3.69412 10.2298 3.37525 9.51211 3.19V5H8.51482V2.5C8.51482 2.10218 8.67242 1.72064 8.95297 1.43934C9.23351 1.15804 9.61401 1 10.0108 1Z" fill="currentColor"/><path d="M21.8649 17.9738L17.2315 12.7283C17.7044 11.6034 17.8587 10.3411 17.6733 9.11355C17.488 7.88598 16.972 6.75288 16.1958 5.86879C15.922 5.57975 15.6229 5.32288 15.3031 5.10214C15.2244 5.03582 15.1289 5 15.0308 5C14.9326 5 14.8371 5.03582 14.7585 5.10214C14.6858 5.17473 14.6361 5.27207 14.6167 5.37946C14.5974 5.48684 14.6096 5.59841 14.6514 5.6973C15.0758 6.69539 15.2984 7.78769 15.3031 8.89503C15.3039 10.1665 15.0204 11.4177 14.4788 12.5322C13.9372 13.6468 13.1551 14.5887 12.2052 15.2703C12.1242 15.3291 12.0622 15.4158 12.0284 15.5176C11.9946 15.6194 11.9909 15.7308 12.0177 15.8352C12.046 15.9391 12.1027 16.0303 12.1797 16.0955C12.2567 16.1608 12.35 16.1968 12.4462 16.1984V16.1984C13.2309 16.1845 14.004 15.9816 14.7138 15.6032L15.2941 16.1782V17.4694C15.2941 17.6031 15.3412 17.7314 15.4249 17.826C15.5086 17.9206 15.6221 17.9738 15.7405 17.9738H16.8922L17.0797 18.1957V19.4869C17.0797 19.6206 17.1267 19.7489 17.2104 19.8435C17.2941 19.9381 17.4077 19.9913 17.5261 19.9913H18.526L19.3473 20.8588C19.3872 20.9037 19.4346 20.9393 19.4867 20.9635C19.5387 20.9878 19.5945 21.0002 19.6509 21H21.5525C21.6709 21 21.7844 20.9469 21.8681 20.8523C21.9518 20.7577 21.9989 20.6294 21.9989 20.4956V18.3571C22.0035 18.2859 21.9939 18.2145 21.9707 18.1481C21.9475 18.0817 21.9114 18.0221 21.8649 17.9738V17.9738Z" fill="currentColor"/></svg>