<svg viewBox="0 0 24 24" fill="none" xmlns="http://www.w3.org/2000/svg"><g clip-path="url(#clip0_2083_514)"><path d="M10.4314 18.3681L7.68072 21.1187C7.1471 21.6258 6.43913 21.9085 5.70304 21.9085C4.96696 21.9085 4.25899 21.6258 3.72537 21.1187L2.8319 20.2253C2.56712 19.9629 2.3578 19.6499 2.21638 19.305C2.07496 18.9601 2.00434 18.5902 2.00871 18.2175C2.0026 17.8445 2.07243 17.4741 2.21395 17.129C2.35547 16.7838 2.56571 16.471 2.8319 16.2097L8.65449 10.3771C9.18081 9.85596 9.89153 9.56365 10.6322 9.56365C11.3728 9.56365 12.0835 9.85596 12.6098 10.3771L13.5033 11.2806C13.5749 11.4169 13.6769 11.5349 13.8014 11.6255C13.9258 11.7161 14.0695 11.7769 14.2212 11.8031C14.3729 11.8293 14.5286 11.8202 14.6763 11.7766C14.824 11.7331 14.9596 11.6561 15.0728 11.5517C15.186 11.4473 15.2736 11.3183 15.3289 11.1746C15.3843 11.0309 15.4058 10.8764 15.3919 10.7231C15.378 10.5697 15.329 10.4217 15.2487 10.2903C15.1684 10.1589 15.0589 10.0478 14.9288 9.96546L14.0354 9.07199C13.1337 8.17145 11.9115 7.66562 10.6372 7.66562C9.36286 7.66562 8.14063 8.17145 7.239 9.07199L1.40637 14.8946C0.50583 15.7962 0 17.0184 0 18.2928C0 19.5671 0.50583 20.7893 1.40637 21.691L2.29984 22.5844C2.7458 23.033 3.27606 23.3891 3.86011 23.632C4.44416 23.8749 5.07048 24 5.70304 24C6.33561 24 6.96193 23.8749 7.54598 23.632C8.13003 23.3891 8.66029 23.033 9.10625 22.5844L11.8469 19.8438C11.941 19.7505 12.0157 19.6394 12.0666 19.5171C12.1176 19.3948 12.1438 19.2635 12.1438 19.131C12.1438 18.9985 12.1176 18.8673 12.0666 18.7449C12.0157 18.6226 11.941 18.5116 11.8469 18.4183C11.6655 18.2245 11.4148 18.1104 11.1495 18.101C10.8842 18.0916 10.626 18.1876 10.4314 18.3681Z" fill="currentColor"/><path d="M22.5481 2.29571L21.6446 1.40224C20.7417 0.504142 19.5199 0 18.2464 0C16.9729 0 15.7512 0.504142 14.8482 1.40224L11.9771 4.32357C11.872 4.41357 11.7867 4.52432 11.7264 4.64886C11.6662 4.77341 11.6323 4.90907 11.6269 5.04733C11.6216 5.18558 11.6449 5.32345 11.6954 5.45227C11.7458 5.5811 11.8224 5.6981 11.9202 5.79594C12.0181 5.89377 12.1351 5.97032 12.2639 6.0208C12.3927 6.07127 12.5306 6.09456 12.6688 6.08922C12.8071 6.08388 12.9428 6.05002 13.0673 5.98976C13.1919 5.92951 13.3026 5.84415 13.3926 5.73906L16.3139 2.82777C16.839 2.30424 17.5502 2.01025 18.2916 2.01025C19.033 2.01025 19.7442 2.30424 20.2693 2.82777L21.1627 3.73128C21.4289 3.99263 21.6392 4.3054 21.7807 4.65056C21.9222 4.99573 21.992 5.36607 21.9859 5.73906C21.9903 6.11182 21.9197 6.48165 21.7783 6.82657C21.6369 7.17149 21.4275 7.48445 21.1627 7.74685L15.3402 13.5694C15.0778 13.8342 14.7648 14.0436 14.4199 14.185C14.075 14.3264 13.7051 14.397 13.3324 14.3926V14.3926C12.9594 14.3982 12.5893 14.3281 12.2442 14.1866C11.8991 14.0451 11.5863 13.8352 11.3246 13.5694C11.136 13.4725 10.9216 13.4377 10.7121 13.4701C10.5026 13.5025 10.3087 13.6004 10.1583 13.7497C10.0078 13.8991 9.90846 14.0922 9.87452 14.3015C9.84058 14.5108 9.87376 14.7254 9.96932 14.9147C10.4146 15.3642 10.9447 15.7207 11.5289 15.9637C12.1132 16.2067 12.7398 16.3313 13.3725 16.3302V16.3302C14.0029 16.3318 14.6274 16.2085 15.2098 15.9672C15.7923 15.726 16.3211 15.3716 16.7657 14.9247L22.5983 9.09207C23.4989 8.19044 24.0047 6.96822 24.0047 5.69389C24.0047 4.41956 23.4989 3.19734 22.5983 2.29571H22.5481Z" fill="currentColor"/></g><defs><clipPath id="clip0_2083_514"><rect width="24" height="24" fill="currentColor"/></clipPath></defs></svg>