<svg viewBox="0 0 24 24" fill="none" xmlns="http://www.w3.org/2000/svg"><path d="M8 3.73333C8 3.80406 8.02704 3.87189 8.07518 3.9219C8.12332 3.97191 8.18861 4 8.25669 4H13.7498C13.7994 3.99676 13.8473 3.97915 13.8878 3.94917C13.9284 3.91918 13.9601 3.87801 13.9793 3.8303C13.9985 3.78259 14.0045 3.73025 13.9966 3.67919C13.9887 3.62813 13.9672 3.58038 13.9346 3.54133L10.9673 0.469333C10.6787 0.169189 10.2873 0.000373444 9.87894 0H8.25669C8.18861 0 8.12332 0.0280952 8.07518 0.0781049C8.02704 0.128115 8 0.195942 8 0.266667V3.73333Z" fill="currentColor"/><path d="M10.103 11.3302C11.3124 10 12.6029 9.4941 14.1257 9.1907C14.1784 9.17825 14.2254 9.14859 14.2592 9.10645C14.293 9.06431 14.3118 9.0121 14.3124 8.95814V6.23256C14.3124 6.17088 14.2878 6.11173 14.244 6.06811C14.2003 6.0245 14.1409 6 14.079 6H0.545711C0.483827 6 0.424478 6.0245 0.38072 6.06811C0.336961 6.11173 0.312378 6.17088 0.312378 6.23256V14.6047C0.312378 14.9747 0.459878 15.3296 0.722428 15.5913C0.984979 15.853 1.34107 16 1.71238 16H8.28889C8.34566 15.9985 8.40011 15.9772 8.44274 15.9398C8.48538 15.9024 8.51351 15.8513 8.52222 15.7953C8.76229 14.1059 8.89371 12.6605 10.103 11.3302Z" fill="currentColor"/><path d="M5.74405 4C5.81113 3.99736 5.87477 3.96842 5.92223 3.91897C5.96969 3.86952 5.99747 3.80322 6 3.73333V0.266667C6 0.195942 5.97303 0.128115 5.92503 0.0781049C5.87704 0.0280952 5.81193 0 5.74405 0H4.11623C3.70953 0.0026791 3.31999 0.171146 3.03102 0.469333L0.0825139 3.54133C0.0436802 3.5759 0.0166877 3.62269 0.00560744 3.67464C-0.00547279 3.72659 -3.99621e-05 3.78088 0.0210866 3.82933C0.0394872 3.87903 0.0717506 3.92185 0.113719 3.95226C0.155687 3.98268 0.205437 3.99931 0.256558 4H5.74405Z" fill="currentColor"/><path d="M16.0178 10C14.8296 9.99651 13.6671 10.3459 12.6777 11.0038C11.6882 11.6617 10.9165 12.5986 10.4601 13.6957C10.0038 14.7928 9.88348 16.0006 10.1144 17.1662C10.3454 18.3317 10.9172 19.4025 11.7574 20.2426C12.5975 21.0828 13.6683 21.6546 14.8338 21.8856C15.9994 22.1165 17.2072 21.9962 18.3043 21.5399C19.4014 21.0835 20.3383 20.3118 20.9962 19.3223C21.6541 18.3329 22.0035 17.1704 22 15.9822C21.9953 14.3971 21.3635 12.8782 20.2426 11.7574C19.1218 10.6365 17.6029 10.0047 16.0178 10V10ZM13.9644 19.6978C13.9335 19.6804 13.907 19.6561 13.8869 19.6268C13.8669 19.5976 13.8539 19.564 13.8489 19.5289C13.846 19.4952 13.85 19.4613 13.8607 19.4292C13.8714 19.3971 13.8886 19.3675 13.9111 19.3422L19.3511 13.9022C19.3763 13.8797 19.4059 13.8626 19.438 13.8519C19.4701 13.8412 19.504 13.8372 19.5378 13.84C19.5729 13.845 19.6064 13.8581 19.6357 13.8781C19.665 13.8981 19.6893 13.9246 19.7066 13.9556C20.1454 14.758 20.3123 15.6811 20.1824 16.5864C20.0525 17.4917 19.6327 18.3305 18.986 18.9772C18.3393 19.6239 17.5005 20.0436 16.5952 20.1735C15.6899 20.3035 14.7669 20.1365 13.9644 19.6978V19.6978ZM18.0444 12.3289C18.0754 12.3463 18.1019 12.3706 18.1219 12.3999C18.1419 12.4292 18.155 12.4627 18.16 12.4978C18.1634 12.5315 18.1596 12.5656 18.1489 12.5978C18.1381 12.63 18.1207 12.6595 18.0978 12.6845L12.6578 18.1245C12.6325 18.147 12.6029 18.1641 12.5708 18.1748C12.5387 18.1855 12.5048 18.1896 12.4711 18.1867C12.4371 18.1815 12.4045 18.1694 12.3755 18.151C12.3464 18.1327 12.3215 18.1085 12.3022 18.08C11.8598 17.2774 11.6899 16.3528 11.8182 15.4453C11.9465 14.5379 12.366 13.6966 13.0135 13.048C13.6611 12.3995 14.5017 11.9787 15.409 11.849C16.3163 11.7193 17.2411 11.8877 18.0444 12.3289V12.3289Z" fill="currentColor"/></svg>