<svg viewBox="0 0 24 24" fill="none" xmlns="http://www.w3.org/2000/svg"><path d="M0 3.5C0 4.16304 0.263392 4.79893 0.732233 5.26777C1.20107 5.73661 1.83696 6 2.5 6H19.5C19.8283 6 20.1534 5.93534 20.4567 5.8097C20.76 5.68406 21.0356 5.49991 21.2678 5.26777C21.4999 5.03562 21.6841 4.76002 21.8097 4.45671C21.9353 4.15339 22 3.8283 22 3.5V2.5C22 1.83696 21.7366 1.20107 21.2678 0.732233C20.7989 0.263392 20.163 0 19.5 0L2.5 0C1.83696 0 1.20107 0.263392 0.732233 0.732233C0.263392 1.20107 0 1.83696 0 2.5L0 3.5ZM3.64 3C3.64 2.78046 3.7051 2.56586 3.82707 2.38332C3.94904 2.20078 4.1224 2.05851 4.32522 1.97449C4.52805 1.89048 4.75123 1.8685 4.96655 1.91133C5.18187 1.95416 5.37965 2.05988 5.53489 2.21511C5.69013 2.37035 5.79584 2.56813 5.83867 2.78345C5.8815 2.99877 5.85952 3.22195 5.77551 3.42478C5.69149 3.6276 5.54922 3.80096 5.36668 3.92293C5.18414 4.0449 4.96954 4.11 4.75 4.11C4.60386 4.11133 4.45892 4.08354 4.32365 4.02822C4.18837 3.97291 4.06548 3.8912 3.96214 3.78786C3.8588 3.68452 3.77709 3.56163 3.72178 3.42635C3.66646 3.29108 3.63867 3.14614 3.64 3ZM7.5 3C7.49802 2.77765 7.56228 2.55974 7.68458 2.37403C7.80689 2.18832 7.9817 2.04322 8.18676 1.95721C8.39181 1.87121 8.61783 1.84819 8.83602 1.89108C9.0542 1.93398 9.25468 2.04085 9.41192 2.19808C9.56915 2.35532 9.67602 2.5558 9.71892 2.77398C9.76181 2.99217 9.73879 3.21819 9.65279 3.42324C9.56678 3.6283 9.42168 3.80311 9.23597 3.92542C9.05026 4.04772 8.83235 4.11198 8.61 4.11C8.31561 4.11 8.03328 3.99305 7.82511 3.78489C7.61695 3.57672 7.5 3.29439 7.5 3V3Z" fill="currentColor"/><path d="M19 9C19.9077 9.00058 20.7975 9.25331 21.57 9.73C21.6119 9.75659 21.6601 9.77157 21.7096 9.77342C21.7592 9.77527 21.8084 9.76391 21.8521 9.74051C21.8959 9.71712 21.9326 9.68252 21.9586 9.64026C21.9846 9.598 21.9989 9.54959 22 9.5V9.5C22 8.83696 21.7366 8.20107 21.2678 7.73223C20.7989 7.26339 20.163 7 19.5 7H2.5C1.83696 7 1.20107 7.26339 0.732233 7.73223C0.263392 8.20107 0 8.83696 0 9.5L0 10.5C0 11.163 0.263392 11.7989 0.732233 12.2678C1.20107 12.7366 1.83696 13 2.5 13H13.71C13.8208 12.9988 13.9281 12.9608 14.015 12.8921C14.1018 12.8233 14.1634 12.7276 14.19 12.62C14.4898 11.5761 15.1213 10.6581 15.9891 10.005C16.857 9.35186 17.9139 8.99909 19 9ZM9.73 10C9.73198 10.2219 9.66798 10.4394 9.54613 10.6249C9.42427 10.8104 9.25005 10.9555 9.04558 11.0418C8.84111 11.1282 8.61561 11.1518 8.39769 11.1097C8.17978 11.0676 7.97928 10.9617 7.82164 10.8055C7.66401 10.6493 7.55634 10.4497 7.51231 10.2322C7.46828 10.0147 7.48986 9.78897 7.57433 9.58374C7.6588 9.3785 7.80234 9.20299 7.98673 9.07947C8.17113 8.95596 8.38806 8.89001 8.61 8.89C8.75661 8.88868 8.90202 8.91642 9.03785 8.97161C9.17368 9.0268 9.29723 9.10835 9.40136 9.21155C9.5055 9.31476 9.58815 9.43757 9.64456 9.5729C9.70097 9.70823 9.73001 9.85339 9.73 10V10ZM5.86 10C5.86 10.2195 5.7949 10.4341 5.67293 10.6167C5.55096 10.7992 5.3776 10.9415 5.17478 11.0255C4.97195 11.1095 4.74877 11.1315 4.53345 11.0887C4.31813 11.0458 4.12035 10.9401 3.96511 10.7849C3.80988 10.6297 3.70416 10.4319 3.66133 10.2165C3.6185 10.0012 3.64048 9.77805 3.72449 9.57522C3.80851 9.3724 3.95078 9.19904 4.13332 9.07707C4.31586 8.9551 4.53046 8.89 4.75 8.89C4.89614 8.88867 5.04108 8.91646 5.17635 8.97178C5.31163 9.02709 5.43452 9.1088 5.53786 9.21214C5.6412 9.31548 5.72291 9.43837 5.77822 9.57365C5.83354 9.70892 5.86133 9.85386 5.86 10V10Z" fill="currentColor"/><path d="M2.5 20H12C12.1326 20 12.2598 19.9473 12.3536 19.8535C12.4473 19.7598 12.5 19.6326 12.5 19.5V16C12.4882 15.6999 12.5505 15.4016 12.6813 15.1312C12.8121 14.8609 13.0074 14.627 13.25 14.45C13.2927 14.418 13.3241 14.3732 13.3396 14.3221C13.355 14.271 13.3537 14.2163 13.3358 14.166C13.318 14.1157 13.2844 14.0725 13.2402 14.0426C13.196 14.0127 13.1433 13.9978 13.09 14H2.5C1.83696 14 1.20107 14.2634 0.732233 14.7322C0.263392 15.201 0 15.8369 0 16.5L0 17.5C0 18.163 0.263392 18.7989 0.732233 19.2677C1.20107 19.7366 1.83696 20 2.5 20ZM3.64 17C3.64 16.7804 3.7051 16.5658 3.82707 16.3833C3.94904 16.2007 4.1224 16.0585 4.32522 15.9745C4.52805 15.8904 4.75123 15.8685 4.96655 15.9113C5.18187 15.9541 5.37965 16.0598 5.53489 16.2151C5.69013 16.3703 5.79584 16.5681 5.83867 16.7834C5.8815 16.9987 5.85952 17.2219 5.77551 17.4247C5.69149 17.6276 5.54922 17.8009 5.36668 17.9229C5.18414 18.0449 4.96954 18.11 4.75 18.11C4.60386 18.1113 4.45892 18.0835 4.32365 18.0282C4.18837 17.9729 4.06548 17.8912 3.96214 17.7878C3.8588 17.6845 3.77709 17.5616 3.72178 17.4263C3.66646 17.291 3.63867 17.1461 3.64 17V17ZM7.5 17C7.49802 16.7776 7.56228 16.5597 7.68458 16.374C7.80689 16.1883 7.9817 16.0432 8.18676 15.9572C8.39181 15.8712 8.61783 15.8482 8.83602 15.891C9.0542 15.9339 9.25468 16.0408 9.41192 16.1981C9.56915 16.3553 9.67602 16.5558 9.71892 16.774C9.76181 16.9921 9.73879 17.2182 9.65279 17.4232C9.56678 17.6283 9.42168 17.8031 9.23597 17.9254C9.05026 18.0477 8.83235 18.1119 8.61 18.11C8.31561 18.11 8.03328 17.993 7.82511 17.7849C7.61695 17.5767 7.5 17.2944 7.5 17V17Z" fill="currentColor"/><path d="M15.5 15.27C15.5005 15.3288 15.4793 15.3857 15.4406 15.4299C15.4019 15.4742 15.3483 15.5027 15.29 15.51C14.933 15.5647 14.6072 15.7446 14.3708 16.0176C14.1344 16.2906 14.003 16.6389 14 17V22.5C14 22.8978 14.158 23.2794 14.4393 23.5607C14.7206 23.842 15.1022 24 15.5 24H22.5C22.8978 24 23.2794 23.842 23.5607 23.5607C23.842 23.2794 24 22.8978 24 22.5V17C23.997 16.6389 23.8656 16.2906 23.6292 16.0176C23.3928 15.7446 23.067 15.5647 22.71 15.51C22.6517 15.5027 22.5981 15.4742 22.5594 15.4299C22.5207 15.3857 22.4995 15.3288 22.5 15.27V14.27C22.5 13.3418 22.1313 12.4515 21.4749 11.7951C20.8185 11.1388 19.9283 10.77 19 10.77C18.0717 10.77 17.1815 11.1388 16.5251 11.7951C15.8687 12.4515 15.5 13.3418 15.5 14.27V15.27ZM20 20.27C20 20.4678 19.9414 20.6611 19.8315 20.8256C19.7216 20.99 19.5654 21.1182 19.3827 21.1939C19.2 21.2696 18.9989 21.2894 18.8049 21.2508C18.6109 21.2122 18.4327 21.117 18.2929 20.9771C18.153 20.8373 18.0578 20.6591 18.0192 20.4651C17.9806 20.2711 18.0004 20.0701 18.0761 19.8873C18.1518 19.7046 18.28 19.5484 18.4444 19.4385C18.6089 19.3287 18.8022 19.27 19 19.27C19.2618 19.27 19.5132 19.3726 19.7001 19.5558C19.8871 19.739 19.9948 19.9883 20 20.25V20.27ZM19 12.77C19.3978 12.77 19.7794 12.9281 20.0607 13.2094C20.342 13.4907 20.5 13.8722 20.5 14.27V15.27C20.5 15.3363 20.4737 15.3999 20.4268 15.4468C20.3799 15.4937 20.3163 15.52 20.25 15.52H17.75C17.6837 15.52 17.6201 15.4937 17.5732 15.4468C17.5263 15.3999 17.5 15.3363 17.5 15.27V14.27C17.4974 14.0714 17.5342 13.8742 17.6084 13.6898C17.6826 13.5055 17.7927 13.3378 17.9322 13.1964C18.0718 13.055 18.238 12.9427 18.4213 12.8661C18.6046 12.7895 18.8013 12.75 19 12.75V12.77Z" fill="currentColor"/></svg>