<svg viewBox="0 0 24 24" fill="none" xmlns="http://www.w3.org/2000/svg"><path d="M19.8947 9.5H19.1053V6.75C19.1053 4.95979 18.3567 3.2429 17.0242 1.97703C15.6917 0.711159 13.8844 0 12 0C10.1156 0 8.30832 0.711159 6.97582 1.97703C5.64333 3.2429 4.89474 4.95979 4.89474 6.75V9.5H4.10526C3.54691 9.5 3.01143 9.71071 2.61662 10.0858C2.2218 10.4609 2 10.9696 2 11.5V22C2 22.5304 2.2218 23.0391 2.61662 23.4142C3.01143 23.7893 3.54691 24 4.10526 24H19.8947C20.4531 24 20.9886 23.7893 21.3834 23.4142C21.7782 23.0391 22 22.5304 22 22V11.5C22 10.9696 21.7782 10.4609 21.3834 10.0858C20.9886 9.71071 20.4531 9.5 19.8947 9.5ZM9.89474 15.5C9.89474 14.9696 10.1165 14.4609 10.5114 14.0858C10.9062 13.7107 11.4416 13.5 12 13.5C12.5584 13.5 13.0938 13.7107 13.4886 14.0858C13.8835 14.4609 14.1053 14.9696 14.1053 15.5C14.103 15.849 14.0047 16.1914 13.8201 16.4932C13.6354 16.7949 13.3708 17.0455 13.0526 17.22V19.5C13.0526 19.7652 12.9417 20.0196 12.7443 20.2071C12.5469 20.3946 12.2792 20.5 12 20.5C11.7208 20.5 11.4531 20.3946 11.2557 20.2071C11.0583 20.0196 10.9474 19.7652 10.9474 19.5V17.22C10.6292 17.0455 10.3646 16.7949 10.1799 16.4932C9.99528 16.1914 9.89695 15.849 9.89474 15.5ZM7.52632 6.75C7.52632 5.62283 7.99765 4.54183 8.83663 3.7448C9.67561 2.94777 10.8135 2.5 12 2.5C13.1865 2.5 14.3244 2.94777 15.1634 3.7448C16.0024 4.54183 16.4737 5.62283 16.4737 6.75V9C16.4737 9.13261 16.4182 9.25979 16.3195 9.35355C16.2208 9.44732 16.087 9.5 15.9474 9.5H8.05263C7.91304 9.5 7.77917 9.44732 7.68047 9.35355C7.58177 9.25979 7.52632 9.13261 7.52632 9V6.75Z" fill="currentColor"/></svg>