<svg viewBox="0 0 24 24" fill="none" xmlns="http://www.w3.org/2000/svg"><path d="M13.5 17.7391C13.2348 17.7391 12.9804 17.8491 12.7929 18.0448C12.6054 18.2404 12.5 18.5059 12.5 18.7826V21.3913C12.5 21.5297 12.4473 21.6624 12.3536 21.7602C12.2598 21.8581 12.1326 21.913 12 21.913H2.5C2.36739 21.913 2.24021 21.8581 2.14645 21.7602C2.05268 21.6624 2 21.5297 2 21.3913V2.6087C2 2.47032 2.05268 2.33762 2.14645 2.23977C2.24021 2.14193 2.36739 2.08696 2.5 2.08696H12C12.1326 2.08696 12.2598 2.14193 12.3536 2.23977C12.4473 2.33762 12.5 2.47032 12.5 2.6087V5.21739C12.5 5.49414 12.6054 5.75955 12.7929 5.95524C12.9804 6.15093 13.2348 6.26087 13.5 6.26087C13.7652 6.26087 14.0196 6.15093 14.2071 5.95524C14.3946 5.75955 14.5 5.49414 14.5 5.21739V2.08696C14.5 1.53346 14.2893 1.00264 13.9142 0.611255C13.5391 0.219875 13.0304 0 12.5 0H2C1.46957 0 0.960859 0.219875 0.585786 0.611255C0.210714 1.00264 0 1.53346 0 2.08696L0 21.913C0 22.4665 0.210714 22.9974 0.585786 23.3887C0.960859 23.7801 1.46957 24 2 24H12.5C13.0304 24 13.5391 23.7801 13.9142 23.3887C14.2893 22.9974 14.5 22.4665 14.5 21.913V18.7826C14.5 18.5059 14.3946 18.2404 14.2071 18.0448C14.0196 17.8491 13.7652 17.7391 13.5 17.7391Z" fill="currentColor"/><path d="M23.55 11.6557L17.55 7.48177C17.3996 7.37841 17.2252 7.31935 17.0453 7.31083C16.8654 7.3023 16.6867 7.34463 16.5279 7.43334C16.3692 7.52205 16.2363 7.65384 16.1434 7.81481C16.0505 7.97578 16.0009 8.15994 16 8.34785V10.9565H7C6.60218 10.9565 6.22064 11.1215 5.93934 11.415C5.65804 11.7085 5.5 12.1066 5.5 12.5218C5.5 12.9369 5.65804 13.335 5.93934 13.6285C6.22064 13.9221 6.60218 14.087 7 14.087H16V16.6957C16 16.9724 16.1054 17.2378 16.2929 17.4335C16.4804 17.6292 16.7348 17.7392 17 17.7392C17.196 17.7376 17.3873 17.6759 17.55 17.5618L23.55 13.3879C23.6876 13.2933 23.8006 13.1648 23.8791 13.0137C23.9576 12.8626 23.9991 12.6936 24 12.5218C23.9991 12.3499 23.9576 12.1809 23.8791 12.0298C23.8006 11.8787 23.6876 11.7502 23.55 11.6557V11.6557Z" fill="currentColor"/></svg>