<svg viewBox="0 0 24 24" fill="none" xmlns="http://www.w3.org/2000/svg"><path d="M17.0368 18.4955C16.7787 18.4955 16.5312 18.6008 16.3488 18.7882C16.1663 18.9756 16.0638 19.2298 16.0638 19.4949V19.9945C16.0638 20.1271 16.0125 20.2542 15.9213 20.3479C15.8301 20.4416 15.7063 20.4942 15.5773 20.4942H10.226C10.1613 20.4956 10.097 20.4836 10.0368 20.4591C9.97668 20.4346 9.9219 20.398 9.87569 20.3515C9.82948 20.3049 9.79277 20.2494 9.76772 20.1881C9.74266 20.1268 9.72976 20.061 9.72978 19.9945V4.00472C9.72978 3.8722 9.78103 3.7451 9.87226 3.6514C9.9635 3.55769 10.0872 3.50504 10.2163 3.50504H15.5676C15.6966 3.50504 15.8203 3.55769 15.9116 3.6514C16.0028 3.7451 16.0541 3.8722 16.0541 4.00472V5.00409C16.0541 5.26914 16.1566 5.52333 16.339 5.71074C16.5215 5.89816 16.769 6.00345 17.027 6.00345C17.2851 6.00345 17.5326 5.89816 17.715 5.71074C17.8975 5.52333 18 5.26914 18 5.00409V2.50568C18 2.24063 17.8975 1.98644 17.715 1.79902C17.5326 1.6116 17.2851 1.50631 17.027 1.50631H9.72978V0.50695C9.72994 0.432811 9.71435 0.359528 9.68411 0.292213C9.65386 0.224897 9.60968 0.16517 9.55464 0.117198C9.49794 0.0702815 9.43221 0.0362291 9.36178 0.0172817C9.29135 -0.00166561 9.21781 -0.00507833 9.146 0.00726817L0.389286 2.006C0.277747 2.02936 0.177716 2.09215 0.106604 2.18345C0.0354922 2.27475 -0.00219623 2.38878 9.89697e-05 2.50568V21.4936C-0.00219623 21.6105 0.0354922 21.7245 0.106604 21.8158C0.177716 21.9071 0.277747 21.9699 0.389286 21.9933L9.146 23.992C9.21727 24.0051 9.29049 24.0021 9.36049 23.983C9.4305 23.964 9.4956 23.9295 9.55123 23.8819C9.60687 23.8343 9.65168 23.7747 9.68252 23.7074C9.71336 23.6401 9.72949 23.5667 9.72978 23.4923V22.493H17.027C17.2851 22.493 17.5326 22.3877 17.715 22.2002C17.8975 22.0128 18 21.7586 18 21.4936V19.4949C18 19.2315 17.8988 18.9788 17.7185 18.7917C17.5381 18.6046 17.2931 18.4981 17.0368 18.4955ZM7.30709 12.4993C7.30708 12.7954 7.22172 13.0848 7.06178 13.3311C6.90184 13.5774 6.67448 13.7695 6.40837 13.8833C6.14225 13.997 5.84931 14.0273 5.56647 13.9702C5.28363 13.9132 5.02357 13.7714 4.81908 13.5628C4.61459 13.3541 4.47483 13.088 4.41742 12.7978C4.36001 12.5077 4.38753 12.2066 4.4965 11.9325C4.60548 11.6585 4.79102 11.4237 5.02975 11.2577C5.26847 11.0918 5.54967 11.0022 5.8379 11.0003C6.03038 10.999 6.22121 11.0368 6.3994 11.1115C6.57759 11.1862 6.73963 11.2965 6.87619 11.4358C7.01274 11.5751 7.12112 11.7408 7.19507 11.9233C7.26902 12.1059 7.30709 12.3016 7.30709 12.4993V12.4993Z" fill="currentColor"/><path d="M23.5659 11.2134L18.882 8.15115C18.7403 8.06118 18.577 8.00945 18.4085 8.00118C18.24 7.9929 18.0722 8.02838 17.9221 8.10404C17.7689 8.18415 17.6406 8.30358 17.551 8.44959C17.4615 8.59561 17.4139 8.76275 17.4134 8.9332V10.5821H13.4397C13.0579 10.5821 12.6917 10.731 12.4217 10.9961C12.1517 11.2611 12 11.6206 12 11.9955C12 12.3703 12.1517 12.7298 12.4217 12.9948C12.6917 13.2599 13.0579 13.4088 13.4397 13.4088H17.4038V15.0577C17.4043 15.2282 17.4519 15.3953 17.5414 15.5413C17.631 15.6873 17.7593 15.8068 17.9125 15.8869C18.0502 15.9627 18.2058 16.0016 18.3637 15.9999C18.5518 15.9985 18.7354 15.9428 18.8916 15.8398L23.5755 12.7775C23.7062 12.6913 23.8132 12.5749 23.8873 12.4385C23.9613 12.3021 24 12.15 24 11.9955C24 11.8409 23.9613 11.6888 23.8873 11.5524C23.8132 11.416 23.7062 11.2996 23.5755 11.2134H23.5659Z" fill="currentColor"/></svg>