<svg viewBox="0 0 24 24" fill="none" xmlns="http://www.w3.org/2000/svg"><g clip-path="url(#clip0_2091_217)"><path d="M12.1207 11.7145C12.1673 11.7455 12.2223 11.762 12.2787 11.762C12.335 11.762 12.3901 11.7455 12.4366 11.7145L23.6946 4.40049C23.8024 4.34477 23.8897 4.25753 23.9442 4.15098C23.9988 4.04443 24.0179 3.92389 23.9988 3.80622C23.8847 3.2864 23.5885 2.82171 23.1613 2.49214C22.7341 2.16257 22.2026 1.98874 21.6583 2.00057H2.34897C1.79307 1.9922 1.25228 2.17735 0.823429 2.52285C0.394576 2.86836 0.105669 3.35166 0.00844215 3.88622C-0.0113033 3.9985 0.00377256 4.11399 0.0517337 4.21784C0.0996949 4.3217 0.178352 4.40918 0.277603 4.46906L12.1207 11.7145Z" fill="currentColor"/><path d="M13.4666 13.1545C13.12 13.3784 12.7118 13.494 12.2963 13.4859C11.9129 13.4833 11.5372 13.3807 11.208 13.1888L0.909648 6.84615C0.819751 6.79265 0.716507 6.76435 0.611231 6.76435C0.505955 6.76435 0.40271 6.79265 0.312813 6.84615C0.22128 6.89642 0.144949 6.96938 0.0915252 7.05767C0.0381019 7.14596 0.00947842 7.24645 0.00854492 7.34899V19.7143C0.00854492 20.3205 0.255135 20.9019 0.694069 21.3305C1.133 21.7592 1.72833 22 2.34907 22H21.6584C22.2792 22 22.8745 21.7592 23.3134 21.3305C23.7524 20.9019 23.9989 20.3205 23.9989 19.7143V7.33757C24.0005 7.23452 23.9729 7.13306 23.9193 7.04434C23.8656 6.95562 23.7879 6.88308 23.6947 6.83472C23.6026 6.78142 23.4975 6.7533 23.3904 6.7533C23.2833 6.7533 23.1783 6.78142 23.0861 6.83472L13.4666 13.1545Z" fill="currentColor"/></g><defs><clipPath id="clip0_2091_217"><rect width="24" height="24" fill="currentColor"/></clipPath></defs></svg>