<svg viewBox="0 0 24 24" fill="none" xmlns="http://www.w3.org/2000/svg"><g clip-path="url(#clip0_1944_153)"><path d="M12 0C9.87827 0 7.84344 0.843093 6.34315 2.34381C4.84285 3.84452 4 5.87993 4 8.00226C4 11.5133 9 20.0057 11.15 23.5266C11.2397 23.6714 11.3648 23.7908 11.5136 23.8737C11.6623 23.9565 11.8298 24 12 24C12.1702 24 12.3377 23.9565 12.4864 23.8737C12.6352 23.7908 12.7603 23.6714 12.85 23.5266C15 20.0057 20 11.5133 20 8.00226C20 5.87993 19.1571 3.84452 17.6569 2.34381C16.1566 0.843093 14.1217 0 12 0V0ZM12 11.5033C11.3078 11.5033 10.6311 11.2979 10.0555 10.9132C9.47993 10.5285 9.03133 9.98175 8.76642 9.34203C8.50151 8.70231 8.4322 7.99838 8.56725 7.31925C8.7023 6.64013 9.03564 6.01631 9.52513 5.52669C10.0146 5.03707 10.6382 4.70363 11.3172 4.56854C11.9961 4.43346 12.6999 4.50279 13.3394 4.76777C13.9789 5.03275 14.5256 5.48148 14.9101 6.05722C15.2947 6.63295 15.5 7.30983 15.5 8.00226C15.5 8.93078 15.1313 9.82127 14.4749 10.4778C13.8185 11.1344 12.9283 11.5033 12 11.5033Z" fill="currentColor"/></g><defs><clipPath id="clip0_1944_153"><rect width="24" height="24" fill="currentColor"/></clipPath></defs></svg>