<svg viewBox="0 0 12 12" fill="none" xmlns="http://www.w3.org/2000/svg"><path d="M6 0.75C4.96165 0.75 3.94662 1.05791 3.08326 1.63478C2.2199 2.21166 1.54699 3.0316 1.14963 3.99091C0.752275 4.95022 0.648307 6.00582 0.85088 7.02422C1.05345 8.04262 1.55347 8.97808 2.28769 9.71231C3.02192 10.4465 3.95738 10.9465 4.97578 11.1491C5.99418 11.3517 7.04978 11.2477 8.00909 10.8504C8.9684 10.453 9.78834 9.7801 10.3652 8.91674C10.9421 8.05338 11.25 7.03835 11.25 6C11.25 4.60761 10.6969 3.27225 9.71231 2.28769C8.72775 1.30312 7.39239 0.75 6 0.75V0.75ZM6.63875 8.88312C6.61361 8.88719 6.59067 8.8999 6.5739 8.91907C6.55713 8.93824 6.54757 8.96266 6.54688 8.98812V9.325C6.54688 9.47004 6.48926 9.60914 6.3867 9.7117C6.28414 9.81426 6.14504 9.87187 6 9.87187C5.85496 9.87187 5.71586 9.81426 5.6133 9.7117C5.51074 9.60914 5.45313 9.47004 5.45313 9.325V9.01437C5.45313 8.98537 5.4416 8.95755 5.42109 8.93703C5.40058 8.91652 5.37276 8.905 5.34375 8.905H4.84063C4.69559 8.905 4.55649 8.84738 4.45393 8.74482C4.35137 8.64226 4.29375 8.50316 4.29375 8.35812C4.29375 8.21308 4.35137 8.07398 4.45393 7.97143C4.55649 7.86887 4.69559 7.81125 4.84063 7.81125H6.41125C6.52168 7.80721 6.6275 7.76596 6.71154 7.6942C6.79557 7.62244 6.85288 7.52438 6.87416 7.41594C6.89545 7.30751 6.87945 7.19506 6.82877 7.09686C6.7781 6.99866 6.69571 6.92048 6.595 6.875L5.0025 6.23187C4.67766 6.10503 4.4041 5.87397 4.22471 5.57491C4.04533 5.27586 3.97028 4.92572 4.01131 4.57942C4.05235 4.23311 4.20716 3.91021 4.45146 3.66137C4.69577 3.41252 5.01576 3.25178 5.36125 3.20437C5.38713 3.20018 5.41065 3.18683 5.42751 3.16676C5.44437 3.14668 5.45346 3.12122 5.45313 3.095V2.7625C5.45313 2.61746 5.51074 2.47836 5.6133 2.3758C5.71586 2.27324 5.85496 2.21562 6 2.21562C6.14504 2.21562 6.28414 2.27324 6.3867 2.3758C6.48926 2.47836 6.54688 2.61746 6.54688 2.7625V3.06875C6.54688 3.09776 6.5584 3.12558 6.57891 3.14609C6.59942 3.1666 6.62724 3.17812 6.65625 3.17812H7.15938C7.30442 3.17812 7.44352 3.23574 7.54607 3.3383C7.64863 3.44086 7.70625 3.57996 7.70625 3.725C7.70625 3.87004 7.64863 4.00914 7.54607 4.1117C7.44352 4.21426 7.30442 4.27187 7.15938 4.27187H5.58875C5.4747 4.27143 5.36407 4.31079 5.27592 4.38316C5.18778 4.45554 5.12764 4.55639 5.10587 4.66834C5.0841 4.7803 5.10206 4.89634 5.15667 4.99647C5.21127 5.0966 5.2991 5.17455 5.405 5.21687L6.9975 5.85562C7.32234 5.98247 7.59591 6.21353 7.77529 6.51259C7.95467 6.81164 8.02973 7.16178 7.98869 7.50808C7.94765 7.85439 7.79284 8.17728 7.54854 8.42613C7.30423 8.67498 6.98424 8.83572 6.63875 8.88312Z" fill="currentColor"/></svg>