<svg viewBox="0 0 12 12" fill="none" xmlns="http://www.w3.org/2000/svg"><path fill-rule="evenodd" clip-rule="evenodd" d="M9.67864 8.33308C10.2143 7.5313 10.5001 6.5887 10.5 5.62447C10.5 4.98435 10.3739 4.35049 10.129 3.75909C9.88399 3.1677 9.52494 2.63034 9.0723 2.1777C8.61967 1.72507 8.08231 1.36602 7.49091 1.12105C6.89952 0.876089 6.26566 0.750008 5.62554 0.750008C4.66131 0.749901 3.7187 1.03574 2.91693 1.57137C2.11516 2.107 1.49024 2.86837 1.12119 3.75918C0.752149 4.64999 0.655562 5.63023 0.843648 6.57594C1.03173 7.52165 1.49604 8.39034 2.17786 9.07215C2.85967 9.75396 3.72836 10.2183 4.67407 10.4064C5.61978 10.5944 6.60002 10.4979 7.49083 10.1288C8.38164 9.75977 9.14301 9.13485 9.67864 8.33308ZM3.39645 3.39645C3.59171 3.20119 3.90829 3.20119 4.10355 3.39645L5.625 4.9179L7.14645 3.39645C7.34171 3.20119 7.65829 3.20119 7.85355 3.39645C8.04882 3.59172 8.04882 3.9083 7.85355 4.10356L6.33211 5.62501L7.85355 7.14645C8.04882 7.34172 8.04882 7.6583 7.85355 7.85356C7.65829 8.04882 7.34171 8.04882 7.14645 7.85356L5.625 6.33211L4.10355 7.85356C3.90829 8.04882 3.59171 8.04882 3.39645 7.85356C3.20118 7.6583 3.20118 7.34172 3.39645 7.14645L4.91789 5.62501L3.39645 4.10356C3.20118 3.9083 3.20118 3.59172 3.39645 3.39645Z" fill="currentColor"/><path d="M9 9.00001L11 11" stroke="currentColor" stroke-linecap="round" stroke-linejoin="round"/></svg>