<svg viewBox="0 0 24 24" fill="none" xmlns="http://www.w3.org/2000/svg"><g clip-path="url(#clip0_1966_96)"><path d="M14.3619 21H9.64873C9.58594 21.002 9.52596 21.0252 9.47965 21.0656C9.43333 21.1059 9.40375 21.1607 9.39624 21.22C9.39103 21.3133 9.39103 21.4067 9.39624 21.5C9.39624 22.163 9.67334 22.7989 10.1666 23.2678C10.6598 23.7366 11.3288 24 12.0264 24C12.7239 24 13.3929 23.7366 13.8861 23.2678C14.3794 22.7989 14.6565 22.163 14.6565 21.5C14.6617 21.4067 14.6617 21.3133 14.6565 21.22C14.6526 21.1871 14.6418 21.1552 14.6249 21.1263C14.6079 21.0973 14.585 21.0719 14.5576 21.0514C14.5302 21.031 14.4988 21.0159 14.4652 21.007C14.4316 20.9982 14.3965 20.9958 14.3619 21Z" fill="currentColor"/><path d="M21.9469 19.28C20.7373 17.004 20.1066 14.4899 20.1058 11.94V11.18C20.1362 9.68856 19.7809 8.21283 19.071 6.88245C18.3611 5.55207 17.3183 4.40775 16.0343 3.55C15.2893 3.09422 14.4559 2.78481 13.5831 2.64V1.5C13.5831 1.10218 13.4168 0.720644 13.1209 0.43934C12.8249 0.158035 12.4235 0 12.005 0C11.5865 0 11.1851 0.158035 10.8891 0.43934C10.5932 0.720644 10.4269 1.10218 10.4269 1.5V2.65C9.33508 2.84539 8.30753 3.28405 7.42858 3.93C6.30454 4.80807 5.40374 5.9162 4.79347 7.1716C4.18319 8.42701 3.8792 9.79726 3.90421 11.18V11.94C3.90335 14.4899 3.27274 17.004 2.06312 19.28C2.02168 19.3539 2 19.4363 2 19.52C2 19.6037 2.02168 19.6861 2.06312 19.76C2.1137 19.8353 2.18383 19.8969 2.26675 19.939C2.34968 19.981 2.44259 20.002 2.53655 20H21.4734C21.5638 19.9986 21.6525 19.976 21.7314 19.9341C21.8104 19.8922 21.8772 19.8324 21.9258 19.76C21.9706 19.6878 21.9959 19.6062 21.9995 19.5225C22.0032 19.4388 21.9851 19.3555 21.9469 19.28Z" fill="currentColor"/></g><defs><clipPath id="clip0_1966_96"><rect width="24" height="24" fill="currentColor"/></clipPath></defs></svg>