<svg viewBox="0 0 24 24" fill="none" xmlns="http://www.w3.org/2000/svg"><g clip-path="url(#clip0_2070_369)"><path d="M20.9928 19.9782C21.2599 19.9782 21.5161 19.8632 21.705 19.6587C21.8939 19.4541 22 19.1766 22 18.8873C22 18.5979 21.8939 18.3205 21.705 18.1159C21.5161 17.9113 21.2599 17.7964 20.9928 17.7964C20.5921 17.7964 20.2078 17.624 19.9245 17.3171C19.6412 17.0102 19.482 16.594 19.482 16.16V10.8582C19.4841 9.8887 19.3482 8.92465 19.0791 8L8 20L20.9928 19.9782Z" fill="currentColor"/><path d="M13.7734 22.0013H10.1947C10.147 22.0026 10.1015 22.0181 10.0663 22.045C10.0311 22.0719 10.0087 22.1084 10.003 22.1479C9.99901 22.21 9.99901 22.2723 10.003 22.3344C10.003 22.7762 10.2134 23.1998 10.5879 23.5122C10.9624 23.8245 11.4704 24 12 24C12.5296 24 13.0376 23.8245 13.4121 23.5122C13.7866 23.1998 13.997 22.7762 13.997 22.3344C14.001 22.2723 14.001 22.21 13.997 22.1479C13.9941 22.126 13.9859 22.1047 13.973 22.0855C13.9601 22.0662 13.9428 22.0492 13.922 22.0356C13.9012 22.022 13.8773 22.0119 13.8518 22.006C13.8263 22.0001 13.7996 21.9985 13.7734 22.0013Z" fill="currentColor"/><path d="M1.00531 23.9999C1.26956 24.0041 1.52472 23.9034 1.71497 23.7199L23.7043 1.71999C23.798 1.62703 23.8724 1.51643 23.9231 1.39457C23.9739 1.27271 24 1.14201 24 1.00999C24 0.877984 23.9739 0.747279 23.9231 0.62542C23.8724 0.503561 23.798 0.392961 23.7043 0.299998C23.6114 0.20627 23.5009 0.131877 23.3791 0.0811082C23.2573 0.0303398 23.1266 0.00420165 22.9947 0.00420165C22.8627 0.00420165 22.7321 0.0303398 22.6103 0.0811082C22.4885 0.131877 22.3779 0.20627 22.285 0.299998L17.2874 5.29997C16.1523 4.09156 14.6403 3.30519 12.9995 3.06998V0.999995C12.9995 0.73478 12.8942 0.480427 12.7068 0.292892C12.5193 0.105356 12.2651 0 12 0C11.7349 0 11.4807 0.105356 11.2932 0.292892C11.1058 0.480427 11.0005 0.73478 11.0005 0.999995V3.06998C9.13665 3.42525 7.45981 4.43201 6.26963 5.91037C5.07945 7.38873 4.4535 9.24234 4.50362 11.1399V15.9999C4.50362 16.3977 4.34566 16.7793 4.06449 17.0606C3.78333 17.3419 3.40198 17.4999 3.00435 17.4999C2.73926 17.4999 2.48503 17.6053 2.29758 17.7928C2.11014 17.9803 2.00483 18.2347 2.00483 18.4999C2.00483 18.7651 2.11014 19.0195 2.29758 19.207C2.48503 19.3945 2.73926 19.4999 3.00435 19.4999H3.0943L0.295655 22.2899C0.201972 22.3828 0.127614 22.4934 0.0768698 22.6153C0.0261256 22.7372 0 22.8679 0 22.9999C0 23.1319 0.0261256 23.2626 0.0768698 23.3845C0.127614 23.5063 0.201972 23.6169 0.295655 23.7099C0.38905 23.8026 0.499813 23.8759 0.621591 23.9256C0.74337 23.9754 0.873769 24.0006 1.00531 23.9999Z" fill="currentColor"/></g><defs><clipPath id="clip0_2070_369"><rect width="24" height="24" fill="currentColor"/></clipPath></defs></svg>