<svg viewBox="0 0 24 24" fill="none" xmlns="http://www.w3.org/2000/svg"><g clip-path="url(#clip0_2070_372)"><path d="M4.49995 7.5C4.67616 7.5007 4.84943 7.45483 5.0022 7.36703C5.15498 7.27922 5.28185 7.15261 5.36995 7C5.60999 6.56136 5.91324 6.16041 6.26995 5.81C6.62438 5.4579 7.02465 5.15518 7.45995 4.91C7.5742 4.84434 7.6744 4.75682 7.75482 4.65244C7.83525 4.54805 7.89433 4.42885 7.92869 4.30163C7.96304 4.17442 7.97201 4.04168 7.95507 3.911C7.93813 3.78032 7.89561 3.65425 7.82995 3.54C7.76429 3.42575 7.67677 3.32556 7.57238 3.24513C7.468 3.1647 7.3488 3.10563 7.22158 3.07127C7.09436 3.03691 6.96162 3.02795 6.83094 3.04489C6.70026 3.06183 6.5742 3.10434 6.45995 3.17C5.87312 3.49725 5.33464 3.90448 4.85995 4.38C4.37912 4.86237 3.96541 5.40726 3.62995 6C3.56383 6.11414 3.52094 6.24023 3.50376 6.371C3.48658 6.50178 3.49544 6.63467 3.52983 6.76201C3.56422 6.88935 3.62346 7.00863 3.70415 7.11297C3.78483 7.21732 3.88536 7.30467 3.99995 7.37C4.15235 7.45638 4.32477 7.50121 4.49995 7.5V7.5Z" fill="currentColor"/><path d="M6.42995 0.710014C6.39639 0.58124 6.33746 0.460459 6.25662 0.35475C6.17578 0.249042 6.07466 0.160532 5.95917 0.0944072C5.84369 0.0282824 5.71616 -0.0141269 5.58408 -0.0303355C5.45199 -0.0465441 5.318 -0.0362259 5.18995 1.42939e-05C3.97785 0.393191 2.88193 1.08029 1.99995 2.00001C1.07661 2.87904 0.388897 3.97594 -4.67412e-05 5.19001C-0.036287 5.31806 -0.0466051 5.45205 -0.0303965 5.58414C-0.0141879 5.71623 0.0282214 5.84375 0.0943461 5.95923C0.160471 6.07472 0.248981 6.17584 0.354689 6.25668C0.460398 6.33752 0.581179 6.39645 0.709953 6.43001C0.803625 6.46089 0.90135 6.47774 0.999953 6.48001C1.22181 6.4895 1.44051 6.42486 1.62157 6.29631C1.80264 6.16776 1.93576 5.98259 1.99995 5.77001C2.25961 4.86304 2.74071 4.03486 3.39995 3.36001C4.06539 2.72294 4.8751 2.25633 5.75995 2.00001C5.89081 1.96266 6.01266 1.89898 6.11804 1.8129C6.22343 1.72681 6.31014 1.62012 6.37286 1.49936C6.43559 1.37859 6.473 1.2463 6.48282 1.11057C6.49263 0.974847 6.47464 0.838546 6.42995 0.710014V0.710014Z" fill="currentColor"/><path d="M19.1499 4.39006C18.6672 3.90541 18.1184 3.49133 17.5199 3.16006C17.4057 3.09439 17.2796 3.05188 17.1489 3.03494C17.0182 3.018 16.8855 3.02696 16.7583 3.06132C16.6311 3.09568 16.5119 3.15476 16.4075 3.23518C16.3031 3.31561 16.2156 3.41581 16.1499 3.53006C16.0843 3.64431 16.0417 3.77037 16.0248 3.90105C16.0079 4.03173 16.0168 4.16447 16.0512 4.29168C16.0855 4.4189 16.1446 4.5381 16.225 4.64249C16.3055 4.74687 16.4057 4.83439 16.5199 4.90006C16.9552 5.14523 17.3555 5.44795 17.7099 5.80006C18.0745 6.15212 18.3846 6.55656 18.6299 7.00006C18.6953 7.11464 18.7826 7.21517 18.887 7.29586C18.9913 7.37654 19.1106 7.43579 19.2379 7.47018C19.3653 7.50457 19.4981 7.51343 19.6289 7.49624C19.7597 7.47906 19.8858 7.43617 19.9999 7.37006C20.1145 7.30473 20.215 7.21737 20.2957 7.11302C20.3764 7.00868 20.4357 6.8894 20.47 6.76206C20.5044 6.63472 20.5133 6.50183 20.4961 6.37105C20.4789 6.24028 20.436 6.11419 20.3699 6.00006C20.0371 5.41123 19.6268 4.86973 19.1499 4.39006V4.39006Z" fill="currentColor"/><path d="M23.9999 5.19003C23.6253 3.98108 22.9551 2.88466 22.0499 2.00003C21.1538 1.07331 20.04 0.385728 18.8099 2.69338e-05C18.5447 -0.0755598 18.2603 -0.0426938 18.0193 0.0913947C17.7784 0.225483 17.6005 0.44981 17.5249 0.715027C17.4493 0.980243 17.4822 1.26462 17.6163 1.50561C17.7504 1.74659 17.9747 1.92444 18.2399 2.00003C19.143 2.26197 19.9674 2.74287 20.6399 3.40003C21.279 4.06783 21.7458 4.88129 21.9999 5.77003C22.0783 6.02323 22.2539 6.23498 22.4883 6.35874C22.7227 6.48249 22.9966 6.50813 23.2499 6.43003C23.3823 6.40093 23.5074 6.34522 23.6176 6.26629C23.7277 6.18736 23.8207 6.08686 23.8909 5.97089C23.961 5.85491 24.0069 5.72589 24.0256 5.59166C24.0444 5.45742 24.0356 5.32078 23.9999 5.19003Z" fill="currentColor"/><path d="M13.5002 22H10.5002C10.3676 22 10.2405 22.0421 10.1467 22.1172C10.0529 22.1922 10.0002 22.2939 10.0002 22.4C10.0002 22.8243 10.211 23.2313 10.586 23.5314C10.9611 23.8314 11.4698 24 12.0002 24C12.5307 24 13.0394 23.8314 13.4145 23.5314C13.7895 23.2313 14.0002 22.8243 14.0002 22.4C14.0002 22.2939 13.9476 22.1922 13.8538 22.1172C13.76 22.0421 13.6329 22 13.5002 22Z" fill="currentColor"/><path d="M18.5 13.65V13C18.5 9.51 16.42 6.52 13.5 5.73V4.5C13.5 4.10218 13.342 3.72064 13.0607 3.43934C12.7793 3.15804 12.3978 3 12 3C11.6022 3 11.2206 3.15804 10.9393 3.43934C10.658 3.72064 10.5 4.10218 10.5 4.5V5.73C7.57999 6.52 5.49999 9.51 5.49999 13V13.65C5.49643 15.7779 5.00013 17.876 4.04999 19.78C4.0106 19.8539 3.98999 19.9363 3.98999 20.02C3.98999 20.1037 4.0106 20.1861 4.04999 20.26C4.09625 20.3324 4.15974 20.3922 4.23478 20.4341C4.30982 20.476 4.39407 20.4986 4.47999 20.5H19.48C19.5659 20.4986 19.6502 20.476 19.7252 20.4341C19.8002 20.3922 19.8637 20.3324 19.91 20.26C19.9494 20.1861 19.97 20.1037 19.97 20.02C19.97 19.9363 19.9494 19.8539 19.91 19.78C18.9737 17.8727 18.4911 15.7747 18.5 13.65V13.65Z" fill="currentColor"/></g><defs><clipPath id="clip0_2070_372"><rect width="24" height="24" fill="currentColor"/></clipPath></defs></svg>