<svg viewBox="0 0 12 12" fill="none" xmlns="http://www.w3.org/2000/svg"><path fill-rule="evenodd" clip-rule="evenodd" d="M3.29167 1C3.06155 1 2.875 1.18655 2.875 1.41667V2.04167H9.125V1.41667C9.125 1.18655 8.93846 1 8.70833 1H3.29167ZM2.25 3.5H1.83333C1.60322 3.5 1.41667 3.31345 1.41667 3.08333C1.41667 2.85322 1.60322 2.66667 1.83333 2.66667H10.1667C10.3968 2.66667 10.5833 2.85322 10.5833 3.08333C10.5833 3.31345 10.3968 3.5 10.1667 3.5H9.75V10.1667H10.5833C10.8135 10.1667 11 10.3532 11 10.5833C11 10.8135 10.8135 11 10.5833 11H6.83333V9.75C6.83333 9.28975 6.46025 8.91667 6 8.91667C5.53975 8.91667 5.16667 9.28975 5.16667 9.75V11H1.41667C1.18655 11 1 10.8135 1 10.5833C1 10.3532 1.18655 10.1667 1.41667 10.1667H2.25V3.5ZM3.91667 3.60417C4.08925 3.60417 4.22917 3.74408 4.22917 3.91667V4.33333C4.22917 4.50592 4.08925 4.64583 3.91667 4.64583C3.74408 4.64583 3.60417 4.50592 3.60417 4.33333V3.91667C3.60417 3.74408 3.74408 3.60417 3.91667 3.60417ZM6.3125 3.91667C6.3125 3.74408 6.17258 3.60417 6 3.60417C5.82742 3.60417 5.6875 3.74408 5.6875 3.91667V4.33333C5.6875 4.50592 5.82742 4.64583 6 4.64583C6.17258 4.64583 6.3125 4.50592 6.3125 4.33333V3.91667ZM8.08333 3.60417C8.25592 3.60417 8.39583 3.74408 8.39583 3.91667V4.33333C8.39583 4.50592 8.25592 4.64583 8.08333 4.64583C7.91075 4.64583 7.77083 4.50592 7.77083 4.33333V3.91667C7.77083 3.74408 7.91075 3.60417 8.08333 3.60417ZM4.22917 5.58333C4.22917 5.41075 4.08925 5.27083 3.91667 5.27083C3.74408 5.27083 3.60417 5.41075 3.60417 5.58333V6C3.60417 6.17258 3.74408 6.3125 3.91667 6.3125C4.08925 6.3125 4.22917 6.17258 4.22917 6V5.58333ZM3.91667 6.9375C4.08925 6.9375 4.22917 7.07742 4.22917 7.25V7.66667C4.22917 7.83925 4.08925 7.97917 3.91667 7.97917C3.74408 7.97917 3.60417 7.83925 3.60417 7.66667V7.25C3.60417 7.07742 3.74408 6.9375 3.91667 6.9375ZM4.22917 8.91667C4.22917 8.74408 4.08925 8.60417 3.91667 8.60417C3.74408 8.60417 3.60417 8.74408 3.60417 8.91667V9.33333C3.60417 9.50592 3.74408 9.64583 3.91667 9.64583C4.08925 9.64583 4.22917 9.50592 4.22917 9.33333V8.91667ZM6 5.27083C6.17258 5.27083 6.3125 5.41075 6.3125 5.58333V6C6.3125 6.17258 6.17258 6.3125 6 6.3125C5.82742 6.3125 5.6875 6.17258 5.6875 6V5.58333C5.6875 5.41075 5.82742 5.27083 6 5.27083ZM6.3125 7.25C6.3125 7.07742 6.17258 6.9375 6 6.9375C5.82742 6.9375 5.6875 7.07742 5.6875 7.25V7.66667C5.6875 7.83925 5.82742 7.97917 6 7.97917C6.17258 7.97917 6.3125 7.83925 6.3125 7.66667V7.25ZM8.08333 5.27083C8.25592 5.27083 8.39583 5.41075 8.39583 5.58333V6C8.39583 6.17258 8.25592 6.3125 8.08333 6.3125C7.91075 6.3125 7.77083 6.17258 7.77083 6V5.58333C7.77083 5.41075 7.91075 5.27083 8.08333 5.27083ZM8.39583 7.25C8.39583 7.07742 8.25592 6.9375 8.08333 6.9375C7.91075 6.9375 7.77083 7.07742 7.77083 7.25V7.66667C7.77083 7.83925 7.91075 7.97917 8.08333 7.97917C8.25592 7.97917 8.39583 7.83925 8.39583 7.66667V7.25ZM8.08333 8.60417C8.25592 8.60417 8.39583 8.74408 8.39583 8.91667V9.33333C8.39583 9.50592 8.25592 9.64583 8.08333 9.64583C7.91075 9.64583 7.77083 9.50592 7.77083 9.33333V8.91667C7.77083 8.74408 7.91075 8.60417 8.08333 8.60417Z" fill="currentColor"/></svg>