<svg viewBox="0 0 24 23" fill="none" xmlns="http://www.w3.org/2000/svg"><path d="M23.8481 4.87208L20.8728 2.06022C20.7735 1.96822 20.64 1.91669 20.5009 1.91669C20.3618 1.91669 20.2283 1.96822 20.129 2.06022L7.59016 13.9102C7.49084 14.0022 7.35732 14.0537 7.21825 14.0537C7.07918 14.0537 6.94565 14.0022 6.84633 13.9102L3.87102 11.0983C3.7717 11.0063 3.63818 10.9548 3.4991 10.9548C3.36003 10.9548 3.22651 11.0063 3.12719 11.0983L0.151878 13.9102C0.0545281 14.004 0 14.1302 0 14.2617C0 14.3931 0.0545281 14.5193 0.151878 14.6131L6.84633 20.9398C6.94565 21.0318 7.07918 21.0834 7.21825 21.0834C7.35732 21.0834 7.49084 21.0318 7.59016 20.9398L23.8481 5.57504C23.9455 5.48118 24 5.35499 24 5.22356C24 5.09213 23.9455 4.96594 23.8481 4.87208Z" fill="currentColor"/></svg>