<svg viewBox="0 0 12 12" fill="none" xmlns="http://www.w3.org/2000/svg"><path d="M0.782609 7.39474C0.782609 7.17673 0.607416 7 0.391304 7C0.175193 7 0 7.17673 0 7.39474V11.6053C0 11.8233 0.175193 12 0.391304 12C0.607416 12 0.782609 11.8233 0.782609 11.6053V11.0525H9C9 10.6337 8.83509 10.2321 8.54156 9.93599C8.27792 9.67005 7.92993 9.50877 7.56102 9.47867H3.52174C3.37766 9.47867 3.26087 9.36085 3.26087 9.21551C3.26087 9.07017 3.37766 8.95235 3.52174 8.95235H5.39054C5.3136 8.73041 5.18776 8.52646 5.01982 8.35705C4.72628 8.06094 4.32816 7.89458 3.91304 7.89458H0.782609V7.39474Z" fill="currentColor"/><path fill-rule="evenodd" clip-rule="evenodd" d="M12 3.5C12 5.433 10.433 7 8.5 7C6.567 7 5 5.433 5 3.5C5 1.567 6.567 0 8.5 0C10.433 0 12 1.567 12 3.5ZM9.32963 1.54523H8.88889V1.2963C8.88889 1.08152 8.71478 0.907407 8.5 0.907407C8.28522 0.907407 8.11111 1.08152 8.11111 1.2963V1.54728C8.00092 1.55448 7.89222 1.57809 7.78866 1.61752C7.6524 1.66938 7.5277 1.74759 7.42168 1.84768C7.31567 1.94776 7.23041 2.06776 7.17079 2.20081C7.11118 2.33386 7.07836 2.47736 7.07423 2.62309C7.07406 2.62896 7.07403 2.63483 7.07413 2.6407C7.07789 2.86273 7.14944 3.0783 7.27919 3.25851C7.40789 3.43725 7.58774 3.57273 7.79496 3.64712L8.93165 4.08113L8.9408 4.08449C9.00062 4.10563 9.05254 4.14455 9.08962 4.19604C9.12498 4.24516 9.14522 4.30348 9.14793 4.36383C9.1457 4.40435 9.13604 4.44415 9.11942 4.48123C9.1016 4.52103 9.0761 4.55691 9.04439 4.58684C9.01269 4.61677 8.9754 4.64016 8.93464 4.65568C8.89389 4.67119 8.85049 4.67852 8.8069 4.67725L8.79556 4.67708H8.50517C8.50345 4.67706 8.50172 4.67705 8.5 4.67705C8.49827 4.67705 8.49655 4.67706 8.49483 4.67708H7.67037C7.45559 4.67708 7.28148 4.85119 7.28148 5.06597C7.28148 5.28075 7.45559 5.45486 7.67037 5.45486H8.11111V5.70371C8.11111 5.91849 8.28522 6.0926 8.5 6.0926C8.71478 6.0926 8.88889 5.91849 8.88889 5.70371V5.45281C8.99908 5.44561 9.10778 5.42199 9.21134 5.38257C9.3476 5.3307 9.4723 5.25249 9.57832 5.15241C9.68433 5.05232 9.76959 4.93232 9.82921 4.79928C9.88882 4.66623 9.92164 4.52273 9.92577 4.37699C9.92594 4.37113 9.92597 4.36525 9.92587 4.35938C9.92211 4.13736 9.85056 3.92179 9.72081 3.74158C9.59211 3.56283 9.41226 3.42736 9.20504 3.35297L8.06835 2.91896L8.0592 2.9156C7.99938 2.89446 7.94746 2.85554 7.91039 2.80405C7.87502 2.75492 7.85478 2.69661 7.85207 2.63626C7.8543 2.59574 7.86396 2.55594 7.88057 2.51885C7.8984 2.47906 7.9239 2.44318 7.95561 2.41324C7.98731 2.38331 8.02461 2.35992 8.06536 2.34441C8.10611 2.3289 8.14951 2.32157 8.1931 2.32284L8.20444 2.32301H9.32963C9.54441 2.32301 9.71852 2.1489 9.71852 1.93412C9.71852 1.71934 9.54441 1.54523 9.32963 1.54523Z" fill="currentColor"/></svg>