<svg viewBox="0 0 24 24" fill="none" xmlns="http://www.w3.org/2000/svg"><path d="M17.2935 13.2766C17.2935 13.0057 17.1814 12.746 16.9819 12.5544C16.7823 12.3629 16.5118 12.2553 16.2296 12.2553C15.9474 12.2553 15.6768 12.3629 15.4773 12.5544C15.2778 12.746 15.1657 13.0057 15.1657 13.2766V18.8936C15.1657 19.029 15.1097 19.1589 15.0099 19.2547C14.9102 19.3505 14.7749 19.4043 14.6338 19.4043H5.05907C4.91799 19.4043 4.78269 19.3505 4.68293 19.2547C4.58318 19.1589 4.52713 19.029 4.52713 18.8936V3.06383C4.52713 2.79297 4.63922 2.5332 4.83873 2.34168C5.03825 2.15015 5.30884 2.04255 5.591 2.04255H6.65486C6.93701 2.04255 7.20761 1.93495 7.40712 1.74343C7.60663 1.5519 7.71872 1.29214 7.71872 1.02128C7.71872 0.750417 7.60663 0.490652 7.40712 0.299125C7.20761 0.107598 6.93701 0 6.65486 0H5.591C4.74454 0 3.93274 0.322795 3.33421 0.897375C2.73567 1.47195 2.39941 2.25125 2.39941 3.06383V20.9362C2.39941 21.7487 2.73567 22.528 3.33421 23.1026C3.93274 23.6772 4.74454 24 5.591 24H14.1019C14.9483 24 15.7601 23.6772 16.3587 23.1026C16.9572 22.528 17.2935 21.7487 17.2935 20.9362V13.2766Z" fill="currentColor"/><path d="M13.2866 6.31149C13.9935 6.31149 14.5666 5.73994 14.5666 5.0349C14.5666 4.32985 13.9935 3.7583 13.2866 3.7583C12.5797 3.7583 12.0066 4.32985 12.0066 5.0349C12.0066 5.73994 12.5797 6.31149 13.2866 6.31149Z" fill="currentColor"/><path d="M17.5415 6.31149C18.2484 6.31149 18.8215 5.73994 18.8215 5.0349C18.8215 4.32985 18.2484 3.7583 17.5415 3.7583C16.8345 3.7583 16.2615 4.32985 16.2615 5.0349C16.2615 5.73994 16.8345 6.31149 17.5415 6.31149Z" fill="currentColor"/><path d="M22.3997 5.0247C22.3969 3.80666 21.8916 2.63928 20.9944 1.778C20.0972 0.916712 18.8812 0.431653 17.6123 0.428955H12.825C11.5553 0.428955 10.3376 0.913148 9.43979 1.77502C8.54198 2.63689 8.0376 3.80583 8.0376 5.0247C8.0376 6.24357 8.54198 7.41251 9.43979 8.27438C10.3376 9.13625 11.5553 9.62044 12.825 9.62044H13.0909C13.1615 9.62044 13.2291 9.64734 13.279 9.69523C13.3289 9.74311 13.3569 9.80805 13.3569 9.87576V10.897C13.3575 11.0359 13.3975 11.1719 13.4724 11.2906C13.5474 11.4094 13.6545 11.5063 13.7824 11.5711C13.8966 11.6312 14.0246 11.6628 14.1548 11.663C14.3137 11.6597 14.4685 11.6137 14.6016 11.5302L17.5272 9.6613C17.572 9.64651 17.6207 9.64651 17.6655 9.6613C18.9325 9.64514 20.1414 9.14854 21.0283 8.27988C21.9153 7.41122 22.4083 6.24103 22.3997 5.0247V5.0247ZM17.3464 8.08853C17.1884 8.08826 17.0335 8.13073 16.8996 8.21108L15.3676 9.23236C15.3252 9.25471 15.2776 9.26643 15.2293 9.26643C15.1809 9.26643 15.1334 9.25471 15.091 9.23236C15.049 9.21031 15.014 9.17781 14.9897 9.13826C14.9653 9.09872 14.9526 9.05361 14.9527 9.00768V8.85449C14.9527 8.65134 14.8686 8.45652 14.719 8.31287C14.5694 8.16923 14.3664 8.08853 14.1548 8.08853H12.825C11.9785 8.08853 11.1667 7.76573 10.5682 7.19115C9.96964 6.61657 9.63339 5.83728 9.63339 5.0247C9.63339 4.21212 9.96964 3.43282 10.5682 2.85824C11.1667 2.28367 11.9785 1.96087 12.825 1.96087H17.6123C18.4588 1.96087 19.2706 2.28367 19.8691 2.85824C20.4677 3.43282 20.8039 4.21212 20.8039 5.0247C20.8039 5.83728 20.4677 6.61657 19.8691 7.19115C19.2706 7.76573 18.4588 8.08853 17.6123 8.08853H17.3464Z" fill="currentColor"/></svg>