<svg viewBox="0 0 24 24" fill="none" xmlns="http://www.w3.org/2000/svg"><path d="M22.1962 16.792L19.8531 14.446C19.6038 14.1912 19.3062 13.9888 18.9777 13.8506C18.6493 13.7124 18.2966 13.6412 17.9404 13.6412C17.5841 13.6412 17.2314 13.7124 16.903 13.8506C16.5745 13.9888 16.2769 14.1912 16.0276 14.446L15.559 14.9152C13.1988 12.9431 11.0191 10.7639 9.04601 8.40364L9.5242 7.92485C10.0311 7.41673 10.3159 6.7279 10.3159 6.0097C10.3159 5.29149 10.0311 4.60267 9.5242 4.09454L7.20976 1.7772C6.69746 1.2788 6.0113 1 5.297 1C4.5827 1 3.89653 1.2788 3.38424 1.7772L2.10269 3.06035C1.48846 3.68351 1.106 4.49856 1.01899 5.36973C0.931982 6.24091 1.14568 7.11565 1.6245 7.84825C5.44641 13.6093 10.379 18.548 16.1328 22.3747C16.8645 22.8541 17.7381 23.0681 18.6082 22.981C19.4783 22.8939 20.2923 22.5109 20.9147 21.8959L22.1962 20.6224C22.4507 20.3727 22.6529 20.0747 22.7909 19.7459C22.9289 19.417 23 19.0639 23 18.7072C23 18.3505 22.9289 17.9974 22.7909 17.6685C22.6529 17.3397 22.4507 17.0417 22.1962 16.792Z" fill="currentColor"/></svg>