<svg viewBox="0 0 24 24" fill="none" xmlns="http://www.w3.org/2000/svg"><path d="M12 22C12.201 22.0015 12.4001 21.9625 12.5856 21.8854C12.771 21.8083 12.9388 21.6946 13.0789 21.5512C13.2191 21.4079 13.3286 21.2377 13.401 21.0511C13.4734 20.8645 13.507 20.6652 13.5 20.4653V13.9533C13.5 13.8972 13.5183 13.8426 13.5521 13.7978C13.5859 13.7529 13.6334 13.7201 13.6875 13.7044C15.0728 13.3003 16.2654 12.4124 17.0463 11.2038C17.8272 9.99514 18.1442 8.54673 17.9391 7.12424C17.734 5.70175 17.0206 4.40056 15.9297 3.45934C14.8388 2.51813 13.4436 2 12 2C10.5564 2 9.16117 2.51813 8.07028 3.45934C6.97938 4.40056 6.26596 5.70175 6.06087 7.12424C5.85578 8.54673 6.17278 9.99514 6.95372 11.2038C7.73465 12.4124 8.92716 13.3003 10.3125 13.7044C10.3666 13.7201 10.4141 13.7529 10.4479 13.7978C10.4817 13.8426 10.5 13.8972 10.5 13.9533V20.4653C10.493 20.6652 10.5266 20.8645 10.599 21.0511C10.6714 21.2377 10.7809 21.4079 10.9211 21.5512C11.0612 21.6946 11.229 21.8083 11.4144 21.8854C11.5999 21.9625 11.799 22.0015 12 22ZM10.9583 6.44587C10.9666 6.74457 10.8846 7.03886 10.723 7.29067C10.5614 7.54248 10.3276 7.74024 10.0519 7.85836C9.77614 7.97648 9.47115 8.00954 9.17635 7.95325C8.88155 7.89696 8.6105 7.75393 8.39824 7.54263C8.18599 7.33134 8.0423 7.06152 7.98576 6.76805C7.92922 6.47459 7.96242 6.17099 8.08108 5.89652C8.19974 5.62205 8.3984 5.38932 8.65136 5.22846C8.90432 5.06759 9.19995 4.98597 9.50001 4.99416C9.89144 5.00232 10.2639 5.16357 10.5368 5.44301C10.8097 5.72245 10.9612 6.09762 10.9583 6.48735V6.44587Z" fill="currentColor"/></svg>