<svg viewBox="0 0 24 24" fill="none" xmlns="http://www.w3.org/2000/svg"><g clip-path="url(#clip0_2075_435)"><path d="M12 24C14.3734 24 16.6935 23.2962 18.6668 21.9776C20.6402 20.6591 22.1783 18.7849 23.0866 16.5922C23.9948 14.3995 24.2324 11.9867 23.7694 9.65892C23.3064 7.33115 22.1635 5.19295 20.4853 3.51472C18.8071 1.83649 16.6689 0.693605 14.3411 0.230582C12.0133 -0.232441 9.60051 0.00519943 7.4078 0.913451C5.21509 1.8217 3.34094 3.35977 2.02236 5.33316C0.703788 7.30655 0 9.62663 0 12C0 15.1826 1.26428 18.2349 3.51472 20.4853C5.76516 22.7357 8.8174 24 12 24ZM6 11H10.75C10.8163 11 10.8799 10.9737 10.9268 10.9268C10.9737 10.8799 11 10.8163 11 10.75V6.00001C11 5.73479 11.1054 5.48044 11.2929 5.2929C11.4804 5.10536 11.7348 5.00001 12 5.00001C12.2652 5.00001 12.5196 5.10536 12.7071 5.2929C12.8946 5.48044 13 5.73479 13 6.00001V10.75C13 10.8163 13.0263 10.8799 13.0732 10.9268C13.1201 10.9737 13.1837 11 13.25 11H18C18.2652 11 18.5196 11.1054 18.7071 11.2929C18.8946 11.4804 19 11.7348 19 12C19 12.2652 18.8946 12.5196 18.7071 12.7071C18.5196 12.8946 18.2652 13 18 13H13.25C13.1837 13 13.1201 13.0263 13.0732 13.0732C13.0263 13.1201 13 13.1837 13 13.25V18C13 18.2652 12.8946 18.5196 12.7071 18.7071C12.5196 18.8946 12.2652 19 12 19C11.7348 19 11.4804 18.8946 11.2929 18.7071C11.1054 18.5196 11 18.2652 11 18V13.25C11 13.1837 10.9737 13.1201 10.9268 13.0732C10.8799 13.0263 10.8163 13 10.75 13H6C5.73478 13 5.48043 12.8946 5.29289 12.7071C5.10536 12.5196 5 12.2652 5 12C5 11.7348 5.10536 11.4804 5.29289 11.2929C5.48043 11.1054 5.73478 11 6 11Z" fill="currentColor"/></g><defs><clipPath id="clip0_2075_435"><rect width="24" height="24" fill="currentColor"/></clipPath></defs></svg>