<svg viewBox="0 0 24 24" fill="none" xmlns="http://www.w3.org/2000/svg"><g clip-path="url(#clip0_2083_513)"><path d="M24 1.57C24 1.36382 23.9594 1.15967 23.8805 0.969187C23.8016 0.778706 23.6859 0.60563 23.5402 0.459842C23.3944 0.314054 23.2213 0.198409 23.0308 0.119509C22.8403 0.0406092 22.6362 0 22.43 0L1.57 0C1.15361 0 0.754274 0.16541 0.459842 0.459842C0.16541 0.754274 0 1.15361 0 1.57L0 22.43C0 22.6362 0.0406092 22.8403 0.119509 23.0308C0.198409 23.2213 0.314054 23.3944 0.459842 23.5402C0.60563 23.6859 0.778706 23.8016 0.969187 23.8805C1.15967 23.9594 1.36382 24 1.57 24H22.43C22.6362 24 22.8403 23.9594 23.0308 23.8805C23.2213 23.8016 23.3944 23.6859 23.5402 23.5402C23.6859 23.3944 23.8016 23.2213 23.8805 23.0308C23.9594 22.8403 24 22.6362 24 22.43V1.57ZM6 13C5.73478 13 5.48043 12.8946 5.29289 12.7071C5.10536 12.5196 5 12.2652 5 12C5 11.7348 5.10536 11.4804 5.29289 11.2929C5.48043 11.1054 5.73478 11 6 11H10.75C10.8163 11 10.8799 10.9737 10.9268 10.9268C10.9737 10.8799 11 10.8163 11 10.75V6C11 5.73478 11.1054 5.48043 11.2929 5.29289C11.4804 5.10536 11.7348 5 12 5C12.2652 5 12.5196 5.10536 12.7071 5.29289C12.8946 5.48043 13 5.73478 13 6V10.75C13 10.8163 13.0263 10.8799 13.0732 10.9268C13.1201 10.9737 13.1837 11 13.25 11H18C18.2652 11 18.5196 11.1054 18.7071 11.2929C18.8946 11.4804 19 11.7348 19 12C19 12.2652 18.8946 12.5196 18.7071 12.7071C18.5196 12.8946 18.2652 13 18 13H13.25C13.1837 13 13.1201 13.0263 13.0732 13.0732C13.0263 13.1201 13 13.1837 13 13.25V18C13 18.2652 12.8946 18.5196 12.7071 18.7071C12.5196 18.8946 12.2652 19 12 19C11.7348 19 11.4804 18.8946 11.2929 18.7071C11.1054 18.5196 11 18.2652 11 18V13.25C11 13.1837 10.9737 13.1201 10.9268 13.0732C10.8799 13.0263 10.8163 13 10.75 13H6Z" fill="currentColor"/></g><defs><clipPath id="clip0_2083_513"><rect width="24" height="24" fill="currentColor"/></clipPath></defs></svg>