<svg viewBox="0 0 12 12" fill="none" xmlns="http://www.w3.org/2000/svg"><path fill-rule="evenodd" clip-rule="evenodd" d="M6 11.625C9.1066 11.625 11.625 9.1066 11.625 6C11.625 2.8934 9.1066 0.375 6 0.375C2.8934 0.375 0.375 2.8934 0.375 6C0.375 9.1066 2.8934 11.625 6 11.625ZM3.77145 6.77145C3.96671 6.57618 4.28329 6.57618 4.47855 6.77145L5.5 7.79289V3.32783C5.5 3.07774 5.72386 2.875 6 2.875C6.27614 2.875 6.5 3.07774 6.5 3.32783V7.79289L7.52145 6.77145C7.71671 6.57618 8.03329 6.57618 8.22855 6.77145C8.42382 6.96671 8.42382 7.28329 8.22855 7.47855L6.35355 9.35355C6.15829 9.54882 5.84171 9.54882 5.64645 9.35355L3.77145 7.47855C3.57618 7.28329 3.57618 6.96671 3.77145 6.77145Z" fill="currentColor"/></svg>