<svg xmlns="http://www.w3.org/2000/svg" fill="none" viewBox="0 0 24 24"><path fill="currentColor" fill-rule="evenodd" d="M4.7998 4.7C4.7998 2.10427 6.904 0 9.49976 0C12.0955 0 14.1997 2.10427 14.1997 4.7C14.1997 7.29572 12.0955 9.39999 9.49976 9.39999C6.904 9.39999 4.7998 7.29572 4.7998 4.7ZM0.051324 17.6838C1.38678 13.6774 5.16749 10.9 9.50001 10.9C10.7928 10.9 12.0345 11.1557 13.1762 11.6174C11.2466 13.078 10 15.3934 10 18C10 18.3387 10.021 18.6724 10.0619 19H1.00001C0.678564 19 0.376716 18.8455 0.188765 18.5847C0.000813857 18.324 -0.0503253 17.9888 0.051324 17.6838Z" clip-rule="evenodd"/><path fill="currentColor" fill-rule="evenodd" d="M18 24C21.3137 24 24 21.3137 24 18C24 14.6863 21.3137 12 18 12C14.6863 12 12 14.6863 12 18C12 21.3137 14.6863 24 18 24ZM16.5858 18L14.7929 16.2071L16.2071 14.7929L18 16.5858L19.7929 14.7929L21.2071 16.2071L19.4142 18L21.2071 19.7929L19.7929 21.2071L18 19.4142L16.2071 21.2071L14.7929 19.7929L16.5858 18Z" clip-rule="evenodd"/></svg>