<svg viewBox="0 0 24 24" fill="none" xmlns="http://www.w3.org/2000/svg"><path d="M23.8394 20.0976L21.5305 16.1177C21.5089 16.0818 21.4782 16.0521 21.4415 16.0315C21.4048 16.0109 21.3633 16 21.321 16C21.2787 16 21.2372 16.0109 21.2005 16.0315C21.1637 16.0521 21.1331 16.0818 21.1115 16.1177C19.9275 17.8907 18.1951 19.2393 16.1721 19.963C16.1385 19.975 16.108 19.9941 16.0828 20.0191C16.0575 20.044 16.0381 20.0741 16.026 20.1072C16.0089 20.1382 16 20.1729 16 20.2082C16 20.2434 16.0089 20.2781 16.026 20.3091L17.9745 23.5296C18.0687 23.6861 18.2061 23.8131 18.3706 23.8956C18.5351 23.9781 18.72 24.0129 18.9037 23.9957C19.0875 23.9786 19.2625 23.9104 19.4084 23.7989C19.5544 23.6874 19.6652 23.5373 19.7281 23.3661L20.5367 21.1647L22.8652 21.5492C23.0488 21.5825 23.2382 21.5631 23.4109 21.4932C23.5836 21.4233 23.7324 21.306 23.8394 21.1551C23.9442 20.9981 24 20.8143 24 20.6263C24 20.4384 23.9442 20.2546 23.8394 20.0976V20.0976Z" fill="currentColor"/><path d="M2.87161 16.0871C2.84664 16.0581 2.81537 16.0353 2.7802 16.0203C2.74503 16.0052 2.70688 15.9984 2.66866 16.0003C2.6276 15.9999 2.58717 16.0105 2.55152 16.0308C2.51586 16.0511 2.48625 16.0805 2.46572 16.116L0.127023 20.1159C0.0361869 20.2747 -0.00750205 20.4559 0.00105364 20.6385C0.00960933 20.8211 0.0700569 20.9976 0.175343 21.1472C0.28154 21.2985 0.429079 21.4162 0.600405 21.4862C0.771732 21.5563 0.959631 21.5758 1.14175 21.5424L3.45145 21.1568L4.25357 23.364C4.31693 23.5353 4.42778 23.6852 4.5732 23.7961C4.71863 23.907 4.89265 23.9744 5.07501 23.9905C5.26389 24.0171 5.45645 23.9874 5.62842 23.9051C5.8004 23.8228 5.9441 23.6915 6.04141 23.5279L7.97422 20.2894C7.99114 20.2583 8 20.2235 8 20.1882C8 20.1528 7.99114 20.118 7.97422 20.087C7.94678 20.0217 7.89472 19.9698 7.82926 19.9424C5.80048 19.2289 4.06007 17.8754 2.87161 16.0871Z" fill="currentColor"/><path d="M22 9.99999C22 8.02315 21.4141 6.09066 20.3163 4.44666C19.2185 2.80267 17.658 1.52093 15.8321 0.763391C14.0062 0.00584664 11.9967 -0.193517 10.0575 0.190486C8.11831 0.57449 6.33644 1.52463 4.93701 2.92087C3.53758 4.31711 2.58338 6.0968 2.19495 8.03511C1.80652 9.97341 2.00129 11.9834 2.75466 13.811C3.50804 15.6387 4.7862 17.202 6.42769 18.3036C8.06917 19.4051 10.0003 19.9955 11.9771 20C13.2919 20.0015 14.594 19.744 15.8092 19.2423C17.0244 18.7406 18.1289 18.0044 19.0596 17.0758C19.9903 16.1472 20.729 15.0444 21.2336 13.8303C21.7381 12.6163 21.9985 11.3147 22 9.99999ZM10.5714 8.4457C10.4618 8.49253 10.3434 8.51563 10.2242 8.5135C10.105 8.51136 9.98752 8.48404 9.8796 8.43331C9.77167 8.38259 9.67569 8.30961 9.59796 8.21917C9.52023 8.12873 9.46251 8.02288 9.42857 7.90856C9.38358 7.79869 9.3619 7.68068 9.3649 7.562C9.36791 7.44332 9.39554 7.32655 9.44604 7.21911C9.49654 7.11166 9.5688 7.01588 9.65826 6.93783C9.74772 6.85978 9.85242 6.80116 9.96572 6.7657L12.2514 5.98855C12.381 5.94275 12.5196 5.92876 12.6557 5.94777C12.7918 5.96678 12.9213 6.01823 13.0334 6.09777C13.1454 6.17732 13.2367 6.28264 13.2995 6.40485C13.3623 6.52706 13.3948 6.66258 13.3943 6.79998V13.6571C13.3943 13.8845 13.304 14.1025 13.1432 14.2632C12.9825 14.424 12.7645 14.5143 12.5371 14.5143C12.3098 14.5143 12.0918 14.424 11.9311 14.2632C11.7703 14.1025 11.68 13.8845 11.68 13.6571V7.94284L10.5714 8.4457Z" fill="currentColor"/></svg>