<svg viewBox="0 0 12 13" fill="none" xmlns="http://www.w3.org/2000/svg"><path fill-rule="evenodd" clip-rule="evenodd" d="M5.54858 11.7292C5.73571 11.8014 5.943 11.8014 6.13012 11.7292C7.59277 11.1557 8.84846 10.1544 9.73318 8.8561C10.6179 7.55783 11.0905 6.02292 11.0894 4.45186V2.0934C11.0894 1.87918 11.0043 1.67374 10.8528 1.52227C10.7013 1.3708 10.4959 1.28571 10.2817 1.28571H1.39705C1.18283 1.28571 0.977395 1.3708 0.825923 1.52227C0.674451 1.67374 0.589355 1.87918 0.589355 2.0934V4.45994C0.589788 6.02962 1.06318 7.56276 1.9478 8.85944C2.83242 10.1561 4.08722 11.1562 5.54858 11.7292ZM8.35213 5.31974C8.35213 6.7083 7.22649 7.83394 5.83793 7.83394C4.44938 7.83394 3.32373 6.7083 3.32373 5.31974C3.32373 3.93119 4.44938 2.80554 5.83793 2.80554C7.22649 2.80554 8.35213 3.93119 8.35213 5.31974ZM8.85125 9.19828C8.40918 9.69049 7.43652 10.7413 5.83483 11.2938C4.45605 10.7647 3.70605 10.1475 2.82324 9.1944C3.70214 8.46835 4.69526 8.10181 5.83483 8.04987C7.00738 8.09798 7.93195 8.48907 8.85125 9.19828Z" fill="currentColor"/><path d="M6.13012 11.7292L6.22012 11.9624L6.22139 11.9619L6.13012 11.7292ZM5.54858 11.7292L5.45732 11.9619L5.45859 11.9624L5.54858 11.7292ZM9.73318 8.8561L9.93978 8.99689L9.73318 8.8561ZM11.0894 4.45186H10.8394V4.45205L11.0894 4.45186ZM10.8528 1.52227L10.676 1.69905V1.69905L10.8528 1.52227ZM0.825923 1.52227L1.0027 1.69905L0.825923 1.52227ZM0.589355 4.45994H0.339355L0.339355 4.46L0.589355 4.45994ZM1.9478 8.85944L2.15432 8.71855H2.15432L1.9478 8.85944ZM5.83483 11.2938L5.74526 11.5272C5.80018 11.5483 5.86076 11.5493 5.91636 11.5302L5.83483 11.2938ZM8.85125 9.19828L9.03724 9.36533C9.08371 9.31359 9.10653 9.24483 9.10021 9.17557C9.0939 9.10632 9.05902 9.04282 9.00395 9.00034L8.85125 9.19828ZM2.82324 9.1944L2.66402 9.00166C2.61101 9.04545 2.57837 9.10915 2.5738 9.17776C2.56922 9.24637 2.5931 9.31383 2.63983 9.36428L2.82324 9.1944ZM5.83483 8.04987L5.84508 7.80008C5.83787 7.79978 5.83066 7.7998 5.82345 7.80013L5.83483 8.04987ZM6.04012 11.4959C5.91092 11.5458 5.76779 11.5458 5.63858 11.4959L5.45859 11.9624C5.70363 12.057 5.97508 12.057 6.22012 11.9624L6.04012 11.4959ZM9.52659 8.71532C8.67019 9.97203 7.45469 10.9413 6.03886 11.4964L6.22139 11.9619C7.73085 11.37 9.02673 10.3367 9.93978 8.99689L9.52659 8.71532ZM10.8394 4.45205C10.8405 5.97283 10.383 7.4586 9.52659 8.71532L9.93978 8.99689C10.8528 7.65706 11.3406 6.07302 11.3394 4.45167L10.8394 4.45205ZM10.8394 2.0934V4.45186H11.3394V2.0934H10.8394ZM10.676 1.69905C10.7806 1.80364 10.8394 1.94549 10.8394 2.0934H11.3394C11.3394 1.81288 11.2279 1.54385 11.0296 1.3455L10.676 1.69905ZM10.2817 1.53571C10.4296 1.53571 10.5714 1.59446 10.676 1.69905L11.0296 1.3455C10.8312 1.14714 10.5622 1.03571 10.2817 1.03571V1.53571ZM1.39705 1.53571H10.2817V1.03571H1.39705V1.53571ZM1.0027 1.69905C1.10729 1.59446 1.24914 1.53571 1.39705 1.53571V1.03571C1.11653 1.03571 0.847502 1.14714 0.649146 1.3455L1.0027 1.69905ZM0.839355 2.0934C0.839355 1.94549 0.898112 1.80364 1.0027 1.69905L0.649146 1.3455C0.450791 1.54385 0.339355 1.81288 0.339355 2.0934H0.839355ZM0.839355 4.45994V2.0934H0.339355V4.45994H0.839355ZM2.15432 8.71855C1.29801 7.46338 0.839774 5.97931 0.839355 4.45987L0.339355 4.46C0.339802 6.07994 0.828345 7.66215 1.74128 9.00033L2.15432 8.71855ZM5.63985 11.4964C4.22526 10.9418 3.01062 9.97372 2.15432 8.71855L1.74128 9.00033C2.65422 10.3385 3.94918 11.3706 5.45732 11.9619L5.63985 11.4964ZM5.83793 8.08394C7.36456 8.08394 8.60213 6.84637 8.60213 5.31974H8.10213C8.10213 6.57023 7.08842 7.58394 5.83793 7.58394V8.08394ZM3.07373 5.31974C3.07373 6.84637 4.31131 8.08394 5.83793 8.08394V7.58394C4.58745 7.58394 3.57373 6.57023 3.57373 5.31974H3.07373ZM5.83793 2.55554C4.31131 2.55554 3.07373 3.79312 3.07373 5.31974H3.57373C3.57373 4.06926 4.58745 3.05554 5.83793 3.05554V2.55554ZM8.60213 5.31974C8.60213 3.79312 7.36456 2.55554 5.83793 2.55554V3.05554C7.08842 3.05554 8.10213 4.06926 8.10213 5.31974H8.60213ZM5.91636 11.5302C7.58068 10.956 8.5887 9.86475 9.03724 9.36533L8.66525 9.03123C8.22966 9.51623 7.29236 10.5265 5.7533 11.0575L5.91636 11.5302ZM2.63983 9.36428C3.54111 10.3373 4.32167 10.9809 5.74526 11.5272L5.9244 11.0604C4.59044 10.5485 3.871 9.9577 3.00665 9.02452L2.63983 9.36428ZM5.82345 7.80013C4.63227 7.85442 3.58665 8.23949 2.66402 9.00166L2.98246 9.38714C3.81764 8.69721 4.75825 8.3492 5.84622 8.29961L5.82345 7.80013ZM9.00395 9.00034C8.05039 8.26469 7.0772 7.85063 5.84508 7.80008L5.82458 8.29966C6.93756 8.34532 7.81351 8.71345 8.69854 9.39622L9.00395 9.00034Z" fill="currentColor"/></svg>