<svg viewBox="0 0 12 12" fill="none" xmlns="http://www.w3.org/2000/svg"><path fill-rule="evenodd" clip-rule="evenodd" d="M3.5 1.14684e-08H3.46293C3.25275 -2.51533e-05 3.04461 0.0413639 2.85043 0.121802C2.65624 0.202241 2.4798 0.320152 2.3312 0.4688L0.4688 2.33173C0.168721 2.63172 9.06199e-05 3.03862 0 3.46293V11.2C0 11.4122 0.0842855 11.6157 0.234315 11.7657C0.384344 11.9157 0.587827 12 0.8 12H1.5V7.85714C1.5 7.49122 1.65092 7.14412 1.91328 6.89113C2.17503 6.63873 2.52628 6.5 2.88889 6.5H9.11111C9.47372 6.5 9.82497 6.63873 10.0867 6.89113C10.3491 7.14412 10.5 7.49122 10.5 7.85714V12H11.2C11.4122 12 11.6157 11.9157 11.7657 11.7657C11.9157 11.6157 12 11.4122 12 11.2V0.8C12 0.587827 11.9157 0.384344 11.7657 0.234315C11.6157 0.0842855 11.4122 1.14684e-08 11.2 1.14684e-08H10.5V3.2C10.5 3.55635 10.348 3.8905 10.0901 4.13121C9.83337 4.37084 9.49209 4.5 9.14286 4.5H4.85714C4.50791 4.5 4.16663 4.37084 3.90989 4.13121C3.65199 3.8905 3.5 3.55635 3.5 3.2V1.14684e-08ZM9.5 1.14684e-08H4.5V3.2C4.5 3.268 4.52863 3.34081 4.59221 3.40016C4.65696 3.46059 4.75172 3.5 4.85714 3.5H9.14286C9.24828 3.5 9.34304 3.46059 9.40779 3.40016C9.47137 3.34081 9.5 3.268 9.5 3.2V1.14684e-08ZM9.5 12V7.85714C9.5 7.76841 9.46362 7.67947 9.39258 7.61097C9.32093 7.54188 9.22 7.5 9.11111 7.5H2.88889C2.78 7.5 2.67907 7.54188 2.60742 7.61097C2.53638 7.67947 2.5 7.76841 2.5 7.85714V12H9.5ZM8.5 1C8.5 0.723858 8.27614 0.5 8 0.5C7.72386 0.5 7.5 0.723858 7.5 1V2C7.5 2.27614 7.72386 2.5 8 2.5C8.27614 2.5 8.5 2.27614 8.5 2V1Z" fill="currentColor"/></svg>