<svg viewBox="0 0 24 24" fill="none" xmlns="http://www.w3.org/2000/svg"><g clip-path="url(#clip0_2083_511)"><path d="M23.3828 20.53L18.7481 15.94C20.0152 14.0393 20.6115 11.7693 20.4424 9.49045C20.2732 7.21163 19.3483 5.05474 17.8146 3.36242C16.2809 1.6701 14.2263 0.539411 11.9772 0.149969C9.72812 -0.239474 7.41354 0.134666 5.40117 1.21295C3.3888 2.29124 1.79403 4.01184 0.870221 6.10141C-0.053592 8.19097 -0.253472 10.5297 0.302335 12.746C0.858141 14.9623 2.13776 16.9291 3.9379 18.334C5.73805 19.7389 7.95549 20.5013 10.238 20.5C12.2636 20.5021 14.2433 19.896 15.9214 18.76L20.566 23.41C20.9403 23.7825 21.4467 23.9916 21.9744 23.9916C22.5022 23.9916 23.0085 23.7825 23.3828 23.41C23.5761 23.2234 23.7299 22.9998 23.835 22.7524C23.94 22.5049 23.9941 22.2389 23.9941 21.97C23.9941 21.7012 23.94 21.4351 23.835 21.1877C23.7299 20.9403 23.5761 20.7166 23.3828 20.53ZM10.238 2.94001C11.6698 2.94001 13.0695 3.36497 14.2602 4.16117C15.4508 4.95737 16.379 6.08907 16.9274 7.41325C17.4758 8.73744 17.6198 10.1947 17.3412 11.6007C17.0626 13.0068 16.3739 14.2987 15.3621 15.313C14.3503 16.3273 13.0609 17.0186 11.6568 17.2995C10.2528 17.5804 8.79703 17.4382 7.47362 16.891C6.15021 16.3438 5.01853 15.4161 4.22161 14.2252C3.42468 13.0342 2.99829 11.6335 2.99632 10.2C2.99631 8.27627 3.75895 6.43118 5.11674 5.06995C6.47452 3.70872 8.31644 2.94266 10.238 2.94001V2.94001Z" fill="currentColor"/></g><defs><clipPath id="clip0_2083_511"><rect width="24" height="24" fill="currentColor"/></clipPath></defs></svg>