<svg viewBox="0 0 12 12" fill="none" xmlns="http://www.w3.org/2000/svg"><path fill-rule="evenodd" clip-rule="evenodd" d="M6 11.625C9.1066 11.625 11.625 9.1066 11.625 6C11.625 2.8934 9.1066 0.375 6 0.375C2.8934 0.375 0.375 2.8934 0.375 6C0.375 9.1066 2.8934 11.625 6 11.625ZM6.35355 2.64645L8.22855 4.52145C8.42382 4.71671 8.42382 5.03329 8.22855 5.22855C8.03329 5.42382 7.71671 5.42382 7.52145 5.22855L6.5 4.20711V9C6.5 9.27614 6.27614 9.5 6 9.5C5.72386 9.5 5.5 9.27614 5.5 9V4.20711L4.47855 5.22855C4.28329 5.42382 3.96671 5.42382 3.77145 5.22855C3.57618 5.03329 3.57618 4.71671 3.77145 4.52145L5.64645 2.64645C5.84171 2.45118 6.15829 2.45118 6.35355 2.64645Z" fill="currentColor"/></svg>