<svg viewBox="0 0 24 24" fill="none" xmlns="http://www.w3.org/2000/svg"><path d="M22.3598 9.74454L21.1041 9.29644C20.9222 9.23421 20.7559 9.13349 20.6166 9.00116C20.4773 8.86883 20.3682 8.70801 20.2968 8.52968C20.2202 8.35548 20.1807 8.16728 20.1807 7.97702C20.1807 7.78675 20.2202 7.59856 20.2968 7.42436V7.42436L20.9446 6.20949C21.1551 5.7691 21.2238 5.27434 21.1412 4.79333C21.0586 4.31232 20.8288 3.86872 20.4834 3.52363C20.138 3.17853 19.6941 2.94891 19.2127 2.86638C18.7312 2.78385 18.2361 2.85248 17.7953 3.06281L16.5794 3.64036C16.4044 3.71403 16.2163 3.75198 16.0263 3.75198C15.8363 3.75198 15.6483 3.71403 15.4732 3.64036C15.2967 3.56578 15.1375 3.45567 15.0055 3.3169C14.8734 3.17812 14.7714 3.01367 14.7058 2.83377L14.2573 1.56912C14.0922 1.10971 13.7892 0.712428 13.3896 0.431576C12.9901 0.150724 12.5135 0 12.0249 0C11.5364 0 11.0598 0.150724 10.6602 0.431576C10.2606 0.712428 9.95758 1.10971 9.7925 1.56912L9.29419 2.86365C9.22857 3.04354 9.12657 3.208 8.99454 3.34677C8.86251 3.48554 8.70329 3.59565 8.5268 3.67024C8.35171 3.74391 8.16365 3.78186 7.97368 3.78186C7.7837 3.78186 7.59564 3.74391 7.42056 3.67024L6.20469 3.06281C5.76393 2.85248 5.26875 2.78385 4.78734 2.86638C4.30593 2.94891 3.86197 3.17853 3.51659 3.52363C3.17121 3.86872 2.94139 4.31232 2.8588 4.79333C2.7762 5.27434 2.84488 5.7691 3.05538 6.20949L3.63342 7.42436C3.71 7.59856 3.74955 7.78675 3.74955 7.97702C3.74955 8.16728 3.71 8.35548 3.63342 8.52968C3.56202 8.70801 3.45293 8.86883 3.31361 9.00116C3.17429 9.13349 3.00802 9.23421 2.82616 9.29644L1.57043 9.74454C1.11063 9.90949 0.71302 10.2123 0.431935 10.6115C0.150849 11.0108 0 11.487 0 11.9751C0 12.4632 0.150849 12.9395 0.431935 13.3387C0.71302 13.7379 1.11063 14.0407 1.57043 14.2057L2.82616 14.6538C3.00802 14.716 3.17429 14.8167 3.31361 14.9491C3.45293 15.0814 3.56202 15.2422 3.63342 15.4205C3.71 15.5947 3.74955 15.7829 3.74955 15.9732C3.74955 16.1635 3.71 16.3517 3.63342 16.5259L3.05538 17.7407C2.82699 18.1827 2.74419 18.6854 2.8188 19.1772C2.89342 19.669 3.12164 20.1247 3.47087 20.4791C3.8201 20.8336 4.27249 21.0687 4.76345 21.151C5.25441 21.2333 5.75883 21.1584 6.20469 20.9372L7.42056 20.3696C7.59424 20.2906 7.78285 20.2498 7.97368 20.2498C8.1645 20.2498 8.35311 20.2906 8.5268 20.3696C8.70426 20.4426 8.86433 20.5522 8.99655 20.6911C9.12878 20.8301 9.2302 20.9954 9.29419 21.1762L9.74267 22.4309C9.90775 22.8903 10.2108 23.2876 10.6104 23.5684C11.0099 23.8493 11.4865 24 11.9751 24C12.4636 24 12.9402 23.8493 13.3398 23.5684C13.7394 23.2876 14.0424 22.8903 14.2075 22.4309L14.656 21.1762C14.72 20.9954 14.8214 20.8301 14.9536 20.6911C15.0858 20.5522 15.2459 20.4426 15.4234 20.3696C15.5971 20.2906 15.7857 20.2498 15.9765 20.2498C16.1673 20.2498 16.3559 20.2906 16.5296 20.3696L17.7455 20.9372C18.1927 21.1776 18.7055 21.2676 19.208 21.1938C19.7104 21.1201 20.1757 20.8865 20.5347 20.5277C20.8938 20.1689 21.1276 19.704 21.2015 19.202C21.2753 18.7 21.1852 18.1876 20.9446 17.7407L20.3666 16.5259C20.29 16.3517 20.2505 16.1635 20.2505 15.9732C20.2505 15.7829 20.29 15.5947 20.3666 15.4205C20.438 15.2422 20.5471 15.0814 20.6864 14.9491C20.8257 14.8167 20.992 14.716 21.1738 14.6538L22.4296 14.2057C22.8894 14.0407 23.287 13.7379 23.5681 13.3387C23.8491 12.9395 24 12.4632 24 11.9751C24 11.487 23.8491 11.0108 23.5681 10.6115C23.287 10.2123 22.8894 9.90949 22.4296 9.74454H22.3598ZM11.9751 16.7449C11.0353 16.7222 10.1211 16.4343 9.33812 15.9145C8.55513 15.3947 7.93527 14.6642 7.55012 13.8074C7.30847 13.2268 7.18382 12.6044 7.18331 11.9757C7.18279 11.347 7.30643 10.7243 7.54713 10.1434C7.78783 9.56249 8.14087 9.03474 8.58603 8.59038C9.03118 8.14601 9.5597 7.79376 10.1413 7.55381C11.3165 7.08504 12.6284 7.09335 13.7975 7.57697C14.9666 8.06059 15.9004 8.98129 16.4001 10.1429C16.6417 10.7234 16.7664 11.3458 16.7669 11.9745C16.7674 12.6033 16.6437 13.2259 16.403 13.8068C16.1623 14.3877 15.8093 14.9155 15.3641 15.3598C14.919 15.8042 14.3905 16.1564 13.8089 16.3964C13.2286 16.639 12.604 16.7577 11.9751 16.7449V16.7449Z" fill="currentColor"/></svg>