<svg viewBox="0 0 24 24" fill="none" xmlns="http://www.w3.org/2000/svg"><g clip-path="url(#clip0_2107_390)"><path d="M19.0001 14.0043C18.3297 14.0056 17.6664 14.1417 17.0497 14.4044C16.4329 14.6671 15.8754 15.0511 15.4101 15.5336L9.92011 12.7848C9.96753 12.5274 9.99428 12.2667 10.0001 12.0051C9.99428 11.7435 9.96753 11.4828 9.92011 11.2254L15.4101 8.47662C16.2179 9.30953 17.2904 9.83563 18.4437 9.96471C19.5971 10.0938 20.7594 9.81782 21.7315 9.1841C22.7036 8.55039 23.4248 7.5984 23.7716 6.49136C24.1184 5.38431 24.0692 4.19115 23.6323 3.11644C23.1954 2.04172 22.3981 1.15239 21.3771 0.600899C20.3561 0.0494119 19.1749 -0.129878 18.0362 0.093766C16.8974 0.31741 15.8719 0.930058 15.1355 1.82668C14.3991 2.7233 13.9977 3.84805 14.0001 5.0081C14.0059 5.2697 14.0327 5.53042 14.0801 5.78777L8.59011 8.53659C7.89838 7.81928 7.00795 7.32499 6.03315 7.11717C5.05834 6.90936 4.04364 6.99752 3.11932 7.37032C2.195 7.74311 1.40324 8.38355 0.845686 9.20939C0.288133 10.0352 -0.00976563 11.0088 -0.00976562 12.0051C-0.00976563 13.0014 0.288133 13.975 0.845686 14.8008C1.40324 15.6267 2.195 16.2671 3.11932 16.6399C4.04364 17.0127 5.05834 17.1009 6.03315 16.8931C7.00795 16.6852 7.89838 16.1909 8.59011 15.4736L14.0801 18.2225C14.0327 18.4798 14.0059 18.7405 14.0001 19.0021C14.0001 19.9906 14.2934 20.9569 14.8428 21.7788C15.3922 22.6007 16.1731 23.2413 17.0867 23.6196C18.0003 23.9978 19.0057 24.0968 19.9756 23.904C20.9455 23.7111 21.8364 23.2351 22.5356 22.5362C23.2349 21.8372 23.7111 20.9467 23.904 19.9772C24.097 19.0077 23.9979 18.0028 23.6195 17.0895C23.2411 16.1763 22.6002 15.3957 21.778 14.8466C20.9557 14.2974 19.989 14.0043 19.0001 14.0043V14.0043Z" fill="currentColor"/></g><defs><clipPath id="clip0_2107_390"><rect width="24" height="24" fill="currentColor"/></clipPath></defs></svg>