<svg viewBox="0 0 10 10" fill="none" xmlns="http://www.w3.org/2000/svg"><path d="M5.27692 9.94842C5.09871 10.0172 4.90129 10.0172 4.72308 9.94842C3.33252 9.41454 2.13662 8.47136 1.29334 7.24347C0.450073 6.01559 -0.000897092 4.56077 4.92892e-06 3.07118V1.06339C-0.000417176 0.979159 0.0262823 0.897025 0.076154 0.829141C0.126026 0.761257 0.196421 0.711227 0.276928 0.686453C3.35914 -0.228818 6.64086 -0.228818 9.72307 0.686453C9.80358 0.711227 9.87397 0.761257 9.92385 0.829141C9.97372 0.897025 10.0004 0.979159 10 1.06339V3.07118C10.0009 4.56077 9.54993 6.01559 8.70666 7.24347C7.86338 8.47136 6.66748 9.41454 5.27692 9.94842Z" fill="currentColor"/></svg>