<svg viewBox="0 0 24 24" fill="none" xmlns="http://www.w3.org/2000/svg"><path d="M9.17383 5.04348C9.17383 5.10113 9.19673 5.15643 9.2375 5.1972C9.27827 5.23797 9.33356 5.26087 9.39122 5.26087H14.0434C14.0861 5.2622 14.1281 5.2504 14.1639 5.22708C14.1997 5.20376 14.2274 5.17002 14.2434 5.13043C14.2606 5.09001 14.2656 5.04546 14.2579 5.00222C14.2502 4.95898 14.23 4.91893 14.1999 4.88696L11.6956 2.38261C11.4501 2.13952 11.1193 2.00218 10.7738 2H9.39122C9.33356 2 9.27827 2.0229 9.2375 2.06367C9.19673 2.10444 9.17383 2.15974 9.17383 2.21739V5.04348Z" fill="currentColor"/><path d="M14.8696 9.55649C14.9187 9.54485 14.9624 9.51713 14.9939 9.47774C15.0255 9.43834 15.0429 9.38954 15.0435 9.3391V6.78258C15.0435 6.72492 15.0206 6.66963 14.9798 6.62886C14.939 6.58809 14.8837 6.56519 14.8261 6.56519H2.21739C2.15974 6.56519 2.10444 6.58809 2.06367 6.62886C2.0229 6.66963 2 6.72492 2 6.78258V14.6087C2 14.9546 2.13742 15.2864 2.38203 15.531C2.62665 15.7756 2.95841 15.913 3.30435 15.913H9.2087C9.25727 15.9053 9.30178 15.8812 9.33495 15.8449C9.36812 15.8086 9.38798 15.7621 9.3913 15.713C9.52931 14.237 10.1352 12.8437 11.1207 11.7362C12.1061 10.6288 13.4196 9.86507 14.8696 9.55649Z" fill="currentColor"/><path d="M7.65218 5.26087C7.70984 5.26087 7.76513 5.23797 7.8059 5.1972C7.84667 5.15643 7.86958 5.10113 7.86958 5.04348V2.21739C7.86958 2.15974 7.84667 2.10444 7.8059 2.06367C7.76513 2.0229 7.70984 2 7.65218 2H6.26958C5.92414 2.00218 5.59328 2.13952 5.34784 2.38261L2.84349 4.88696C2.81337 4.91893 2.79322 4.95898 2.7855 5.00222C2.77778 5.04546 2.78282 5.09001 2.80001 5.13043C2.81489 5.17079 2.84238 5.20528 2.87841 5.22877C2.91444 5.25227 2.95708 5.26352 3.00001 5.26087H7.65218Z" fill="currentColor"/><path d="M16.3477 10.6957C15.2298 10.6957 14.137 11.0272 13.2076 11.6482C12.2781 12.2693 11.5536 13.1521 11.1258 14.1849C10.698 15.2177 10.5861 16.3541 10.8042 17.4505C11.0223 18.547 11.5606 19.5541 12.351 20.3445C13.1415 21.135 14.1486 21.6733 15.245 21.8914C16.3415 22.1095 17.4779 21.9976 18.5107 21.5698C19.5435 21.142 20.4263 20.4175 21.0473 19.488C21.6684 18.5585 21.9999 17.4657 21.9999 16.3479C21.9976 14.8495 21.4014 13.4132 20.3419 12.3537C19.2824 11.2942 17.8461 10.698 16.3477 10.6957V10.6957ZM15.6956 19.8261C15.6956 19.7685 15.6727 19.7132 15.6319 19.6724C15.5911 19.6316 15.5358 19.6087 15.4782 19.6087H15.0434C14.8704 19.6087 14.7045 19.54 14.5822 19.4177C14.4599 19.2954 14.3912 19.1295 14.3912 18.9565C14.3912 18.7836 14.4599 18.6177 14.5822 18.4954C14.7045 18.3731 14.8704 18.3044 15.0434 18.3044H16.7825C16.9027 18.3057 17.0195 18.2648 17.1126 18.1888C17.2057 18.1128 17.2692 18.0066 17.292 17.8886C17.3147 17.7706 17.2954 17.6483 17.2372 17.5432C17.1791 17.438 17.0859 17.3565 16.9738 17.3131L15.1825 16.5913C14.8152 16.4486 14.5042 16.1902 14.2964 15.8553C14.0887 15.5204 13.9954 15.127 14.0308 14.7345C14.0661 14.3419 14.2281 13.9715 14.4923 13.679C14.7565 13.3866 15.1086 13.1879 15.4956 13.1131C15.5447 13.1048 15.5892 13.0792 15.6211 13.0409C15.653 13.0026 15.6702 12.9542 15.6695 12.9044V12.6348C15.6695 12.4618 15.7382 12.296 15.8605 12.1737C15.9828 12.0513 16.1487 11.9826 16.3216 11.9826C16.4946 11.9826 16.6605 12.0513 16.7828 12.1737C16.9051 12.296 16.9738 12.4618 16.9738 12.6348V12.8696C16.9738 12.9272 16.9967 12.9825 17.0375 13.0233C17.0783 13.0641 17.1336 13.087 17.1912 13.087H17.626C17.799 13.087 17.9648 13.1557 18.0872 13.278C18.2095 13.4003 18.2782 13.5662 18.2782 13.7392C18.2782 13.9121 18.2095 14.078 18.0872 14.2003C17.9648 14.3226 17.799 14.3913 17.626 14.3913H15.8869C15.7508 14.3913 15.6203 14.4454 15.5241 14.5416C15.4279 14.6378 15.3738 14.7683 15.3738 14.9044C15.3722 15.0074 15.4021 15.1085 15.4596 15.194C15.5172 15.2795 15.5995 15.3453 15.6956 15.3826L17.4869 16.1044C17.8598 16.242 18.1771 16.4987 18.3895 16.8347C18.602 17.1707 18.6978 17.5674 18.6622 17.9634C18.6265 18.3593 18.4614 18.7325 18.1924 19.0252C17.9234 19.3179 17.5654 19.5138 17.1738 19.5826C17.1247 19.5909 17.0802 19.6165 17.0483 19.6548C17.0164 19.6931 16.9992 19.7415 16.9999 19.7913V20.0609C16.9999 20.2339 16.9312 20.3997 16.8089 20.5221C16.6866 20.6444 16.5207 20.7131 16.3477 20.7131C16.1748 20.7131 16.0089 20.6444 15.8866 20.5221C15.7643 20.3997 15.6956 20.2339 15.6956 20.0609V19.8261Z" fill="currentColor"/></svg>