<svg viewBox="0 0 24 24" fill="none" xmlns="http://www.w3.org/2000/svg"><path fill-rule="evenodd" clip-rule="evenodd" d="M17.5893 12.3623L18.9776 14.8588H21.3417C21.6061 14.8542 21.8467 15.0108 21.9493 15.2543C22.0519 15.4978 21.9958 15.7792 21.8076 15.9648L19.637 18.3338L20.8395 21.0939C20.948 21.353 20.8787 21.6524 20.6673 21.8376C20.456 22.0229 20.1498 22.0526 19.9067 21.9115L16.9995 20.2754L14.0933 21.9086C13.8501 22.0491 13.5443 22.0192 13.333 21.8342C13.1217 21.6492 13.0519 21.3503 13.1595 21.091L14.363 18.3309L12.1924 15.9638C12.0042 15.7782 11.9481 15.4969 12.0507 15.2534C12.1533 15.0099 12.3939 14.8533 12.6583 14.8579H15.0224L16.4097 12.3614C16.5225 12.1395 16.7507 11.9998 16.9998 12C17.249 12.0002 17.4769 12.1403 17.5893 12.3623Z" fill="currentColor"/><path fill-rule="evenodd" clip-rule="evenodd" d="M7.59054 12.3619L8.97795 14.8587H11.3421C11.6062 14.8546 11.8464 15.0112 11.9491 15.2543C12.0517 15.4975 11.9963 15.7786 11.809 15.9647L9.63735 18.3339L10.8409 21.0944C10.9484 21.3536 10.8787 21.6526 10.6674 21.8376C10.4561 22.0226 10.1503 22.0525 9.90702 21.912L7.00069 20.2758L4.09341 21.9092C3.85083 22.0491 3.54602 22.0193 3.33515 21.8352C3.12428 21.651 3.05408 21.3532 3.16052 21.0944L4.36308 18.3339L2.19238 15.9647C2.0042 15.7791 1.94809 15.4977 2.05067 15.2542C2.15326 15.0107 2.3939 14.854 2.65835 14.8587H5.02248L6.41085 12.3619C6.52352 12.1399 6.75153 12 7.00069 12C7.24986 12 7.47787 12.1399 7.59054 12.3619Z" fill="currentColor"/><path fill-rule="evenodd" clip-rule="evenodd" d="M12.5901 2.36114L13.9772 4.85633H16.3414C16.6059 4.85171 16.8467 5.00841 16.9493 5.25206C17.0519 5.4957 16.9958 5.77722 16.8075 5.96297L14.6369 8.33149L15.8399 11.0933C15.9484 11.3526 15.8791 11.6522 15.6676 11.8375C15.4562 12.0229 15.1499 12.0526 14.9066 11.9114L12 10.2753L9.09336 11.9086C8.85014 12.0498 8.54382 12.02 8.33236 11.8347C8.12091 11.6493 8.05156 11.3498 8.16007 11.0905L9.36315 8.33149L7.19247 5.96297C7.0042 5.77722 6.94806 5.4957 7.0507 5.25206C7.15333 5.00841 7.39407 4.85171 7.65863 4.85633H10.0219L11.4109 2.36114C11.5238 2.13955 11.7516 2 12.0005 2C12.2494 2 12.4772 2.13955 12.5901 2.36114Z" fill="currentColor"/></svg>