<svg viewBox="0 0 24 24" fill="none" xmlns="http://www.w3.org/2000/svg"><path d="M24 14.3162C23.9995 13.3948 23.7284 12.4949 23.2219 11.7328C22.7155 10.9707 21.9969 10.3816 21.1592 10.0418C21.1126 10.0234 21.0724 9.99117 21.0439 9.94925C21.0154 9.90733 20.9998 9.85764 20.9991 9.80658V9.20326C20.9991 6.7624 20.0506 4.42152 18.3623 2.69557C16.674 0.969626 14.3841 0 11.9965 0C9.60885 0 7.319 0.969626 5.63068 2.69557C3.94236 4.42152 2.99387 6.7624 2.99387 9.20326V9.80658C2.99322 9.85764 2.97763 9.90733 2.9491 9.94925C2.92058 9.99117 2.88042 10.0234 2.83382 10.0418C1.98393 10.3883 1.25752 10.9913 0.751384 11.7706C0.245249 12.5498 -0.016571 13.4682 0.000812817 14.4034C0.0181966 15.3387 0.313959 16.2462 0.848687 17.0053C1.38342 17.7643 2.13171 18.3387 2.99387 18.6519C3.21984 18.7336 3.46167 18.7588 3.69911 18.7253C3.93655 18.6918 4.16268 18.6006 4.35857 18.4594C4.55447 18.3182 4.71443 18.1311 4.82506 17.9138C4.93569 17.6964 4.99378 17.4551 4.99445 17.2101V9.20326C4.99445 7.30481 5.73216 5.48413 7.0453 4.14172C8.35844 2.79932 10.1394 2.04517 11.9965 2.04517C13.8536 2.04517 15.6345 2.79932 16.9477 4.14172C18.2608 5.48413 18.9985 7.30481 18.9985 9.20326V17.2101C19.0076 17.5949 19.1617 17.9612 19.4287 18.2327C19.4719 18.284 19.4966 18.349 19.4987 18.4167V18.8871C19.4987 20.3903 18.2083 20.9323 16.998 20.9323H15.3575C15.3162 20.9319 15.2757 20.9215 15.2392 20.902C15.2027 20.8824 15.1712 20.8542 15.1474 20.8198C14.966 20.5418 14.7207 20.3135 14.4329 20.1548C14.1452 19.9962 13.8238 19.912 13.4969 19.9097C13.1507 19.9073 12.8097 19.9968 12.5075 20.1694C12.2052 20.3421 11.9519 20.592 11.7724 20.8947C11.5929 21.1974 11.4934 21.5426 11.4835 21.8964C11.4736 22.2502 11.5537 22.6006 11.716 22.9133C11.8783 23.226 12.1172 23.4903 12.4093 23.6803C12.7015 23.8704 13.0368 23.9796 13.3827 23.9974C13.7285 24.0152 14.0729 23.9409 14.3822 23.7819C14.6916 23.6228 14.9552 23.3844 15.1474 23.0899C15.1712 23.0555 15.2027 23.0274 15.2392 23.0078C15.2757 22.9883 15.3162 22.9778 15.3575 22.9775H16.998C19.6487 22.9775 21.4993 21.2902 21.4993 18.8871V18.5497C21.5002 18.5039 21.5126 18.4591 21.5354 18.4197C21.5582 18.3803 21.5905 18.3476 21.6293 18.3247C22.3407 17.9364 22.9365 17.3591 23.3537 16.6536C23.7709 15.9481 23.9942 15.1406 24 14.3162Z" fill="currentColor"/></svg>