<svg viewBox="0 0 24 24" fill="none" xmlns="http://www.w3.org/2000/svg"><g clip-path="url(#clip0_2075_437)"><path d="M19 11C17.6739 11 16.4021 11.5268 15.4645 12.4645C14.5268 13.4021 14 14.6739 14 16C14 19.17 18.46 23.66 18.65 23.85C18.6949 23.8978 18.7491 23.936 18.8093 23.962C18.8695 23.9881 18.9344 24.0015 19 24.0015C19.0656 24.0015 19.1305 23.9881 19.1907 23.962C19.2509 23.936 19.3051 23.8978 19.35 23.85C19.54 23.66 24 19.17 24 16C24 15.3434 23.8707 14.6932 23.6194 14.0866C23.3681 13.48 22.9998 12.9288 22.5355 12.4645C22.0712 12.0002 21.52 11.6319 20.9134 11.3806C20.3068 11.1293 19.6566 11 19 11V11ZM19 17.75C18.6539 17.75 18.3155 17.6474 18.0278 17.4551C17.74 17.2628 17.5157 16.9895 17.3832 16.6697C17.2508 16.3499 17.2161 15.9981 17.2836 15.6586C17.3512 15.3191 17.5178 15.0073 17.7626 14.7626C18.0073 14.5178 18.3191 14.3511 18.6586 14.2836C18.9981 14.2161 19.3499 14.2508 19.6697 14.3832C19.9895 14.5157 20.2628 14.74 20.4551 15.0278C20.6474 15.3155 20.75 15.6539 20.75 16C20.75 16.4641 20.5656 16.9092 20.2374 17.2374C19.9092 17.5656 19.4641 17.75 19 17.75Z" fill="currentColor"/><path d="M14 8.99984C14 9.26506 14.1054 9.51941 14.2929 9.70695C14.4804 9.89448 14.7348 9.99984 15 9.99984C15.2652 9.99984 15.5196 9.89448 15.7071 9.70695C15.8946 9.51941 16 9.26506 16 8.99984V3.30984C16.0008 3.26384 16.0143 3.21896 16.039 3.18014C16.0637 3.14133 16.0987 3.11008 16.14 3.08984C16.1798 3.06796 16.2246 3.05648 16.27 3.05648C16.3155 3.05648 16.3602 3.06796 16.4 3.08984L20.79 6.22984C20.8547 6.27691 20.9074 6.33855 20.9439 6.40978C20.9804 6.48101 20.9996 6.55982 21 6.63984V8.99984C21 9.26506 21.1054 9.51941 21.2929 9.70695C21.4804 9.89448 21.7348 9.99984 22 9.99984C22.2652 9.99984 22.5196 9.89448 22.7071 9.70695C22.8946 9.51941 23 9.26506 23 8.99984V6.13984C22.9997 5.90102 22.9424 5.66572 22.8328 5.45352C22.7232 5.24133 22.5645 5.05836 22.37 4.91984L15.87 0.279841C15.616 0.0989652 15.3119 0.00176614 15 0.00176614C14.6881 0.00176614 14.384 0.0989652 14.13 0.279841L8.32 4.41984C8.23569 4.48552 8.13187 4.52119 8.025 4.52119C7.91813 4.52119 7.81431 4.48552 7.73 4.41984L2.43 0.319841C2.20694 0.146575 1.94001 0.038887 1.65916 0.00885909C1.37831 -0.0211688 1.09465 0.0276508 0.84 0.149841C0.58828 0.274471 0.376312 0.46684 0.227921 0.705326C0.0795301 0.943811 0.000598985 1.21896 0 1.49984L0 16.3898C0.00077 16.6226 0.0553256 16.852 0.159407 17.0601C0.263488 17.2683 0.414277 17.4496 0.6 17.5898L7.11 22.4698C7.36964 22.6646 7.68544 22.7698 8.01 22.7698C8.32155 22.7661 8.62473 22.6685 8.88 22.4898L13.25 19.3598C13.4572 19.2075 13.5978 18.9812 13.6425 18.7279C13.6872 18.4747 13.6326 18.2139 13.49 17.9998C13.4142 17.8917 13.3178 17.7996 13.2062 17.7289C13.0946 17.6583 12.9702 17.6104 12.84 17.5881C12.7099 17.5658 12.5766 17.5695 12.4478 17.5989C12.3191 17.6284 12.1975 17.6831 12.09 17.7598L9.4 19.6598C9.36016 19.6817 9.31545 19.6932 9.27 19.6932C9.22455 19.6932 9.17984 19.6817 9.14 19.6598C9.10091 19.6421 9.06729 19.6141 9.04267 19.579C9.01805 19.5438 9.00331 19.5027 9 19.4598V6.65984C9.00038 6.57982 9.01959 6.50101 9.05607 6.42978C9.09255 6.35855 9.14528 6.29691 9.21 6.24984L13.6 3.10984C13.6398 3.08796 13.6845 3.07648 13.73 3.07648C13.7754 3.07648 13.8202 3.08796 13.86 3.10984C13.9013 3.13008 13.9363 3.16133 13.961 3.20014C13.9857 3.23896 13.9992 3.28384 14 3.32984V8.99984ZM7 19.3898C7.00035 19.4361 6.98732 19.4815 6.96249 19.5205C6.93765 19.5595 6.90206 19.5906 6.86 19.6098C6.82017 19.6317 6.77545 19.6432 6.73 19.6432C6.68455 19.6432 6.63983 19.6317 6.6 19.6098L2.2 16.3098C2.13847 16.2627 2.08847 16.2022 2.05382 16.1329C2.01916 16.0636 2.00076 15.9873 2 15.9098V2.99984C2 2.95341 2.01293 2.9079 2.03734 2.86841C2.06175 2.82891 2.09667 2.797 2.1382 2.77623C2.17972 2.75547 2.22621 2.74668 2.27245 2.75085C2.31869 2.75502 2.36286 2.77198 2.4 2.79984L6.81 6.19984C6.87369 6.24889 6.92434 6.31286 6.95747 6.3861C6.99061 6.45935 7.00521 6.53962 7 6.61984V19.3898Z" fill="currentColor"/></g><defs><clipPath id="clip0_2075_437"><rect width="24" height="24" fill="currentColor"/></clipPath></defs></svg>