<svg viewBox="0 0 24 24" fill="none" xmlns="http://www.w3.org/2000/svg"><g clip-path="url(#clip0_2075_439)"><path d="M20.6899 11.5H20.7499C20.948 11.4974 21.1373 11.4176 21.2774 11.2775C21.4175 11.1374 21.4973 10.9481 21.4999 10.75C21.4999 3 14.6199 0 10.7499 0C8.35758 0.00132724 6.03406 0.800614 4.1472 2.27131C2.26035 3.74202 0.917976 5.80009 0.332623 8.11969C-0.252729 10.4393 -0.0476146 12.8879 0.915492 15.0778C1.8786 17.2677 3.54466 19.0737 5.6499 20.21C5.82337 20.2972 6.02362 20.3147 6.20957 20.2589C6.39552 20.2031 6.55307 20.0783 6.6499 19.91C6.73881 19.7358 6.75617 19.5338 6.69826 19.347C6.64035 19.1602 6.51176 19.0034 6.3399 18.91C5.39651 18.3895 4.54789 17.7133 3.8299 16.91C3.8062 16.869 3.79373 16.8224 3.79373 16.775C3.79373 16.7276 3.8062 16.681 3.8299 16.64C3.84567 16.6052 3.86919 16.5745 3.89866 16.5503C3.92812 16.526 3.96276 16.5088 3.9999 16.5H5.6299C5.82881 16.5 6.01958 16.421 6.16023 16.2803C6.30088 16.1397 6.3799 15.9489 6.3799 15.75C6.3799 15.5511 6.30088 15.3603 6.16023 15.2197C6.01958 15.079 5.82881 15 5.6299 15H2.6899C2.64196 15.0023 2.59442 14.9902 2.55342 14.9653C2.51242 14.9403 2.47984 14.9037 2.4599 14.86C1.98484 13.8928 1.68037 12.8508 1.5599 11.78C1.5549 11.7443 1.55767 11.708 1.56802 11.6734C1.57838 11.6389 1.59608 11.607 1.6199 11.58C1.64444 11.5544 1.67396 11.5341 1.70663 11.5204C1.73931 11.5066 1.77445 11.4997 1.8099 11.5H20.6899ZM2.4699 6.64C2.48809 6.59714 2.51886 6.56081 2.55814 6.53581C2.59743 6.51081 2.64337 6.49832 2.6899 6.5H6.1199C6.15621 6.50031 6.19201 6.50851 6.22482 6.52406C6.25763 6.5396 6.28667 6.5621 6.3099 6.59C6.33478 6.61824 6.35235 6.65216 6.36107 6.68877C6.36979 6.72538 6.36939 6.76358 6.3599 6.8C6.15498 7.78772 6.03785 8.79163 6.0099 9.8C6.00502 9.86374 5.97683 9.92345 5.93072 9.96772C5.8846 10.012 5.82379 10.0377 5.7599 10.04H1.8099C1.77445 10.0403 1.73931 10.0334 1.70663 10.0196C1.67396 10.0059 1.64444 9.98558 1.6199 9.96C1.59608 9.93296 1.57838 9.90108 1.56802 9.86656C1.55767 9.83204 1.5549 9.79569 1.5599 9.76C1.67139 8.6734 1.97975 7.61616 2.4699 6.64V6.64ZM19.9399 9.72C19.9449 9.75569 19.9421 9.79204 19.9318 9.82656C19.9214 9.86108 19.9037 9.89296 19.8799 9.92C19.8554 9.94558 19.8258 9.96588 19.7932 9.97964C19.7605 9.99339 19.7254 10.0003 19.6899 10H15.6899C15.626 9.99773 15.5652 9.972 15.5191 9.92772C15.473 9.88345 15.4448 9.82374 15.4399 9.76C15.412 8.75163 15.2948 7.74772 15.0899 6.76C15.0732 6.72751 15.0645 6.69152 15.0645 6.655C15.0645 6.61848 15.0732 6.58249 15.0899 6.55C15.1131 6.5221 15.1422 6.4996 15.175 6.48406C15.2078 6.46851 15.2436 6.46031 15.2799 6.46H18.7099C18.7564 6.45832 18.8024 6.47081 18.8417 6.49581C18.8809 6.52081 18.9117 6.55714 18.9299 6.6C19.4548 7.56937 19.7972 8.62692 19.9399 9.72V9.72ZM13.9399 9.72C13.942 9.75328 13.9368 9.78662 13.9247 9.8177C13.9126 9.84878 13.8939 9.87687 13.8699 9.9C13.8469 9.92483 13.8191 9.94472 13.7881 9.95848C13.7572 9.97223 13.7238 9.97955 13.6899 9.98H7.6899C7.65604 9.97955 7.62263 9.97223 7.59169 9.95848C7.56075 9.94472 7.53292 9.92483 7.5099 9.9C7.48588 9.87687 7.46718 9.84878 7.45509 9.8177C7.44301 9.78662 7.43782 9.75328 7.4399 9.72C7.48129 8.70866 7.62197 7.70383 7.8599 6.72C7.87153 6.66534 7.90187 6.61646 7.94568 6.58177C7.98949 6.54709 8.04404 6.52878 8.0999 6.53H13.2599C13.3158 6.52878 13.3703 6.54709 13.4141 6.58177C13.4579 6.61646 13.4883 6.66534 13.4999 6.72C13.7757 7.70554 13.9433 8.71817 13.9999 9.74L13.9399 9.72ZM17.5899 4.56C17.6136 4.60105 17.6261 4.64761 17.6261 4.695C17.6261 4.7424 17.6136 4.78895 17.5899 4.83C17.5704 4.87472 17.5382 4.91275 17.4973 4.9394C17.4565 4.96606 17.4087 4.98017 17.3599 4.98H14.8299C14.7774 4.97921 14.7264 4.96254 14.6836 4.9322C14.6407 4.90185 14.6081 4.85925 14.5899 4.81C14.2981 3.96978 13.9334 3.15669 13.4999 2.38C13.4754 2.3356 13.4625 2.28571 13.4625 2.235C13.4625 2.18428 13.4754 2.1344 13.4999 2.09C13.5339 2.04226 13.583 2.0074 13.6392 1.99107C13.6955 1.97473 13.7556 1.97788 13.8099 2C15.2834 2.52393 16.6007 3.41134 17.6399 4.58L17.5899 4.56ZM11.0799 1.51C11.1172 1.51077 11.1537 1.52021 11.1867 1.53757C11.2197 1.55493 11.2482 1.57972 11.2699 1.61C11.9424 2.57303 12.5027 3.60976 12.9399 4.7C12.9575 4.7304 12.9667 4.76489 12.9667 4.8C12.9667 4.83511 12.9575 4.8696 12.9399 4.9C12.9203 4.93009 12.8937 4.95493 12.8623 4.97236C12.8309 4.98979 12.7958 4.99928 12.7599 5H8.8099C8.76869 4.99962 8.72815 4.98945 8.69164 4.97033C8.65512 4.9512 8.62368 4.92367 8.5999 4.89C8.58297 4.85403 8.57419 4.81476 8.57419 4.775C8.57419 4.73524 8.58297 4.69597 8.5999 4.66C9.0357 3.60131 9.58918 2.59498 10.2499 1.66C10.2732 1.62895 10.3034 1.60375 10.3381 1.58639C10.3728 1.56904 10.4111 1.56 10.4499 1.56H11.0999L11.0799 1.51ZM7.6899 2C7.74416 1.97788 7.80429 1.97473 7.86056 1.99107C7.91683 2.0074 7.96593 2.04226 7.9999 2.09C8.02662 2.13181 8.04081 2.18039 8.04081 2.23C8.04081 2.27961 8.02662 2.32819 7.9999 2.37C7.57123 3.15946 7.20672 3.98211 6.9099 4.83C6.893 4.88006 6.86066 4.92348 6.81754 4.95403C6.77443 4.98457 6.72274 5.00066 6.6699 5H4.0499C4.00111 5.00017 3.95333 4.98606 3.91246 4.9594C3.87159 4.93275 3.83942 4.89472 3.8199 4.85C3.7962 4.80895 3.78373 4.7624 3.78373 4.715C3.78373 4.66761 3.7962 4.62105 3.8199 4.58C4.87026 3.40576 6.202 2.51794 7.6899 2V2Z" fill="currentColor"/><path d="M20.3 14.25H19.3C19.2566 14.249 19.2144 14.2352 19.1788 14.2103C19.1432 14.1854 19.1158 14.1505 19.1 14.11C18.9721 13.7881 18.7521 13.511 18.4675 13.3136C18.1829 13.1161 17.8463 13.007 17.5 13H9.5C9.03668 13.0026 8.59309 13.1878 8.26546 13.5155C7.93784 13.8431 7.75263 14.2867 7.75 14.75V20.75C7.75372 21.0802 7.84922 21.4029 8.02582 21.6819C8.20242 21.9609 8.45316 22.1853 8.75 22.33C8.81016 22.3576 8.85691 22.408 8.88 22.47C9.02606 22.8992 9.29836 23.2742 9.6612 23.5459C10.0241 23.8177 10.4605 23.9735 10.9134 23.993C11.3664 24.0124 11.8146 23.8946 12.1994 23.655C12.5842 23.4153 12.8877 23.065 13.07 22.65C13.0895 22.6053 13.1217 22.5672 13.1626 22.5406C13.2034 22.5139 13.2512 22.4998 13.3 22.5H16.22C16.2688 22.4998 16.3166 22.5139 16.3574 22.5406C16.3983 22.5672 16.4305 22.6053 16.45 22.65C16.6182 23.0286 16.8876 23.3535 17.2287 23.5887C17.5697 23.824 17.969 23.9605 18.3827 23.9833C18.7964 24.006 19.2083 23.9141 19.5731 23.7177C19.9379 23.5212 20.2413 23.2279 20.45 22.87C20.4712 22.8332 20.5019 22.8027 20.5388 22.7816C20.5757 22.7605 20.6175 22.7496 20.66 22.75H22.1C22.6129 22.7243 23.0963 22.5023 23.45 22.13C23.8037 21.7577 24.0006 21.2636 24 20.75V18.25C24.0379 17.2294 23.6698 16.2354 22.9763 15.4857C22.2828 14.736 21.3204 14.2916 20.3 14.25V14.25ZM17.75 21.75C17.75 21.6017 17.794 21.4567 17.8764 21.3333C17.9588 21.21 18.0759 21.1139 18.213 21.0571C18.35 21.0003 18.5008 20.9855 18.6463 21.0144C18.7918 21.0434 18.9254 21.1148 19.0303 21.2197C19.1352 21.3246 19.2066 21.4582 19.2356 21.6037C19.2645 21.7492 19.2497 21.9 19.1929 22.037C19.1361 22.1741 19.04 22.2912 18.9167 22.3736C18.7933 22.456 18.6483 22.5 18.5 22.5C18.3019 22.4974 18.1126 22.4176 17.9725 22.2775C17.8324 22.1374 17.7526 21.9481 17.75 21.75V21.75ZM11 22.5C10.8517 22.5 10.7067 22.456 10.5833 22.3736C10.46 22.2912 10.3639 22.1741 10.3071 22.037C10.2503 21.9 10.2355 21.7492 10.2644 21.6037C10.2933 21.4582 10.3648 21.3246 10.4697 21.2197C10.5746 21.1148 10.7082 21.0434 10.8537 21.0144C10.9992 20.9855 11.15 21.0003 11.287 21.0571C11.4241 21.1139 11.5412 21.21 11.6236 21.3333C11.706 21.4567 11.75 21.6017 11.75 21.75C11.7474 21.9481 11.6676 22.1374 11.5275 22.2775C11.3874 22.4176 11.1981 22.4974 11 22.5V22.5ZM22 18C22.0065 18.0357 22.0044 18.0724 21.994 18.1072C21.9836 18.142 21.9651 18.1738 21.94 18.2C21.9168 18.2279 21.8877 18.2504 21.8549 18.2659C21.8221 18.2815 21.7863 18.2897 21.75 18.29H20.25C20.2135 18.2905 20.1774 18.2829 20.1441 18.268C20.1108 18.253 20.0812 18.2309 20.0574 18.2033C20.0336 18.1756 20.0161 18.1431 20.0062 18.108C19.9963 18.0729 19.9942 18.036 20 18V16.52C20.0003 16.4837 20.0085 16.4479 20.0241 16.4151C20.0396 16.3823 20.0621 16.3532 20.09 16.33C20.1162 16.3049 20.148 16.2864 20.1828 16.276C20.2176 16.2656 20.2543 16.2635 20.29 16.27C20.7256 16.3303 21.1291 16.5324 21.4382 16.8451C21.7474 17.1579 21.9448 17.5638 22 18Z" fill="currentColor"/></g><defs><clipPath id="clip0_2075_439"><rect width="24" height="24" fill="currentColor"/></clipPath></defs></svg>