<svg viewBox="0 0 24 24" fill="none" xmlns="http://www.w3.org/2000/svg"><g clip-path="url(#clip0_2075_433)"><path d="M10.5 1.49996H0.5C0.367392 1.49996 0.240215 1.55264 0.146447 1.64641C0.0526784 1.74018 0 1.86735 0 1.99996L0 13.5C0 13.6326 0.0526784 13.7597 0.146447 13.8535C0.240215 13.9473 0.367392 14 0.5 14H11.5C11.6326 14 11.7598 13.9473 11.8536 13.8535C11.9473 13.7597 12 13.6326 12 13.5V2.68996C11.9574 2.33392 11.7758 2.00913 11.4949 1.78627C11.214 1.5634 10.8564 1.4605 10.5 1.49996V1.49996ZM9 4.99996V10.5C9 10.6989 8.92098 10.8896 8.78033 11.0303C8.63968 11.1709 8.44891 11.25 8.25 11.25C8.05109 11.25 7.86032 11.1709 7.71967 11.0303C7.57902 10.8896 7.5 10.6989 7.5 10.5V4.99996C7.5 4.80105 7.57902 4.61028 7.71967 4.46963C7.86032 4.32898 8.05109 4.24996 8.25 4.24996C8.44891 4.24996 8.63968 4.32898 8.78033 4.46963C8.92098 4.61028 9 4.80105 9 4.99996ZM4.5 4.99996V10.5C4.5 10.6989 4.42098 10.8896 4.28033 11.0303C4.13968 11.1709 3.94891 11.25 3.75 11.25C3.55109 11.25 3.36032 11.1709 3.21967 11.0303C3.07902 10.8896 3 10.6989 3 10.5V4.99996C3 4.80105 3.07902 4.61028 3.21967 4.46963C3.36032 4.32898 3.55109 4.24996 3.75 4.24996C3.94891 4.24996 4.13968 4.32898 4.28033 4.46963C4.42098 4.61028 4.5 4.80105 4.5 4.99996Z" fill="currentColor"/><path d="M20.22 4.16C20.1593 4.14648 20.1058 4.11083 20.07 4.06L19.33 3C18 1 14.64 1 14.5 1C14.2348 1 13.9804 1.10536 13.7929 1.29289C13.6053 1.48043 13.5 1.73478 13.5 2V15C13.5 15.1379 13.4452 15.2702 13.3477 15.3677C13.2501 15.4652 13.1179 15.52 12.98 15.52H0.49997C0.370755 15.5199 0.246518 15.5698 0.153304 15.6593C0.06009 15.7488 0.00513852 15.8709 -3.00271e-05 16V18.27C-0.00128181 18.3152 0.0102563 18.3598 0.0332556 18.3987C0.0562549 18.4377 0.0897799 18.4693 0.12997 18.49C0.168729 18.515 0.213861 18.5283 0.25997 18.5283C0.306079 18.5283 0.351211 18.515 0.38997 18.49C0.867173 18.1727 1.42693 18.0024 1.99997 18C2.67401 18.0022 3.32768 18.2312 3.8556 18.6503C4.38353 19.0694 4.75494 19.654 4.90997 20.31C4.92473 20.363 4.95592 20.4099 4.99905 20.4441C5.04217 20.4782 5.09501 20.4978 5.14997 20.5H5.84997C5.90493 20.4978 5.95777 20.4782 6.00089 20.4441C6.04402 20.4099 6.07521 20.363 6.08997 20.31C6.245 19.654 6.61641 19.0694 7.14434 18.6503C7.67226 18.2312 8.32593 18.0022 8.99997 18C9.50999 18.0028 10.0109 18.1356 10.4553 18.3858C10.8998 18.636 11.2731 18.9954 11.54 19.43C11.6 19.52 11.65 19.53 11.82 19.53H13C13.1212 19.5326 13.2367 19.5818 13.3224 19.6676C13.4081 19.7533 13.4574 19.8688 13.46 19.99C13.46 20.2552 13.5653 20.5096 13.7529 20.6971C13.9404 20.8846 14.1948 20.99 14.46 20.99H14.72C14.783 20.9902 14.8437 20.9666 14.89 20.924C14.9364 20.8813 14.9649 20.8228 14.97 20.76C14.97 19.9644 15.286 19.2013 15.8486 18.6387C16.4113 18.0761 17.1743 17.76 17.97 17.76C18.7656 17.76 19.5287 18.0761 20.0913 18.6387C20.6539 19.2013 20.97 19.9644 20.97 20.76C20.975 20.8228 21.0036 20.8813 21.0499 20.924C21.0963 20.9666 21.157 20.9902 21.22 20.99H22C22.5304 20.99 23.0391 20.7793 23.4142 20.4042C23.7893 20.0291 24 19.5204 24 18.99V9C23.998 7.88774 23.6252 6.80789 22.9406 5.93129C22.256 5.05469 21.2986 4.43139 20.22 4.16V4.16ZM22.22 11.73C22.2241 11.7623 22.2217 11.7952 22.2127 11.8265C22.2038 11.8578 22.1886 11.887 22.168 11.9123C22.1474 11.9375 22.1219 11.9583 22.093 11.9734C22.0641 11.9885 22.0325 11.9976 22 12H19.25C19.2125 12.0008 19.1753 11.9931 19.1412 11.9775C19.107 11.9619 19.0769 11.9389 19.0529 11.9101C19.0288 11.8813 19.0116 11.8474 19.0025 11.8111C18.9933 11.7747 18.9925 11.7367 19 11.7V6.26C18.9991 6.22595 19.0059 6.19213 19.0197 6.161C19.0336 6.12987 19.0541 6.10221 19.08 6.08C19.1045 6.05442 19.134 6.03412 19.1667 6.02036C19.1994 6.00661 19.2345 5.99968 19.27 6C20.0472 6.05572 20.7783 6.38969 21.3293 6.94068C21.8803 7.49167 22.2142 8.22278 22.27 9L22.22 11.73Z" fill="currentColor"/><path d="M2 23C3.10457 23 4 22.1046 4 21C4 19.8954 3.10457 19 2 19C0.89543 19 0 19.8954 0 21C0 22.1046 0.89543 23 2 23Z" fill="currentColor"/><path d="M9 23C10.1046 23 11 22.1046 11 21C11 19.8954 10.1046 19 9 19C7.89543 19 7 19.8954 7 21C7 22.1046 7.89543 23 9 23Z" fill="currentColor"/><path d="M18 23C19.1046 23 20 22.1046 20 21C20 19.8954 19.1046 19 18 19C16.8954 19 16 19.8954 16 21C16 22.1046 16.8954 23 18 23Z" fill="currentColor"/></g><defs><clipPath id="clip0_2075_433"><rect width="24" height="24" fill="currentColor"/></clipPath></defs></svg>