<svg viewBox="0 0 24 24" fill="none" xmlns="http://www.w3.org/2000/svg"><path d="M21.543 6.97895C21.5576 7.19593 21.5576 7.41292 21.5576 7.63191C21.5576 14.3045 16.6045 22 7.54759 22V21.996C4.87215 22 2.25229 21.2141 0 19.7321C0.389031 19.7801 0.780012 19.8041 1.17197 19.8051C3.38915 19.8071 5.54296 19.0442 7.28726 17.6393C5.18026 17.5983 3.3326 16.1894 2.68714 14.1325C3.42523 14.2785 4.18574 14.2485 4.91018 14.0455C2.61304 13.5695 0.96039 11.4997 0.96039 9.09581C0.96039 9.07382 0.96039 9.05282 0.96039 9.03182C1.64485 9.42279 2.41121 9.63978 3.19512 9.66378C1.03157 8.18087 0.364656 5.22906 1.67118 2.9212C4.17112 6.07601 7.8596 7.99388 11.8191 8.19687C11.4223 6.44298 11.9644 4.6051 13.2436 3.37218C15.2268 1.4603 18.3459 1.55829 20.2101 3.59116C21.3129 3.36818 22.3698 2.9532 23.337 2.36524C22.9694 3.53417 22.2001 4.5271 21.1725 5.15806C22.1484 5.04007 23.102 4.77209 24 4.36311C23.3389 5.37905 22.5063 6.26399 21.543 6.97895Z" fill="currentColor"/></svg>