<svg viewBox="0 0 24 24" fill="none" xmlns="http://www.w3.org/2000/svg"><path d="M6.93333 21.8667H2.4C2.32928 21.8667 2.26145 21.8386 2.21144 21.7886C2.16143 21.7386 2.13333 21.6707 2.13333 21.6V17.0667C2.13333 16.7838 2.02095 16.5125 1.82091 16.3124C1.62088 16.1124 1.34956 16 1.06667 16C0.783769 16 0.512458 16.1124 0.312419 16.3124C0.112381 16.5125 0 16.7838 0 17.0667L0 21.8667C0 22.4325 0.224761 22.9751 0.624839 23.3752C1.02492 23.7752 1.56754 24 2.13333 24H6.93333C7.21623 24 7.48754 23.8876 7.68758 23.6876C7.88762 23.4875 8 23.2162 8 22.9333C8 22.6504 7.88762 22.3791 7.68758 22.1791C7.48754 21.979 7.21623 21.8667 6.93333 21.8667Z" fill="currentColor"/><path d="M1.06667 8C1.34956 8 1.62088 7.88762 1.82091 7.68758C2.02095 7.48754 2.13333 7.21623 2.13333 6.93333V2.4C2.13333 2.32928 2.16143 2.26145 2.21144 2.21144C2.26145 2.16143 2.32928 2.13333 2.4 2.13333H6.93333C7.21623 2.13333 7.48754 2.02095 7.68758 1.82091C7.88762 1.62088 8 1.34956 8 1.06667C8 0.783769 7.88762 0.512458 7.68758 0.312419C7.48754 0.112381 7.21623 0 6.93333 0L2.13333 0C1.56754 0 1.02492 0.224761 0.624839 0.624839C0.224761 1.02492 0 1.56754 0 2.13333L0 6.93333C0 7.21623 0.112381 7.48754 0.312419 7.68758C0.512458 7.88762 0.783769 8 1.06667 8Z" fill="currentColor"/><path d="M22.9333 16C22.6504 16 22.3791 16.1124 22.1791 16.3124C21.979 16.5125 21.8667 16.7838 21.8667 17.0667V21.6C21.8667 21.6707 21.8386 21.7386 21.7886 21.7886C21.7386 21.8386 21.6707 21.8667 21.6 21.8667H17.0667C16.7838 21.8667 16.5125 21.979 16.3124 22.1791C16.1124 22.3791 16 22.6504 16 22.9333C16 23.2162 16.1124 23.4875 16.3124 23.6876C16.5125 23.8876 16.7838 24 17.0667 24H21.8667C22.4325 24 22.9751 23.7752 23.3752 23.3752C23.7752 22.9751 24 22.4325 24 21.8667V17.0667C24 16.7838 23.8876 16.5125 23.6876 16.3124C23.4875 16.1124 23.2162 16 22.9333 16Z" fill="currentColor"/><path d="M21.8667 0H17.0667C16.7838 0 16.5125 0.112381 16.3124 0.312419C16.1124 0.512458 16 0.783769 16 1.06667C16 1.34956 16.1124 1.62088 16.3124 1.82091C16.5125 2.02095 16.7838 2.13333 17.0667 2.13333H21.6C21.6707 2.13333 21.7386 2.16143 21.7886 2.21144C21.8386 2.26145 21.8667 2.32928 21.8667 2.4V6.93333C21.8667 7.21623 21.979 7.48754 22.1791 7.68758C22.3791 7.88762 22.6504 8 22.9333 8C23.2162 8 23.4875 7.88762 23.6876 7.68758C23.8876 7.48754 24 7.21623 24 6.93333V2.13333C24 1.56754 23.7752 1.02492 23.3752 0.624839C22.9751 0.224761 22.4325 0 21.8667 0V0Z" fill="currentColor"/><path d="M17.9388 16.9032C17.6036 15.9948 17.0706 15.1744 16.3794 14.5026C15.6882 13.8308 14.8564 13.3249 13.9456 13.0223C13.8951 13.0085 13.8504 12.9784 13.8184 12.9365C13.7864 12.8946 13.7689 12.8433 13.7684 12.7903C13.7638 12.738 13.7753 12.6856 13.8015 12.6402C13.8276 12.5949 13.8671 12.5589 13.9144 12.5372C14.8257 12.1033 15.5636 11.3684 16.0067 10.4535C16.4497 9.53854 16.5713 8.49825 16.3516 7.50403C16.1318 6.50981 15.5837 5.62099 14.7977 4.98403C14.0116 4.34708 13.0344 4 12.0272 4C11.02 4 10.0429 4.34708 9.25683 4.98403C8.47077 5.62099 7.92269 6.50981 7.70292 7.50403C7.48315 8.49825 7.6048 9.53854 8.04783 10.4535C8.49086 11.3684 9.22883 12.1033 10.1401 12.5372C10.1874 12.5589 10.2268 12.5949 10.253 12.6402C10.2791 12.6856 10.2907 12.738 10.2861 12.7903C10.2846 12.8442 10.2668 12.8964 10.2351 12.9398C10.2034 12.9831 10.1594 13.0156 10.1088 13.0329C9.18335 13.3273 8.33673 13.832 7.63376 14.5083C6.93078 15.1846 6.3901 16.0146 6.05308 16.9348C6.00706 17.0538 5.99059 17.1823 6.00513 17.3092C6.01968 17.4361 6.06478 17.5574 6.13649 17.6625C6.20914 17.7675 6.30594 17.8531 6.41854 17.9119C6.53115 17.9707 6.65619 18.0009 6.78291 18H17.209C17.3357 18.0009 17.4608 17.9707 17.5734 17.9119C17.686 17.8531 17.7828 17.7675 17.8554 17.6625C17.9325 17.5538 17.9807 17.4269 17.9953 17.2939C18.0099 17.1609 17.9905 17.0264 17.9388 16.9032Z" fill="currentColor"/></svg>