<svg xmlns="http://www.w3.org/2000/svg" viewBox="0 0 24 24"><g><path d="M9.2,15a3.23,3.23,0,0,1,3-2,.25.25,0,0,0,.23-.16.27.27,0,0,0-.06-.27A7.47,7.47,0,0,0,.06,15.86a.53.53,0,0,0,.08.44.54.54,0,0,0,.4.2H8.47A.5.5,0,0,0,9,16,3.08,3.08,0,0,1,9.2,15Z" fill="currentColor"/><circle cx="7.04" cy="4.75" r="4.75" fill="currentColor"/><path d="M20.69,23.83a1.28,1.28,0,0,0,1.51-.17,1.26,1.26,0,0,0,.31-1.45L21.29,19.4a.26.26,0,0,1,.06-.29l2.22-2a1.28,1.28,0,0,0,.3-1.38A1.24,1.24,0,0,0,22.7,15H20.2a.25.25,0,0,1-.23-.15l-1.35-3.12v0a1.29,1.29,0,0,0-1.15-.7,1.31,1.31,0,0,0-1.17.73L15,14.85a.25.25,0,0,1-.23.15h-2.5a1.23,1.23,0,0,0-1.17.76,1.27,1.27,0,0,0,.32,1.39l2.19,2a.26.26,0,0,1,.07.29L12.4,22.21a1.24,1.24,0,0,0,.32,1.45,1.29,1.29,0,0,0,1.5.17l3.11-1.75a.23.23,0,0,1,.25,0Z" fill="currentColor"/></g></svg>