<svg viewBox="0 0 24 24" fill="none" xmlns="http://www.w3.org/2000/svg"><g clip-path="url(#clip0_2083_509)"><path d="M11.87 11.7333C15.1119 11.7333 17.74 9.10674 17.74 5.86667C17.74 2.6266 15.1119 0 11.87 0C8.62809 0 6 2.6266 6 5.86667C6 9.10674 8.62809 11.7333 11.87 11.7333Z" fill="currentColor"/><path d="M11.9995 13.3333C9.3482 13.3362 6.80628 14.4047 4.93152 16.3044C3.05676 18.2042 2.0023 20.78 1.99951 23.4667C1.99951 23.6081 2.05496 23.7438 2.15367 23.8438C2.25237 23.9438 2.38624 24 2.52583 24H21.4732C21.6128 24 21.7467 23.9438 21.8454 23.8438C21.9441 23.7438 21.9995 23.6081 21.9995 23.4667C21.9967 20.78 20.9423 18.2042 19.0675 16.3044C17.1927 14.4047 14.6508 13.3362 11.9995 13.3333Z" fill="currentColor"/></g><defs><clipPath id="clip0_2083_509"><rect width="24" height="24" fill="currentColor"/></clipPath></defs></svg>