<svg viewBox="0 0 12 12" fill="none" xmlns="http://www.w3.org/2000/svg"><g clip-path="url(#clip0_2107_389)"><path d="M12 8.38504C11.9998 8.19096 11.9355 8.00238 11.817 7.84865C11.6985 7.69492 11.5326 7.58466 11.345 7.53504L9.61495 7.08504C9.54583 7.06631 9.48483 7.02528 9.44143 6.96831C9.39804 6.91135 9.37466 6.84165 9.37495 6.77004C9.37582 6.32271 9.26237 5.88258 9.04535 5.49143C8.82833 5.10027 8.51495 4.77106 8.13495 4.53504L6.99995 3.82504C6.95896 3.80161 6.91532 3.78315 6.86995 3.77004C6.85215 3.767 6.83544 3.75942 6.82143 3.74803C6.80741 3.73664 6.79657 3.72184 6.78995 3.70504C6.61835 3.345 6.34843 3.04082 6.01136 2.82761C5.67429 2.61439 5.2838 2.50083 4.88495 2.50004H3.74995C3.68365 2.50004 3.62006 2.52638 3.57318 2.57326C3.52629 2.62015 3.49995 2.68373 3.49995 2.75004V9.62504C3.49995 9.65819 3.48678 9.68998 3.46334 9.71343C3.4399 9.73687 3.40811 9.75004 3.37495 9.75004H2.87495C2.8418 9.75004 2.81001 9.73687 2.78657 9.71343C2.76312 9.68998 2.74995 9.65819 2.74995 9.62504V2.00004C2.76541 1.60845 2.64707 1.22328 2.41441 0.907923C2.18176 0.592567 1.84866 0.36583 1.46995 0.265039L0.304953 3.85474e-05C0.26786 -0.00833911 0.229343 -0.00814412 0.192336 0.000608672C0.155329 0.00936147 0.120807 0.0264414 0.0913959 0.0505485C0.0619853 0.0746555 0.0384618 0.105154 0.0226159 0.139724C0.00676991 0.174293 -0.000980884 0.212022 -4.66002e-05 0.250039V9.63504C-0.000672493 9.65763 0.00509657 9.67995 0.0165962 9.69941C0.0280958 9.71887 0.0448584 9.73469 0.0649534 9.74504C0.0843327 9.75753 0.106899 9.76417 0.129953 9.76417C0.153008 9.76417 0.175574 9.75753 0.194953 9.74504C0.433555 9.58641 0.713435 9.50123 0.999953 9.50004C1.39778 9.50004 1.77931 9.65807 2.06061 9.93938C2.34192 10.2207 2.49995 10.6022 2.49995 11C2.50042 11.1165 2.48528 11.2326 2.45495 11.345C2.44662 11.3613 2.44227 11.3793 2.44227 11.3975C2.44227 11.4158 2.44662 11.4338 2.45495 11.45C2.46582 11.4652 2.48006 11.4776 2.49655 11.4863C2.51304 11.4949 2.53132 11.4997 2.54995 11.5C6.49995 11.5 7.39995 11.5 7.65495 11.5C7.69227 11.4939 7.72606 11.4743 7.74995 11.445C7.75714 11.4293 7.76087 11.4123 7.76087 11.395C7.76087 11.3778 7.75714 11.3607 7.74995 11.345C7.73457 11.2306 7.73457 11.1145 7.74995 11C7.74995 10.6022 7.90799 10.2207 8.18929 9.93938C8.4706 9.65807 8.85213 9.50004 9.24995 9.50004C9.64778 9.50004 10.0293 9.65807 10.3106 9.93938C10.5919 10.2207 10.75 10.6022 10.75 11C10.7496 11.0334 10.7622 11.0656 10.785 11.09C10.8101 11.1116 10.8418 11.124 10.875 11.125H11.63C11.7281 11.1225 11.8215 11.082 11.8905 11.0121C11.9595 10.9421 11.9987 10.8482 12 10.75V8.38504ZM5.49995 5.25004C5.56626 5.25004 5.62985 5.27638 5.67673 5.32326C5.72361 5.37015 5.74995 5.43373 5.74995 5.50004V7.00004C5.74995 7.06634 5.72361 7.12993 5.67673 7.17682C5.62985 7.2237 5.56626 7.25004 5.49995 7.25004H4.99995C4.93365 7.25004 4.87006 7.2237 4.82318 7.17682C4.77629 7.12993 4.74995 7.06634 4.74995 7.00004V5.50004C4.74995 5.43373 4.77629 5.37015 4.82318 5.32326C4.87006 5.27638 4.93365 5.25004 4.99995 5.25004H5.49995ZM8.36995 6.75004C8.37135 6.76671 8.36892 6.78349 8.36286 6.79908C8.35679 6.81468 8.34725 6.82869 8.33495 6.84004C8.32385 6.85295 8.31002 6.86324 8.29445 6.87016C8.27889 6.87708 8.26198 6.88045 8.24495 6.88004H7.35995C7.3268 6.88004 7.29501 6.86687 7.27156 6.84343C7.24812 6.81998 7.23495 6.78819 7.23495 6.75504V5.36504C7.23525 5.34329 7.24146 5.32203 7.25291 5.30354C7.26436 5.28504 7.28062 5.27001 7.29995 5.26004C7.31857 5.24799 7.34028 5.24157 7.36245 5.24157C7.38463 5.24157 7.40634 5.24799 7.42495 5.26004C7.70161 5.3995 7.93547 5.61111 8.1018 5.8725C8.26814 6.13389 8.36079 6.43535 8.36995 6.74504V6.75004Z" fill="currentColor"/><path d="M9.25 12C9.80228 12 10.25 11.5523 10.25 11C10.25 10.4477 9.80228 10 9.25 10C8.69772 10 8.25 10.4477 8.25 11C8.25 11.5523 8.69772 12 9.25 12Z" fill="currentColor"/><path d="M1 12C1.55228 12 2 11.5523 2 11C2 10.4477 1.55228 10 1 10C0.447715 10 0 10.4477 0 11C0 11.5523 0.447715 12 1 12Z" fill="currentColor"/></g><defs><clipPath id="clip0_2107_389"><rect width="12" height="12" fill="currentColor"/></clipPath></defs></svg>