<svg viewBox="0 0 26 25" fill="none" xmlns="http://www.w3.org/2000/svg"><path fill-rule="evenodd" clip-rule="evenodd" d="M11.73 2.35699C12.0394 1.97241 12.5064 1.74875 13 1.74875C13.4936 1.74875 13.9606 1.97241 14.27 2.35699L15.782 4.23799C16.13 4.67167 16.6752 4.89788 17.228 4.83799L19.628 4.57699C20.1201 4.52232 20.6104 4.69431 20.9605 5.04444C21.3107 5.39456 21.4826 5.88486 21.428 6.37699L21.167 8.77699C21.1071 9.3298 21.3333 9.87498 21.767 10.223L23.648 11.735C24.0326 12.0444 24.2562 12.5114 24.2562 13.005C24.2562 13.4986 24.0326 13.9656 23.648 14.275L21.761 15.78C21.3274 16.1285 21.1013 16.6739 21.161 17.227L21.422 19.627C21.477 20.1192 21.3052 20.6097 20.9549 20.96C20.6047 21.3102 20.1142 21.482 19.622 21.427L17.222 21.166C16.6691 21.1059 16.1239 21.3321 15.776 21.766L14.27 23.64C13.9608 24.0249 13.4937 24.2488 13 24.2488C12.5063 24.2488 12.0392 24.0249 11.73 23.64L10.219 21.76C9.87053 21.3263 9.32507 21.1001 8.77197 21.16L6.37197 21.421C5.87966 21.4764 5.38889 21.3047 5.03857 20.9544C4.68825 20.6041 4.51652 20.1133 4.57197 19.621L4.83297 17.221C4.89285 16.6679 4.66667 16.1224 4.23297 15.774L2.35297 14.263C1.96806 13.9538 1.74414 13.4867 1.74414 12.993C1.74414 12.4993 1.96806 12.0322 2.35297 11.723L4.23297 10.211C4.66681 9.86309 4.89306 9.31783 4.83297 8.76499L4.57197 6.36499C4.51691 5.87277 4.68878 5.38223 5.039 5.03201C5.38922 4.68179 5.87975 4.50992 6.37197 4.56499L8.77197 4.82599C9.32504 4.88567 9.87042 4.65953 10.219 4.22599L11.73 2.35699Z" fill="currentColor" stroke="currentColor" stroke-width="1.0" stroke-linecap="round" stroke-linejoin="round"/><path d="M16.75 10.749L12.769 16.057C12.6385 16.2308 12.439 16.3394 12.2222 16.3547C12.0055 16.3701 11.7927 16.2907 11.639 16.137L9.25 13.749" stroke="currentColor" stroke-width="1.0" stroke-linecap="round" stroke-linejoin="round"/></svg>