<svg viewBox="0 0 24 24" fill="none" xmlns="http://www.w3.org/2000/svg"><path d="M23.0931 9.66C23.003 9.54 18.2017 4 12 4C7.9989 4 3.9978 6.22 0.906943 9.66C0.323534 10.2978 0 11.1307 0 11.995C0 12.8593 0.323534 13.6922 0.906943 14.33C5.36817 19.25 9.78939 20 12 20C14.2106 20 18.6718 19.21 23.0931 14.33C23.6765 13.6922 24 12.8593 24 11.995C24 11.1307 23.6765 10.2978 23.0931 9.66ZM21.6127 13C21.5126 13.12 17.2114 18.13 12 18C7.06864 17.88 3.47765 14.2 2.37735 13C2.12711 12.7271 1.9883 12.3702 1.9883 12C1.9883 11.6298 2.12711 11.2729 2.37735 11C4.748 8.4 8.32899 5.92 12 6C16.4312 5.9 20.4223 9.7 21.6127 11C21.865 11.2719 22.0053 11.6291 22.0053 12C22.0053 12.3709 21.865 12.7281 21.6127 13V13Z" fill="currentColor"/><path d="M12 8H11.61C11.5675 8.00429 11.5268 8.01942 11.4917 8.04393C11.4567 8.06844 11.4286 8.10151 11.41 8.14C11.3881 8.17801 11.3765 8.22112 11.3765 8.265C11.3765 8.30888 11.3881 8.352 11.41 8.39C11.6108 8.69092 11.7262 9.04066 11.7439 9.40197C11.7616 9.76328 11.681 10.1226 11.5107 10.4418C11.3404 10.7609 11.0866 11.0279 10.7766 11.2142C10.4665 11.4006 10.1117 11.4993 9.75 11.5C9.29423 11.4968 8.85322 11.338 8.5 11.05C8.46352 11.0289 8.42213 11.0178 8.38 11.0178C8.33787 11.0178 8.29648 11.0289 8.26 11.05C8.2193 11.0623 8.1828 11.0856 8.15456 11.1174C8.12631 11.1492 8.10743 11.1881 8.1 11.23C8.03893 11.4823 8.0054 11.7405 8 12C8 12.7911 8.2346 13.5645 8.67412 14.2223C9.11365 14.8801 9.73836 15.3928 10.4693 15.6955C11.2002 15.9983 12.0044 16.0775 12.7804 15.9231C13.5563 15.7688 14.269 15.3878 14.8284 14.8284C15.3878 14.269 15.7688 13.5563 15.9231 12.7804C16.0775 12.0044 15.9983 11.2002 15.6955 10.4693C15.3928 9.73836 14.8801 9.11365 14.2223 8.67412C13.5645 8.2346 12.7911 8 12 8Z" fill="currentColor"/></svg>