<svg viewBox="0 0 24 24" fill="none" xmlns="http://www.w3.org/2000/svg"><path d="M23.4675 9.3666C22.1748 7.95917 20.6948 6.73316 19.0684 5.72244L23.1606 1.6621C23.2523 1.57211 23.3241 1.4642 23.3716 1.3452C23.4191 1.22621 23.4411 1.09872 23.4363 0.970835C23.4315 0.842947 23.3999 0.717446 23.3437 0.602291C23.2874 0.487135 23.2076 0.384836 23.1094 0.301883C23.0259 0.207064 22.9229 0.131072 22.8073 0.0790046C22.6917 0.0269374 22.5662 0 22.4393 0C22.3124 0 22.1869 0.0269374 22.0713 0.0790046C21.9558 0.131072 21.8528 0.207064 21.7692 0.301883L1.78897 20.0859C1.64687 20.1598 1.52429 20.2659 1.43113 20.3955C1.33796 20.5251 1.27682 20.6746 1.25265 20.832C1.22847 20.9893 1.24194 21.1501 1.29196 21.3014C1.34199 21.4527 1.42716 21.5901 1.54061 21.7027C1.65406 21.8153 1.7926 21.8998 1.94505 21.9494C2.09749 21.999 2.25956 22.0124 2.41817 21.9884C2.57678 21.9644 2.72748 21.9038 2.8581 21.8113C2.98872 21.7189 3.09559 21.5973 3.17009 21.4563L7.41577 17.2437C8.8986 17.9002 10.5085 18.2259 12.132 18.1978C16.48 18.1978 20.8178 15.1526 23.3856 12.3103C23.7651 11.9173 23.9836 11.3982 23.9988 10.8541C24.0139 10.31 23.8245 9.77982 23.4675 9.3666V9.3666ZM16.4289 12.1276C16.202 12.8428 15.8045 13.4931 15.2702 14.0232C14.7359 14.5534 14.0805 14.9478 13.3597 15.1729C12.3153 15.5029 11.1843 15.4341 10.1882 14.98C10.1506 14.9634 10.1178 14.9375 10.0928 14.905C10.0679 14.8724 10.0516 14.8341 10.0455 14.7937C10.0394 14.7532 10.0436 14.7119 10.0578 14.6735C10.0721 14.6351 10.0958 14.6009 10.1269 14.574L15.8048 8.93011C15.833 8.89943 15.8684 8.87608 15.9078 8.86211C15.9472 8.84814 15.9894 8.84398 16.0308 8.84999C16.0723 8.856 16.1115 8.872 16.1453 8.89659C16.179 8.92118 16.2061 8.9536 16.2243 8.99102C16.6827 9.97507 16.7556 11.0932 16.4289 12.1276V12.1276Z" fill="currentColor"/><path d="M7.52869 12.2596C7.56203 12.2294 7.58635 12.1907 7.59899 12.1478C7.61162 12.1048 7.61208 12.0592 7.6003 12.016C7.4848 11.6476 7.42279 11.2648 7.41615 10.8791C7.41211 10.2762 7.52813 9.67841 7.75755 9.12013C7.98697 8.56184 8.32528 8.05401 8.75305 7.6258C9.18081 7.1976 9.68961 6.85744 10.2502 6.62488C10.8109 6.39231 11.4122 6.27191 12.0199 6.27058C12.4224 6.27325 12.8223 6.33482 13.2066 6.4533C13.2494 6.46418 13.2943 6.46431 13.3372 6.45368C13.38 6.44304 13.4196 6.42198 13.4522 6.39239L15.4471 4.41298C15.4765 4.38048 15.4974 4.34125 15.5077 4.29879C15.5181 4.25634 15.5177 4.212 15.5066 4.16974C15.4954 4.12748 15.4739 4.08864 15.4438 4.05668C15.4138 4.02472 15.3763 4.00066 15.3346 3.98664C14.263 3.6476 13.1447 3.47637 12.0199 3.4791C7.62076 3.4791 3.22163 6.52435 0.571919 9.36659C0.203844 9.76983 0 10.2944 0 10.8385C0 11.3825 0.203844 11.9071 0.571919 12.3103C1.62883 13.4467 2.80521 14.4676 4.08099 15.3556C4.12857 15.3944 4.18823 15.4156 4.2498 15.4156C4.31136 15.4156 4.37102 15.3944 4.4186 15.3556L7.52869 12.2596Z" fill="currentColor"/></svg>