<svg viewBox="0 0 12 12" fill="none" xmlns="http://www.w3.org/2000/svg"><path fill-rule="evenodd" clip-rule="evenodd" d="M0 1C0 0.447715 0.447715 0 1 0H11C11.5523 0 12 0.447715 12 1V8C12 8.05212 11.996 8.10331 11.9883 8.15328C11.8448 7.98921 11.6657 7.80487 11.4504 7.62037C10.8056 7.06768 9.8195 6.5 8.5 6.5C7.1805 6.5 6.19441 7.06768 5.54961 7.62037C5.22732 7.89662 4.98588 8.17249 4.82408 8.38053C4.74295 8.48484 4.68117 8.57295 4.63867 8.63671C4.61739 8.66862 4.60089 8.69452 4.58915 8.71339L4.57508 8.73634L4.57071 8.74365L4.56919 8.74622L4.5686 8.74724C4.52312 8.8252 4.50029 8.91261 4.50024 9H1C0.447715 9 0 8.55229 0 8V1ZM3.20817 3.41634C3.87542 3.41634 4.41634 2.87542 4.41634 2.20817C4.41634 1.54092 3.87542 1 3.20817 1C2.54092 1 2 1.54092 2 2.20817C2 2.87542 2.54092 3.41634 3.20817 3.41634ZM1.15766 5.27855C1.05357 5.52984 1 5.79916 1 6.07115H5.1423C5.1423 5.79916 5.08873 5.52984 4.98464 5.27855C4.88056 5.02727 4.728 4.79895 4.53567 4.60663C4.34335 4.4143 4.11503 4.26174 3.86374 4.15766C3.61246 4.05357 3.34314 4 3.07115 4C2.79916 4 2.52984 4.05357 2.27855 4.15766C2.02727 4.26174 1.79895 4.4143 1.60663 4.60663C1.4143 4.79895 1.26174 5.02727 1.15766 5.27855ZM5.5 2C5.5 1.72386 5.72386 1.5 6 1.5H9C9.27614 1.5 9.5 1.72386 9.5 2C9.5 2.27614 9.27614 2.5 9 2.5H6C5.72386 2.5 5.5 2.27614 5.5 2ZM6 3.5C5.72386 3.5 5.5 3.72386 5.5 4C5.5 4.27614 5.72386 4.5 6 4.5H10C10.2761 4.5 10.5 4.27614 10.5 4C10.5 3.72386 10.2761 3.5 10 3.5H6Z" fill="currentColor"/><path fill-rule="evenodd" clip-rule="evenodd" d="M5.61342 9.00553L5.60913 9L5.61342 8.99447C5.74328 8.82751 5.93934 8.60338 6.20039 8.37963C6.72226 7.93232 7.48617 7.5 8.5 7.5C9.51383 7.5 10.2777 7.93232 10.7996 8.37963C11.0607 8.60338 11.2567 8.82751 11.3866 8.99447L11.3909 9L11.3866 9.00553C11.2567 9.17249 11.0607 9.39662 10.7996 9.62037C10.2777 10.0677 9.51383 10.5 8.5 10.5C7.48617 10.5 6.72226 10.0677 6.20039 9.62037C5.93934 9.39662 5.74328 9.17249 5.61342 9.00553ZM8.49999 10C9.05228 10 9.49999 9.55228 9.49999 9C9.49999 8.44772 9.05228 8 8.49999 8C7.94771 8 7.49999 8.44772 7.49999 9C7.49999 9.55228 7.94771 10 8.49999 10Z" fill="currentColor"/></svg>