<svg viewBox="0 0 12 12" fill="none" xmlns="http://www.w3.org/2000/svg"><g clip-path="url(#clip0_3072_508)"><path fill-rule="evenodd" clip-rule="evenodd" d="M10.6746 5.3754C10.9945 5.06736 11.5685 4.50664 11.6706 4.39809C11.8584 4.20141 11.972 3.95233 11.9955 3.68981C11.9985 3.66024 12 3.63042 12 3.60045L12 3.59463L12 3.58784C12 3.28765 11.882 2.99824 11.6691 2.77604C10.9944 2.07072 10.1169 1.37372 9.14487 0.854841C8.24447 0.374176 7.23915 0.033838 6.22499 0.00238265C6.17551 0.000786984 6.12607 -1.27278e-05 6.07667 2.11701e-06C6.04843 -2.43207e-05 6.02018 0.000196866 5.99192 0.000665454C3.84666 0.0362472 1.66742 1.3789 0.331142 2.7758C0.118064 2.99803 0 3.28755 0 3.58784L1.97022e-05 3.59456L0 3.60045C0 3.63044 0.00153228 3.66029 0.00455584 3.68989C0.0280795 3.95282 0.142014 4.20227 0.330382 4.39908C1.07588 5.18523 2.20831 6.04181 3.27688 6.6229C3.52361 6.76521 3.76663 6.89236 4.00055 7L4.04986 6.98862C4.05955 6.99077 4.06926 6.9926 4.07899 6.99413C4.19018 6.45977 4.41463 5.96695 4.72611 5.54189C4.2826 5.17505 4 4.62053 4 4C4 2.89543 4.89543 2 6 2C7.10457 2 8 2.89543 8 4C8 4.00241 8 4.00481 7.99999 4.00721C9.07649 4.0735 10.0306 4.59214 10.6746 5.3754Z" fill="currentColor"/><path fill-rule="evenodd" clip-rule="evenodd" d="M7.76467 5.60056C6.56913 5.60056 5.59995 6.56974 5.59995 7.76528C5.59995 8.96082 6.56913 9.93 7.76467 9.93C8.96021 9.93 9.92939 8.96082 9.92939 7.76528C9.92939 6.56974 8.96021 5.60056 7.76467 5.60056ZM4.65869 7.76528C4.65869 6.04989 6.04928 4.6593 7.76467 4.6593C9.48005 4.6593 10.8706 6.04989 10.8706 7.76528C10.8706 9.48066 9.48005 10.8713 7.76467 10.8713C6.04928 10.8713 4.65869 9.48066 4.65869 7.76528Z" fill="currentColor"/><path fill-rule="evenodd" clip-rule="evenodd" d="M9.30923 9.30987C9.49302 9.12608 9.79101 9.12608 9.9748 9.30987L11.8622 11.1973C12.046 11.3811 12.046 11.6791 11.8622 11.8629C11.6784 12.0466 11.3804 12.0466 11.1966 11.8629L9.30923 9.97544C9.12544 9.79165 9.12544 9.49366 9.30923 9.30987Z" fill="currentColor"/></g><defs><clipPath id="clip0_3072_508"><rect width="12" height="12" fill="currentColor"/></clipPath></defs></svg>