<svg viewBox="0 0 24 24" fill="none" xmlns="http://www.w3.org/2000/svg"><path d="M11.999 1.00015C9.09615 1.00007 6.31094 2.15343 4.25057 4.20879C2.19021 6.26416 1.02178 9.05486 1.00001 11.9725C0.997098 14.2053 1.68233 16.3841 2.9615 18.2095L1.71495 21.8946C1.68928 21.9756 1.68596 22.0621 1.70533 22.1448C1.7247 22.2276 1.76603 22.3035 1.82494 22.3645C1.88506 22.4246 1.96058 22.4667 2.04311 22.4862C2.12563 22.5057 2.21193 22.5019 2.2924 22.475L6.13289 21.2497C7.56525 22.1763 9.19303 22.7541 10.8867 22.937C12.5803 23.12 14.2931 22.903 15.8886 22.3034C17.4841 21.7038 18.9184 20.7382 20.0772 19.4833C21.236 18.2285 22.0874 16.719 22.5636 15.0752C23.0398 13.4314 23.1277 11.6985 22.8202 10.0145C22.5128 8.33052 21.8185 6.74192 20.7926 5.37514C19.7667 4.00837 18.4376 2.90116 16.9109 2.14163C15.3843 1.38211 13.7024 0.991244 11.999 1.00015ZM18.5985 16.4038C18.2925 16.991 17.8308 17.4816 17.2647 17.8214C16.6985 18.1612 16.0498 18.337 15.3904 18.3293C14.2895 18.2026 13.2175 17.8912 12.219 17.408C9.98597 16.3845 8.09515 14.7335 6.7745 12.6543C5.01466 10.3234 4.94133 8.14001 6.61868 6.33432C6.85101 6.11531 7.13144 5.95446 7.43722 5.86482C7.74299 5.77518 8.06549 5.75928 8.37853 5.81841C8.61535 5.84829 8.84067 5.93844 9.03315 6.08031C9.22562 6.22218 9.37889 6.41108 9.47843 6.62913L9.8359 7.4767L10.4133 8.86782C10.4858 9.01046 10.5235 9.16832 10.5235 9.32846C10.5235 9.4886 10.4858 9.64645 10.4133 9.78909C10.1787 10.2575 9.86908 10.6839 9.49676 11.0512C9.97361 11.7669 10.5268 12.428 11.1466 13.0228C11.8847 13.6719 12.7321 14.1835 13.6489 14.5336C13.9055 14.1928 14.4005 13.6124 14.5655 13.3544C14.6892 13.1517 14.8862 13.005 15.1151 12.9449C15.344 12.8848 15.5872 12.916 15.7937 13.032C16.142 13.1517 18.0943 14.1191 18.0943 14.1191C18.3439 14.2004 18.5619 14.3583 18.7176 14.5705C18.8591 14.8599 18.9225 15.1814 18.9016 15.5032C18.8807 15.8249 18.7762 16.1354 18.5985 16.4038Z" fill="currentColor"/></svg>