<svg viewBox="0 0 24 24" fill="none" xmlns="http://www.w3.org/2000/svg"><path fill-rule="evenodd" clip-rule="evenodd" d="M21.3767 4.0075C22.4093 4.28675 23.2224 5.10973 23.4984 6.15455C24 8.04851 24 11.9999 24 11.9999C24 11.9999 24 15.9515 23.4984 17.8454C23.2224 18.8901 22.4093 19.7132 21.3767 19.9923C19.5049 20.5 11.9999 20.5 11.9999 20.5C11.9999 20.5 4.49499 20.5 2.62332 19.9923C1.59078 19.7132 0.777489 18.8901 0.501528 17.8454C0 15.9515 0 11.9999 0 11.9999C0 11.9999 0 8.04851 0.501528 6.15455C0.777489 5.10973 1.59078 4.28675 2.62332 4.0075C4.49499 3.5 11.9999 3.5 11.9999 3.5C11.9999 3.5 19.5049 3.5 21.3767 4.0075ZM16.2353 11.9998L9.88235 15.5414V8.4581L16.2353 11.9998Z" fill="currentColor"/></svg>