<svg viewBox="0 0 24 24" fill="none" xmlns="http://www.w3.org/2000/svg"><path fill-rule="evenodd" clip-rule="evenodd" d="M23.9999 12.1186C24.001 15.2689 22.7807 18.2906 20.6075 20.5189C18.4343 22.7471 15.4862 23.9993 12.4119 24C9.84834 24.0072 7.35624 23.1343 5.33325 21.5207L8.69534 21.3919C8.79802 21.3877 8.87969 21.3021 8.88149 21.1968L9.01489 17.528C10.0264 18.1995 11.2067 18.555 12.4119 18.5511C14.9535 18.5515 17.2442 16.9806 18.213 14.5729C19.1818 12.1651 18.6373 9.39624 16.8341 7.56092L15.9572 8.46188C15.904 8.51582 15.8245 8.53207 15.7551 8.50319C15.6832 8.47504 15.6359 8.40407 15.6365 8.32519L15.6958 6.64598L15.825 3.06158C15.8248 3.00942 15.8464 2.95966 15.8843 2.92489C15.9181 2.88834 15.9644 2.86657 16.0135 2.86413L19.5114 2.72744L21.1417 2.66669C21.2164 2.6679 21.284 2.71286 21.3155 2.78272C21.3421 2.85534 21.3265 2.93713 21.2751 2.99414L20.5874 3.69887C22.7759 5.92624 24.0046 8.95778 23.9999 12.1186Z" fill="currentColor"/><path fill-rule="evenodd" clip-rule="evenodd" d="M20 2.49388L16.2591 2.63043C16.2066 2.63286 16.1571 2.6546 16.1209 2.69111C16.0803 2.72585 16.0572 2.77556 16.0575 2.82766L15.9193 6.40814C14.8635 5.78014 13.6446 5.44874 12.4016 5.45173C9.69644 5.45266 7.25624 7.00764 6.21182 9.39602C5.16741 11.7844 5.72289 14.5394 7.62085 16.3843L8.48633 15.5517C8.54502 15.4977 8.63134 15.4815 8.70698 15.5105C8.78306 15.5396 8.83379 15.61 8.83379 15.6883L8.77038 17.2782L8.62962 20.9394C8.62769 21.0446 8.54035 21.1301 8.43053 21.1342L4.83485 21.2629L2.94412 21.3333C2.86321 21.3348 2.78955 21.2889 2.75834 21.2174C2.72813 21.145 2.74499 21.0624 2.80145 21.0062L3.60606 20.2318C-1.0041 15.7939 -1.22094 8.69176 3.1115 4.00436C7.44395 -0.683646 14.835 -1.34452 20 2.49388Z" fill="currentColor"/></svg>